<svg width="104" height="104" fill="none" xmlns="http://www.w3.org/2000/svg"><path fill-rule="evenodd" clip-rule="evenodd" d="M91.265 27.5h-78.53C6.53 27.5 1.5 32.53 1.5 38.735c0 6.204 5.03 11.234 11.235 11.234h78.53c6.205 0 11.235-5.03 11.235-11.234 0-6.205-5.03-11.235-11.235-11.235zM12.735 26C5.702 26 0 31.701 0 38.735c0 7.033 5.702 12.734 12.735 12.734h78.53C98.3 51.47 104 45.768 104 38.735 104 31.7 98.299 26 91.265 26h-78.53z" fill="#fff"/><path d="M11.13 39.114c0-1.044.661-1.641 1.569-1.641.878 0 1.402.558 1.402 1.517V43h1.274v-4.163c0-1.632-.895-2.468-2.242-2.468-1.018 0-1.632.444-1.938 1.15h-.082v-3.246H9.857V43h1.275v-3.886zM20.13 36.455h-1.342v-1.569h-1.274v1.569h-.959v1.022h.96v3.865c-.005 1.19.902 1.764 1.908 1.743.405-.004.678-.08.827-.136l-.23-1.053c-.085.017-.243.056-.448.056-.413 0-.784-.137-.784-.874v-3.6h1.343v-1.023zM24.595 36.455h-1.342v-1.569H21.98v1.569h-.959v1.022h.959v3.865c-.004 1.19.903 1.764 1.91 1.743.404-.004.677-.08.826-.136l-.23-1.053c-.086.017-.243.056-.448.056-.413 0-.784-.137-.784-.874v-3.6h1.342v-1.023zM26.005 45.455h1.274V41.98h.077c.23.418.699 1.147 1.892 1.147 1.585 0 2.736-1.27 2.736-3.388 0-2.122-1.168-3.37-2.749-3.37-1.215 0-1.653.74-1.88 1.146h-.106v-1.061h-1.244v9zm1.248-5.728c0-1.368.597-2.275 1.71-2.275 1.154 0 1.734.976 1.734 2.275 0 1.313-.597 2.314-1.735 2.314-1.095 0-1.709-.937-1.709-2.314zM38.316 38.053c-.264-1.019-1.061-1.684-2.476-1.684-1.479 0-2.527.78-2.527 1.94 0 .928.563 1.546 1.79 1.819l1.108.243c.63.14.925.422.925.83 0 .508-.542.904-1.377.904-.763 0-1.253-.328-1.406-.971l-1.232.187c.213 1.16 1.176 1.811 2.647 1.811 1.58 0 2.676-.84 2.676-2.024 0-.925-.588-1.496-1.79-1.773l-1.04-.238c-.72-.17-1.031-.414-1.027-.857-.004-.503.541-.86 1.266-.86.792 0 1.159.438 1.308.877l1.155-.204zM40.684 38.317c.465 0 .852-.38.852-.852a.857.857 0 0 0-.852-.849.854.854 0 0 0-.852.849c0 .472.383.852.852.852zm0 4.764c.465 0 .852-.38.852-.852a.857.857 0 0 0-.852-.848.854.854 0 0 0-.852.848c0 .473.383.852.852.852zM46.567 33.864h-1.138l-2.812 10.449h1.138l2.812-10.45zM50.973 33.864h-1.137l-2.813 10.449h1.138l2.812-10.45z" fill="#fff"/><path d="M56.49 44.328c-7.872-.371-16.568-.083-24.233 2.637-.536.206-1.072.371-1.607.619a34.256 34.256 0 0 0-4.451 2.184.312.312 0 0 1-.165.082c-.289.165-.577.371-.866.536-4.121 2.802-7.047 6.965-7.047 12.158 0 8.325 7.542 15.042 16.856 15.042 4.698 0 9.067-2.06 11.704-6.017 2.226-3.338 4.822-3.214 5.152-3.214h.041c.33 0 2.885-.165 5.151 3.214 2.68 3.998 6.924 6.059 11.664 6.059 9.314 0 16.856-6.8 16.856-15.125-.042-13.765-18.422-17.64-29.055-18.175zM45.61 61.472c-1.237 1.237-4.451 4.04-8.202 4.04-3.75 0-6.923-2.762-8.201-4.04a.846.846 0 0 1 0-1.195c1.236-1.236 4.451-4.039 8.201-4.039 3.75 0 6.924 2.761 8.202 4.04.33.329.33.865 0 1.194zm28.56 0c-1.236 1.237-4.451 4.04-8.201 4.04-3.75 0-6.924-2.762-8.202-4.04a.846.846 0 0 1 0-1.195c1.237-1.236 4.451-4.039 8.202-4.039 3.75 0 6.923 2.761 8.201 4.04.33.329.33.865 0 1.194z" fill="#6677FB"/><path d="M56.49 43.874c-7.748-.37-15.702-.123-23.12 2.226-6.43 2.02-13.312 5.852-15.208 12.817-1.566 5.77.865 11.787 5.522 15.372 4.822 3.71 11.828 4.946 17.474 2.514a13.294 13.294 0 0 0 3.957-2.637c.577-.577 1.113-1.154 1.607-1.814.536-.7.99-1.442 1.649-2.06 1.112-1.03 2.596-1.608 4.121-1.401 3.009.412 4.204 3.544 6.182 5.44 2.308 2.184 5.316 3.42 8.449 3.75 5.975.577 12.24-1.978 15.866-6.759 3.215-4.245 3.957-10.097 1.608-14.919-2.102-4.286-6.306-7.088-10.592-8.86-4.575-1.896-9.479-2.927-14.383-3.421a41.662 41.662 0 0 0-3.132-.248c-.577-.04-.577.907 0 .907 4.574.248 9.149.948 13.517 2.267 4.41 1.319 8.902 3.38 11.952 6.965 3.173 3.709 3.998 8.984 2.143 13.518-2.143 5.316-7.5 8.819-13.106 9.52-3.05.37-6.223 0-8.984-1.484a13.324 13.324 0 0 1-3.585-2.844c-1.072-1.236-1.814-2.637-3.133-3.626-1.153-.866-2.596-1.32-4.038-1.154-.99.082-1.896.453-2.72 1.03-1.36.948-2.102 2.308-3.174 3.544-4.162 4.863-11.168 5.605-16.938 3.42-5.152-1.977-9.355-6.593-9.85-12.24-.247-3.09.577-6.099 2.35-8.654 1.936-2.802 4.78-4.74 7.788-6.182 6.883-3.338 14.713-4.203 22.255-4.245 1.814 0 3.627.041 5.44.124.66.082.66-.866.083-.866z" fill="#6677FB"/><path d="M45.278 61.143c-1.607 1.607-3.586 3.008-5.811 3.626-2.761.742-5.44-.206-7.707-1.772-.453-.33-.865-.66-1.277-1.03-.289-.248-.742-.536-.907-.866-.247-.412.412-.824.66-1.071.411-.371.823-.7 1.277-1.03 2.184-1.608 4.863-2.68 7.624-2.061 1.443.33 2.761.989 3.998 1.854.494.371.989.742 1.483 1.154.206.206 1.03.783.66 1.196-.371.453.247 1.112.66.659.988-1.154-.248-2.143-1.114-2.844-1.112-.906-2.307-1.73-3.626-2.308-1.484-.618-3.091-.989-4.698-.783-1.566.165-3.091.783-4.451 1.608a17.671 17.671 0 0 0-2.968 2.266c-.453.454-.783.948-.535 1.608.164.494.659.865 1.071 1.195 2.184 1.937 4.987 3.544 7.995 3.462 3.174-.083 6.1-1.978 8.284-4.163.453-.453-.206-1.113-.618-.7zM73.838 61.143c-1.607 1.607-3.585 3.008-5.81 3.626-2.762.742-5.44-.206-7.708-1.772a15.51 15.51 0 0 1-1.277-1.03c-.289-.247-.742-.536-.907-.866-.206-.412.412-.824.66-1.071.412-.371.824-.7 1.277-1.03 2.184-1.608 4.863-2.68 7.625-2.061 1.442.33 2.76.989 3.997 1.855.495.37.99.741 1.484 1.153.206.206 1.03.783.66 1.196-.372.453.246 1.112.659.659.989-1.154-.248-2.143-1.113-2.844-1.113-.906-2.308-1.73-3.627-2.308-1.483-.659-3.09-.989-4.698-.783-1.566.165-3.091.783-4.41 1.608a17.666 17.666 0 0 0-2.967 2.266c-.453.454-.783.948-.536 1.608.165.494.66.865 1.072 1.195 2.184 1.937 4.986 3.544 7.995 3.462 3.173-.083 6.058-1.978 8.284-4.163.412-.453-.248-1.113-.66-.7z" fill="#6677FB"/><path fill-rule="evenodd" clip-rule="evenodd" d="M91.079 39.964a.75.75 0 0 1 1.06 0l3.901 3.9a.75.75 0 1 1-1.06 1.061l-3.901-3.9a.75.75 0 0 1 0-1.061z" fill="#A7B1FC"/><path fill-rule="evenodd" clip-rule="evenodd" d="M88.063 33.117a3.829 3.829 0 1 0 0 7.658 3.829 3.829 0 0 0 0-7.658zm-5.329 3.83a5.33 5.33 0 1 1 10.659 0 5.33 5.33 0 0 1-10.659 0z" fill="#A7B1FC"/></svg>