<svg width="104" height="104" fill="none" xmlns="http://www.w3.org/2000/svg"><path fill-rule="evenodd" clip-rule="evenodd" d="M36.962 78.814a.75.75 0 0 1 .75.75v9.617c0 .138.112.25.25.25h58.375a.75.75 0 0 1 0 1.5H37.962a1.75 1.75 0 0 1-1.75-1.75v-9.617a.75.75 0 0 1 .75-.75z" fill="#fff"/><path d="M98.63 95.218a5.371 5.371 0 1 0-.001-10.742 5.371 5.371 0 0 0 0 10.742z" fill="#FDB22B"/><path fill-rule="evenodd" clip-rule="evenodd" d="M65.31 25.301a.75.75 0 0 1 .75-.75h30.67a.75.75 0 1 1 0 1.5H66.06a.75.75 0 0 1-.75-.75zM68.457 56.758a.75.75 0 0 1 .75-.75h27.525a.75.75 0 0 1 0 1.5H69.207a.75.75 0 0 1-.75-.75z" fill="#fff"/><path fill-rule="evenodd" clip-rule="evenodd" d="M35.782 78.064c18.934 0 34.282-15.348 34.282-34.282C70.064 24.85 54.716 9.5 35.782 9.5 16.85 9.5 1.5 24.849 1.5 43.782c0 18.934 15.349 34.282 34.282 34.282zm0 1.5c19.762 0 35.782-16.02 35.782-35.782C71.564 24.02 55.544 8 35.782 8 16.02 8 0 24.02 0 43.782c0 19.762 16.02 35.782 35.782 35.782z" fill="#fff"/><path fill-rule="evenodd" clip-rule="evenodd" d="M23.234 33.079c0-6.88 5.661-12.46 12.526-12.46 6.908 0 12.524 5.622 12.526 12.457v.003l.047 5.555h-5.899l.048-4.993c-.002-3.695-3.068-6.96-6.722-6.96-3.655 0-6.721 3.267-6.721 6.963v4.99h-5.805v-5.555zm12.526-10.96c-6.048 0-11.026 4.92-11.026 10.96v4.055h2.804v-3.49c0-4.46 3.675-8.462 8.222-8.462s8.222 4.002 8.222 8.462v.007l-.033 3.483h2.871l-.034-4.049v-.006c0-6.004-4.94-10.96-11.026-10.96z" fill="#fff"/><path fill-rule="evenodd" clip-rule="evenodd" d="M50.308 36.599c.019 0 .036 0 .054.002 1.123.065 1.894.93 1.972 2.063.026 2.596.018 5.19.009 7.786-.005 1.298-.01 2.595-.01 3.893V59.281l.002.152c.003.505.006 1.007-.319 1.477-.643.948-1.747.915-2.773.884-.178-.005-.354-.01-.524-.01H22.739c-.13 0-.265.002-.4.004-1.179.019-2.473.039-2.936-1.315-.133-.365-.127-.758-.122-1.132l.002-.219v-9.136c0-1.257-.004-2.518-.009-3.78-.008-2.53-.017-5.064.01-7.582 0-1.112.834-1.986 1.946-2.026h29.009a.46.46 0 0 1 .069 0zM33.267 48.276l-.954 5.96h6.277l-.954-5.96a3.204 3.204 0 0 0-2.185-5.561 3.204 3.204 0 0 0-2.184 5.561z" fill="#29DDCC"/><path d="M98.63 30.976a5.371 5.371 0 1 0-.001-10.742 5.371 5.371 0 0 0 0 10.742z" fill="#F77779"/><path d="M98.63 62.433a5.371 5.371 0 1 0-.001-10.742 5.371 5.371 0 0 0 0 10.742z" fill="#6677FB"/></svg>