<svg width="562" height="557" fill="none" xmlns="http://www.w3.org/2000/svg"><path fill-rule="evenodd" clip-rule="evenodd" d="M92.5 24.5v61h61v-61h-61zM91 23h64v64H91V23z" fill="#F77779"/><path fill-rule="evenodd" clip-rule="evenodd" d="M69.5 4.5v37h37v-37h-37zM68 3h40v40H68V3z" fill="#FDB22B"/><g filter="url(#a)"><path d="M31 148a6 6 0 0 1 6-6h488a6 6 0 0 1 6 6v342a6 6 0 0 1-6 6H37a6 6 0 0 1-6-6V148z" fill="#2B3860"/><path fill-rule="evenodd" clip-rule="evenodd" d="M37 141h488a7 7 0 0 1 7 7v342a7 7 0 0 1-7 7H37a7 7 0 0 1-7-7V148a7 7 0 0 1 7-7zm0 1a6 6 0 0 0-6 6v342a6 6 0 0 0 6 6h488a6 6 0 0 0 6-6V148a6 6 0 0 0-6-6H37z" fill="#2B3860"/><path d="M31 148a6 6 0 0 1 6-6h488a6 6 0 0 1 6 6v39.092H31V148z" fill="#384775"/><path d="M51.65 168.867c2.486 0 4.496-2.061 4.49-4.604-.006-2.543-2.026-4.604-4.511-4.604-2.485 0-4.495 2.061-4.49 4.604.007 2.543 2.026 4.604 4.512 4.604z" fill="#F77779"/><path d="M66.771 168.867c2.486 0 4.495-2.061 4.49-4.604-.007-2.543-2.026-4.604-4.511-4.604-2.486 0-4.496 2.061-4.49 4.604.007 2.543 2.026 4.604 4.511 4.604z" fill="#FDB22B"/><path d="M81.892 168.867c2.486 0 4.496-2.061 4.49-4.604-.007-2.543-2.026-4.604-4.511-4.604-2.486 0-4.495 2.061-4.49 4.604.007 2.543 2.026 4.604 4.511 4.604z" fill="#29DDCC"/><path d="M518.871 157.364a2 2 0 1 1-3.999.001 2 2 0 0 1 3.999-.001zM518.871 163.971a2 2 0 1 1-3.999.001 2 2 0 0 1 3.999-.001zM518.871 170.578a2 2 0 1 1-3.999.001 2 2 0 0 1 3.999-.001zM102.574 165c0-5.523 4.477-10 10-10h341.895c5.523 0 10 4.477 10 10s-4.477 10-10 10H112.574c-5.523 0-10-4.477-10-10z" fill="#202A44"/></g><path d="M105 262a3 3 0 0 1 3-3h145a3 3 0 1 1 0 6H108a3 3 0 0 1-3-3z" fill="#6677FB"/><path d="M105 276a3 3 0 0 1 3-3h153a3 3 0 1 1 0 6H108a3 3 0 0 1-3-3zM105 290a3 3 0 0 1 3-3h194a3 3 0 1 1 0 6H108a3 3 0 0 1-3-3z" fill="#384775"/><path d="M71 267a8 8 0 0 1 8-8h8a8 8 0 0 1 0 16h-8a8 8 0 0 1-8-8z" fill="#202A44"/><path d="M83.017 263c-11.065 0-8.94 8-3.962 8 .998 0 1.937-.431 2.536-1.164l.643-.787c.392-.479 1.174-.479 1.566 0l.643.787c.599.733 1.538 1.164 2.535 1.164 4.747 0 7.266-8-3.961-8zm-3.417 5.091a2.762 2.762 0 0 1-2.002-.855.333.333 0 0 1 0-.472 2.758 2.758 0 0 1 2.002-.855c1.027 0 1.694.535 2.002.855.13.136.13.335 0 .472-.308.32-.976.855-2.002.855zm6.8 0a2.762 2.762 0 0 1-2.002-.855.333.333 0 0 1 0-.472 2.758 2.758 0 0 1 2.002-.855c1.027 0 1.694.535 2.002.855.13.136.13.335 0 .472-.308.32-.975.855-2.002.855z" fill="#A7B1FC"/><path d="M105 378a3 3 0 0 1 3-3h194a3 3 0 1 1 0 6H108a3 3 0 0 1-3-3z" fill="#6677FB"/><path d="M105 392a3 3 0 0 1 3-3h145a3 3 0 1 1 0 6H108a3 3 0 0 1-3-3zM105 406a3 3 0 0 1 3-3h176a3 3 0 1 1 0 6H108a3 3 0 0 1-3-3z" fill="#384775"/><path d="M71 383a8 8 0 0 1 8-8h8a8 8 0 0 1 0 16h-8a8 8 0 0 1-8-8z" fill="#202A44"/><path d="M83.017 379c-11.065 0-8.94 8-3.962 8 .998 0 1.937-.431 2.536-1.164l.643-.787c.392-.479 1.174-.479 1.566 0l.643.787c.599.733 1.538 1.164 2.535 1.164 4.747 0 7.266-8-3.961-8zm-3.417 5.091a2.762 2.762 0 0 1-2.002-.855.333.333 0 0 1 0-.472 2.758 2.758 0 0 1 2.002-.855c1.027 0 1.694.535 2.002.855.13.136.13.335 0 .472-.308.32-.976.855-2.002.855zm6.8 0a2.762 2.762 0 0 1-2.002-.855.333.333 0 0 1 0-.472 2.758 2.758 0 0 1 2.002-.855c1.027 0 1.694.535 2.002.855.13.136.13.335 0 .472-.308.32-.975.855-2.002.855z" fill="#A7B1FC"/><path d="M105 320a3 3 0 0 1 3-3h128a3 3 0 1 1 0 6H108a3 3 0 0 1-3-3z" fill="#6677FB"/><path d="M105 334a3 3 0 0 1 3-3h235a3 3 0 1 1 0 6H108a3 3 0 0 1-3-3zM105 348a3 3 0 0 1 3-3h176a3 3 0 1 1 0 6H108a3 3 0 0 1-3-3z" fill="#384775"/><path d="M71 325a8 8 0 0 1 8-8h8a8 8 0 0 1 0 16h-8a8 8 0 0 1-8-8z" fill="#202A44"/><path d="M83.017 321c-11.065 0-8.94 8-3.962 8 .998 0 1.937-.431 2.536-1.164l.643-.787c.392-.479 1.174-.479 1.566 0l.643.787c.599.733 1.538 1.164 2.535 1.164 4.747 0 7.266-8-3.961-8zm-3.417 5.091a2.762 2.762 0 0 1-2.002-.855.333.333 0 0 1 0-.472 2.758 2.758 0 0 1 2.002-.855c1.027 0 1.694.535 2.002.855.13.136.13.335 0 .472-.308.32-.976.855-2.002.855zm6.8 0a2.762 2.762 0 0 1-2.002-.855.333.333 0 0 1 0-.472 2.758 2.758 0 0 1 2.002-.855c1.027 0 1.694.535 2.002.855.13.136.13.335 0 .472-.308.32-.975.855-2.002.855z" fill="#A7B1FC"/><path d="M105 436a3 3 0 0 1 3-3h128a3 3 0 1 1 0 6H108a3 3 0 0 1-3-3z" fill="#6677FB"/><path d="M105 450a3 3 0 0 1 3-3h235a3 3 0 1 1 0 6H108a3 3 0 0 1-3-3zM105 464a3 3 0 0 1 3-3h176a3 3 0 1 1 0 6H108a3 3 0 0 1-3-3z" fill="#384775"/><path d="M71 441a8 8 0 0 1 8-8h8a8 8 0 0 1 0 16h-8a8 8 0 0 1-8-8z" fill="#202A44"/><path d="M83.017 437c-11.065 0-8.94 8-3.962 8 .998 0 1.937-.431 2.536-1.164l.643-.787c.392-.479 1.174-.479 1.566 0l.643.787c.599.733 1.538 1.164 2.535 1.164 4.747 0 7.266-8-3.961-8zm-3.417 5.091a2.762 2.762 0 0 1-2.002-.855.333.333 0 0 1 0-.472 2.758 2.758 0 0 1 2.002-.855c1.027 0 1.694.535 2.002.855.13.136.13.335 0 .472-.308.32-.976.855-2.002.855zm6.8 0a2.762 2.762 0 0 1-2.002-.855.333.333 0 0 1 0-.472 2.758 2.758 0 0 1 2.002-.855c1.027 0 1.694.535 2.002.855.13.136.13.335 0 .472-.308.32-.975.855-2.002.855z" fill="#A7B1FC"/><path d="M134 218c0-5.523 4.477-10 10-10h241c5.523 0 10 4.477 10 10s-4.477 10-10 10H144c-5.523 0-10-4.477-10-10z" fill="#202A44"/><g clip-path="url(#b)"><path fill-rule="evenodd" clip-rule="evenodd" d="M55.28 222.531c.152-.217.4-.359.736-.413a88.676 88.676 0 0 1 28.527-.043c.26.043.422.119.51.206.075.076.107.174.086.316-.022.119-.076.195-.163.239-.108.054-.281.076-.541.044a87.458 87.458 0 0 0-28.072 1.109c-.087.011-.173.022-.249.022h-.076a.956.956 0 0 1-.487-.152.979.979 0 0 1-.412-.631c-.032-.261.011-.512.141-.697z" fill="#6677FB"/><path d="M61.877 215.134a4.385 4.385 0 0 0-1.083-.587c-.433-.174-.953-.315-1.549-.446-.509-.12-.91-.228-1.202-.348-.292-.109-.498-.239-.628-.381a.734.734 0 0 1-.184-.522c0-.381.163-.674.487-.892.325-.218.758-.326 1.3-.326.487 0 .953.076 1.419.239.465.163.91.413 1.343.74l.671-1.512a3.268 3.268 0 0 0-.92-.588 6.433 6.433 0 0 0-1.203-.38 6.749 6.749 0 0 0-1.332-.131c-.758 0-1.418.131-1.992.392a3.36 3.36 0 0 0-1.332 1.066 2.617 2.617 0 0 0-.477 1.523c0 .391.065.739.184 1.044.13.304.325.566.596.783.27.229.628.424 1.061.587.433.175.964.316 1.581.446.488.109.888.218 1.18.327.293.109.51.228.64.381a.75.75 0 0 1 .206.522c0 .348-.163.62-.488.816-.325.195-.79.293-1.397.293a5.205 5.205 0 0 1-1.603-.239 5.649 5.649 0 0 1-1.473-.74L55 218.713c.292.229.639.435 1.04.599.4.163.834.293 1.288.38.455.087.932.131 1.408.131.834 0 1.538-.12 2.134-.359.585-.239 1.04-.577 1.354-1.012.314-.435.465-.957.465-1.555 0-.381-.065-.707-.205-1.001a1.915 1.915 0 0 0-.607-.762zM65.666 210.62l-2.025.664v5.808c0 .849.216 1.523.66 2.002.444.479 1.083.718 1.917.718.217 0 .412-.011.607-.044.184-.021.379-.076.563-.152v-1.555c-.13.021-.25.043-.358.065a2.819 2.819 0 0 1-.314.022c-.184 0-.357-.033-.52-.098a.808.808 0 0 1-.39-.348 1.252 1.252 0 0 1-.151-.642v-2.665h1.733v-1.523h-1.733v-2.252h.01zM73.281 213.84a2.021 2.021 0 0 0-.693-.729c-.422-.272-.899-.402-1.451-.402-.585 0-1.105.152-1.56.446-.454.304-.801.718-1.061 1.261-.26.544-.379 1.164-.379 1.882 0 .707.13 1.327.379 1.86.25.533.606.936 1.061 1.23.455.282.975.435 1.57.435.542 0 1.03-.131 1.452-.392.303-.185.53-.435.693-.729v1.012h1.993v-6.831h-1.993v.957h-.01zm-.411 3.905c-.271.337-.65.511-1.148.511-.51 0-.9-.163-1.17-.5-.27-.337-.412-.827-.412-1.458 0-.642.141-1.131.423-1.49.281-.359.671-.533 1.159-.533.487 0 .877.174 1.148.522.27.348.411.838.411 1.49 0 .631-.14 1.121-.411 1.458zM84.209 210.62l-2.025.664v5.808c0 .849.216 1.523.66 2.002.444.479 1.083.718 1.917.718.217 0 .412-.011.607-.044.184-.021.379-.076.563-.152v-1.555c-.13.021-.25.043-.358.065a2.815 2.815 0 0 1-.313.022c-.185 0-.358-.033-.52-.098a.809.809 0 0 1-.39-.348 1.253 1.253 0 0 1-.152-.642v-2.665h1.733v-1.523h-1.733v-2.252h.011zM92.678 213.155c-.455-.305-.975-.446-1.56-.446-.552 0-1.04.13-1.45.402a1.947 1.947 0 0 0-.77.936l-.13-1.164h-1.906c.044.326.076.652.087.979.01.326.022.652.022.979v7.886h2.025v-4.025c.162.294.379.533.671.718.412.261.9.392 1.452.392.584 0 1.104-.142 1.56-.435.454-.283.8-.696 1.06-1.229.26-.533.39-1.154.39-1.861 0-.707-.13-1.338-.39-1.881-.26-.533-.606-.947-1.06-1.251zm-.985 4.601c-.271.337-.65.5-1.148.5-.51 0-.9-.174-1.17-.511-.27-.337-.4-.838-.4-1.479 0-.642.13-1.143.4-1.491.27-.348.66-.522 1.17-.522.487 0 .877.185 1.148.533.27.359.411.86.411 1.491-.01.652-.14 1.142-.411 1.479zM99.945 213.84a2.02 2.02 0 0 0-.693-.729c-.422-.272-.899-.402-1.451-.402-.585 0-1.105.152-1.56.446-.455.304-.801.718-1.061 1.261-.26.544-.38 1.164-.38 1.882 0 .707.13 1.327.38 1.86.249.533.606.936 1.061 1.23.455.282.975.435 1.57.435.542 0 1.03-.131 1.452-.392.303-.185.53-.435.693-.729v1.012h1.993v-6.831h-2.004v.957zm-.4 3.905c-.271.337-.65.511-1.149.511-.509 0-.898-.163-1.17-.5-.27-.337-.41-.827-.41-1.458s.14-1.131.422-1.49c.281-.359.671-.533 1.158-.533.488 0 .878.174 1.148.522.271.348.412.838.412 1.49-.01.631-.14 1.121-.412 1.458zM108.12 213.851a2.042 2.042 0 0 0-.704-.729 2.641 2.641 0 0 0-1.462-.413c-.585 0-1.115.141-1.57.435a2.987 2.987 0 0 0-1.072 1.185c-.26.512-.39 1.099-.39 1.784 0 .686.13 1.284.39 1.795.26.512.617.903 1.072 1.186.455.283.975.424 1.57.424.369 0 .704-.065 1.029-.206.314-.142.585-.316.812-.544.13-.131.239-.272.336-.414v1.197c0 .555-.141.968-.433 1.24-.282.272-.715.402-1.3.402-.4 0-.812-.054-1.223-.152a5.57 5.57 0 0 1-1.224-.457l-.304 1.512c.802.425 1.744.631 2.816.631 1.202 0 2.123-.283 2.74-.848.618-.566.932-1.393.932-2.491v-6.505h-2.015v.968zm-.422 3.622c-.282.327-.671.49-1.159.49-.487 0-.877-.163-1.17-.501-.292-.326-.433-.783-.433-1.359 0-.577.141-1.023.433-1.349.282-.327.683-.49 1.181-.49s.888.163 1.17.501c.281.326.411.783.411 1.348-.011.577-.151 1.034-.433 1.36zM79.444 213.187a1.993 1.993 0 0 0-.628.87l-.141-1.185h-1.906c.043.326.075.652.086.979.011.326.022.652.022.979v4.873h2.025v-3.568c0-.337.065-.631.195-.881s.314-.435.553-.576c.238-.131.541-.207.898-.207.217 0 .434.032.65.098v-1.817a1.834 1.834 0 0 0-.368-.033c-.52 0-.986.153-1.386.468zM117.535 216.135c0-.707-.13-1.316-.379-1.838a2.742 2.742 0 0 0-1.073-1.197c-.465-.283-1.018-.424-1.646-.424-.66 0-1.234.152-1.733.446a3.127 3.127 0 0 0-1.169 1.262c-.282.533-.433 1.153-.433 1.86 0 .729.151 1.36.444 1.882.292.533.714.935 1.267 1.229.552.283 1.202.435 1.96.435.487 0 .964-.076 1.43-.217.476-.153.877-.348 1.202-.609l-.531-1.371a3.52 3.52 0 0 1-.964.5c-.346.12-.704.174-1.061.174-.618 0-1.072-.174-1.376-.511-.195-.228-.325-.544-.39-.946h4.43l.022-.675zm-4.452-.707a2.09 2.09 0 0 1 .325-.816c.26-.337.618-.5 1.083-.5.434 0 .759.141.986.435.173.218.271.511.314.881h-2.708z" fill="#fff"/></g><path d="M141 218a3 3 0 0 1 3-3h86a3 3 0 1 1 0 6h-86a3 3 0 0 1-3-3z" fill="#6677FB"/><path fill-rule="evenodd" clip-rule="evenodd" d="M369 223v-11h1v11h-1z" fill="#384775"/><path d="M384 249a6 6 0 0 1 6-6h95a6 6 0 0 1 6 6v64H384v-64z" fill="#384775"/><path d="M491 359a6 6 0 0 1-6 6h-95a6 6 0 0 1-6-6v-46h107v46z" fill="#202A44"/><path d="M394 325a3 3 0 0 1 3-3h43a3 3 0 1 1 0 6h-43a3 3 0 0 1-3-3z" fill="#6677FB"/><path d="M394 339a3 3 0 0 1 3-3h81a3 3 0 1 1 0 6h-81a3 3 0 0 1-3-3zM394 353a3 3 0 0 1 3-3h59a3 3 0 1 1 0 6h-59a3 3 0 0 1-3-3z" fill="#384775"/><path d="M268.5 133c-1.43-4.649.23-12.041 1.55-16.176.256-.802 1.01-1.324 1.851-1.324h53.033c.37 0 .732.102 1.047.296 2.374 1.462 7.036 4.34 10.019 6.204 3.129 1.956 4.282 8.532 4.487 11.784.01.145.001.288-.023.432L338 149l-2.404 9.616a2.005 2.005 0 0 0-.039.775l8.233 56.175a1.837 1.837 0 0 1-1.135 1.972 1.836 1.836 0 0 0-1.155 1.706v.448c0 .204.031.407.093.602l5.639 17.856a2 2 0 0 0 1.079 1.219l3.969 1.803c.462.211.833.586.998 1.067 1.033 3.006 1.636 8.025-2.778 8.761-4.8.8-9.333-4.333-11-7-1.167-1.5-4.8-5.4-10-9-4.901-3.393-3.376-9.126-1.789-12.006.18-.329.289-.693.289-1.068v-.098a2 2 0 0 0-.586-1.414l-.027-.027a2.006 2.006 0 0 1-.523-.917l-4.095-15.926a1.007 1.007 0 0 0-1.928-.067l-2.659 7.977a1.994 1.994 0 0 0-.046 1.104c1.543 6.35 4.476 18.5 4.864 20.442.5 2.5-.5 7.5-5 8.5s-6-.5-10-2c-3.2-1.2-3.667-7.167-3.5-10v-4.926c0-.375-.108-.74-.289-1.068-.877-1.592-2.211-4.786-2.211-8.006 0-3.157 2.05-5.775 3.454-7.047.341-.308.607-.696.718-1.142l1.588-6.35a2.002 2.002 0 0 0-.379-1.735l-.762-.953c-.39-.487-.529-1.126-.39-1.734.702-3.078 1.771-8.883 1.771-13.539 0-5.047 1.256-18.35 1.939-24.92.04-.38-.03-.761-.2-1.103l-.441-.881a1.938 1.938 0 0 0-.892-.888c-4.373-2.118-14.367-6.3-23.906-8.208-12.459-2.492-13.99-7.467-15.98-13.937l-.02-.063z" fill="#202A44"/><path fill-rule="evenodd" clip-rule="evenodd" d="M314.894 13.59c0-5.49-5.552-12.722-17.188-11.752-9.263.772-14.803 7.411-16.392 10.588l-.033.066-.045.059c-2.652 3.409-3.302 7.453-3.007 11.18.295 3.734 1.535 7.083 2.574 9.002l.695 1.283-1.447-.181c-1.315-.165-2.046.33-2.492.971-.486.7-.665 1.634-.665 2.284v1.214l-1.086-.543c-.884-.442-1.53-.477-1.993-.341-.464.135-.875.479-1.213 1.052-.696 1.178-.953 3.114-.714 5.025.427 3.416-.874 5.503-1.794 6.193a.75.75 0 1 1-.9-1.2c.412-.31 1.578-1.822 1.205-4.807-.261-2.088-.018-4.402.911-5.974.474-.802 1.157-1.458 2.084-1.73.649-.189 1.354-.17 2.101.048.125-.677.379-1.425.833-2.077.565-.813 1.42-1.441 2.608-1.605a25.962 25.962 0 0 1-2.203-8.495c-.312-3.953.363-8.383 3.273-12.162 1.787-3.513 7.701-10.522 17.575-11.345 12.364-1.03 18.813 6.738 18.813 13.247a.75.75 0 0 1-1.5 0z" fill="#fff"/><path d="M281.624 114.249c-2.71-1.073-5.136-2.032-7.394-3.048-1.355-.621-2.878-1.242-4.289-1.975l-.452-.226-.056.508c-.17 1.693-.339 3.386-.395 4.967v.169c-.057.395-.113 1.016.338 1.298.17.113.395.169.621.169h.508c.621 0 1.298 0 1.919-.056 1.072-.057 2.145-.057 3.217-.113l2.765-.113a150.38 150.38 0 0 1 5.08-.113h1.862l-1.749-.677a20.73 20.73 0 0 0-1.975-.79zM328.744 72c-.282-.508-.131-.936-.244-1.5-.226-1.129.075-2.582.357-3.71a.737.737 0 0 0-.282-.735c-1.242-.62-2.54-1.241-3.782-1.862-.79-.395-1.693-.677-2.427-1.185-.677-.452-.225-1.355-.056-1.976.338-1.298.677-2.652 1.016-3.95a.637.637 0 0 0-.17-.621c-.282-.226-.395-.621-.564-.96-.282-.508-.564-.959-.903-1.41-.564-.847-1.242-1.58-1.975-2.315-1.694-1.58-3.725-2.652-5.701-3.837-1.016-.565-1.975-1.13-2.935-1.863-.846-.677-1.636-1.41-2.539-2.032-1.693-1.128-3.556-2.031-5.362-2.934-.395-.226-.959.056-.959.564 0 2.257.056 4.571.338 6.829.057.564.226 1.129.113 1.637s-.339 1.016-.508 1.524c-.056.225-.113.395-.169.62a356.033 356.033 0 0 0-2.145 7.337c-.169.508-.282 1.016-.451 1.524-.339-.395-.621-.79-.903-1.129a30.774 30.774 0 0 0-2.314-2.37c-1.694-1.637-3.556-3.104-5.249-4.797-1.637-1.637-3.161-3.387-4.515-5.305-.339-.452-.621-.903-.96-1.355-.113-.226-.621-.734-.677-.96 0-.225.508-.846.621-1.072.282-.508.621-.96.903-1.467.677-1.073 1.298-2.201 1.749-3.387.283-.79.452-1.636.565-2.483.113-.564-.395-1.016-.96-.734a1.242 1.242 0 0 0-.282.17c-.056.056-.282.169-.226.113-.62.225-1.241.338-1.862.564a19.567 19.567 0 0 0-3.33 1.524c-1.129.62-2.145 1.354-3.161 2.145-1.072.846-2.031 1.918-3.16 2.709-2.201 1.58-4.515 3.047-6.773 4.515-1.185.79-2.314 1.524-3.499 2.314-1.016.677-2.032 1.354-2.878 2.2-1.807 1.863-3.161 4.064-3.725 6.548-.508 2.257-1.073 4.515-1.581 6.716a48.341 48.341 0 0 0-.846 4.12c-.113.564-.17 1.129-.226 1.693-.057.565 0 1.129-.057 1.693-.056.452-.112.903.113 1.355.226.395.565.677.96.903a29.679 29.679 0 0 0 2.765 1.862 28.26 28.26 0 0 0 7.902 2.879c1.467.282 2.878.451 4.346.564.733.057 1.467.057 2.144.057h.339c-.057.338-.113.62-.113.903-.056.508-.056 1.072-.113 1.58-.056 1.016-.169 1.975-.226 2.991a45.435 45.435 0 0 1-.282 2.766c-.056.677-.113 1.467-.282 2.144a.735.735 0 0 0 .282.734c6.039 3.274 10.78 8.297 15.916 12.755 2.596 2.258 5.249 4.346 8.24 6.039 1.58.847 3.217 1.637 4.967 2.145 1.298.395 2.765.169 4.063-.113 1.919-.451 3.669-1.354 5.588-1.919a20.353 20.353 0 0 1 5.192-.846c.452 0 .677-.395.621-.791-.395-2.201-.734-4.402-.959-6.659-.113-1.298-.226-2.54-.283-3.838-.056-.847.057-1.75-.056-2.596-.169-1.186-.395-2.37-.452-3.613-.113-1.185-.169-2.426-.282-3.612-.169-2.144-.451-4.289-.564-6.434h.79c1.242 0 2.54 0 3.781-.112 1.186-.113 2.371-.283 3.5-.621.338-.113 1.771-.407 2.053-.633.169-.17.331-.274.5-.5.959-1.862 1.228-3.721 1.962-5.753a5.59 5.59 0 0 0 .282-.903c0-.113.056-.451.113-.508.113-.282-.113-.116 0-.399.056-.225.056-.655-.113-.937zm-53.956 1.449c0-4.007-.169-8.014-.564-12.021-.395-3.838-.903-7.79-2.427-11.345-.339-.733.79-1.41 1.072-.62 1.581 3.611 2.145 7.506 2.54 11.457.452 4.176.621 8.352.621 12.529.056.79-1.242.79-1.242 0zm24.382-11.457c0-.056 0-.056 0 0z" fill="#496EB1"/><path fill-rule="evenodd" clip-rule="evenodd" d="M289.258 35.849a.75.75 0 0 1 .627.855c-.175 1.139-.616 2.95-1.376 4.742-.753 1.776-1.862 3.635-3.429 4.755a.75.75 0 0 1-.872-1.221c1.233-.88 2.207-2.438 2.92-4.12.707-1.666 1.116-3.355 1.274-4.384a.75.75 0 0 1 .856-.627zM303.228 36.345a.75.75 0 0 1 .662.828 79.434 79.434 0 0 0-.42 6.559c-.058 2.614.027 5.296.41 7.211a.75.75 0 1 1-1.471.294c-.416-2.084-.498-4.902-.439-7.538.059-2.65.261-5.171.429-6.691a.75.75 0 0 1 .829-.663zM259.73 77.345a.75.75 0 0 1 .659.831c-.5 4.334-1.492 14.132-1.495 18.89 0 .067-.007.13-.019.192-.148.756-.208 1.922.068 2.963.272 1.024.832 1.827 1.872 2.138a.988.988 0 0 1 .306.151c4.973 3.639 18.542 11.781 33.175 15.346a.976.976 0 0 1 .192.067c1.704.81 4.668 1.91 7.984 2.561 3.327.652 6.926.835 9.948-.11a.75.75 0 0 1 .447 1.432c-3.364 1.052-7.247.824-10.684.15-3.417-.671-6.476-1.799-8.291-2.655-14.795-3.615-28.461-11.795-33.588-15.53-1.649-.527-2.462-1.85-2.811-3.165-.343-1.296-.271-2.675-.099-3.588.01-4.876 1.008-14.709 1.505-19.014a.75.75 0 0 1 .831-.659zM343.286 56.548c.801.834 1.444 1.847 1.6 2.936.266 1.86.134 3.612-.539 5.43-.668 1.803-1.855 3.63-3.639 5.67-3.004 3.433-3.284 6.413-3.687 10.71-.041.442-.084.899-.131 1.371-.254 2.537-.885 6.319-1.703 9.905-.811 3.555-1.83 7.034-2.892 8.892-2.238 3.917-7.77 5.486-12.612 1.72-1.063-.826-1.855-2.217-2.462-3.802-.614-1.604-1.074-3.505-1.416-5.46-.684-3.912-.911-8.132-.911-10.83a.75.75 0 1 1 1.5 0c0 2.635.223 6.766.888 10.571.333 1.903.773 3.702 1.34 5.183.575 1.501 1.245 2.581 1.982 3.154 4.158 3.235 8.626 1.804 10.388-1.28.938-1.64 1.919-4.913 2.733-8.482.807-3.54 1.426-7.258 1.672-9.72.047-.472.09-.932.132-1.383.396-4.28.715-7.725 4.05-11.536 1.716-1.961 2.779-3.633 3.361-5.205.577-1.558.695-3.055.461-4.696-.094-.66-.513-1.397-1.197-2.11a8.767 8.767 0 0 0-2.45-1.758c-.907-.439-1.762-.652-2.394-.621-.31.015-.531.086-.68.182a.786.786 0 0 0-.325.438.75.75 0 0 1-1.423-.474c.177-.531.501-.947.939-1.227.427-.274.921-.394 1.416-.418.977-.047 2.09.271 3.121.77a10.276 10.276 0 0 1 2.878 2.07z" fill="#fff"/><path fill-rule="evenodd" clip-rule="evenodd" d="M336.773 56.129c1.915.936 4.029 2.644 5.384 3.914a.75.75 0 0 1-1.026 1.095c-1.312-1.23-3.298-2.822-5.017-3.661-.877-.43-1.562-.599-2.01-.544a.702.702 0 0 0-.429.187c-.103.1-.222.285-.299.633a.75.75 0 0 1-1.465-.325c.123-.553.353-1.027.716-1.382.368-.36.821-.544 1.294-.602.897-.11 1.913.226 2.852.685z" fill="#fff"/><path fill-rule="evenodd" clip-rule="evenodd" d="M335.332 58.26c1.771.981 3.653 2.61 4.842 3.8a.75.75 0 1 1-1.061 1.06c-1.144-1.143-2.912-2.664-4.508-3.549-.81-.449-1.486-.683-1.972-.693-.228-.005-.38.04-.486.104-.102.062-.216.174-.314.404a.75.75 0 0 1-1.379-.591c.202-.47.505-.847.914-1.095.405-.246.856-.332 1.298-.322.856.019 1.793.397 2.666.881z" fill="#fff"/><path fill-rule="evenodd" clip-rule="evenodd" d="M334.702 61.14c1.575 1.385 3.111 3.23 4.047 4.507a.75.75 0 1 1-1.21.887c-.897-1.224-2.361-2.978-3.828-4.268-.737-.648-1.436-1.144-2.035-1.41-.617-.274-.959-.235-1.146-.123-.057.035-.082.066-.097.146-.022.11-.017.309.072.619.18.62.625 1.441 1.259 2.37 1.255 1.837 3.094 3.875 4.411 5.192a.75.75 0 0 1-1.061 1.06c-1.35-1.35-3.261-3.461-4.589-5.407-.658-.963-1.213-1.943-1.461-2.799-.124-.428-.189-.888-.103-1.325.093-.47.354-.876.797-1.142.813-.487 1.742-.31 2.526.037.802.356 1.634.966 2.418 1.656z" fill="#fff"/><path fill-rule="evenodd" clip-rule="evenodd" d="M327.779 41.997a2.75 2.75 0 0 1 3.703-1.732l9.336 3.95a2.75 2.75 0 0 1 1.578 3.269l-2.03 7.307a.75.75 0 1 1-1.445-.401l2.03-7.308a1.25 1.25 0 0 0-.718-1.485l-9.336-3.95a1.25 1.25 0 0 0-1.683.787l-5.861 19.259c-.178.583.091 1.21.637 1.482l11.489 5.745a.75.75 0 1 1-.671 1.341l-11.489-5.745a2.749 2.749 0 0 1-1.401-3.26l5.861-19.259z" fill="#fff"/><path fill-rule="evenodd" clip-rule="evenodd" d="M328.326 65.863a.75.75 0 0 1 .545.91c-.612 2.448.009 4.652.585 5.843.245.507.442 1.163.292 1.862-.39 1.82-1.523 5.318-3.957 9.49-2.717 4.658-4.071 12.061-4.402 15.2a.75.75 0 1 1-1.491-.156c.336-3.194 1.715-10.858 4.598-15.8 2.358-4.041 3.43-7.391 3.785-9.048.052-.24-.003-.537-.176-.895-.682-1.413-1.409-3.982-.689-6.86a.75.75 0 0 1 .91-.546zM269.876 116.377a.75.75 0 0 1 .48.946c-1.309 4.009-2.379 10.229-1.374 15.848.501 2.801 1.511 5.42 3.232 7.546 1.714 2.117 4.162 3.783 7.611 4.646 14.443 3.61 25.768 7.933 29.459 9.443a.75.75 0 0 1-.568 1.388c-3.642-1.49-14.897-5.787-29.254-9.376-3.751-.938-6.486-2.775-8.414-5.157-1.921-2.373-3.01-5.248-3.543-8.226-1.062-5.939.068-12.42 1.426-16.577a.75.75 0 0 1 .945-.481z" fill="#fff"/><path fill-rule="evenodd" clip-rule="evenodd" d="M327.973 116.255a.75.75 0 0 1 1.006-.336c1.883.942 4.741 2.703 7.241 4.951 2.477 2.227 4.728 5.045 5.166 8.114.417 2.916.067 7.092-.513 11.065a111.215 111.215 0 0 1-2.002 10.223l-12.712 50.849c-.242.968-1.002 1.765-2.023 1.973-7.821 1.589-14.398-1.447-17.72-3.896-1.097-.81-1.211-2.226-.874-3.286.957-3.013.994-7.876.853-10.278l-.001-.022v-.022c0-11.058 1.382-21.355 2.695-30.173.152-1.02.303-2.02.451-2.998 1.133-7.512 2.072-13.731 1.854-18.293-.196-4.115-1.05-6.876-1.999-8.644-.96-1.79-1.985-2.512-2.489-2.68a.75.75 0 0 1 .475-1.423c.996.332 2.272 1.41 3.336 3.394 1.077 2.007 1.972 4.997 2.176 9.282.225 4.722-.74 11.108-1.868 18.575-.149.984-.3 1.987-.452 3.008-1.311 8.801-2.678 18.998-2.679 29.93.141 2.437.12 7.516-.923 10.798-.224.705-.057 1.335.336 1.624 3.094 2.281 9.246 5.114 16.53 3.634.412-.084.754-.415.867-.866l12.712-50.85a109.892 109.892 0 0 0 1.973-10.076c.578-3.961.896-7.951.512-10.636-.361-2.53-2.277-5.046-4.684-7.211-2.383-2.143-5.125-3.832-6.909-4.724a.75.75 0 0 1-.335-1.006z" fill="#fff"/><path fill-rule="evenodd" clip-rule="evenodd" d="M336.035 158.348a.75.75 0 0 1 .851.634l8.354 57.006c.123.839-.138 1.775-.893 2.357-2.087 1.613-5.015 2.457-7.889 2.871-2.893.416-5.827.41-8.009.251-1.163-.084-2.092-.924-2.373-2.015l-4.159-16.175a.75.75 0 0 1 1.453-.373l4.159 16.175c.13.506.548.857 1.029.892 2.102.153 4.924.158 7.686-.24 2.779-.4 5.403-1.195 7.186-2.573.246-.189.386-.542.326-.953l-8.355-57.006a.75.75 0 0 1 .634-.851zM307.815 198.36a.75.75 0 0 1 .559.902l-1.828 7.768c-.154.656-.54 1.198-1.01 1.595-2.24 1.892-5.053 5.943-2.73 10.612.743 1.315 2.088 5.07 2.088 10.353 0 3.276.137 5.847 1.108 7.79.929 1.858 2.691 3.255 6.289 3.975 3.663.732 6.141.321 7.699-.915 1.551-1.23 2.404-3.448 2.404-6.85 0-3.296-.921-7.559-1.951-11.651-.28-1.111-.569-2.213-.847-3.277-.733-2.794-1.396-5.325-1.645-7.072a2.61 2.61 0 0 1 .084-1.093l2.245-7.707a.75.75 0 0 1 1.44.42l-2.245 7.707a1.109 1.109 0 0 0-.039.462c.236 1.655.863 4.049 1.584 6.799.284 1.084.583 2.224.878 3.395 1.027 4.08 1.996 8.511 1.996 12.017 0 3.599-.898 6.381-2.972 8.025-2.067 1.64-5.089 1.978-8.926 1.211-3.902-.781-6.14-2.384-7.336-4.775-1.153-2.308-1.266-5.236-1.266-8.461 0-5.09-1.309-8.591-1.901-9.628l-.011-.018-.009-.018c-2.811-5.621.664-10.394 3.095-12.447.271-.229.45-.505.518-.793l1.828-7.767a.749.749 0 0 1 .901-.559z" fill="#fff"/><path fill-rule="evenodd" clip-rule="evenodd" d="M305.113 207.56a.75.75 0 0 1 1.061 0c.928.928 2.683 2.213 4.866 2.972 2.171.755 4.721.978 7.308-.131a.75.75 0 1 1 .591 1.379c-3.013 1.291-5.963 1.014-8.392.169-2.417-.841-4.362-2.257-5.434-3.328a.75.75 0 0 1 0-1.061zM341.476 218.359a.751.751 0 0 1 .899.564c.663 2.903 1.808 7.382 3.083 11.377.638 1.999 1.304 3.861 1.954 5.34.324.74.64 1.371.939 1.87.307.51.569.834.773 1.004a.75.75 0 1 1-.961 1.152c-.395-.329-.76-.823-1.098-1.384a18.526 18.526 0 0 1-1.027-2.039c-.679-1.547-1.364-3.465-2.009-5.487-1.291-4.047-2.447-8.568-3.117-11.499a.75.75 0 0 1 .564-.898z" fill="#fff"/><path fill-rule="evenodd" clip-rule="evenodd" d="M329.091 220.492a.75.75 0 0 1-.043 1.059c-1.403 1.293-2.985 3.553-3.257 6.107-.264 2.475.685 5.395 4.662 8.144 4.254 2.94 7.462 6.317 10.145 9.141.648.682 1.265 1.332 1.859 1.936 1.545 1.569 2.907 2.803 4.248 3.558 1.313.74 2.576 1.004 3.965.671 2.723-.651 4.083-3.507 3.413-6.29-.645-2.68-3.253-5.324-8.657-5.08a.75.75 0 0 1-.068-1.499c6.003-.27 9.344 2.74 10.183 6.228.815 3.384-.802 7.21-4.522 8.1-1.833.439-3.482.06-5.05-.823-1.54-.867-3.028-2.235-4.581-3.813-.622-.632-1.259-1.302-1.92-1.997-2.678-2.818-5.755-6.055-9.868-8.898-4.35-3.007-5.632-6.427-5.301-9.537.323-3.031 2.161-5.602 3.732-7.051a.75.75 0 0 1 1.06.044zM332.469 220.471a.748.748 0 0 1 1.06-.002c.865.861 3.861 2.559 8.277 1.375a.75.75 0 1 1 .388 1.449c-4.944 1.325-8.488-.532-9.723-1.762a.748.748 0 0 1-.002-1.06zM268.454 89.795a.75.75 0 0 1 .985-.394c3.574 1.532 12.751 6.58 21.222 14.646l.014.014.014.014c1.379 1.46 3.829 3.642 6.663 5.403 2.855 1.775 5.98 3.048 8.742 2.864l.025-.002h.025c.723 0 2.751-.275 4.614-1.393a.75.75 0 1 1 .771 1.286c-2.118 1.271-4.401 1.601-5.36 1.607-3.231.207-6.679-1.267-9.609-3.088-2.949-1.833-5.491-4.092-6.948-5.632-8.326-7.925-17.34-12.873-20.764-14.34a.75.75 0 0 1-.394-.985z" fill="#fff"/><path fill-rule="evenodd" clip-rule="evenodd" d="M317.031 16.5v5.883h-5.883V16.5h5.883z" fill="#496EB1"/><path fill-rule="evenodd" clip-rule="evenodd" d="M317.031 24.383v5.883h-5.883v-5.883h5.883z" fill="#FFF3D3"/><path fill-rule="evenodd" clip-rule="evenodd" d="M320.383 35.5v5.883H314.5V35.5h5.883z" fill="#F77779"/><path fill-rule="evenodd" clip-rule="evenodd" d="M327.383 11.5v5.883H321.5V11.5h5.883z" fill="#6677FB"/><path fill-rule="evenodd" clip-rule="evenodd" d="M283.383 7.5v5.883H277.5V7.5h5.883z" fill="#FDB22B"/><path fill-rule="evenodd" clip-rule="evenodd" d="M309.148 8.5v5.883h-5.883V8.5h5.883z" fill="#6677FB"/><path fill-rule="evenodd" clip-rule="evenodd" d="M309.149 16.5v5.883h-5.883V16.5h5.883z" fill="#FDB22B"/><path fill-rule="evenodd" clip-rule="evenodd" d="M309.149 24.383v5.884h-5.883v-5.884h5.883z" fill="#29DDCC"/><path fill-rule="evenodd" clip-rule="evenodd" d="M309.149 32.267v5.883h-5.883v-5.883h5.883z" fill="#496EB1"/><path fill-rule="evenodd" clip-rule="evenodd" d="M301.27 8.5v5.883h-5.884V8.5h5.884z" fill="#F77779"/><path fill-rule="evenodd" clip-rule="evenodd" d="M301.266 16.5v5.883h-5.883V16.5h5.883z" fill="#FFF3D3"/><path fill-rule="evenodd" clip-rule="evenodd" d="M301.266 24.383v5.884h-5.883v-5.884h5.883z" fill="#6677FB"/><path fill-rule="evenodd" clip-rule="evenodd" d="M301.266 32.267v5.883h-5.883v-5.883h5.883z" fill="#F77779"/><path fill-rule="evenodd" clip-rule="evenodd" d="M293.383 16.5v5.883H287.5V16.5h5.883z" fill="#29DDCC"/><path fill-rule="evenodd" clip-rule="evenodd" d="M293.383 24.383v5.884H287.5v-5.884h5.883z" fill="#F77779"/><path fill-rule="evenodd" clip-rule="evenodd" d="M293.383 32.267v5.883H287.5v-5.883h5.883z" fill="#6677FB"/><path fill-rule="evenodd" clip-rule="evenodd" d="M304.383 100.5v5.883H298.5V100.5h5.883z" fill="#29DDCC"/><path fill-rule="evenodd" clip-rule="evenodd" d="M338.383 106.5v5.883H332.5V106.5h5.883z" fill="#F77779"/><path fill-rule="evenodd" clip-rule="evenodd" d="M327.149 110.5v5.883h-5.883V110.5h5.883z" fill="#6677FB"/><path fill-rule="evenodd" clip-rule="evenodd" d="M327.149 118.383v5.883h-5.883v-5.883h5.883z" fill="#29DDCC"/><path fill-rule="evenodd" clip-rule="evenodd" d="M319.266 110.5v5.883h-5.883V110.5h5.883z" fill="#FFF3D3"/><path fill-rule="evenodd" clip-rule="evenodd" d="M319.266 118.383v5.883h-5.883v-5.883h5.883z" fill="#6677FB"/><path fill-rule="evenodd" clip-rule="evenodd" d="M305.031 140.5v5.883h-5.883V140.5h5.883z" fill="#496EB1"/><path fill-rule="evenodd" clip-rule="evenodd" d="M305.031 148.383v5.883h-5.883v-5.883h5.883z" fill="#FDB22B"/><path fill-rule="evenodd" clip-rule="evenodd" d="M297.148 140.5v5.883h-5.883V140.5h5.883z" fill="#6677FB"/><path fill-rule="evenodd" clip-rule="evenodd" d="M297.148 148.383v5.883h-5.883v-5.883h5.883z" fill="#29DDCC"/><path fill-rule="evenodd" clip-rule="evenodd" d="M271.383 131.5v5.883H265.5V131.5h5.883z" fill="#F77779"/><path fill-rule="evenodd" clip-rule="evenodd" d="M289.265 140.5v5.883h-5.884V140.5h5.884z" fill="#FFF3D3"/><path fill-rule="evenodd" clip-rule="evenodd" d="M289.265 148.383v5.883h-5.884v-5.883h5.884z" fill="#F77779"/><path fill-rule="evenodd" clip-rule="evenodd" d="M289.265 156.266v5.884h-5.884v-5.884h5.884z" fill="#6677FB"/><path d="m383 220 3 3" stroke="#6677FB" stroke-width="1.5" stroke-miterlimit="10" stroke-linecap="round" stroke-linejoin="round"/><path d="M380 221a4 4 0 1 0 0-8 4 4 0 0 0 0 8z" stroke="#6677FB" stroke-width="1.5" stroke-miterlimit="10" stroke-linecap="square"/><defs><clipPath id="b"><path fill="#fff" transform="translate(55 210)" d="M0 0h62.533v14H0z"/></clipPath><filter id="a" x="0" y="141" width="562" height="416" filterUnits="userSpaceOnUse" color-interpolation-filters="sRGB"><feFlood flood-opacity="0" result="BackgroundImageFix"/><feColorMatrix in="SourceAlpha" values="0 0 0 0 0 0 0 0 0 0 0 0 0 0 0 0 0 0 127 0" result="hardAlpha"/><feOffset dy="30"/><feGaussianBlur stdDeviation="15"/><feColorMatrix values="0 0 0 0 0.12549 0 0 0 0 0.160784 0 0 0 0 0.270588 0 0 0 0.05 0"/><feBlend in2="BackgroundImageFix" result="effect1_dropShadow"/><feBlend in="SourceGraphic" in2="effect1_dropShadow" result="shape"/></filter></defs></svg>