<svg width="653" height="481" fill="none" xmlns="http://www.w3.org/2000/svg"><g clip-path="url(#a)"><path d="m647.253 355.041-.056-.279.168-.223c5.245-6.309 5.077-14.796 4.91-23.003 0-1.34-.056-2.736-.056-4.076V12.618c0-3.573-1.395-6.811-3.85-9.1-2.343-2.234-5.468-3.35-8.76-3.239-2.12.112-4.352.28-6.473.391-1.06.056-2.176.168-3.236.223L230.891 27.135c-1.451.111-2.901.167-4.352.279-2.846.167-5.803.39-8.705.558-6.528.447-11.327 5.472-11.494 11.893v258.227c-.056 2.233-.112 5.304 1.172 7.258l.502.782-1.841.67c-3.683.279-6.417.614-9.151 1.395-.614.168-1.674-.055-2.288.168l-.446.112c-3.46 1.06-7.031 2.121-10.434 3.182l-.949.279-18.581 5.695c-7.979 2.457-15.734 5.695-23.714 8.152-9.039 2.791-18.301 5.248-27.34 8.04-9.43 2.903-18.916 5.639-28.346 8.542-9.206 2.848-18.413 5.472-27.62 8.319L4.633 366.934c-.28.111-.614.167-.949.279-.893.223-1.785.446-2.343.893s-.782 1.117-.614 1.787v.614c0 7.035.502 12.116 6.807 13.456.502.111.949.167 1.507.279.279.056.502.056.78.111l553.848 95.251c1.674.279 3.348.447 4.91.447 8.37 0 15.568-3.853 19.809-10.887 3.236-5.36 6.416-10.888 9.485-16.248l.056-.056c1.507-2.68 3.125-5.415 4.687-8.095 4.687-8.096 9.43-16.192 14.117-24.288 9.262-15.856 18.859-32.271 28.178-48.518 2.511-4.411 2.511-8.71 2.511-13.791v-.614l-.056-.168v-.167c.055-.782.056-1.508-.112-2.178z" fill="#2B3860"/><path d="m217.836 51.422 1.506 239.467 410.839 39.865.781-308.644-413.126 29.312z" fill="#202A44"/><path fill-rule="evenodd" clip-rule="evenodd" d="M335.248 55.943a.75.75 0 0 1-.69.805l-6.5.5a.75.75 0 1 1-.115-1.496l6.5-.5a.75.75 0 0 1 .805.69z" fill="#6677FB"/><path fill-rule="evenodd" clip-rule="evenodd" d="M331 52.75a.75.75 0 0 1 .75.75V60a.75.75 0 0 1-1.5 0v-6.5a.75.75 0 0 1 .75-.75z" fill="#6677FB"/><path d="M644.408 7.649c-2.622-2.457-7.755-2.29-11.327-2.01L222.188 32.551c-6.752.446-12.388 3.294-12.053 12.841v250.41c0 3.518 2.623 6.421 6.138 6.812l26.839 2.792-2.455 3.405c-1.619 2.01-1.34 3.685-1.005 4.523.558 1.34 1.786 2.233 3.404 2.401l337.91 36.458c.279.056.558.056.837.056a7.728 7.728 0 0 0 5.469-2.289l1.116-1.172a6.988 6.988 0 0 0 2.008-5.528l-.167-2.121 46.089 4.745c2.678.28 5.356-.614 7.365-2.4 2.009-1.787 3.125-4.355 3.125-7.035V18.481c-.056-3.63.223-8.375-2.4-10.832zm-16.404 22.333-2.455 298.483-400.906-38.581c-.837-.223-1.172-.837-1.284-1.396l1.228-234.721.335-1.898 402.691-21.831.391-.056z" fill="#384775"/><path fill-rule="evenodd" clip-rule="evenodd" d="M252.408 74.54a.75.75 0 0 1 1.052-.132l4.5 3.5a.75.75 0 0 1 .038 1.153l-4.5 4a.75.75 0 1 1-.996-1.122l3.826-3.4-3.788-2.947a.75.75 0 0 1-.132-1.052z" fill="#6677FB"/><path d="m588.721 58.792 2.12 4.132 4.687.446-3.403 3.518.837 4.634-4.241-1.954-4.241 2.456.837-4.745-3.403-3.127 4.687-.95 2.12-4.41z" fill="#6677FB"/><path d="M566.96 73.867c3.794-.112 6.751-3.238 6.751-6.98V64.71c0-3.964-3.292-7.146-7.253-6.979l-292.38 12.116c-3.738.167-6.696 3.238-6.696 6.979 0 3.964 3.292 7.147 7.254 6.98l292.324-9.94z" fill="#2B3860"/><path fill-rule="evenodd" clip-rule="evenodd" d="M241.254 79.087a.75.75 0 0 1-.725.774l-8.51.277a.75.75 0 0 1-.049-1.499l8.51-.277a.75.75 0 0 1 .774.725z" fill="#6677FB"/><path d="m578.12 354.594-350.354-39.641c-2.455-.279-4.966 0-7.254.838l-69.97 24.789c-2.065.726-1.73 3.741.391 4.02l388.072 52.595c1.786.223 3.571-.391 4.799-1.675l35.543-37.352c1.228-1.284.502-3.406-1.227-3.574z" fill="#202A44"/><path fill-rule="evenodd" clip-rule="evenodd" d="M520.537 365.91a.748.748 0 0 1 .549-.155l39 4.5a.75.75 0 0 1 .467 1.252l-5.5 6a.748.748 0 0 1-.645.237l-40.5-5a.749.749 0 0 1-.371-1.334l7-5.5zm.684 1.37-5.341 4.196 38.328 4.732 4.246-4.631-37.233-4.297zM536.991 353.449a.752.752 0 0 1 .595-.194l34.5 4a.75.75 0 0 1 .444 1.275l-6.5 6.5a.748.748 0 0 1-.627.214l-34.5-4.5a.751.751 0 0 1-.412-1.295l6.5-6zm.765 1.336-5.069 4.679 32.544 4.245 5.142-5.143-32.617-3.781zM346.62 344.854a.749.749 0 0 1 .456-.1l24.5 2.5a.75.75 0 0 1 .304 1.392l-8.5 5a.749.749 0 0 1-.456.1l-24.5-2.5a.75.75 0 0 1-.304-1.392l8.5-5zm.548 1.417-6.315 3.715 21.979 2.243 6.315-3.715-21.979-2.243zM498.512 348.931a.748.748 0 0 1 .584-.175l27 3.5a.75.75 0 0 1 .413 1.295l-6.5 6a.752.752 0 0 1-.604.193l-27.5-3.5a.749.749 0 0 1-.393-1.313l7-6zm.723 1.356-5.464 4.682 25.477 3.243 5.064-4.675-25.077-3.25z" fill="#6677FB"/><path d="M199.866 403.783c.782 0 .838-1.228 0-1.228-.837 0-.837 1.228 0 1.228z" fill="#fff"/><path fill-rule="evenodd" clip-rule="evenodd" d="M258.665 346.829a.75.75 0 0 1 .435-.072l127 17a.75.75 0 0 1 .286 1.386l-10 6a.75.75 0 0 1-.488.1l-128-17.5a.75.75 0 0 1-.233-1.414l11-5.5zm.464 1.445-8.623 4.312 125.334 17.135 7.937-4.762-124.648-16.685zM395.55 364.9a.748.748 0 0 1 .564-.141l19.5 3a.749.749 0 0 1 .396 1.291l-7 6.5a.749.749 0 0 1-.636.189l-20.5-3.5a.749.749 0 0 1-.324-1.339l8-6zm.648 1.389-6.353 4.765 18.416 3.144 5.592-5.192-17.655-2.717zM415.05 353.4a.749.749 0 0 1 .541-.144l24.5 3a.749.749 0 0 1 .414 1.299l-5.5 5a.75.75 0 0 1-.609.188l-25-3.5a.75.75 0 0 1-.346-1.343l6-4.5zm.659 1.381-4.305 3.228 22.852 3.199 4.029-3.662-22.576-2.765zM427.544 369.404a.751.751 0 0 1 .579-.144l12 2a.75.75 0 0 1 .368 1.307l-7.5 6.5a.747.747 0 0 1-.605.174l-13-2a.75.75 0 0 1-.342-1.337l8.5-6.5zm.653 1.389-6.843 5.233 10.917 1.68 6.033-5.228-10.107-1.685zM224.208 342.309c.124-.052.26-.07.393-.052l22 3a.749.749 0 0 1 .191 1.434l-13 5.5c-.124.052-.26.07-.393.052l-22-3a.749.749 0 0 1-.191-1.434l13-5.5zm.395 1.462-10.294 4.355 19.088 2.603 10.294-4.355-19.088-2.603zM195.221 338.804a.75.75 0 0 1 .375-.048l15.5 2a.75.75 0 0 1 .183 1.44l-12.5 5a.75.75 0 0 1-.375.048l-15.5-2a.75.75 0 0 1-.183-1.44l12.5-5zm.376 1.465-9.641 3.856 12.447 1.606 9.641-3.856-12.447-1.606zM171.74 335.297a.755.755 0 0 1 .371-.039l10 1.5a.75.75 0 0 1 .158 1.442l-13 5a.737.737 0 0 1-.375.042l-10.5-1.5a.75.75 0 0 1-.154-1.445l13.5-5zm.34 1.473-10.545 3.906 7.378 1.054 10.165-3.91-6.998-1.05zM244.192 331.816a.752.752 0 0 1 .419-.058l23.5 3.5a.751.751 0 0 1 .184 1.431l-10.5 4.5a.74.74 0 0 1-.408.052l-23-3.5a.75.75 0 0 1-.195-1.425l10-4.5zm.415 1.458-7.481 3.367 20.275 3.085 7.873-3.374-20.667-3.078zM255.69 321.317a.746.746 0 0 1 .401-.061l20.5 2.5a.75.75 0 0 1 .208 1.432l-11.5 5a.752.752 0 0 1-.392.056l-20-2.5a.75.75 0 0 1-.217-1.427l11-5zm.428 1.453-8.392 3.815 17.163 2.145 8.785-3.819-17.556-2.141zM223.744 317.295a.754.754 0 0 1 .346-.04l16.5 2a.75.75 0 0 1 .166 1.45l-11 4a.753.753 0 0 1-.346.04l-16.5-2a.75.75 0 0 1-.166-1.45l11-4zm.344 1.471-7.884 2.867 13.208 1.601 7.884-2.867-13.208-1.601zM325.19 328.817a.746.746 0 0 1 .401-.061l20.5 2.5a.75.75 0 0 1 .208 1.432l-11.5 5a.752.752 0 0 1-.392.056l-20-2.5a.75.75 0 0 1-.217-1.427l11-5zm.428 1.453-8.392 3.815 17.163 2.145 8.785-3.819-17.556-2.141zM356.176 332.323a.759.759 0 0 1 .43-.065l21 3a.749.749 0 0 1 .193 1.43l-11.5 5a.759.759 0 0 1-.388.057l-21-2.5a.751.751 0 0 1-.235-1.422l11.5-5.5zm.443 1.452-8.963 4.286 18.231 2.17 8.886-3.863-18.154-2.593zM389.636 336.344c.14-.077.3-.108.459-.088l23.5 3a.751.751 0 0 1 .303 1.38l-8 5a.751.751 0 0 1-.489.108l-24.5-3a.749.749 0 0 1-.273-1.4l9-5zm.513 1.431-6.769 3.761 21.948 2.687 5.992-3.745-21.171-2.703z" fill="#6677FB"/><path d="M572.819 385.247a.726.726 0 1 0 0-1.452.726.726 0 0 0 0 1.452z" fill="#6677FB"/><path fill-rule="evenodd" clip-rule="evenodd" d="M574.045 384.521a1.226 1.226 0 1 1-2.452 0 1.226 1.226 0 0 1 2.452 0zm-.5 0a.726.726 0 1 1-1.452 0 .726.726 0 0 1 1.452 0z" fill="#6677FB"/><path d="M579.068 378.938a.726.726 0 1 0 0-1.452.726.726 0 0 0 0 1.452z" fill="#6677FB"/><path fill-rule="evenodd" clip-rule="evenodd" d="M580.294 378.212a1.226 1.226 0 1 1-2.452 0 1.226 1.226 0 0 1 2.452 0zm-.5 0a.726.726 0 1 1-1.452 0 .726.726 0 0 1 1.452 0z" fill="#6677FB"/><path d="M579.068 383.795a.739.739 0 0 0-.725.726c0 .391.335.726.725.726a.74.74 0 0 0 .726-.726.74.74 0 0 0-.726-.726z" fill="#6677FB"/><path fill-rule="evenodd" clip-rule="evenodd" d="M577.843 384.521c0-.667.558-1.226 1.225-1.226a1.24 1.24 0 0 1 1.226 1.226 1.24 1.24 0 0 1-1.226 1.226 1.238 1.238 0 0 1-1.225-1.226zm.5 0c0-.391.335-.726.725-.726a.74.74 0 0 1 .726.726.74.74 0 0 1-.726.726.739.739 0 0 1-.725-.726z" fill="#6677FB"/><path d="M572.819 391.723a.726.726 0 1 0 0-1.452.726.726 0 0 0 0 1.452z" fill="#6677FB"/><path fill-rule="evenodd" clip-rule="evenodd" d="M574.045 390.997a1.226 1.226 0 1 1-2.452 0 1.226 1.226 0 0 1 2.452 0zm-.5 0a.726.726 0 1 1-1.452 0 .726.726 0 0 1 1.452 0z" fill="#6677FB"/><path d="M579.068 391.667a.726.726 0 1 0 0-1.451.726.726 0 0 0 0 1.451z" fill="#6677FB"/><path fill-rule="evenodd" clip-rule="evenodd" d="M580.294 390.942a1.225 1.225 0 1 1-2.45 0 1.225 1.225 0 0 1 2.45 0zm-.5 0a.726.726 0 1 1-1.451-.001.726.726 0 0 1 1.451.001z" fill="#6677FB"/><path d="M585.15 371.288a.739.739 0 0 0-.725.726c0 .391.335.726.725.726a.74.74 0 0 0 .726-.726.74.74 0 0 0-.726-.726z" fill="#6677FB"/><path fill-rule="evenodd" clip-rule="evenodd" d="M583.925 372.014c0-.667.558-1.226 1.225-1.226a1.24 1.24 0 0 1 1.226 1.226 1.24 1.24 0 0 1-1.226 1.226 1.238 1.238 0 0 1-1.225-1.226zm.5 0c0-.391.335-.726.725-.726a.74.74 0 0 1 .726.726.74.74 0 0 1-.726.726.739.739 0 0 1-.725-.726z" fill="#6677FB"/><path d="M591.4 372.74a.725.725 0 1 0 0-1.45.725.725 0 0 0 0 1.45z" fill="#6677FB"/><path fill-rule="evenodd" clip-rule="evenodd" d="M592.625 372.014a1.225 1.225 0 1 1-2.45.001 1.225 1.225 0 0 1 2.45-.001zm-.5 0a.725.725 0 1 1-1.45.002.725.725 0 0 1 1.45-.002z" fill="#6677FB"/><path d="M597.705 371.288a.74.74 0 0 0-.726.726.74.74 0 0 0 .726.726.74.74 0 0 0 .726-.726c-.056-.391-.335-.726-.726-.726z" fill="#6677FB"/><path fill-rule="evenodd" clip-rule="evenodd" d="M598.931 371.979v.035a1.24 1.24 0 0 1-1.226 1.226 1.24 1.24 0 0 1-1.226-1.226 1.24 1.24 0 0 1 1.226-1.226c.721 0 1.143.609 1.221 1.156l.005.035zm-.5.035a.74.74 0 0 1-.726.726.74.74 0 0 1-.726-.726.74.74 0 0 1 .726-.726c.391 0 .67.335.726.726z" fill="#6677FB"/><path d="M585.15 377.486a.739.739 0 0 0-.725.726c0 .391.335.726.725.726a.74.74 0 0 0 .726-.726.74.74 0 0 0-.726-.726z" fill="#6677FB"/><path fill-rule="evenodd" clip-rule="evenodd" d="M583.925 378.212c0-.667.558-1.226 1.225-1.226a1.24 1.24 0 0 1 1.226 1.226 1.24 1.24 0 0 1-1.226 1.226 1.238 1.238 0 0 1-1.225-1.226zm.5 0c0-.391.335-.726.725-.726a.74.74 0 0 1 .726.726.74.74 0 0 1-.726.726.739.739 0 0 1-.725-.726z" fill="#6677FB"/><path d="M585.15 383.795a.739.739 0 0 0-.725.726c0 .391.335.726.725.726a.74.74 0 0 0 .726-.726c0-.447-.335-.726-.726-.726z" fill="#6677FB"/><path fill-rule="evenodd" clip-rule="evenodd" d="M583.925 384.521c0-.667.558-1.226 1.225-1.226.641 0 1.226.478 1.226 1.226a1.24 1.24 0 0 1-1.226 1.226 1.238 1.238 0 0 1-1.225-1.226zm.5 0c0-.391.335-.726.725-.726.391 0 .726.279.726.726a.74.74 0 0 1-.726.726.739.739 0 0 1-.725-.726z" fill="#6677FB"/><path d="M591.4 378.993a.725.725 0 1 0 0-1.45.725.725 0 0 0 0 1.45z" fill="#6677FB"/><path fill-rule="evenodd" clip-rule="evenodd" d="M592.625 378.268a1.224 1.224 0 1 1-2.451 0 1.226 1.226 0 0 1 2.451 0zm-.5 0a.725.725 0 1 1-1.45 0 .725.725 0 0 1 1.45 0z" fill="#6677FB"/><path d="M591.4 385.247a.725.725 0 1 0 0-1.45.725.725 0 0 0 0 1.45z" fill="#6677FB"/><path fill-rule="evenodd" clip-rule="evenodd" d="M592.625 384.521a1.225 1.225 0 1 1-2.45.001 1.225 1.225 0 0 1 2.45-.001zm-.5 0a.725.725 0 1 1-1.45.002.725.725 0 0 1 1.45-.002z" fill="#6677FB"/><path d="M597.705 378.938a.726.726 0 1 0 0-1.452.726.726 0 0 0 0 1.452z" fill="#6677FB"/><path fill-rule="evenodd" clip-rule="evenodd" d="M598.931 378.212a1.226 1.226 0 1 1-2.452 0 1.226 1.226 0 0 1 2.452 0zm-.5 0a.726.726 0 1 1-1.452 0 .726.726 0 0 1 1.452 0z" fill="#6677FB"/><path d="M597.705 383.795a.74.74 0 0 0-.726.726.74.74 0 0 0 .726.726.74.74 0 0 0 .726-.726.74.74 0 0 0-.726-.726z" fill="#6677FB"/><path fill-rule="evenodd" clip-rule="evenodd" d="M596.479 384.521a1.24 1.24 0 0 1 1.226-1.226 1.24 1.24 0 0 1 1.226 1.226 1.24 1.24 0 0 1-1.226 1.226 1.24 1.24 0 0 1-1.226-1.226zm.5 0a.74.74 0 0 1 .726-.726.74.74 0 0 1 .726.726.74.74 0 0 1-.726.726.74.74 0 0 1-.726-.726z" fill="#6677FB"/><path d="M585.15 390.216a.739.739 0 0 0-.725.726c0 .39.335.725.725.725a.739.739 0 0 0 .726-.725.74.74 0 0 0-.726-.726z" fill="#6677FB"/><path fill-rule="evenodd" clip-rule="evenodd" d="M583.925 390.942c0-.667.558-1.226 1.225-1.226a1.24 1.24 0 0 1 1.226 1.226c0 .667-.559 1.225-1.226 1.225a1.237 1.237 0 0 1-1.225-1.225zm.5 0c0-.391.335-.726.725-.726a.74.74 0 0 1 .726.726c0 .39-.335.725-.726.725a.739.739 0 0 1-.725-.725z" fill="#6677FB"/><path d="M591.4 391.723a.725.725 0 1 0 0-1.45.725.725 0 0 0 0 1.45z" fill="#6677FB"/><path fill-rule="evenodd" clip-rule="evenodd" d="M592.625 390.997a1.225 1.225 0 1 1-2.45.001 1.225 1.225 0 0 1 2.45-.001zm-.5 0a.725.725 0 1 1-1.45.002.725.725 0 0 1 1.45-.002z" fill="#6677FB"/><path d="M603.956 371.288a.74.74 0 0 0-.726.726.74.74 0 0 0 .726.726.74.74 0 0 0 .726-.726.74.74 0 0 0-.726-.726z" fill="#6677FB"/><path fill-rule="evenodd" clip-rule="evenodd" d="M602.73 372.014a1.24 1.24 0 0 1 1.226-1.226 1.24 1.24 0 0 1 1.226 1.226 1.24 1.24 0 0 1-1.226 1.226 1.24 1.24 0 0 1-1.226-1.226zm.5 0a.74.74 0 0 1 .726-.726.74.74 0 0 1 .726.726.74.74 0 0 1-.726.726.74.74 0 0 1-.726-.726z" fill="#6677FB"/><path d="M603.956 377.486a.74.74 0 0 0-.726.726.74.74 0 0 0 .726.726.74.74 0 0 0 .726-.726.74.74 0 0 0-.726-.726z" fill="#6677FB"/><path fill-rule="evenodd" clip-rule="evenodd" d="M602.73 378.212a1.24 1.24 0 0 1 1.226-1.226 1.24 1.24 0 0 1 1.226 1.226 1.24 1.24 0 0 1-1.226 1.226 1.24 1.24 0 0 1-1.226-1.226zm.5 0a.74.74 0 0 1 .726-.726.74.74 0 0 1 .726.726.74.74 0 0 1-.726.726.74.74 0 0 1-.726-.726z" fill="#6677FB"/><path d="M524.778 149.353c1.953-1.731 4.855-2.401 7.31-2.959 2.455-.559 4.966-.894 7.532-1.117.502-.056 1.06-.112 1.563-.112.781-.055.781-1.284 0-1.228-4.464.223-9.207.838-13.392 2.457-1.395.502-2.734 1.172-3.85 2.177-.669.447.223 1.34.837.782z" fill="#fff"/><path d="M522.935 137.74c.335 5.527.614 11.055.782 16.526.111 3.462.055 6.923 0 10.385-.056 4.578.613 9.157 1.004 13.679.558 6.533.837 13.121.056 19.597-.112.782 1.171.782 1.227 0 .726-5.806.614-11.724.112-17.587-.391-4.746-1.06-9.547-1.172-14.349-.056-1.619.056-3.238.112-4.913 0-1.787 0-3.574-.056-5.416a781.622 781.622 0 0 0-.447-11.446c-.111-2.177-.223-4.411-.39-6.588 0-.726-1.283-.726-1.228.112zM495.204 140.755c.391 2.233.614 4.522.781 6.811.447 5.583.447 11.223.056 16.862a85.505 85.505 0 0 1-1.674 11.948c-.167.782 1.06 1.117 1.228.335 2.343-11.055 2.622-22.612 1.227-33.779l-.335-2.512c-.167-.838-1.394-.447-1.283.335z" fill="#fff"/><path d="M268.22 113.62c-1.619-1.34-3.795-1.787-5.859-2.01a23.678 23.678 0 0 0-4.464-.112c-2.79.223-6.138.67-8.202 2.736a4.798 4.798 0 0 0-.781 1.005c-.782 1.228-.949 2.736-.558 4.076.279.837.725 1.563 1.45 2.121.726.559 1.618.838 2.511 1.005.949.168 1.897.168 2.734-.223.391-.167.781-.447 1.116-.726.335-.279.67-.67.949-1.005l.502-.502c.446-.335.949-.67 1.507-.503.613.168 1.06.503 1.45.949.279.335.614.615 1.005.894.725.502 1.618.837 2.51.893.949.056 1.898-.167 2.79-.502.837-.28 1.619-.726 2.177-1.452.557-.67.892-1.452.948-2.289.223-1.619-.502-3.294-1.785-4.355zm-11.327 3.461c-.614.726-1.563 1.173-2.567 1.285-1.004.111-2.12-.391-2.902-1.005-.223-.168-.223-.224-.055-.391.669-.782 1.674-1.34 2.734-1.396 1.06-.056 2.008.502 2.734 1.117.223.111.223.167.056.39zm9.653.056c-.726.726-1.786 1.173-2.902 1.173s-2.009-.559-2.678-1.284c-.168-.224-.168-.224.056-.391.781-.614 1.953-1.173 3.013-1.061 1.06.112 1.841.558 2.566 1.228.168.112.112.168-.055.335zM268.22 174.031c-1.619-1.34-3.795-1.787-5.859-2.01a23.762 23.762 0 0 0-4.464-.112c-2.79.224-6.138.67-8.202 2.736a4.798 4.798 0 0 0-.781 1.005c-.782 1.228-.949 2.736-.558 4.076.279.837.725 1.563 1.45 2.122.726.558 1.618.837 2.511 1.005.949.167 1.897.167 2.734-.224.391-.167.781-.446 1.116-.726.335-.279.67-.67.949-1.005l.502-.502c.446-.335.949-.67 1.507-.503.613.168 1.06.503 1.45.95.279.335.614.614 1.005.893.725.502 1.618.837 2.51.893.949.056 1.898-.167 2.79-.502.837-.279 1.619-.726 2.177-1.452.557-.67.892-1.452.948-2.289.223-1.619-.502-3.294-1.785-4.355zm-11.327 3.462c-.614.725-1.563 1.172-2.567 1.284-1.004.111-2.12-.391-2.902-1.005-.223-.168-.223-.224-.055-.391.669-.782 1.674-1.34 2.734-1.396 1.06-.056 2.008.503 2.734 1.117.223.111.223.167.056.391zm9.653.055c-.726.726-1.786 1.173-2.902 1.173s-2.009-.558-2.678-1.284c-.168-.224-.168-.224.056-.391.781-.614 1.953-1.173 3.013-1.061 1.06.112 1.841.558 2.566 1.228.168.112.112.168-.055.335zM268.22 233.437c-1.619-1.34-3.795-1.787-5.859-2.01a23.847 23.847 0 0 0-4.464-.112c-2.79.224-6.138.67-8.202 2.736a4.798 4.798 0 0 0-.781 1.005c-.782 1.229-.949 2.736-.558 4.076.279.837.725 1.563 1.45 2.122.726.558 1.618.837 2.511 1.005.949.167 1.897.167 2.734-.224.391-.167.781-.446 1.116-.726.335-.279.67-.67.949-1.005l.502-.502c.446-.335.949-.67 1.507-.502.613.167 1.06.502 1.45.949.279.335.614.614 1.005.893.725.502 1.618.837 2.51.893.949.056 1.898-.167 2.79-.502.837-.279 1.619-.726 2.177-1.452.557-.67.892-1.451.948-2.289.223-1.619-.502-3.294-1.785-4.355zm-11.327 3.406c-.614.726-1.563 1.172-2.567 1.284-1.004.112-2.12-.391-2.902-1.005-.223-.167-.223-.223-.055-.391.669-.781 1.674-1.34 2.734-1.396 1.06-.055 2.008.503 2.734 1.117.223.168.223.223.056.391zm9.653.112c-.726.725-1.786 1.172-2.902 1.172s-2.009-.558-2.678-1.284c-.168-.223-.168-.223.056-.391.781-.614 1.953-1.172 3.013-1.061 1.06.112 1.841.559 2.566 1.229.168.111.112.167-.055.335z" fill="#A7B1FC"/><path fill-rule="evenodd" clip-rule="evenodd" d="M247.25 133.5a.75.75 0 0 1 .75-.75h159.5a.75.75 0 0 1 0 1.5H248a.75.75 0 0 1-.75-.75zM247.25 144.5a.75.75 0 0 1 .75-.75h180a.75.75 0 0 1 0 1.5H248a.75.75 0 0 1-.75-.75zM247.25 154.994a.75.75 0 0 1 .756-.744l173.5 1.5a.75.75 0 1 1-.012 1.5l-173.5-1.5a.75.75 0 0 1-.744-.756z" fill="#6677FB"/><path fill-rule="evenodd" clip-rule="evenodd" d="M276.25 177.982a.75.75 0 0 1 .768-.732l142.5 3.5a.75.75 0 1 1-.036 1.5l-142.5-3.5a.75.75 0 0 1-.732-.768z" fill="#A7B1FC"/><path fill-rule="evenodd" clip-rule="evenodd" d="M247.25 193.976a.751.751 0 0 1 .774-.726l186 6a.751.751 0 0 1-.048 1.5l-186-6a.751.751 0 0 1-.726-.774zM247.25 204.475a.751.751 0 0 1 .775-.725l163.5 5.5a.75.75 0 0 1-.05 1.5l-163.5-5.5a.751.751 0 0 1-.725-.775zM247.251 214.468a.75.75 0 0 1 .781-.717l173.001 7.5a.75.75 0 0 1-.065 1.498l-173-7.5a.75.75 0 0 1-.717-.781zM247.252 254.452a.748.748 0 0 1 .796-.7l164.5 10.5a.75.75 0 1 1-.096 1.497l-164.5-10.5a.75.75 0 0 1-.7-.797z" fill="#6677FB"/><path fill-rule="evenodd" clip-rule="evenodd" d="M276.251 238.962a.75.75 0 0 1 .787-.711l165.5 8.5a.75.75 0 0 1-.076 1.498l-165.5-8.5a.75.75 0 0 1-.711-.787z" fill="#A7B1FC"/><path fill-rule="evenodd" clip-rule="evenodd" d="M247.252 263.445a.75.75 0 0 1 .803-.693l169.5 12.5a.75.75 0 0 1-.11 1.496l-169.5-12.5a.75.75 0 0 1-.693-.803z" fill="#6677FB"/><path fill-rule="evenodd" clip-rule="evenodd" d="M646.112 3.805c-3.159-1.908-6.986-2.298-9.542-2.058h-.01l-.011.001C502.062 10.581 230.241 28.35 219.026 28.75c-5.342.19-8.448 2.592-10.211 5.479-1.791 2.93-2.226 6.416-2.067 8.72l.002.025V300c0 2.32.403 3.775.853 4.642.46.888.93 1.1 1.044 1.123l-.294 1.47c-.72-.143-1.5-.781-2.082-1.902-.592-1.141-1.021-2.853-1.021-5.333V43.026c-.17-2.53.299-6.33 2.285-9.58 2.019-3.305 5.58-5.986 11.438-6.195 11.185-.4 282.95-18.164 417.468-26.999 2.777-.258 6.943.153 10.447 2.268 3.561 2.15 6.362 6.02 6.362 12.48v326.519l-.001.018a30.696 30.696 0 0 1-1.245 7.033c-.789 2.567-2.061 5.202-4.088 6.554l-.832-1.248c1.573-1.048 2.718-3.246 3.487-5.746.754-2.455 1.096-5.031 1.179-6.649V15c0-5.94-2.532-9.32-5.638-11.195z" fill="#6677FB"/><path fill-rule="evenodd" clip-rule="evenodd" d="m627.535 49.25-300.81 14.3a4.75 4.75 0 0 1-4.975-4.745v-3.082a3.25 3.25 0 0 0-3.426-3.245l-56.5 3.066a3.25 3.25 0 0 0-3.074 3.245v3.889a4.75 4.75 0 0 1-4.534 4.745l-29.182 1.326-.068-1.498 29.181-1.327a3.25 3.25 0 0 0 3.103-3.246v-3.89a4.75 4.75 0 0 1 4.493-4.742l56.5-3.066a4.75 4.75 0 0 1 5.007 4.743v3.082a3.25 3.25 0 0 0 3.404 3.247l300.81-14.301.071 1.498zM626.524 80.25l-402 13-.048-1.5 402-13 .048 1.5zM617.749 60.971a.75.75 0 0 1-.72.779l-13 .5a.75.75 0 1 1-.058-1.5l13-.5a.75.75 0 0 1 .778.721zM617.749 64.971a.75.75 0 0 1-.72.778l-13 .5a.75.75 0 1 1-.058-1.498l13-.5a.75.75 0 0 1 .778.72zM617.749 68.971a.75.75 0 0 1-.72.778l-13 .5a.75.75 0 1 1-.058-1.498l13-.5a.75.75 0 0 1 .778.72z" fill="#6677FB"/><path fill-rule="evenodd" clip-rule="evenodd" d="M311.445 54.995a.75.75 0 0 1 1.06-.05l5.5 5a.75.75 0 0 1-1.009 1.11l-5.5-5a.75.75 0 0 1-.051-1.06z" fill="#6677FB"/><path fill-rule="evenodd" clip-rule="evenodd" d="M317.53 54.97a.75.75 0 0 1 0 1.06l-5 5a.75.75 0 1 1-1.06-1.06l5-5a.75.75 0 0 1 1.06 0zM236.092 75.54a.75.75 0 0 1-.132 1.052l-3.678 2.861 3.634 2.423a.75.75 0 1 1-.832 1.248l-4.5-3a.748.748 0 0 1-.044-1.216l4.5-3.5a.75.75 0 0 1 1.052.132zM257.253 78.554a.75.75 0 0 1-.721.778l-9.009.343a.75.75 0 0 1-.057-1.499l9.009-.343a.75.75 0 0 1 .778.721z" fill="#6677FB"/><path fill-rule="evenodd" clip-rule="evenodd" d="M440.25 113.989a.75.75 0 0 1-.739.761l-163.5 2.5a.75.75 0 1 1-.022-1.5l163.5-2.5a.75.75 0 0 1 .761.739z" fill="#A7B1FC"/><path fill-rule="evenodd" clip-rule="evenodd" d="M186.248 310.294c11.298-4.035 21.862-4.714 25.785-4.543l.047.003 28 3a.75.75 0 0 1-.16 1.492l-27.976-2.998c-3.764-.159-14.113.501-25.192 4.458-11.22 4.007-126.352 39.34-182.51 56.504-.615.233-1.459.664-2.041 1.186-.295.264-.476.51-.557.721a.618.618 0 0 0-.016.446c.04.022.097.051.175.085.238.104.594.228 1.072.368.95.278 2.3.598 3.968.948 3.331.7 7.871 1.507 12.891 2.333 10.037 1.653 21.955 3.377 29.868 4.46l.014.002 150.5 23.5c.381.06.655.399.633.785-.078 1.318.135 3.388 1.016 5.247.868 1.832 2.363 3.428 4.875 3.972l60.981 9.997.007.001c1.83.318 4.577.333 6.876-.605 1.139-.465 2.147-1.155 2.894-2.138.743-.978 1.26-2.29 1.353-4.057a.751.751 0 0 1 .868-.702l286.5 46 .024.005c2.914.566 7.628.811 12.23-.305 4.594-1.114 8.994-3.559 11.462-8.305 5.217-10.033 39.862-65.885 56.519-92.536.687-1.228 1.124-3.011.47-4.52-.63-1.453-2.418-2.962-6.889-3.351-9.207-.8-37.514-3.668-50.512-5.001a.75.75 0 0 1 .154-1.492c13.002 1.333 41.295 4.199 50.488 4.999 4.729.411 7.191 2.069 8.136 4.249.918 2.118.262 4.428-.547 5.866l-.018.029c-16.68 26.688-51.288 82.483-56.471 92.449-2.732 5.254-7.582 7.893-12.438 9.07-4.842 1.174-9.771.921-12.858.323l-.012-.003-285.682-45.868c-.209 1.647-.77 2.987-1.582 4.057-.942 1.24-2.19 2.076-3.522 2.619-2.641 1.078-5.692 1.043-7.696.696l-.004-.001-60.992-9.999-.036-.007c-3.078-.659-4.911-2.643-5.933-4.799-.869-1.833-1.166-3.813-1.176-5.295L49.398 380.243l-.007-.001c-7.92-1.084-19.848-2.809-29.9-4.465-5.026-.827-9.592-1.639-12.956-2.345-1.68-.352-3.074-.681-4.082-.977a10.728 10.728 0 0 1-1.251-.433 2.984 2.984 0 0 1-.452-.238 1.197 1.197 0 0 1-.42-.449 2.123 2.123 0 0 1-.087-1.755c.199-.517.567-.952.956-1.301.778-.697 1.821-1.213 2.538-1.481a.364.364 0 0 1 .044-.015c56.184-17.172 171.288-52.497 182.467-56.489zM1.562 370.521l.009.007a.032.032 0 0 1-.01-.007z" fill="#6677FB"/><path fill-rule="evenodd" clip-rule="evenodd" d="M647.818 355.772c.402-.1.809.144.91.546.187.75.522 3.051.522 6.682 0 3.668-.676 6.028-1.079 6.835l-.013.027-.016.025c-16.172 26.843-50.294 83.79-57.484 96.972-7.417 13.598-22.288 14.906-28.775 13.882l-.011-.002C380.532 449.404 15.976 386.44 8.383 385.241c-4.123-.651-6.355-3.259-7.436-6.181-1.066-2.881-1.035-6.095-.687-8.183a.75.75 0 1 1 1.48.246c-.319 1.912-.337 4.848.613 7.417.936 2.528 2.788 4.67 6.264 5.219 7.607 1.201 372.177 64.168 553.505 95.501 6.183.974 20.238-.321 27.219-13.119 7.208-13.214 41.332-70.165 57.5-97 .27-.564.909-2.66.909-6.141 0-3.569-.332-5.735-.478-6.318a.751.751 0 0 1 .546-.91z" fill="#6677FB"/><path fill-rule="evenodd" clip-rule="evenodd" d="M243.219 363.849c-.4-.051-.807.005-1.178.165l-50.228 21.585c-2.071.89-1.692 3.935.535 4.289l145.643 23.192a2.248 2.248 0 0 0 1.566-.327l42.098-26.943c1.769-1.132 1.16-3.856-.923-4.126l-137.513-17.835zm-1.77-1.214a3.75 3.75 0 0 1 1.963-.273l137.513 17.834c3.471.451 4.487 4.991 1.539 6.878l-42.098 26.942a3.745 3.745 0 0 1-2.611.545L192.112 391.37c-3.711-.591-4.343-5.665-.891-7.149l50.228-21.586zM452.027 372.418a.749.749 0 0 1 .587-.159l26 4a.75.75 0 0 1 .416 1.271l-6.5 6.5a.748.748 0 0 1-.638.212l-27.5-4a.75.75 0 0 1-.365-1.324l8-6.5zm.688 1.374-6.415 5.212 25.436 3.7 5.187-5.188-24.208-3.724zM451.543 357.906a.749.749 0 0 1 .552-.15l23.5 3a.75.75 0 0 1 .341 1.354l-7 5a.75.75 0 0 1-.533.134l-23-3a.75.75 0 0 1-.36-1.338l6.5-5zm.669 1.377-4.82 3.707 20.912 2.728 5.203-3.716-21.295-2.719zM462.073 345.383a.757.757 0 0 1 .497-.13l26.5 2.5a.751.751 0 0 1 .435 1.302l-5.5 5a.754.754 0 0 1-.586.191l-27.5-3a.75.75 0 0 1-.346-1.363l6.5-4.5zm.629 1.389-4.622 3.2 25.166 2.746 3.993-3.631-24.537-2.315zM489.006 377.436a.75.75 0 0 1 .582-.181l25.5 3a.75.75 0 0 1 .392 1.321l-9 7.5a.75.75 0 0 1-.586.166l-24.5-3.5a.749.749 0 0 1-.388-1.306l8-7zm.737 1.348-6.52 5.705 22.553 3.221 7.403-6.169-23.436-2.757zM486.02 361.924a.749.749 0 0 1 .575-.168l23.5 3a.75.75 0 0 1 .385 1.32l-6 5a.749.749 0 0 1-.575.168l-23.5-3a.75.75 0 0 1-.385-1.32l6-5zm.709 1.361-4.426 3.689 21.468 2.741 4.426-3.689-21.468-2.741zM523.509 381.933a.754.754 0 0 1 .588-.177l23 3a.751.751 0 0 1 .433 1.274l-7 7a.749.749 0 0 1-.64.212l-23.5-3.5a.75.75 0 0 1-.381-1.309l7.5-6.5zm.728 1.354-6.013 5.211 21.513 3.205 5.656-5.656-21.156-2.76zM197.754 326.292a.735.735 0 0 1 .329-.037l36 4a.75.75 0 0 1 .238 1.423l-9.5 4.5a.757.757 0 0 1-.409.067l-38-4.5a.75.75 0 0 1-.158-1.453l11.5-4zm.332 1.472-8.263 2.874 34.551 4.092 6.917-3.276-33.205-3.69zM278.705 336.311a.747.747 0 0 1 .396-.054l22 3a.749.749 0 0 1 .194 1.432l-10.5 4.5c-.124.054-.262.072-.396.054l-22-3a.749.749 0 0 1-.194-1.432l10.5-4.5zm.4 1.46-7.821 3.352 19.112 2.606 7.82-3.352-19.111-2.606zM312.179 340.322a.755.755 0 0 1 .432-.064l23.5 3.5a.751.751 0 0 1 .21 1.42l-9.5 4.5a.752.752 0 0 1-.431.064l-23.5-3.5a.751.751 0 0 1-.211-1.42l9.5-4.5zm.436 1.453-7.064 3.347 20.834 3.103 7.064-3.347-20.834-3.103zM427.109 340.86a.748.748 0 0 1 .484-.104l24 3a.749.749 0 0 1 .298 1.384l-9 5.5a.747.747 0 0 1-.484.104l-24-3a.749.749 0 0 1-.298-1.384l9-5.5zm.558 1.417-6.946 4.245 21.612 2.701 6.946-4.245-21.612-2.701zM382.62 348.854a.752.752 0 0 1 .491-.096l23.5 3.5a.749.749 0 0 1 .295 1.373l-7 4.5a.757.757 0 0 1-.495.114l-25-3a.752.752 0 0 1-.291-1.391l8.5-5zm.532 1.427-6.357 3.739 22.526 2.703 5.095-3.275-21.264-3.167z" fill="#6677FB"/><path d="m469 323 10.5-33.5 28.5 1-8.5 14-14.5 23-3 6.5c-2 .833-6.2 2.5-7 2.5-.8 0-3.667-1.667-5-2.5l-1-5 1.5-5-1.5-1z" fill="#202A44"/><path d="M463.25 335.609c2-4 4.833-7.333 6-8.5-.417 1.167-.25 3.9 3.75 5.5s6 1.333 6.5 1h2.5l1.5-1.5 6.5 8c7-.5 10.25.5 11.25 7 .8 5.2-2.917 8-4.75 8.5-6.4 1.2-15.417-3.667-19.25-6-5.5-3-16-10-14-14z" fill="#202A44"/><path d="M516.877 70.98h-9.646v9.646h9.646v-9.645z" fill="#29DDCC"/><path fill-rule="evenodd" clip-rule="evenodd" d="M515.377 72.48h-6.646v6.646h6.646v-6.645zm1.5-1.5v9.646h-9.646v-9.645h9.646z" fill="#202A44"/><path d="M525.435 70.981h-9.646v9.645h9.646v-9.645z" fill="#FDB22B"/><path fill-rule="evenodd" clip-rule="evenodd" d="M523.935 72.481h-6.646v6.645h6.646v-6.645zm1.5-1.5v9.645h-9.646v-9.645h9.646z" fill="#202A44"/><path fill-rule="evenodd" clip-rule="evenodd" d="M490.273 64.5h6.646v6.645h-6.646V64.5z" fill="#496EB1"/><path fill-rule="evenodd" clip-rule="evenodd" d="M480.5 88.388h6.646v6.645H480.5v-6.645z" fill="#FFF3D3"/><path d="M508.189 79.54h-9.646v9.646h9.646V79.54z" fill="#6677FB"/><path fill-rule="evenodd" clip-rule="evenodd" d="M506.689 81.04h-6.646v6.646h6.646V81.04zm1.5-1.5v9.646h-9.646V79.54h9.646z" fill="#202A44"/><path d="M516.877 79.54h-9.646v9.646h9.646v-9.645z" fill="#6677FB"/><path fill-rule="evenodd" clip-rule="evenodd" d="M515.377 81.04h-6.646v6.646h6.646v-6.645zm1.5-1.5v9.646h-9.646v-9.645h9.646z" fill="#202A44"/><path d="M525.435 79.54h-9.646v9.646h9.646v-9.645z" fill="#F77779"/><path fill-rule="evenodd" clip-rule="evenodd" d="M523.935 81.04h-6.646v6.646h6.646v-6.645zm1.5-1.5v9.646h-9.646v-9.645h9.646z" fill="#202A44"/><path d="M533.996 79.54h-9.645v9.646h9.645v-9.645z" fill="#29DDCC"/><path fill-rule="evenodd" clip-rule="evenodd" d="M532.496 81.04h-6.645v6.646h6.645v-6.645zm1.5-1.5v9.646h-9.645v-9.645h9.645z" fill="#202A44"/><path d="M508.189 88.097h-9.646v9.645h9.646v-9.645z" fill="#29DDCC"/><path fill-rule="evenodd" clip-rule="evenodd" d="M506.689 89.597h-6.646v6.645h6.646v-6.645zm1.5-1.5v9.645h-9.646v-9.645h9.646z" fill="#202A44"/><path d="M516.877 88.1h-9.646v9.646h9.646v-9.645z" fill="#FFF3D3"/><path fill-rule="evenodd" clip-rule="evenodd" d="M515.377 89.6h-6.646v6.646h6.646v-6.645zm1.5-1.5v9.646h-9.646v-9.645h9.646z" fill="#202A44"/><path d="M525.435 88.1h-9.646v9.646h9.646v-9.645z" fill="#496EB1"/><path fill-rule="evenodd" clip-rule="evenodd" d="M523.935 89.6h-6.646v6.646h6.646v-6.645zm1.5-1.5v9.646h-9.646v-9.645h9.646z" fill="#202A44"/><path d="M533.996 88.1h-9.645v9.646h9.645v-9.645z" fill="#6677FB"/><path fill-rule="evenodd" clip-rule="evenodd" d="M532.496 89.6h-6.645v6.646h6.645v-6.645zm1.5-1.5v9.646h-9.645v-9.645h9.645z" fill="#202A44"/><path d="M516.877 96.66h-9.646v9.646h9.646V96.66z" fill="#F77779"/><path fill-rule="evenodd" clip-rule="evenodd" d="M515.377 98.16h-6.646v6.646h6.646V98.16zm1.5-1.5v9.646h-9.646V96.66h9.646z" fill="#202A44"/><path d="M525.435 96.66h-9.646v9.646h9.646V96.66z" fill="#6677FB"/><path fill-rule="evenodd" clip-rule="evenodd" d="M523.935 98.16h-6.646v6.646h6.646V98.16zm1.5-1.5v9.646h-9.646V96.66h9.646z" fill="#202A44"/><path d="M525.435 105.347h-9.646v9.645h9.646v-9.645z" fill="#6677FB"/><path fill-rule="evenodd" clip-rule="evenodd" d="M523.935 106.847h-6.646v6.645h6.646v-6.645zm1.5-1.5v9.645h-9.646v-9.645h9.646z" fill="#202A44"/><path d="M533.996 96.66h-9.645v9.646h9.645V96.66z" fill="#6677FB"/><path fill-rule="evenodd" clip-rule="evenodd" d="M532.496 98.16h-6.645v6.646h6.645V98.16zm1.5-1.5v9.646h-9.645V96.66h9.645z" fill="#202A44"/><path d="M534.001 105.347h-9.646v9.645h9.646v-9.645z" fill="#29DDCC"/><path fill-rule="evenodd" clip-rule="evenodd" d="M532.501 106.847h-6.646v6.645h6.646v-6.645zm1.5-1.5v9.645h-9.646v-9.645h9.646z" fill="#202A44"/><path d="M449.646 144.109H440v9.646h9.646v-9.646z" fill="#FDB22B"/><path fill-rule="evenodd" clip-rule="evenodd" d="M448.146 145.609H441.5v6.646h6.646v-6.646zm1.5-1.5v9.646H440v-9.646h9.646z" fill="#202A44"/><path d="M539.332 268.09h-9.645v9.646h9.645v-9.646z" fill="#29DDCC"/><path fill-rule="evenodd" clip-rule="evenodd" d="M537.832 269.59h-6.645v6.646h6.645v-6.646zm1.5-1.5v9.646h-9.645v-9.646h9.645z" fill="#202A44"/><path d="M575.103 272.109h-9.646v9.646h9.646v-9.646z" fill="#FDB22B"/><path fill-rule="evenodd" clip-rule="evenodd" d="M573.603 273.609h-6.646v6.646h6.646v-6.646zm1.5-1.5v9.646h-9.646v-9.646h9.646z" fill="#202A44"/><path d="M539.332 276.65h-9.645v9.645h9.645v-9.645z" fill="#6677FB"/><path fill-rule="evenodd" clip-rule="evenodd" d="M537.832 278.15h-6.645v6.645h6.645v-6.645zm1.5-1.5v9.645h-9.645v-9.645h9.645z" fill="#202A44"/><path d="M547.891 276.65h-9.645v9.645h9.645v-9.645z" fill="#F77779"/><path fill-rule="evenodd" clip-rule="evenodd" d="M546.391 278.15h-6.645v6.645h6.645v-6.645zm1.5-1.5v9.645h-9.645v-9.645h9.645z" fill="#202A44"/><path d="M556.45 276.65h-9.645v9.645h9.645v-9.645z" fill="#29DDCC"/><path fill-rule="evenodd" clip-rule="evenodd" d="M554.95 278.15h-6.645v6.645h6.645v-6.645zm1.5-1.5v9.645h-9.645v-9.645h9.645z" fill="#202A44"/><path d="M530.646 285.206H521v9.645h9.646v-9.645z" fill="#29DDCC"/><path fill-rule="evenodd" clip-rule="evenodd" d="M529.146 286.706H522.5v6.645h6.646v-6.645zm1.5-1.5v9.645H521v-9.645h9.646z" fill="#202A44"/><path d="M539.332 285.21h-9.645v9.645h9.645v-9.645z" fill="#FFF3D3"/><path fill-rule="evenodd" clip-rule="evenodd" d="M537.832 286.71h-6.645v6.645h6.645v-6.645zm1.5-1.5v9.645h-9.645v-9.645h9.645z" fill="#202A44"/><path d="M547.891 285.21h-9.645v9.645h9.645v-9.645z" fill="#496EB1"/><path fill-rule="evenodd" clip-rule="evenodd" d="M546.391 286.71h-6.645v6.645h6.645v-6.645zm1.5-1.5v9.645h-9.645v-9.645h9.645z" fill="#202A44"/><path d="M556.45 285.209h-9.645v9.646h9.645v-9.646z" fill="#6677FB"/><path fill-rule="evenodd" clip-rule="evenodd" d="M554.95 286.709h-6.645v6.646h6.645v-6.646zm1.5-1.5v9.646h-9.645v-9.646h9.645z" fill="#202A44"/><path d="M539.332 293.77h-9.645v9.645h9.645v-9.645z" fill="#F77779"/><path fill-rule="evenodd" clip-rule="evenodd" d="M537.832 295.27h-6.645v6.645h6.645v-6.645zm1.5-1.5v9.645h-9.645v-9.645h9.645z" fill="#202A44"/><path d="M547.891 293.769h-9.645v9.646h9.645v-9.646z" fill="#6677FB"/><path fill-rule="evenodd" clip-rule="evenodd" d="M546.391 295.269h-6.645v6.646h6.645v-6.646zm1.5-1.5v9.646h-9.645v-9.646h9.645z" fill="#202A44"/><path d="M539.333 302.459h-9.645v9.646h9.645v-9.646z" fill="#6677FB"/><path fill-rule="evenodd" clip-rule="evenodd" d="M537.833 303.959h-6.645v6.646h6.645v-6.646zm1.5-1.5v9.646h-9.645v-9.646h9.645z" fill="#202A44"/><path d="M561.103 255.109h-9.646v9.646h9.646v-9.646z" fill="#6677FB"/><path fill-rule="evenodd" clip-rule="evenodd" d="M559.603 256.609h-6.646v6.646h6.646v-6.646zm1.5-1.5v9.646h-9.646v-9.646h9.646z" fill="#202A44"/><path d="M551.322 138.163c-.334-1.284-.948-2.847-1.506-4.243-.056-.112-.056-.168-.112-.279-3.124-8.208-7.421-12.34-11.438-14.126-4.018-1.843-13.782-2.792-13.782-2.792-8.426 2.066-17.242-.614-17.242-.614l-.334.056c-.391.056-.837.167-1.228.223-2.288.447-4.743 1.061-7.477 1.843l-.558.167c-.781.223-1.618.447-2.399.726-.056 0-.112.056-.223.056l-.279.111c-.224.112-.503.224-.726.391-.558.335-1.171.726-1.785 1.173l-.168.111c-.111.056-.167.112-.279.224-.167.167-.334.279-.502.446-.39.335-.725.67-1.116 1.061-.837.838-1.618 1.787-2.399 2.792-1.897 2.568-3.683 5.583-5.412 9.212-1.898 4.132-3.627 8.878-5.245 14.461l-.112.391.446.056 1.172.167c3.125.559 5.636 1.229 7.868 2.122 1.283.502 3.124 1.396 4.352 2.68l.446.502.614 1.117.223.837c.614 5.863.67 11.837.67 16.36 0 4.857-.168 9.994-.391 15.633-.167 3.294-.335 6.253-.558 8.933v.056c0 .223-.056.502-.056.726V199.914c0 .056 0 .112.056.168.056.223.112.39.168.558l.055.223h.056c.056.056.056.168.112.224.279.502.446.67.837 1.06.446.391.837.726 1.45 1.061.614.335 1.34.614 2.177.838 2.343.67 4.798.781 6.751.781h.335c3.069 0 6.361-.279 10.434-.893 3.348-.502 6.64-1.172 9.151-1.675l1.506-.335c1.842-.391 3.739-.782 5.58-1.117l.168-.055c2.008-.335 5.021-.838 6.584.502l.502.447.111-.67c.056-.447.112-.949.168-1.396.669-6.253.279-12.618-.112-17.42-.111-1.396-.279-2.792-.39-4.187-.335-3.239-.67-6.533-.67-9.827 0-.837.056-1.619.056-2.457 0-.781.056-1.563.056-2.345 0-1.675 0-3.461-.056-5.639-.056-1.619-.112-3.238-.168-5.025.837-.781.797-1.126 2.297-2.126.502-.167 1-.592 2.39-1.056 2.679-.893 5.469-1.34 7.868-1.675 1.451-.168 2.734-.335 3.906-.391l.446-.056-2.288-9.268z" fill="#F77779"/><path fill-rule="evenodd" clip-rule="evenodd" d="M493.607 134.425a.749.749 0 0 1 .377.991c-.468 1.045-1.167 3.839-1.584 8.732-.414 4.864-.545 11.741.08 20.91a.75.75 0 0 1-1.497.102c-.629-9.231-.499-16.187-.077-21.14.42-4.924 1.133-7.93 1.71-9.218a.749.749 0 0 1 .991-.377z" fill="#202A44"/><path fill-rule="evenodd" clip-rule="evenodd" d="M509.346 148.362a.75.75 0 0 1 .815.679c.668 7.345 1.313 24.919-1.519 36.25a.751.751 0 0 1-1.456-.364c2.768-11.069 2.147-28.428 1.481-35.75a.751.751 0 0 1 .679-.815zM477.346 150.442c.368.19.513.642.324 1.01-1.489 2.895-3.752 7.744-5.691 12.86-1.947 5.138-3.534 10.46-3.727 14.335-.4 7.998-1.167 24.663-1.5 31.996l-.003.051-.009.049a110.93 110.93 0 0 1-.73 3.664c-.143.653-.289 1.28-.426 1.799-.131.493-.271.959-.411 1.239l-.014.035c-.009.024-.02.057-.032.099a4.265 4.265 0 0 0-.08.335c-.055.275-.109.632-.15 1.05a16.758 16.758 0 0 0-.022 2.958c.09 1.078.297 2.152.672 3.057.375.904.894 1.588 1.578 1.979a.75.75 0 0 1-.745 1.302c-1.066-.609-1.766-1.613-2.219-2.708-.454-1.095-.683-2.334-.781-3.506a18.261 18.261 0 0 1 .025-3.229c.044-.457.104-.866.172-1.2.063-.313.145-.623.255-.843.06-.121.166-.438.302-.952.129-.489.27-1.093.411-1.736.276-1.261.544-2.65.711-3.561.334-7.359 1.098-23.97 1.497-31.953.207-4.126 1.87-9.637 3.823-14.791 1.961-5.175 4.248-10.076 5.76-13.015a.75.75 0 0 1 1.01-.324z" fill="#fff"/><path fill-rule="evenodd" clip-rule="evenodd" d="M466.334 222.69a.75.75 0 0 1 .75.75c-.001 1.055.187 2.556.706 3.673.258.555.571.956.923 1.186.328.215.75.321 1.346.184a.75.75 0 1 1 .336 1.462c-.963.221-1.808.064-2.502-.39-.67-.438-1.137-1.108-1.463-1.809-.647-1.393-.847-3.138-.846-4.307 0-.414.336-.75.75-.749z" fill="#fff"/><path fill-rule="evenodd" clip-rule="evenodd" d="M468.258 223.582a.75.75 0 0 1 .911.544c.279 1.108.809 2.686 1.477 3.842.339.586.673.991.968 1.197.253.176.411.174.586.081a.75.75 0 0 1 .7 1.327c-.778.41-1.538.245-2.144-.178-.563-.393-1.03-1.022-1.408-1.676-.766-1.324-1.337-3.05-1.634-4.227a.75.75 0 0 1 .544-.91z" fill="#fff"/><path fill-rule="evenodd" clip-rule="evenodd" d="M473.568 218.881c.402-.1.809.144.91.546.266 1.064.645 3.741.771 6.143.063 1.2.066 2.38-.052 3.278-.058.441-.153.875-.322 1.221-.161.331-.506.79-1.125.79a1.45 1.45 0 0 1-.906-.34 2.76 2.76 0 0 1-.572-.657c-.314-.481-.581-1.111-.806-1.757-.451-1.304-.785-2.848-.956-3.873a.75.75 0 0 1 1.48-.246c.162.975.479 2.431.894 3.627.209.604.429 1.1.645 1.431.029.045.058.086.084.121a4.08 4.08 0 0 0 .097-.514c.1-.758.103-1.828.041-3.003-.123-2.347-.494-4.92-.728-5.857a.75.75 0 0 1 .545-.91zm-.069 10.582.002-.003-.002.003z" fill="#fff"/><path fill-rule="evenodd" clip-rule="evenodd" d="M491.563 155.927a.752.752 0 0 1 .369.995c-1.834 4-6 13.099-7.999 17.497-1.223 2.69-2.71 7.389-4.021 12.26-1.309 4.862-2.427 9.832-2.921 13.044-1.005 6.536-1.458 10.837-.039 14.623.795 2.12 1.05 4.725.985 6.786-.032 1.033-.145 1.969-.329 2.667-.09.344-.209.676-.372.939-.141.229-.454.621-.986.621-.321 0-.663-.033-.977-.18a1.567 1.567 0 0 1-.734-.726c-.145-.281-.233-.613-.305-.955-.064-.306-.125-.673-.195-1.09l-.029-.176c-.358-2.149-1.974-3.934-2.728-4.537a.75.75 0 1 1 .937-1.172c.912.73 2.829 2.812 3.271 5.463l.029.175c.07.424.126.756.183 1.028.066.315.122.482.17.576a.223.223 0 0 0 .037.055.347.347 0 0 0 .105.026c.043-.095.093-.235.143-.427.145-.552.251-1.366.281-2.333.06-1.939-.185-4.334-.89-6.214-1.58-4.214-1.034-8.913-.039-15.377.506-3.288 1.638-8.318 2.954-13.206 1.314-4.879 2.827-9.68 4.104-12.49a8360.387 8360.387 0 0 1 8.001-17.502.751.751 0 0 1 .995-.37zm-15.627 68.057.009-.012-.009.012zM473.272 167.318a.751.751 0 0 1 .91-.546 5.35 5.35 0 0 1 1.585.717c.567.38 1.172.957 1.444 1.774a.75.75 0 1 1-1.423.474c-.127-.383-.439-.722-.855-1.001a3.811 3.811 0 0 0-1.115-.508.751.751 0 0 1-.546-.91zM493.522 202.41a.75.75 0 0 1 .427.971c-1.106 2.845-2.414 10.62 1.472 18.393l7.5 15a.75.75 0 1 1-1.341.67l-7.5-15c-4.114-8.226-2.755-16.452-1.529-19.607a.75.75 0 0 1 .971-.427z" fill="#fff"/><path fill-rule="evenodd" clip-rule="evenodd" d="M500.433 214.429a.75.75 0 0 1 .997.363c.6 1.286 1.465 3.476 2.131 5.906.663 2.419 1.148 5.146.936 7.479-.254 2.799-1.138 8.09-2.584 13.622-1.441 5.516-3.466 11.367-6.039 15.226a.75.75 0 1 1-1.248-.832c2.427-3.641 4.403-9.289 5.836-14.774 1.429-5.468 2.296-10.677 2.541-13.378.188-2.067-.243-4.589-.889-6.946-.642-2.345-1.477-4.455-2.044-5.669a.751.751 0 0 1 .363-.997zM522.367 202.868a.75.75 0 0 1 .624.858l-1.532 9.704-.133.159c-1.063 1.277-2.669 2.572-4.206 3.658a43.607 43.607 0 0 1-4.011 2.521l-.541.295-5.533-6.64-1.028-7.715a.75.75 0 0 1 1.487-.198l.971 7.285 4.462 5.355a43.914 43.914 0 0 0 3.328-2.128c1.436-1.016 2.847-2.16 3.787-3.238l1.467-9.292a.751.751 0 0 1 .858-.624z" fill="#fff"/><path fill-rule="evenodd" clip-rule="evenodd" d="M537.352 201.366a.75.75 0 0 1 .641.845c-1.165 8.489-4.306 27.863-7.535 37.144a533.856 533.856 0 0 0-1.63 4.798c-4.208 12.502-11.128 33.064-23.441 52.852-11.201 18.001-17.67 28.173-19.507 31.012l-.222.342h-.408c-1.882 0-4.96-.23-8.134-.917-3.156-.683-6.503-1.84-8.841-3.752l-.389-.318.146-.481c3.995-13.148 13.514-42.453 19.552-54.126 3-5.8 4.508-8.567 5.395-10.074a21.53 21.53 0 0 1 1.259-1.943c.129-.179.252-.35.388-.555a.75.75 0 1 1 1.248.832c-.175.263-.314.455-.451.645-.287.399-.565.785-1.151 1.782-.864 1.468-2.356 4.202-5.356 10.002-5.889 11.385-15.21 39.974-19.298 53.38 2.048 1.515 4.929 2.517 7.816 3.142 2.838.615 5.6.849 7.41.88 2.094-3.249 8.487-13.314 19.269-30.643 12.213-19.628 19.077-40.016 23.289-52.527a507.55 507.55 0 0 1 1.64-4.823c3.171-9.118 6.297-28.344 7.465-36.856a.75.75 0 0 1 .845-.641z" fill="#fff"/><path fill-rule="evenodd" clip-rule="evenodd" d="M518.372 269.461a.75.75 0 0 1 1.026.27l7 12a.75.75 0 1 1-1.296.756l-7-12a.75.75 0 0 1 .27-1.026zM532.036 231.39a.75.75 0 0 1 .933.505l12.5 42a.75.75 0 0 1-1.438.428l-12.5-42a.75.75 0 0 1 .505-.933zM537.6 156.374a.75.75 0 0 1 .885.585c.826 4.047 2.509 9.976 4.859 14.624 1.178 2.329 2.495 4.278 3.909 5.516 1.399 1.225 2.817 1.698 4.296 1.287 3.437-.954 7.584-3.739 11.423-6.917 3.816-3.16 7.239-6.633 9.217-8.858a.75.75 0 1 1 1.121.996c-2.021 2.275-5.499 5.802-9.382 9.017-3.861 3.197-8.214 6.162-11.977 7.208-2.121.589-4.045-.167-5.686-1.604-1.625-1.423-3.046-3.568-4.259-5.968-2.433-4.81-4.15-10.881-4.991-15.001a.75.75 0 0 1 .585-.885z" fill="#fff"/><path fill-rule="evenodd" clip-rule="evenodd" d="M551.894 148.367a.75.75 0 0 1 .849.636l2 14a.75.75 0 1 1-1.485.212l-2-14a.749.749 0 0 1 .636-.848z" fill="#fff"/><path fill-rule="evenodd" clip-rule="evenodd" d="M568.452 153.346a.749.749 0 0 1-.439.965c-3.093 1.16-6.271 3.272-9.006 5.47-2.728 2.194-4.973 4.439-6.195 5.824a.749.749 0 1 1-1.124-.992c1.278-1.448 3.583-3.753 6.38-6.001 2.79-2.243 6.112-4.465 9.419-5.705a.749.749 0 0 1 .965.439zM508.812 107.362c.413.034.72.397.685.809a50.824 50.824 0 0 1-.52 4.115c-.13.751-.281 1.489-.455 2.124-.168.614-.376 1.208-.648 1.615a.75.75 0 1 1-1.248-.832c.129-.193.287-.586.449-1.179.156-.571.299-1.258.423-1.982.25-1.449.423-3.001.505-3.985a.749.749 0 0 1 .809-.685z" fill="#fff"/><path fill-rule="evenodd" clip-rule="evenodd" d="M577 131.609a.75.75 0 0 1 .75-.75c1.416 0 3.681.289 5.964 1.148 2.283.859 4.652 2.316 6.169 4.699 2.931 4.606 2.64 9.269 2.085 11.119a.75.75 0 0 1-1.436-.432c.445-1.484.754-5.687-1.915-9.881-1.283-2.017-3.33-3.31-5.431-4.101-2.101-.791-4.186-1.052-5.436-1.052a.75.75 0 0 1-.75-.75zM593.738 127.561a.75.75 0 0 1 1.06.036c2.515 2.694 6.356 10.583 2.661 21.257a.75.75 0 0 1-1.418-.49c3.505-10.126-.187-17.437-2.339-19.743a.75.75 0 0 1 .036-1.06zM565.66 285.865a.75.75 0 0 1 .835.654c.709 5.853-2.568 18.778-20.489 25.295a.75.75 0 0 1-.512-1.41c17.278-6.283 20.135-18.558 19.511-23.705a.75.75 0 0 1 .655-.834zM574.25 288.859a.75.75 0 0 1 .75.75c0 1.473-.206 3.86-.823 6.297-.613 2.42-1.655 4.992-3.397 6.733a.749.749 0 1 1-1.06-1.06c1.458-1.459 2.416-3.72 3.003-6.041.583-2.305.777-4.568.777-5.929a.75.75 0 0 1 .75-.75z" fill="#A7B1FC"/><path fill-rule="evenodd" clip-rule="evenodd" d="M471.045 323.92a.75.75 0 0 1 .394.985l-1.4 3.267c.558 1.919 3.443 5.688 11.704 4.744l2.575-5.619a.75.75 0 1 1 1.364.625l-2.923 6.377-.412.054c-9.488 1.237-13.229-3.281-13.83-6.087l-.05-.233 1.594-3.719a.75.75 0 0 1 .984-.394z" fill="#fff"/><path fill-rule="evenodd" clip-rule="evenodd" d="M469.78 327.079a.749.749 0 0 1 0 1.06c-1.122 1.123-3.903 4.392-5.859 8.306-.323.645-.206 1.53.536 2.72.729 1.171 1.959 2.456 3.469 3.75 3.008 2.579 6.96 5.05 9.683 6.536l.016.008.015.009c1.876 1.142 5.102 2.793 8.641 4.007 3.548 1.217 7.3 1.955 10.3 1.403.778-.219 1.939-.835 2.813-1.965.867-1.12 1.484-2.787 1.115-5.19-.487-3.166-1.432-4.905-2.914-5.858-1.529-.983-3.809-1.257-7.291-1.008a.75.75 0 1 1-.107-1.496c3.517-.251 6.237-.025 8.209 1.242 2.017 1.297 3.073 3.558 3.585 6.892.431 2.797-.285 4.881-1.41 6.335-1.107 1.431-2.578 2.215-3.634 2.503l-.029.008-.03.005c-3.394.637-7.463-.207-11.094-1.452-3.643-1.25-6.959-2.944-8.919-4.135-2.776-1.515-6.815-4.039-9.926-6.705-1.553-1.332-2.917-2.734-3.765-4.095-.836-1.341-1.282-2.831-.605-4.185 2.043-4.087 4.93-7.484 6.141-8.695a.749.749 0 0 1 1.06 0z" fill="#fff"/><path fill-rule="evenodd" clip-rule="evenodd" d="M482.762 331.54a.75.75 0 0 1 1.057.081l9 10.5a.75.75 0 1 1-1.138.976l-9-10.5a.748.748 0 0 1 .081-1.057z" fill="#fff"/><path d="M495.896 253.09h-9.646v9.646h9.646v-9.646z" fill="#29DDCC"/><path fill-rule="evenodd" clip-rule="evenodd" d="M494.396 254.59h-6.646v6.646h6.646v-6.646zm1.5-1.5v9.646h-9.646v-9.646h9.646z" fill="#202A44"/><path d="M487.332 261.65h-9.645v9.645h9.645v-9.645z" fill="#6677FB"/><path fill-rule="evenodd" clip-rule="evenodd" d="M485.832 263.15h-6.645v6.645h6.645v-6.645zm1.5-1.5v9.645h-9.645v-9.645h9.645z" fill="#202A44"/><path d="M495.891 261.65h-9.645v9.645h9.645v-9.645z" fill="#F77779"/><path fill-rule="evenodd" clip-rule="evenodd" d="M494.391 263.15h-6.645v6.645h6.645v-6.645zm1.5-1.5v9.645h-9.645v-9.645h9.645z" fill="#202A44"/><path d="M504.45 261.65h-9.645v9.645h9.645v-9.645z" fill="#29DDCC"/><path fill-rule="evenodd" clip-rule="evenodd" d="M502.95 263.15h-6.645v6.645h6.645v-6.645zm1.5-1.5v9.645h-9.645v-9.645h9.645z" fill="#202A44"/><path d="M482.646 248.109H473v9.646h9.646v-9.646z" fill="#29DDCC"/><path fill-rule="evenodd" clip-rule="evenodd" d="M481.146 249.609H474.5v6.646h6.646v-6.646zm1.5-1.5v9.646H473v-9.646h9.646z" fill="#202A44"/><path d="M487.332 270.21h-9.645v9.645h9.645v-9.645z" fill="#FFF3D3"/><path fill-rule="evenodd" clip-rule="evenodd" d="M485.832 271.71h-6.645v6.645h6.645v-6.645zm1.5-1.5v9.645h-9.645v-9.645h9.645z" fill="#202A44"/><path d="M495.891 270.21h-9.645v9.645h9.645v-9.645z" fill="#496EB1"/><path fill-rule="evenodd" clip-rule="evenodd" d="M494.391 271.71h-6.645v6.645h6.645v-6.645zm1.5-1.5v9.645h-9.645v-9.645h9.645z" fill="#202A44"/><path d="M504.45 270.209h-9.645v9.646h9.645v-9.646z" fill="#FDB22B"/><path fill-rule="evenodd" clip-rule="evenodd" d="M502.95 271.709h-6.645v6.646h6.645v-6.646zm1.5-1.5v9.646h-9.645v-9.646h9.645z" fill="#202A44"/><path d="M487.332 278.77h-9.645v9.645h9.645v-9.645z" fill="#F77779"/><path fill-rule="evenodd" clip-rule="evenodd" d="M485.832 280.27h-6.645v6.645h6.645v-6.645zm1.5-1.5v9.645h-9.645v-9.645h9.645z" fill="#202A44"/><path d="M495.891 278.769h-9.645v9.646h9.645v-9.646z" fill="#6677FB"/><path fill-rule="evenodd" clip-rule="evenodd" d="M494.391 280.269h-6.645v6.646h6.645v-6.646zm1.5-1.5v9.646h-9.645v-9.646h9.645z" fill="#202A44"/><path d="M467.646 280.109H458v9.646h9.646v-9.646z" fill="#6677FB"/><path fill-rule="evenodd" clip-rule="evenodd" d="M466.146 281.609H459.5v6.646h6.646v-6.646zm1.5-1.5v9.646H458v-9.646h9.646z" fill="#202A44"/><path fill-rule="evenodd" clip-rule="evenodd" d="M584.708 163.501h-6.646v-6.646h6.646v6.646z" fill="#29DDCC"/><path fill-rule="evenodd" clip-rule="evenodd" d="M576.148 163.501h-6.645v-6.646h6.645v6.646z" fill="#496EB1"/><path fill-rule="evenodd" clip-rule="evenodd" d="M584.708 154.941h-6.646v-6.645h6.646v6.645z" fill="#6677FB"/><path fill-rule="evenodd" clip-rule="evenodd" d="M584.711 146.255h-6.646v-6.646h6.646v6.646z" fill="#F77779"/><path fill-rule="evenodd" clip-rule="evenodd" d="M576.148 154.941h-6.645v-6.645h6.645v6.645zM289.712 325.308a.743.743 0 0 1 .373-.053l22 2.5a.749.749 0 0 1 .194 1.441l-12.5 5a.75.75 0 0 1-.366.049l-21.5-2.5a.75.75 0 0 1-.201-1.437l12-5zm.397 1.459-9.168 3.82 18.457 2.146 9.56-3.824-18.849-2.142z" fill="#6677FB"/></g><defs><clipPath id="a"><path fill="#fff" d="M0 0h653v481H0z"/></clipPath></defs></svg>