<svg width="770" height="450" fill="none" xmlns="http://www.w3.org/2000/svg"><g clip-path="url(#a)"><path fill-rule="evenodd" clip-rule="evenodd" d="M249.5 118.008V129l7.978-7.978a10.908 10.908 0 0 1 3.389 7.917c0 6.041-4.895 10.938-10.933 10.938-6.039 0-10.934-4.897-10.934-10.938 0-5.896 4.663-10.703 10.5-10.931z" fill="#FDB22B"/><path fill-rule="evenodd" clip-rule="evenodd" d="M232 1.75A5.25 5.25 0 0 0 226.75 7v96a5.25 5.25 0 0 0 5.25 5.25h18.25v18.939l18.939-18.939H366a5.25 5.25 0 0 0 5.25-5.25V7A5.25 5.25 0 0 0 366 1.75H232zM225.25 7A6.75 6.75 0 0 1 232 .25h134A6.75 6.75 0 0 1 372.75 7v96a6.75 6.75 0 0 1-6.75 6.75h-96.189l-21.061 21.061V109.75H232a6.75 6.75 0 0 1-6.75-6.75V7z" fill="#FDB22B"/><path fill-rule="evenodd" clip-rule="evenodd" d="M298.25 34a.75.75 0 0 1 .75-.75h43a.75.75 0 0 1 0 1.5h-43a.75.75 0 0 1-.75-.75zM298.25 44a.75.75 0 0 1 .75-.75h47a.75.75 0 0 1 0 1.5h-47a.75.75 0 0 1-.75-.75zM298.25 54a.75.75 0 0 1 .75-.75h60a.75.75 0 0 1 0 1.5h-60a.75.75 0 0 1-.75-.75zM298.25 64a.75.75 0 0 1 .75-.75h58a.75.75 0 0 1 0 1.5h-58a.75.75 0 0 1-.75-.75zM236.25 74a.75.75 0 0 1 .75-.75h113a.75.75 0 0 1 0 1.5H237a.75.75 0 0 1-.75-.75zM236.25 84a.75.75 0 0 1 .75-.75h123a.75.75 0 0 1 0 1.5H237a.75.75 0 0 1-.75-.75zM236.25 94a.75.75 0 0 1 .75-.75h101a.75.75 0 0 1 0 1.5H237a.75.75 0 0 1-.75-.75z" fill="#fff"/><path d="m303.653 15 1.454 2.91 3.198.465-2.326 2.269.581 3.2-2.907-1.513-2.85 1.513.523-3.2-2.326-2.27 3.257-.465L303.653 15zM315.344 15l1.454 2.91 3.199.465-2.327 2.269.582 3.2-2.908-1.513-2.85 1.513.524-3.2-2.327-2.27 3.257-.465L315.344 15zM327.032 15l1.454 2.91 3.198.465-2.326 2.269.582 3.2-2.908-1.513-2.85 1.513.523-3.2-2.326-2.27 3.257-.465L327.032 15zM338.723 15l1.454 2.91 3.198.465-2.326 2.269.582 3.2-2.908-1.513-2.85 1.513.524-3.2-2.327-2.27 3.199-.465L338.723 15zM350.411 15l1.454 2.91 3.198.465-2.326 2.269.582 3.2-2.908-1.513-2.85 1.513.524-3.2-2.327-2.27 3.199-.465L350.411 15z" fill="#FDB22B"/><path fill-rule="evenodd" clip-rule="evenodd" d="M273.377 51.01a.75.75 0 0 1 .863.617c.454 2.726 2.779 5.565 5.195 7.104a.75.75 0 1 1-.805 1.265c-2.65-1.688-5.324-4.849-5.87-8.122a.75.75 0 0 1 .617-.864zM268.794 18.984c-1.151-1.03-2.116-1.63-3.187-1.452-1.283.214-2.139.74-3.006 1.377-.141.104-.285.212-.433.324-.747.563-1.591 1.2-2.696 1.642-1.053.422-1.813.515-2.441.591-.156.02-.303.037-.445.06-.668.102-1.413.3-2.783 1.213-.891.594-1.235 1.53-1.263 2.577-.029 1.061.276 2.135.565 2.784l-1.371.61c-.357-.803-.729-2.1-.694-3.434.037-1.348.5-2.831 1.931-3.785 1.534-1.023 2.482-1.31 3.387-1.448.192-.03.372-.052.546-.074.605-.075 1.154-.143 2.011-.486.903-.361 1.567-.86 2.308-1.418.159-.12.322-.242.491-.366.947-.694 2.027-1.377 3.647-1.647 1.832-.305 3.287.788 4.434 1.814.261.234.52.477.769.712l.098.091c.282.266.554.52.825.754.548.475 1.047.833 1.534 1.027 1.303.522 2.514 1.319 3.402 2.48.893 1.168 1.424 2.661 1.424 4.507h-1.5c0-1.541-.437-2.709-1.116-3.597-.685-.896-1.651-1.55-2.767-1.997-.723-.289-1.374-.779-1.96-1.286a30.31 30.31 0 0 1-.87-.794l-.098-.093a39.642 39.642 0 0 0-.742-.686z" fill="#fff"/><path fill-rule="evenodd" clip-rule="evenodd" d="M251.5 46.738v-5.274h5.274v5.274H251.5z" fill="#6677FB"/><path fill-rule="evenodd" clip-rule="evenodd" d="M251.5 39.496v-5.274h5.274v5.274H251.5z" fill="#29DDCC"/><path fill-rule="evenodd" clip-rule="evenodd" d="M251.5 32.255V26.98h5.274v5.274H251.5z" fill="#6677FB"/><path fill-rule="evenodd" clip-rule="evenodd" d="M258.723 53.944V48.67h5.274v5.274h-5.274z" fill="#29DDCC"/><path fill-rule="evenodd" clip-rule="evenodd" d="M258.742 46.703v-5.274h5.274v5.274h-5.274z" fill="#F77779"/><path fill-rule="evenodd" clip-rule="evenodd" d="M258.742 39.46v-5.273h5.274v5.274h-5.274z" fill="#FDB22B"/><path fill-rule="evenodd" clip-rule="evenodd" d="M258.742 32.219v-5.274h5.274v5.274h-5.274z" fill="#FFF3D3"/><path fill-rule="evenodd" clip-rule="evenodd" d="M265.965 53.944V48.67h5.274v5.274h-5.274z" fill="#496EB1"/><path fill-rule="evenodd" clip-rule="evenodd" d="M265.984 46.703v-5.274h5.274v5.274h-5.274z" fill="#6677FB"/><path fill-rule="evenodd" clip-rule="evenodd" d="M265.984 39.46v-5.273h5.274v5.274h-5.274z" fill="#29DDCC"/><path fill-rule="evenodd" clip-rule="evenodd" d="M265.984 32.219v-5.274h5.274v5.274h-5.274z" fill="#F77779"/><path fill-rule="evenodd" clip-rule="evenodd" d="M273.226 46.703v-5.274h5.274v5.274h-5.274z" fill="#FDB22B"/><path fill-rule="evenodd" clip-rule="evenodd" d="M273.226 39.46v-5.273h5.274v5.274h-5.274z" fill="#6677FB"/><path fill-rule="evenodd" clip-rule="evenodd" d="M273.226 32.219v-5.274h5.274v5.274h-5.274z" fill="#496EB1"/><path fill-rule="evenodd" clip-rule="evenodd" d="M258.734 25.502v-5.274h5.274V25.5h-5.274z" fill="#6677FB"/><path fill-rule="evenodd" clip-rule="evenodd" d="M259.5 55a.75.75 0 0 1 .75.75v.285c.001 3.96.001 5.441-1.126 7.131a.75.75 0 1 1-1.248-.832c.847-1.27.874-2.242.874-6.584a.75.75 0 0 1 .75-.75z" fill="#fff"/><path fill-rule="evenodd" clip-rule="evenodd" d="M264.5 63.5c14.359 0 26-11.64 26-26s-11.641-26-26-26-26 11.64-26 26 11.641 26 26 26zm0 1.5c15.188 0 27.5-12.312 27.5-27.5S279.688 10 264.5 10 237 22.312 237 37.5 249.312 65 264.5 65z" fill="#FDB22B"/><path fill-rule="evenodd" clip-rule="evenodd" d="M110.993 162.996 127.5 174v-15h8.491c4.902 3.328 8.122 8.948 8.122 15.321 0 10.219-8.28 18.503-18.494 18.503s-18.494-8.284-18.494-18.503a18.43 18.43 0 0 1 3.868-11.325z" fill="#29DDCC"/><path fill-rule="evenodd" clip-rule="evenodd" d="M7 80.75A5.25 5.25 0 0 0 1.75 86v67A5.25 5.25 0 0 0 7 158.25h98.227l21.523 14.349V158.25H147a5.25 5.25 0 0 0 5.25-5.25V86a5.25 5.25 0 0 0-5.25-5.25H7zM.25 86A6.75 6.75 0 0 1 7 79.25h140a6.75 6.75 0 0 1 6.75 6.75v67a6.75 6.75 0 0 1-6.75 6.75h-18.75v15.651l-23.477-15.651H7A6.75 6.75 0 0 1 .25 153V86z" fill="#29DDCC"/><path d="m77.653 92 1.453 2.91 3.2.465-2.327 2.269.582 3.2-2.908-1.513-2.85 1.513.523-3.2L73 95.374l3.257-.465L77.653 92zM89.344 92l1.454 2.91 3.198.465-2.326 2.269.582 3.2-2.908-1.513-2.85 1.513.524-3.2-2.327-2.27 3.257-.465L89.344 92zM101.032 92l1.454 2.91 3.198.465-2.326 2.269.582 3.2-2.908-1.513-2.85 1.513.523-3.2-2.326-2.27 3.257-.465L101.032 92zM112.723 92l1.454 2.91 3.198.465-2.326 2.269.582 3.2-2.908-1.513-2.85 1.513.524-3.2-2.327-2.27 3.199-.465L112.723 92zM124.411 92l1.454 2.91 3.198.465-2.326 2.269.582 3.2-2.908-1.513-2.85 1.513.524-3.2-2.327-2.27 3.199-.465L124.411 92z" fill="#FDB22B"/><path fill-rule="evenodd" clip-rule="evenodd" d="M25 108.517v5.017h5.017v-5.017H25z" fill="#F77779"/><path fill-rule="evenodd" clip-rule="evenodd" d="M25 115.534v5.017h5.017v-5.017H25z" fill="#FDB22B"/><path fill-rule="evenodd" clip-rule="evenodd" d="M46.047 122.551v5.017h5.017v-5.017h-5.017z" fill="#6677FB"/><path fill-rule="evenodd" clip-rule="evenodd" d="M32 101.5v5.017h5.017V101.5H32z" fill="#FFF3D3"/><path fill-rule="evenodd" clip-rule="evenodd" d="M32.016 108.517v5.017h5.017v-5.017h-5.017z" fill="#6677FB"/><path fill-rule="evenodd" clip-rule="evenodd" d="M32.016 115.534v5.017h5.017v-5.017h-5.017z" fill="#29DDCC"/><path fill-rule="evenodd" clip-rule="evenodd" d="M32.016 122.551v5.017h5.017v-5.017h-5.017zM39.016 101.5v5.017h5.017V101.5h-5.017z" fill="#F77779"/><path fill-rule="evenodd" clip-rule="evenodd" d="M39.035 108.517v5.017h5.017v-5.017h-5.017z" fill="#FDB22B"/><path fill-rule="evenodd" clip-rule="evenodd" d="M39.035 115.534v5.017h5.017v-5.017h-5.017z" fill="#FFF3D3"/><path fill-rule="evenodd" clip-rule="evenodd" d="M39.035 122.551v5.017h5.017v-5.017h-5.017z" fill="#6677FB"/><path fill-rule="evenodd" clip-rule="evenodd" d="M46.05 108.5v5.017h5.018V108.5h-5.017z" fill="#29DDCC"/><path fill-rule="evenodd" clip-rule="evenodd" d="M46.047 115.517v5.017h5.017v-5.017h-5.017z" fill="#496EB1"/><path fill-rule="evenodd" clip-rule="evenodd" d="M27 121.75a.75.75 0 0 1 .75.75c0 .87-.482 2.793-2.22 4.53-.892.892-1.517 1.837-1.759 2.883-.238 1.031-.123 2.249.624 3.738.027.054.08.081.131.078.961-.069 2.462-.312 3.639-.9.918-.459 1.854-1.158 2.617-1.922.776-.775 1.31-1.553 1.507-2.144a.751.751 0 0 1 1.423.474c-.303.909-1.02 1.881-1.87 2.731-.86.861-1.925 1.662-3.006 2.203-1.431.715-3.157.979-4.203 1.054a1.637 1.637 0 0 1-1.579-.901c-.875-1.745-1.074-3.32-.744-4.749.327-1.414 1.15-2.596 2.16-3.605 1.462-1.463 1.78-3.006 1.78-3.47a.75.75 0 0 1 .75-.75zM45.22 128.283a.75.75 0 0 1 .497.938c-.252.819-.323 2.152.273 3.531.586 1.358 1.846 2.823 4.357 3.886.046.019.073.016.09.012a.188.188 0 0 0 .088-.055.322.322 0 0 0 .072-.317c-.347-1.155-.664-2.526-.776-3.854-.11-1.309-.032-2.679.508-3.759a.75.75 0 1 1 1.342.67c-.356.713-.458 1.75-.356 2.962.101 1.192.39 2.456.719 3.549a1.822 1.822 0 0 1-.431 1.792c-.437.451-1.135.68-1.84.381-2.825-1.196-4.393-2.919-5.15-4.672-.748-1.732-.678-3.435-.33-4.568a.75.75 0 0 1 .938-.496z" fill="#FBFBFD"/><path d="M23.089 134.089a7.124 7.124 0 0 0-3.625 2.157c-.294.329-.28.82.004 1.159C25.508 144.638 35.114 147 39.5 147c7.6-.452 14.833-5.275 17.5-7.913-1.068-.403-3.537-1.283-5.007-1.604a.62.62 0 0 0-.696.368.665.665 0 0 1-.935.31l-.362-.204-2.145-1.213c-.475-.268-1.071-.099-1.43.312-1.792 2.054-4.935 2.596-6.425 2.596-6.065-.806-9.664-3.472-11.08-5.108-.272-.314-.688-.483-1.093-.392l-1.718.389a1.022 1.022 0 0 1-.22.024h-1.555a.741.741 0 0 1-.555-.25.703.703 0 0 0-.69-.226z" fill="#29DDCC"/><path fill-rule="evenodd" clip-rule="evenodd" d="M23.25 134.811c-1.955.424-3.122 1.479-3.664 2.158a.751.751 0 0 1-1.172-.938c.716-.894 2.173-2.184 4.544-2.691a1.472 1.472 0 0 1 1.35.407.012.012 0 0 0 .007.003h1.586a.268.268 0 0 0 .049-.005l1.785-.357c.67-.134 1.3.139 1.714.562 1.274 1.307 4.696 3.596 10.594 4.3a11.083 11.083 0 0 0 2.859-.441c1.134-.33 2.235-.86 3.005-1.649.523-.535 1.408-.841 2.218-.436l2.542 1.271c.281-.476.836-.771 1.43-.658 1.52.289 4.067 1.094 5.14 1.451a.75.75 0 0 1-.474 1.424c-1.056-.352-3.42-1.097-4.843-1.381-.37.634-1.175.88-1.841.547l-2.625-1.312c-.092-.046-.292-.044-.474.142-1.018 1.044-2.391 1.672-3.658 2.041-1.273.371-2.508.501-3.322.501h-.044l-.044-.005c-6.226-.733-9.992-3.164-11.537-4.747-.125-.128-.26-.156-.346-.139l-1.785.357a1.72 1.72 0 0 1-.343.034h-1.586c-.399 0-.781-.158-1.064-.439z" fill="#FBFBFD"/><path fill-rule="evenodd" clip-rule="evenodd" d="M72.25 113a.75.75 0 0 1 .75-.75h42.5a.75.75 0 0 1 0 1.5H73a.75.75 0 0 1-.75-.75zM72.25 133a.75.75 0 0 1 .75-.75h61a.75.75 0 0 1 0 1.5H73a.75.75 0 0 1-.75-.75zM72.25 123a.75.75 0 0 1 .75-.75h65a.75.75 0 0 1 0 1.5H73a.75.75 0 0 1-.75-.75zM72.25 143a.75.75 0 0 1 .75-.75h70a.75.75 0 0 1 0 1.5H73a.75.75 0 0 1-.75-.75z" fill="#fff"/><path fill-rule="evenodd" clip-rule="evenodd" d="M38.5 145.5c14.36 0 26-11.641 26-26s-11.64-26-26-26-26 11.641-26 26 11.64 26 26 26zm0 1.5c15.188 0 27.5-12.312 27.5-27.5S53.688 92 38.5 92 11 104.312 11 119.5 23.312 147 38.5 147z" fill="#29DDCC"/><path fill-rule="evenodd" clip-rule="evenodd" d="M218.073 301.302 225 291h-12.947a13.277 13.277 0 0 1-.014-.6c0-7.102 5.754-12.859 12.853-12.859 7.098 0 12.852 5.757 12.852 12.859 0 7.101-5.754 12.858-12.852 12.858-2.505 0-4.843-.716-6.819-1.956z" fill="#F77779"/><path fill-rule="evenodd" clip-rule="evenodd" d="M65 254.75a5.25 5.25 0 0 0-5.25 5.25v106a5.25 5.25 0 0 0 5.25 5.25h138a5.25 5.25 0 0 0 5.25-5.25v-51.434l15.342-22.816H208.25V260a5.25 5.25 0 0 0-5.25-5.25H65zM58.25 260a6.75 6.75 0 0 1 6.75-6.75h138a6.75 6.75 0 0 1 6.75 6.75v30.25h16.658l-16.658 24.774V366a6.75 6.75 0 0 1-6.75 6.75H65a6.75 6.75 0 0 1-6.75-6.75V260z" fill="#F77779"/><path fill-rule="evenodd" clip-rule="evenodd" d="M134.25 288a.75.75 0 0 1 .75-.75h43a.75.75 0 0 1 0 1.5h-43a.75.75 0 0 1-.75-.75zM134.25 298a.75.75 0 0 1 .75-.75h47a.75.75 0 0 1 0 1.5h-47a.75.75 0 0 1-.75-.75zM134.25 308a.75.75 0 0 1 .75-.75h60a.75.75 0 0 1 0 1.5h-60a.75.75 0 0 1-.75-.75zM134.25 318a.75.75 0 0 1 .75-.75h58a.75.75 0 0 1 0 1.5h-58a.75.75 0 0 1-.75-.75zM72.25 328a.75.75 0 0 1 .75-.75h113a.75.75 0 0 1 0 1.5H73a.75.75 0 0 1-.75-.75zM72.25 338a.75.75 0 0 1 .75-.75h123a.75.75 0 0 1 0 1.5H73a.75.75 0 0 1-.75-.75zM72.25 348a.75.75 0 0 1 .75-.75h101a.75.75 0 0 1 0 1.5H73a.75.75 0 0 1-.75-.75zM72.25 358a.75.75 0 0 1 .75-.75h109a.75.75 0 0 1 0 1.5H73a.75.75 0 0 1-.75-.75z" fill="#fff"/><path d="m139.653 269 1.454 2.909 3.198.466-2.326 2.269.581 3.2-2.907-1.513-2.85 1.513.523-3.2-2.326-2.269 3.257-.466 1.396-2.909zM151.344 269l1.454 2.909 3.199.466-2.327 2.269.582 3.2-2.908-1.513-2.85 1.513.524-3.2-2.327-2.269 3.257-.466 1.396-2.909zM163.032 269l1.454 2.909 3.198.466-2.326 2.269.582 3.2-2.908-1.513-2.85 1.513.523-3.2-2.326-2.269 3.257-.466 1.396-2.909zM174.723 269l1.454 2.909 3.198.466-2.326 2.269.582 3.2-2.908-1.513-2.85 1.513.524-3.2-2.327-2.269 3.199-.466 1.454-2.909zM186.411 269l1.454 2.909 3.198.466-2.326 2.269.582 3.2-2.908-1.513-2.85 1.513.524-3.2-2.327-2.269 3.199-.466 1.454-2.909z" fill="#FDB22B"/><path fill-rule="evenodd" clip-rule="evenodd" d="M102.034 271.517c-.582.202-1.258.428-2.04.559-.77.128-1.356.135-1.853.061a4.773 4.773 0 0 1-1.15-.337l-.014-.006c-.297-.118-.522-.206-.828-.251-.306-.046-.73-.052-1.387.057-.873.145-1.41.646-1.752 1.256a3.945 3.945 0 0 0-.475 1.809.75.75 0 1 1-1.5 0c0-.657.164-1.644.666-2.542.516-.921 1.404-1.768 2.815-2.003.77-.128 1.357-.135 1.853-.061.489.072.854.218 1.15.337l.015.006c.296.118.521.206.827.251.306.046.73.052 1.387-.057.646-.108 1.219-.297 1.795-.497l.135-.046c.519-.181 1.075-.374 1.637-.468a3.861 3.861 0 0 1 2.035.178c.712.265 1.425.756 2.187 1.518 1.926 1.927 2.712 3.206 3.304 4.169.131.213.252.41.374.595a.75.75 0 1 1-1.253.824c-.137-.208-.267-.42-.404-.642-.586-.952-1.287-2.09-3.082-3.885-.665-.665-1.201-1.006-1.649-1.173a2.357 2.357 0 0 0-1.265-.104c-.431.072-.87.224-1.422.415l-.106.037zM112.979 298.222a.75.75 0 0 1 .439.966c-.739 1.972-2.259 4.89-4.441 7.282-2.177 2.386-5.115 4.353-8.673 4.144-3.533-.208-6.056-2.25-7.748-4.618-1.687-2.359-2.602-5.108-2.935-6.937a.75.75 0 0 1 1.476-.269c.302 1.659 1.146 4.19 2.679 6.334 1.526 2.135 3.68 3.82 6.616 3.992 2.912.172 5.444-1.429 7.477-3.657 2.027-2.222 3.457-4.964 4.144-6.798a.75.75 0 0 1 .966-.439z" fill="#fff"/><path fill-rule="evenodd" clip-rule="evenodd" d="M111.43 301.031a.75.75 0 0 1 .68.814c-.07.779-.113 2.096-.01 3.479.104 1.4.352 2.781.815 3.738a.75.75 0 1 1-1.35.654c-.589-1.217-.853-2.827-.961-4.281a24.376 24.376 0 0 1 .012-3.724.75.75 0 0 1 .814-.68z" fill="#fff"/><path d="M91.255 314.543c.934-2.314 3.745-4.704 5.127-5.369.296-.143.627-.031.852.208l.372.395c.103.11.182.241.22.387.732 2.803-1.026 6.376-2.324 6.836-1.332.472-5.579.846-4.246-2.457zM108.909 315.097c2.664-1.141 3.33-3.964 3.33-5.232l-.378-3.773c-.054-.545.344-1.042.89-1.003 3.789.27 6.548 4.412 5.671 5.727-.951 1.427-4.281 2.854-6.659 4.281-1.662.997-3.928 1.583-5.215 1.821-.309.058-.538-.121-.312-.339.329-.318 1.095-.805 2.673-1.482z" fill="#F77779"/><path fill-rule="evenodd" clip-rule="evenodd" d="M107.012 310.826h-4.627v-4.627h4.627v4.627z" fill="#6677FB"/><path fill-rule="evenodd" clip-rule="evenodd" d="M106.981 304.15h-4.627v-4.627h4.627v4.627z" fill="#F77779"/><path fill-rule="evenodd" clip-rule="evenodd" d="M100.305 304.15h-4.627v-4.627h4.627v4.627z" fill="#FDB22B"/><path fill-rule="evenodd" clip-rule="evenodd" d="M113.656 297.49h-4.627v-4.627h4.627v4.627z" fill="#6677FB"/><path fill-rule="evenodd" clip-rule="evenodd" d="M106.981 297.474h-4.627v-4.627h4.627v4.627z" fill="#496EB1"/><path fill-rule="evenodd" clip-rule="evenodd" d="M100.305 297.474h-4.627v-4.627h4.627v4.627z" fill="#29DDCC"/><path fill-rule="evenodd" clip-rule="evenodd" d="M93.63 297.474h-4.628v-4.627h4.627v4.627zM113.656 290.815h-4.627v-4.627h4.627v4.627z" fill="#F77779"/><path fill-rule="evenodd" clip-rule="evenodd" d="M106.981 290.798h-4.627v-4.627h4.627v4.627z" fill="#FDB22B"/><path fill-rule="evenodd" clip-rule="evenodd" d="M100.305 290.798h-4.627v-4.627h4.627v4.627z" fill="#FFF3D3"/><path fill-rule="evenodd" clip-rule="evenodd" d="M93.63 290.798h-4.628v-4.627h4.627v4.627z" fill="#6677FB"/><path fill-rule="evenodd" clip-rule="evenodd" d="M106.997 284.122h-4.627v-4.627h4.627v4.627z" fill="#29DDCC"/><path fill-rule="evenodd" clip-rule="evenodd" d="M100.32 284.122h-4.627v-4.627h4.627v4.627z" fill="#6677FB"/><path fill-rule="evenodd" clip-rule="evenodd" d="M94.875 280.612a.75.75 0 0 1-.475.949c-2.07.69-3.465 2.32-3.875 3.004a.75.75 0 0 1-1.286-.772c.541-.902 2.19-2.823 4.687-3.655a.75.75 0 0 1 .949.474z" fill="#fff"/><path fill-rule="evenodd" clip-rule="evenodd" d="M104.723 275.632c-3.628-.702-7-.813-9.05-.585-2.06.229-4.692.917-6.963 2.223-2.268 1.304-4.111 3.182-4.76 5.775-.51 2.042.013 3.9.917 5.43.91 1.54 2.183 2.697 3.053 3.277a.751.751 0 0 1-.832 1.249c-1.033-.689-2.472-2.004-3.512-3.763-1.046-1.768-1.712-4.032-1.08-6.557.778-3.115 2.978-5.28 5.467-6.711 2.485-1.43 5.325-2.168 7.544-2.414 2.231-.248 5.757-.121 9.501.603 3.744.725 7.779 2.061 10.987 4.282 3.276 2.268 4.624 5.242 4.424 8.043-.198 2.777-1.914 5.263-4.515 6.563a.75.75 0 1 1-.671-1.341c2.156-1.078 3.532-3.111 3.69-5.329.157-2.193-.873-4.689-3.781-6.703-2.976-2.06-6.79-3.34-10.419-4.042z" fill="#fff"/><path fill-rule="evenodd" clip-rule="evenodd" d="M100.5 317.5c14.359 0 26-11.641 26-26s-11.641-26-26-26c-14.36 0-26 11.641-26 26s11.64 26 26 26zm0 1.5c15.188 0 27.5-12.312 27.5-27.5S115.688 264 100.5 264 73 276.312 73 291.5 85.312 319 100.5 319z" fill="#F77779"/><path fill-rule="evenodd" clip-rule="evenodd" d="M96.84 309.797c-.065-.065-.125-.067-.148-.061a5.732 5.732 0 0 0-2.473 1.26c-.92.791-1.876 2.081-2.499 4.214a.75.75 0 0 1-1.44-.42c.698-2.387 1.802-3.935 2.962-4.932a7.252 7.252 0 0 1 3.118-1.585 1.661 1.661 0 0 1 1.54.464l.431.431c.188.187.347.43.428.721.451 1.613.14 3.289-.446 4.601a6.917 6.917 0 0 1-1.08 1.722c-.4.456-.882.849-1.406 1.024a.75.75 0 0 1-.474-1.423c.17-.057.44-.234.751-.59.301-.343.598-.805.84-1.345.485-1.088.703-2.398.37-3.585a.167.167 0 0 0-.043-.065l-.43-.431zM111.116 306.167c-.091-.91.585-1.905 1.689-1.826 2.149.153 3.958 1.393 5.102 2.732.575.673 1.012 1.405 1.243 2.092.218.647.313 1.443-.103 2.067a.75.75 0 1 1-1.248-.832c.022-.033.101-.247-.07-.756-.158-.468-.483-1.035-.962-1.596-.964-1.129-2.429-2.094-4.068-2.211-.015-.001-.021.001-.023.002-.004.002-.014.007-.025.021a.211.211 0 0 0-.043.158l.381 3.81v.037c0 1.409-.723 4.61-3.784 5.922-1.312.562-1.995.968-2.319 1.221l-.085.07a.75.75 0 0 1-1.276.452c-.38-.38-.249-.859-.125-1.089.124-.231.331-.434.562-.614.477-.373 1.3-.84 2.652-1.419 2.243-.961 2.862-3.364 2.875-4.508l-.373-3.733z" fill="#fff"/><path fill-rule="evenodd" clip-rule="evenodd" d="M687 366.5h13.5l-8.25-10.702a13.4 13.4 0 0 1 8.217-2.798c7.437 0 13.466 6.032 13.466 13.473 0 7.441-6.029 13.473-13.466 13.473-7.429 0-13.452-6.018-13.467-13.446z" fill="#496EB1"/><path fill-rule="evenodd" clip-rule="evenodd" d="M548 295.75a5.25 5.25 0 0 0-5.25 5.25v97a5.25 5.25 0 0 0 5.25 5.25h131a5.25 5.25 0 0 0 5.25-5.25v-32.25h14.725l-14.725-19.103V301a5.25 5.25 0 0 0-5.25-5.25H548zm-6.75 5.25a6.75 6.75 0 0 1 6.75-6.75h131a6.75 6.75 0 0 1 6.75 6.75v45.136l16.275 21.114H685.75V398a6.75 6.75 0 0 1-6.75 6.75H548a6.75 6.75 0 0 1-6.75-6.75v-97z" fill="#496EB1"/><path fill-rule="evenodd" clip-rule="evenodd" d="M614.25 340a.75.75 0 0 1 .75-.75h47a.75.75 0 0 1 0 1.5h-47a.75.75 0 0 1-.75-.75zM614.25 350a.75.75 0 0 1 .75-.75h60a.75.75 0 0 1 0 1.5h-60a.75.75 0 0 1-.75-.75zM614.25 331a.75.75 0 0 1 .75-.75h60a.75.75 0 0 1 0 1.5h-60a.75.75 0 0 1-.75-.75zM614.25 360a.75.75 0 0 1 .75-.75h58a.75.75 0 0 1 0 1.5h-58a.75.75 0 0 1-.75-.75zM552.25 370a.75.75 0 0 1 .75-.75h116a.75.75 0 0 1 0 1.5H553a.75.75 0 0 1-.75-.75zM552.25 380a.75.75 0 0 1 .75-.75h101a.75.75 0 0 1 0 1.5H553a.75.75 0 0 1-.75-.75zM552.25 390a.75.75 0 0 1 .75-.75h109a.75.75 0 0 1 0 1.5H553a.75.75 0 0 1-.75-.75z" fill="#fff"/><path d="m617.653 311 1.454 2.909 3.198.466-2.326 2.269.581 3.2-2.907-1.513-2.85 1.513.523-3.2-2.326-2.269 3.257-.466 1.396-2.909zM629.344 311l1.454 2.909 3.199.466-2.327 2.269.582 3.2-2.908-1.513-2.85 1.513.524-3.2-2.327-2.269 3.257-.466 1.396-2.909zM641.032 311l1.454 2.909 3.198.466-2.326 2.269.582 3.2-2.908-1.513-2.85 1.513.523-3.2-2.326-2.269 3.257-.466 1.396-2.909zM652.723 311l1.454 2.909 3.198.466-2.326 2.269.582 3.2-2.908-1.513-2.85 1.513.524-3.2-2.327-2.269 3.199-.466 1.454-2.909zM664.411 311l1.454 2.909 3.198.466-2.326 2.269.582 3.2-2.908-1.513-2.85 1.513.524-3.2-2.327-2.269 3.199-.466 1.454-2.909z" fill="#FDB22B"/><path d="m560.5 353.5 6-2c1.2 2.8 5.833 6.833 7.5 8-5.2 0-11.667-4.167-13.5-6z" fill="#496EB1"/><path fill-rule="evenodd" clip-rule="evenodd" d="M582.925 348.754a.75.75 0 0 1 .821.671c.152 1.518 1.305 5.079 4.618 6.919a.75.75 0 0 1-.728 1.312c-3.887-2.16-5.201-6.265-5.382-8.081a.75.75 0 0 1 .671-.821z" fill="#fff"/><path fill-rule="evenodd" clip-rule="evenodd" d="M578.5 359.5c14.359 0 26-11.641 26-26s-11.641-26-26-26-26 11.641-26 26 11.641 26 26 26zm0 1.5c15.188 0 27.5-12.312 27.5-27.5S593.688 306 578.5 306 551 318.312 551 333.5s12.312 27.5 27.5 27.5z" fill="#496EB1"/><path fill-rule="evenodd" clip-rule="evenodd" d="M567.853 342.265a.749.749 0 0 1 .882.588c.182.906.311 2.407.136 4.051-.161 1.513-.585 3.201-1.512 4.663.587 1.162 1.616 2.396 2.744 3.513a27.586 27.586 0 0 0 3.327 2.806.75.75 0 1 1-.86 1.228 28.844 28.844 0 0 1-3.523-2.969c-1.121-1.11-2.246-2.422-2.952-3.757l-4.898 1.336a.75.75 0 0 1-.394-1.448l5.234-1.427c.799-1.219 1.192-2.696 1.342-4.103.159-1.49.038-2.838-.114-3.599a.749.749 0 0 1 .588-.882zM448.896 88.462c-4.444.054-8.691.696-11.229 1.27-3.17.73-8.288 2.598-13.247 5.81-4.96 3.212-9.706 7.733-12.228 13.748-1.581 3.769-1.895 6.879-1.505 9.416.389 2.538 1.491 4.553 2.822 6.121 1.335 1.573 2.9 2.692 4.194 3.417.646.363 1.217.623 1.649.79.217.084.392.143.52.179.105.029.15.036.152.037.17.002.343.017.526.033.55.048 1.187.105 2.097-.185 1.182-.376 2.811-1.378 4.746-4.039 2.098-2.884 4.749-4.496 7.127-5.04 2.31-.528 4.622-.072 5.623 1.595.73 1.216 1.116 1.523 1.551 1.681.256.094.571.148 1.064.211l.33.041c.422.051.933.113 1.535.213.904.151 1.597.547 2.04 1.16.433.601.561 1.318.523 1.997-.074 1.33-.791 2.749-1.656 3.613-1.228 1.228-2.856 2.209-3.609 2.597-1.562 1.364-2.247 2.832-2.914 4.469l-.188.464c-.619 1.539-1.302 3.24-2.75 4.928-2.729 3.184-5.964 2.985-8.563 2.826a24.98 24.98 0 0 0-1.506-.064h-9.534l-.034-.003c-5.169-.47-9.888 2.343-12.261 7.088-2.612 5.224-6.799 7.317-8.826 8.331l-.01.005c-.6.3-1.35.472-2.088.626l-.425.087c-.64.13-1.304.266-1.991.462-1.656.473-3.362 1.279-4.731 3.104-.679.905-.693 1.41-.607 1.708.107.364.437.719 1.034 1.191.118.093.247.191.384.294.478.363 1.042.79 1.47 1.273.596.672 1.026 1.54.861 2.69-.156 1.098-.808 2.081-1.623 2.929-.823.857-1.877 1.643-2.962 2.345-1.088.704-2.235 1.341-3.255 1.89l-.787.421c-.693.37-1.284.685-1.729.952-.493.296-1.171.978-1.842 1.936-.66.941-1.265 2.08-1.645 3.221-.384 1.152-.516 2.235-.317 3.102.189.82.679 1.495 1.696 1.902 3.599 1.439 6.957-.6 8.192-1.834l.007-.008.007-.007a90.696 90.696 0 0 1 7.201-6.078c2.884-2.179 6.052-4.246 8.578-5.089 6.272-2.09 14.156-.027 17.87 5.809 3.279 5.153 10.92 7.649 19.825 7.154 4.279-.238 7.365-2.008 10.08-4.662 2.167-2.119 4.062-4.761 6.129-7.642.561-.781 1.134-1.58 1.728-2.391 2.832-3.861 5.843-5.855 8.916-6.657 3.055-.797 6.077-.389 8.886.377 3.059.834 5.452 3.695 6.567 6.646 1.098 2.907 1.102 6.366-1.314 8.178-2.04 1.53-4.549 1.971-7.124 2.424l-.507.089c-2.801.498-5.805 1.105-8.926 3.026-1.253.771-1.864 1.417-2.118 1.902-.225.431-.18.746-.013 1.034.196.339.596.686 1.161 1.001a7.903 7.903 0 0 0 1.7.68c1.489.097 3.7.517 5.627 1.486 1.958.986 3.763 2.623 3.997 5.19.145 1.597-.372 2.876-1.329 3.851-.929.947-2.236 1.573-3.639 1.997-2.803.848-6.276.97-8.779.97-5.017 0-15.943.002-23.862 1.487-4.025.755-7.193.915-9.829-.031-2.676-.961-4.671-3.01-6.469-6.35-1.614-2.997-4.509-4.649-7.86-5.308-3.358-.659-7.106-.301-10.26.669-3.322 1.022-5.64 1.281-7.949 1.345-.787.022-1.554.022-2.349.022-1.557-.001-3.223-.001-5.365.164-1.606.123-2.615.305-3.335.572-.687.255-1.136.598-1.601 1.118-.325.363-.632.78-1.021 1.308-.218.295-.46.624-.746.998a36.594 36.594 0 0 1-3.324 3.786c-4.772 4.772-9.618 10.614-11.44 12.933l-1.18-.926c1.844-2.348 6.731-8.239 11.56-13.067a35.297 35.297 0 0 0 3.192-3.636c.238-.313.461-.614.671-.899.423-.573.799-1.083 1.17-1.498.598-.668 1.243-1.169 2.197-1.523.921-.342 2.099-.535 3.742-.662 2.193-.168 3.972-.169 5.563-.169.778 0 1.51 0 2.224-.02 2.191-.061 4.373-.302 7.55-1.28 3.347-1.03 7.349-1.422 10.99-.706 3.65.716 7.005 2.564 8.891 6.067 1.702 3.16 3.457 4.861 5.656 5.65 2.239.804 5.07.714 9.046-.031 8.068-1.513 19.119-1.513 24.114-1.513h.024c2.496 0 5.773-.128 8.345-.905 1.286-.389 2.322-.919 3.002-1.613.653-.665 1.011-1.512.906-2.664-.167-1.833-1.445-3.113-3.178-3.986-1.731-.871-3.775-1.254-5.119-1.333l-.076-.005-.073-.019a9.414 9.414 0 0 1-2.114-.839c-.67-.373-1.339-.884-1.73-1.561-.421-.728-.482-1.589-.017-2.479.437-.835 1.314-1.656 2.661-2.485 3.379-2.079 6.624-2.722 9.449-3.225l.389-.068c2.693-.477 4.862-.861 6.605-2.168 1.584-1.188 1.838-3.729.811-6.448-1.01-2.674-3.117-5.063-5.558-5.729-2.691-.733-5.419-1.075-8.114-.372-2.678.698-5.416 2.454-8.084 6.092-.568.775-1.124 1.55-1.674 2.317-2.078 2.898-4.074 5.682-6.344 7.901-2.911 2.846-6.324 4.826-11.046 5.088-9.094.505-17.453-2-21.174-7.846-3.286-5.164-10.402-7.101-16.13-5.191-2.274.757-5.273 2.69-8.148 4.861a89.144 89.144 0 0 0-7.066 5.965c-1.439 1.433-5.408 3.916-9.802 2.158-1.482-.593-2.304-1.668-2.601-2.958-.285-1.242-.073-2.627.356-3.913.432-1.296 1.108-2.564 1.839-3.607.72-1.027 1.542-1.907 2.299-2.361.48-.288 1.122-.63 1.829-1.008.243-.129.494-.263.748-.4 1.011-.545 2.115-1.158 3.151-1.829 1.041-.673 1.987-1.387 2.695-2.124.716-.745 1.127-1.45 1.22-2.102.086-.6-.109-1.044-.498-1.482-.321-.362-.717-.663-1.168-1.006-.158-.12-.323-.245-.493-.38-.591-.466-1.292-1.079-1.545-1.949-.272-.937.026-1.932.847-3.027 1.631-2.175 3.674-3.119 5.519-3.646a27.817 27.817 0 0 1 2.122-.494l.4-.082c.761-.158 1.323-.299 1.723-.499 1.977-.988 5.781-2.896 8.165-7.664 2.622-5.244 7.887-8.429 13.704-7.915H426c.608 0 1.206.033 1.795.065 2.554.138 4.932.268 7.135-2.303 1.28-1.493 1.877-2.974 2.502-4.524l.186-.458c.698-1.715 1.503-3.479 3.394-5.099l.07-.06.082-.042c.625-.312 2.182-1.236 3.306-2.359.635-.635 1.167-1.717 1.219-2.637.024-.446-.067-.791-.242-1.034-.167-.231-.474-.46-1.07-.559-.567-.095-1.035-.151-1.454-.202l-.354-.044c-.491-.062-.957-.132-1.388-.289-.941-.342-1.554-1.035-2.324-2.319-.5-.832-1.937-1.377-4.002-.905-1.997.457-4.346 1.844-6.249 4.46-2.064 2.839-3.935 4.087-5.504 4.586-1.249.398-2.327.293-2.846.243a2.84 2.84 0 0 0-.256-.02 2.09 2.09 0 0 1-.536-.094 7.652 7.652 0 0 1-.654-.223 14.87 14.87 0 0 1-1.841-.88c-1.409-.79-3.126-2.015-4.603-3.755-1.482-1.745-2.724-4.01-3.162-6.864-.438-2.854-.065-6.243 1.604-10.224 2.678-6.385 7.682-11.115 12.797-14.427 5.114-3.313 10.396-5.245 13.726-6.014h.004c2.628-.594 6.981-1.252 11.543-1.307 4.541-.054 9.403.485 12.973 2.375 1.087.575 1.889 1.1 2.447 1.6.552.496.931 1.027 1.035 1.622.108.622-.112 1.152-.411 1.569-.287.401-.69.759-1.067 1.073-.132.11-.261.215-.387.317-.261.213-.513.417-.761.643-.358.325-.648.642-.843.971a1.776 1.776 0 0 0-.271 1.011c.016.372.154.848.54 1.454.735 1.156 1.798 1.712 3.083 1.869 1.315.161 2.852-.102 4.426-.616 3.148-1.03 6.194-2.98 7.389-3.936.394-.314.834-.75 1.338-1.248 2.419-2.391 6.284-6.213 13.269-4.903l-.276 1.474c-6.131-1.15-9.338 1.981-11.781 4.366-.57.556-1.098 1.071-1.613 1.483-1.305 1.044-4.508 3.093-7.86 4.189-1.676.548-3.452.879-5.074.68-1.653-.202-3.152-.958-4.167-2.552-.489-.769-.742-1.497-.773-2.194a3.273 3.273 0 0 1 .479-1.841c.305-.515.719-.948 1.126-1.318.279-.253.585-.502.862-.727.118-.096.231-.188.334-.274.373-.311.642-.563.808-.794.154-.216.168-.343.152-.44-.022-.123-.127-.373-.559-.76-.427-.384-1.109-.843-2.147-1.392-3.231-1.71-7.784-2.254-12.253-2.2z" fill="#fff"/><path fill-rule="evenodd" clip-rule="evenodd" d="m738.709 16.78 11.95 2.987c5.392 1 8.207 2.15 9.652 3.497 1.453 1.353 1.446 2.838 1.44 4.019l-.001.217c0 .607-.124 1.155-.428 1.656-.298.489-.734.875-1.26 1.22-.818.539-2.01 1.074-3.566 1.772-.375.168-.77.346-1.186.535-1.477.671-2.177 1.775-2.426 3.19-.258 1.469-.026 3.263.433 5.198.316 1.332.722 2.668 1.117 3.969.179.592.357 1.176.522 1.75.511 1.766.934 3.495.789 4.793-.281 2.533-1.959 4.693-4.292 6.9-1.407 1.33-3.132 2.747-5.038 4.313-1.244 1.022-2.566 2.107-3.927 3.273-2.611 2.239-3.98 5.707-4.599 9.236-.618 3.517-.47 6.984-.148 9.08.506 3.289.866 8.22.276 12.31-.294 2.037-.834 3.946-1.774 5.339-.967 1.433-2.378 2.334-4.29 2.215-2.093-.131-3.734-.66-4.928-1.637-1.206-.987-1.868-2.357-2.14-3.989-.532-3.191.4-7.601 1.894-12.83 1.491-5.22 1.696-8.317 1.24-10.313-.439-1.92-1.508-2.904-2.935-3.856-.63-.42-1.175-.543-1.682-.488-.524.058-1.098.317-1.752.83-1.334 1.043-2.772 2.945-4.536 5.464-.912 1.303-1.811 2.243-2.806 2.966-.994.722-2.051 1.204-3.247 1.624-.853.3-1.805.577-2.863.885-.404.117-.823.24-1.258.368a70.905 70.905 0 0 0-5.668 1.926c-2.218.862-3.499 1.606-4.278 2.287-.749.656-1.059 1.276-1.277 1.985-.088.284-.16.59-.239.917-.337 1.416-.775 3.254-2.923 5.616-2.48 2.728-3.084 4.567-2.651 5.961.222.717.746 1.43 1.653 2.163.908.733 2.158 1.453 3.757 2.191 6.726 3.104 10.436 8.347 10.436 15.181 0 3.266-.126 7.912-.502 12.561-.376 4.635-1.006 9.328-2.031 12.66-1.622 5.272-4.385 10.626-5.569 12.657l-.036.062-.048.054c-1.04 1.189-2.965 4.811-1.836 9.324.292 1.169.644 2.245.992 3.261l.225.651c.268.774.528 1.523.736 2.234.534 1.821.799 3.593.002 5.346-.459 1.009-1.443 2.347-2.951 2.752-1.605.43-3.424-.279-5.313-2.587-2.262-2.765-4.421-5.157-6.524-6.331-1.033-.576-1.999-.827-2.925-.723-.919.103-1.898.567-2.94 1.609-.365.365-.649.929-.824 1.727-.174.795-.227 1.776-.168 2.915.118 2.279.681 5.078 1.498 8.068 1.632 5.971 4.241 12.559 6.152 16.961l.02.045.013.048c.525 1.837.961 4.909.6 8.249-.362 3.344-1.529 7.014-4.271 9.967-3.158 3.4-7.007 4.128-10.272 4.744l-.883.169c-1.752.344-3.253.716-4.468 1.472-1.176.731-2.131 1.855-2.708 3.817-.552 1.878-.155 3.673.776 5.484.908 1.766 2.284 3.47 3.684 5.204l.155.191c1.421 1.762 2.87 3.579 3.653 5.42.806 1.895.935 3.886-.356 5.895-1.174 1.825-2.418 3.025-3.766 3.734-1.355.713-2.752.897-4.168.796-1.401-.101-2.844-.482-4.3-.912a123.17 123.17 0 0 1-1.05-.316c-1.138-.345-2.296-.696-3.516-.977-1.571-.363-2.292-.169-2.642.12-.362.3-.596.917-.627 2.106-.028 1.082.114 2.426.282 4.015l.035.332c.179 1.712.371 3.653.371 5.696 0 2.02-.125 3.523-.371 4.59-.232 1.011-.626 1.869-1.377 2.216-.802.37-1.602-.012-2.184-.433-.618-.448-1.261-1.133-1.894-1.893-1.278-1.534-2.706-3.478-3.809-6.267-1.102-2.787-1.865-6.382-1.865-11.213 0-4.666-.861-7.632-2.13-9.593-1.259-1.946-2.976-2.99-4.883-3.705-.941-.353-1.767-.531-2.573-.693a11.855 11.855 0 0 0-.183-.037c-.736-.148-1.489-.299-2.244-.582-1.7-.638-3.311-1.899-5.361-4.974-.957-1.436-1.9-2.324-2.862-2.809-.947-.477-1.979-.595-3.189-.37-2.499.465-5.616 2.357-9.893 5.376-6.537 4.614-8.182 12.208-8.182 15.387 0 2.804-.431 7.025-1.747 10.573-1.299 3.503-3.601 6.677-7.503 6.677-2.509 0-4.58-1.77-6.305-4.278-1.744-2.534-3.27-6.014-4.651-9.843-1.384-3.837-2.64-8.077-3.827-12.154l-.345-1.187c-1.063-3.656-2.072-7.129-3.081-10.043-1.096-3.165-2.474-5.296-4.061-6.737-1.582-1.436-3.417-2.231-5.502-2.648-2.099-.42-4.434-.454-7.002-.376-.87.026-1.771.066-2.695.106-1.773.078-3.634.16-5.531.16-5.909 0-10.779-1.8-14.719-3.834-1.967-1.015-3.709-2.092-5.222-3.028-1.532-.948-2.796-1.728-3.864-2.203-1.036-.46-1.884-.57-2.503-.468-.597.098-.992.392-1.215.819-.235.447-.329 1.139-.099 2.093.228.95.769 2.111 1.729 3.43 1.486 2.044 3.217 3 4.968 3.618.759.268 1.512.47 2.269.672l.395.106c.875.237 1.761.491 2.573.863 3.065 1.405 4.782 2.997 5.321 4.804.546 1.83-.196 3.597-1.344 5.138-1.154 1.55-2.828 3.022-4.451 4.332-.642.517-1.268 1.005-1.86 1.465-.943.733-1.797 1.397-2.48 2.004-1.054.936-1.792 1.937-2.454 2.963-.21.327-.42.668-.632 1.014-.433.706-.878 1.431-1.372 2.096-.763 1.028-1.692 1.994-3.038 2.799-1.341.801-3.06 1.42-5.379 1.807-2.493.415-4.842-.358-6.959-1.8-2.11-1.436-4.03-3.561-5.714-5.945-3.369-4.768-5.899-10.719-7.166-14.771-1.241-3.973-2.45-6.211-3.515-7.332-.524-.551-.977-.796-1.348-.879-.36-.081-.715-.027-1.086.158-.711.355-1.355 1.335-1.463 2.522-.103 1.137.301 2.354 1.544 3.183 1.416.944 2.113 2.272 2.587 4.167.352 1.411.601 3.227.918 5.543.099.72.204 1.488.321 2.308.099.692.161 1.329.219 1.931.017.177.033.35.051.521.077.762.167 1.501.346 2.329.356 1.649 1.076 3.708 2.805 6.974 2.139 4.041 5.466 6.197 8.941 7.66 1.651.695 3.32 1.227 4.912 1.735l.267.085c1.652.528 3.241 1.045 4.552 1.7 1.373.687 2.287 1.595 2.728 2.795.431 1.172.37 2.51.044 3.976-.327 1.471-.941 3.16-1.708 5.077-.359.898-.756 1.856-1.176 2.872l-.091.217a303.243 303.243 0 0 0-1.436 3.513c-2.038 5.096-3.984 7.337-5.917 8.871-.474.376-.94.704-1.39 1.013l-.277.191c-.353.243-.694.476-1.035.727-.845.621-1.664 1.324-2.485 2.379-1.57 2.018-1.712 4.149-1.349 6.749.137.987.343 2.011.564 3.113.074.37.15.748.226 1.136.299 1.533.587 3.193.715 4.989.218 3.045-1.141 6.092-2.898 8.923-1.123 1.81-2.472 3.623-3.743 5.331a122.25 122.25 0 0 0-1.968 2.694c-3.184 5.862-11.113 19.818-17.523 29.033-1.785 2.566-3.192 4.904-4.473 7.031l-.423.702c-1.388 2.3-2.665 4.363-4.145 6.133-3.011 3.601-6.815 5.926-13.969 6.948-5.81.83-9.948-.813-12.739-3.266-2.763-2.43-4.159-5.611-4.602-7.829-.994-4.969-4.184-18.026-8.964-30.376-2.42-6.252-3.441-11.031-3.724-14.485-.141-1.727-.098-3.13.052-4.225.147-1.08.404-1.908.728-2.447l.004-.007c1.105-1.795 2.142-7.974-4.942-16.632-4.559-5.573-5.685-9.257-5.48-12.337.101-1.511.521-2.827.918-4.049l.027-.084c.393-1.209.756-2.325.869-3.573.119-1.314.021-2.369-.301-3.178-.312-.782-.846-1.371-1.7-1.759-.879-.4-2.135-.602-3.89-.504-1.749.098-3.944.49-6.665 1.232-8.784 2.396-13.595 4.314-14.862 4.948l-.67-1.342c1.399-.7 6.322-2.649 15.138-5.053 2.779-.758 5.084-1.177 6.975-1.283 1.886-.105 3.412.099 4.595.637 1.208.549 2.018 1.429 2.472 2.569.444 1.113.532 2.433.402 3.869-.129 1.419-.538 2.676-.92 3.85l-.043.134c-.4 1.231-.761 2.384-.848 3.685-.17 2.545.704 5.861 5.144 11.288 7.313 8.938 6.622 15.822 5.061 18.364-.176.295-.393.896-.526 1.875-.132.968-.176 2.26-.043 3.9.268 3.279 1.247 7.916 3.627 14.065 4.819 12.45 8.03 25.593 9.036 30.624.39 1.948 1.644 4.817 4.123 6.996 2.451 2.155 6.146 3.679 11.536 2.909 6.846-.979 10.292-3.153 13.031-6.427 1.395-1.668 2.618-3.636 4.011-5.945l.423-.702c1.278-2.124 2.711-4.504 4.525-7.112 6.376-9.165 14.293-23.102 17.457-28.93l.02-.037.025-.035c.659-.942 1.366-1.891 2.082-2.853 1.242-1.667 2.511-3.371 3.607-5.137 1.718-2.769 2.859-5.472 2.677-8.027-.122-1.704-.396-3.294-.691-4.808-.072-.367-.145-.731-.218-1.093-.223-1.115-.441-2.201-.586-3.236-.387-2.775-.28-5.394 1.651-7.876.929-1.195 1.86-1.992 2.781-2.668.363-.267.729-.518 1.085-.762l.264-.182c.443-.305.876-.61 1.308-.953 1.692-1.341 3.496-3.35 5.458-8.254.501-1.254.987-2.43 1.443-3.529l.091-.22c.421-1.016.814-1.964 1.169-2.852.764-1.911 1.338-3.503 1.636-4.845.299-1.346.3-2.352.012-3.133-.277-.753-.864-1.408-1.99-1.971-1.189-.595-2.663-1.078-4.338-1.613l-.28-.089c-1.581-.504-3.309-1.055-5.026-1.778-3.651-1.537-7.323-3.881-9.684-8.34-1.771-3.345-2.551-5.536-2.945-7.359a22.055 22.055 0 0 1-.373-2.495l-.053-.549c-.058-.596-.115-1.187-.209-1.842-.123-.861-.231-1.655-.332-2.389-.313-2.286-.546-3.985-.878-5.31-.426-1.705-.979-2.627-1.963-3.283-1.757-1.171-2.353-2.954-2.206-4.567.142-1.563.998-3.083 2.287-3.728.629-.315 1.337-.448 2.086-.279.739.166 1.441.609 2.105 1.308 1.31 1.379 2.601 3.891 3.86 7.918 1.233 3.948 3.703 9.747 6.959 14.354 1.628 2.303 3.427 4.272 5.333 5.57 1.899 1.293 3.862 1.895 5.869 1.56 2.181-.363 3.712-.932 4.855-1.615 1.138-.68 1.928-1.494 2.603-2.404.457-.616.84-1.241 1.25-1.91.22-.359.448-.73.699-1.12.698-1.084 1.522-2.208 2.718-3.272.713-.633 1.64-1.355 2.62-2.117.584-.455 1.187-.924 1.774-1.398 1.611-1.3 3.157-2.672 4.19-4.059 1.04-1.397 1.454-2.66 1.109-3.815-.351-1.178-1.572-2.523-4.508-3.868-.687-.315-1.464-.542-2.339-.779a81.107 81.107 0 0 1-.382-.102c-.755-.202-1.572-.42-2.391-.709-1.949-.689-3.968-1.795-5.682-4.151-1.04-1.431-1.687-2.77-1.974-3.961-.286-1.186-.224-2.276.229-3.14.464-.887 1.288-1.436 2.3-1.603.991-.164 2.143.038 3.357.578 1.168.519 2.511 1.35 3.99 2.264l.053.033c1.517.939 3.213 1.987 5.121 2.972 3.81 1.966 8.44 3.666 14.031 3.666 1.867 0 3.664-.079 5.415-.156.933-.041 1.854-.082 2.765-.109 2.589-.079 5.066-.051 7.342.404 2.29.458 4.392 1.352 6.217 3.009 1.819 1.653 3.315 4.022 4.47 7.356 1.021 2.952 2.042 6.464 3.102 10.109l.347 1.193c1.187 4.079 2.432 8.277 3.797 12.064 1.37 3.797 2.844 7.13 4.475 9.502 1.65 2.397 3.329 3.628 5.07 3.628 2.898 0 4.846-2.326 6.097-5.698 1.234-3.327 1.653-7.356 1.653-10.052 0-3.488 1.755-11.628 8.817-16.613 4.224-2.981 7.607-5.089 10.483-5.625 1.477-.274 2.851-.143 4.139.505 1.272.641 2.392 1.752 3.435 3.317 1.95 2.925 3.339 3.914 4.639 4.401.638.239 1.277.368 2.037.521l.161.032c.819.166 1.743.363 2.802.76 2.093.785 4.126 1.991 5.617 4.294 1.481 2.289 2.37 5.574 2.37 10.408 0 4.669.737 8.073 1.76 10.662 1.022 2.586 2.344 4.391 3.566 5.858.617.74 1.162 1.305 1.622 1.638.496.36.664.291.675.286.062-.028.324-.233.545-1.191.207-.902.332-2.273.332-4.253 0-1.957-.183-3.829-.363-5.539a220.08 220.08 0 0 0-.039-.37c-.164-1.547-.316-2.987-.285-4.173.032-1.249.266-2.475 1.17-3.223.916-.757 2.256-.813 3.936-.426 1.273.294 2.498.665 3.645 1.013.343.104.679.206 1.008.303 1.45.429 2.757.767 3.981.854 1.209.087 2.312-.073 3.363-.626 1.058-.557 2.127-1.544 3.203-3.219.959-1.491.901-2.937.238-4.496-.686-1.612-1.988-3.264-3.441-5.065l-.192-.237c-1.368-1.694-2.832-3.507-3.813-5.414-1.037-2.018-1.578-4.222-.881-6.594.674-2.288 1.844-3.727 3.355-4.667 1.473-.916 3.222-1.326 4.97-1.669.287-.057.575-.112.863-.167 3.297-.628 6.675-1.272 9.482-4.295 2.458-2.647 3.541-5.977 3.879-9.108.336-3.106-.067-5.96-.537-7.629-1.921-4.431-4.549-11.068-6.203-17.118-.829-3.031-1.422-5.95-1.549-8.385-.063-1.218-.011-2.343.201-3.314.212-.968.594-1.832 1.229-2.466 1.221-1.222 2.5-1.89 3.833-2.04 1.327-.149 2.609.227 3.823.904 2.39 1.334 4.717 3.956 6.954 6.691 1.712 2.092 2.977 2.299 3.763 2.088.884-.237 1.599-1.099 1.974-1.924.567-1.246.432-2.574-.075-4.303a48.718 48.718 0 0 0-.707-2.144c-.077-.22-.155-.445-.234-.677-.352-1.028-.721-2.152-1.029-3.383-1.255-5.023.818-9.095 2.115-10.619 1.167-2.014 3.834-7.207 5.396-12.284.975-3.168 1.595-7.725 1.969-12.34.373-4.601.498-9.205.498-12.439 0-6.166-3.29-10.923-9.564-13.819-1.652-.762-3.026-1.542-4.071-2.387-1.047-.845-1.804-1.788-2.144-2.884-.692-2.231.454-4.642 2.974-7.414 1.871-2.059 2.223-3.515 2.557-4.9a17.4 17.4 0 0 1 .281-1.067c.282-.916.722-1.796 1.723-2.672.971-.85 2.44-1.668 4.722-2.556a72.537 72.537 0 0 1 5.785-1.965c.461-.137.895-.264 1.306-.383 1.04-.303 1.933-.563 2.745-.848 1.117-.392 2.028-.816 2.862-1.423.834-.605 1.622-1.415 2.46-2.612 1.736-2.48 3.298-4.58 4.839-5.786.783-.612 1.616-1.04 2.513-1.139.916-.1 1.808.151 2.678.73 1.573 1.05 3.004 2.314 3.565 4.77.544 2.38.248 5.782-1.26 11.061-1.506 5.272-2.324 9.362-1.856 12.17.228 1.37.753 2.374 1.61 3.075.868.71 2.165 1.181 4.072 1.3 1.288.081 2.227-.481 2.953-1.557.754-1.116 1.251-2.764 1.533-4.714.56-3.885.22-8.654-.274-11.866-.344-2.237-.497-5.87.152-9.569.648-3.688 2.112-7.553 5.101-10.115 1.425-1.221 2.771-2.326 4.019-3.35 1.865-1.53 3.513-2.884 4.891-4.187 2.292-2.169 3.614-4.009 3.833-5.976.105-.952-.214-2.392-.74-4.21-.154-.535-.324-1.097-.5-1.677-.402-1.322-.831-2.735-1.157-4.113-.47-1.983-.765-4.023-.451-5.803.322-1.833 1.294-3.393 3.283-4.297.451-.205.869-.393 1.256-.567 1.541-.692 2.584-1.16 3.292-1.627.424-.279.663-.518.803-.747.132-.219.209-.483.209-.876v-.16c.002-1.204.003-2.08-.961-2.979-1.103-1.027-3.532-2.125-8.926-3.124l-.022-.004-12.051-3.012-.027-.01c-1.368-.455-5.527-1.15-10.594.02-5.102 1.177-9.319 3.437-10.753 4.393l-.015.01-.015.01c-2.643 1.585-10.591 4.51-21.913 4.106-13.952-.499-35.893.999-48.326 3.485-9.975 1.995-26.768 5.82-33.95 7.49-2.679.836-6.832 2.036-10.625 2.93-1.901.448-3.727.823-5.237 1.035-.754.105-1.443.173-2.031.186-.571.013-1.115-.023-1.541-.164-.783-.261-1.484-.58-2.006-1.023-.55-.467-.898-1.071-.943-1.833-.043-.72.192-1.5.618-2.343.43-.85 1.087-1.83 1.976-2.974.812-1.044 1.052-1.843 1.03-2.425-.021-.562-.293-1.05-.799-1.48-1.06-.9-2.979-1.384-4.639-1.384-.293 0-.885.135-1.808.467-.893.322-2.011.796-3.314 1.4-2.603 1.21-5.898 2.919-9.516 4.915-7.233 3.99-15.715 9.105-22.446 13.592l-.832-1.248c6.769-4.513 15.287-9.649 22.554-13.658 3.632-2.004 6.962-3.732 9.609-4.96 1.322-.615 2.485-1.11 3.436-1.452.921-.331 1.735-.556 2.317-.556 1.84 0 4.17.517 5.611 1.741.744.633 1.285 1.488 1.326 2.566.04 1.06-.407 2.198-1.345 3.404-.861 1.107-1.454 2.001-1.821 2.729-.371.735-.48 1.236-.46 1.579.018.3.138.54.417.776.305.26.792.504 1.509.743.174.059.507.1 1.033.088.508-.011 1.134-.07 1.857-.172 1.444-.203 3.219-.566 5.101-1.009 3.761-.886 7.893-2.081 10.548-2.91l.027-.01.027-.005c7.167-1.667 24.01-5.503 34.023-7.505 12.567-2.514 34.626-4.016 48.674-3.515 11.055.395 18.698-2.467 21.072-3.884 1.58-1.05 5.951-3.378 11.232-4.597 5.303-1.223 9.723-.533 11.378.01zM127.45 44.013c-16.812-15.307-30.018-15.2-37.213-12.801-5.567 1.855-8.235 4.507-12.346 8.593a171.786 171.786 0 0 1-4.38 4.245c-1.06.984-2.016 1.839-2.848 2.583-.532.475-1.013.905-1.438 1.295-1.12 1.027-1.914 1.826-2.49 2.633-1.109 1.552-1.485 3.228-1.485 6.939 0 9.001.502 17.926 1.482 22.337l-1.464.326c-1.02-4.59-1.518-13.664-1.518-22.663 0-3.789.374-5.863 1.765-7.81.673-.944 1.567-1.832 2.697-2.868.46-.421.95-.86 1.484-1.337.814-.728 1.73-1.546 2.794-2.535 1.588-1.475 2.953-2.833 4.208-4.082 4.183-4.163 7.139-7.104 13.065-9.08 7.798-2.6 21.575-2.494 38.742 13.158l.046.042.039.049c.861 1.096 2.566 2.758 4.828 4.092 2.26 1.332 5.028 2.31 8.035 2.123.766-.048 1.605-.121 2.505-.2 8.317-.721 21.812-1.893 30.185 12.062l.004.007.004.007c.707 1.237 2.099 4.5 2.099 7.872 0 1.695.94 3.17 2.657 3.868 1.738.706 4.381.65 7.757-1.039 3.505-1.752 5.54-2.467 7.697-2.327 1.062.068 2.117.341 3.346.737.616.199 1.314.442 2.095.714.737.257 1.548.54 2.435.835a108.079 108.079 0 0 0 12.72 3.351c4.423.872 8.588 1.355 11.481 1.114l.124 1.494c-3.108.26-7.442-.258-11.895-1.136a109.566 109.566 0 0 1-12.904-3.4c-.944-.314-1.755-.597-2.48-.85a92.075 92.075 0 0 0-2.037-.694c-1.193-.385-2.107-.612-2.982-.669-1.718-.11-3.433.425-6.929 2.173-3.623 1.811-6.73 2.005-8.992 1.086-2.283-.927-3.593-2.952-3.593-5.257 0-3.021-1.27-6.02-1.897-7.121-7.864-13.099-20.367-12.04-28.73-11.33-.912.076-1.774.15-2.576.2-3.393.212-6.458-.894-8.891-2.328-2.396-1.413-4.224-3.173-5.206-4.408zM98.86 175.891c-4.6-7.525-1.928-14.658.035-17.335l1.21.888c-1.704 2.323-4.166 8.79.035 15.665 2.758 4.514 4.533 7.804 5.868 11.11 1.335 3.307 2.221 6.604 3.224 11.118.481 2.165.99 3.523 1.472 4.497.356.719.69 1.224 1.028 1.734.129.194.258.389.389.597a8.494 8.494 0 0 1 1.184 2.85c.286 1.262.445 2.96.445 5.485 0 4.834 1.909 6.626 3.41 6.955 1.576.345 3.09-.727 3.09-2.455 0-1.871-.55-4.03-1.074-6.087l-.216-.856c-.28-1.121-.53-2.207-.606-3.12-.071-.859-.018-1.834.616-2.467.345-.346.922-.712 1.655-.735.767-.025 1.548.332 2.255 1.15.692.8 1.34 2.07 1.909 3.979.572 1.917 1.079 4.528 1.457 8.056.744 6.95 2.102 11.7 4.269 15.252 2.157 3.535 5.16 5.954 9.336 8.165 6.863 3.633 15.273 9.902 18.618 12.577l-.937 1.172c-3.322-2.658-11.646-8.856-18.383-12.423-4.323-2.289-7.571-4.87-9.914-8.71-2.333-3.823-3.725-8.823-4.481-15.873-.372-3.472-.865-5.986-1.402-7.787-.54-1.81-1.111-2.853-1.607-3.428-.481-.557-.855-.638-1.073-.631a.994.994 0 0 0-.642.296c-.116.117-.25.455-.181 1.283.065.775.284 1.751.566 2.88l.212.836c.519 2.031 1.123 4.395 1.123 6.471 0 2.772-2.486 4.45-4.91 3.92-2.499-.546-4.59-3.254-4.59-8.42 0-2.475-.158-4.047-.408-5.154a6.99 6.99 0 0 0-.99-2.381c-.102-.163-.214-.331-.332-.51-.35-.528-.759-1.145-1.16-1.956-.546-1.104-1.091-2.581-1.592-4.836-.997-4.486-1.862-7.689-3.151-10.882-1.29-3.194-3.016-6.404-5.757-10.89zM270.645 127.265c.406.081.67.476.588.882-.075.376-.066 1.015.036 1.874.1.837.279 1.811.499 2.819a69.155 69.155 0 0 0 1.442 5.425c.682 1.962 1.497 5.095 1.736 8.164.12 1.538.097 3.089-.174 4.482-.271 1.388-.801 2.677-1.744 3.619-2.067 2.068-4.091 3.19-6.01 3.403-1.95.217-3.667-.519-5.05-1.903-1.025-1.025-2.38-1.271-3.95-1.097-1.451.161-2.962.668-4.38 1.144l-.403.134c-1.378.46-2.419 1.227-2.929 2.349-.511 1.124-.567 2.772.388 5.161.503 1.257.888 2.414.959 3.463.074 1.092-.192 2.084-.975 2.945-.749.825-1.919 1.47-3.526 2.032-1.617.566-3.756 1.074-6.52 1.577-10.745 1.953-20.564 10.289-24.971 18.613-3.418 6.456-7.774 9.332-11.759 11.964-1.374.907-2.703 1.785-3.935 2.771-1.057.845-1.658 2.148-1.992 3.762-.335 1.615-.383 3.436-.415 5.228l-.004.287c-.029 1.65-.057 3.3-.35 4.578-.158.685-.406 1.338-.828 1.848a2.636 2.636 0 0 1-1.797.956c-.7.078-1.335-.037-1.896-.33-.554-.288-.995-.727-1.349-1.236-.697-1-1.128-2.37-1.444-3.763-.243-1.069-.432-2.218-.61-3.302-.055-.337-.109-.668-.164-.988-.236-1.387-.475-2.55-.809-3.33-.206-.481-.855-.902-2.26-1.1-1.347-.191-3.119-.135-5.106.051-1.94.182-4.034.483-6.064.775l-.118.017c-2.055.296-4.051.582-5.705.709-2.399.184-4.464 1.302-6.088 2.664-1.608 1.348-2.741 2.901-3.289 3.906-.338.86-1.49 4.295-3.458 11.383-.476 1.711-.488 3.018-.245 4.01a4.075 4.075 0 0 0 1.376 2.225c1.282 1.064 3.155 1.384 4.547 1.318 1.985-.424 5.034-.701 7.831-.152 2.822.554 5.577 2 6.489 5.192.757 2.65 2.429 5.135 4.252 7.182 1.819 2.043 3.745 3.601 4.943 4.4a.75.75 0 1 1-.832 1.248c-1.302-.868-3.326-2.51-5.232-4.65-1.902-2.137-3.73-4.818-4.573-7.768-.688-2.408-2.767-3.628-5.336-4.133-2.567-.503-5.434-.242-7.284.16l-.058.013-.059.003c-1.603.089-3.945-.247-5.646-1.659a5.573 5.573 0 0 1-1.875-3.022c-.319-1.303-.268-2.88.256-4.769 2-7.199 3.176-10.702 3.527-11.577l.016-.04.02-.037c.626-1.163 1.885-2.889 3.666-4.382 1.783-1.496 4.135-2.795 6.937-3.011 1.595-.122 3.537-.399 5.606-.697l.134-.02c2.018-.29 4.144-.596 6.122-.782 2.013-.188 3.928-.258 5.456-.042 1.471.207 2.884.724 3.428 1.994.416.969.678 2.307.91 3.669.058.341.114.685.171 1.031.176 1.074.355 2.159.586 3.179.309 1.357.69 2.487 1.213 3.237.255.366.525.615.811.764.278.145.612.217 1.037.17.369-.041.614-.188.807-.421.212-.258.39-.656.522-1.229.257-1.12.283-2.623.313-4.357l.004-.199c.031-1.771.077-3.731.445-5.506.368-1.777 1.08-3.474 2.524-4.629 1.391-1.113 2.819-2.056 4.249-3.001 3.909-2.582 7.832-5.174 11.056-11.264 4.593-8.676 14.774-17.341 26.029-19.387 2.736-.497 4.785-.989 6.293-1.517 1.518-.531 2.41-1.074 2.911-1.625.467-.513.639-1.083.588-1.835-.054-.795-.357-1.763-.854-3.006-1.045-2.611-1.101-4.713-.362-6.339.74-1.628 2.199-2.611 3.821-3.152l.414-.138c1.392-.468 3.057-1.028 4.678-1.208 1.805-.201 3.7.053 5.175 1.528 1.117 1.116 2.4 1.63 3.825 1.472 1.456-.162 3.182-1.04 5.115-2.972.657-.658 1.094-1.628 1.331-2.846.237-1.215.265-2.621.151-4.078-.227-2.917-1.009-5.928-1.66-7.8l-.004-.011-.004-.011a70.389 70.389 0 0 1-1.479-5.564 31.916 31.916 0 0 1-.523-2.962c-.105-.881-.142-1.721-.017-2.345a.749.749 0 0 1 .882-.588zM209.37 98.761c6.737-1.188 13.386-3.471 15.852-4.457l.557 1.392c-2.535 1.014-9.285 3.331-16.148 4.543-4.025.71-7.106 3.076-9.007 5.927-1.913 2.869-2.579 6.147-1.9 8.637.646 2.37 2.307 3.251 5.073 4.446l.528.227c2.671 1.145 6.073 2.603 9.687 5.976l.009.009.009.009c1.662 1.661 5.425 5.523 7.056 7.561.878 1.099 2.278 1.823 3.607 1.721 1.255-.096 2.674-.955 3.602-3.508 1.011-2.779 1.471-4.183 1.584-5.26.107-1.011-.091-1.748-.59-3.247-.503-1.506-1.417-4.489-1.351-7.379.033-1.452.313-2.935 1.065-4.208.762-1.292 1.979-2.314 3.777-2.867l.441 1.434c-1.453.447-2.361 1.237-2.927 2.195-.577.978-.827 2.182-.857 3.48-.059 2.61.777 5.377 1.275 6.871.5 1.501.803 2.514.659 3.878-.137 1.298-.676 2.894-1.666 5.615-1.072 2.947-2.903 4.338-4.897 4.492-1.922.148-3.772-.878-4.894-2.279-1.566-1.959-5.259-5.753-6.935-7.429-3.415-3.185-6.603-4.552-9.259-5.692l-.517-.222c-2.734-1.18-5.073-2.299-5.926-5.429-.821-3.01.012-6.732 2.099-9.863 2.1-3.149 5.518-5.783 9.994-6.573zM225.391 263.86c.623.369 1.265.772 1.931 1.19 4.27 2.679 9.493 5.956 16.548 4.712 8.622-1.522 13.37-.03 16.099 2.152 1.257 1.006 3.919 3.161 6.585 6.08 2.659 2.912 5.365 6.633 6.662 10.782.915 2.927 3.169 4.794 5.717 5.94 2.553 1.149 5.32 1.534 7.067 1.534h.013l.013.001c2.505.086 6.368.781 9.881 2.595 3.522 1.82 6.76 4.806 7.824 9.488 1.282 5.637.539 8.991-1.172 11.523-.835 1.236-1.877 2.24-2.921 3.19-.187.169-.372.337-.558.503-.869.784-1.723 1.553-2.519 2.448-3.925 4.416-7.849 11.79-8.821 17.625-1.053 6.317-5.781 11.008-11.484 13.082-2.526.918-4.284 2.884-5.485 4.925-1.199 2.039-1.802 4.087-2.043 5.052-.417 1.666-1.54 4.45-2.039 5.614l-.044.103-.072.086a48.068 48.068 0 0 0-3.578 4.881c-1.288 2.017-2.393 4.132-2.763 5.797-.826 3.716-3.074 8.031-4.089 9.723l-.025.042-.03.038c-1.571 1.984-3.955 5.212-5.992 8.435-1.018 1.611-1.943 3.21-2.635 4.644-.7 1.452-1.128 2.666-1.215 3.53-.163 1.631-.163 3.174-.162 4.706 0 .788 0 1.572-.022 2.365-.063 2.284-.317 4.542-1.391 6.689-.991 1.983-1.94 4.259-2.175 6.433-.232 2.142.231 4.122 1.998 5.668 2.046 1.79 4.995 5.114 6.489 8.104.732 1.464 1.211 3.032.84 4.337a2.868 2.868 0 0 1-1.281 1.68c-.644.401-1.48.624-2.492.691-4.025.269-8.961-1.989-12.907-5.298-3.949-3.312-7.124-7.861-7.392-12.406-.249-4.246-.497-7.067-1.17-10.001-.672-2.936-1.777-6.013-3.772-10.752-1.054-2.504-1.465-5.646-1.512-8.928-.048-3.294.27-6.788.71-10.026.44-3.241 1.006-6.243 1.46-8.552l.228-1.153c.132-.664.247-1.245.339-1.733.148-.785.216-1.236.216-1.399 0-.214.005-.596.013-1.12.064-4.495.276-19.472-1.501-29.246-.764-4.204-3.246-7.995-6.098-11.047-2.847-3.048-6.01-5.301-8.03-6.433l.732-1.308c2.147 1.202 5.434 3.549 8.395 6.717 2.956 3.164 5.641 7.207 6.477 11.803 1.809 9.952 1.589 25.151 1.525 29.568-.008.503-.013.867-.013 1.066 0 .337-.104.949-.241 1.677-.094.495-.211 1.088-.344 1.758l-.226 1.139c-.452 2.301-1.011 5.268-1.446 8.465-.435 3.198-.742 6.611-.696 9.802.046 3.201.448 6.122 1.394 8.368 2.005 4.761 3.15 7.934 3.853 10.999.702 3.065.954 5.994 1.205 10.248.232 3.955 3.057 8.156 6.858 11.344 3.804 3.191 8.368 5.183 11.843 4.952.863-.058 1.433-.241 1.799-.469a1.36 1.36 0 0 0 .631-.816c.207-.727-.033-1.846-.738-3.257-1.381-2.76-4.182-5.936-6.136-7.645-2.233-1.954-2.77-4.475-2.502-6.958.265-2.451 1.316-4.924 2.325-6.942.926-1.852 1.172-3.845 1.234-6.061.019-.708.02-1.451.02-2.218 0-1.577.001-3.259.171-4.961.113-1.136.64-2.547 1.356-4.032.726-1.504 1.683-3.155 2.719-4.794 2.058-3.256 4.457-6.507 6.053-8.526.995-1.669 3.118-5.781 3.886-9.236.43-1.935 1.658-4.236 2.962-6.278a49.944 49.944 0 0 1 3.624-4.956c.518-1.218 1.546-3.793 1.918-5.285.259-1.035.906-3.237 2.207-5.448 1.299-2.209 3.291-4.493 6.265-5.575 5.297-1.926 9.569-6.235 10.516-11.918 1.028-6.165 5.104-13.79 9.179-18.375.857-.964 1.785-1.799 2.657-2.584l.532-.48c1.034-.941 1.96-1.843 2.688-2.92 1.414-2.093 2.171-4.989.953-10.352-.936-4.118-3.781-6.798-7.051-8.487-3.273-1.691-6.903-2.347-9.231-2.429-1.92-.002-4.896-.418-7.67-1.666-2.786-1.254-5.448-3.387-6.533-6.86-1.203-3.851-3.747-7.38-6.338-10.218-2.584-2.831-5.172-4.926-6.415-5.92-2.271-1.817-6.523-3.326-14.901-1.847-7.669 1.353-13.418-2.273-17.668-4.953-.649-.409-1.264-.797-1.844-1.141l-.01-.005-.008-.006c-1.531-.966-4.162-2.282-7.034-3.06-2.891-.783-5.889-.983-8.252.107l-.628-1.362c2.837-1.31 6.255-1.01 9.273-.193 3.031.821 5.795 2.201 7.432 3.234zM708.074 339.882c-1.134.921-2.461 1.999-4.13 3.223-6.052 4.438-12.27 7.565-14.649 8.584l-.59-1.378c2.288-.981 8.403-4.054 14.352-8.416 1.637-1.201 2.936-2.256 4.07-3.177l.448-.363c1.23-.997 2.302-1.844 3.42-2.501 2.298-1.352 4.713-1.858 9.049-1.603l.137.008c2.048.121 3.664.216 4.976.396 1.348.186 2.436.469 3.395 1.002 1.906 1.059 3.128 3.022 5.099 6.471.845 1.479 1.47 2.649 1.957 3.562l.264.495c.535.998.856 1.56 1.138 1.893.13.153.228.228.306.271.075.04.169.071.318.083.337.029.794-.036 1.644-.158l.116-.016c.736-.106 1.21-.356 1.584-.719.397-.384.725-.936 1.091-1.728.174-.378.353-.803.551-1.272.611-1.453 1.397-3.32 2.747-5.442.95-1.492 2.113-2.356 3.375-2.556 1.264-.201 2.455.293 3.392 1.158 1.854 1.711 2.897 5.001 2.097 8.47-.541 2.345.162 4.687 1.342 6.716 1.179 2.028 2.787 3.659 3.89 4.525 1.516 1.191 3.301 2.698 4.529 5.08 1.234 2.394 1.868 5.591 1.251 10.111-1.512 11.089-4.054 21.778-16.224 33.44-.66.633-1.34 1.161-2.028 1.67l-.595.436c-.497.363-.996.727-1.518 1.14-1.438 1.136-3.009 2.609-4.761 5.14-2.25 3.25-4.911 6.929-7.78 9.734-2.841 2.778-6.052 4.865-9.399 4.586-1.493-.124-2.731-.285-3.706-.697-1.036-.437-1.752-1.144-2.233-2.252-.457-1.056-.698-2.473-.863-4.341-.162-1.829-.255-4.173-.375-7.163l-.01-.264c-.192-4.801-2.484-9.784-5.383-13.777-1.445-1.989-3.025-3.712-4.54-5.022-1.527-1.321-2.939-2.181-4.043-2.513-1.786-.535-3.934-1.128-6.599-.999-2.659.128-5.885.977-9.788 3.417l-.795-1.272c4.096-2.56 7.569-3.501 10.51-3.643 2.934-.142 5.286.516 7.103 1.061 1.395.418 2.995 1.433 4.593 2.815 1.611 1.393 3.268 3.202 4.773 5.275 3.001 4.132 5.459 9.398 5.667 14.598l.01.23c.12 3.021.213 5.333.371 7.125.163 1.849.391 3.058.746 3.877.332.767.772 1.185 1.439 1.466.728.308 1.741.459 3.247.585 2.653.221 5.442-1.442 8.226-4.164 2.756-2.695 5.345-6.266 7.595-9.516 1.848-2.669 3.527-4.248 5.065-5.463.546-.432 1.081-.822 1.586-1.191l.565-.414c.672-.497 1.292-.981 1.882-1.546 11.83-11.338 14.288-21.649 15.776-32.56.583-4.28-.033-7.154-1.099-9.221-1.072-2.079-2.637-3.422-4.121-4.588-1.231-.967-2.973-2.736-4.26-4.95-1.287-2.213-2.167-4.954-1.508-7.809.7-3.031-.257-5.741-1.653-7.03-.688-.635-1.435-.891-2.139-.779-.707.112-1.544.623-2.344 1.881-1.275 2.003-1.99 3.701-2.596 5.14-.209.495-.405.96-.606 1.396-.384.833-.806 1.594-1.409 2.178-.626.606-1.402.981-2.416 1.125l-.223.032c-.729.106-1.359.197-1.876.153a2.268 2.268 0 0 1-.903-.258 2.572 2.572 0 0 1-.739-.622c-.406-.479-.803-1.199-1.315-2.154l-.268-.5c-.486-.912-1.1-2.063-1.933-3.521-2.029-3.551-3.057-5.088-4.526-5.904-.729-.405-1.61-.653-2.871-.827-1.252-.172-2.819-.264-4.915-.388l-.081-.004c-4.164-.245-6.249.249-8.201 1.397-1.007.593-1.998 1.371-3.236 2.374l-.445.362zM743.843 297.831c-1.788-1.059-6.443-2.992-11.405-2.578-1.556.129-2.798.459-3.702 1.071-.942.638-1.453 1.538-1.604 2.636-.146 1.058.042 2.286.428 3.643.388 1.368.997 2.934 1.75 4.692 2.385 5.565 3.636 9.921 3.958 11.368l.006.029.009.029c.356 1.155 1.126 2.838 2.311 4.145 1.194 1.317 2.908 2.346 5.069 1.866 1.187-.264 2.234-.658 3.188-1.055.312-.131.609-.258.896-.382a29.77 29.77 0 0 1 1.755-.714c1.628-.581 3.169-.795 5.193.104 1.076.478 2.193 1.141 3.379 1.856l.214.129c1.106.667 2.267 1.367 3.446 1.942 2.508 1.221 5.285 1.967 8.101.559 1.464-.732 2.256-1.894 2.56-3.231.296-1.3.126-2.732-.233-4.072-.719-2.678-2.271-5.263-3.062-6.318-.811-1.081-3.5-3.756-7.391-6.768-3.899-3.019-9.062-6.421-14.866-8.951zm-.729 1.312c-1.578-.946-5.954-2.779-10.552-2.396-1.444.121-2.389.416-2.985.819-.559.379-.861.885-.959 1.599-.104.754.02 1.746.385 3.029.361 1.273.94 2.769 1.686 4.511 2.4 5.598 3.681 10.022 4.036 11.602.315 1.01.992 2.461 1.981 3.552.989 1.092 2.192 1.729 3.631 1.409 1.063-.236 2.016-.592 2.937-.976.274-.114.55-.233.827-.352a32.278 32.278 0 0 1 1.897-.771c1.872-.669 3.831-.955 6.307.146 1.174.522 2.369 1.234 3.543 1.941l.199.12c1.121.676 2.228 1.343 3.344 1.887 2.367 1.154 4.59 1.658 6.774.566 1.036-.518 1.556-1.293 1.768-2.222.219-.965.108-2.127-.22-3.35-.656-2.447-2.104-4.862-2.813-5.807-.689-.919-3.25-3.494-7.109-6.482-3.841-2.974-8.913-6.312-14.59-8.78l-.045-.02-.042-.025z" fill="#fff"/><path fill-rule="evenodd" clip-rule="evenodd" d="M516.984 322.273c1.439-.151 2.874.452 3.966 1.271.693.52 1.076 1.306 1.24 2.162.163.856.121 1.832-.08 2.835-.401 2.006-1.46 4.247-3.041 6.091-1.417 1.654-1.876 2.807-2.292 4.115-.058.181-.115.367-.174.558-.38 1.234-.827 2.687-1.947 4.703-1.281 2.306-2.964 4.519-4.878 6.036-1.909 1.515-4.146 2.406-6.46 1.828-1.112-.278-1.911-.766-2.369-1.504-.453-.728-.484-1.559-.38-2.325.104-.763.361-1.576.598-2.328l.01-.029c.243-.769.47-1.486.583-2.165.112-.672.115-1.36.077-2.088a46.886 46.886 0 0 0-.069-1.006l-.007-.101a31.99 31.99 0 0 1-.073-1.151c-.065-1.567.06-3.255 1.188-4.947.875-1.312 1.749-1.956 2.73-2.293.467-.161.936-.244 1.383-.311l.357-.052c.331-.047.655-.093 1.007-.163 2.394-.479 3.134-1.15 3.547-1.928.236-.447.388-.975.589-1.688l.006-.022c.194-.69.423-1.507.816-2.422.836-1.953 2.168-2.917 3.673-3.076zm.157 1.492c-.87.092-1.788.627-2.452 2.175-.353.824-.56 1.562-.756 2.259l-.009.033c-.188.666-.378 1.345-.699 1.951-.713 1.346-1.973 2.175-4.578 2.697-.397.079-.779.133-1.121.182l-.315.046c-.428.064-.785.131-1.117.245-.619.213-1.245.62-1.97 1.707-.872 1.308-.997 2.62-.937 4.053a33.642 33.642 0 0 0 .077 1.203c.026.339.052.689.071 1.039.04.773.042 1.585-.095 2.412-.131.786-.386 1.592-.618 2.324l-.024.076c-.247.78-.459 1.466-.543 2.078-.083.609-.02 1.029.168 1.332.182.292.57.617 1.459.84 1.686.421 3.449-.188 5.164-1.548 1.712-1.358 3.279-3.395 4.498-5.589 1.041-1.874 1.447-3.189 1.824-4.411.06-.194.119-.386.18-.577.459-1.443 1-2.79 2.582-4.636 1.42-1.656 2.361-3.664 2.71-5.409.174-.872.194-1.645.076-2.259-.117-.612-.359-1.013-.666-1.244-.908-.681-1.973-1.078-2.909-.979zM388.993 133.676c.076.271.151.543.228.813.465 1.626 1.155 2.663 1.865 3.55.164.205.338.411.515.621.561.665 1.154 1.367 1.57 2.2 1.112 2.224 1.072 4.936.573 8.928-.117.939-.467 1.682-.995 2.236-.523.548-1.178.865-1.837 1.035-1.27.327-2.664.135-3.576-.13-2.175-.336-6.889-1.099-8.518-1.506-1.028-.257-2.246-.656-3.224-1.285-.977-.628-1.844-1.578-1.844-2.943 0-1.745.702-2.983 1.179-3.489.811-1.066 1.87-1.861 2.834-2.583l.037-.028c1.015-.761 1.925-1.45 2.6-2.35.985-1.313.672-2.728.429-3.215l-.029-.057-.018-.062c-.272-.907-.497-2.331-.258-3.673.245-1.37 1.006-2.76 2.77-3.264.97-.277 1.826-.304 2.572-.041.754.265 1.295.79 1.701 1.417.399.616.688 1.364.936 2.14.169.527.329 1.103.49 1.686zm-3.625-3.828c-.363-.128-.882-.155-1.662.068-1.036.296-1.525 1.073-1.705 2.086-.181 1.017-.019 2.162.201 2.923.412.883.778 2.88-.602 4.72-.815 1.086-1.887 1.891-2.862 2.622l-.038.028c-1.015.761-1.925 1.45-2.6 2.35l-.032.043-.038.037c-.189.19-.78 1.065-.78 2.47 0 .635.383 1.185 1.156 1.682.772.496 1.804.847 2.776 1.09 1.558.39 6.25 1.151 8.432 1.487l.052.008.05.015c.756.226 1.883.371 2.822.129.458-.118.841-.319 1.126-.618.279-.293.509-.725.592-1.386.501-4.008.461-6.296-.427-8.072-.329-.658-.761-1.171-1.286-1.794a37.399 37.399 0 0 1-.629-.76c-.79-.988-1.6-2.201-2.135-4.075-.085-.297-.164-.583-.241-.861a44.455 44.455 0 0 0-.463-1.593c-.237-.74-.478-1.336-.767-1.782-.282-.435-.584-.692-.94-.817z" fill="#fff"/><path fill-rule="evenodd" clip-rule="evenodd" d="M314.504 226c-.025 12.347-.145 32.476-.491 42.435-.397 11.464 8.11 19.271 12.413 21.741L350.755 305c4.469-2.635 15.69-9.289 24.825-14.824a20.236 20.236 0 0 0 2.556-1.833c-1.734 2.921-4.139 5.658-7.422 7.657-9.2 5.6-20.5 12.333-25 15l-24.5-15c-4.334-2.5-12.9-10.4-12.5-22 .4-11.6.5-36.833.5-48h5.29z" fill="#6677FB"/><path fill-rule="evenodd" clip-rule="evenodd" d="M313.464 220.25h74.5V269c0 2.593-.593 6.791-2.357 11.061-1.767 4.276-4.729 8.674-9.504 11.58-9.203 5.602-20.506 12.337-25.007 15.004l-.389.231-24.877-15.231c-4.458-2.576-13.279-10.688-12.866-22.671.399-11.585.5-36.805.5-47.974v-.75zm1.499 1.5c-.004 11.508-.108 35.914-.5 47.276-.386 11.209 7.914 18.895 12.125 21.324l.009.005 24.123 14.769c4.733-2.807 15.661-9.322 24.604-14.765 4.426-2.694 7.213-6.796 8.896-10.87 1.686-4.08 2.244-8.082 2.244-10.489v-47.25h-71.501z" fill="#6677FB"/><path fill-rule="evenodd" clip-rule="evenodd" d="M337.023 246.535c0-7.332 6-13.285 13.286-13.285 7.331 0 13.284 5.998 13.285 13.282v.003l.05 5.894h-6.182l.05-5.292c-.002-3.987-3.288-7.503-7.203-7.503-3.916 0-7.204 3.518-7.204 7.507v5.288h-6.082v-5.894zm13.286-11.785c-6.46 0-11.786 5.285-11.786 11.785v5.394h3.082v-4.788c0-4.744 3.888-9.007 8.704-9.007 4.815 0 8.703 4.263 8.703 9.007v.007l-.036 4.781h3.155l-.037-5.387v-.007c0-6.46-5.285-11.785-11.785-11.785z" fill="#fff"/><path fill-rule="evenodd" clip-rule="evenodd" d="M366.278 251.523a.445.445 0 0 1-.199-.044H334.767c-.735 0-1.297.389-1.34 1.167v23.126c0 .778.562 1.21 1.297 1.21 2.361.029 4.703.02 7.052.01h.001c1.176-.005 2.354-.01 3.537-.01h20.316c.069 0 .143.005.219.009.163.01.339.021.516-.009.951-.086 1.08-.864 1.08-1.599v-22.261c0-.735-.216-1.556-1.167-1.599zm-18.545 11.757-1.037 6.484h6.83l-1.038-6.484a3.486 3.486 0 0 0-2.377-6.051 3.487 3.487 0 0 0-3.502 3.501c0 .994.433 1.902 1.124 2.55z" fill="#6677FB"/><path fill-rule="evenodd" clip-rule="evenodd" d="M501.73 137H517v16l18.776-12.638a21.722 21.722 0 0 1 3.455 11.791c0 12.05-9.764 21.819-21.809 21.819-12.045 0-21.809-9.769-21.809-21.819 0-5.886 2.33-11.228 6.117-15.153z" fill="#F77779"/><path fill-rule="evenodd" clip-rule="evenodd" d="M498 48.75a5.25 5.25 0 0 0-5.25 5.25v77a5.25 5.25 0 0 0 5.25 5.25h19.75v15.341l22.793-15.341H658a5.25 5.25 0 0 0 5.25-5.25V54a5.25 5.25 0 0 0-5.25-5.25H498zM491.25 54a6.75 6.75 0 0 1 6.75-6.75h160a6.75 6.75 0 0 1 6.75 6.75v77a6.75 6.75 0 0 1-6.75 6.75H541l-24.75 16.659V137.75H498a6.75 6.75 0 0 1-6.75-6.75V54z" fill="#F77779"/><path d="m568.485 62.421 1.454 2.91 3.198.465-2.326 2.27.581 3.2-2.907-1.514-2.85 1.513.523-3.2-2.326-2.269 3.257-.466 1.396-2.909zM580.176 62.421l1.454 2.91 3.199.465-2.327 2.27.582 3.2-2.908-1.514-2.85 1.513.524-3.2-2.327-2.269 3.257-.466 1.396-2.909zM591.864 62.421l1.454 2.91 3.198.465-2.326 2.27.582 3.2-2.908-1.514-2.85 1.513.523-3.2-2.326-2.269 3.257-.466 1.396-2.909zM603.555 62.421l1.454 2.91 3.198.465-2.326 2.27.582 3.2-2.908-1.514-2.85 1.513.524-3.2-2.327-2.269 3.199-.466 1.454-2.909zM615.243 62.421l1.454 2.91 3.199.465-2.327 2.27.582 3.2-2.908-1.514-2.85 1.513.524-3.2-2.327-2.269 3.199-.466 1.454-2.909z" fill="#FDB22B"/><path fill-rule="evenodd" clip-rule="evenodd" d="M563.25 82a.75.75 0 0 1 .75-.75h82.5a.75.75 0 0 1 0 1.5H564a.75.75 0 0 1-.75-.75zM563.25 92a.75.75 0 0 1 .75-.75h92a.75.75 0 0 1 0 1.5h-92a.75.75 0 0 1-.75-.75zM563.25 101a.75.75 0 0 1 .75-.75h87a.75.75 0 0 1 0 1.5h-87a.75.75 0 0 1-.75-.75zM563.25 111a.75.75 0 0 1 .75-.75h80a.75.75 0 0 1 0 1.5h-80a.75.75 0 0 1-.75-.75zM563.25 120a.75.75 0 0 1 .75-.75h49a.75.75 0 0 1 0 1.5h-49a.75.75 0 0 1-.75-.75zM573 314.797c-.677.17-1.291.375-1.82.606-3.833 1.678-5.528 4.896-5.907 6.391a.75.75 0 0 0 1.454.369c.285-1.122 1.712-3.923 5.054-5.385a9.551 9.551 0 0 1 1.219-.429v-1.552zm11 2.144c2.272.994 4.041 2.664 4.69 5.222.069.271.137.551.205.837h1.539a52.874 52.874 0 0 0-.29-1.206c-.857-3.375-3.3-5.387-6.144-6.471v1.618zM589.801 339h1.526c-.725 3.932-2.494 7.36-6.134 8.704a.75.75 0 0 1-.52-1.407c2.847-1.052 4.427-3.756 5.128-7.297zM510.912 74.414c.323.26.375.731.117 1.055-.5.624-.886 1.87-.918 3.798-.031 1.898.283 4.344 1.057 7.247.989 3.711 1.635 7.266 1.25 10.608-.39 3.377-1.827 6.493-4.911 9.321a.75.75 0 0 1-1.014-1.106c2.818-2.584 4.086-5.369 4.435-8.387.352-3.052-.232-6.383-1.21-10.05-.799-2.999-1.141-5.587-1.107-7.657.034-2.04.434-3.696 1.246-4.711a.751.751 0 0 1 1.055-.118z" fill="#fff"/><path d="M519.412 109.008c-3.732.103-7.128 1.157-8.838 1.868-.356.147-.572.508-.398.852.594 1.171 2.825 3.324 8.713 5.793 4.742 1.989 7.771 2.51 9.483 2.478.759-.015.799-.765.166-1.184-3.596-2.383-6.767-6.801-8.246-9.306a.997.997 0 0 0-.88-.501z" fill="#F77779"/><path fill-rule="evenodd" clip-rule="evenodd" d="M524.378 102.206a.75.75 0 0 1 .569.895c-.847 3.814-3.531 5.858-4.863 6.429a.75.75 0 0 1-.591-1.378c.963-.413 3.264-2.108 3.99-5.376a.75.75 0 0 1 .895-.57z" fill="#fff"/><path d="M542.5 107c-1.6 3.682-5 9.376-6.5 11.763 6.5 1.886 15.228-7.992 16-11.763-3.6.818-7.833.341-9.5 0z" fill="#F77779"/><path fill-rule="evenodd" clip-rule="evenodd" d="M531.129 107.426h4.887v-4.887h-4.887v4.887zM517.355 100.54h4.887v-4.887h-4.887v4.887z" fill="#29DDCC"/><path fill-rule="evenodd" clip-rule="evenodd" d="M524.258 100.523h4.887v-4.887h-4.887v4.887z" fill="#F77779"/><path fill-rule="evenodd" clip-rule="evenodd" d="M531.16 100.523h4.887v-4.887h-4.887v4.887z" fill="#FDB22B"/><path fill-rule="evenodd" clip-rule="evenodd" d="M538.062 100.523h4.887v-4.887h-4.887v4.887z" fill="#FFF3D3"/><path fill-rule="evenodd" clip-rule="evenodd" d="M517.355 93.637h4.887V88.75h-4.887v4.887z" fill="#6677FB"/><path fill-rule="evenodd" clip-rule="evenodd" d="M524.258 93.62h4.887v-4.887h-4.887v4.887z" fill="#FFF3D3"/><path fill-rule="evenodd" clip-rule="evenodd" d="M531.16 93.62h4.887v-4.887h-4.887v4.887z" fill="#29DDCC"/><path fill-rule="evenodd" clip-rule="evenodd" d="M538.062 93.62h4.887v-4.887h-4.887v4.887zM517.355 86.734h4.887v-4.887h-4.887v4.887z" fill="#F77779"/><path fill-rule="evenodd" clip-rule="evenodd" d="M524.258 86.717h4.887V81.83h-4.887v4.887z" fill="#FDB22B"/><path fill-rule="evenodd" clip-rule="evenodd" d="M531.16 86.717h4.887V81.83h-4.887v4.887zM538.062 86.717h4.887V81.83h-4.887v4.887z" fill="#6677FB"/><path fill-rule="evenodd" clip-rule="evenodd" d="M524.241 79.814h4.887v-4.887h-4.887v4.886z" fill="#29DDCC"/><path fill-rule="evenodd" clip-rule="evenodd" d="M531.145 79.814h4.886v-4.887h-4.886v4.886z" fill="#496EB1"/><path fill-rule="evenodd" clip-rule="evenodd" d="M564.5 341.011v-5.274h5.274v5.274H564.5z" fill="#6677FB"/><path fill-rule="evenodd" clip-rule="evenodd" d="M564.5 333.769v-5.274h5.274v5.274H564.5z" fill="#29DDCC"/><path fill-rule="evenodd" clip-rule="evenodd" d="M564.5 326.527v-5.274h5.274v5.274H564.5z" fill="#FFF3D3"/><path fill-rule="evenodd" clip-rule="evenodd" d="M571.723 348.217v-5.274h5.274v5.274h-5.274zM578.98 319.797v-5.274h5.274v5.274h-5.274z" fill="#29DDCC"/><path fill-rule="evenodd" clip-rule="evenodd" d="M571.742 340.975v-5.274h5.274v5.274h-5.274z" fill="#F77779"/><path fill-rule="evenodd" clip-rule="evenodd" d="M571.742 333.733v-5.274h5.274v5.274h-5.274z" fill="#FDB22B"/><path fill-rule="evenodd" clip-rule="evenodd" d="M571.742 326.492v-5.274h5.274v5.274h-5.274z" fill="#FFF3D3"/><path fill-rule="evenodd" clip-rule="evenodd" d="M578.965 348.217v-5.274h5.274v5.274h-5.274z" fill="#496EB1"/><path fill-rule="evenodd" clip-rule="evenodd" d="M578.984 340.975v-5.274h5.274v5.274h-5.274z" fill="#6677FB"/><path fill-rule="evenodd" clip-rule="evenodd" d="M578.984 333.733v-5.274h5.274v5.274h-5.274z" fill="#29DDCC"/><path fill-rule="evenodd" clip-rule="evenodd" d="M578.984 326.492v-5.274h5.274v5.274h-5.274z" fill="#F77779"/><path fill-rule="evenodd" clip-rule="evenodd" d="M586.226 340.975v-5.274h5.274v5.274h-5.274z" fill="#FDB22B"/><path fill-rule="evenodd" clip-rule="evenodd" d="M586.226 333.733v-5.274h5.274v5.274h-5.274z" fill="#6677FB"/><path fill-rule="evenodd" clip-rule="evenodd" d="M586.226 326.492v-5.274h5.274v5.274h-5.274z" fill="#496EB1"/><path fill-rule="evenodd" clip-rule="evenodd" d="M571.734 319.774V314.5h5.274v5.274h-5.274z" fill="#6677FB"/><path fill-rule="evenodd" clip-rule="evenodd" d="M538.274 101.726a.75.75 0 0 1 .928.515c.287 1.005 1.497 3.222 3.911 3.911a.75.75 0 1 1-.412 1.443c-3.094-.885-4.573-3.653-4.942-4.942a.75.75 0 0 1 .515-.927zM538.47 67.97a.75.75 0 0 1 1.06 0c1.043 1.042 2.437 2.874 3.269 5.031.833 2.162 1.134 4.745-.189 7.171a.75.75 0 0 1-1.317-.718c1.038-1.903.847-3.992.106-5.913-.742-1.925-2.005-3.586-2.929-4.51a.75.75 0 0 1 0-1.061z" fill="#fff"/><path fill-rule="evenodd" clip-rule="evenodd" d="M529.5 119.5c14.359 0 26-11.641 26-26 0-14.36-11.641-26-26-26s-26 11.64-26 26c0 14.359 11.641 26 26 26zm0 1.5c15.188 0 27.5-12.312 27.5-27.5S544.688 66 529.5 66 502 78.312 502 93.5s12.312 27.5 27.5 27.5z" fill="#F77779"/><path fill-rule="evenodd" clip-rule="evenodd" d="M519.425 109.736c-.057-.1-.146-.138-.213-.136-3.571.119-6.777 1.296-7.943 1.879a.75.75 0 0 1-.671-1.341c1.323-.662 4.74-1.91 8.564-2.037a1.743 1.743 0 0 1 1.566.893 33.778 33.778 0 0 0 3.388 4.843c1.469 1.739 3.156 3.319 4.86 4.17a.75.75 0 0 1-.671 1.342c-1.971-.986-3.815-2.745-5.335-4.544a35.258 35.258 0 0 1-3.545-5.069zM541.972 106.02l.589.118c1.587.317 5.636.759 9.036.003a.75.75 0 0 1 .325 1.465c-3.312.735-7.105.424-9.067.108-1.678 3.59-4.8 8.693-6.204 10.878a.751.751 0 0 1-1.262-.811c1.475-2.295 4.791-7.728 6.339-11.212l.244-.549z" fill="#fff"/></g><defs><clipPath id="a"><path fill="#fff" d="M0 0h770v450H0z"/></clipPath></defs></svg>