<svg width="180" height="33" fill="none" xmlns="http://www.w3.org/2000/svg"><path fill-rule="evenodd" clip-rule="evenodd" d="M0 0h13.196c2.514 0 4.399.625 5.795 1.667 1.537 1.25 2.374 3.057 2.374 5.28 0 2.57-1.047 4.168-3.142 5.14v.14c2.793.903 4.4 3.404 4.4 6.391 0 2.848-1.118 5.071-2.933 6.46-1.536 1.112-3.491 1.599-6.145 1.599H0V0zm11.869 10.42c1.396 0 2.444-.764 2.444-2.362 0-1.528-1.048-2.292-2.514-2.292H7.261v4.585h4.608v.07zm3.422 7.642c0 1.737-1.187 2.71-2.793 2.71v.07H7.33v-5.49h5.167c1.536 0 2.793.835 2.793 2.71zM23.809 0h6.912v26.746H23.81V0zm8.308 17.229c0-6.044 3.91-10.073 9.985-10.073 6.074 0 9.914 4.098 9.914 10.073 0 6.044-3.84 10.073-9.914 10.073-6.075 0-9.985-4.03-9.985-10.073zm12.988 0c0-3.335-1.048-5.419-3.142-5.419-2.095 0-3.072 2.084-3.072 5.419 0 3.334.977 5.488 3.072 5.488 2.094-.07 3.142-2.154 3.142-5.488zM62.769 7.156c-6.075 0-9.985 4.029-9.985 10.073 0 6.044 3.91 10.073 9.915 10.073 6.074 0 9.915-4.03 9.915-10.073 0-6.044-3.77-10.073-9.845-10.073zm-.138 4.654c2.094 0 3.142 2.084 3.142 5.419 0 3.334-1.048 5.418-3.142 5.488-2.095 0-3.072-2.154-3.072-5.488 0-3.335.977-5.419 3.072-5.419zm17.803-4.168h-6.423v19.035h6.912V16.325c0-2.085.838-3.613 2.514-3.613 1.675 0 2.304 1.25 2.304 3.196v10.768h6.703V16.325c0-2.085.837-3.613 2.513-3.613s2.304 1.25 2.304 3.196v10.768h6.703v-11.95c0-4.376-1.885-7.641-6.354-7.641-2.373 0-4.398.764-5.934 3.265h-.14c-.908-2.084-2.723-3.265-5.167-3.265-2.793 0-4.538 1.18-5.795 3.404h-.14V7.642zm31.908 16.534h.07c1.117 2.153 3.282 3.126 5.376 3.126 5.027 0 8.03-3.752 8.03-10.212 0-5.766-2.793-10.074-7.611-10.074-2.444 0-4.189.904-5.446 2.57h-.14V0h-6.702v26.677h6.423v-2.501zm3.421-12.227c2.025 0 3.142 2.014 3.142 5.071 0 3.126-1.117 5.072-3.142 5.072s-3.351-2.015-3.351-5.072c0-3.056 1.257-5.071 3.351-5.071zm10.823 5.21c0-5.974 3.98-10.073 9.705-10.073 2.863 0 5.027.903 6.703 2.5 2.234 2.154 3.212 5.489 3.142 9.38h-12.847c.279 2.361 1.396 3.612 3.421 3.612 1.187 0 2.234-.556 2.653-1.806h6.494c-1.117 4.376-4.539 6.53-9.356 6.53-5.935-.07-9.915-4.099-9.915-10.143zm6.702-2.014h6.144c-.139-2.293-1.396-3.474-3.002-3.474-1.885-.07-2.932 1.25-3.142 3.474zm20.459-4.238h.139c1.397-2.64 3.212-3.682 5.516-3.682.559 0 .908.07 1.118.208v5.836h-.14c-3.98-.695-6.284 1.18-6.284 5.488v7.99h-6.773V7.641h6.424v3.265zm7.471 15.839h6.494c.279.834 1.117 1.598 2.723 1.598 2.164 0 2.932-1.32 2.932-3.335v-1.39h-.139c-1.048 1.251-2.514 2.154-4.609 2.154-4.119 0-7.75-3.056-7.75-9.03 0-5.489 2.933-9.727 7.401-9.727 2.584 0 4.12 1.043 5.167 2.64h.14V7.572H180v16.534c0 3.057-1.047 5.419-2.653 6.808-1.676 1.46-4.05 2.084-6.773 2.084-5.166.07-8.727-2.014-9.356-6.252zm12.427-10.281c0-2.363-1.117-4.308-3.072-4.308-1.885 0-3.072 1.668-3.072 4.308 0 2.57 1.187 4.376 3.072 4.376s3.072-1.876 3.072-4.377z" fill="#000"/></svg>