<svg width="180" height="26" fill="none" xmlns="http://www.w3.org/2000/svg"><path fill-rule="evenodd" clip-rule="evenodd" d="M38.623 18.703c0 4.905-4.393 7.297-8.542 7.297-2.136 0-4.637-.368-6.59-.92v-4.844h-3.905v-.49c1.77-.123 2.502-.43 2.014-1.595L20.5 15.576H15.56l-.854 2.084c-.427 1.104.06 1.963 1.83 2.147v.49h-4.881v-.49c.854-.123 1.342-.43 2.075-2.208L19.22 4.476h.488l5.614 13.43c.67 1.594 1.159 1.717 1.952 1.9v.491h-2.868c.489 1.35 1.22 2.392 1.892 3.066 1.037 1.043 2.502 1.656 4.271 1.656 2.685 0 5.126-1.717 5.126-4.109 0-2.023-.794-3.372-3.295-4.783l-4.394-2.452c-2.501-1.472-4.027-3.986-4.027-6.746C23.98 2.575 27.03 0 31.12 0c2.074 0 3.843.307 5.552.797v5.58h-.427c-.672-2.207-1.404-3.434-2.136-4.17-.854-.797-1.891-1.165-3.295-1.165-2.868 0-4.393 1.656-4.393 3.741 0 1.84.732 3.127 3.234 4.538l4.76 2.636c2.684 1.472 4.21 3.864 4.21 6.746zM61.993 13c0-7.85 3.723-11.958 8.055-11.958 2.563 0 4.21.552 5.186 1.595.733.736 1.282 1.778 1.892 3.434h.488V.797C75.112.307 72.854 0 70.597 0c-6.529 0-13.302 4.231-13.302 13s6.773 13 12.875 13c2.685 0 5.064-.43 7.322-1.104l.732-4.967-.427-.122a13.132 13.132 0 0 1-1.953 2.759 8.303 8.303 0 0 1-5.857 2.453c-4.15-.061-7.993-4.047-7.993-12.019zm96.347-9.627c0-1.779.549-2.392 1.464-2.392.915 0 1.648.368 2.502 2.392l5.186 11.835v7.48c0 1.78-.732 2.27-2.746 2.515v.49h9.58v-.49c-2.074-.245-2.746-.797-2.746-2.514v-7.481l5.004-11.406c.976-2.208 1.952-2.698 3.417-2.943V.368h-7.017v.49c2.379.246 3.234.92 2.562 2.515l-4.393 10.118-4.515-10.364c-.61-1.41-.244-1.84 2.38-2.207V.43h-15.072v.49c2.38.368 3.112.797 3.112 2.514v13.859L146.014.429h-5.43v.49c1.769.246 2.318.798 2.318 2.515V22.75c0 1.778-.488 2.392-1.098 2.392-.549 0-.854-.246-1.647-2.392L131.98.307h-.488l-7.871 21.462c-.854 2.392-2.197 3.189-3.539 3.495v.49h7.2v-.49c-2.502-.245-3.295-1.226-2.746-2.82l1.77-4.906h7.444l1.708 4.599c.733 2.085.305 2.698-1.83 3.066v.49h13.668v-.49c-2.38-.368-3.112-.797-3.112-2.514V5.396l13.362 20.359h.794V3.373zm-44.238 10.179a12.87 12.87 0 0 0 2.013.184c3.295 0 4.82-1.778 4.82-6.255 0-4.415-1.464-6.193-4.82-6.193h-2.013v12.264zM37.708.368v6.07h.488c.732-3.862 2.258-5.089 4.82-5.089h1.22v21.34c0 1.778-.731 2.269-2.745 2.514v.49h9.58v-.49c-2.075-.245-2.746-.797-2.746-2.514V1.288h1.22c2.563 0 4.088 1.226 4.82 5.09h.489V.306H37.708v.061zm54.367 25.387 7.26-20.297.55 17.292c.061 1.717-.61 2.208-2.685 2.453v.49h20.014v-.49c-2.38-.368-3.112-.797-3.112-2.514v-8.156c.793.123 1.586.184 2.197.184 4.82 0 8.969-1.778 8.969-7.175 0-5.396-4.149-7.174-8.969-7.174h-8.604v.49c1.77.246 2.319.798 2.319 2.515v19.316c0 1.778-.732 2.514-2.746 2.514h-.061c-2.136 0-3.051-.797-3.112-2.453l-.732-19.316c-.061-1.778.549-2.33 2.441-2.575V.368h-5.919L93.417 18.58 86.95.368h-6.345v.49c1.891.246 2.501.859 2.44 2.576l-.67 18.519c-.062 1.84-1.038 2.943-2.808 3.25v.49h6.712v-.49c-1.708-.245-2.684-1.35-2.624-3.25l.55-16.863 7.383 20.603.488.062zM79.994 13c0 4.538-4.15 7.42-7.383 7.42-3.295 0-7.383-2.944-7.383-7.42 0-4.538 4.149-7.42 7.383-7.42 3.294 0 7.383 2.944 7.383 7.42zM72.61 6.623c2.074 0 3.478 1.717 3.478 6.377 0 4.722-1.465 6.377-3.478 6.377-2.075 0-3.478-1.717-3.478-6.377 0-4.722 1.403-6.377 3.478-6.377zm54.061 9.872h6.773l-3.417-9.32-3.356 9.32zm-106.474-1.9h-4.15l2.075-5.09 2.075 5.09zm-7.444 1.287h-.489c-.793-2.698-1.647-3.311-3.05-3.373H6.407v10.119c0 1.716.732 2.146 3.112 2.514v.49H0v-.49c1.77-.246 2.319-.736 2.319-2.514V3.31c0-1.717-.55-2.268-2.319-2.514v-.49h16.17v6.07h-.489c-.732-3.863-2.257-5.09-4.82-5.09H6.407V11.59h2.807c1.464 0 2.257-.614 3.05-3.312h.489v7.604z" fill="#000"/></svg>