<svg width="180" height="26" fill="none" xmlns="http://www.w3.org/2000/svg"><g clip-path="url(#a)" fill="#000"><path d="M5.098 13.958V7.161l-1.942.971s-.486 1.214-.486 2.913c.122 1.335.85 2.913 1.335 3.52l1.093-.607zM11.167 0c.485 0 1.335.243 1.942.85.606.607.728 1.578.606 2.427-.242.728-.364 1.093-1.213 1.7-.85.485-1.82.364-1.82.364v3.277l1.577 1.335-1.578 1.214v4.49s1.578-.97 2.549-2.913c0 0 0-.12.121-.364.122.607 0 1.7-.607 3.035a5.742 5.742 0 0 1-2.427 2.67c-1.942 1.092-3.277 1.092-4.855.85C3.642 18.57 2.063 17.6.97 15.779.364 14.686 0 13.229 0 11.652.121 8.74 2.306 6.07 4.855 5.098c.364-.122.486-.122.971-.243-.243.121-.485.364-.728.486-.85.485-1.578 1.577-1.82 2.427l4.976-2.185v7.04l-4.006 2.063c.364.607 1.82 1.578 3.035 1.7 1.942.242 3.155-.607 3.155-.607v-4.612L8.86 9.953l1.578-1.335V5.34c-.85-.122-1.82-.365-2.549-.486-.85-.243-3.884-1.092-4.37-1.092-.363-.122-.97-.122-1.334.242-.364.243-.607.85-.486 1.336.122.242.243.485.486.606 0 0-.122 0-.486-.242-.607-.243-.97-.971-1.092-1.821 0-.971.364-1.942 1.335-2.67.728-.486 1.7-.85 2.67-.728 1.457.242 3.399 1.092 5.22 1.577.728.122 1.213.243 1.699 0 .242-.242.607-.606.242-1.213C11.41.243 10.681.243 10.074.12 10.56 0 10.681 0 11.167 0zM30.708 12.259l-2.306 1.7V8.374l2.306 3.884zm-.121-5.34s-1.578.97-2.55 1.577c-1.092.607-2.427 1.335-2.427 1.335v6.433l-.97.729.12.12.85-.727 2.792 2.549 4.976-3.884-.121-.122-2.67 2.064-2.185-2.064v-.728l4.49-3.277-2.305-4.006zM17.72 21.362c.608.122 1.822.243 3.157-.485 1.578-.729 2.306-2.428 2.306-4.006l.121-2.306v-5.22l.971-.727-.243-.122-.97.729-2.185-2.428-2.792 2.428V.97l-3.52 2.67c.121.122.607.243.728.85v11.652l-1.456 1.092.121.122.728-.486 2.064 1.82 3.156-2.548-.122-.121-.728.607-.85-.729V9.467l.971-.728 1.335 1.7v5.583c0 1.456 0 3.277-.85 4.248-.849.728-1.213.85-1.941 1.092zM39.811 20.755c-1.214-.121-1.82-.97-1.82-1.578 0-.364.364-1.092 1.092-1.213.728-.122 1.578.242 2.185 1.092l2.913-3.277-.122-.122-.728.85c-.85-.97-1.942-1.456-3.034-1.7v-9.83l7.646 13.836s.122.122.364.122c.243 0 .243-.243.243-.243V4.734c.607 0 1.578-.364 2.064-.85 1.456-1.456.85-3.156.728-3.277-.121.728-.607 1.456-1.578 1.456-1.214 0-1.942-.85-1.942-.85l-2.913 3.4v.12l.85-.97c.97.97 1.699 1.092 2.548 1.092v8.132L42.603 2.792c-.486-.85-1.335-1.578-2.55-1.578-1.456 0-2.427 1.214-2.548 2.306-.121 1.214 0 1.456 0 1.456s.243-1.335 1.092-1.335c.729 0 1.093.729 1.457 1.214v2.913c-.728 0-2.792.121-2.913 2.185 0 .728.485 1.578.85 1.82.485.365.97.365.97.365s-.606-.365-.485-.972c.243-.606 1.578-.728 1.578-.485v4.248c-.607 0-2.549 0-3.399 1.7-.485.97-.485 2.184.122 2.912.364.729 1.335 1.457 3.034 1.214zM55.954 12.259l-2.306 1.7V8.374l2.306 3.884zm-.121-5.34s-1.578.97-2.55 1.577a426.845 426.845 0 0 1-2.427 1.335v6.433l-.97.729.12.12.85-.727 2.792 2.549 4.976-3.884-.121-.122-2.67 2.064-2.185-2.064v-.728l4.49-3.277-2.305-4.006zM62.751 18.935l-2.427-2.064-1.093.729-.121-.122 1.092-.728v-5.583c0-2.307-2.063-1.7-1.942-4.127 0-1.093 1.093-1.942 1.578-2.185.607-.243 1.214-.243 1.214-.243s-.971.607-.728 1.457c.364 1.335 2.67 1.456 2.791 3.277v6.433l1.7 1.335.485-.364V9.83l-.97-.85 2.427-2.184L68.94 8.74l-.97.971v6.069l2.063 1.7.364-.244V9.953l-.971-.85 2.427-2.185L74.16 8.74l.85-.85.121.122-2.063 1.82v5.948l-5.098 3.156-2.67-2.064-2.549 2.064zM168.591 12.259l-2.306 1.7V8.374l2.306 3.884zm-.122-5.34s-1.578.97-2.549 1.577c-1.092.607-2.427 1.335-2.427 1.335v6.433l-.971.729.121.12.85-.727 2.792 2.549 4.976-3.884-.121-.122-2.671 2.185-2.184-2.063v-.729l4.49-3.277-2.306-4.127zM145.408 9.589l.121.121.971-.728 1.335 1.456v5.34l-.728.73 2.185 2.305 2.185-2.063-.85-.971V9.346l.486-.486 1.577 1.821v5.34l-.606.486 2.063 2.306 2.063-2.185-.728-.85V9.347l.607-.486 1.578 1.7v5.34l-.607.486 2.306 2.427 2.913-2.67-.121-.243-.728.728-1.093-1.213v-6.07l1.093-.849-.122-.121-1.092.85-2.064-2.307-2.913 2.307-1.942-2.307-2.913 2.307-2.063-2.185-2.913 2.549z"/><path d="m139.339 9.467.122.122.728-.729 1.214 1.457v6.19l-.85.728.121.122.971-.729 1.942 2.185 2.792-2.549-.121-.121-.85.728-1.092-1.335V9.59l.971-.85-.122-.121-.971.728-2.063-2.428-2.792 2.55zM140.067 4.37l2.185-1.943 1.821 1.943-2.185 1.942-1.821-1.942z"/><path d="M131.207 13.958V7.161l-2.063.971s-.486 1.214-.486 2.913c.121 1.335.85 2.913 1.335 3.52l1.214-.607zM137.276 0c.485 0 1.335.243 1.942.85s.728 1.578.607 2.427c-.243.728-.364 1.093-1.214 1.7-.728.485-1.699.485-1.699.485v3.277l1.578 1.335-1.578 1.335V15.9s1.578-.97 2.549-2.913c0 0 0-.121.121-.364.121.607 0 1.7-.607 3.035a5.74 5.74 0 0 1-2.427 2.67c-1.942 1.092-3.278 1.092-4.855.85-1.821-.365-3.399-1.336-4.491-3.156-.729-1.214-1.093-2.67-1.093-4.249.122-3.034 2.306-5.583 4.855-6.554.364-.121.486-.243.85-.243-.243.122-.486.365-.728.486-.85.485-1.578 1.578-1.821 2.427l4.976-2.184v7.04l-4.005 2.063c.486.607 1.821 1.578 3.034 1.7 2.064.242 3.278-.608 3.278-.608v-4.733L134.97 9.83l1.578-1.335V5.341c-.85-.122-1.942-.365-2.549-.486-.85-.243-3.884-1.092-4.37-1.092-.485-.122-1.092 0-1.456.242-.365.365-.607.85-.365 1.336.122.242.243.485.486.606 0 0-.121 0-.486-.242-.606-.364-.971-.971-1.092-1.821-.121-1.092.364-2.063 1.214-2.67.728-.486 1.699-.85 2.67-.728 1.457.242 3.52 1.092 5.219 1.456.729.121 1.214.243 1.7 0 .242-.121.606-.607.242-1.092-.364-.607-1.092-.607-1.699-.729.607-.121.728-.121 1.214-.121zM174.902 8.132v3.156l1.093.97s2.306-1.82 3.155-3.64c0 0-1.092 1.456-2.427.97-1.214-.242-1.821-1.456-1.821-1.456zm-2.549 8.496s.971-1.699 2.792-1.335c1.699.365 2.306 2.064 2.306 2.064V13.35l-1.214-.97c-1.335 1.213-3.641 3.155-3.884 4.247zm1.578 3.156c-.364.122-1.699-.242-2.063-1.699-.364-1.457.607-2.428 2.185-3.884l-1.821-1.578V9.346s1.335-.607 2.306-1.335c.971-.607 2.063-1.335 2.063-1.335s.729.97 1.578.85c1.336-.122 1.336-1.214 1.214-1.457.243.364.85 1.578-1.578 4.37l1.942 1.577v4.006s-2.185 1.213-4.369 2.67c0 0-1.214-1.457-2.185-.728-.486.607-.243 1.456.728 1.82zM96.494 15.172l2.549 2.306V10.56l-2.55-2.306v6.918zm5.097-5.583.85-.85.121.121-.849.85v6.433s-1.578.85-2.67 1.456c-1.093.607-2.307 1.336-2.307 1.336l-2.913-2.428-.728.728-.243-.242.85-.729V9.346s1.335-.607 2.549-1.335a36.57 36.57 0 0 0 2.185-1.335l3.155 2.913zM107.417 8.86l1.821-1.82s.243.243.486.364c.121.121.728.364 1.213.121.364-.242.364-.364.729-.607.121 1.457-.607 2.55-1.578 2.913-.364.122-1.457.486-2.549-.85v6.92l1.214 1.092.971-.85.121.121-3.156 2.55-2.306-2.064-.85.85-.121-.122 1.335-1.214v-5.947l-.971-1.335-.971.728-.121-.121 3.034-2.67 1.699 1.941zM115.307 11.773l3.52-4.976s.485.486 1.213.728c1.093.243 2.064-.728 2.064-.728-.122 1.335-.85 2.913-2.306 3.156-1.214.242-2.428-.728-2.428-.728l-.243.364 4.855 7.282.971-.85.122.122-3.277 2.913-4.491-7.283z"/><path d="M112.394 5.098c0-1.093-.486-1.7-.971-1.7l3.762-2.67v15.05l.971 1.093.729-.607.121.122-3.034 2.67-2.064-2.063-.849.728-.122-.122 1.457-1.213V5.098zM88.119 9.225s-.365.485-1.093.485c-.607 0-1.092-.485-1.092-.485v2.063s.485-.486 1.092-.486c.607 0 1.093.486 1.093.486V9.225zm0-4.37-1.457-1.214-.728.607v4.855s.485.607 1.092.607c.607 0 1.093-.485 1.093-.485v-4.37zM86.055 18.57s.85.243 1.578-.242c.728-.607.607-1.457.607-1.457v-5.219s-.364-.486-1.092-.486c-.607 0-1.093.607-1.093.607v6.797zM80.836 4.855c0-.971-.364-1.578-1.092-1.578-.971 0-1.214 1.335-1.214 1.335s-.121-1.092.728-1.942c.486-.485 1.457-1.214 2.792-.97 1.456.363 1.942 1.456 1.942 2.548v13.958s.607.122.97.122c.486.121.85.242.85.242V1.578h.243v2.306l3.035-2.428 2.184 1.942.971-.85.122.122-1.093.971v12.987c0 .85-.242 1.7-.97 2.185-1.821 1.093-3.885-.121-5.827-.485-1.456-.243-3.64-.486-4.248.85-.242.485-.121 1.092.486 1.577 1.335.85 7.04-1.456 9.103-.485 1.82.85 1.82 2.184 1.578 3.034-.486 1.7-2.67 2.064-2.67 2.064s1.092-.607.728-1.578c-.122-.486-.486-.607-1.578-.486-2.428.243-5.462 1.457-7.404.607-.971-.486-1.7-1.7-1.7-2.913 0-1.82 2.185-2.549 2.185-2.549v-6.918c0-.243-1.213-.243-1.456.242-.364.729.486 1.093.486 1.093s-.729.121-1.214-.607c-.243-.364-.85-1.457-.122-2.549.607-.85 1.336-.971 2.306-1.092V4.855h-.12z"/></g><defs><clipPath id="a"><path fill="#fff" d="M0 0h180v25.246H0z"/></clipPath></defs></svg>