<svg width="180" height="31" fill="none" xmlns="http://www.w3.org/2000/svg"><path d="M15.284 8.275h-4.445V1.613H3.642v6.662H0v4.667h3.642v9.802c0 5.982 1.566 7.765 7.705 7.765 1.312 0 2.625-.17 3.937-.213v-5.303c-.635 0-1.27.085-1.862.085-1.568 0-2.583-.382-2.583-2.122V12.942h4.445V8.275z" fill="#286F8D"/><path d="M21.287 17.07c.423-2.653 2.117-4.464 4.657-4.464 2.413 0 4.15 2.021 4.276 4.464h-8.933zm16.13 4.003C37.756 13.658 33.82 7.76 25.944 7.76c-6.477 0-11.854 4.802-11.854 11.5 0 7.33 4.868 11.627 12.023 11.627 4.912 0 9.61-2.191 10.924-7.247h-6.732c-.677 1.602-2.371 2.402-4.107 2.402-3.048 0-4.783-1.98-4.91-4.97h16.13zM60.167 16.336c-.508-5.813-5.377-8.699-10.839-8.699-7.07 0-11.515 5.008-11.515 12.009 0 6.746 4.911 11.288 11.515 11.288 5.843 0 10.416-3.396 11.051-9.294h-6.986c-.339 2.334-1.61 3.777-4.107 3.777-3.048 0-4.277-2.928-4.277-5.771 0-3.055.637-6.492 4.659-6.492 1.82 0 3.47 1.315 3.513 3.182h6.986zM60.533 30.296h7.198V18.288c0-2.419 1.185-4.71 3.895-4.71 3.937 0 3.599 3.055 3.599 6.068v10.65h7.197v-14.13c0-3.181-.593-8.529-7.917-8.529-2.625 0-5.589 1.4-6.69 3.65h-.084V0h-7.198v30.296z" fill="#286F8D"/><path d="M82.968 30.363h7.199V19.447c0-2.76 1.863-5.223 5.419-5.223.974 0 1.82.17 2.752.425V8.065a7.626 7.626 0 0 0-1.694-.17c-3.09 0-5.546 1.487-6.605 4.29h-.084V8.32h-6.987v22.042z" fill="#000"/><path d="M104.593 24.035c0-1.742 1.355-2.421 2.963-2.804 1.568-.424 3.43-.552 4.447-1.19.169 4.545-.974 6.5-4.404 6.5-1.608 0-3.006-.723-3.006-2.506zm.423-8.92c.34-1.869 1.609-2.76 3.599-2.76 1.483 0 3.472.637 3.472 2.294 0 1.358-.677 1.783-1.905 2.038-4.996 1.019-12.786.467-12.786 7.645 0 4.544 3.303 6.668 7.494 6.668 2.625 0 5.377-.765 7.239-2.718.086.721.169 1.401.424 2.08h7.239c-.846-1.74-.846-3.779-.846-5.648v-9.64c0-6.245-5.039-7.39-10.246-7.39-2.498 0-5.038.424-6.986 1.528-1.947 1.146-3.302 3.016-3.43 5.903h6.732z" fill="#000"/><path d="M130.724 13.182c3.133 0 4.276 2.934 4.276 6.123 0 2.807-.762 6.167-4.276 6.167-3.303 0-4.403-3.36-4.403-6.379 0-2.807 1.1-5.911 4.403-5.911zM141.943 0h-7.197v10.673h-.085c-1.481-1.998-3.556-3.018-6.266-3.018-6.224 0-9.272 5.442-9.272 11.183 0 6.209 2.921 12.162 9.823 12.162 2.54 0 4.657-1.106 6.054-3.19h.084v2.552h6.859V0zM149.231 24.035c0-1.742 1.354-2.421 2.964-2.804 1.566-.424 3.429-.552 4.445-1.19.169 4.545-.974 6.5-4.404 6.5-1.608 0-3.005-.723-3.005-2.506zm.423-8.92c.339-1.869 1.61-2.76 3.599-2.76 1.482 0 3.471.637 3.471 2.294 0 1.358-.677 1.783-1.905 2.038-4.995 1.019-12.785.467-12.785 7.645 0 4.544 3.302 6.668 7.493 6.668 2.625 0 5.377-.765 7.24-2.718.085.721.169 1.401.423 2.08h7.239c-.846-1.74-.846-3.779-.846-5.648v-9.64c0-6.245-5.037-7.39-10.245-7.39-2.498 0-5.039.424-6.986 1.528-1.947 1.146-3.302 3.016-3.43 5.903h6.732zM164.63 30.363h7.199V19.447c0-2.76 1.863-5.223 5.419-5.223.974 0 1.82.17 2.752.425V8.065a7.628 7.628 0 0 0-1.694-.17c-3.091 0-5.546 1.487-6.605 4.29h-.084V8.32h-6.987v22.042z" fill="#000"/><path fill-rule="evenodd" clip-rule="evenodd" d="M173.017 30.363h6.969v-7.048h-6.969v7.048z" fill="#E93A97"/></svg>