<svg width="102" height="72" viewBox="0 0 102 72" fill="none" xmlns="http://www.w3.org/2000/svg">
<path fill-rule="evenodd" clip-rule="evenodd" d="M66.2707 48.0148C66.1165 48.409 65.8132 48.7259 65.4273 48.8961L25.0842 66.5832C24.6973 66.7517 24.2598 66.7595 23.8672 66.6048C23.4746 66.4501 23.1589 66.1455 22.9891 65.7576L5.39055 25.2065C5.22319 24.8175 5.21572 24.3777 5.36978 23.9832C5.52384 23.5887 5.82692 23.2714 6.21287 23.1007L46.556 5.41535C46.9428 5.24659 47.3805 5.23872 47.7731 5.39345C48.1657 5.54819 48.4814 5.85293 48.651 6.24101L66.2505 46.792C66.4177 47.1809 66.425 47.6205 66.2707 48.0148ZM35.7932 19.4602H45.7928C51.94 19.4602 57.0031 24.3124 57.0031 30.55C57.0031 36.7876 51.9086 41.6432 45.7928 41.6432H42.1456V36.7577H44.6806C48.1043 36.7577 51.0322 34.8774 51.0322 30.55C51.0322 26.5779 48.4282 24.3457 44.74 24.3457H41.5302V35.4249L37.3374 41.6432H13.5244L25.2044 24.3457H14.5213L17.7783 19.4602H35.4196L23.799 36.7577H35.7932V19.4602Z" fill="white"/>
<path d="M58.9412 19.2075H63.903L68.156 28.1467C69.2794 30.5263 70.141 32.8752 70.588 34.4808C70.4118 32.4374 70.2945 30.3892 70.2362 28.3389L70.141 19.2075H74.3958V41.5581H69.722L65.9169 33.0024C64.7026 30.2052 63.3242 27.0552 62.9078 25.6715C63.0702 27.5053 63.1042 30.1429 63.133 32.0074L63.2614 41.559H58.9412V19.2075ZM88.8177 37.1842L90.4815 39.7577C88.5933 41.2993 86.6091 42.0425 84.3063 42.0425C79.6029 42.0425 76.5642 38.6977 76.5642 33.5192C76.5642 30.5614 77.1709 28.5986 78.6103 26.9894C79.9555 25.4785 81.5871 24.7695 83.7625 24.7695C85.6489 24.7695 87.4428 25.4135 88.4964 26.5094C89.9996 28.052 90.6727 30.271 90.6727 33.714V34.7081H81.2012V34.838C81.2012 37.3763 82.4513 38.825 84.659 38.825C86.1308 38.825 87.5056 38.2783 88.8177 37.1842ZM81.2676 31.5564H86.2276V31.3642C86.2276 30.1429 86.0993 29.4988 85.7144 28.8864C85.2962 28.2441 84.6895 27.9212 83.8262 27.9212C82.1964 27.9212 81.2676 29.2075 81.2676 31.4923V31.5564ZM101.901 25.0617L100.815 27.9203H98.063V36.3173C98.063 38.4073 98.4471 38.9557 99.9198 38.9557C100.303 38.9557 100.686 38.8557 101.456 38.6311L102 41.2028C100.753 41.7196 99.6308 41.9451 98.5126 41.9451C96.3372 41.9451 94.5756 40.979 94.0964 39.5339C93.8406 38.825 93.8083 38.5021 93.8083 36.992V27.9203H92.1768V25.124H93.8083C93.8083 23.5165 93.8083 22.4242 93.9707 21.2019L98.3188 20.1078C98.1484 21.7532 98.063 23.4065 98.063 25.0608H101.901V25.0617Z" fill="white"/>
</svg>
