<svg width="104" height="105" fill="none" xmlns="http://www.w3.org/2000/svg"><path fill-rule="evenodd" clip-rule="evenodd" d="M8.5 102.5h87.794V17.448L83.516 1.5H8.5v101zM7 1v102a1 1 0 0 0 1 1h88.794a1 1 0 0 0 1-1V17.272a1 1 0 0 0-.22-.625L84.537.375a1 1 0 0 0-.78-.375H8a1 1 0 0 0-1 1z" fill="#fff"/><path fill-rule="evenodd" clip-rule="evenodd" d="M83.012 16.333V.825h1.5v15.508c0 .138.112.25.25.25h12.206v1.5H84.762a1.75 1.75 0 0 1-1.75-1.75z" fill="#fff"/><path d="M94.9 103.54h2.243V84.292c-2.244-2.792-3.126-2.16-5.743-4.832-1.59-1.593-3.293-1.463-4.882-2.447-1.776-1.125-4.42-1.383-6.103-2.04-.748-.328-2.053-.333-2.847-.614-1.122-.422-2.244-.89-3.366-1.359l-.478 1.36-.14.28c-.608.985-1.123 1.688-2.01 2.625-2.572 2.718-6.171 4.78-10.425 5.999-2.851.797-5.937 1.265-9.349 1.359-3.74.094-6.965-.187-9.957-.844-4.627-1.03-8.273-2.999-10.798-5.764-.748-.844-1.355-1.687-1.87-2.672l-.093.047-.608-1.64c-1.215.562-2.477 1.031-3.692 1.5-1.683.656-3.413 1.359-5.049 2.156-3.038 1.5-5.703 3.702-8.18 6.655-.889 1.124-1.777 2.296-2.618 3.561l-.468.75L8 88.138v15.402h86.9z" fill="#29DDCC"/><path fill-rule="evenodd" clip-rule="evenodd" d="M66.222 67.253a.75.75 0 0 1 1.05.16c1.892 2.569 3.76 3.932 6.279 5.017 1.778.766 3.849 1.383 6.487 2.17 1.2.357 2.518.75 3.98 1.208 7.185 2.251 11.71 6.223 13.334 8.242l-.584.47.584-.47c.252.313.365.69.365 1.056v17.243a1.75 1.75 0 0 1-1.75 1.75H8.824a1.75 1.75 0 0 1-1.75-1.75V90.661c0-.118.011-.242.041-.373.693-3.026 4.142-9.603 12.686-13.618 4.199-1.973 6.972-2.852 9.284-3.584.618-.196 1.202-.381 1.773-.574 2.664-.902 5.119-1.998 9.45-5.254a.75.75 0 1 1 .901 1.199c-4.45 3.346-7.046 4.52-9.87 5.476a99.45 99.45 0 0 1-1.826.59c-2.305.732-4.973 1.578-9.074 3.505-8.118 3.815-11.27 10.01-11.862 12.595a.164.164 0 0 0-.003.038v11.688c0 .138.112.25.25.25h87.143a.25.25 0 0 0 .25-.25V85.106a.181.181 0 0 0-.034-.116c-1.438-1.79-5.715-5.59-12.614-7.75-1.39-.436-2.67-.818-3.856-1.171-2.693-.803-4.893-1.459-6.755-2.261-2.75-1.185-4.835-2.71-6.895-5.506a.75.75 0 0 1 .16-1.049z" fill="#fff"/><path fill-rule="evenodd" clip-rule="evenodd" d="M41.336 11.905h7.804v7.804h-7.804v-7.804z" fill="#496EB1"/><path fill-rule="evenodd" clip-rule="evenodd" d="M52.258 11.905h7.804v7.804h-7.804v-7.804z" fill="#29DDCC"/><path fill-rule="evenodd" clip-rule="evenodd" d="M63.18 11.905h7.804v7.804H63.18v-7.804z" fill="#FFF3D3"/><path fill-rule="evenodd" clip-rule="evenodd" d="M30.465 22.827h7.804v7.804h-7.804v-7.804z" fill="#29DDCC"/><path fill-rule="evenodd" clip-rule="evenodd" d="M41.387 22.827h7.804v7.804h-7.804v-7.804z" fill="#F77779"/><path fill-rule="evenodd" clip-rule="evenodd" d="M52.309 22.827h7.804v7.804h-7.804v-7.804z" fill="#FDB22B"/><path fill-rule="evenodd" clip-rule="evenodd" d="M63.231 22.827h7.804v7.804h-7.804v-7.804z" fill="#6677FB"/><path fill-rule="evenodd" clip-rule="evenodd" d="M30.465 33.75h7.804v7.803h-7.804V33.75z" fill="#FFF3D3"/><path fill-rule="evenodd" clip-rule="evenodd" d="M41.387 33.75h7.804v7.803h-7.804V33.75z" fill="#496EB1"/><path fill-rule="evenodd" clip-rule="evenodd" d="M52.309 33.75h7.804v7.803h-7.804V33.75z" fill="#29DDCC"/><path fill-rule="evenodd" clip-rule="evenodd" d="M63.231 33.75h7.804v7.803h-7.804V33.75zM30.465 44.671h7.804v7.804h-7.804v-7.804z" fill="#F77779"/><path fill-rule="evenodd" clip-rule="evenodd" d="M41.387 44.671h7.804v7.804h-7.804v-7.804z" fill="#FDB22B"/><path fill-rule="evenodd" clip-rule="evenodd" d="M52.309 44.671h7.804v7.804h-7.804v-7.804z" fill="#6677FB"/><path fill-rule="evenodd" clip-rule="evenodd" d="M63.231 44.671h7.804v7.804h-7.804v-7.804z" fill="#496EB1"/><path fill-rule="evenodd" clip-rule="evenodd" d="M41.336 55.594h7.804v7.804h-7.804v-7.804z" fill="#29DDCC"/><path fill-rule="evenodd" clip-rule="evenodd" d="M52.258 55.594h7.804v7.804h-7.804v-7.804z" fill="#6677FB"/><path fill-rule="evenodd" clip-rule="evenodd" d="M63.18 55.594h7.804v7.804H63.18v-7.804z" fill="#FFF3D3"/></svg>