<svg width="104" height="104" fill="none" xmlns="http://www.w3.org/2000/svg"><path fill-rule="evenodd" clip-rule="evenodd" d="M8.45 8.201a.246.246 0 0 0-.247.247v15.82a.74.74 0 1 1-1.479 0V8.449c0-.953.772-1.725 1.725-1.725H24.27a.74.74 0 1 1 0 1.478H8.45zM96.395 8.201c.136 0 .246.11.246.247v15.82a.74.74 0 0 0 1.48 0V8.449c0-.953-.773-1.725-1.726-1.725H80.574a.74.74 0 0 0 0 1.478h15.821zM96.395 95.799c.136 0 .246-.11.246-.247v-15.82a.74.74 0 0 1 1.48 0v15.82c0 .953-.773 1.725-1.726 1.725H80.574a.74.74 0 0 1 0-1.478h15.821zM8.449 95.799a.246.246 0 0 1-.247-.247v-15.82a.74.74 0 1 0-1.479 0v15.82c0 .953.773 1.725 1.726 1.725h15.82a.74.74 0 0 0 0-1.478H8.45z" fill="#fff"/><path fill-rule="evenodd" clip-rule="evenodd" d="M52 0a.74.74 0 0 1 .74.74v14.705a.74.74 0 0 1-1.48 0V.74A.74.74 0 0 1 52 0zM52 87.815a.74.74 0 0 1 .74.74v14.706a.74.74 0 0 1-1.48 0V88.555a.74.74 0 0 1 .74-.74zM104 51.16a.74.74 0 0 1-.739.739H88.555a.74.74 0 0 1 0-1.479h14.706a.74.74 0 0 1 .739.74zM16.185 51.16a.74.74 0 0 1-.74.739H.74a.74.74 0 1 1 0-1.479h14.706a.74.74 0 0 1 .74.74z" fill="#F77779"/><path fill-rule="evenodd" clip-rule="evenodd" d="M55.7 25.614a1028.28 1028.28 0 0 1 7.362 3.803.437.437 0 0 1 .263.308.625.625 0 0 1 .03.082v.098c.163.488.292 1.011.415 1.51v.003l.072.291c.17.633.34 1.253.511 1.873v.002l.001.002c.171.622.342 1.244.512 1.878.537 1.901 1.06 3.803 1.585 5.705.524 1.901 1.048 3.803 1.585 5.704.61 2.194 1.218 4.4 1.828 6.606v.002l.002.005c.609 2.204 1.218 4.409 1.827 6.601.512 1.829 1.011 3.645 1.511 5.461.5 1.817 1 3.633 1.512 5.461.22.756.426 1.512.634 2.268.207.755.414 1.511.634 2.267.048.292-.098.585-.39.683-.707.194-1.402.39-2.097.585-.695.195-1.39.39-2.097.585a2510.64 2510.64 0 0 1-18.138 5.022 784.6 784.6 0 0 1-5.73 1.585 786.079 786.079 0 0 0-5.729 1.584c-.292.05-.585-.097-.682-.39-.025-.048-.037-.097-.05-.146-.011-.049-.024-.098-.048-.146-.44-1.72-.913-3.408-1.392-5.116v-.001l-.315-1.124c-1.024-3.853-2.096-7.704-3.169-11.556-.656-2.435-1.328-4.854-1.998-7.266-.525-1.888-1.048-3.772-1.561-5.656l-2.926-10.532c-.146-.512-.293-1.036-.439-1.56-.146-.524-.292-1.048-.439-1.56-.026-.106-.067-.229-.11-.36-.117-.355-.253-.77-.182-1.054.045-.226.215-.451.356-.638l.034-.045c.146-.244.305-.5.463-.756.159-.256.317-.512.463-.756.512-.828 1.012-1.645 1.512-2.462.5-.817 1-1.633 1.511-2.462 1.049-1.682 2.084-3.364 3.12-5.046h.001v-.001c1.036-1.682 2.072-3.364 3.12-5.046l.079-.133c.605-1.027 1.195-2.029 2.457-2.403 1.264-.406 2.277.107 3.349.65l.26.13c3.51 1.853 6.972 3.657 10.483 5.461zM47.457 30.1c-.195 1.414-1.414 2.487-2.78 2.535-1.218.05-2.388-.682-2.827-1.804-.488-1.17-.146-2.486.78-3.315.878-.83 2.292-.975 3.316-.39 1.072.585 1.657 1.755 1.511 2.974zm5.662 16.947c1.073.439 1.853 1.22 2.292 2.34l2-.487a5.341 5.341 0 0 0-1.756-2.584c-.83-.683-1.804-1.122-2.926-1.317-1.014-.176-2.109-.113-3.283.153l-.666-2.396-1.317.39.674 2.424c-.886.351-1.677.797-2.332 1.38a6.332 6.332 0 0 0-1.901 2.681c-.39 1.024-.39 2.097-.098 3.218.39 1.317 1.122 2.292 2.292 2.926 1.17.634 2.633.927 4.388.975l.763.014 2.374 8.54a6.72 6.72 0 0 1-1.918.077c-.877-.098-1.609-.342-2.243-.78a3.656 3.656 0 0 1-1.414-1.853l-1.95.536c.39 1.073.975 1.95 1.804 2.633.829.683 1.853 1.121 3.023 1.268.968.12 2.035.075 3.175-.165l.628 2.261 1.317-.39-.617-2.22c1.236-.394 2.255-.965 3.055-1.68.926-.83 1.56-1.756 1.901-2.828.342-1.073.342-2.146.05-3.267-.245-.878-.635-1.56-1.122-2.097-.488-.536-1.073-.926-1.756-1.219a8.238 8.238 0 0 0-2.145-.585 16.568 16.568 0 0 0-2.194-.146H52.14l-2.227-8.01c1.165-.224 2.223-.176 3.205.208zm-4.52.185 2.117 7.617c-.505 0-1.047-.007-1.546-.098-.537-.097-1.073-.195-1.56-.39a3.087 3.087 0 0 1-1.268-.78c-.39-.342-.634-.83-.78-1.365a3.368 3.368 0 0 1 .048-2.195 4.949 4.949 0 0 1 1.366-1.852c.449-.38.995-.687 1.623-.937zm4.082 9.557 2.27 8.167a7.146 7.146 0 0 0 2.069-1.136c.731-.585 1.219-1.267 1.511-1.999.293-.78.342-1.56.098-2.389-.195-.731-.536-1.268-1.024-1.61-.487-.39-1.121-.633-1.853-.78a13.158 13.158 0 0 0-2.535-.243l-.536-.01z" fill="#6677FB"/></svg>