<svg width="104" height="104" fill="none" xmlns="http://www.w3.org/2000/svg"><path fill-rule="evenodd" clip-rule="evenodd" d="M98 17.5H6A4.5 4.5 0 0 0 1.5 22v59.314a4.5 4.5 0 0 0 4.5 4.5h92a4.5 4.5 0 0 0 4.5-4.5V22a4.5 4.5 0 0 0-4.5-4.5zM6 16a6 6 0 0 0-6 6v59.314a6 6 0 0 0 6 6h92a6 6 0 0 0 6-6V22a6 6 0 0 0-6-6H6z" fill="#fff"/><path fill-rule="evenodd" clip-rule="evenodd" d="M28.77 35.029a5 5 0 0 0-5 5v25.657a5 5 0 0 0 5 5h46.457a5 5 0 0 0 5-5V40.029a5 5 0 0 0-5-5H28.769zm13.397 23.824h-2.05l4.569-12.682h2.22l4.569 12.682h-2.05l-1.15-3.33h-4.957l-1.151 3.33zm3.672-10.376 1.874 5.423H43.88l1.874-5.423h.086zM57.45 58.853h-4.099V46.17h4.227c1.239 0 2.306.257 3.203.769a5.052 5.052 0 0 1 2.05 2.178c.469.939.725 2.092.725 3.415 0 1.324-.256 2.477-.726 3.416-.47.94-1.195 1.666-2.092 2.178-.897.47-2.007.726-3.288.726zm-2.22-1.666h2.092c.982 0 1.75-.17 2.391-.555a3.712 3.712 0 0 0 1.452-1.58c.299-.683.47-1.536.47-2.561 0-.982-.171-1.836-.47-2.52-.299-.683-.768-1.238-1.409-1.58a4.842 4.842 0 0 0-2.306-.554h-2.22v9.35z" fill="#F77779"/><path d="M11 24.5a2.5 2.5 0 1 1-5 0 2.5 2.5 0 0 1 5 0z" fill="#F77779"/><path d="M18 24.5a2.5 2.5 0 1 1-5 0 2.5 2.5 0 0 1 5 0z" fill="#FDB22B"/><path d="M25 24.5a2.5 2.5 0 1 1-5 0 2.5 2.5 0 0 1 5 0z" fill="#29DDCC"/></svg>