<svg width="104" height="104" fill="none" xmlns="http://www.w3.org/2000/svg"><path fill-rule="evenodd" clip-rule="evenodd" d="m11.036 75.96.241 6.04-5.406 3.62h90.127a8 8 0 0 0 8-8V18H11.036v57.96zm1.5-56.46v57.96L11 83 7.37 84.12h88.627a6.5 6.5 0 0 0 6.5-6.5V19.5H12.536z" fill="#fff"/><path fill-rule="evenodd" clip-rule="evenodd" d="M11.043 25.445H1.5v53.903a4.771 4.771 0 0 0 9.543 0V25.445zM0 23.945v55.403a6.271 6.271 0 0 0 12.543 0V23.945H0z" fill="#fff"/><path fill-rule="evenodd" clip-rule="evenodd" d="M53.078 37.32a.75.75 0 0 1 .75-.75h17.707a.75.75 0 1 1 0 1.5H53.828a.75.75 0 0 1-.75-.75z" fill="#F77779"/><path fill-rule="evenodd" clip-rule="evenodd" d="M76.688 37.32a.75.75 0 0 1 .75-.75h17.707a.75.75 0 1 1 0 1.5H77.438a.75.75 0 0 1-.75-.75zM53.078 45.122a.75.75 0 0 1 .75-.75h17.707a.75.75 0 0 1 0 1.5H53.828a.75.75 0 0 1-.75-.75z" fill="#fff"/><path fill-rule="evenodd" clip-rule="evenodd" d="M76.688 45.122a.75.75 0 0 1 .75-.75h17.707a.75.75 0 0 1 0 1.5H77.438a.75.75 0 0 1-.75-.75zM53.078 52.553a.75.75 0 0 1 .75-.75h17.707a.75.75 0 0 1 0 1.5H53.828a.75.75 0 0 1-.75-.75z" fill="#6677FB"/><path fill-rule="evenodd" clip-rule="evenodd" d="M76.688 52.553a.75.75 0 0 1 .75-.75h17.707a.75.75 0 0 1 0 1.5H77.438a.75.75 0 0 1-.75-.75zM53.078 59.983a.75.75 0 0 1 .75-.75h17.707a.75.75 0 0 1 0 1.5H53.828a.75.75 0 0 1-.75-.75z" fill="#F77779"/><path fill-rule="evenodd" clip-rule="evenodd" d="M76.688 59.983a.75.75 0 0 1 .75-.75h17.707a.75.75 0 0 1 0 1.5H77.438a.75.75 0 0 1-.75-.75zM53.078 67.414a.75.75 0 0 1 .75-.75h17.707a.75.75 0 0 1 0 1.5H53.828a.75.75 0 0 1-.75-.75z" fill="#29DDCC"/><path fill-rule="evenodd" clip-rule="evenodd" d="M76.688 67.414a.75.75 0 0 1 .75-.75h17.707a.75.75 0 0 1 0 1.5H77.438a.75.75 0 0 1-.75-.75z" fill="#6677FB"/><path d="M21.367 35.834h26.56v31.951h-26.56V35.834z" fill="#FDB22B"/></svg>