<svg width="203" height="203" viewBox="0 0 203 203" fill="none" xmlns="http://www.w3.org/2000/svg">
<path d="M93.0417 0V25.375H109.958V0H93.0417ZM35.7166 23.756L23.756 35.7166L41.6969 53.6576L53.6576 41.6969L35.7166 23.756ZM167.283 23.756L149.342 41.6969L161.303 53.6576L179.244 35.7166L167.283 23.756ZM101.5 42.2917C68.9003 42.2917 42.2917 68.9003 42.2917 101.5C42.2917 134.1 68.9003 160.708 101.5 160.708C134.1 160.708 160.708 134.1 160.708 101.5C160.708 68.9003 134.1 42.2917 101.5 42.2917ZM101.5 59.2083C124.957 59.2083 143.792 78.0428 143.792 101.5C143.792 124.957 124.957 143.792 101.5 143.792C78.0428 143.792 59.2083 124.957 59.2083 101.5C59.2083 78.0428 78.0428 59.2083 101.5 59.2083ZM0 93.0417V109.958H25.375V93.0417H0ZM177.625 93.0417V109.958H203V93.0417H177.625ZM41.6969 149.342L23.756 167.283L35.7166 179.244L53.6576 161.303L41.6969 149.342ZM161.303 149.342L149.342 161.303L167.283 179.244L179.244 167.283L161.303 149.342ZM93.0417 177.625V203H109.958V177.625H93.0417Z" fill="#F6F96B"/>
</svg>
