<?xml version="1.0" encoding="utf-8"?>
<!-- Generator: Adobe Illustrator 21.0.0, SVG Export Plug-In . SVG Version: 6.00 Build 0)  -->
<svg version="1.1" id="Layer_1" xmlns="http://www.w3.org/2000/svg" xmlns:xlink="http://www.w3.org/1999/xlink" x="0px" y="0px"
	 viewBox="0 0 219.02701 75.59375" style="enable-background:new 0 0 219.02701 75.59375;" xml:space="preserve">
<style type="text/css">
	.st0{fill:#47556D;}
	.st1{fill:#D8882A;}
	.st2{fill:#43B496;}
</style>
<g>
	<path class="st0" d="M44.61719,65.4873H31.50781V40.05029h13.10938V65.4873z M34.50781,62.4873h7.10938V43.05029h-7.10938V62.4873z
		"/>
</g>
<g>
	<path class="st0" d="M19.83691,63.28174c-4.15527,0-7.53613-3.38037-7.53613-7.53564s3.38086-7.53564,7.53613-7.53564
		s7.53516,3.38037,7.53516,7.53564S23.99219,63.28174,19.83691,63.28174z M19.83691,51.21045
		c-2.50098,0-4.53613,2.03467-4.53613,4.53564s2.03516,4.53564,4.53613,4.53564s4.53516-2.03467,4.53516-4.53564
		S22.33789,51.21045,19.83691,51.21045z"/>
</g>
<g>
	<path class="st0" d="M55.94043,36.39648c-0.4375,0-0.87988-0.03809-1.3252-0.11768c-4.09082-0.729-6.82617-4.65039-6.09668-8.74121
		c0.35352-1.98145,1.45703-3.70703,3.10742-4.8584c1.65137-1.15088,3.64941-1.58936,5.63379-1.23779
		c1.98145,0.35303,3.70703,1.45703,4.8584,3.10791c1.15234,1.65088,1.5918,3.65186,1.23828,5.6333
		C62.70703,33.82812,59.52148,36.39648,55.94043,36.39648z M55.92773,24.32324c-0.91992,0-1.81543,0.27979-2.58496,0.81641
		c-0.99414,0.69287-1.6582,1.73145-1.87109,2.92432c-0.43848,2.4624,1.20703,4.82275,3.66992,5.26172
		c2.45605,0.43896,4.82227-1.20654,5.26172-3.66943c0.21289-1.19287-0.05176-2.39697-0.74512-3.39062
		s-1.73242-1.6582-2.92578-1.87109C56.46387,24.34668,56.19434,24.32324,55.92773,24.32324z"/>
</g>
<g>
	
		<rect x="36.73837" y="21.46194" transform="matrix(0.65633 -0.75448 0.75448 0.65633 -9.22066 39.03588)" class="st1" width="2.9995" height="16.35445"/>
</g>
<g>
	<path class="st0" d="M38.35742,20.95654c-6.74609,0-10.62305-5.11328-10.84766-9.94287l2.99609-0.13965
		c0.13281,2.85303,2.33398,7.08252,7.84863,7.08252c0.01855,0,0.03711,0,0.05469,0c2.53809-0.01318,4.92871-1.80811,7.45898-3.70801
		c2.96973-2.23047,6.04004-4.53662,9.95703-4.56104c0.03516,0,0.07031-0.00049,0.10547-0.00049
		c3.29395,0,5.90723,0.9668,7.76953,2.87402c2.87598,2.94531,2.78711,7.03369,2.78125,7.20605l-2.99805-0.08984
		c0-0.02344,0.03906-3.02295-1.94824-5.03955c-1.27539-1.29443-3.16211-1.95068-5.60547-1.95068
		c-0.02832,0-0.05664,0.00049-0.08594,0.00049c-2.92578,0.01807-5.47559,1.93262-8.1748,3.95996
		c-2.80859,2.10938-5.71387,4.29102-9.24414,4.30908C38.40234,20.95654,38.37988,20.95654,38.35742,20.95654z"/>
</g>
<g>
	<path class="st2" d="M75.42773,75.59375H0V0h75.42773V75.59375z M3,72.59375h69.42773V3H3V72.59375z"/>
</g>
<path class="st2" d="M65.89551,52.76904c0-6.63568-5.37531-12.03558-12-12.08301v-0.01465h-4.6582v3h4.57129v0.01025
	c5.01074,0,9.08691,4.07666,9.08691,9.0874c0,4.9892-4.04199,9.04877-9.02307,9.08368h-4.60962v3h4.54578v0.00323
	c0.02155,0,0.04236-0.00311,0.0639-0.00323h0.04852v-0.00244C60.53394,64.78906,65.89551,59.39563,65.89551,52.76904z"/>
<g>
	<rect x="21.76074" y="39.71631" class="st2" width="4.65723" height="3"/>
</g>
<path class="st2" d="M22.89941,10.78711h-3v7.84747C14.15918,19.57037,9.75977,24.54956,9.75977,30.5498
	c0,6.66455,5.42188,12.08691,12.08691,12.08691v-3c-5.01074,0-9.08691-4.07617-9.08691-9.08691s4.07617-9.08691,9.08691-9.08691
	v-0.01007h1.05273V10.78711z"/>
<path class="st0" d="M92.2522,23.99464h6.68818c3.22658,0,6.15072,0.50406,8.6042,1.98342
	c3.49561,2.11706,5.44503,5.84828,5.44503,10.08356c0,4.03249-1.7478,7.6289-4.84016,9.81395
	c-2.58771,1.81462-5.81429,2.45349-10.01557,2.45349H92.2522V23.99464z M98.63794,45.43833c2.92414,0,5.27682-0.36926,7.22624-1.613
	c2.31927-1.47819,3.93226-4.23528,3.93226-7.6629c0-3.5296-1.71381-6.15071-3.89885-7.59608
	c-2.11706-1.41137-4.70535-1.68098-7.32705-1.68098h-3.12576v18.55295H98.63794z"/>
<circle class="st0" cx="120.08089" cy="26.11258" r="2.11749"/>
<rect x="118.56827" y="31.79235" class="st0" width="3.02495" height="16.53671"/>
<path class="st0" d="M131.6088,58.29648h-3.02495V31.79235h3.02495v1.07611l0.0674,0.03282
	c1.14235-0.8065,2.75592-1.47819,4.70535-1.47819c4.43633,0,7.99933,3.46161,7.99933,8.5702
	c0,5.31022-3.86545,8.70501-8.6382,8.70501c-1.64641,0-3.02495-0.40325-4.06648-0.90731l-0.0674,0.034V58.29648z
	 M135.81007,46.04437c3.29399,0,5.51186-2.42066,5.51186-5.81546c0-3.36079-2.15105-6.08272-5.44444-6.08272
	c-1.47878,0-3.09236,0.53688-4.26869,1.51218v9.2419C132.65091,45.47232,134.19708,46.04437,135.81007,46.04437z"/>
<path class="st0" d="M150.26256,31.79235h3.02495v2.42067l0.06741,0.03399c1.14233-1.61417,2.95753-2.58829,4.90697-2.58829
	c0.33585,0,0.70569,0.03282,1.07553,0.13363v2.99154c-0.40326-0.10081-0.8065-0.13364-1.17635-0.13364
	c-2.25186,0-3.83145,1.14176-4.87357,2.92355v10.75525h-3.02495V31.79235z"/>
<path class="st0" d="M165.75656,40.9346c0.43726,3.25998,2.85733,5.04178,6.11731,5.04178
	c2.28528,0,4.20129-0.90731,5.71347-2.05024v3.22716c-1.47878,0.94013-3.76404,1.54501-5.9151,1.54501
	c-5.1086,0-8.94063-3.42761-8.94063-8.63702s3.79805-8.63819,8.23495-8.63819c4.03307,0,7.52867,2.82391,7.52867,7.99933
	c0,0.50406-0.034,1.10893-0.10081,1.51218H165.75656z M165.82397,38.54911h9.74713
	c-0.26903-3.29398-2.68912-4.40291-4.67195-4.40291C168.71471,34.14619,166.36203,35.48957,165.82397,38.54911z"/>
<path class="st0" d="M184.47716,23.87981h3.02495v24.44925h-3.02495V23.87981z"/>
<path class="st0" d="M194.49214,23.87981h3.02495v24.44925h-3.02495V23.87981z"/>
<path class="st0" d="M205.14598,47.52256c-1.07552-0.8065-1.74779-2.05024-1.74779-3.66323
	c0-1.84979,0.8739-3.19317,2.18445-4.03366c1.24374-0.8065,2.92415-1.10893,4.63853-1.10893
	c1.27715,0,2.45349,0.16763,3.52901,0.43724v-1.37855c0-1.20975-0.30243-2.11706-0.9413-2.72193
	c-0.63828-0.57205-1.64699-0.90731-3.05836-0.90731c-2.08423,0-3.83144,0.73851-5.07518,1.64582v-2.95638
	c1.27715-0.77367,3.05835-1.41254,5.51184-1.41254c2.01683,0,3.76463,0.43724,4.94096,1.51335
	c0.97472,0.87331,1.647,2.28469,1.647,4.33492v7.02403c0,1.00812,0.36925,1.74897,1.27715,1.74897
	c0.33585,0,0.70569-0.10081,0.97472-0.23679v2.52148c-0.40326,0.16763-0.97472,0.30243-1.61359,0.30243
	c-1.31056,0-2.55431-0.57088-3.19316-1.7478h-0.06682c-0.94131,0.87449-2.85674,1.81462-5.0752,1.81462
	C207.73369,48.69831,206.25493,48.36305,205.14598,47.52256z M213.75018,44.56501v-3.09235
	c-0.90788-0.26962-2.18504-0.43724-3.22656-0.43724c-2.05025,0-4.06708,0.60604-4.06708,2.5543
	c0,1.613,1.37796,2.41949,3.15918,2.41949C211.19589,46.0092,212.74149,45.37151,213.75018,44.56501z"/>
</svg>
