<svg xmlns="http://www.w3.org/2000/svg" width="130" height="45" viewBox="0 0 130 45"><path fill="#fff" d="M11.45 30.78a2.69 2.69 0 1 0 0 5.38 2.69 2.69 0 0 0 0-5.38zm0 7.15a4.46 4.46 0 0 1 0-8.93 4.46 4.46 0 0 1 0 8.93zM31.92 15.26a2.69 2.69 0 0 0 1.06 4.85 2.68 2.68 0 1 0-1.06-4.85zm.75 6.61a4.48 4.48 0 0 1 1.56-8.8c1.17.21 2.19.86 2.87 1.84a4.48 4.48 0 0 1-4.43 6.96zM25.29 21.7L18 15.34 19.16 14l7.29 6.36zM22.41 12.68A6.22 6.22 0 0 1 16 6.79l1.77-.09a4.42 4.42 0 0 0 4.64 4.2h.03c1.5-.01 2.91-1.07 4.41-2.2 1.75-1.32 3.57-2.69 5.88-2.7h.06c1.95 0 3.49.57 4.59 1.7 1.7 1.75 1.65 4.17 1.65 4.28l-1.77-.06c0-.01.02-1.79-1.16-2.99-.75-.76-1.86-1.15-3.31-1.15h-.05c-1.73.01-3.23 1.14-4.83 2.35-1.66 1.25-3.37 2.54-5.46 2.55z"/><path fill="#fff" d="M1.77 43.03H42.8V1.78H1.77zM0 0h44.57v44.81H0z"/><path fill="#fff" d="M38.84 31.17a7.16 7.16 0 0 0-7.09-7.16V24H29v1.78h2.7a5.39 5.39 0 0 1 .04 10.78h-2.73v1.77h2.69v.01l.04-.01h.03a7.15 7.15 0 0 0 7.07-7.16M13 25.78h2.75V24H13z"/><path fill="#fff" d="M13.76 7h-1.77v4.65a7.17 7.17 0 0 0 1.15 14.23V24.1a5.38 5.38 0 0 1 0-10.77v-.01h.62zM58.77 26.71c1.73 0 3.12-.22 4.27-.95a5.3 5.3 0 0 0 2.33-4.55 5.29 5.29 0 0 0-2.31-4.5c-1.25-.84-2.78-1-4.33-1h-1.84v11zM55 14h3.95c1.91 0 3.64.3 5.09 1.18a6.8 6.8 0 0 1 3.21 5.97 6.98 6.98 0 0 1-2.86 5.82c-1.53 1.08-3.43 1.46-5.91 1.46H55zM71.25 14c.7 0 1.25.56 1.25 1.26a1.25 1.25 0 0 1-2.5 0c0-.7.56-1.26 1.25-1.26M70 28.8h1.79V19H70zM83.53 24.22c0-1.99-1.27-3.61-3.22-3.61-.87 0-1.83.32-2.52.9v5.48c.61.34 1.53.68 2.48.68 1.95 0 3.26-1.44 3.26-3.45zm-5.74 10.71H76V19.22h1.79v.64l.04.02a4.79 4.79 0 0 1 2.78-.88c2.62 0 4.72 2.05 4.72 5.08a4.95 4.95 0 0 1-5.1 5.16c-.97 0-1.79-.24-2.4-.54l-.04.02zM89 19.08h1.79v1.43l.04.02a3.55 3.55 0 0 1 2.9-1.53c.19 0 .41.02.63.08v1.77a3.19 3.19 0 0 0-3.57 1.66v6.37H89zM103.59 23.22c-.16-1.95-1.59-2.61-2.76-2.61-1.29 0-2.69.8-3 2.61zm-5.8 1.42c.26 1.93 1.69 2.99 3.61 2.99 1.35 0 2.48-.54 3.38-1.22v1.91c-.88.56-2.23.92-3.5.92-3.02 0-5.28-2.03-5.28-5.12 0-3.09 2.24-5.12 4.87-5.12 2.38 0 4.44 1.67 4.44 4.74 0 .3-.02.66-.06.9zM109 28.49h1.79V14H109zM115 28.49h1.79V14H115zM126.12 24.96a7.34 7.34 0 0 0-1.91-.26c-1.21 0-2.4.36-2.4 1.51 0 .96.81 1.44 1.86 1.44.94 0 1.85-.38 2.45-.86zM120 26.37c0-1.09.52-1.89 1.29-2.39a5.09 5.09 0 0 1 2.74-.66c.76 0 1.45.1 2.09.26v-.81c0-.72-.18-1.26-.56-1.62-.38-.34-.97-.54-1.81-.54-1.23 0-2.26.44-3 .98v-1.75a6.14 6.14 0 0 1 3.26-.84c1.19 0 2.23.26 2.92.9.58.52.97 1.35.97 2.57v4.16c0 .6.22 1.04.76 1.04.2 0 .42-.06.57-.14v1.49c-.23.1-.57.18-.95.18-.77 0-1.51-.34-1.89-1.04h-.04a4.58 4.58 0 0 1-2.99 1.08c-.8 0-1.67-.2-2.33-.7a2.6 2.6 0 0 1-1.03-2.17zM20.77 37.3h4.2V25.78h-4.2zM19 24h7.75v15.08H19z"/></svg>