<?xml version="1.0" encoding="UTF-8"?>
<svg xmlns="http://www.w3.org/2000/svg" xmlns:xlink="http://www.w3.org/1999/xlink" width="194pt" height="194pt" viewBox="0 0 194 194" version="1.1">
<g id="surface1">
<path style=" stroke:none;fill-rule:evenodd;fill:rgba(0,0,0,0);fill-opacity:1;" d="M 0.257813 0.675781 L 193.015625 0.675781 L 193.015625 193.433594 L 0.257813 193.433594 L 0.257813 0.675781 "/>
<path style=" stroke:none;fill-rule:evenodd;fill:rgb(88.999939%,66.699219%,16.499329%);fill-opacity:1;" d="M 106.6875 42.761719 C 106.214844 43.234375 104.558594 45.839844 104.558594 48.914063 C 104.558594 49.621094 104.558594 67.128906 104.558594 67.835938 C 104.558594 69.257813 103.847656 71.148438 103.140625 71.859375 C 102.664063 72.332031 99.828125 74.933594 99.355469 75.171875 L 101.011719 75.171875 C 101.71875 74.695313 107.398438 69.730469 107.871094 69.019531 C 108.578125 68.074219 110.472656 65.945313 110.472656 62.632813 C 110.472656 61.6875 110.472656 45.128906 110.472656 44.183594 C 110.472656 41.578125 111.65625 39.925781 112.363281 39.214844 C 113.074219 38.503906 115.203125 36.613281 115.675781 36.375 L 114.019531 36.140625 C 113.546875 36.613281 107.398438 42.289063 106.6875 42.761719 "/>
<path style=" stroke:none;fill-rule:evenodd;fill:rgb(88.999939%,66.699219%,16.499329%);fill-opacity:1;" d="M 92.730469 111.835938 L 99.589844 117.984375 L 104.320313 117.984375 C 109.054688 117.984375 113.3125 115.855469 116.148438 113.019531 C 118.988281 110.179688 119.933594 106.394531 119.933594 102.847656 C 119.933594 100.246094 119.933594 93.382813 119.933594 92.910156 C 119.933594 89.601563 118.042969 87.707031 117.332031 87.234375 C 117.097656 86.761719 114.96875 84.867188 114.96875 84.867188 L 114.96875 92.4375 C 114.96875 92.4375 117.332031 94.804688 117.570313 95.277344 C 119.699219 97.40625 119.699219 101.425781 113.3125 107.8125 C 112.128906 108.761719 108.816406 111.835938 104.320313 111.835938 C 103.847656 111.835938 92.730469 111.835938 92.730469 111.835938 "/>
<path style=" stroke:none;fill-rule:evenodd;fill:rgb(88.999939%,66.699219%,16.499329%);fill-opacity:1;" d="M 111.890625 71.386719 C 111.183594 72.09375 110.472656 74.222656 110.472656 75.878906 C 110.472656 76.824219 110.472656 79.664063 110.472656 79.664063 C 110.472656 79.664063 113.546875 79.664063 114.257813 79.664063 C 115.675781 79.664063 117.570313 78.246094 118.042969 77.535156 L 118.042969 73.988281 C 118.042969 73.988281 118.988281 75.40625 120.171875 76.117188 C 120.40625 75.644531 123.953125 71.386719 126.792969 71.386719 C 131.761719 71.386719 130.578125 77.300781 128.6875 79.429688 C 127.976563 79.902344 125.136719 82.503906 124.191406 83.449219 C 122.0625 85.578125 118.042969 84.632813 118.042969 78.953125 C 118.042969 78.953125 113.785156 82.976563 113.3125 83.449219 C 112.601563 83.921875 110.472656 86.289063 110.472656 86.289063 C 110.472656 86.289063 110.472656 95.039063 110.472656 95.984375 C 110.472656 100.71875 108.816406 102.375 107.632813 103.792969 C 107.160156 104.265625 101.71875 109.234375 101.011719 109.707031 L 99.355469 109.707031 C 99.355469 109.707031 102.429688 106.867188 103.140625 106.394531 C 103.847656 105.449219 104.558594 104.03125 104.558594 101.664063 C 104.558594 100.953125 104.558594 86.050781 104.558594 86.050781 C 104.558594 86.050781 81.375 86.050781 80.429688 86.050781 C 71.914063 86.050781 70.257813 76.824219 70.023438 74.222656 C 70.023438 73.515625 70.023438 66.179688 70.023438 64.996094 C 70.023438 63.34375 69.074219 60.742188 67.65625 60.03125 L 70.023438 60.03125 C 70.257813 60.03125 71.679688 60.742188 71.679688 66.417969 C 71.679688 66.417969 71.679688 73.039063 71.679688 73.515625 C 71.679688 76.351563 73.808594 79.664063 77.355469 79.664063 C 77.828125 79.664063 104.558594 79.664063 104.558594 79.664063 C 104.558594 78.953125 105.269531 76.117188 106.6875 74.695313 C 107.398438 73.75 113.3125 68.546875 114.019531 67.835938 L 115.675781 67.835938 C 115.441406 68.074219 112.601563 70.675781 111.890625 71.386719 Z M 120.878906 77.0625 C 120.878906 77.0625 122.535156 79.191406 123.246094 79.664063 C 126.320313 82.03125 127.738281 79.429688 125.609375 76.824219 C 124.902344 75.644531 121.828125 76.117188 120.878906 77.0625 "/>
<path style=" stroke:none;fill-rule:evenodd;fill:rgb(88.999939%,66.699219%,16.499329%);fill-opacity:1;" d="M 91.546875 94.566406 C 91.546875 95.984375 87.289063 99.535156 87.054688 99.769531 C 86.816406 98.351563 85.871094 96.695313 82.558594 93.621094 L 87.289063 88.890625 C 90.367188 91.964844 91.546875 92.675781 91.546875 94.566406 "/>
<path style=" stroke:none;fill-rule:evenodd;fill:rgb(88.999939%,66.699219%,16.499329%);fill-opacity:1;" d="M 99.589844 41.578125 C 100.535156 42.527344 102.664063 45.128906 101.246094 46.3125 C 100.300781 47.257813 98.644531 49.148438 98.644531 49.148438 C 98.644531 48.441406 96.988281 47.019531 96.988281 47.019531 C 96.988281 47.019531 96.988281 51.515625 96.988281 51.988281 C 96.988281 54.117188 96.28125 54.589844 96.28125 54.589844 C 96.28125 54.589844 100.0625 58.375 100.0625 63.105469 C 100.0625 65.234375 100.0625 67.363281 100.0625 67.835938 C 100.0625 68.78125 99.589844 69.730469 99.117188 70.4375 C 98.644531 70.675781 95.332031 74.222656 94.625 74.695313 C 93.675781 75.644531 92.730469 75.644531 91.785156 75.644531 C 91.3125 75.644531 79.484375 75.644531 79.011719 75.644531 C 77.117188 75.644531 74.988281 74.222656 74.988281 72.566406 C 74.988281 72.09375 74.988281 67.835938 74.988281 67.835938 C 75.699219 68.546875 76.410156 69.492188 77.828125 69.492188 C 79.246094 69.492188 80.429688 68.308594 80.902344 68.074219 C 81.140625 67.601563 90.601563 57.902344 90.601563 57.902344 C 90.601563 57.902344 86.109375 53.878906 83.269531 51.988281 C 81.847656 51.042969 79.957031 52.226563 79.71875 53.40625 C 79.011719 57.429688 79.71875 63.105469 79.71875 63.105469 C 79.71875 63.105469 76.882813 60.265625 76.171875 59.558594 C 74.753906 58.140625 74.753906 55.0625 76.644531 53.171875 C 76.882813 52.933594 79.484375 50.097656 82.796875 50.097656 C 83.269531 50.097656 87.289063 50.097656 87.761719 50.097656 C 91.3125 50.097656 95.097656 53.40625 95.097656 53.40625 C 95.097656 53.40625 95.570313 52.933594 95.570313 52.226563 C 95.570313 50.570313 95.570313 45.839844 95.570313 45.839844 C 92.96875 43.234375 92.496094 40.632813 93.914063 39.214844 C 96.042969 37.085938 96.988281 36.140625 96.988281 36.140625 C 96.988281 36.140625 96.988281 38.976563 99.589844 41.578125 Z M 83.503906 67.363281 C 82.324219 68.78125 82.085938 69.019531 80.902344 69.730469 C 80.902344 69.730469 94.859375 69.730469 95.332031 69.730469 C 99.117188 69.730469 98.40625 67.363281 97.699219 66.179688 C 96.28125 63.578125 91.785156 58.847656 91.785156 58.847656 C 91.785156 58.847656 83.742188 67.128906 83.503906 67.363281 "/>
<path style=" stroke:none;fill-rule:evenodd;fill:rgb(88.999939%,66.699219%,16.499329%);fill-opacity:1;" d="M 67.183594 80.609375 L 64.582031 80.609375 C 64.582031 80.609375 67.183594 82.03125 67.183594 85.578125 C 67.183594 86.523438 67.183594 96.460938 67.183594 97.167969 C 67.183594 104.738281 73.335938 111.597656 80.902344 111.597656 C 82.324219 111.597656 86.34375 111.597656 87.289063 111.597656 C 91.074219 111.597656 92.257813 110.652344 94.625 108.523438 C 95.332031 107.8125 96.515625 106.632813 96.988281 106.15625 C 98.171875 104.738281 99.589844 103.554688 99.589844 99.769531 C 99.589844 98.824219 99.589844 96.460938 99.589844 95.984375 C 99.589844 92.675781 97.699219 91.253906 96.753906 90.308594 C 96.28125 89.835938 94.625 88.179688 94.625 88.179688 L 94.625 95.984375 C 94.625 95.984375 96.28125 97.644531 96.988281 98.351563 C 100.300781 100.71875 97.699219 105.210938 94.625 105.210938 C 93.914063 105.210938 81.613281 105.210938 80.667969 105.210938 C 75.699219 105.449219 68.839844 100.953125 68.839844 93.382813 C 68.839844 92.203125 68.839844 87.707031 68.839844 86.996094 C 68.839844 80.609375 67.183594 80.609375 67.183594 80.609375 "/>
<path style=" stroke:none;fill-rule:evenodd;fill:rgb(88.999939%,66.699219%,16.499329%);fill-opacity:1;" d="M 82.085938 94.566406 C 82.085938 95.984375 77.828125 99.535156 77.828125 99.769531 C 77.355469 98.351563 76.410156 96.695313 73.097656 93.621094 L 77.828125 88.890625 C 80.902344 91.964844 82.085938 92.675781 82.085938 94.566406 "/>
<path style=" stroke:none;fill-rule:evenodd;fill:rgb(88.999939%,66.699219%,16.499329%);fill-opacity:1;" d="M 33.832031 145.898438 C 33.121094 145.898438 27.207031 145.898438 26.496094 145.898438 C 24.132813 145.898438 24.367188 144.007813 24.132813 142.351563 L 24.132813 131.707031 C 24.132813 131.707031 25.789063 131.707031 27.679688 131.707031 C 29.574219 131.707031 32.175781 131.46875 34.539063 132.886719 C 34.539063 132.886719 32.882813 128.394531 27.679688 128.394531 L 24.132813 128.394531 C 24.132813 128.394531 24.132813 127.921875 24.132813 126.5 L 24.132813 125.082031 C 24.132813 125.082031 24.132813 122.242188 23.421875 121.296875 C 23.421875 121.296875 27.917969 121.296875 28.390625 121.296875 C 32.410156 121.296875 35.722656 121.296875 39.269531 123.425781 C 39.269531 123.425781 38.5625 117.984375 30.28125 117.984375 C 25.550781 117.984375 15.144531 117.984375 14.433594 117.984375 C 14.433594 117.984375 17.273438 120.351563 17.035156 125.082031 L 17.273438 144.480469 C 17.273438 149.210938 19.164063 149.445313 19.164063 149.445313 C 19.402344 149.445313 20.347656 149.445313 24.605469 149.445313 C 25.316406 149.445313 26.261719 149.445313 26.96875 149.445313 C 29.335938 149.445313 32.410156 149.445313 34.777344 149.445313 C 38.324219 149.445313 39.742188 146.84375 39.742188 145.425781 L 39.742188 143.53125 C 39.742188 143.53125 38.5625 145.898438 33.832031 145.898438 "/>
<path style=" stroke:none;fill-rule:evenodd;fill:rgb(88.999939%,66.699219%,16.499329%);fill-opacity:1;" d="M 75.699219 144.242188 L 75.699219 130.757813 C 75.699219 125.554688 71.441406 124.136719 68.128906 124.136719 C 64.109375 124.136719 62.6875 127.683594 62.214844 128.867188 C 61.269531 125.554688 57.957031 124.136719 55.355469 124.136719 C 50.152344 124.136719 48.96875 128.867188 48.96875 128.867188 C 48.96875 128.867188 48.734375 124.371094 44.710938 124.371094 L 40.691406 124.371094 C 40.691406 124.371094 43.054688 125.320313 43.054688 129.339844 L 43.054688 144.242188 C 43.054688 149.210938 44.949219 149.445313 44.949219 149.445313 L 51.570313 149.445313 C 51.335938 149.210938 48.96875 147.554688 48.96875 144.242188 L 48.96875 130.996094 C 49.207031 130.285156 50.152344 128.394531 52.992188 128.394531 C 54.648438 128.394531 56.300781 130.050781 56.300781 131.941406 L 56.300781 144.242188 C 56.300781 149.210938 58.195313 149.210938 58.195313 149.210938 L 64.816406 149.210938 C 64.816406 149.210938 62.453125 147.554688 62.453125 144.242188 L 62.453125 130.996094 C 62.6875 130.285156 63.398438 128.394531 66 128.394531 C 67.894531 128.394531 69.550781 130.050781 69.550781 131.941406 C 69.550781 131.941406 69.550781 143.296875 69.550781 144.242188 C 69.550781 149.445313 71.679688 149.210938 71.679688 149.210938 C 74.988281 149.210938 78.300781 149.210938 78.300781 149.210938 C 78.300781 149.210938 75.699219 147.554688 75.699219 144.242188 "/>
<path style=" stroke:none;fill-rule:evenodd;fill:rgb(88.999939%,66.699219%,16.499329%);fill-opacity:1;" d="M 87.289063 144.242188 C 87.289063 147.554688 89.894531 149.210938 89.894531 149.210938 C 89.894531 149.210938 86.582031 149.210938 83.269531 149.210938 C 83.269531 149.210938 81.140625 149.445313 81.140625 144.242188 L 81.140625 129.339844 C 81.140625 125.320313 79.011719 124.371094 79.011719 124.371094 L 83.03125 124.371094 C 84.453125 124.371094 87.289063 124.371094 87.289063 129.8125 L 87.289063 144.242188 "/>
<path style=" stroke:none;fill-rule:evenodd;fill:rgb(88.999939%,66.699219%,16.499329%);fill-opacity:1;" d="M 107.632813 126.265625 C 107.632813 126.265625 107.160156 124.371094 104.320313 124.371094 C 100.0625 124.371094 99.117188 129.339844 99.117188 129.339844 C 98.882813 125.320313 97.699219 124.136719 94.859375 124.136719 L 90.839844 124.136719 C 90.839844 124.136719 93.203125 125.082031 93.203125 129.339844 L 93.203125 144.242188 C 93.203125 149.210938 95.097656 149.210938 95.097656 149.210938 L 101.71875 149.210938 C 101.484375 149.210938 99.117188 147.554688 99.117188 144.242188 L 99.117188 131.941406 C 99.355469 130.757813 100.0625 130.050781 100.773438 129.339844 C 102.902344 127.921875 105.976563 128.394531 107.632813 130.285156 C 107.632813 130.285156 107.632813 127.683594 107.632813 126.265625 "/>
<path style=" stroke:none;fill-rule:evenodd;fill:rgb(88.999939%,66.699219%,16.499329%);fill-opacity:1;" d="M 138.621094 126.972656 C 140.75 126.972656 142.40625 128.15625 142.40625 128.15625 L 142.40625 124.371094 L 136.964844 124.371094 L 136.964844 118.457031 C 136.964844 118.457031 135.546875 121.0625 132.472656 123.425781 C 130.578125 125.082031 126.558594 126.972656 126.558594 126.972656 L 130.816406 126.972656 L 130.816406 144.480469 C 130.816406 149.210938 132.945313 149.210938 132.945313 149.210938 C 136.492188 149.210938 139.566406 149.210938 139.566406 149.210938 C 139.566406 149.210938 136.964844 147.554688 136.964844 144.480469 L 136.964844 126.972656 C 138.621094 126.972656 137.4375 126.972656 138.621094 126.972656 "/>
<path style=" stroke:none;fill-rule:evenodd;fill:rgb(88.999939%,66.699219%,16.499329%);fill-opacity:1;" d="M 158.730469 134.542969 C 154.945313 138.566406 152.105469 137.855469 149.738281 140.695313 C 149.738281 140.695313 149.976563 144.714844 153.050781 145.898438 C 153.996094 146.371094 158.253906 148.027344 160.855469 143.296875 L 160.855469 147.316406 C 160.855469 147.316406 159.203125 149.445313 153.761719 149.445313 C 147.136719 149.445313 142.644531 144.242188 142.644531 137.382813 C 142.644531 130.523438 146.429688 124.136719 153.289063 124.136719 C 159.910156 124.136719 163.460938 129.578125 158.730469 134.542969 Z M 154.707031 133.125 C 155.652344 130.996094 156.597656 125.792969 152.8125 126.027344 C 148.558594 126.5 149.265625 138.09375 149.265625 138.09375 C 150.6875 136.4375 153.050781 136.199219 154.707031 133.125 "/>
<path style=" stroke:none;fill-rule:evenodd;fill:rgb(88.999939%,66.699219%,16.499329%);fill-opacity:1;" d="M 84.214844 122.242188 C 85.871094 122.242188 87.289063 120.824219 87.289063 119.167969 C 87.289063 117.511719 85.871094 116.09375 84.214844 116.09375 C 82.558594 116.09375 81.140625 117.511719 81.140625 119.167969 C 81.140625 120.824219 82.558594 122.242188 84.214844 122.242188 "/>
<path style=" stroke:none;fill-rule:evenodd;fill:rgb(88.999939%,66.699219%,16.499329%);fill-opacity:1;" d="M 173.394531 142.585938 C 173.394531 144.242188 171.738281 146.609375 168.425781 146.609375 C 164.878906 146.609375 163.695313 143.058594 163.695313 143.058594 L 163.695313 147.554688 C 163.695313 147.554688 166.0625 149.445313 169.847656 149.445313 C 174.339844 149.445313 179.070313 145.898438 178.835938 141.167969 C 178.835938 139.511719 178.363281 138.09375 177.414063 136.671875 C 175.761719 134.78125 172.921875 133.359375 170.792969 131.941406 C 169.609375 131.230469 168.898438 129.8125 168.898438 129.339844 C 168.898438 128.394531 169.371094 126.738281 172.683594 126.738281 C 175.996094 126.738281 177.414063 130.285156 177.414063 130.285156 L 177.414063 126.027344 C 177.414063 126.027344 174.8125 124.136719 171.027344 124.136719 C 167.007813 124.136719 163.460938 126.738281 163.460938 130.050781 C 163.695313 133.125 164.878906 135.015625 167.242188 136.671875 C 168.191406 137.382813 169.371094 138.09375 170.792969 138.800781 C 172.683594 139.984375 173.394531 141.167969 173.394531 142.585938 "/>
<path style=" stroke:none;fill-rule:evenodd;fill:rgb(88.999939%,66.699219%,16.499329%);fill-opacity:1;" d="M 114.492188 146.371094 C 113.074219 146.371094 111.890625 144.953125 111.890625 143.296875 C 111.890625 137.144531 117.097656 136.199219 118.515625 134.542969 L 118.515625 144.953125 C 117.804688 145.660156 117.332031 146.371094 114.492188 146.371094 Z M 118.515625 132.179688 C 116.859375 134.78125 105.03125 135.253906 106.925781 144.714844 C 107.632813 148.265625 110 149.445313 113.074219 149.445313 C 116.148438 149.445313 117.804688 147.789063 118.515625 146.371094 C 118.988281 149.210938 120.40625 149.210938 120.40625 149.210938 C 123.953125 149.210938 127.03125 149.210938 127.03125 149.210938 C 127.03125 149.210938 124.429688 147.554688 124.429688 144.242188 L 124.429688 130.285156 C 124.429688 126.972656 120.644531 124.136719 116.859375 124.136719 C 113.074219 124.136719 110.472656 126.027344 110.472656 126.027344 C 110.472656 127.210938 110.472656 130.523438 110.472656 130.523438 C 110.472656 130.523438 111.890625 126.972656 115.441406 126.972656 C 118.753906 126.972656 118.988281 128.628906 118.988281 129.578125 C 118.988281 129.578125 119.226563 130.523438 118.515625 132.179688 "/>
</g>
</svg>
