<svg xmlns="http://www.w3.org/2000/svg" width="2500" height="2500" viewBox="0 0 192.756 192.756">
<g fill-rule="evenodd" clip-rule="evenodd"><path fill="rgba(0,0,0,0)" d="M0 0h192.756v192.756H0V0z"/>
<path d="M4.509 117.201c25.707-19.426 46.447 7.01 68.064-1.025-23.806 12.418-40.748-11.389-68.064 1.025z" fill="#45a983"/>
<path d="M11.982 120.885c24.369-9.674 32.988 7.855 55.625 3.035-22.053 9.494-32.13-8.324-55.625-3.035z" fill="#8abd59"/>
<path d="M46.828 81.165c-.492-5.456-9.22-5.711-14.611-4.917-1.16-.672-4.228-2.173-5.057-2.456 3.474-2.303 6.216-3.728 8.793-3.96 1.17-.106 2.911.26 3.79.991-.413-1.291-1.524-2.799-4.085-2.566-2.554.232-6.439 1.746-10.97 4.707-2.703-.782-5.543-1.097-8.921-.792-6.364.575-8.369 4.52-7.946 9.204.19 2.106.562 4.338 1.129 6.595-2.235 3.485-3.51 7.056-3.134 10.387.37 3.271 5.696 4.633 11.289 4.74 2.76 2.152 6.133 3.143 8.819 2.902 3.472-.316 7.233-2.77 10.595-6.09 6.922-2.379 11.258-5.824 10.905-9.724-.09-1.002-.742-2.228-1.789-3.56.876-2.137 1.323-4.048 1.193-5.461zm-5.237-.005c.148.439.362 1.466.338 1.686a50.383 50.383 0 0 0-8.112-5.709c5.781-.065 7.099 2.02 7.774 4.023zm-10.665-1.149c-.335.008-.997.052-1.329.082-2.871.245-6.253 1.672-7.419 2.729.755-2.28 2.695-3.745 4.292-4.85-5.433 1.064-9.822 6.507-9.485 10.239.305 3.367 5.949 4.228 7.535 4.047-.863-.586-3.286-1.771-3.513-4.258-.284-3.147 4.424-5.93 7.864-6.241 5.032-.455 7.166 1.231 7.407 3.901.125 1.352.141 3.146-.643 4.257-1.318 1.873-6.633 6.778-12.29 7.901 4.799.57 11.916-2.421 15.974-6.213-.946 1.914-2.2 3.778-3.456 5.461-3.6 1.877-7.918 2.76-11.259 3.27a23.918 23.918 0 0 1-4.02.25c-1.932-1.812-3.096-3.865-4.256-6.596 1.484 1.353 3.595 2.076 6.812 1.787 7.832-.709 11.772-6.893 11.521-9.676-.196-2.16-1.659-2.848-5.612-2.489-3.292.299-5.424 2.53-5.344 3.407.08.879 1.535 3.93 2.268 3.863 2.219-.201 3.903-2.234 5.091-4.286-3.014 1.746-6.153 1.958-6.279.567-.126-1.391 2.005-2.279 2.811-2.237l-.003 2.096c2.312-2.688 5.634-2.652 5.812-.678.237 2.634-3.142 6.614-9.653 7.204-4.609.417-8.803-1.277-10.516-5.914l-.067-.276c2.497-4.062 6.519-8.154 10.604-11.391 2.483 1.064 4.782 2.353 7.153 4.044zM13.083 81.32c-.282-4.816 1.017-6.613 3.651-6.852 1.591-.144 2.911.115 4.754.714-2.319 1.735-7.027 6.042-8.295 7.432 0 0-.086-.88-.11-1.294zM9.69 95.66l-.903 2.674c-1.146-2.145-.166-4.492 1.15-7.012 1.033 3.026 2.445 6.014 4.296 8.729.204.297.415.58.639.855-2.927-.564-4.816-2.459-5.182-5.246zm17.783 8.152c-1.54.139-3.425-.34-4.594-1.02 3.33-.361 6.474-.912 9.331-1.621-1.507 1.663-3.127 2.495-4.737 2.641z" fill="#f0dfa5"/>
<path d="M53.839 87.608c0-3.759-.175-7.568-.349-11.287 2.625.132 5.208.217 7.833.217 2.627 0 5.209-.085 7.789-.217a6.72 6.72 0 0 0-.131 1.31c0 .441.044.878.131 1.315-3.673-.264-5.821-.566-11.509-.566-.045 1.88-.175 3.412-.175 5.555 0 2.277.044 4.683.044 5.776 5.164 0 8.051-.218 10.633-.438a7.108 7.108 0 0 0-.133 1.357c0 .438.045.875.133 1.314-3.018-.307-8.534-.395-10.633-.395-.044 1.051-.044 2.145-.044 6.342 0 3.33.044 5.471.087 6.564 3.895 0 9.058-.041 11.813-.57-.087.395-.13.965-.13 1.355 0 .396.043.877.13 1.271-2.58-.131-5.206-.215-7.876-.215-2.668 0-5.294.084-7.963.215.174-3.805.349-7.613.349-11.38v-7.523h.001zM82.065 87.437c-4.071 0-5.907 2.623-5.907 7.174v3.721c0 2.627.085 5.686.35 8.182a10.08 10.08 0 0 0-1.972-.215c-.655 0-1.311.084-1.968.215.262-2.496.35-5.555.35-8.182V93.78c0-2.627-.088-5.687-.35-8.181.657.13 1.312.217 1.968.217.438 0 1.097-.087 1.751-.217a46.968 46.968 0 0 0-.13 3.497h.085c1.618-2.489 3.852-3.937 7.002-3.937 3.24 0 7.001 1.579 7.001 7.616 0 2.493-.174 5.118-.174 8.095 0 1.924 0 3.764.087 5.645-.657-.131-1.227-.215-1.838-.215-.612 0-1.181.084-1.793.215.087-3.193.307-6.387.307-9.758v-2.669c.001-4.291-1.881-6.651-4.769-6.651zM106.744 92.076c0 3.236-1.486 6.167-4.814 6.167-3.369 0-4.944-2.36-4.944-5.949 0-3.544 1.836-5.863 4.989-5.863 2.843-.001 4.769 2.057 4.769 5.645zm-13.17.217c0 3.196 1.617 5.291 4.286 6.478v.084c-1.444.264-3.104 1.707-3.104 3.633 0 1.707.961 2.977 2.754 3.502v.086c-2.319.699-4.682 2.629-4.682 5.781 0 3.887 3.545 6.299 9.146 6.299 7.35 0 10.369-4.857 10.369-8.881 0-3.111-2.145-5.475-7.484-5.604-1.615-.047-3.191-.09-4.812-.133-1.967-.045-2.58-.699-2.58-2.232 0-1.135 1.094-2.012 2.143-2.012.834 0 1.623.086 2.408.086 4.945 0 8.141-2.625 8.141-7.002 0-2.187-1.229-4.548-3.021-5.511l.086-.09c1.578.045 3.197.223 4.857.354a6.426 6.426 0 0 1-.086-.918c0-.306.041-.614.086-.922-.566.13-1.834.218-3.543.218-.613 0-1.748-.087-3.064-.172-1.572-.087-2.449-.177-3.543-.177-4.552-.001-8.357 2.277-8.357 7.133zm15.531 18.861c0 3.938-3.498 5.734-7.045 5.734-3.633 0-6.432-1.537-6.432-5.518 0-3.715 2.583-5.072 6.87-5.072 4.639.001 6.607 1.444 6.607 4.856zM115.539 85.993c0-4.025-.09-9.671-.352-12.605a9.955 9.955 0 0 0 1.971.222 9.96 9.96 0 0 0 1.969-.222c-.264 2.935-.35 8.58-.35 12.605v7.917c0 4.032.086 9.672.35 12.604a10.091 10.091 0 0 0-1.969-.215c-.656 0-1.312.084-1.971.215.262-2.932.352-8.572.352-12.604v-7.917zM135.449 102.051c-1.008 1.621-2.934 3.061-5.164 3.061-1.926 0-3.807-1.398-3.807-4.152 0-4.771 6.127-4.469 9.146-5.47l-.175 6.561zm-10.633-12.076h.48c1.006-1.882 3.193-2.975 5.514-2.975 3.498 0 4.814 2.581 4.814 5.511 0 1.706-.221 2.056-6.566 3.063-3.807.613-6.17 2.496-6.17 5.994 0 3.328 2.889 5.385 5.822 5.385 2.975 0 4.768-1.094 6.867-3.197.176 1.486 1.139 2.711 3.021 2.711 1.137 0 2.188-.348 2.801-.607v-.963c-.307.172-.658.172-.922.172-1.705 0-1.705-1.791-1.705-3.238 0-3.674.174-6.911.174-10.192 0-3.897-2.885-6.479-7.086-6.479-2.322 0-4.42.57-7.045 2.542v2.273h.001zM153.566 87.437c-4.07 0-5.91 2.623-5.91 7.174v3.721c0 2.627.09 5.686.35 8.182a10.046 10.046 0 0 0-1.967-.215c-.658 0-1.314.084-1.971.215.264-2.496.352-5.555.352-8.182V93.78c0-2.627-.088-5.687-.352-8.181.656.13 1.312.217 1.971.217.438 0 1.094-.087 1.75-.217a46.439 46.439 0 0 0-.133 3.497h.09c1.619-2.489 3.85-3.937 7-3.937 3.236 0 7 1.579 7 7.616 0 2.493-.172 5.118-.172 8.095 0 1.924 0 3.764.084 5.645-.654-.131-1.225-.215-1.836-.215-.613 0-1.182.084-1.795.215.088-3.193.307-6.387.307-9.758v-2.669c0-4.291-1.881-6.651-4.768-6.651zM168.574 96.451c0-5.298 1.969-9.451 6.17-9.451 4.158 0 6.389 3.104 6.389 8.619 0 4.767-1.971 9.714-6.521 9.714-2.842.001-6.038-1.882-6.038-8.882zm12.383 10.063c.613-.086 1.139-.215 1.664-.215.523 0 1.049.129 1.705.215-.043-3.498-.131-6.52-.131-10.502 0-7.482.131-18.948.523-22.625-.744.092-1.354.222-1.967.222s-1.268-.129-1.971-.222c.176 3.767.176 10.635.176 16.149h-.088c-1.223-2.843-3.502-4.377-6.738-4.377-4.553 0-9.408 3.591-9.408 11.029 0 7.525 4.463 10.766 8.883 10.766 4.289 0 6.52-2.889 7.395-4.727h.09l-.133 4.287z" fill="#cc2229"/></g></svg>