<?xml version="1.0" encoding="UTF-8"?>
<svg xmlns="http://www.w3.org/2000/svg" xmlns:xlink="http://www.w3.org/1999/xlink" width="265.3pt" height="175.44pt" viewBox="0 0 265.3 175.44" version="1.1">
<g id="surface1">
<path style=" stroke:none;fill-rule:nonzero;fill:rgb(100%,100%,100%);fill-opacity:1;" d="M 108.9375 78.394531 C 107.855469 78.933594 106.773438 78.933594 106.234375 78.394531 C 105.425781 77.855469 104.882813 76.773438 104.882813 75.421875 C 104.613281 73.257813 104.882813 71.097656 105.152344 69.203125 C 105.152344 68.664063 105.425781 68.394531 105.964844 68.121094 C 106.234375 68.121094 106.773438 67.851563 107.316406 67.851563 C 107.855469 67.851563 108.398438 67.851563 108.9375 68.121094 C 108.9375 69.203125 108.9375 70.285156 108.9375 71.367188 L 108.9375 73.257813 C 108.9375 73.800781 108.9375 74.339844 108.9375 74.878906 C 108.9375 75.960938 108.9375 77.042969 108.9375 78.394531 Z M 149.214844 73.800781 C 150.296875 73.800781 151.378906 73.800781 152.460938 74.070313 C 153.269531 74.070313 153.269531 75.960938 153.269531 76.503906 C 153.269531 78.394531 153 78.394531 151.917969 78.664063 C 151.105469 78.664063 150.027344 78.664063 148.945313 78.664063 L 148.945313 73.800781 Z M 151.105469 57.851563 C 151.105469 57.851563 150.835938 57.851563 150.566406 57.851563 C 150.027344 57.851563 149.753906 57.851563 149.214844 57.851563 L 149.214844 54.605469 C 149.753906 54.605469 150.296875 54.605469 150.566406 54.605469 C 150.835938 54.605469 150.835938 54.605469 150.835938 54.605469 C 150.835938 54.878906 151.105469 55.417969 151.105469 56.769531 C 151.378906 57.578125 151.105469 57.851563 151.105469 57.851563 Z M 169.488281 64.609375 C 169.761719 64.066406 170.300781 63.527344 170.570313 62.984375 C 170.839844 62.714844 170.839844 62.445313 171.109375 62.175781 C 171.109375 62.984375 171.109375 63.796875 171.109375 64.609375 C 171.109375 65.148438 171.109375 65.691406 171.109375 65.960938 C 170.570313 65.417969 170.027344 64.878906 169.488281 64.609375 Z M 214.902344 76.503906 C 214.902344 76.230469 214.902344 76.230469 214.902344 76.503906 C 214.902344 76.230469 214.902344 76.230469 214.902344 76.503906 Z M 247.070313 69.203125 C 247.070313 69.742188 247.070313 70.015625 247.339844 70.554688 C 247.339844 70.554688 247.339844 70.285156 247.070313 70.285156 Z M 23.789063 44.875 C 30.546875 40.550781 38.382813 37.847656 45.414063 35.683594 C 61.632813 30.546875 79.203125 26.765625 99.746094 23.789063 C 114.613281 21.628906 127.589844 20.277344 139.753906 19.464844 C 157.054688 18.382813 174.355469 17.574219 191.113281 17.574219 C 199.492188 17.574219 208.144531 18.113281 216.523438 18.925781 C 218.957031 18.925781 221.390625 19.195313 223.824219 19.464844 C 225.984375 19.734375 228.148438 20.816406 230.851563 24.058594 C 235.175781 28.925781 238.421875 34.871094 241.394531 43.792969 C 242.203125 46.226563 243.015625 48.929688 243.824219 51.632813 C 243.015625 51.09375 242.203125 50.820313 241.394531 50.550781 L 240.582031 50.28125 C 237.609375 49.742188 234.363281 49.199219 230.851563 49.199219 C 224.632813 49.199219 219.496094 51.632813 215.441406 55.957031 C 215.171875 56.230469 215.171875 56.5 214.902344 56.5 L 214.359375 51.363281 L 194.628906 51.363281 L 194.628906 76.230469 C 194.628906 77.042969 194.628906 77.585938 194.628906 77.855469 C 194.355469 77.855469 194.089844 78.125 193.277344 78.394531 C 192.734375 78.664063 192.195313 78.664063 191.925781 78.394531 C 191.925781 78.125 191.65625 77.855469 191.65625 77.042969 L 191.65625 59.472656 C 191.65625 58.660156 191.65625 57.851563 191.65625 57.308594 L 190.84375 51.363281 L 173.003906 51.363281 C 172.730469 49.199219 172.191406 47.308594 171.382813 45.414063 C 168.945313 40.550781 164.621094 37.304688 158.945313 36.765625 C 152.730469 35.953125 146.511719 36.226563 140.5625 36.226563 C 138.132813 36.226563 135.429688 36.496094 132.726563 36.496094 L 129.210938 36.496094 L 129.210938 35.953125 L 108.9375 35.953125 L 108.9375 50.011719 C 99.207031 49.199219 91.636719 52.714844 87.042969 60.28125 C 84.339844 55.148438 80.285156 51.902344 74.878906 50.28125 C 66.496094 47.578125 57.847656 49.46875 51.359375 54.878906 C 50.277344 52.445313 48.117188 50.550781 45.683594 50.28125 C 42.441406 49.742188 39.464844 50.011719 36.761719 51.09375 L 36.761719 50.28125 L 19.464844 51.363281 C 19.464844 50.820313 19.734375 50.28125 19.734375 49.742188 C 20.003906 48.660156 20.542969 46.765625 23.789063 44.875 Z M 59.738281 141.105469 C 60.011719 137.324219 61.902344 133.539063 64.875 130.835938 C 67.847656 128.402344 71.363281 127.054688 74.878906 127.054688 C 75.148438 127.054688 75.6875 127.054688 75.960938 127.054688 C 85.960938 127.863281 90.285156 135.699219 90.285156 143 C 90.285156 146.785156 88.664063 150.566406 85.691406 153.542969 C 82.449219 156.515625 78.390625 158.140625 74.335938 157.867188 C 70.28125 157.597656 66.496094 155.703125 63.523438 152.730469 C 60.820313 149.488281 59.46875 145.433594 59.738281 141.105469 Z M 198.683594 148.949219 C 190.03125 148.949219 183.273438 142.460938 183.273438 133.539063 C 183.273438 124.890625 190.03125 118.132813 198.414063 118.132813 C 202.46875 118.132813 206.519531 119.753906 209.496094 122.726563 C 212.46875 125.699219 214.089844 129.484375 214.089844 133.539063 C 214.089844 142.191406 207.332031 148.949219 198.683594 148.949219 Z M 247.882813 91.910156 C 247.609375 96.234375 246.527344 100.5625 245.71875 105.15625 C 245.445313 106.777344 245.179688 108.128906 244.636719 109.753906 C 237.339844 110.5625 230.039063 111.371094 223.554688 112.1875 C 216.253906 103.265625 205.441406 98.667969 194.355469 100.019531 C 183.546875 101.371094 174.085938 107.859375 168.679688 117.863281 C 162.460938 118.398438 156.242188 119.210938 150.027344 120.023438 L 138.132813 121.375 C 131.375 122.1875 124.886719 122.996094 118.128906 123.808594 C 115.964844 124.078125 113.535156 124.347656 111.371094 124.617188 C 108.667969 124.890625 106.234375 125.160156 103.53125 125.429688 C 96.234375 113.535156 85.148438 107.589844 71.09375 108.671875 C 58.660156 109.480469 46.765625 119.753906 43.25 132.1875 C 39.195313 132.457031 34.871094 132.996094 29.464844 133.808594 C 28.382813 128.671875 27.03125 123.808594 25.949219 118.671875 C 24.328125 111.371094 22.707031 104.074219 21.085938 96.777344 C 21.625 97.046875 22.4375 97.316406 23.246094 97.316406 C 24.867188 97.316406 26.21875 97.585938 27.84375 97.585938 C 28.652344 97.585938 29.195313 97.585938 30.003906 97.585938 L 37.574219 97.585938 L 37.574219 71.636719 C 37.574219 71.367188 37.574219 71.097656 37.574219 70.824219 L 37.84375 70.824219 C 39.464844 70.554688 41.359375 70.824219 43.25 70.824219 C 42.710938 76.503906 43.523438 82.179688 46.222656 86.773438 C 51.089844 95.152344 59.738281 98.128906 67.847656 98.128906 C 72.984375 98.128906 78.121094 97.046875 81.636719 95.152344 C 84.339844 93.804688 85.417969 91.101563 85.691406 88.9375 C 85.691406 87.855469 85.691406 87.046875 85.691406 85.964844 C 88.125 91.101563 92.179688 94.886719 97.042969 96.777344 C 101.910156 98.398438 107.316406 98.128906 112.449219 95.695313 C 115.425781 98.128906 119.210938 97.585938 121.101563 97.585938 C 121.644531 97.585938 122.453125 97.585938 122.722656 97.585938 L 126.777344 98.128906 L 132.457031 98.128906 C 135.160156 98.128906 137.59375 98.128906 140.296875 97.855469 C 146.511719 97.855469 153 97.585938 159.21875 97.046875 C 164.621094 96.503906 168.945313 93.261719 171.648438 88.667969 C 173.542969 93.53125 177.597656 96.777344 183.546875 97.855469 C 184.628906 98.128906 185.980469 98.128906 187.058594 98.128906 C 189.761719 98.128906 192.195313 97.585938 194.355469 96.503906 L 194.355469 97.585938 L 200.035156 97.585938 C 200.847656 97.585938 201.386719 97.585938 202.199219 97.585938 C 203.546875 97.585938 204.898438 97.585938 206.25 97.585938 C 208.953125 97.855469 210.847656 97.046875 212.46875 95.695313 L 212.738281 95.425781 L 215.171875 95.964844 C 216.253906 96.234375 217.335938 96.503906 218.417969 96.777344 C 220.851563 97.316406 223.554688 97.855469 226.257813 98.128906 C 227.605469 98.398438 228.957031 98.398438 230.039063 98.398438 C 235.175781 98.398438 239.230469 97.046875 243.015625 94.34375 C 244.90625 92.722656 246.527344 90.828125 247.882813 88.9375 C 247.882813 89.746094 247.882813 90.828125 247.882813 91.910156 Z M 258.695313 40.820313 C 255.988281 31.898438 251.394531 20.546875 242.746094 11.355469 C 239.230469 7.570313 233.554688 2.707031 225.714844 2.164063 L 221.660156 1.625 C 208.144531 0.8125 194.089844 0.00390625 180.304688 0.00390625 C 167.597656 0.00390625 154.078125 0.542969 137.59375 1.894531 C 124.617188 2.976563 109.207031 4.328125 93.800781 7.03125 C 78.121094 9.734375 62.171875 13.246094 47.304688 16.761719 C 36.492188 19.464844 26.21875 23.25 17.03125 28.386719 C 8.648438 32.980469 3.511719 39.738281 1.890625 48.390625 C 0.8125 53.796875 0 58.929688 0 64.339844 C 0 76.773438 1.351563 90.019531 4.59375 104.613281 C 6.488281 113.265625 8.648438 122.1875 10.8125 130.835938 C 11.894531 135.699219 13.246094 140.566406 14.328125 145.164063 C 16.21875 152.730469 22.164063 152.730469 24.597656 152.191406 C 27.84375 151.648438 31.085938 151.382813 34.332031 150.839844 L 35.410156 150.839844 C 37.84375 150.566406 40.546875 150.300781 42.980469 150.027344 C 44.601563 157.058594 48.386719 163.003906 53.523438 167.601563 C 59.738281 172.734375 67.039063 175.441406 74.609375 175.441406 C 75.6875 175.441406 77.039063 175.441406 78.121094 175.167969 C 87.042969 174.085938 94.882813 170.03125 100.558594 163.003906 C 105.152344 157.328125 107.585938 150.027344 107.855469 142.460938 L 165.433594 135.972656 C 166.246094 144.351563 169.761719 151.921875 175.707031 157.597656 C 182.734375 164.355469 192.464844 167.601563 202.199219 166.246094 C 211.117188 165.167969 218.6875 161.109375 224.09375 154.082031 C 230.039063 146.515625 232.203125 137.863281 230.851563 128.402344 L 233.554688 128.132813 C 239.5 127.320313 245.445313 126.78125 251.394531 126.238281 C 256.261719 125.699219 258.152344 122.1875 258.695313 121.105469 C 262.480469 113.265625 264.371094 104.347656 264.910156 92.992188 C 266.261719 75.152344 264.101563 57.578125 258.695313 40.820313 "/>
<path style=" stroke:none;fill-rule:nonzero;fill:rgb(77.999878%,33.699036%,36.099243%);fill-opacity:1;" d="M 95.964844 142.730469 C 95.964844 131.648438 88.664063 122.1875 76.769531 121.375 C 65.417969 120.5625 55.144531 129.484375 54.605469 140.566406 C 54.0625 152.464844 62.714844 162.191406 74.335938 163.003906 C 85.691406 163.816406 95.964844 154.355469 95.964844 142.730469 Z M 198.683594 154.355469 C 210.308594 154.355469 219.496094 145.164063 219.496094 133.808594 C 219.496094 122.1875 210.035156 112.996094 198.414063 112.996094 C 186.789063 112.996094 177.867188 122.1875 177.867188 133.808594 C 177.867188 145.164063 187.058594 154.355469 198.683594 154.355469 Z M 11.625 65.691406 C 12.707031 75.691406 13.246094 84.613281 14.867188 93.53125 C 17.570313 108.128906 21.355469 122.1875 24.597656 136.78125 C 25.140625 139.757813 26.492188 139.757813 28.921875 139.484375 C 34.058594 138.675781 39.464844 138.132813 44.601563 137.59375 C 46.765625 137.324219 47.847656 136.78125 48.117188 134.621094 C 50.550781 124.078125 60.820313 115.15625 71.363281 114.347656 C 84.070313 113.265625 93.257813 118.671875 99.476563 129.484375 C 100.289063 130.835938 100.828125 131.378906 102.449219 131.105469 C 107.855469 130.566406 113.261719 130.023438 118.671875 129.214844 C 127.050781 128.132813 135.160156 127.320313 143.539063 126.238281 C 152.460938 125.160156 161.378906 124.078125 170.570313 123.265625 C 172.191406 122.996094 172.730469 122.457031 173.542969 121.105469 C 182.464844 102.453125 207.0625 99.75 220.039063 115.96875 C 221.117188 117.320313 221.929688 117.589844 223.554688 117.589844 C 231.394531 116.78125 238.960938 115.695313 246.800781 114.886719 C 248.421875 114.617188 249.503906 114.074219 249.773438 112.453125 C 251.125 105.695313 253.015625 99.210938 253.289063 92.179688 C 254.367188 74.878906 251.9375 58.121094 246.527344 41.902344 C 243.824219 34.0625 240.582031 26.765625 234.902344 20.546875 C 231.933594 17.300781 228.6875 14.597656 224.363281 14.058594 C 213.28125 13.246094 202.199219 12.167969 191.113281 12.167969 C 173.8125 12.167969 156.511719 12.976563 139.484375 14.058594 C 125.96875 14.867188 112.449219 16.492188 99.207031 18.382813 C 80.554688 21.085938 61.902344 24.871094 44.0625 30.546875 C 36.222656 32.980469 28.113281 35.953125 21.085938 40.550781 C 17.839844 42.710938 15.40625 45.144531 14.597656 48.929688 C 13.246094 54.605469 12.433594 60.554688 11.625 65.691406 Z M 102.449219 137.59375 C 104.34375 155.433594 92.449219 168.140625 77.851563 169.761719 C 70.28125 170.574219 63.253906 168.140625 57.308594 163.273438 C 51.359375 158.40625 48.386719 151.921875 47.574219 144.082031 C 43.25 144.621094 38.925781 144.894531 34.871094 145.433594 C 31.085938 145.972656 27.300781 146.242188 23.515625 146.785156 C 20.8125 147.324219 20.003906 146.242188 19.464844 143.8125 C 16.21875 130.296875 12.707031 117.050781 9.730469 103.265625 C 7.027344 90.289063 5.40625 77.3125 5.40625 64.339844 C 5.40625 59.472656 6.21875 54.335938 7.296875 49.46875 C 8.648438 42.171875 13.246094 36.765625 19.734375 33.25 C 28.921875 28.113281 38.65625 24.601563 48.65625 22.167969 C 63.792969 18.382813 79.203125 14.867188 94.609375 12.4375 C 108.9375 10.003906 123.535156 8.652344 138.132813 7.300781 C 152.1875 6.21875 166.246094 5.410156 180.304688 5.410156 C 195.4375 5.410156 210.308594 6.488281 225.445313 7.300781 C 230.851563 7.570313 235.175781 10.816406 238.960938 14.867188 C 246.261719 22.707031 250.3125 32.171875 253.558594 42.441406 C 258.695313 58.660156 260.855469 75.691406 259.773438 92.722656 C 259.234375 101.644531 257.882813 110.5625 254.101563 118.941406 C 253.558594 120.292969 252.746094 120.835938 251.125 121.105469 C 243.558594 121.914063 235.988281 122.726563 228.417969 123.539063 C 227.335938 123.808594 225.984375 123.808594 224.632813 124.078125 C 227.605469 133.808594 226.523438 143 220.039063 150.839844 C 215.441406 156.785156 209.226563 160.03125 201.925781 160.839844 C 186.246094 162.734375 169.761719 150.566406 171.109375 129.753906 C 148.132813 132.457031 125.425781 135.160156 102.449219 137.59375 "/>
<path style=" stroke:none;fill-rule:nonzero;fill:rgb(77.999878%,33.699036%,36.099243%);fill-opacity:1;" d="M 143.808594 49.46875 C 143.808594 54.335938 143.808594 58.660156 143.808594 63.527344 C 146.238281 63.527344 148.402344 63.527344 150.835938 63.527344 C 154.621094 63.527344 156.511719 61.09375 156.78125 57.578125 C 157.054688 52.984375 154.894531 50.011719 151.378906 49.742188 C 148.675781 49.199219 146.511719 49.46875 143.808594 49.46875 Z M 143.808594 83.800781 C 146.78125 83.800781 149.753906 84.070313 152.730469 83.800781 C 156.78125 83.261719 158.675781 80.828125 158.675781 76.503906 C 158.675781 72.175781 156.78125 68.933594 153 68.394531 C 150.027344 68.121094 146.78125 68.394531 143.808594 68.394531 C 143.808594 73.527344 143.808594 78.394531 143.808594 83.800781 Z M 132.996094 41.632813 C 141.644531 41.632813 150.027344 40.820313 158.40625 41.902344 C 168.40625 43.253906 169.488281 54.335938 166.246094 60.28125 C 164.894531 62.445313 162.191406 63.796875 160.570313 65.417969 C 161.648438 65.960938 163.003906 66.5 164.351563 67.3125 C 168.945313 70.285156 171.109375 74.609375 169.761719 80.828125 C 168.679688 86.503906 165.164063 90.828125 159.488281 91.640625 C 150.835938 92.722656 141.914063 92.453125 133.265625 92.722656 C 132.996094 74.878906 132.996094 58.121094 132.996094 41.632813 "/>
<path style=" stroke:none;fill-rule:nonzero;fill:rgb(77.999878%,33.699036%,36.099243%);fill-opacity:1;" d="M 114.34375 73.257813 C 114.34375 71.097656 114.34375 68.933594 114.34375 67.039063 C 114.34375 66.230469 114.074219 65.417969 113.804688 64.878906 C 110.019531 61.632813 101.367188 61.632813 100.019531 68.121094 C 99.476563 70.554688 99.207031 73.257813 99.476563 75.960938 C 100.019531 82.988281 105.964844 86.234375 112.183594 82.988281 C 113.804688 82.179688 114.886719 81.097656 114.613281 79.207031 C 114.074219 77.042969 114.34375 75.152344 114.34375 73.257813 Z M 124.074219 91.910156 C 120.5625 91.640625 116.507813 93.804688 114.613281 88.667969 C 113.261719 89.207031 112.449219 89.746094 111.371094 90.289063 C 103.261719 94.613281 94.609375 91.910156 91.097656 83.53125 C 88.125 76.773438 88.125 70.015625 91.636719 63.527344 C 95.964844 55.957031 103.800781 54.335938 111.910156 55.957031 C 112.722656 56.230469 113.261719 56.5 114.613281 56.769531 C 114.613281 53.796875 114.613281 51.363281 114.613281 48.929688 C 114.613281 46.496094 114.613281 44.0625 114.613281 41.359375 C 117.859375 41.359375 121.101563 41.359375 124.074219 41.359375 C 124.074219 58.121094 124.074219 74.878906 124.074219 91.910156 "/>
<path style=" stroke:none;fill-rule:nonzero;fill:rgb(77.999878%,33.699036%,36.099243%);fill-opacity:1;" d="M 75.417969 71.097656 C 75.960938 67.039063 71.90625 62.714844 67.578125 62.714844 C 62.445313 62.445313 58.929688 65.691406 58.929688 71.097656 C 64.335938 71.097656 70.011719 71.097656 75.417969 71.097656 Z M 85.417969 75.960938 C 76.230469 75.960938 67.578125 75.960938 59.199219 75.960938 C 59.46875 80.558594 62.714844 84.339844 67.578125 84.070313 C 71.90625 83.800781 76.230469 82.988281 80.824219 82.179688 C 80.824219 84.070313 80.824219 86.234375 80.824219 88.667969 C 80.824219 89.207031 80.285156 90.019531 80.015625 90.289063 C 72.175781 94.074219 57.578125 94.613281 51.359375 84.070313 C 47.574219 77.3125 48.117188 67.3125 52.710938 61.363281 C 57.578125 55.148438 65.6875 52.714844 73.527344 55.148438 C 79.472656 57.039063 82.71875 61.632813 84.339844 67.582031 C 84.878906 70.285156 84.878906 72.71875 85.417969 75.960938 "/>
<path style=" stroke:none;fill-rule:nonzero;fill:rgb(77.999878%,33.699036%,36.099243%);fill-opacity:1;" d="M 200.035156 92.179688 C 199.765625 90.828125 199.765625 89.746094 199.765625 88.394531 C 198.414063 89.207031 197.0625 89.746094 195.980469 90.289063 C 192.734375 91.910156 189.222656 93.261719 185.4375 92.453125 C 180.304688 91.371094 177.058594 88.394531 176.789063 82.988281 C 176.515625 74.339844 176.789063 65.691406 176.789063 56.769531 C 179.761719 56.769531 182.734375 56.769531 186.246094 56.769531 C 186.246094 57.578125 186.246094 58.390625 186.246094 59.472656 C 186.246094 65.417969 186.246094 71.097656 186.246094 77.042969 C 186.246094 82.179688 189.222656 84.613281 194.355469 83.53125 C 198.683594 82.71875 200.035156 80.828125 200.035156 76.230469 C 200.035156 69.742188 200.035156 63.527344 200.035156 56.769531 C 203.277344 56.769531 206.25 56.769531 209.496094 56.769531 C 209.496094 57.578125 209.765625 58.660156 209.765625 59.472656 C 209.765625 69.472656 209.765625 79.476563 209.765625 89.207031 C 209.765625 91.371094 209.226563 92.179688 206.792969 92.179688 C 204.359375 91.910156 202.199219 92.179688 200.035156 92.179688 "/>
<path style=" stroke:none;fill-rule:nonzero;fill:rgb(77.999878%,33.699036%,36.099243%);fill-opacity:1;" d="M 216.523438 90.558594 C 216.523438 87.046875 216.523438 84.339844 216.523438 82.179688 C 220.851563 82.988281 225.175781 83.800781 229.5 84.339844 C 230.578125 84.613281 231.933594 84.339844 232.742188 83.800781 C 233.824219 82.988281 235.445313 81.636719 235.71875 80.558594 C 235.71875 79.476563 234.363281 77.585938 233.015625 77.3125 C 230.308594 76.503906 227.335938 76.230469 224.632813 75.691406 C 217.0625 74.070313 214.359375 64.878906 219.496094 59.199219 C 222.472656 55.6875 226.257813 54.335938 230.851563 54.335938 C 234.09375 54.335938 237.339844 54.878906 240.582031 55.417969 C 241.121094 55.417969 241.933594 56.5 241.933594 57.039063 C 242.203125 59.472656 241.933594 61.632813 241.933594 64.066406 C 238.421875 63.527344 234.902344 62.984375 231.390625 62.445313 C 230.308594 62.445313 229.226563 62.445313 228.417969 62.984375 C 227.335938 63.527344 225.984375 64.878906 226.257813 65.691406 C 226.257813 66.5 227.605469 68.121094 228.6875 68.394531 C 230.851563 69.203125 233.285156 69.203125 235.71875 69.742188 C 240.3125 70.554688 243.558594 72.71875 244.90625 77.3125 C 246.261719 81.910156 244.09375 87.046875 240.3125 90.019531 C 236.527344 92.992188 231.933594 93.261719 227.335938 92.722656 C 223.554688 92.179688 220.039063 91.101563 216.523438 90.558594 "/>
<path style=" stroke:none;fill-rule:nonzero;fill:rgb(77.999878%,33.699036%,36.099243%);fill-opacity:1;" d="M 22.4375 56.5 C 25.679688 56.230469 28.921875 55.957031 32.167969 55.6875 C 32.167969 56.769531 32.4375 57.578125 32.4375 58.929688 C 33.789063 58.121094 34.871094 57.851563 35.683594 57.039063 C 38.65625 55.148438 41.628906 54.605469 45.144531 55.148438 C 45.953125 55.148438 46.765625 56.230469 46.765625 57.039063 C 47.035156 60.011719 46.765625 62.984375 46.765625 65.417969 C 43.523438 65.148438 40.277344 64.609375 37.035156 65.148438 C 32.976563 65.691406 31.898438 67.3125 31.898438 71.367188 C 31.898438 78.125 31.898438 84.613281 31.898438 91.910156 C 28.921875 91.910156 26.21875 91.910156 23.515625 91.910156 C 22.976563 91.910156 22.164063 90.289063 22.164063 89.746094 C 22.164063 80.285156 22.164063 71.097656 22.164063 61.632813 C 22.4375 60.011719 22.4375 58.390625 22.4375 56.5 "/>
</g>
</svg>
