<svg xmlns="http://www.w3.org/2000/svg" width="2500" height="2500" viewBox="0 0 192.756 192.756">
<g fill-rule="evenodd" clip-rule="evenodd"><path fill="rgba(0,0,0,0)" d="M0 0h192.756v192.756H0V0z"/>
<path d="M184.252 111.733c0 .854-.232 1.668-.66 2.405a4.54 4.54 0 0 1-1.746 1.784 4.868 4.868 0 0 1-2.443.621 4.837 4.837 0 0 1-2.406-.621 4.55 4.55 0 0 1-1.744-1.784c-.428-.737-.66-1.552-.66-2.405s.232-1.668.66-2.405a4.713 4.713 0 0 1 1.744-1.746c.777-.427 1.553-.659 2.406-.659.893 0 1.668.232 2.443.659a4.703 4.703 0 0 1 1.746 1.746c.428.737.66 1.552.66 2.405zm-.932 0c0-1.048-.387-1.979-1.164-2.755-.736-.737-1.668-1.125-2.754-1.125a3.75 3.75 0 0 0-2.715 1.125c-.777.776-1.164 1.707-1.164 2.755 0 1.086.387 1.979 1.164 2.754.736.776 1.668 1.126 2.715 1.126 1.086 0 2.018-.35 2.754-1.126.778-.775 1.164-1.668 1.164-2.754zm-6.09-2.56h2.326c.621 0 1.127.116 1.398.388.309.271.426.621.426 1.048 0 .349-.078.659-.311.892-.232.272-.582.466-1.047.544.193.077.311.193.426.271.117.116.271.271.389.504.039.039.311.505.854 1.514h-1.514c-.504-1.009-.814-1.591-1.008-1.785-.156-.194-.311-.271-.504-.271h-.156v2.057h-1.279v-5.162zm1.28 2.173h.543c.389 0 .66-.078.814-.194a.64.64 0 0 0 .195-.466c0-.193-.039-.349-.195-.466-.154-.116-.387-.154-.736-.154h-.621v1.28z"/><path d="M157.404 63.858c0-1.086.893-1.979 1.979-1.979 1.088 0 1.979.892 1.979 1.979s-.891 1.979-1.979 1.979a1.987 1.987 0 0 1-1.979-1.979zM162.76 63.16c0-1.086.891-1.979 1.979-1.979 1.086 0 1.979.892 1.979 1.979a1.988 1.988 0 0 1-1.979 1.979 1.986 1.986 0 0 1-1.979-1.979zM167.996 63.703c0-1.086.893-1.979 1.979-1.979s1.979.893 1.979 1.979-.893 1.979-1.979 1.979-1.979-.892-1.979-1.979zM114.574 91.404s-1.514-13.734 6.322-23.976c-1.979.311-3.258.194-5.121-.543-1.473-.543-1.822-1.979-3.375-2.134-1.629-.194-3.219-.271-3.918 1.629-.736 2.096-2.56 7.914 6.092 25.024z" fill="#cc2229"/><path d="M118.064 95.594s4.424-11.057 15.635-20.484c-1.707.271-2.637.233-4.383-.543-1.203-.543-2.096-3.841-4.656-5.237-1.008-.543-1.822 0-3.182 1.474-1.046 1.202-6.05 10.358-3.414 24.79z" fill="#cc2229"/><path d="M53.702 66.341h3.608c3.143-.078 5.393.271 6.518.699 2.173.814 4.307 4.578 3.492 8.108-.466 1.979-1.668 2.988-2.871 4.151.814 1.474 2.561 4.384 3.491 7.41h-4.151s-2.444-5.858-5.121-9.583c1.862.349 4.423.116 4.888-2.522.621-3.647-2.561-4.85-4.733-4.617-.62.078-1.047-.078-1.436.078-.039 5.354-.116 14.587.233 16.644h-3.958s.271-1.008.271-1.94c.078-9.001.039-11.367-.078-15.169.002-1.163-.076-1.978-.153-3.259zm15.518 0c.078 1.281.117 2.095.155 3.259.078 3.802.155 6.168.039 15.169 0 .932-.271 1.94-.271 1.94H73.1c-.504-2.949-.582-19.126-.311-20.329l-3.569-.039zm14.006.621l-.039 4.462c0-1.862-2.987-2.522-4.539-1.63-.854.505-1.241 2.367.659 3.841 2.328 1.746 4.617 2.25 5.315 5.004.737 2.832-.388 5.858-2.521 7.1-2.677 1.552-6.052.931-7.954.194v-3.957c1.125.582 2.988 1.629 4.927 1.086 2.716-.814 2.405-3.104 1.746-4.035-1.514-2.056-3.414-2.444-5.005-4.229-2.018-2.289-1.319-4.966.116-6.75 1.825-2.25 5.277-1.823 7.295-1.086zm2.6 20.058V66.769s6.323 2.405 10.048 9.621c3.531-6.75 9.777-9.621 9.777-9.621V87.02h-3.297V73.79s-5.238 5.432-6.286 12.881c-1.396-7.41-6.789-13.191-6.789-13.191v13.54h-3.453zM52.305 67.04v12.415c0 2.716-.504 4.733-1.552 6.052-1.086 1.319-2.638 2.018-4.772 2.018-2.173 0-3.763-.698-4.811-2.018-1.047-1.319-1.591-3.336-1.591-6.052V67.04h3.143v11.755c0 1.629.271 2.871.776 3.686.543.854 1.357 1.28 2.444 1.28 1.047 0 1.863-.427 2.406-1.28.582-.814.854-2.056.854-3.686V67.04h3.103zM11.918 87.602V69.95H8.504v-2.91h10.552v2.91H15.41v17.652h-3.492zm26.459-10.514c0 1.436-.232 2.755-.737 3.996s-1.203 2.367-2.134 3.336c-.97.97-2.018 1.707-3.259 2.25-1.242.504-2.483.776-3.802.776s-2.561-.271-3.802-.776a10.264 10.264 0 0 1-3.22-2.25c-.97-.97-1.668-2.095-2.173-3.336s-.737-2.599-.737-3.996c0-1.396.233-2.716.737-3.957a10.064 10.064 0 0 1 2.173-3.375c.931-.931 2.017-1.707 3.22-2.211a9.804 9.804 0 0 1 3.802-.775c1.319 0 2.599.271 3.802.775 1.241.504 2.328 1.28 3.259 2.211.931.97 1.629 2.095 2.134 3.336.505 1.241.737 2.599.737 3.996zm-9.932 6.867a6.46 6.46 0 0 0 2.561-.543c.854-.311 1.552-.815 2.211-1.475.66-.66 1.164-1.396 1.474-2.211a6.647 6.647 0 0 0 .543-2.6c0-.931-.194-1.824-.543-2.638-.349-.854-.814-1.591-1.474-2.25a6.943 6.943 0 0 0-2.173-1.474c-.814-.31-1.707-.504-2.599-.504-.931 0-1.785.194-2.599.504a6.96 6.96 0 0 0-2.173 1.474 6.783 6.783 0 0 0-1.513 2.25 7.403 7.403 0 0 0-.505 2.638c0 .892.194 1.784.505 2.6a7.042 7.042 0 0 0 1.513 2.211 7.325 7.325 0 0 0 2.173 1.513c.815.311 1.668.505 2.599.505zM54.866 116.389C56.573 95.982 65.535 89.27 65.535 89.27s8.962 6.712 10.63 27.119h-5.199s-.039-2.755-.35-4.307H60.453c-.35 1.552-.388 4.307-.388 4.307h-5.199zm6.285-9.156s.698-5.859 4.306-9.816c3.647 3.88 4.423 9.816 4.423 9.816h-8.729zM92.343 116.389c1.668-20.407 10.629-27.119 10.629-27.119s8.963 6.712 10.631 27.119h-5.16s-.039-2.755-.389-4.307H97.891c-.35 1.552-.387 4.307-.387 4.307h-5.161zm6.247-9.156s.736-5.859 4.307-9.816c3.646 3.88 4.461 9.816 4.461 9.816H98.59zM149.18 116.389c1.668-20.407 10.631-27.119 10.631-27.119s8.961 6.712 10.668 27.119h-5.197s-.039-2.755-.389-4.307h-10.164c-.35 1.552-.35 4.307-.35 4.307h-5.199zm6.246-9.156s.738-5.859 4.307-9.816c3.686 3.88 4.463 9.816 4.463 9.816h-8.77zM26.389 116.389V89.813s8.341 3.143 13.229 12.648c4.617-8.885 12.88-12.648 12.88-12.648v26.576h-4.345V99.047s-6.867 7.139-8.302 16.876c-1.823-9.699-8.884-17.303-8.884-17.303v17.769h-4.578zM77.717 88.843c.078 1.707.155 2.793.194 4.307.155 5.082.194 8.224.078 20.212 0 1.242-.35 2.561-.35 2.561h13.462l-.039-4.577c-.893.465-8.574.154-8.574.154V88.843h-4.771z" fill="#41509e"/><path d="M106.658 88.843h4.113c.156 1.785 1.707 3.181 4.113 7.216 1.279 2.172 2.172 3.918 3.375 6.285 3.219-8.652 9.621-20.64 20.949-28.593 9.893-6.906 24.016-7.915 35.693-5.781 1.475.271 1.279 1.048-.193.815-8.342-1.28-23.24-1.125-34.414 6.75-11.445 8.031-16.332 17.109-18.078 30.959-.932 7.527.154 13.347 1.785 19.398.543 2.057 2.016 3.647-.545 5.393-1.512 1.048-3.258-.97-3.84-2.677-1.629-4.733-1.629-6.867-2.172-11.328-.35-3.104.232-5.471-.543-8.031-1.01-3.414-3.688-9.389-6.053-12.725-1.666-2.327-3.955-5.663-4.19-7.681z" fill="#41509e"/><path d="M142.236 88.843c.076 1.707.154 2.793.193 4.307.154 5.082.232 8.224.078 20.212 0 1.242-.35 2.561-.35 2.561h5.275c-.697-3.879-.814-25.45-.426-27.08h-4.77zM138.588 89.115l-.037 6.091c0-2.561-4.074-3.453-6.131-2.25-1.203.698-1.707 3.259.854 5.198 3.143 2.405 6.285 3.065 7.217 6.79.969 3.879-.543 7.953-3.453 9.66-3.57 2.056-8.188 1.28-10.746.271v-5.393c1.551.775 4.072 2.211 6.672 1.474 3.686-1.086 3.299-4.19 2.328-5.47-2.018-2.755-4.578-3.298-6.713-5.703-2.793-3.143-1.822-6.751.117-9.156 2.443-3.064 7.138-2.521 9.892-1.512z" fill="#41509e"/></g></svg>