<?xml version="1.0" encoding="UTF-8"?>
<svg xmlns="http://www.w3.org/2000/svg" xmlns:xlink="http://www.w3.org/1999/xlink" width="198.68pt" height="37.68pt" viewBox="0 0 198.68 37.68" version="1.1">
<defs>
<clipPath id="clip1">
  <path d="M 86 29 L 92 29 L 92 37.679688 L 86 37.679688 Z M 86 29 "/>
</clipPath>
<clipPath id="clip2">
  <path d="M 177 29 L 183 29 L 183 37.679688 L 177 37.679688 Z M 177 29 "/>
</clipPath>
<clipPath id="clip3">
  <path d="M 195 27 L 198.679688 27 L 198.679688 32 L 195 32 Z M 195 27 "/>
</clipPath>
</defs>
<g id="surface1">
<path style=" stroke:none;fill-rule:nonzero;fill:rgb(89.01825%,10.588074%,13.725281%);fill-opacity:1;" d="M 9.757813 15.566406 C 9.757813 16.617188 10.605469 17.464844 11.65625 17.464844 C 12.703125 17.464844 13.550781 16.617188 13.550781 15.566406 C 13.550781 14.519531 12.703125 13.671875 11.65625 13.671875 C 10.605469 13.671875 9.757813 14.519531 9.757813 15.566406 "/>
<path style=" stroke:none;fill-rule:nonzero;fill:rgb(0%,66.273499%,30.979919%);fill-opacity:1;" d="M 32.59375 15.566406 C 32.59375 16.617188 33.445313 17.464844 34.492188 17.464844 C 35.539063 17.464844 36.390625 16.617188 36.390625 15.566406 C 36.390625 14.519531 35.539063 13.671875 34.492188 13.671875 C 33.445313 13.671875 32.59375 14.519531 32.59375 15.566406 "/>
<path style=" stroke:none;fill-rule:nonzero;fill:rgb(10.998535%,11.399841%,10.598755%);fill-opacity:1;" d="M 8.90625 18.316406 C 8.175781 17.582031 7.769531 16.605469 7.769531 15.566406 C 7.769531 14.53125 8.175781 13.554688 8.90625 12.824219 C 9.640625 12.089844 10.617188 11.683594 11.65625 11.683594 C 13.792969 11.683594 15.535156 13.425781 15.535156 15.566406 C 15.535156 17.710938 13.792969 19.453125 11.65625 19.453125 C 10.617188 19.453125 9.640625 19.046875 8.90625 18.316406 Z M 7.695313 11.609375 C 6.636719 12.667969 6.054688 14.074219 6.054688 15.566406 C 6.054688 17.0625 6.636719 18.472656 7.695313 19.527344 C 8.75 20.585938 10.15625 21.167969 11.65625 21.167969 C 14.738281 21.167969 17.253906 18.65625 17.253906 15.566406 C 17.253906 12.480469 14.738281 9.96875 11.65625 9.96875 C 10.15625 9.96875 8.75 10.550781 7.695313 11.609375 "/>
<path style=" stroke:none;fill-rule:nonzero;fill:rgb(10.998535%,11.399841%,10.598755%);fill-opacity:1;" d="M 31.746094 18.316406 C 31.011719 17.582031 30.609375 16.605469 30.609375 15.566406 C 30.609375 14.53125 31.011719 13.554688 31.746094 12.824219 C 32.476563 12.089844 33.453125 11.683594 34.492188 11.683594 C 36.632813 11.683594 38.375 13.425781 38.375 15.566406 C 38.375 17.710938 36.632813 19.453125 34.492188 19.453125 C 33.453125 19.453125 32.476563 19.046875 31.746094 18.316406 Z M 30.53125 11.609375 C 29.472656 12.667969 28.890625 14.074219 28.890625 15.566406 C 28.890625 17.0625 29.472656 18.472656 30.53125 19.527344 C 31.589844 20.585938 32.996094 21.167969 34.492188 21.167969 C 37.582031 21.167969 40.089844 18.65625 40.089844 15.566406 C 40.089844 12.480469 37.582031 9.96875 34.492188 9.96875 C 32.996094 9.96875 31.589844 10.550781 30.53125 11.609375 "/>
<path style=" stroke:none;fill-rule:nonzero;fill:rgb(10.998535%,11.399841%,10.598755%);fill-opacity:1;" d="M 34.492188 24.933594 C 29.328125 24.933594 25.125 20.734375 25.125 15.566406 C 25.125 10.402344 29.328125 6.203125 34.492188 6.203125 C 39.65625 6.203125 43.855469 10.402344 43.855469 15.566406 C 43.855469 20.734375 39.65625 24.933594 34.492188 24.933594 Z M 11.65625 24.933594 C 6.488281 24.933594 2.289063 20.734375 2.289063 15.566406 C 2.289063 10.402344 6.488281 6.203125 11.65625 6.203125 C 16.820313 6.203125 21.019531 10.402344 21.019531 15.566406 C 21.019531 20.734375 16.820313 24.933594 11.65625 24.933594 Z M 43.515625 8.203125 C 43.957031 6.894531 44.625 5.355469 45.554688 4.425781 L 37.902344 4.425781 C 37.773438 4.386719 37.644531 4.359375 37.515625 4.324219 C 37.097656 3.671875 34.253906 0 22.875 0 C 10.390625 0 8.175781 4.425781 8.175781 4.425781 L 0.195313 4.425781 C 1.214844 5.445313 1.921875 7.195313 2.355469 8.574219 C 0.882813 10.523438 0 12.941406 0 15.566406 C 0 21.996094 5.226563 27.222656 11.65625 27.222656 C 15.214844 27.222656 18.40625 25.613281 20.542969 23.085938 L 23.191406 26.789063 L 25.472656 22.941406 C 27.613281 25.550781 30.859375 27.222656 34.492188 27.222656 C 40.917969 27.222656 46.144531 21.996094 46.144531 15.566406 C 46.144531 12.777344 45.15625 10.214844 43.515625 8.203125 "/>
<path style=" stroke:none;fill-rule:nonzero;fill:rgb(100%,88.233948%,60.783386%);fill-opacity:1;" d="M 23.585938 1.34375 C 31.566406 1.34375 34.570313 4.664063 34.570313 4.664063 C 34.570313 4.664063 26.035156 3.242188 23.191406 13.75 C 20.347656 3.242188 11.8125 4.664063 11.8125 4.664063 C 11.8125 4.664063 14.816406 1.34375 22.796875 1.34375 L 23.585938 1.34375 "/>
<path style="fill:none;stroke-width:5.72045;stroke-linecap:butt;stroke-linejoin:miter;stroke:rgb(10.998535%,11.399841%,10.598755%);stroke-opacity:1;stroke-miterlimit:4;" d="M 235.859375 363.3625 C 315.664063 363.3625 345.703125 330.159375 345.703125 330.159375 C 345.703125 330.159375 260.351563 344.378125 231.914063 239.3 C 203.476563 344.378125 118.125 330.159375 118.125 330.159375 C 118.125 330.159375 148.164063 363.3625 227.96875 363.3625 Z M 235.859375 363.3625 " transform="matrix(0.1,0,0,-0.1,0,37.68)"/>
<path style=" stroke:none;fill-rule:nonzero;fill:rgb(10.998535%,11.399841%,10.598755%);fill-opacity:1;" d="M 54.765625 6.957031 L 54.765625 9.945313 L 58.007813 9.945313 L 58.007813 11.667969 L 54.765625 11.667969 L 54.765625 18.386719 C 54.765625 19.933594 55.203125 20.808594 56.464844 20.808594 C 57.082031 20.808594 57.441406 20.753906 57.777344 20.652344 L 57.878906 22.378906 C 57.441406 22.53125 56.746094 22.6875 55.871094 22.6875 C 54.816406 22.6875 53.964844 22.324219 53.425781 21.734375 C 52.804688 21.039063 52.550781 19.933594 52.550781 18.464844 L 52.550781 11.667969 L 50.617188 11.667969 L 50.617188 9.945313 L 52.550781 9.945313 L 52.550781 7.652344 L 54.765625 6.957031 "/>
<path style=" stroke:none;fill-rule:nonzero;fill:rgb(10.998535%,11.399841%,10.598755%);fill-opacity:1;" d="M 60.039063 13.832031 C 60.039063 12.363281 60.015625 11.101563 59.9375 9.945313 L 61.917969 9.945313 L 62.023438 12.390625 L 62.097656 12.390625 C 62.664063 10.714844 64.054688 9.660156 65.574219 9.660156 C 65.804688 9.660156 65.988281 9.6875 66.195313 9.738281 L 66.195313 11.847656 C 65.933594 11.824219 65.703125 11.796875 65.394531 11.796875 C 63.796875 11.796875 62.664063 13.007813 62.355469 14.679688 C 62.304688 15.015625 62.28125 15.375 62.28125 15.761719 L 62.28125 22.402344 L 60.015625 22.402344 L 60.039063 13.832031 "/>
<path style=" stroke:none;fill-rule:nonzero;fill:rgb(10.998535%,11.399841%,10.598755%);fill-opacity:1;" d="M 67.996094 22.402344 L 67.996094 9.945313 L 70.261719 9.945313 L 70.261719 22.402344 Z M 69.078125 7.652344 C 68.226563 7.652344 67.660156 6.984375 67.660156 6.183594 C 67.660156 5.386719 68.253906 4.742188 69.128906 4.742188 C 70.003906 4.742188 70.570313 5.386719 70.570313 6.183594 C 70.570313 6.984375 70.003906 7.652344 69.101563 7.652344 L 69.078125 7.652344 "/>
<path style=" stroke:none;fill-rule:nonzero;fill:rgb(10.998535%,11.399841%,10.598755%);fill-opacity:1;" d="M 75.742188 17.332031 C 75.742188 17.640625 75.769531 17.976563 75.84375 18.257813 C 76.230469 19.828125 77.621094 20.910156 79.21875 20.910156 C 81.613281 20.910156 83.003906 18.953125 83.003906 16.097656 C 83.003906 13.597656 81.714844 11.464844 79.320313 11.464844 C 77.777344 11.464844 76.308594 12.542969 75.871094 14.242188 C 75.820313 14.550781 75.742188 14.886719 75.742188 15.167969 Z M 73.476563 14.011719 C 73.476563 12.414063 73.453125 11.128906 73.375 9.945313 L 75.40625 9.945313 L 75.535156 12.082031 L 75.589844 12.082031 C 76.488281 10.535156 77.980469 9.660156 79.988281 9.660156 C 83.027344 9.660156 85.292969 12.210938 85.292969 15.992188 C 85.292969 20.472656 82.539063 22.6875 79.628906 22.6875 C 77.957031 22.6875 76.539063 21.964844 75.792969 20.730469 L 75.742188 20.730469 L 75.742188 27.5 L 73.476563 27.5 L 73.476563 14.011719 "/>
<path style=" stroke:none;fill-rule:nonzero;fill:rgb(0%,66.273499%,30.979919%);fill-opacity:1;" d="M 94.148438 16.046875 C 91.675781 15.992188 88.871094 16.429688 88.871094 18.851563 C 88.871094 20.34375 89.847656 21.011719 90.980469 21.011719 C 92.628906 21.011719 93.683594 19.984375 94.042969 18.925781 C 94.121094 18.695313 94.148438 18.4375 94.148438 18.207031 Z M 96.359375 19.417969 C 96.359375 20.5 96.414063 21.554688 96.542969 22.402344 L 94.507813 22.402344 L 94.300781 20.832031 L 94.226563 20.832031 C 93.554688 21.8125 92.191406 22.6875 90.414063 22.6875 C 87.894531 22.6875 86.605469 20.910156 86.605469 19.109375 C 86.605469 16.097656 89.28125 14.449219 94.097656 14.476563 L 94.097656 14.21875 C 94.097656 13.1875 93.8125 11.308594 91.265625 11.332031 C 90.082031 11.332031 88.871094 11.667969 87.996094 12.261719 L 87.480469 10.742188 C 88.511719 10.097656 90.03125 9.660156 91.597656 9.660156 C 95.433594 9.660156 96.359375 12.261719 96.359375 14.757813 L 96.359375 19.417969 "/>
<path style=" stroke:none;fill-rule:nonzero;fill:rgb(0%,66.273499%,30.979919%);fill-opacity:1;" d="M 107.945313 15.015625 C 107.945313 14.707031 107.921875 14.34375 107.84375 14.035156 C 107.507813 12.621094 106.273438 11.4375 104.574219 11.4375 C 102.230469 11.4375 100.839844 13.496094 100.839844 16.226563 C 100.839844 18.773438 102.101563 20.859375 104.523438 20.859375 C 106.039063 20.859375 107.429688 19.828125 107.84375 18.15625 C 107.921875 17.847656 107.945313 17.539063 107.945313 17.175781 Z M 110.210938 4.125 L 110.210938 19.183594 C 110.210938 20.292969 110.234375 21.554688 110.3125 22.402344 L 108.277344 22.402344 L 108.179688 20.242188 L 108.125 20.242188 C 107.429688 21.632813 105.9375 22.6875 103.902344 22.6875 C 100.894531 22.6875 98.550781 20.136719 98.550781 16.351563 C 98.523438 12.183594 101.125 9.660156 104.136719 9.660156 C 106.066406 9.660156 107.355469 10.5625 107.894531 11.539063 L 107.945313 11.539063 L 107.945313 4.125 L 110.210938 4.125 "/>
<path style=" stroke:none;fill-rule:nonzero;fill:rgb(0%,66.273499%,30.979919%);fill-opacity:1;" d="M 114.277344 9.945313 L 116.726563 16.917969 C 117.136719 18.078125 117.472656 19.109375 117.726563 20.136719 L 117.804688 20.136719 C 118.089844 19.109375 118.449219 18.078125 118.859375 16.917969 L 121.28125 9.945313 L 123.648438 9.945313 L 118.757813 22.402344 L 116.597656 22.402344 L 111.859375 9.945313 L 114.277344 9.945313 "/>
<path style=" stroke:none;fill-rule:nonzero;fill:rgb(0%,66.273499%,30.979919%);fill-opacity:1;" d="M 125.242188 22.402344 L 125.242188 9.945313 L 127.511719 9.945313 L 127.511719 22.402344 Z M 126.324219 7.652344 C 125.476563 7.652344 124.910156 6.984375 124.910156 6.183594 C 124.910156 5.386719 125.503906 4.742188 126.378906 4.742188 C 127.253906 4.742188 127.820313 5.386719 127.820313 6.183594 C 127.820313 6.984375 127.253906 7.652344 126.351563 7.652344 L 126.324219 7.652344 "/>
<path style=" stroke:none;fill-rule:nonzero;fill:rgb(0%,66.273499%,30.979919%);fill-opacity:1;" d="M 130.417969 20.113281 C 131.113281 20.523438 132.296875 20.988281 133.429688 20.988281 C 135.050781 20.988281 135.824219 20.1875 135.824219 19.132813 C 135.824219 18.050781 135.179688 17.460938 133.53125 16.84375 C 131.269531 16.019531 130.210938 14.808594 130.210938 13.316406 C 130.210938 11.308594 131.859375 9.660156 134.511719 9.660156 C 135.773438 9.660156 136.878906 9.996094 137.550781 10.433594 L 137.007813 12.054688 C 136.519531 11.769531 135.617188 11.332031 134.460938 11.332031 C 133.121094 11.332031 132.398438 12.105469 132.398438 13.03125 C 132.398438 14.089844 133.121094 14.550781 134.742188 15.167969 C 136.878906 15.96875 138.011719 17.046875 138.011719 18.925781 C 138.011719 21.140625 136.285156 22.6875 133.378906 22.6875 C 132.015625 22.6875 130.753906 22.324219 129.878906 21.8125 L 130.417969 20.113281 "/>
<path style=" stroke:none;fill-rule:nonzero;fill:rgb(0%,66.273499%,30.979919%);fill-opacity:1;" d="M 145.527344 20.988281 C 147.691406 20.988281 149.3125 18.953125 149.3125 16.121094 C 149.3125 14.011719 148.257813 11.359375 145.578125 11.359375 C 142.929688 11.359375 141.769531 13.832031 141.769531 16.199219 C 141.769531 18.925781 143.3125 20.988281 145.503906 20.988281 Z M 145.449219 22.6875 C 142.105469 22.6875 139.480469 20.214844 139.480469 16.277344 C 139.480469 12.105469 142.234375 9.660156 145.65625 9.660156 C 149.234375 9.660156 151.65625 12.261719 151.65625 16.046875 C 151.65625 20.679688 148.4375 22.6875 145.476563 22.6875 L 145.449219 22.6875 "/>
<path style=" stroke:none;fill-rule:nonzero;fill:rgb(0%,66.273499%,30.979919%);fill-opacity:1;" d="M 153.996094 13.832031 C 153.996094 12.363281 153.972656 11.101563 153.894531 9.945313 L 155.875 9.945313 L 155.980469 12.390625 L 156.058594 12.390625 C 156.621094 10.714844 158.011719 9.660156 159.53125 9.660156 C 159.765625 9.660156 159.941406 9.6875 160.148438 9.738281 L 160.148438 11.847656 C 159.894531 11.824219 159.660156 11.796875 159.351563 11.796875 C 157.757813 11.796875 156.621094 13.007813 156.3125 14.679688 C 156.261719 15.015625 156.238281 15.375 156.238281 15.761719 L 156.238281 22.402344 L 153.972656 22.402344 L 153.996094 13.832031 "/>
<g clip-path="url(#clip1)" clip-rule="nonzero">
<path style=" stroke:none;fill-rule:nonzero;fill:rgb(10.998535%,11.399841%,10.598755%);fill-opacity:1;" d="M 90.414063 31.636719 C 90.414063 31.46875 90.402344 31.3125 90.355469 31.167969 C 90.160156 30.542969 89.65625 30.039063 88.878906 30.039063 C 87.867188 30.039063 87.148438 30.894531 87.148438 32.25 C 87.148438 33.378906 87.734375 34.339844 88.863281 34.339844 C 89.527344 34.339844 90.113281 33.929688 90.332031 33.246094 C 90.390625 33.078125 90.414063 32.875 90.414063 32.683594 Z M 91.472656 34.316406 C 91.472656 35.660156 91.195313 36.46875 90.644531 36.984375 C 90.066406 37.5 89.25 37.679688 88.519531 37.679688 C 87.820313 37.679688 87.050781 37.511719 86.582031 37.199219 L 86.847656 36.382813 C 87.230469 36.632813 87.832031 36.851563 88.550781 36.851563 C 89.636719 36.851563 90.425781 36.285156 90.425781 34.808594 L 90.425781 34.171875 L 90.402344 34.171875 C 90.089844 34.710938 89.453125 35.144531 88.550781 35.144531 C 87.109375 35.144531 86.078125 33.917969 86.078125 32.296875 C 86.078125 30.328125 87.363281 29.222656 88.710938 29.222656 C 89.71875 29.222656 90.257813 29.738281 90.523438 30.21875 L 90.546875 30.21875 L 90.582031 29.355469 L 91.519531 29.355469 C 91.484375 29.761719 91.472656 30.230469 91.472656 30.941406 L 91.472656 34.316406 "/>
</g>
<path style=" stroke:none;fill-rule:nonzero;fill:rgb(10.998535%,11.399841%,10.598755%);fill-opacity:1;" d="M 96.792969 31.6875 C 96.804688 31.023438 96.519531 29.96875 95.339844 29.96875 C 94.257813 29.96875 93.800781 30.953125 93.71875 31.6875 Z M 93.707031 32.441406 C 93.730469 33.871094 94.632813 34.460938 95.6875 34.460938 C 96.445313 34.460938 96.914063 34.328125 97.296875 34.171875 L 97.488281 34.917969 C 97.117188 35.085938 96.46875 35.289063 95.542969 35.289063 C 93.765625 35.289063 92.683594 34.101563 92.683594 32.359375 C 92.683594 30.59375 93.730469 29.210938 95.421875 29.210938 C 97.324219 29.210938 97.816406 30.878906 97.816406 31.949219 C 97.816406 32.167969 97.800781 32.332031 97.78125 32.453125 L 93.707031 32.441406 "/>
<path style=" stroke:none;fill-rule:nonzero;fill:rgb(10.998535%,11.399841%,10.598755%);fill-opacity:1;" d="M 100.289063 27.960938 L 100.289063 29.355469 L 101.804688 29.355469 L 101.804688 30.160156 L 100.289063 30.160156 L 100.289063 33.296875 C 100.289063 34.015625 100.492188 34.425781 101.082031 34.425781 C 101.371094 34.425781 101.539063 34.398438 101.695313 34.351563 L 101.742188 35.15625 C 101.539063 35.230469 101.214844 35.300781 100.808594 35.300781 C 100.3125 35.300781 99.917969 35.132813 99.664063 34.855469 C 99.378906 34.53125 99.257813 34.015625 99.257813 33.332031 L 99.257813 30.160156 L 98.355469 30.160156 L 98.355469 29.355469 L 99.257813 29.355469 L 99.257813 28.285156 L 100.289063 27.960938 "/>
<path style=" stroke:none;fill-rule:nonzero;fill:rgb(10.998535%,11.399841%,10.598755%);fill-opacity:1;" d="M 106.597656 27.960938 L 106.597656 29.355469 L 108.109375 29.355469 L 108.109375 30.160156 L 106.597656 30.160156 L 106.597656 33.296875 C 106.597656 34.015625 106.800781 34.425781 107.390625 34.425781 C 107.679688 34.425781 107.847656 34.398438 108.003906 34.351563 L 108.050781 35.15625 C 107.847656 35.230469 107.519531 35.300781 107.113281 35.300781 C 106.621094 35.300781 106.226563 35.132813 105.972656 34.855469 C 105.683594 34.53125 105.5625 34.015625 105.5625 33.332031 L 105.5625 30.160156 L 104.660156 30.160156 L 104.660156 29.355469 L 105.5625 29.355469 L 105.5625 28.285156 L 106.597656 27.960938 "/>
<path style=" stroke:none;fill-rule:nonzero;fill:rgb(10.998535%,11.399841%,10.598755%);fill-opacity:1;" d="M 109.191406 26.640625 L 110.246094 26.640625 L 110.246094 30.269531 L 110.269531 30.269531 C 110.4375 29.96875 110.703125 29.691406 111.027344 29.523438 C 111.34375 29.332031 111.714844 29.222656 112.109375 29.222656 C 112.890625 29.222656 114.140625 29.703125 114.140625 31.710938 L 114.140625 35.167969 L 113.082031 35.167969 L 113.082031 31.828125 C 113.082031 30.878906 112.734375 30.097656 111.738281 30.097656 C 111.054688 30.097656 110.523438 30.582031 110.320313 31.15625 C 110.261719 31.300781 110.246094 31.457031 110.246094 31.660156 L 110.246094 35.167969 L 109.191406 35.167969 L 109.191406 26.640625 "/>
<path style=" stroke:none;fill-rule:nonzero;fill:rgb(10.998535%,11.399841%,10.598755%);fill-opacity:1;" d="M 119.4375 31.6875 C 119.449219 31.023438 119.160156 29.96875 117.984375 29.96875 C 116.902344 29.96875 116.445313 30.953125 116.363281 31.6875 Z M 116.351563 32.441406 C 116.375 33.871094 117.277344 34.460938 118.332031 34.460938 C 119.089844 34.460938 119.558594 34.328125 119.941406 34.171875 L 120.136719 34.917969 C 119.761719 35.085938 119.113281 35.289063 118.1875 35.289063 C 116.410156 35.289063 115.328125 34.101563 115.328125 32.359375 C 115.328125 30.59375 116.375 29.210938 118.066406 29.210938 C 119.96875 29.210938 120.460938 30.878906 120.460938 31.949219 C 120.460938 32.167969 120.445313 32.332031 120.421875 32.453125 L 116.351563 32.441406 "/>
<path style=" stroke:none;fill-rule:nonzero;fill:rgb(10.998535%,11.399841%,10.598755%);fill-opacity:1;" d="M 125.371094 27.960938 L 125.371094 29.355469 L 126.886719 29.355469 L 126.886719 30.160156 L 125.371094 30.160156 L 125.371094 33.296875 C 125.371094 34.015625 125.574219 34.425781 126.164063 34.425781 C 126.453125 34.425781 126.621094 34.398438 126.777344 34.351563 L 126.824219 35.15625 C 126.621094 35.230469 126.296875 35.300781 125.890625 35.300781 C 125.394531 35.300781 125 35.132813 124.746094 34.855469 C 124.460938 34.53125 124.339844 34.015625 124.339844 33.332031 L 124.339844 30.160156 L 123.4375 30.160156 L 123.4375 29.355469 L 124.339844 29.355469 L 124.339844 28.285156 L 125.371094 27.960938 "/>
<path style=" stroke:none;fill-rule:nonzero;fill:rgb(10.998535%,11.399841%,10.598755%);fill-opacity:1;" d="M 127.980469 31.167969 C 127.980469 30.484375 127.96875 29.894531 127.929688 29.355469 L 128.855469 29.355469 L 128.902344 30.496094 L 128.941406 30.496094 C 129.203125 29.714844 129.855469 29.222656 130.5625 29.222656 C 130.671875 29.222656 130.753906 29.234375 130.851563 29.257813 L 130.851563 30.242188 C 130.730469 30.230469 130.621094 30.21875 130.476563 30.21875 C 129.730469 30.21875 129.203125 30.785156 129.058594 31.566406 C 129.035156 31.722656 129.023438 31.890625 129.023438 32.070313 L 129.023438 35.167969 L 127.96875 35.167969 L 127.980469 31.167969 "/>
<path style=" stroke:none;fill-rule:nonzero;fill:rgb(10.998535%,11.399841%,10.598755%);fill-opacity:1;" d="M 136.628906 33.582031 C 136.628906 34.183594 136.640625 34.710938 136.675781 35.167969 L 135.738281 35.167969 L 135.679688 34.21875 L 135.65625 34.21875 C 135.390625 34.6875 134.765625 35.300781 133.730469 35.300781 C 132.820313 35.300781 131.726563 34.785156 131.726563 32.753906 L 131.726563 29.355469 L 132.785156 29.355469 L 132.785156 32.5625 C 132.785156 33.667969 133.132813 34.425781 134.082031 34.425781 C 134.789063 34.425781 135.28125 33.929688 135.476563 33.449219 C 135.535156 33.308594 135.570313 33.113281 135.570313 32.910156 L 135.570313 29.355469 L 136.628906 29.355469 L 136.628906 33.582031 "/>
<path style=" stroke:none;fill-rule:nonzero;fill:rgb(10.998535%,11.399841%,10.598755%);fill-opacity:1;" d="M 139.546875 27.960938 L 139.546875 29.355469 L 141.0625 29.355469 L 141.0625 30.160156 L 139.546875 30.160156 L 139.546875 33.296875 C 139.546875 34.015625 139.753906 34.425781 140.339844 34.425781 C 140.628906 34.425781 140.796875 34.398438 140.953125 34.351563 L 141 35.15625 C 140.796875 35.230469 140.472656 35.300781 140.0625 35.300781 C 139.570313 35.300781 139.175781 35.132813 138.921875 34.855469 C 138.636719 34.53125 138.515625 34.015625 138.515625 33.332031 L 138.515625 30.160156 L 137.613281 30.160156 L 137.613281 29.355469 L 138.515625 29.355469 L 138.515625 28.285156 L 139.546875 27.960938 "/>
<path style=" stroke:none;fill-rule:nonzero;fill:rgb(10.998535%,11.399841%,10.598755%);fill-opacity:1;" d="M 142.144531 26.640625 L 143.199219 26.640625 L 143.199219 30.269531 L 143.222656 30.269531 C 143.390625 29.96875 143.65625 29.691406 143.980469 29.523438 C 144.289063 29.332031 144.664063 29.222656 145.0625 29.222656 C 145.84375 29.222656 147.089844 29.703125 147.089844 31.710938 L 147.089844 35.167969 L 146.03125 35.167969 L 146.03125 31.828125 C 146.03125 30.878906 145.683594 30.097656 144.6875 30.097656 C 144.003906 30.097656 143.476563 30.582031 143.269531 31.15625 C 143.210938 31.300781 143.199219 31.457031 143.199219 31.660156 L 143.199219 35.167969 L 142.144531 35.167969 L 142.144531 26.640625 "/>
<path style=" stroke:none;fill-rule:nonzero;fill:rgb(10.998535%,11.399841%,10.598755%);fill-opacity:1;" d="M 149.144531 35.300781 C 148.738281 35.300781 148.449219 34.976563 148.449219 34.542969 C 148.449219 34.113281 148.75 33.789063 149.167969 33.789063 C 149.589844 33.789063 149.878906 34.101563 149.878906 34.542969 C 149.878906 34.976563 149.589844 35.300781 149.15625 35.300781 L 149.144531 35.300781 "/>
<path style=" stroke:none;fill-rule:nonzero;fill:rgb(10.998535%,11.399841%,10.598755%);fill-opacity:1;" d="M 153.902344 27.960938 L 153.902344 29.355469 L 155.414063 29.355469 L 155.414063 30.160156 L 153.902344 30.160156 L 153.902344 33.296875 C 153.902344 34.015625 154.105469 34.425781 154.695313 34.425781 C 154.984375 34.425781 155.152344 34.398438 155.308594 34.351563 L 155.355469 35.15625 C 155.152344 35.230469 154.828125 35.300781 154.417969 35.300781 C 153.925781 35.300781 153.53125 35.132813 153.277344 34.855469 C 152.988281 34.53125 152.867188 34.015625 152.867188 33.332031 L 152.867188 30.160156 L 151.96875 30.160156 L 151.96875 29.355469 L 152.867188 29.355469 L 152.867188 28.285156 L 153.902344 27.960938 "/>
<path style=" stroke:none;fill-rule:nonzero;fill:rgb(10.998535%,11.399841%,10.598755%);fill-opacity:1;" d="M 156.496094 26.640625 L 157.554688 26.640625 L 157.554688 30.269531 L 157.578125 30.269531 C 157.746094 29.96875 158.011719 29.691406 158.335938 29.523438 C 158.648438 29.332031 159.019531 29.222656 159.414063 29.222656 C 160.195313 29.222656 161.445313 29.703125 161.445313 31.710938 L 161.445313 35.167969 L 160.390625 35.167969 L 160.390625 31.828125 C 160.390625 30.878906 160.039063 30.097656 159.042969 30.097656 C 158.359375 30.097656 157.832031 30.582031 157.625 31.15625 C 157.566406 31.300781 157.554688 31.457031 157.554688 31.660156 L 157.554688 35.167969 L 156.496094 35.167969 L 156.496094 26.640625 "/>
<path style=" stroke:none;fill-rule:nonzero;fill:rgb(10.998535%,11.399841%,10.598755%);fill-opacity:1;" d="M 166.742188 31.6875 C 166.757813 31.023438 166.46875 29.96875 165.289063 29.96875 C 164.210938 29.96875 163.753906 30.953125 163.667969 31.6875 Z M 163.65625 32.441406 C 163.679688 33.871094 164.582031 34.460938 165.640625 34.460938 C 166.394531 34.460938 166.863281 34.328125 167.246094 34.171875 L 167.441406 34.917969 C 167.066406 35.085938 166.417969 35.289063 165.492188 35.289063 C 163.71875 35.289063 162.636719 34.101563 162.636719 32.359375 C 162.636719 30.59375 163.679688 29.210938 165.375 29.210938 C 167.273438 29.210938 167.765625 30.878906 167.765625 31.949219 C 167.765625 32.167969 167.753906 32.332031 167.730469 32.453125 L 163.65625 32.441406 "/>
<path style=" stroke:none;fill-rule:nonzero;fill:rgb(10.998535%,11.399841%,10.598755%);fill-opacity:1;" d="M 168.96875 30.929688 C 168.96875 30.316406 168.953125 29.835938 168.917969 29.355469 L 169.855469 29.355469 L 169.914063 30.304688 L 169.9375 30.304688 C 170.226563 29.761719 170.898438 29.222656 171.859375 29.222656 C 172.667969 29.222656 173.914063 29.703125 173.914063 31.699219 L 173.914063 35.167969 L 172.859375 35.167969 L 172.859375 31.816406 C 172.859375 30.878906 172.511719 30.089844 171.515625 30.089844 C 170.828125 30.089844 170.289063 30.582031 170.097656 31.167969 C 170.046875 31.300781 170.023438 31.492188 170.023438 31.660156 L 170.023438 35.167969 L 168.96875 35.167969 L 168.96875 30.929688 "/>
<g clip-path="url(#clip2)" clip-rule="nonzero">
<path style=" stroke:none;fill-rule:nonzero;fill:rgb(10.998535%,11.399841%,10.598755%);fill-opacity:1;" d="M 181.878906 31.636719 C 181.878906 31.46875 181.867188 31.3125 181.820313 31.167969 C 181.628906 30.542969 181.121094 30.039063 180.34375 30.039063 C 179.332031 30.039063 178.613281 30.894531 178.613281 32.25 C 178.613281 33.378906 179.203125 34.339844 180.332031 34.339844 C 180.992188 34.339844 181.578125 33.929688 181.796875 33.246094 C 181.855469 33.078125 181.878906 32.875 181.878906 32.683594 Z M 182.9375 34.316406 C 182.9375 35.660156 182.660156 36.46875 182.109375 36.984375 C 181.53125 37.5 180.714844 37.679688 179.980469 37.679688 C 179.285156 37.679688 178.515625 37.511719 178.046875 37.199219 L 178.3125 36.382813 C 178.695313 36.632813 179.296875 36.851563 180.019531 36.851563 C 181.101563 36.851563 181.890625 36.285156 181.890625 34.808594 L 181.890625 34.171875 L 181.867188 34.171875 C 181.554688 34.710938 180.921875 35.144531 180.019531 35.144531 C 178.574219 35.144531 177.542969 33.917969 177.542969 32.296875 C 177.542969 30.328125 178.828125 29.222656 180.175781 29.222656 C 181.183594 29.222656 181.726563 29.738281 181.988281 30.21875 L 182.011719 30.21875 L 182.050781 29.355469 L 182.984375 29.355469 C 182.949219 29.761719 182.9375 30.230469 182.9375 30.941406 L 182.9375 34.316406 "/>
</g>
<path style=" stroke:none;fill-rule:nonzero;fill:rgb(10.998535%,11.399841%,10.598755%);fill-opacity:1;" d="M 186.972656 34.507813 C 187.980469 34.507813 188.738281 33.558594 188.738281 32.238281 C 188.738281 31.253906 188.246094 30.015625 186.996094 30.015625 C 185.761719 30.015625 185.21875 31.167969 185.21875 32.273438 C 185.21875 33.546875 185.941406 34.507813 186.960938 34.507813 Z M 186.9375 35.300781 C 185.375 35.300781 184.148438 34.148438 184.148438 32.308594 C 184.148438 30.363281 185.4375 29.222656 187.03125 29.222656 C 188.703125 29.222656 189.832031 30.4375 189.832031 32.203125 C 189.832031 34.363281 188.332031 35.300781 186.949219 35.300781 L 186.9375 35.300781 "/>
<path style=" stroke:none;fill-rule:nonzero;fill:rgb(10.998535%,11.399841%,10.598755%);fill-opacity:1;" d="M 191.199219 35.300781 C 190.792969 35.300781 190.503906 34.976563 190.503906 34.542969 C 190.503906 34.113281 190.804688 33.789063 191.226563 33.789063 C 191.644531 33.789063 191.933594 34.101563 191.933594 34.542969 C 191.933594 34.976563 191.644531 35.300781 191.214844 35.300781 L 191.199219 35.300781 "/>
<path style=" stroke:none;fill-rule:nonzero;fill:rgb(10.998535%,11.399841%,10.598755%);fill-opacity:1;" d="M 193.214844 28.4375 L 192.332031 28.4375 L 192.332031 27.796875 L 194.847656 27.796875 L 194.847656 28.4375 L 193.953125 28.4375 L 193.953125 31.167969 L 193.214844 31.167969 L 193.214844 28.4375 "/>
<g clip-path="url(#clip3)" clip-rule="nonzero">
<path style=" stroke:none;fill-rule:nonzero;fill:rgb(10.998535%,11.399841%,10.598755%);fill-opacity:1;" d="M 197.910156 29.878906 C 197.898438 29.472656 197.882813 28.988281 197.882813 28.492188 L 197.871094 28.492188 C 197.765625 28.921875 197.632813 29.402344 197.503906 29.796875 L 197.105469 31.113281 L 196.527344 31.113281 L 196.179688 29.8125 C 196.074219 29.410156 195.964844 28.9375 195.882813 28.492188 L 195.871094 28.492188 C 195.859375 28.945313 195.839844 29.464844 195.820313 29.886719 L 195.757813 31.167969 L 195.074219 31.167969 L 195.28125 27.796875 L 196.265625 27.796875 L 196.589844 28.925781 C 196.695313 29.3125 196.789063 29.730469 196.863281 30.125 L 196.882813 30.125 C 196.972656 29.738281 197.082031 29.296875 197.191406 28.917969 L 197.539063 27.796875 L 198.507813 27.796875 L 198.683594 31.167969 L 197.964844 31.167969 L 197.910156 29.878906 "/>
</g>
<path style=" stroke:none;fill-rule:nonzero;fill:rgb(0%,66.273499%,30.979919%);fill-opacity:1;" d="M 164.144531 10.921875 L 164.375 10.921875 C 164.667969 10.921875 164.839844 10.769531 164.839844 10.535156 C 164.839844 10.292969 164.679688 10.167969 164.410156 10.167969 C 164.265625 10.167969 164.1875 10.175781 164.144531 10.1875 Z M 163.5625 9.773438 C 163.75 9.738281 164.027344 9.714844 164.34375 9.714844 C 164.730469 9.714844 164.996094 9.773438 165.183594 9.929688 C 165.339844 10.054688 165.425781 10.242188 165.425781 10.488281 C 165.425781 10.828125 165.191406 11.0625 164.96875 11.144531 L 164.96875 11.15625 C 165.148438 11.230469 165.25 11.40625 165.3125 11.652344 C 165.394531 11.957031 165.472656 12.308594 165.523438 12.410156 L 164.921875 12.410156 C 164.882813 12.335938 164.816406 12.117188 164.742188 11.785156 C 164.671875 11.449219 164.558594 11.363281 164.316406 11.359375 L 164.144531 11.359375 L 164.144531 12.410156 L 163.5625 12.410156 L 163.5625 9.773438 "/>
<path style=" stroke:none;fill-rule:nonzero;fill:rgb(0%,66.273499%,30.979919%);fill-opacity:1;" d="M 162.433594 11.164063 C 162.433594 10.019531 163.363281 9.085938 164.515625 9.085938 C 165.660156 9.085938 166.597656 10.019531 166.597656 11.164063 C 166.597656 12.3125 165.660156 13.246094 164.515625 13.246094 C 163.363281 13.246094 162.433594 12.3125 162.433594 11.164063 Z M 161.859375 11.164063 C 161.859375 12.628906 163.050781 13.820313 164.515625 13.820313 C 165.976563 13.820313 167.167969 12.628906 167.167969 11.164063 C 167.167969 9.703125 165.976563 8.511719 164.515625 8.511719 C 163.050781 8.511719 161.859375 9.703125 161.859375 11.164063 "/>
</g>
</svg>
