<?xml version="1.0" encoding="utf-8"?>
<!-- Generator: Adobe Illustrator 19.2.1, SVG Export Plug-In . SVG Version: 6.00 Build 0)  -->
<svg version="1.1" id="layer" xmlns="http://www.w3.org/2000/svg" xmlns:xlink="http://www.w3.org/1999/xlink" x="0px" y="0px"
	 viewBox="0 0 652 652" style="enable-background:new 0 0 652 652;" xml:space="preserve">
<style type="text/css">
	.st0{fill:#91976D;}
</style>
<g>
	<path class="st0" d="M280.9,406.7c-1.3-1-2.4-1.2-3.4-1.3c-0.3,0-0.5-0.1-0.8-0.1c-0.3,0-0.7-0.3-1.1-0.6c-0.2-0.1-0.4-0.3-0.6-0.4
		c-1-0.6-2-0.9-3-1.2l-0.8-0.2c-3.9-1.2-7.3-3.9-11.1-8.7c-3.3-4.1-5.3-8.4-7.5-12.8c-0.9-1.9-1.9-3.8-3-5.8
		c-0.7-1.4-1.4-3.3-2.1-5.3c-0.7-1.9-1.4-3.9-2.2-5.4c-0.9-1.7-1.5-3.2-2.1-4.8c-0.7-1.7-1.4-3.4-2.4-5.3c-1-1.9-1-1.9,0.5-3.2
		c1-0.9,2.1-1.7,3.1-2.6c1-0.8,1.9-1.5,2.8-2.3c2.6-2.1,4-5.3,4.1-9c0.1-4.5-1.8-9.3-4.9-12.2c-5.5-5.1-12.7-7.1-20.9-5.7
		c-0.7,0.1-1.4,0.2-2.1,0.3c-1.5,0.2-3,0.4-4.4,0.8l-0.6,0.1c-2,0.5-3.4,0.9-5.2,0.1c-1.6-0.7-3.4-0.2-5.1,0.2
		c-0.7,0.2-1.4,0.4-2.1,0.5c-0.5,0.1-1,0-1.5,0c-1.6-0.1-3.6-0.1-5.3,1.6l-0.3,0c-2-0.2-3.8-0.3-4.9,0.8c-1.1,1-1.2,2.7-1.2,4.3
		c0,1.5,0.4,3,0.8,4.6c0.2,0.9,0.5,1.9,0.8,2.9c0.7,2.5,1.5,5.2,1.7,7.4c0.5,5.2,0.8,10.5,1.1,15.6c0.1,1.6,0.2,3.2,0.3,4.9l-0.1,0
		l0,2.6c0,0.7,0,1.5,0,2.2c-0.1,1.8-0.3,11.1,1.4,16c0.1,0.2,0.1,0.4,0.2,0.6c0.4,1.3,1.1,3.9,4.3,3.9h0c3.1,0,4.2-0.8,5.3-4.1
		c0.8-2.3,1.6-8.2,0.1-11.4c-0.8-1.7-0.1-3.5,1.7-4.8c5.2-3.5,11-6,16.7-8.4l1.4-0.6c0.7-0.3,1.3-0.3,1.7-0.1
		c0.5,0.3,0.8,0.9,0.9,1.3c1.7,6.6,4.1,12,7.3,17.2c1.3,2,2.3,4.6,3.2,7l0.5,1.3c1.8,4.6,3.5,9,6.8,13.1l0.6,0.7
		c1.7,2.1,3.4,4.2,5.6,5.9l1,0.7c1.9,1.4,3.6,2.8,5.4,4.4c1.9,1.7,4.2,3,6.8,3.7c3,0.8,5.6,1.2,8,1.2c0.4,0,0.7,0,1.1,0
		c2.7-0.2,5.5-2.7,5.8-5.1C283.5,408.8,281.7,407.4,280.9,406.7 M208.5,355.1l0.1-0.3c0.1-0.6,0.4-1.8,0.5-3
		c0.3-2.6,0.4-6.1-0.4-8.2c-0.8-2.2-0.8-4.2-0.7-6.5c0.1-1.4,0.1-2.9,0-4.5c-0.1-0.6,0-0.8,0-0.9c0.1,0,0.3-0.1,0.8-0.1l0.9,0
		c3,0.1,6.5,0.3,9.3-1.2c3.5,1.3,7,1,10.4,0.6c1.9-0.2,3.8-0.4,5.6-0.3c0.6,0,1.2,0.3,1.7,0.6c1.4,1,2.4,3.8,1.6,6.5
		c-0.4,1.2-2.5,4-3.4,4.5c-1.4,0.8-2.8,1.7-4.1,2.6c-1.4,0.9-2.8,1.9-4.4,2.7c-1.7,0.9-3.5,1.7-5.2,2.5c-2.3,1-4.6,2.1-6.9,3.5
		c-0.8,0.5-1.6,1-2.3,1.5c-1.1,0.8-2.3,1.5-3.5,2.2c0-0.3,0-0.6,0-1L208.5,355.1z"/>
	<path class="st0" d="M324.6,353.9c-1.5-0.7-2.9-0.8-4.1-0.3c-2.2,1-4.4,0.9-6.6,0.8c-1.1,0-2.1-0.1-2.8,0c-1.1,0-2.1,0-3-0.1
		c-2-0.1-3.7-0.1-5.5,0.2c-1,0.2-1.7,0.2-2.3,0.3c-1.2,0.1-2,0.2-4.3,0.9c-2.4,0.8-3.4,3.1-2.8,6.1c0.5,2.4,2.2,3.7,4.8,3.7
		c0.9,0,1.6,0,2.2,0c1.9,0.1,2.6,0,5.3-0.7c0.5-0.1,1.3-0.2,2-0.3l0.9-0.1c0.4,0,1.4-0.3,1.7,0c0.3,0.4,0.3,1.2,0.4,1.7
		c0.1,0.8-0.2,1.6-0.4,2.4c-0.1,0.5,0,0.9-0.2,1.3c0,0.1-0.3,0.6-0.3,0.7c-0.9,1.8-2.5,2.6-4.5,3.8c-2.9,1.6-6,1.5-9.2,1.4l-1.5,0
		c-3.1-0.1-6.2-1.9-7-4.8l-0.2-0.7c-1.7-6.4-3.4-10.6-4.3-17.3c-0.7-4.7-1.2-13.1,0.4-18.7c0.7-2.4,1.1-4.4,2.6-4.9
		c1.7-0.7,4.5-1.4,6.1-0.4c0.5,0.3,0.9,0.6,1.4,0.9c0.8,0.5,1.5,1.1,2.4,1.5c2.3,1,3.8,2.6,5,4.9c0.8,1.7,2.1,3.3,3,4.4
		c0.8,0.9,1.7,1.4,2.8,1.4c1,0,2.1-0.4,3.2-1.4c1.1-1.1,2.6-2.5,2.5-4.1c-0.1-1.5,0.6-2.3,2-3.6l0.3-0.3c1.7-1.7,3.6-4,3.5-7.5
		c-0.1-1.8-1-2.9-2.8-3.4c-4.1-1-6.5,1.7-8.2,3.7c-0.5,0.5-0.6,0.6-0.6,0.6c0,0-0.3,0-1-0.5c-6.3-4.2-11.7-6.1-17.7-6.2
		c-3.3,0.1-6.1,1.1-8.7,2.2c-0.7,0.3-1.5,0.6-2.2,0.9c-2.3,0.8-2.9,3-3.3,4.8c-0.2,0.8-0.4,1.5-0.7,2c-1.4,2.5-2,5.2-1.9,8.8
		l0.1,2.6c0.1,5.3,0.3,12.5,0.9,16.8c0.9,6.8,2.8,13.7,5.9,21.8c2.5,6.4,8,7.8,13,8.6c4,0.6,7.8,0,11.5-0.7c1.5-0.3,2.9-0.5,4.4-0.7
		c1.3-0.2,3.7-1,5.6-2.3c0.6,2.2,1.6,4.6,3.9,6.8c1,1,3,2.5,5.4,2.5c0,0,0.1,0,0.1,0c1.4,0,2.6-0.6,3.6-1.7c2.4-2.6,1.5-4.7,0.7-5.8
		c-0.3-0.4-0.6-0.7-1-1.1c-0.2-0.2-0.5-0.5-0.7-0.8c-0.7-1-1.6-3.3-1.8-8.3c-0.1-1.6,0-3.4,0.1-5.1c0.1-1.8,0.2-4.3,0.1-5.9
		c0-0.5,0.9-0.7,1.2-0.8c0.6-0.3,1-0.6,1.5-1c0.5-0.4,1.2-0.9,1.6-1.6c0.7-1,1.2-2.5,0.9-3.8C327.6,356.2,326.3,354.7,324.6,353.9"
		/>
	<path class="st0" d="M436.8,374.4c-0.3-2.1-0.5-4.1-0.5-6.1c-0.1-8.1-0.1-19.5-0.1-29.5l0-10.7c0-0.8,0-1.6-0.1-2.3
		c-0.3-2.2-2.2-4.2-3.9-5c-1.2-0.5-2.3-0.5-3.2,0c-1.7,1.1-3.3,2.5-5,4.5c-1.2,1.4-1.2,3.6-1.2,4.2c0.3,6.9,0.6,13.9,1,20.8l0.2,3.1
		c0,0.5,0.2,1,0.4,1.5c0.9,2.3,0.8,7.9,0.7,12.3c-0.4-0.8-0.8-1.6-1.2-2.4c-1.4-2.7-2.8-5.4-4.7-7.8c-2.4-2.9-4.3-6.1-6.2-9.5
		c-0.8-1.4-1.6-2.8-2.5-4.3c-2.6-4.3-6-8.6-10.7-13.6c-0.9-0.9-1.7-2-2.5-3c-1.8-2.3-3.7-4.7-6.6-6.4c-1.9-1.1-4.5-1-6.5,0.2
		c-1.8,1-2.9,2.7-2.9,4.6c0,1.6-0.1,3.2-0.1,4.8c-0.2,5.5-0.4,11.2,0.4,16.7c0.4,3,0.5,6.1,0.6,9.1c0,1.7,0.1,3.4,0.2,5.1
		c0,0.6-0.1,1.2-0.3,1.9c-0.2,0.8-0.4,1.7-0.4,2.7c0,1.8,0.6,7.4,0.9,10.7l0.2,1.9c0.1,0.6,0,1.3,0,1.9c0,0.7,0,1.3,0,1.9
		c0.2,3.5,2.6,6,6,6.1c0,0,0.1,0,0.1,0c1.2,0,4.3-0.5,4.9-5.5c0-0.2,0-0.4,0-0.7c0.1-2.1,0.1-5,0.2-8.2c0.1-4.9,0.2-10.5,0.4-13.7
		l0.1-2c0.4-6.5,0.9-13.3-0.3-19.9l7.8,11.5c2.7,4,4.9,7.7,6.6,11.5c1.6,3.4,3.4,7.1,5.5,10.9c0.3,0.6,0.6,1.2,0.9,1.9
		c0.9,1.9,2.7,4.4,3.5,5c2.1,1.8,3.8,3.3,5.2,5.4c1.8,2.9,5.3,4,8.7,2.8c3.8-1.3,5.1-3.3,4.9-7.4C437.2,378,437,376.2,436.8,374.4"
		/>
	<path class="st0" d="M392.3,282.1c0.5-2.1,1.2-4.1,0.8-5.6c-0.2-0.8-0.5-1.5-0.5-2.2c-0.2-3-2.2-6.1-4.4-8.9
		c-2.1-2.6-4.6-4.7-7.8-5.7c-3-1-5.7-1.4-8.8-1.7c-1.4-0.2-2.9-0.2-4.3-0.4c-0.6-0.1-1.2-0.3-1.9-0.4c-0.9-0.2-2,0.3-2.9,0
		c-0.7-0.2-1.3-0.6-2-1c-1-0.6-2.1-1.2-3-2c-1.5-1.3-2.8-4.7-1.4-7.7c0.5-1,2.6-3,3.5-3.4c1-0.4,3-0.1,4.5,0.1c0.5,0,1,0.1,1.5,0.1
		c0.2,0,1.6,0.5,1.8,0.7c0.5,0.6,1,1.3,1.6,1.9c1.7,1.9,2.2,3.4,3.4,5.4c0.8,1.5,1.9,2,2.7,2.2c1.1,0.3,2.3,0.1,3.2-0.5
		c1.3-0.8,2.3-2,3.2-3.2c0.3-0.4,0.7-0.9,1-1.3c0.2-0.2,0.3-0.8,0.4-1.1c0.1-0.5,0-1.2-0.2-1.5c-0.3-0.4-0.5-0.9-0.7-1.4
		c-0.3-1.4-0.7-3.2-2.4-4.7c-2.9-2.5-5.7-4.2-8.8-5.3c-3.2-1.2-6.5-1.2-9.6-1.2h-1.4c-0.5,0-1,0-1.5,0c-1,0-1.9,0.1-2.8-0.1
		c-3.5-0.5-6.4,2.2-8.4,5.1c-2,2.9-3,7-3.3,8.4c-1.3,5.5,1.9,10.2,4.6,14c2.5,3.6,5.8,6,9.3,6.7l0.9,0.2c3.7,0.7,7.6,1.5,11.6,1.2
		c1.1-0.1,3.6,0.4,4.9,1.1c2.1,1.2,3.2,1.7,4.2,4.1c0.3,0.8,0.3,2.2,0.7,2.9c0.3,0.7,0.2,2.9,0.2,3.7c0,1-0.2,1.5-0.5,2.5
		c-0.1,0.4-1.1,1.5-1.4,1.9c-0.2,0.2-1.3,1.1-1.5,1.2c-1.2,0.7-1.3,1.3-2.7,1.7c-0.9,0.3-2.3,1.3-3.2,1.6c-2.6,0.9-4.5,0.5-7.4,0.2
		c-5.4-0.4-9.3-2.4-10.8-6.8c0,0-1.3-3.9-1.3-3.9c-0.5-1.7-0.4-3.3-1.4-4.6c-0.1-0.1-0.1-0.2-0.2-0.4c-0.1-0.1-0.3-0.1-0.3-0.2
		c-0.9-0.8-2.1-1.2-3.3-1.3c-0.2,0-0.5-0.1-0.7-0.1c-0.1,0-0.3,0-0.5,0c-0.1,0-0.2,0-0.3,0c-0.5,0.1-1.1,0.2-1.6,0.5
		c-0.1,0.1-0.3,0.1-0.5,0.2c-0.1,0.1-0.3,0.2-0.5,0.3c-0.2,0.1-0.5,0.3-0.7,0.4c-0.2,0.2-0.4,0.4-0.5,0.6c-0.2,0.2-0.3,0.4-0.5,0.6
		c-0.1,0-0.1,0.1-0.2,0.2c-0.2,0.4-0.4,0.9-0.5,1.3c-0.1,0.4-0.1,0.9-0.1,1.3c0,2,0,2.9,0.6,4.7c0.5,1.3,0.9,2.6,1.2,3.9
		c0.3,1.3,5.7,9.6,9.1,11.4c3.8,2,10.1,4.3,14.3,4.5c0.2,0,0.5,0,0.7,0c3.4,0,6.9-1.1,9.9-2.2C382.7,297.2,389.9,293.2,392.3,282.1"
		/>
	<path class="st0" d="M281.1,248c0,0.8,0,1.6,0.1,2.3l0.1,0.6c0.2,2.5,0.5,5.7,1.1,8.1c0.4,1.6,0.2,3.3,0,5.1
		c-0.1,0.6-0.1,1.2-0.2,1.7c-0.1,1.9,0.2,3.2,0.6,4.5c0.2,0.7,0.4,1.5,0.5,2.4c0.2,1.7,0.1,3.5,0.1,5.3l0,1.8c0,0.8,0.1,1.7,0.1,2.7
		c0.1,1.8,0.3,4.8-0.3,5.7c-1.4,2-0.9,3.8-0.5,5.1c0.2,0.9,0.4,1.4,0.2,2c-0.7,2.1-0.3,4.3,1.3,5.9c1.1,1.1,2.7,1.7,4.2,1.7
		c0.7,0,1.4-0.1,2.1-0.4c0.7-0.2,1.3-0.7,1.7-1.3c0.5-0.7,1-0.7,2.4-0.8l0.9,0c0.8-0.1,1.5-0.3,2.1-0.5c0.5-0.2,1.1-0.3,1.5-0.3
		l2-0.1c4.9-0.3,9.6-0.6,13.9,1.6c3.4,1.7,7.5,0.4,9.4-3c1.2-2.2,0.3-4.9-2.1-6.5c-3.6-2.4-7.5-2.7-11.3-3.1l-1.5-0.1
		c-2.6-0.3-5.3-0.2-7.8-0.1c-1.5,0-3.1,0.1-4.6,0c-0.8,0-1.3-0.4-1.5-0.7c-0.1-0.1-0.1-0.3,0-0.5c1.2-2.2,1.2-3.5,1.1-5.9
		c0-0.6-0.4-2.9-0.4-3.4c0.1-1.9-0.1-3.4-0.1-5c0-0.9-0.2-1.8-0.2-2.6c0-1.2,0.2-1.4,1.3-1.3c1.6,0.1,3.4,0,5-0.3
		c1-0.2,2.1-0.4,2.8-0.5c3.4-0.1,5.8-0.3,7.3-2c0.4-0.5,1.3-2.9,0.9-4.7c-0.2-1.1-1.1-2-2.5-2.7c-1.5-0.7-3.2-1.1-5.2-1.4
		c-1.4-0.2-2.8-0.1-4.1-0.1c-0.6,0-1.1,0-1.7,0c-5.8,0.3-4.4-0.5-5.5-5.2c-0.1-0.6-0.3-1.2-0.5-1.9c-0.2-0.6-0.4-1.1-0.5-1.7
		c-0.2-1.2-0.1-2.2,0.4-2.8c0.3-0.4,0.8-0.6,1.6-0.6c1.8,0,3.6,0,5.4,0l2.4,0l2.6,0c1.9,0,3.9,0,5.8,0c3.3,0.1,5.5-1.2,6.9-4.1
		c1-2,0.1-3.1-0.9-3.7c-0.5-0.3-1-0.6-1.5-0.8c-2.9-1.7-6.2-3.6-10.6-1.8c-1.4,0.6-3.5,0.7-4.9,0.3c-3.5-1.1-7-1.1-10.4-1
		c-1.5,0-2.9,0.1-4.4,0c-3.1-0.2-4.9,1.2-5.6,4c-0.4,1.7-0.7,3.5,0,4.9C281,244.2,281.1,246.3,281.1,248"/>
	<path class="st0" d="M443.1,245.1c5.6-0.3,11.4-0.7,17.2-1.2c1.7-0.1,3.6-0.7,5.2-1.5c1-0.5,1.6-1.5,2-2.2c0.4-0.6,0.6-0.8,0.6-1.6
		c-0.3-3.1-3.2-5.8-5.9-5.7c-1.4,0.1-2.7,0.3-4,0.5c-1.2,0.2-2.4,0.4-3.6,0.5c-3.9,0.2-7.8,0.1-11.6,0.1l-0.6,0
		c-1.5,0-2.9,0.3-4.3,0.5c-2.5,0.5-4.6,0.9-6.7-0.3c-0.9-0.5-1.9-0.2-2.6,0c-0.2,0-0.4,0.1-0.5,0.1c-0.5,0.1-1,0.2-1.5,0.3
		c-0.9,0.2-1.8,0.4-2.6,0.4c-1.3,0-2.5,0-3.8,0c-5,0-10.2,0-15.3,1.1c-2.4,0.5-3.4,1.7-3.4,4.1c0,2.6,1.4,4.3,3.7,4.8l1.2,0.3
		c1.8,0.4,3.6,0.8,5.4,0.9c2.2,0.1,4.4,0.1,6.5,0.1c1.6,0,3.2,0,4.7,0c1.9,0,3.1,1.1,3.1,2.8c0.1,2.9,0.2,5.8,0.4,8.7
		c0.5,10.5,1,20.5-0.9,30.7c-0.4,2.1-0.1,3.9,0.2,5.7c0.2,1.5,0.5,3,0.2,4.4c-0.2,1,0.2,1.9,1,2.6c0.7,0.6,1.8,0.9,2.8,0.9
		c0.6,0,1.2-0.1,1.8-0.3c5.4-2.2,8-6.3,7.7-12c-0.1-3.1,0-6.3,0.1-9.4c0.2-4.2,0.3-8.6-0.1-13c-0.1-1.1-0.2-2.1-0.4-3.1
		c-0.4-3.2-0.8-6.2,0.2-9.4c0.4-1.2,0.4-2.7,0-4.5c-0.4-1.9-0.3-3.3,0.3-4C440.2,245.6,441.4,245.2,443.1,245.1"/>
	<path class="st0" d="M172.8,373.8c0-0.6,0-1.2,0-1.8c-0.2-3.9-0.1-8.4,0-12.7c0.1-4.3,0.2-8.7,0-12.7c0-0.6-0.3-1.2-0.5-1.6
		c-0.1-0.1-0.2-0.4-0.2-0.4c-0.1-1.6,0.1-3.8,0.4-5.8c0.1-1.2,0.2-2.4,0.3-3.4c0.1-1,0.4-2.2,0.6-2.7c0.1-0.2,0.1-0.4,0.1-0.5
		l0.1-0.4c0-5.6-1.1-8.3-4.2-10.3c-1.4-0.9-2.9-1.1-4.4-0.7c-1.5,0.4-2.7,1.6-3.4,3.1c-0.9,2-0.7,3.9-0.4,5.6
		c0.1,0.7,0.2,1.5,0.2,2.2c-0.1,2.5-0.1,5.2-0.1,7.8c0,7,0,14.3-1.6,20.7c-0.2,0.9,0.1,1.7,0.3,2.3c0.1,0.2,0.1,0.4,0.2,0.5l0.2,0.8
		c0.1,0.7,0.3,1.5,0.4,2.2c0.2,2.2,0.1,4.9,0,7.5c-0.1,2.9-0.2,5.8,0.1,8.4c0.2,2,0.7,3.6,1.5,4.8c1,1.5,2.3,2.3,3.8,2.3
		c0.5,0,1.1-0.1,1.6-0.3c2.4-1,4.9-4.2,5.8-6.8c0.6-1.7,0.7-3.1,0.1-4.2C172.7,376.6,172.7,375.3,172.8,373.8"/>
	<path class="st0" d="M475.5,367.9c-0.4-5.6-0.7-11.3-1-16.9l-0.2-3.5c0-0.1,0-0.3,0-0.4c0-0.5,0.1-1-0.1-1.7
		c-1.9-5.7-2.1-11.4-2.1-16.3c0-4.4-3.4-8-7.7-8h0c-1.6,0-3.3,1.3-4,2.6c-0.6,1.1-0.7,2.2-0.2,3c1.1,2,0.9,4.1,0.6,6.6
		c-0.1,1.2-0.2,2.4-0.2,3.8c0.2,1.4,0.3,2.9,0.5,4.3c0.4,3.1,0.7,6.2,0.9,9.3c0.2,3.3,0.4,7,0.6,10.7c0.2,4.3,0.4,8.8,0.7,12.6
		c0.1,1.1,0.4,2.2,0.6,3.3c0.3,1.4,0.6,2.7,0.5,4c-0.1,0.9,0.4,1.6,0.7,2.1c0.1,0.1,0.2,0.3,0.2,0.4c0.7,2.9,2.4,3.9,4.1,3.9
		c0.3,0,0.5,0,0.8-0.1c1.6-0.3,4.1-1.7,4.6-3.6c0.2-0.7,0.4-1.3,0.6-2c0.9-2.9,1.9-6.1,0.8-9.6C475.9,371.7,475.5,369,475.5,367.9"
		/>
</g>
<g>
	<path class="st0" d="M358.6,376.7c0-0.5-0.1-1.2-0.4-2.4c-0.1-0.6-0.3-1.7-0.3-2c0-0.8,0.2-1.5,0.3-2.3c0.2-1.2,0.4-2.5,0.4-3.8
		c-0.1-2-0.3-3.9-0.5-5.9c-0.2-1.9-0.4-3.8-0.5-5.7c-0.2-4.8-0.1-9.7,0-14c0-0.5,0-1.2,0-1.8c0-2.5,0-5.9,0.8-7.8
		c1.1-2.4,0.5-5.4-1.8-8.3c-0.8-1-2.5-2-3.9-1.7c-0.5,0.1-0.9,0.3-1.3,0.5c-0.4,0.2-0.7,0.6-1.1,0.7c-0.2,0.1-0.4,0.1-0.6,0.1
		c-0.3,0.1-0.5,0.2-0.9,0.2c-0.3,0-0.5-0.1-0.8-0.1c-0.6,0-1.2,0.1-1.8,0.4c-2.5,1.4-3.2,3.4-2,6c1.3,2.8,1.2,7.3,1.2,11
		c0,1.1,0,2.1,0,3c0,1.5,0.1,3.3,0.8,5.3c0.8,2.4,0.9,4.9,0.7,6.9c-0.2,1.8-0.1,4.1-0.2,5.9c-0.1,1.4-0.4,2.7-0.4,4
		c0,1.2,0.2,2.5,0.3,3.8c0.2,3.2,0.5,7.3,1.5,10.1c0.2,0.5,0.2,1.2,0.3,1.9c0.2,1.9,0.5,4.4,3.2,5.9c0.7,0.4,1.5,0.8,2.4,0.8
		c0.7,0,1.4-0.2,2.3-0.9c3.1-2.4,2.8-5.6,2.6-8.1C358.7,378,358.6,377.3,358.6,376.7"/>
	<path class="st0" d="M619.9,395.7c-0.4-1.4-1.2-2.8-2.2-4l-0.2-0.3c-0.8-1-1.9-2.3-3.9-1.9c-0.8,0.2-1.7,1-2,1.5
		c-0.1,0.1-0.1,0.3-0.2,0.4l-1.3,1.9c-0.9,1.3-1.8,2.7-2.5,4.2c-1.7,3.6-2.8,4.6-4.1,5.8c-0.7,0.7-1.4,1.4-2.3,2.4
		c-0.2,0.2-1,0.4-1.5,0.4l-0.5,0.1c-1.2,0.2-2.2,0.7-3.3,1.3c-0.7,0.4-1.4,0.6-2.3,0.7c-0.6,0.1-1.3,0.1-2,0.1c-0.6,0-1.2,0-1.8,0.1
		c-0.7,0.1-1.3,0.1-2,0.1c-0.8,0-1.6,0-2.3-0.2c-1.1-0.2-1.9-0.4-2.7-0.8c-0.8-0.4-1.5-0.8-2.3-1.2l-0.9-0.5c-0.5-0.6-1.1-1-1.7-1.3
		c-0.4-0.3-0.9-0.6-1.4-0.9c-0.8-0.5-1.4-0.9-1.7-1.4c-0.2-0.4-0.4-0.7-0.7-1l-0.2-0.3c-1.1-1.7-2.4-3.2-3.8-4.4
		c-2.8-2.5-4.5-5.5-6.2-8.8c-0.8-1.5-1.6-2.9-2.6-4.4c-0.1-0.2-0.2-0.5-0.5-0.8l-0.9-1c-0.4-0.5-0.9-0.9-1.3-1.4
		c-0.4-0.5-0.8-1-1.2-1.6c-0.3-0.5-0.6-0.9-0.9-1.5c-0.3-0.4-0.5-0.8-0.8-1.3c-0.2-0.3-0.5-0.7-0.7-1c-0.3-0.5-0.6-0.9-0.9-1.4
		L554,373c-0.2-0.4-0.4-0.7-0.4-0.9c-0.1-1-0.6-1.9-1.3-2.7c-0.2-0.3-0.4-0.6-0.4-0.7c-0.2-1-0.7-1.6-1.1-2.1c-1.5-2-2.8-4.4-4-6.7
		c-0.7-1.3-1.4-2.6-2.1-3.8c-1.2-2.1-2.4-4.2-3.4-6.2c-0.1-0.3-0.2-0.6-0.4-0.9c-0.3-0.8-0.7-1.8-1.4-2.5c-2.9-2.9-4.8-6.3-6.9-9.9
		c-0.7-1.1-1.3-2.3-2-3.4l-0.2-0.3c-0.8-1.4-1.5-2.4-1.4-3.8c0.1-1.4-0.7-2.8-1.4-3.6c-1.4-1.6-2.9-3.1-4.5-4.5
		c-1.3-1.1-2.8-1.5-4.2-1.1c-1.4,0.4-2.5,1.7-3,3.4c-0.1,0.4-0.2,0.8-0.3,1.1c-0.4,1.3-0.8,2.6-0.8,4.1c0.1,4.4-1.5,8.4-3.2,12.6
		c-0.9,2.1-1.8,4.4-2.4,6.7c-0.6,2.2-1.5,4.4-2.4,6.5c-1,2.5-2.1,5.1-2.8,7.7c-0.8,3.2-2,6.4-3.6,9.9c-0.6,1.3-1,2.6-1.3,3.9
		c-0.6,2.1-1.1,4.1-2.6,5.6c-0.8,0.9-1.3,3.1-0.3,4.3c1.2,1.3,2.5,2.8,4.4,3.4c2.1,0.7,4.6-1.9,4.8-2.2c0.9-1,1.4-2.1,1.9-3.2
		c0.2-0.3,0.3-0.6,0.5-1c1.5-2.9,3-5.8,4.5-8.8c0.6-1.2,1.2-2.4,1.9-3.5c0.2-0.3,0.2-0.3,0.2-0.3c0,0,0.2,0,0.5,0c1,0.1,2,0.1,3,0.1
		l0.5,0c1.8,0,3.6,0,5.4,0c1.6,0,3.2,0,4.7,0c1.2,0,2.3-0.1,3.5-0.3c1-0.1,2-0.3,3-0.4c1-0.1,1.9-0.3,2.9-0.4
		c0.8-0.1,1.7,0.6,2.8,2.1c0.8,1.1,2.3,3.2,2.7,4.4c0.3,0.9,0.7,1.6,1.1,2.4c0.2,0.4,0.4,0.7,0.6,1.1c0.4,0.8,0.9,1.4,1.3,1.9
		c0.6,0.8,1.1,1.7,1.7,3.1c0.6,1.4,1.4,3.1,2.7,4.4c0.4,0.4,0.8,1,1.2,1.4l1.2,1.6c2.3,3.2,4.5,6.5,6.7,9.7l1.1,1.7
		c1.5,2.2,3.5,4.3,5.4,6.3l0.9,1c2.7,2.9,5,4.6,7.9,6.1c0.4,0.2,0.7,0.4,1.1,0.6c0.6,0.3,1.1,0.6,1.7,0.9c1.5,0.7,3.1,1.1,4.8,1.3
		c1.1,0.2,2.3,0.3,3.4,0.3l2.4,0.2c1,0.1,2.1,0.1,3.2,0.3l0.3,0h0.1c0.4,0,0.8-0.1,1.2-0.2c0.1,0,0.4,0,0.6,0c0.4,0,0.8,0,1.1,0
		c1-0.1,1.7-0.5,2.4-0.8c0.2-0.1,0.5-0.2,0.8-0.3c0.3-0.1,0.7-0.1,1.1-0.2c0.5,0,1-0.1,1.5-0.2l0.5-0.1c0.8-0.2,1.8-0.4,2.6-1
		c2.2-1.6,4.8-3.6,7.8-5.3c0.9-0.5,1.9-1.1,2.7-2.2c0.5-0.7,0.8-1.5,1-2.2c0.2-0.6,0.4-1.1,0.6-1.4c0.1-0.1,0.2-0.2,0.3-0.3
		c0.4-0.3,0.8-0.8,1.1-1.4c0.3-0.6,0.3-1.1,0.4-1.6l0-0.4c0-0.2,0.4-0.6,0.7-1c0.2-0.2,0.4-0.5,0.6-0.7
		C620.1,399.3,620.4,397.6,619.9,395.7 M533.3,359.2c-0.2,0-0.5,0.1-0.9,0.2c-2.1,0.3-4.3,0.2-6.7,0.2c-2.5,0-5-0.1-7.4,0.2
		c-0.6,0.1-1.1-0.1-1.3-0.5c-0.2-0.3-0.2-0.7,0.1-1.1c1.9-3.2,2.9-6.7,3.9-10c0.7-2.3,1.4-4.5,2.3-6.7c2.9,5,6.7,11.5,9.7,17.1
		C533.2,358.9,533.3,359.1,533.3,359.2 M559.8,383.8L559.8,383.8L559.8,383.8L559.8,383.8z"/>
	<path class="st0" d="M144.6,320.5c-0.8-0.4-1.6-0.7-2.9-0.7c-0.8,0-1.4,0-2.5,0c-1.4,0-2.6,0.6-3.6,1.9c-0.5,0.7-1.1,1.3-1.5,2
		c-1,1.5-2.2,3.4-2.1,5.9c0,0.1-0.1,0.3-0.2,0.5l-0.2,0.4c-0.5,1-1.1,2.1-1.5,3.3c-0.3,1-1.8,3.5-3,5.3c-0.3,0.4-0.5,0.8-0.9,1.3
		c-0.6,0.8-1.2,1.7-1.7,2.7c-0.6,1.2-1.4,2.2-2.4,3.2c-0.5,0.4-0.9,1-1.2,1.6c-0.9,1.6-1.5,3.3-2,4.9l-0.6,1.7
		c-0.4,1.1-0.7,2.1-1.3,2.7c-0.5,0.6-0.7,1.2-0.8,1.7l-1.2,3.5c-0.4,1.2-0.8,2.4-1.3,3.6c-0.2,0.7-0.4,1.4-0.7,2.4
		c-0.1,0.5-0.3,0.9-0.6,1.5c-1-2.4-2.2-4.5-3.4-6.3c-0.4-0.6-0.8-1.1-1.2-1.7c-0.5-0.7-0.9-1.4-1.4-2.2l-0.5-0.8
		c-0.8-1.4-1.7-2.9-2.6-4.4l-0.6-0.9c-0.2-0.3-0.4-0.6-0.6-0.9c-0.1-0.2-0.3-0.4-0.3-0.5c-0.3-1-0.8-1.9-1.2-2.7
		c-0.2-0.4-0.4-0.8-0.6-1.2c-0.4-0.9-0.9-1.6-1.3-2.1c-0.7-0.9-1.2-1.9-1.9-3.5c-0.7-1.6-1.5-3.4-2.8-4.9c-0.4-0.5-0.8-1-1.3-1.6
		l-1.3-1.8c-0.5-0.8-1.1-1.5-1.7-2.3c-0.4-0.5-0.8-0.9-1.1-1.1l-0.3-0.3c-0.3-0.3-0.6-0.5-0.9-0.8c-0.6-0.5-1-0.9-1.4-1.3
		c-1.2-1.6-2.4-3.3-3.6-5l-0.8-1.1c-1.4-2-3.1-3.4-5.2-4.3l-0.7-0.3c-1.2-0.5-2.5-1-3.7-1.6c-0.4-0.2-0.8-0.5-1.3-0.7
		c-0.6-0.4-1.2-0.7-1.9-1c-1.6-0.8-3.4-1.3-5.2-1.6c-3.5-0.5-7.2-0.9-11.3-1c-2.9-0.1-5.8,0.7-8.3,1.5l-0.8,0.2
		c-3.6,1-6.1,3.4-8.6,5.8c-1.6,1.5-3.1,2.9-4.9,3.9c-1.3,0.8-2.4,1.9-3.7,2.8c-1.2,0.8-2.4,1.8-3.4,3c-1.6,1.8-2.9,3.5-2.7,5.9
		c0.1,1.6,0.4,3,1.5,4.2c0.5,0.6,2,2.3,4,2.2c2.5-0.2,4-2.4,5.2-4.2c0.5-0.8,1.1-1.6,1.5-2c0.6-0.5,1.1-0.9,1.7-1.4
		c1.5-1.2,3.1-2.4,4.5-3.9c0.6-0.6,1.5-1.5,2-2.2c0.5-0.7,1.2-1.2,1.9-1.7c0.6-0.4,1.2-0.7,1.9-0.8c0.5-0.1,1.3-0.3,1.7-0.4
		c0.9-0.2,1.8-0.5,2.6-0.8c0.6-0.2,1.2-0.4,1.8-0.6c1-0.2,2-0.1,3.1,0l2.2,0.2c2.7,0.2,5.4,0.5,7.7,1.6c0.9,0.4,1.7,0.9,2.6,1.4
		l1,0.6c0.5,0.7,1.2,1.1,1.6,1.3l0.3,0.2c0.5,0.4,0.9,0.7,1.5,1c0.8,0.5,1.6,1,1.9,1.7c0.2,0.4,0.4,0.7,0.7,1.1l0.3,0.4
		c1.2,1.9,2.5,3.5,4.1,4.9c0.3,0.3,0.6,0.6,0.9,1c0.6,0.6,1.2,1.3,2,1.9c0.8,0.6,1.4,1.4,1.9,2.3c0.1,0.2,0.3,0.5,0.5,0.8l1,1
		c0.5,0.5,1,1.1,1.4,1.6c0.4,0.5,0.9,1.1,1.3,1.8c0.3,0.5,0.7,1.1,1,1.7l0.8,1.3c0.2,0.4,0.5,0.8,0.7,1.1c0.4,0.6,0.7,1.1,1,1.7
		l0.2,0.5c0.2,0.4,0.4,0.8,0.5,1.1c0.1,1,0.6,2.1,1.3,2.9c0.4,0.5,0.5,0.8,0.5,0.9c0.2,1,0.8,1.8,1.2,2.3c0.1,0.1,0.2,0.3,0.3,0.4
		c0.1,0.2,0.2,0.4,0.5,0.7l1.1,1.7c0.8,1.2,1.7,2.5,2.4,3.8l0.6,1.1l0.2,0.3c0.5,0.9,1.1,1.8,1.5,2.8l0.7,1.7c0.9,2,1.9,4.3,3,6.4
		c0.3,0.5,0.6,1.1,0.9,1.6c0.8,1.5,1.7,3.1,2.1,4.7c0.1,0.5,0.3,0.8,0.5,1.2c0.1,0.1,0.1,0.2,0.1,0.2c-0.1,1.1,0.5,1.7,0.6,1.8
		c0.9,1.2,1.7,1.9,3,1.9c0.3,0,0.9,0,1.1,0h0.5c2.1,0,3.3-0.9,4.1-2.9c0.2-0.5,0.4-1,0.8-1.8c0.2-0.4,0.4-0.8,0.7-1.5
		c0.5-1.1,1.1-2.2,1.5-3.3c0.4-1.1,0.9-2.5,1.5-3.9c0.4-1,0.8-2,1.2-3l0.7-1.7c0.1-0.4,0.3-0.7,0.5-1l0.8-1.5
		c0.3-0.6,0.5-1.2,0.7-1.8c0.3-0.8,0.5-1.4,0.9-1.9c1-1.3,1.5-2.7,2-4.3c0.1-0.2,0.2-0.6,0.3-0.8c1.4-2.1,2.4-4.4,3-6.3
		c0.3-0.8,0.6-1.6,1.1-2.4c0.6-1.1,1.5-2.2,2.5-3.5c1.4-1.8,2.1-3.7,2.5-5.3l0.1-0.3c0.2-0.8,0.4-1.4,0.7-1.7c0.9-1,1.3-2.2,1.5-3
		c0.1-0.3,0.2-0.5,0.4-0.9l0.4-0.8c0.1-0.2,0.2-0.5,0.4-0.7c0.1-0.2,0.3-0.5,0.6-1c0.9-1.3,1.3-2,1.5-2.5c0.2-0.6,0.4-1.2,0.7-1.5
		c0.5-0.6,0.7-1.3,0.8-1.7l0.3-0.9c0.2-0.7,0.4-1.4,0.7-2c0.8-1.6,1.1-3,1-4.4C146.7,322.3,145.9,321.2,144.6,320.5 M117.7,359.2
		L117.7,359.2L117.7,359.2z M83.9,342.7C83.9,342.7,83.9,342.7,83.9,342.7L83.9,342.7L83.9,342.7z"/>
	<path class="st0" d="M195.9,297c0.7-1,1.5-2.1,2.1-3.4c0.3-0.7,0.7-1.4,1.2-2.1l1.3-2c0.1-0.1,0.1-0.2,0.2-0.4
		c0.7-0.7,1.3-1.5,1.9-2.2l0.7-0.8c0.6-0.7,1-1.5,1.3-2.5c0.2-0.6,0.3-1.2,0.4-1.9c0-0.3,0.1-0.6,0.2-0.9c0.2-1,0.5-2.1,1.1-3.1
		c0.2-0.4,0.4-0.9,0.6-1.4c0.1-0.2,0.2-0.5,0.3-0.7c0.4-0.8,0.6-1.6,0.7-2.3c0-0.3,0.1-0.5,0.2-0.7l0.2-0.5c0-0.1,0-0.1,0-0.2
		c0.6-0.3,1-0.8,1.3-1.3c0.2,0.3,0.4,0.6,0.6,0.8c0.5,0.5,1,1.2,1.5,2c0.4,0.5,0.8,1.1,1.2,1.6c0.6,0.8,1.1,1.7,1.6,2.6
		c0.3,0.6,0.6,1.2,1,1.7c0.4,0.7,0.8,1.4,1.1,2.1c0.7,1.8,1.3,3.2,2.3,4.6c0.7,1,1.4,2.1,2.1,3.1l1.4,2.1c0.1,0.2,0.3,0.4,0.4,0.6
		c0.1,0.1,0.2,0.2,0.2,0.3l0.3,0.7c0.5,1,1,2.1,1.7,2.9l0.7,1.6c0.3,0.7,0.6,1.5,1,2.2c0.8,1.5,2.3,2.5,4.1,2.5
		c0.8,0,1.6-0.2,2.3-0.5c0.4-0.2,0.7-0.4,1.1-0.6c0.2-0.1,0.4-0.3,0.6-0.4c2-1.1,2.7-2.9,2.9-4.2c0.1-0.3,0.1-0.6,0.2-1
		c0-0.1,0-0.4,0.1-0.5c0.2-0.7,0.6-1.4,1.1-2.2c0.6-1,1.4-2.2,1.7-3.7c0.1-0.5,0.3-1,0.6-1.4c1-1.4,1.8-3,2.5-4.8l0.2-0.6
		c0.7-0.9,1-1.8,1.2-2.5l0.1-0.4c0.5-1.3,1-2.8,1.4-4.3c0.2-0.9,0.7-1.7,1.2-2.7c0.4-0.8,0.9-1.5,1.4-2.4l0.6-1
		c0.9-1.4,1.9-3,2.3-4.8c0.1-0.1,0.2-0.2,0.3-0.4c0.1-0.2,0.3-0.4,0.4-0.5l0.2-0.3c0.2-0.3,0.5-0.7,0.7-1.2l0.4-1
		c0.7-1.7,1.5-3.6,2.4-5.2l0.5-0.9c0.5-0.9,0.9-1.7,1.4-2.4c0.1-0.2,0.3-0.3,0.4-0.5c0.3-0.4,0.6-0.8,0.9-1.2
		c0.4-0.6,0.8-1.3,1.2-2.1l0.6-1.1c0.3-0.5,0.6-1.1,0.9-1.7c0.7-1.4,1.5-2.9,2.4-3.6c0.6-0.5,1.1-1.2,1.4-2c0.8-1.8,0.1-4-1.6-5.1
		c-0.8-0.5-1.7-0.7-2.3-0.8l-0.7-0.2c-0.9-0.2-2-0.5-3-0.3c-2,0.2-3.5,1.1-4.5,2.7c-1.2,1.2-2,2.5-2.7,3.8c-0.4,0.8-1,1.5-1.6,2.1
		c-0.8,0.9-1.4,2.1-2,3.4c-0.3,0.5-0.5,1.1-0.8,1.5c-0.8,1.4-1.4,3-1.9,4.9c-0.3,1.2-0.8,2.4-1.4,3.5c-0.3,0.5-0.6,1-1,1.6
		c-0.7,1.2-1.6,2.5-2.1,4.1c-0.1,0.3-0.2,0.7-0.4,1.1c-0.3,0.8-0.7,1.7-0.9,2.8c-0.1,0.7-0.5,1.5-0.9,2.4c-0.2,0.3-0.3,0.6-0.5,1
		c-0.2,0.5-0.6,1.2-0.8,2.1c-0.1,0.6-0.3,1.2-0.5,1.7c-0.5,1.1-1,2.2-1.6,3.5c-0.6,1.3-1.1,2.5-1.7,3.8c-0.5,1.2-1,2.5-1.5,3.7
		c-0.2,0.6-0.5,1.3-0.7,1.9c-0.3-0.4-0.6-0.9-0.8-1.3c-0.7-1.4-1.6-2.8-2.4-4c-1.1-1.7-2.2-3.3-3.2-4.7c-0.7-1-1.6-2.2-2.2-3.6
		c-0.1-0.1-0.1-0.3-0.2-0.4c-0.1-0.4-0.3-0.9-0.7-1.4c-0.9-1.3-1.5-2.9-2.1-4.4c-0.5-1.3-1-2.5-1.7-3.7c-0.7-1-1.1-2.2-1.6-3.6
		c-0.3-0.9-0.6-1.6-0.7-2.3c-0.3-1.5-0.8-2.9-1.6-4.3c-1.4-2.4-3.4-2.9-4.8-2.9c-0.2,0-0.5,0-0.7,0c-0.4,0-1.7,0.2-2.8,1.2
		c-0.9,0.8-1.8,1.8-2.6,3.4c-0.8,0.9-1.4,1.9-2,2.9c-0.5,1-0.5,2.3-1.1,3.3c-0.6,1-1.6,2-1.6,3.2l-0.3,0.7c-0.4,0.8-0.8,1.7-1.1,2.5
		c-0.3,0.8-0.5,1.6-0.5,2.3c0,0.1,0,0.4-0.3,0.9c-0.4,0.8-0.7,1.6-1.1,2.4l-1.1,2.3c-0.3,0.8-0.6,1.4-0.9,2.2
		c-0.2,0.8-0.5,1.6-0.9,2.3c-0.6,0.8-1.3,2-1.3,3.5c0,0.5-0.2,1-0.5,1.5c-0.2,0.4-0.4,0.9-0.6,1.4c-0.1,0.2-0.2,0.4-0.2,0.6
		l-0.3,0.8c-0.3,0.8-0.6,1.5-1,1.9c-0.3-0.5-0.6-0.9-1-1.4c-0.6-0.8-1.2-1.5-1.4-2.3c-0.1-0.5-0.3-1-0.6-1.5l-1.5-2.4
		c-0.8-1.4-1.7-2.7-2.5-4.1l-0.2-0.4c-0.4-0.7-0.8-1.4-1.1-2.1c-0.3-0.9-0.8-1.7-1.2-2.3l-0.4-0.6c-0.1-0.2-0.3-0.5-0.5-0.7
		c-0.1-0.1-0.2-0.2-0.2-0.3c-0.4-1.3-1-2.5-1.9-3.8c-0.4-0.5-0.6-1.1-0.9-1.9c-0.1-0.2-0.1-0.5-0.2-0.9c-0.3-1-0.5-2-0.9-2.7
		c-0.3-0.5-8.5-15.7-8.7-16.2c-0.3-0.5-0.5-1-0.9-1.6c-0.4-0.6-0.8-1.3-1.4-1.9c-0.5-0.5-1.1-0.9-1.7-1.3c-0.4-0.3-0.7-0.5-1.1-0.8
		c-0.6-0.5-1.2-1.1-1.7-1.7c-0.3-0.4-0.6-0.8-1-1.2c-0.2-0.3-0.4-0.6-0.7-0.9c-0.3-0.3-0.6-0.7-0.9-1c-0.5-0.6-1-1.2-1.4-1.8
		c-0.8-1.2-1.8-2-3.2-2.6c-0.6-0.2-1.2-0.5-1.9-0.7c-0.7-0.2-1.4-0.5-2-0.8c-0.6-0.3-0.8-0.4-1.1-0.6c-0.7-0.6-1.7-1.4-3.2-1.6
		c-1.4-0.2-2.6-0.4-3.6-0.5c-0.4,0-0.9-0.1-1.2,0l-1.6,0l-1.9,0c-0.4,0-0.9,0-1.3,0c-1.7,0.1-3.2,0.6-4.4,1.4
		c-0.3,0.2-0.7,0.5-1,0.7c-0.6,0.5-1.2,0.9-1.8,1.1c-1.1,0.5-2,1.3-2.5,2.4c-0.4,0.9-1,1.6-1.7,2.3c-0.1,0.1-0.5,0.5-0.8,1
		c-0.1,0.3-0.5,0.6-0.9,1.1l-0.4,0.5c-1.2,1.3-1.9,2.7-2.2,4.3l-0.3,1.5c-0.1,0.5-0.2,1-0.3,1.5c-0.4,1.7-0.3,3.3,0.3,5l0.1,0.4
		c0.5,1.6,1,3.1,1.1,4.6c0,0.4,0.1,0.8,0.3,1.3c0,0.1,0.1,0.3,0.1,0.4c0.4,1.8,1.5,2.9,2.4,3.6l0.5,0.5c0.2,0.2,0.5,0.4,0.8,0.7
		c0.1,0.1,0.4,0.3,0.4,0.4c0.5,0.7,1.2,1.2,2.3,1.8c0.9,0.5,1.8,1,2.6,1.5c1,0.6,2.2,1.4,3.6,1.7c1,0.2,2,0.4,3.1,0.6
		c0.6,0.1,1.2,0.2,1.8,0.3c1.1,0.1,2.2,0,3.3-0.1c0.4-0.1,0.8-0.1,1.2-0.1c0.2,0,0.3,0,0.5,0c0.7,0,1.3,0,2.3-0.4
		c0.7-0.3,1-0.4,1.4-0.5c0.5-0.1,1.1-0.2,1.9-0.8c0.1-0.1,0.4-0.1,0.6-0.2c0.5-0.1,1.1-0.3,1.7-0.7c0.9-0.7,1.6-1.7,1.8-2.9
		c0.3-1.3,0-2.7-0.7-4.3c-0.4-0.7-0.9-1.7-1.9-2.2c-1.3-0.7-2.9-0.9-4.7-0.5c-0.7,0.1-1.3,0.3-1.9,0.6c-0.2,0.1-0.4,0.2-0.6,0.3
		c-0.1,0.1-0.2,0.1-0.3,0.2c-0.1,0-0.3,0-0.4,0c-0.5-0.1-1.1-0.1-1.8,0.1c-0.1,0.1-0.5,0.1-0.8,0.1c-0.5,0-0.9,0.1-1.4,0.1
		c-0.1,0-0.1,0-0.2,0c-0.2,0-0.5-0.1-0.7-0.1c-0.8-0.1-1.4-0.3-2.1-0.8c-0.8-0.5-1.5-1-2.2-1.6c-0.6-0.5-1.1-1-1.4-1.7
		c-0.2-0.8-0.6-1.6-0.9-2.3c-0.2-0.4-0.4-0.9-0.6-1.3c-0.1-0.4-0.2-0.8-0.3-1.5c0-0.2,0-0.4-0.1-0.4c0.3-0.6,0.4-1.2,0.2-1.8
		c0.1-0.3,0.2-0.7,0.4-0.9c0.7-1.2,1.7-2.3,2.7-3.5c0.4-0.4,0.8-0.9,1.1-1.3c1.3-0.7,2.4-0.9,3.7-0.6c0.9,0.2,1.7,0.5,2.7,0.9
		l0.8,0.3c0.4,0.1,0.8,0.3,1.2,0.4c0.4,0.1,0.8,0.2,1.2,0.4c0.3,0.1,0.6,0.3,0.9,0.5c0.4,0.2,0.7,0.4,1.1,0.6
		c1.3,0.7,2.3,1.3,2.6,2.4c0.1,0.3,0.2,0.5,0.4,0.9c0.6,1.2,1.4,2.3,2.3,3.2c0.4,0.4,0.8,1,1.2,1.5c0.8,1.2,1.6,2.4,2.5,3.6l1,1.3
		c0.4,0.6,0.8,1.1,1.3,1.7c0.5,0.6,0.8,1.3,1.2,2.1c0.2,0.4,0.5,0.9,0.8,1.4c0.2,0.4,0.5,1,1.1,1.4c0.6,0.6,1.1,1.4,1.5,2.1l0.2,0.4
		c1.6,3.2,9.7,19.1,11.3,20.5l0.2,0.3c0.1,0.2,0.2,0.3,0.4,0.6c0.1,0.2,0.3,0.5,0.6,0.8c0.6,0.6,1,1.3,1.6,2.1
		c0.2,0.4,0.5,0.8,0.9,1.4c0.1,0.2,0.2,0.3,0.3,0.5l0.3,0.4c0.9,1.3,1.8,2.4,2.4,3.7c0.3,0.7,0.6,1.3,0.9,2c0.8,1.6,1.2,3.1,1.9,4.3
		c0.7,1.3,1.8,2.4,3,3.3c1.4,0.9,2.4,0.9,4,0.8c0.7,0,1.3,0,2-0.1c1.8-0.2,2.4-1.2,3.7-2.5c0.6-0.6,1.3-1.4,1.9-2.2L195.9,297z
		 M206.6,271.8L206.6,271.8z"/>
</g>
<g>
	<path class="st0" d="M585,394.5c0,0-0.1,0-0.2,0c-0.1,0-0.1,0-0.2,0c-0.1,0-0.3,0-0.4,0c-0.1,0-0.3,0-0.4,0c-0.1,0-0.1-0.1-0.1-0.2
		c0-0.1,0-0.4,0.2-0.4c0.1,0,0.1,0,0.2,0c0.1,0,0.2,0,0.3,0c0.1,0,0.1,0,0.2,0c0.1,0,0.1,0,0.2,0c0.1,0,0.1,0,0.2,0h0.2
		c0.1,0,0.1,0,0.2,0s0.1,0,0.2,0h0.2c0.1,0,0.1,0,0.2,0c0.1,0,0.1,0,0.2,0c0,0,0.1,0,0.2,0c0,0,0.1,0,0.1,0c0,0,0.1,0,0.2,0
		c0,0,0.1,0,0.1,0c0.1,0,0.1,0.1,0.1,0.2c0,0.1,0,0.1,0,0.2c0,0,0,0.1,0,0.1c0,0,0,0-0.1,0c-0.1,0-0.3,0-0.4,0c0,0-0.1,0-0.1,0
		c0,0,0,0,0,0c0,0-0.1,0-0.1,0c0,0-0.1,0-0.1,0c0,0-0.1,0-0.1,0c-0.1,0-0.2,0-0.2,0.1c0,0.2,0,0.5,0,0.7c0,0.1,0,0.1,0,0.2v0.2
		c0,0.1,0,0.1,0,0.2c0,0.1,0,0.1,0,0.2c0,0.1,0,0.1,0,0.2c0,0.1,0,0.1,0,0.2c0,0.1,0,0.1,0,0.2s0,0.1,0,0.2c0,0.1,0,0.1,0,0.2
		c0,0.1,0,0.1,0,0.2c0,0.1,0,0.1,0,0.2c0,0.1,0,0.2,0,0.3c0,0.2-0.2,0.2-0.4,0.2c-0.1,0-0.3,0-0.3-0.1c0-0.1,0-0.1,0-0.2l0-0.2
		c0-0.1,0-0.1,0-0.2V397c0-0.1,0-0.1,0-0.2v-0.2v-0.2c0-0.1,0-0.1,0-0.2V396c0-0.1,0-0.1,0-0.2c0-0.1,0-0.1,0-0.2c0-0.1,0-0.1,0-0.2
		c0-0.2,0-0.3,0-0.5c0-0.1,0-0.2,0-0.2C585,394.6,585.1,394.5,585,394.5"/>
	<path class="st0" d="M592.6,397.8c0,0-0.1,0-0.1,0c-0.1,0-0.1,0-0.1-0.1c0,0,0-0.1,0-0.1c0-0.1,0-0.2,0-0.4c0-0.1,0-0.2,0-0.3v-0.2
		c0-0.2,0-0.4,0-0.6c0-0.2,0-0.5,0-0.7c0,0,0-0.5-0.1-0.5c0,0,0,0,0,0c0,0,0,0.1-0.1,0.1c-0.1,0.1-0.1,0.2-0.2,0.3
		c0,0-0.1,0.3-0.2,0.3c-0.1,0.3-0.2,0.4-0.3,0.7c-0.1,0.2-0.1,0.4-0.2,0.5c0,0.1-0.1,0.2-0.1,0.3c0,0.1-0.1,0.1-0.1,0.2
		c0,0.1,0,0.2-0.1,0.2c0,0.1,0,0.1-0.1,0.2c0,0-0.1,0-0.2,0c-0.1,0-0.1,0-0.2,0c0,0-0.1-0.1-0.1-0.1c0,0-0.1-0.1-0.1-0.1
		c-0.1-0.1-0.1-0.2-0.1-0.4c-0.2-0.4-0.3-0.8-0.5-1.3c0-0.1-0.1-0.3-0.1-0.4c0-0.1-0.3-0.6-0.4-0.6c-0.1,0.1,0,0.3,0,0.4
		c0,0.1,0,0.1,0,0.2c0,0.1,0,0.1,0,0.1l0,0.2c0,0.2,0,0.3,0,0.5c0,0.2,0,0.4,0,0.6c0,0.1,0,0.1,0,0.2c0,0.1,0,0.1,0,0.2
		c0,0.1,0,0.2,0,0.3c0,0.1,0,0.2,0,0.2c0,0-0.1,0-0.2,0c-0.1,0-0.1,0-0.2,0c-0.1,0-0.2,0-0.2-0.1c0-0.1,0-0.3,0-0.4
		c0-0.4,0-0.7,0-1.1c0-0.4,0-0.8,0-1.2c0-0.2,0-0.5,0-0.7c0-0.1-0.1-0.4,0.1-0.5c0.1,0,0.2,0,0.2-0.1c0.1,0,0.2,0,0.3,0
		c0.1,0,0.2,0,0.3,0c0.1,0,0.2,0,0.3,0c0.1,0.1,0.2,0.2,0.2,0.4c0.2,0.6,0.4,1.2,0.6,1.8c0.1,0.1,0.2,0.3,0.2,0.4
		c0,0,0.1,0.2,0.1,0.2c0,0,0.1-0.1,0.1-0.2c0-0.1,0.1-0.2,0.1-0.2c0.1-0.2,0.2-0.5,0.3-0.7c0-0.1,0-0.1,0.1-0.2c0-0.1,0-0.1,0.1-0.2
		c0.1-0.3,0.2-0.7,0.4-1.1c0-0.1,0.1-0.1,0.1-0.2c0.1-0.1,0.2-0.1,0.4-0.1c0.1,0,0.2,0,0.3,0c0.1,0,0.4,0,0.5,0.1c0.1,0.2,0,0.8,0,1
		c0,0.1,0,0.1,0,0.2c0,0.1,0,0.1,0,0.2v0.2c0,0.1,0,0.2,0,0.3c0,0.1,0,0.3,0,0.4c0,0.3,0,0.6,0,0.8c0,0.2,0,0.5,0,0.7
		c0,0,0,0.1,0,0.1c0,0-0.1,0.1-0.1,0.1C592.8,397.9,592.7,397.9,592.6,397.8"/>
</g>
</svg>
