<svg id="Layer_1" data-name="Layer 1" xmlns="http://www.w3.org/2000/svg" viewBox="0 0 275.49 160.57"><defs><style>.cls-1{fill:#4d4d4d;}.cls-2{fill:#666;}</style></defs><path d="M629.85,529.72" transform="translate(-383.45 -326.8)"/><path class="cls-1" d="M542,340.16a7.4,7.4,0,0,1,4-.59,7.24,7.24,0,0,1,3.41,1.62,8.24,8.24,0,0,1,2.21,6.21c-.46,3.65-4,6.79-8.68,7.07a4.58,4.58,0,0,0-2-9,5.42,5.42,0,0,0-2.63,1.28,7.42,7.42,0,0,0-2.37,3.93c-.88,3-1.35,10.32-.86,20l5.29.44h2.11l2.3,2.28c-3.86-.31-8-.5-12.49-.48-4.15,0-8.06.19-11.68.48l3.38-2.36,2.43-.2,3-.24c.39-8.75.61-15.27.79-18.22,0-.78.18-2.63-1-3.82-.48-.5-.86-.55-1.86-1-2-1-3.27-1.7-4.08-3a5.06,5.06,0,0,1-.74-2.15,8.93,8.93,0,0,0,1.5,1,11.48,11.48,0,0,0,4.17,1.19C531.29,344.88,534.3,343.18,542,340.16Z" transform="translate(-383.45 -326.8)"/><path d="M541.56,340.16a7.51,7.51,0,0,1,4-.59,7.2,7.2,0,0,1,3.4,1.62,8.2,8.2,0,0,1,2.21,6.21c-.46,3.65-4,6.79-8.68,7.07a4.58,4.58,0,0,0-2-9,5.52,5.52,0,0,0-2.64,1.28,7.32,7.32,0,0,0-2.36,3.93c-.89,3-1.35,10.32-.87,20l5.3.44h2.11l2.29,2.28c-3.85-.31-8-.5-12.49-.48-4.15,0-8,.19-11.68.48l3.38-2.36,2.43-.2,3-.24c.39-8.75.62-15.27.8-18.22a5,5,0,0,0-1-3.82,5.72,5.72,0,0,0-1.86-1,10.58,10.58,0,0,1-4.09-3c-.31-.46-1.23-2-.51-4.93a4.34,4.34,0,0,0,1,2.3,4.6,4.6,0,0,0,2.73,1.36C531,344.21,540,340.77,541.56,340.16Z" transform="translate(-383.45 -326.8)"/><path class="cls-1" d="M564.56,359.26a22.49,22.49,0,0,0,.36,6.9,4,4,0,0,0,1.42,2.36,4.27,4.27,0,0,0,2.72.84c.33,0,.39,0,.66,0a5.8,5.8,0,0,1,3.58,1.41,8.14,8.14,0,0,1,2.52,3.28l-3.75.09c-.45,0-1.13,0-2,0s-1.17-.06-1.53-.09c-2.28-.16-2.54,0-4.08-.17a7.68,7.68,0,0,1-3.07-.6,5.56,5.56,0,0,1-2.14-2.81,9.89,9.89,0,0,1-.81-4.51l.14-6.79v-8.44a10,10,0,0,0-.93-3.49c-2-4.21-6.46-5.53-7.41-5.79a24.61,24.61,0,0,0,5.79.77c.91,0,1.76,0,2.55-.1q0-5-.28-10.9a1.3,1.3,0,0,1,1,.06,1.33,1.33,0,0,1,.63,1.41L559.9,337c.09,1.7.17,3.4.26,5.11,2.89-.18,5.16-.29,6.72-.35,1.22,0,2.16-.08,3.23-.08h3.21a14.3,14.3,0,0,0-7.89,4.42,12,12,0,0,0-.85,1.1c-.16,1.94-.26,4.05-.25,6.3C564.33,355.55,564.42,357.47,564.56,359.26Z" transform="translate(-383.45 -326.8)"/><path d="M564.05,359.26a22.49,22.49,0,0,0,.36,6.9,4,4,0,0,0,1.42,2.36,4.27,4.27,0,0,0,2.72.84c.32,0,.39,0,.66,0a5.8,5.8,0,0,1,3.58,1.41,8.14,8.14,0,0,1,2.52,3.28l-3.75.09c-.46,0-1.13,0-2,0s-1.18-.06-1.53-.09c-2.28-.16-2.55,0-4.08-.17a7.68,7.68,0,0,1-3.07-.6,5.56,5.56,0,0,1-2.14-2.81,9.89,9.89,0,0,1-.81-4.51l.14-6.79v-8.44a10,10,0,0,0-.93-3.49c-2-4.21-6.46-5.53-7.41-5.79a24.61,24.61,0,0,0,5.79.77c.91,0,1.76,0,2.55-.1q0-5-.28-10.9a1.3,1.3,0,0,1,1,.06,1.33,1.33,0,0,1,.63,1.41l-.07,4.34c.09,1.7.17,3.4.26,5.11,2.89-.18,5.16-.29,6.72-.35,1.22,0,2.16-.08,3.23-.08h3.21a14.3,14.3,0,0,0-7.89,4.42,12,12,0,0,0-.85,1.1c-.16,1.94-.26,4.05-.25,6.3C563.82,355.55,563.91,357.47,564.05,359.26Z" transform="translate(-383.45 -326.8)"/><path class="cls-1" d="M587,340.45a31.49,31.49,0,0,1,1.66,5.2,28,28,0,0,1-.14,14.65,25.85,25.85,0,0,1-10.28,13.52c5-5.7,5.69-10.05,5.48-12.91-.52-6.89-6.92-12.09-5-14.74.79-1.07,2.09-.57,4.77-2.38A14.56,14.56,0,0,0,587,340.45Zm-7.44-5.52c.92.23,1.39.35,2,.53s.8.26,1.25.45c.14.06.52.22,1,.48a4.58,4.58,0,0,1,.73.42,2.57,2.57,0,0,1,.6,2.07,3.66,3.66,0,0,1-.67,1.54,8.14,8.14,0,0,1-1.73,2,9,9,0,0,1-2.16,1.29c-.93.45-3,1.35-3.22,1s.5-.59,1-1.67a5.4,5.4,0,0,0,.47-1.77,8.45,8.45,0,0,0-.51-3.45,7.84,7.84,0,0,1-.37-1.67c-.07-.64-.11-1.19.19-1.42S578.45,334.64,579.56,334.93Z" transform="translate(-383.45 -326.8)"/><path d="M586.28,338.65a39.5,39.5,0,0,1,1.83,7.33,31.8,31.8,0,0,1-.56,14.44,27.88,27.88,0,0,1-10.2,14c4.83-5.68,5.69-10.15,5.39-13.38-.64-6.86-6.92-11.95-5-14.74.88-1.24,2.39-.62,4.77-2.38A11.23,11.23,0,0,0,586.28,338.65Zm-7.7-3.6c.93.23,1.4.35,1.95.53s.8.26,1.26.45c.13.05.51.22,1,.48a4.9,4.9,0,0,1,.74.42,2.51,2.51,0,0,1,.59,2.07,3.54,3.54,0,0,1-.67,1.54,8.39,8.39,0,0,1-1.72,2,9.16,9.16,0,0,1-2.16,1.29c-.93.45-3,1.35-3.23,1s.51-.59,1-1.67a5.4,5.4,0,0,0,.47-1.77,8.64,8.64,0,0,0-.5-3.45,7.74,7.74,0,0,1-.38-1.67c-.06-.64-.11-1.19.19-1.42S577.48,334.76,578.58,335.05Z" transform="translate(-383.45 -326.8)"/><path class="cls-1" d="M627.94,347.61a15.43,15.43,0,0,0-3.49,2.55l-3.15-7.91,7.4-.6c1.14-.15,2.88-.37,5-.54,4.26-.35,6.45-.52,9,0a12.9,12.9,0,0,1,5.46,2.27,9.27,9.27,0,0,1,2.8,3.22,8.74,8.74,0,0,1,.77,2.33,59.36,59.36,0,0,1,.52,12.54h0l0,5.17c0,1.3.1,2.61.14,3.91a4,4,0,0,0,2.11,1.79,3.37,3.37,0,0,0,2.47,0,3.12,3.12,0,0,0,1.26-1,3.41,3.41,0,0,1,.61,2.93c-.7,2-4.18,2.41-6.3,2a6.31,6.31,0,0,1-3.22-1.5,5,5,0,0,1-1.72-2.5c-.1-.42-.12-.83-.28-.85s-.43.92-1.08,1.87a6.52,6.52,0,0,1-2.12,1.88,12.72,12.72,0,0,1-3.15,1.44,14.83,14.83,0,0,1-10.3-.76,12.44,12.44,0,0,1-4.26-3.65,12.65,12.65,0,0,1-2-4.78,14.65,14.65,0,0,1,.09-8,12.39,12.39,0,0,1,2.38-4.51c3.7-4.38,9.66-4.75,12.68-4.93a25,25,0,0,1,6.38.42,7.33,7.33,0,0,0-3-4,8.24,8.24,0,0,0-3.63-1,17.86,17.86,0,0,0-6.29.43A17.08,17.08,0,0,0,627.94,347.61Zm18.16,10.15a12.71,12.71,0,0,0-6.37-.93,8.78,8.78,0,0,0-3.93,1.27,7.17,7.17,0,0,0-2.81,3.15,6.4,6.4,0,0,0-.51,3.32,6,6,0,0,0,1.54,3.32,6.09,6.09,0,0,0,2,1.36,7.1,7.1,0,0,0,3.41.51,12.48,12.48,0,0,0,4.42-1.14,20.41,20.41,0,0,0,2.72-1.33c0-.57.05-1.46,0-2.55-.07-1.51-.23-2.23-.34-3.74A32.24,32.24,0,0,1,646.1,357.76Z" transform="translate(-383.45 -326.8)"/><path d="M627.74,348.35a14.22,14.22,0,0,0-3.65,3.06q-1.76-5.45-3.49-10.89l5.19,1.79c1.38-.14,3.66-.39,6.49-.8,5.77-.83,7.34-1.4,10.19-.82a10.51,10.51,0,0,1,5.62,2.72,12.68,12.68,0,0,1,2.32,3.56,9.06,9.06,0,0,1,.76,2.33,59.61,59.61,0,0,1,.53,12.53h0l-.06,5.17.15,3.91a3.92,3.92,0,0,0,2.1,1.8,3.54,3.54,0,0,0,2.47,0,3.76,3.76,0,0,0,2.06-2.7,5.47,5.47,0,0,1-.19,4.65c-1.7,2.78-5.87,2.12-6.29,2a6.41,6.41,0,0,1-3.22-1.51,5,5,0,0,1-1.72-2.49c-.1-.43-.12-.83-.28-.86s-.44.92-1.08,1.88a6.65,6.65,0,0,1-2.13,1.87,12.21,12.21,0,0,1-3.15,1.45,14.88,14.88,0,0,1-10.3-.77,11.86,11.86,0,0,1-6.29-8.42,14.72,14.72,0,0,1,.08-8,12.64,12.64,0,0,1,2.38-4.51c3.71-4.39,9.67-4.76,12.69-4.94a25.51,25.51,0,0,1,6.38.42,7.58,7.58,0,0,0-2.75-3.33,8.5,8.5,0,0,0-3.83-1.19,16.75,16.75,0,0,0-6,.25A15.49,15.49,0,0,0,627.74,348.35Zm17.88,9.7a18.14,18.14,0,0,0-8.43-1.11,7.1,7.1,0,0,0-3.57,1.28,6.37,6.37,0,0,0-2.13,3,6.71,6.71,0,0,0,0,4.09,6.19,6.19,0,0,0,4.08,4.51,7.52,7.52,0,0,0,2.56.42,9.86,9.86,0,0,0,3.66-.68,13.24,13.24,0,0,0,3.91-2.21c0-1.23,0-2.22,0-2.9,0-1.67-.07-2.5-.08-4.34C645.61,359.22,645.61,358.5,645.62,358.05Z" transform="translate(-383.45 -326.8)"/><text x="-383.45" y="-326.8"/><path class="cls-2" d="M514.07,371.54c-.66-1.17-1.31-2.35-2-3.53q-2.81-6.08-5.58-12.34-6.48-14.7-12-28.87l-17.42.19-16.47,46.72h18.13l4.59-16.46,14.24-.32c-.92-2.45-1.83-4.9-2.75-7.34l-10.48-.3,3.72-12.72,8.29-.13q7.92,17.6,15.83,35.19h-6l-2,1.94c1.75,0,3.5-.06,5.27-.08q5.76-.06,11.32,0L519,371.63Z" transform="translate(-383.45 -326.8)"/><path d="M513.56,371.54c-.66-1.17-1.31-2.35-2-3.53q-2.81-6.08-5.57-12.34-6.5-14.7-12-28.87l-17.42.19-16.47,46.72h18.13l4.59-16.46,14.24-.32c-.92-2.45-1.83-4.9-2.75-7.34l-10.48-.3,3.72-12.72,8.29-.13q7.92,17.6,15.83,35.19h-5.95l-2,1.94c1.75,0,3.5-.06,5.27-.08q5.76-.06,11.32,0l-1.87-1.88Z" transform="translate(-383.45 -326.8)"/><polygon class="cls-2" points="80.74 44.22 94.87 2.69 109.85 2.69 110.79 4.39 96.32 4.65 82.53 44.22 80.74 44.22"/><path class="cls-1" d="M618.81,367.08l.76,3.23c.35,1.37.69,2.73,1,4.09a30.25,30.25,0,0,1-4.94.85c-2.52.22-3-.05-3.32-.26-1.74-1.29-1-5.26-1.11-5.27s.1,4.18-1.87,5.19a2.42,2.42,0,0,1-1.23.2,17.06,17.06,0,0,1-8.77-2,13.55,13.55,0,0,1-5.57-5.7,18.63,18.63,0,0,1-2-8.86,18,18,0,0,1,1.51-7.89,18.27,18.27,0,0,1,7.52-8.05,23.44,23.44,0,0,1,8.68-2.89,27.73,27.73,0,0,1,6.13-.25c3.9.25,4.5,1.09,4.68,1.44a3.26,3.26,0,0,1-.34,2.81,12.48,12.48,0,0,1,0,2.13,13.34,13.34,0,0,1-.85,3.57,14.2,14.2,0,0,1-2.3,3.92,15.2,15.2,0,0,0-2-2.13,10.18,10.18,0,0,0-3.06-2.13,8.12,8.12,0,0,0-4.77-.34,9.16,9.16,0,0,0-5.27,4.09,11.26,11.26,0,0,0-2.13,5.53,9.87,9.87,0,0,0,2,7.32,9.43,9.43,0,0,0,3.4,2.47,12.59,12.59,0,0,0,4.68,1.1,17.4,17.4,0,0,0,6.3-1.18C617.18,367.74,618.14,367.36,618.81,367.08Z" transform="translate(-383.45 -326.8)"/><path d="M618.3,365.93c.21,1.24.47,2.54.76,3.87s.67,2.8,1,4.09a30.25,30.25,0,0,1-4.94.85c-2.52.22-3-.05-3.32-.26-1.74-1.29-1-5.26-1.11-5.27s.1,4.18-1.87,5.19a2.42,2.42,0,0,1-1.23.2,17.06,17.06,0,0,1-8.77-2,13.61,13.61,0,0,1-5.57-5.7,18.63,18.63,0,0,1-2-8.86,18,18,0,0,1,1.51-7.89,18.27,18.27,0,0,1,7.52-8.05,23.26,23.26,0,0,1,8.68-2.89,28.09,28.09,0,0,1,6.13-.26c3.9.25,4.5,1.1,4.68,1.45a3.26,3.26,0,0,1-.34,2.81,12.48,12.48,0,0,1,0,2.13,13.34,13.34,0,0,1-.85,3.57,14.2,14.2,0,0,1-2.3,3.92,15.2,15.2,0,0,0-2-2.13,10.18,10.18,0,0,0-3.06-2.13,8.12,8.12,0,0,0-4.77-.34,9.16,9.16,0,0,0-5.27,4.09,11.16,11.16,0,0,0-2.13,5.53,9.87,9.87,0,0,0,2,7.32,9.63,9.63,0,0,0,3.4,2.47,12.24,12.24,0,0,0,4.94,1.19,13.68,13.68,0,0,0,6.21-1.5A18.43,18.43,0,0,0,618.3,365.93Z" transform="translate(-383.45 -326.8)"/><path class="cls-1" d="M615.83,342.4c-.07-.8-4.38-2-8.85-1.11a18,18,0,0,0-10.64,7.07s-2.82,4.12-2.89,11.36c0,.11,0,.62.08.64.29,0,.21-5.14,2.5-9.26s7.38-7.84,12.23-7.77a42.25,42.25,0,0,1,6.63,1c.12-.19.27-.45.43-.77A4,4,0,0,0,615.83,342.4Z" transform="translate(-383.45 -326.8)"/><path class="cls-1" d="M609.68,282.62" transform="translate(-383.45 -326.8)"/><path class="cls-1" d="M626.61,367.29c.27-.09.7,3.6,3.66,5.79,3.65,2.7,8.58,1.2,8.6,1.45s-5.87,2.61-9.58-.38C626.37,371.8,626.32,367.4,626.61,367.29Z" transform="translate(-383.45 -326.8)"/><path class="cls-1" d="M556.57,343c-.05.23,1.26.42,2,1.53a3.05,3.05,0,0,1,.43,1.54c0,1.16.81,18.05.59,18-.06,0,.11-1.51.09-8,0-1.45.07-2.9,0-4.34a23.1,23.1,0,0,1,.12-5,4.28,4.28,0,0,1,.51-1.8c1.05-1.62,3.33-1.69,3.28-1.94s-1.72.09-4.17,0C557.9,343,556.63,342.82,556.57,343Z" transform="translate(-383.45 -326.8)"/><path class="cls-1" d="M524.4,344.15c0,.14,3,.49,4.86,2.55,1.15,1.31,1.43,2.88,1.61,5.45a66.2,66.2,0,0,1-.25,12,35,35,0,0,0,.59-6c0-1.83,0-4.78,0-9.1,0-1.7,0-2.57.51-3.41,1.37-2.3,4.79-2.65,4.77-2.72s-2.4.64-4.94,1.19a15.69,15.69,0,0,1-3.32.51A21.57,21.57,0,0,1,524.4,344.15Z" transform="translate(-383.45 -326.8)"/><path class="cls-1" d="M584.49,343.47c-.17-.14-1.18,1.84-3.49,2.64-1.23.42-2,.22-2.3.76s.35,1.48,1.28,2.9a21.76,21.76,0,0,1,3.57,7.66,7.84,7.84,0,0,1,.17,2.63,20.85,20.85,0,0,0-1.36-7.15c-1.18-2.88-2.81-4.47-2.13-5.53.39-.59,1-.31,2.22-1.1C584,345.24,584.64,343.59,584.49,343.47Z" transform="translate(-383.45 -326.8)"/></svg>