<?xml version="1.0" encoding="utf-8"?>
<!-- Generator: Adobe Illustrator 24.3.0, SVG Export Plug-In . SVG Version: 6.00 Build 0)  -->
<svg version="1.1" id="Layer_1" xmlns="http://www.w3.org/2000/svg" xmlns:xlink="http://www.w3.org/1999/xlink" x="0px" y="0px"
	 viewBox="0 0 20 20" style="enable-background:new 0 0 20 20;" xml:space="preserve">
<style type="text/css">
	.st0{fill:#115262;}
</style>
<path class="st0" d="M10.2,4.7C9.9,4.8,9.7,4.8,9.5,5C9.3,5.8,9.2,6.5,9.3,7.3v5.1c0,1-0.2,2.4,0.7,2.6c0.2,0,0.3,0,0.5-0.1
	c0.6-0.2,1.1-0.5,1.5-0.9c0.1-0.1,0.2-0.3,0.2-0.5c-0.3-0.8-1.1,0.1-1.4-0.4c-0.1-0.4-0.1-0.8-0.1-1.2V7.4c0-0.3,0-0.5,0.1-0.8
	c0-0.1,0.1-0.3,0.3-0.3c0.4-0.1,1.1,0.4,1.3,0.5l3.6,2c0.3,0.2,1.3,0.6,1.2,1s-0.6,0.6-0.9,0.7c-0.9,0.4-1.8,0.9-2.6,1.3v-0.5
	c0-0.7,0.2-1.6-0.4-1.9c-0.2,0-0.3,0-0.5,0c-0.3,0.2-0.3,0.5-0.3,1v1.6c0,0.2,0,0.4,0,0.7c0.1,0.2,0.2,0.3,0.4,0.4
	c0.6,0.4,1.1-0.1,1.6-0.4l3.5-1.9c0.5-0.2,1.2-0.4,1.3-1c0-0.2-0.1-0.5-0.2-0.6c-0.4-0.4-1-0.8-1.5-1c-1.6-0.9-3.3-1.9-4.9-2.7
	c-0.4-0.1-0.7-0.4-1-0.5C11,4.8,10.6,4.7,10.2,4.7L10.2,4.7z M12.3,8.4c0,0.1,0,0.1,0,0.2c0,0.3,0.3,0.6,0.6,0.5
	c0.3,0,0.6-0.3,0.5-0.6c0-0.3-0.3-0.6-0.6-0.5C12.6,8.1,12.4,8.2,12.3,8.4z"/>
</svg>
