<?xml version="1.0" encoding="utf-8"?>
<!-- Generator: Adobe Illustrator 25.1.0, SVG Export Plug-In . SVG Version: 6.00 Build 0)  -->
<svg version="1.1" id="Layer_1" xmlns="http://www.w3.org/2000/svg" xmlns:xlink="http://www.w3.org/1999/xlink" x="0px" y="0px"
	 viewBox="0 0 56 54" style="enable-background:new 0 0 56 54;" xml:space="preserve">
<style type="text/css">
	.st0{fill:#808080;}
	.st1{fill:#FFFFFF;}
</style>
<g id="Layer_2_1_">
	<g id="Surfaces">
		<g id="Drawing_Surface">
			<g id="Outline_no_shadow">
				<path class="st0" d="M9.9,0h36.2C51.6,0,56,4.4,56,9.9v34.2c0,5.5-4.4,9.9-9.9,9.9H9.9C4.4,54,0,49.6,0,44.1V9.9
					C0,4.4,4.4,0,9.9,0z"/>
			</g>
		</g>
	</g>
	<g id="Outlined_Mnemonics_Logos">
		<g id="Ai">
			<path class="st1" d="M27.1,32h-8.5l-1.7,5.7c0,0.2-0.2,0.3-0.4,0.3h-4.3c-0.2,0-0.3-0.1-0.3-0.4l7.4-21.3
				c0.1-0.2,0.1-0.5,0.2-0.8c0.1-0.4,0.2-0.8,0.1-1.3c0-0.1,0.1-0.2,0.2-0.3c0,0,0,0,0.1,0h5.9c0.2,0,0.3,0.1,0.3,0.2l8.4,23.4
				c0.1,0.2,0,0.4-0.2,0.4h-4.8c-0.2,0-0.3-0.1-0.4-0.3L27.1,32z M19.9,28h6.3c-0.1-0.5-0.7-1.6-0.9-2.2c-0.2-0.6-0.5-1.1-0.7-1.8
				c-0.2-0.7-0.4-1.4-0.7-2.1c-0.2-0.7-0.4-1.4-0.6-2c-0.2-0.7-0.4-1.3-0.5-1.8h0c-0.2,1-0.5,2-0.8,3c-0.3,1.1-0.7,2.2-1.1,3.4
				C20.6,25.5,20.2,27,19.9,28L19.9,28z"/>
			<path class="st1" d="M39.4,17.7c-0.8,0-1.5-0.3-2-0.8c-0.5-0.6-0.8-1.3-0.8-2.1c0-0.8,0.3-1.5,0.8-2.1c0.6-0.5,1.3-0.8,2.1-0.8
				c0.8,0,1.5,0.2,2.1,0.8c0.5,0.6,0.8,1.3,0.8,2.1c0,0.8-0.3,1.5-0.8,2.1C41,17.4,40.2,17.7,39.4,17.7z M37,37.5V20.5
				c0-0.2,0.1-0.3,0.3-0.3h4.2c0.2,0,0.3,0.1,0.3,0.3v16.9c0,0.2-0.1,0.4-0.3,0.4h-4.2C37.1,37.8,37,37.7,37,37.5z"/>
		</g>
	</g>
</g>
</svg>
