<svg xmlns="http://www.w3.org/2000/svg" height="18" viewBox="0 0 18 18" width="18">
  <defs>
    <style>
      .a {
        fill: #6E6E6E;
      }
    </style>
  </defs>
  <title>S Home 18 N</title>
  <rect id="Canvas" fill="#ff13dc" opacity="0" width="18" height="18" /><path class="a" d="M17.666,10.125,9.375,1.834a.53151.53151,0,0,0-.75,0L.334,10.125a.53051.53051,0,0,0,0,.75l.979.9785A.5.5,0,0,0,1.6665,12H2v4.5a.5.5,0,0,0,.5.5h4a.5.5,0,0,0,.5-.5v-5a.5.5,0,0,1,.5-.5h3a.5.5,0,0,1,.5.5v5a.5.5,0,0,0,.5.5h4a.5.5,0,0,0,.5-.5V12h.3335a.5.5,0,0,0,.3535-.1465l.979-.9785A.53051.53051,0,0,0,17.666,10.125Z" />
</svg>