<svg xmlns="http://www.w3.org/2000/svg" viewBox="0 0 240 234"><defs><style>.cls-1{fill:#001e36;}.cls-2{fill:#31a8ff;}</style></defs><title>Asset 116</title><g id="Layer_2" data-name="Layer 2"><g id="Surfaces"><g id="Photo_Surface" data-name="Photo Surface"><g id="Outline_no_shadow" data-name="Outline no shadow"><rect class="cls-1" width="240" height="234" rx="42.5"/></g></g></g><g id="Outlined_Mnemonics_Logos" data-name="Outlined Mnemonics &amp; Logos"><g id="Ps"><path class="cls-2" d="M54.04167,164.09521V61.21631c0-.74976.32226-1.127.96631-1.127,1.71533,0,3.28157-.02515,5.64388-.08057q3.53979-.07911,7.64746-.16089,4.106-.07947,8.69433-.16113,4.5879-.07911,9.09619-.08057,12.23366,0,20.60791,3.05908a35.755,35.755,0,0,1,13.44385,8.21094,31.496,31.496,0,0,1,7.3252,11.35059,37.64894,37.64894,0,0,1,2.25439,12.96045q0,12.88256-5.957,21.252a33.65844,33.65844,0,0,1-16.1001,12.15552c-6.7622,2.52319-14.27636,3.3789-22.54,3.3789q-3.54345,0-4.99121-.08056-1.44873-.07947-4.34668-.08057v32.12183a1.28093,1.28093,0,0,1-1.44922,1.449H55.16862C54.41667,165.3833,54.04167,164.95557,54.04167,164.09521Zm21.74446-84.686v33.55493q2.09034.16224,3.86377.16089h5.313a37.7594,37.7594,0,0,0,11.51172-1.83765,17.35824,17.35824,0,0,0,8.21094-5.313q3.13915-3.70167,3.13965-10.304a16.28281,16.28281,0,0,0-2.335-8.85522,15.01394,15.01394,0,0,0-7.00341-5.71534A29.83951,29.83951,0,0,0,86.73389,79.0874q-3.86427,0-6.84229.08032Q76.91065,79.25085,75.78613,79.40918Z"/><path class="cls-2" d="M191.97114,106.863a37.6431,37.6431,0,0,0-9.57959-3.3811,50.875,50.875,0,0,0-11.18946-1.28809,20.82175,20.82175,0,0,0-6.03759.72461,5.42475,5.42475,0,0,0-3.13965,2.01245,5.0699,5.0699,0,0,0-.80469,2.73706,4.27537,4.27537,0,0,0,.96582,2.57593,10.95825,10.95825,0,0,0,3.38086,2.65649,67.449,67.449,0,0,0,7.084,3.30054,70.20083,70.20083,0,0,1,15.37549,7.32544,23.38242,23.38242,0,0,1,7.88916,8.2915A22.10738,22.10738,0,0,1,198.25,142.122a23.143,23.143,0,0,1-3.86377,13.28247,25.41573,25.41573,0,0,1-11.18995,8.93531q-7.32788,3.219-18.1123,3.22021a65.50368,65.50368,0,0,1-13.60449-1.28808,43.40843,43.40843,0,0,1-10.22363-3.22,2.08508,2.08508,0,0,1-1.127-1.93213V143.73187a.94571.94571,0,0,1,.40283-.8855.781.781,0,0,1,.88526.08057,43.01131,43.01131,0,0,0,12.397,4.9104,51.12181,51.12181,0,0,0,11.75293,1.52954q5.63379,0,8.2915-1.449a4.5512,4.5512,0,0,0,2.65674-4.186q0-2.09034-2.415-4.02491-2.41479-1.93212-9.82129-4.66918a59.18392,59.18392,0,0,1-14.24853-7.24488,24.5718,24.5718,0,0,1-7.5669-8.45263,22.20192,22.20192,0,0,1-2.33447-10.22339,23.08045,23.08045,0,0,1,3.38086-12.075,24.57046,24.57046,0,0,1,10.46533-9.177q7.08252-3.53943,17.71-3.542a78.40115,78.40115,0,0,1,12.397.8855,32.49681,32.49681,0,0,1,8.63066,2.33447,1.46829,1.46829,0,0,1,.96582.8855,4.44869,4.44869,0,0,1,.16113,1.20752v16.261a1.08221,1.08221,0,0,1-.48291.96606A1.556,1.556,0,0,1,191.97114,106.863Z"/></g></g></g></svg>