<?xml version="1.0" encoding="utf-8"?>
<!-- Generator: Adobe Illustrator 25.1.0, SVG Export Plug-In . SVG Version: 6.00 Build 0)  -->
<svg version="1.1" id="Layer_1" xmlns="http://www.w3.org/2000/svg" xmlns:xlink="http://www.w3.org/1999/xlink" x="0px" y="0px"
	 viewBox="0 0 55.4 54" style="enable-background:new 0 0 55.4 54;" xml:space="preserve">
<style type="text/css">
	.st0{fill:#808080;}
	.st1{fill:#FFFFFF;}
</style>
<g>
	<g>
		<g>
			<path class="st0" d="M9.8,0h35.8c5.4,0,9.8,4.4,9.8,9.8v34.4c0,5.4-4.4,9.8-9.8,9.8H9.8C4.4,54,0,49.6,0,44.2V9.8
				C0,4.4,4.4,0,9.8,0z"/>
		</g>
	</g>
</g>
<g id="Layer_3_16_">
	<g id="Layer_86_11_">
		<path id="_64_11_" class="st1" d="M44.4,31.3c-2.6-2.8-9.8-1.6-11.4-1.4c-2.5-2.4-4.2-5.3-4.8-6.3c0.9-2.7,1.5-5.5,1.6-8.3
			c0-2.5-1-5.2-3.8-5.2c-1,0-1.9,0.6-2.4,1.4c-1.2,2.1-0.7,6.3,1.2,10.6c-1.1,3.2-2.7,7.7-4.9,11.4c-2.9,1.1-9,3.9-9.6,7.1
			c-0.2,0.9,0.1,1.8,0.8,2.5c0.7,0.6,1.6,0.9,2.5,0.9c3.7,0,7.3-5.1,9.8-9.5c2.1-0.7,5.4-1.7,8.7-2.3c3.9,3.4,7.3,3.9,9.1,3.9
			c2.4,0,3.3-1,3.6-1.9C45.3,33.2,45.1,32.1,44.4,31.3z M41.8,33c-0.1,0.7-1,1.4-2.6,1c-1.9-0.5-3.6-1.4-5.1-2.6
			c1.3-0.2,4.2-0.5,6.3-0.1C41.2,31.5,42,31.9,41.8,33z M25.1,12.4c0.2-0.3,0.5-0.5,0.8-0.5c0.9,0,1.1,1.1,1.1,2
			c-0.1,2.1-0.6,4.3-1.2,6.2C24.3,16.1,24.5,13.3,25.1,12.4z M24.9,31.8c0.8-1.6,1.9-4.4,2.3-5.6c0.9,1.5,2.4,3.3,3.2,4.2
			C30.4,30.4,27.3,31,24.9,31.8z M19,35.8c-2.4,3.8-4.7,6.2-6,6.2c-0.2,0-0.4-0.1-0.6-0.2c-0.3-0.2-0.4-0.5-0.3-0.9
			C12.4,39.5,15,37.6,19,35.8z"/>
	</g>
</g>
</svg>
