<svg id="Group_158274" data-name="Group 158274" xmlns="http://www.w3.org/2000/svg" width="35.119" height="34.9" viewBox="0 0 35.119 34.9">
  <path id="Path_101" data-name="Path 101" d="M460.081,313.1h25.957a4.47,4.47,0,0,1,4.581,4.581V343.42A4.473,4.473,0,0,1,486.038,348H460.081a4.47,4.47,0,0,1-4.581-4.581V317.463a4.559,4.559,0,0,1,4.581-4.362Zm21.158,3.926a1.491,1.491,0,0,0-1.527,1.527v3.708a1.491,1.491,0,0,0,1.527,1.527h3.926a1.491,1.491,0,0,0,1.527-1.527v-3.708a1.491,1.491,0,0,0-1.527-1.527Zm5.453,10.906h-3.054a12.877,12.877,0,0,1,.436,3.054,10.575,10.575,0,0,1-10.906,10.47c-5.89,0-10.906-4.8-10.906-10.47a14.725,14.725,0,0,1,.436-3.054h-3.272v14.833a1.407,1.407,0,0,0,1.309,1.309h24.212a1.257,1.257,0,0,0,1.309-1.309V327.933Zm-13.524-4.362a6.765,6.765,0,1,0,6.98,6.762,6.845,6.845,0,0,0-6.98-6.762Zm0,0" transform="translate(-455.5 -313.1)" fill="gray" fill-rule="evenodd"/>
</svg>
