<svg xmlns="http://www.w3.org/2000/svg" width="35" height="35" viewBox="0 0 35 35">
  <path id="linkedin-square" d="M5.4,29.3h5.264V13.49H5.4Zm5.605-20.69a2.7,2.7,0,0,0-.82-1.96,2.906,2.906,0,0,0-2.119-.775,3.027,3.027,0,0,0-2.153.775,2.565,2.565,0,0,0-.832,1.96,2.6,2.6,0,0,0,.809,1.948A2.9,2.9,0,0,0,8,11.348h.023a3,3,0,0,0,2.165-.786A2.59,2.59,0,0,0,11.006,8.613ZM24.336,29.3H29.6V20.234a7.564,7.564,0,0,0-1.663-5.309,5.7,5.7,0,0,0-4.4-1.8,5.3,5.3,0,0,0-4.762,2.666h.046v-2.3H13.558q.068,1.5,0,15.814h5.264V20.462a3.753,3.753,0,0,1,.16-1.276,3.517,3.517,0,0,1,1.025-1.356,2.584,2.584,0,0,1,1.686-.558q2.642,0,2.643,3.577ZM35,6.563V28.438A6.574,6.574,0,0,1,28.438,35H6.563a6.324,6.324,0,0,1-4.637-1.925A6.324,6.324,0,0,1,0,28.438V6.563A6.324,6.324,0,0,1,1.925,1.925,6.324,6.324,0,0,1,6.563,0H28.438a6.324,6.324,0,0,1,4.637,1.925A6.324,6.324,0,0,1,35,6.563Z" fill="gray"/>
</svg>
