<svg xmlns="http://www.w3.org/2000/svg" width="35" height="35" viewBox="0 0 35 35">
  <path id="twitter-square" d="M29.167,10.983a10.11,10.11,0,0,1-2.757.775,4.662,4.662,0,0,0,2.119-2.666,9.545,9.545,0,0,1-3.053,1.162,4.55,4.55,0,0,0-3.486-1.5A4.785,4.785,0,0,0,17.2,13.535a4.436,4.436,0,0,0,.114,1.094A13.544,13.544,0,0,1,11.8,13.148,13.581,13.581,0,0,1,7.428,9.616a4.747,4.747,0,0,0-.661,2.415,4.512,4.512,0,0,0,2.074,3.988,5.644,5.644,0,0,1-2.279-.592v.046A4.554,4.554,0,0,0,7.7,18.514a4.777,4.777,0,0,0,2.8,1.652,4.468,4.468,0,0,1-1.162.182,6.279,6.279,0,0,1-.889-.091,4.856,4.856,0,0,0,1.7,2.37,4.56,4.56,0,0,0,2.769.957,9.452,9.452,0,0,1-5.947,2.051,9.193,9.193,0,0,1-1.139-.068,13.419,13.419,0,0,0,7.337,2.142,13.919,13.919,0,0,0,4.785-.809,12.343,12.343,0,0,0,3.828-2.165,14.371,14.371,0,0,0,2.746-3.122A13.789,13.789,0,0,0,26.8,14.082a5.856,5.856,0,0,0-.023-.615A9.289,9.289,0,0,0,29.167,10.983ZM35,6.563V28.438A6.574,6.574,0,0,1,28.438,35H6.563a6.324,6.324,0,0,1-4.637-1.925A6.324,6.324,0,0,1,0,28.438V6.563A6.324,6.324,0,0,1,1.925,1.925,6.324,6.324,0,0,1,6.563,0H28.438a6.324,6.324,0,0,1,4.637,1.925A6.324,6.324,0,0,1,35,6.563Z" fill="gray"/>
</svg>
