<svg xmlns="http://www.w3.org/2000/svg" width="35" height="35" viewBox="0 0 35 35">
  <path id="facebook-square" d="M28.438,0a6.324,6.324,0,0,1,4.637,1.925A6.324,6.324,0,0,1,35,6.563V28.438A6.574,6.574,0,0,1,28.438,35H24.154V21.442h4.535l.684-5.286H24.154V12.783a2.919,2.919,0,0,1,.535-1.914,2.657,2.657,0,0,1,2.085-.638l2.78-.023V5.492A30.537,30.537,0,0,0,25.5,5.286a6.769,6.769,0,0,0-4.956,1.823,6.892,6.892,0,0,0-1.857,5.15v3.9H14.128v5.286h4.557V35H6.563a6.324,6.324,0,0,1-4.637-1.925A6.324,6.324,0,0,1,0,28.438V6.563A6.324,6.324,0,0,1,1.925,1.925,6.324,6.324,0,0,1,6.563,0Z" fill="gray"/>
</svg>
