<?xml version="1.0" encoding="utf-8"?>
<!-- Generator: Adobe Illustrator 19.0.0, SVG Export Plug-In . SVG Version: 6.00 Build 0)  -->
<svg version="1.1" xmlns="http://www.w3.org/2000/svg" xmlns:xlink="http://www.w3.org/1999/xlink" x="0px" y="0px"
	 viewBox="0 0 1600 1200" style="enable-background:new 0 0 1600 1200;" xml:space="preserve">
<style type="text/css">
	.st0{fill:#E8E8E8;}
	.st1{fill:#161616;}
	.st2{fill:#EC615B;}
	.st3{fill:#5222D0;}
	.st4{fill:#FFFFFF;stroke:#161616;stroke-width:2;stroke-miterlimit:10;}
	.st5{opacity:0.15;fill:#6D6C6C;}
	.st6{opacity:0.17;fill:#6D6C6C;}
	.st7{opacity:0.19;fill:#6D6C6C;}
	.st8{fill:#FFFFFF;}
	.st9{opacity:0.2;fill:#6D6C6C;}
	.st10{opacity:0.27;fill:#6D6C6C;}
	.st11{opacity:0.16;fill:#6D6C6C;}
	.st12{opacity:0.22;fill:#6D6C6C;}
	.st13{fill:none;stroke:#FFFFFF;stroke-width:2;stroke-miterlimit:10;}
	.st14{opacity:0.24;fill:#6D6C6C;}
	.st15{opacity:0.3;fill:#32198E;}
	.st16{fill:#161616;stroke:#161616;stroke-width:2;stroke-miterlimit:10;}
	.st17{fill:#B74949;}
	.st18{opacity:0.18;fill:#6D6C6C;}
	.st19{opacity:8.000000e-002;fill:#6D6C6C;}
	.st20{opacity:0.32;fill:#6D6C6C;}
	.st21{opacity:0.12;fill:#6D6C6C;}
	.st22{opacity:0.13;fill:#6D6C6C;}
	.st23{opacity:0.32;fill:#32198E;}
	.st24{opacity:0.33;fill:#32198E;}
</style>
<g id="background">
	<g>
		<g>
			<path class="st0" d="M170.8,1016.2c-13.7-11.2-28-21.9-40.7-34.2c-5.9-5.7-11.4-11.9-15.6-19c-2.2-3.6-4-7.5-5.3-11.5
				c-1.1-3.3-2.2-8.4,2.6-8.9c1.8-0.2,3.7,0.2,5.4,0.7c1.9,0.5,2.7-2.4,0.8-2.9c-5.7-1.4-13.9-1-13,7c1.1,9,7,18.2,12.4,25.1
				c14,18,33.8,31.5,51.3,45.8C170.2,1019.5,172.3,1017.4,170.8,1016.2L170.8,1016.2z"/>
		</g>
	</g>
	<g>
		<g>
			<path class="st0" d="M118.5,940.9c-5.8-6.9-10.3-14.9-12.9-23.6c-1.2-3.9-1.7-7.9-2.9-11.7c-0.8-2.4-2.3-4.6-0.1-6.7
				c1-0.9,2.5-1.5,3.6-2.3c3.4-2.3,5.3-5,1.1-7.9c-2.4-1.6-5.4-1.9-8-3.2c-3.5-1.9-6.2-5-8.2-8.3c-4.2-6.8-6.5-14.8-9-22.3
				c-3-8.9-5.9-18-8.5-27c-5.2-18.2-9.5-36.6-13-55.1c-0.3,0.6-0.7,1.2-1,1.8c18.8-6.2,37.5,9.7,50.9,21
				c13.8,11.6,26.2,24.9,37.1,39.3c22.5,30,38.2,64.6,48,100.7c6,22.1,9.8,44.8,11.9,67.6c0.2,1.9,3.2,1.9,3,0
				c-7.3-78.7-36.3-158.4-98.4-210.3c-14.2-11.8-33.4-27.7-53.2-21.2c-0.8,0.3-1.2,1-1,1.8c3.7,19.8,8.4,39.4,14.1,58.8
				c2.7,9.1,5.5,18.1,8.6,27c2.5,7.2,4.8,14.9,9.2,21.2c1.7,2.4,3.6,4.6,6,6.3c2.9,2.1,6.3,2.3,9.2,4.1c3.8,2.3-1.7,4.1-3.7,5.5
				c-1.5,1.1-2.9,2.4-3.2,4.4c-0.4,3,2.2,6.5,2.9,9.3c1,4.3,1.9,8.5,3.5,12.7c2.9,7.4,7,14.2,12.1,20.3
				C117.6,944.5,119.7,942.4,118.5,940.9L118.5,940.9z"/>
		</g>
	</g>
	<g>
		<g>
			<path class="st0" d="M75.7,788.9c41.8,47.2,74.3,102.3,95.5,161.7c5.9,16.5,10.8,33.3,14.9,50.3c0.5,1.9,3.3,1.1,2.9-0.8
				c-14.8-61.6-41.4-120.3-78.2-172c-10.2-14.4-21.2-28.2-32.9-41.4C76.5,785.4,74.4,787.5,75.7,788.9L75.7,788.9z"/>
		</g>
	</g>
	<g>
		<g>
			<path class="st0" d="M82.5,854.7c4.8,1.2,9.5,2.8,14.1,4.7c1.8,0.7,2.6-2.2,0.8-2.9c-4.6-1.9-9.3-3.5-14.1-4.7
				C81.5,851.3,80.7,854.2,82.5,854.7L82.5,854.7z"/>
		</g>
	</g>
	<g>
		<g>
			<path class="st0" d="M117.7,921.1c6.5-0.2,11.9,3.2,17.2,6.4c4.8,2.9,9.5,5.8,14.1,9c9.5,6.6,18.1,14.4,23.8,24.6
				c0.9,1.7,3.5,0.2,2.6-1.5c-6-10.6-15-18.8-24.9-25.6c-5.2-3.6-10.7-7-16.2-10.2c-5.2-3.1-10.5-5.7-16.7-5.6
				C115.8,918.1,115.8,921.1,117.7,921.1L117.7,921.1z"/>
		</g>
	</g>
	<g>
		<g>
			<path class="st0" d="M157.5,903.1c-2.7-16.2-2.6-32.6,0.3-48.7c0.3-1.9-2.6-2.7-2.9-0.8c-3,16.7-3.1,33.6-0.3,50.3
				C154.9,905.8,157.8,905,157.5,903.1L157.5,903.1z"/>
		</g>
	</g>
	<g>
		<g>
			<path class="st0" d="M152.4,834.6c2.1-19.8,6.3-39.6,13.3-58.2c5.9-15.7,14.7-31.1,29.8-39.5c-0.8-0.4-1.5-0.9-2.3-1.3
				c1.6,27.8,17.9,52.5,18.6,80.4c0.4-0.5,0.7-1,1.1-1.4c-3.8,1-7.6,2-11.4,3c-1.1,0.3-1.5,1.7-0.7,2.5c4.6,4.4,5.5,10.6,5.7,16.7
				c0.1,3.2,1.8,18.7-1.9,19.7c-0.9,0.3-1.4,1.4-0.9,2.2c11.1,17.8,6,38.9,2.9,58.1c-3.2,19.8-3.6,39.8-1.3,59.6
				c0.2,1.9,3.2,1.9,3,0c-2.6-22.3-1.3-44.2,2.5-66.2c3.1-17.8,5.6-36.9-4.4-53.1c-0.3,0.7-0.6,1.5-0.9,2.2c2.7-0.7,3.6-2.8,4-5.4
				c0.7-4.8,0.2-10.1,0.1-14.9c-0.1-7.6-0.9-15.5-6.7-21c-0.2,0.8-0.4,1.7-0.7,2.5c3.8-1,7.6-2,11.4-3c0.6-0.2,1.1-0.8,1.1-1.4
				c-0.7-28-16.9-52.6-18.6-80.4c-0.1-1.1-1.2-1.9-2.3-1.3c-14.9,8.3-23.9,23-30.1,38.5c-7.9,19.7-12.3,40.8-14.5,61.9
				C149.2,836.5,152.2,836.5,152.4,834.6L152.4,834.6z"/>
		</g>
	</g>
	<g>
		<g>
			<path class="st0" d="M188.7,750.6c-10.7,40.5-16.2,82.3-16.3,124.2c0,1.9,3,1.9,3,0c0.1-41.7,5.5-83.1,16.1-123.4
				C192.1,749.5,189.2,748.7,188.7,750.6L188.7,750.6z"/>
		</g>
	</g>
	<g>
		<g>
			<path class="st0" d="M1362.8,690.7c6.4,20.6,11.2,41.6,14.2,63c1.5,10.8,2.6,21.8,3.1,32.7c0.2,2.8,0.3,5.7,0.4,8.5
				c0.1,1.7-0.4,4.5,0.2,6.1c0.6,1.5,2.7,2.5,3.9,3.5c2.1,1.7,4.2,3.4,6.2,5.1c0.1-0.8,0.2-1.6,0.3-2.4c-2.8,1.7-5.5,2.5-8.8,2.6
				c-0.7,0-1.2,0.5-1.4,1.1c-2.9,9-0.8,18.5,5.7,25.5c0.4-0.9,0.7-1.7,1.1-2.6c-10.4-0.4-10.6,11.6-9.6,19
				c1.4,10.3,3.4,20.6,6.3,30.6c5.8,19.6,15.5,38.2,31.4,51.6c1.5,1.2,3.6-0.9,2.1-2.1c-13.4-11.3-22.4-26.5-28.2-43
				c-2.7-7.8-4.8-15.8-6.4-23.8c-1.3-6.7-7.8-29.7,4.4-29.3c1.4,0.1,1.9-1.6,1.1-2.6c-5.7-6.2-7.5-14.6-4.9-22.5
				c-0.5,0.4-1,0.7-1.4,1.1c3.8,0,7-0.9,10.3-3c0.7-0.5,1.1-1.7,0.3-2.4c-3.7-3-8.8-5.6-9.4-10.6c-0.6-5.3-0.4-10.8-0.8-16.1
				c-0.7-9.9-1.7-19.8-3.2-29.7c-3-20.7-7.7-41.1-13.9-61.1C1365.1,688,1362.2,688.8,1362.8,690.7L1362.8,690.7z"/>
		</g>
	</g>
	<g>
		<g>
			<path class="st0" d="M1367.7,695.2c-4.1-5.4,3.6-9.4,8.1-8.3c4.5,1.2,8.2,4.8,11.3,8c5.7,5.8,10.2,12.6,14.1,19.7
				c8.1,14.6,14.9,30.2,20.9,45.7c12.3,31.9,20.8,65.3,25.3,99.1c2.5,19.2,3.8,38.5,3.8,57.8c0,1.9,3,1.9,3,0
				c0-40.2-5.5-80.3-16.3-118.9c-5.3-18.8-11.8-37.2-19.5-55.2c-7.1-16.6-14.7-34.4-26.9-48c-4.9-5.5-13.2-14-21.4-11.1
				c-5,1.7-8.3,8.1-4.9,12.7C1366.3,698.2,1368.9,696.8,1367.7,695.2L1367.7,695.2z"/>
		</g>
	</g>
	<g>
		<g>
			<path class="st0" d="M1439.7,805.1c5.1-17.1,11-33.8,17.7-50.3c3.5-8.5,7.2-17,11.2-25.3c1.9-3.9,3.8-7.9,5.8-11.8
				c1.3-2.5,5.2-13.5,9.3-12.5c1.2,0.3,2-0.7,1.8-1.8c-1-6.2,6-11.5,9.7-15.6c3.3-3.6,6.5-7.2,9.8-10.8c6.8-7.4,13.5-14.8,20.3-22.3
				c-0.8-0.2-1.7-0.4-2.5-0.7c10.3,25.5,7.6,53.4,1.6,79.6c-3.1,13.4-7,26.7-10.3,40.1c-2.3,9.3-4.8,23.4-16.2,25.4
				c-0.8,0.1-1.2,1.1-1,1.8c2.9,11.9-5.1,22.9-10.4,32.9c-5,9.4-9.6,19.1-13.8,29c-8.2,19.3-14.7,39.2-19.6,59.5
				c-0.5,1.9,2.4,2.7,2.9,0.8c5.4-22.5,12.8-44.4,22.3-65.5c4.5-10,9.5-19.8,14.8-29.4c4.8-8.7,9.2-17.9,6.8-28
				c-0.3,0.6-0.7,1.2-1,1.8c9.7-1.7,13.9-11.5,16.4-20.1c4.1-14.4,7.8-29.2,11.3-43.8c6.7-27.8,10.3-57.7-0.7-84.9
				c-0.4-1-1.7-1.6-2.5-0.7c-8.5,9.3-17,18.7-25.5,28c-4,4.4-8.3,8.6-12,13.3c-2.4,3.2-3.7,6.2-3.1,10.2c0.6-0.6,1.2-1.2,1.8-1.8
				c-7.2-1.8-10.7,10-13.1,14.7c-4.8,9.5-9.3,19.1-13.4,28.8c-8.2,19-15.2,38.6-21.1,58.4C1436.2,806.1,1439.1,806.9,1439.7,805.1
				L1439.7,805.1z"/>
		</g>
	</g>
	<g>
		<g>
			<path class="st0" d="M1517.9,680.6c-31.2,58.2-63,118.2-70.5,184.7c-0.2,1.9,2.8,1.9,3,0c7.5-66,39.2-125.6,70.1-183.2
				C1521.5,680.4,1518.9,678.9,1517.9,680.6L1517.9,680.6z"/>
		</g>
	</g>
	<g>
		<g>
			<path class="st0" d="M1387.8,720.6c24.3,64.3,38.8,132.1,43.1,200.7c0.1,1.9,3.1,1.9,3,0c-4.3-68.9-18.8-136.9-43.2-201.5
				C1390,718.1,1387.1,718.8,1387.8,720.6L1387.8,720.6z"/>
		</g>
	</g>
	<g>
		<g>
			<path class="st0" d="M124.2,688.4c61-10.9,124-10.3,184.8,1.8c30.1,6,59.6,14.7,88,26.1c29.7,11.9,58.2,26.2,87.3,39.4
				c109.8,49.8,227.3,82.4,347,96.6c67.9,8.1,136.5,10.2,204.7,6.4c1.9-0.1,1.9-3.1,0-3c-122.4,6.9-245.7-5.6-364.3-36.7
				c-59.5-15.6-117.8-35.9-174.1-60.6c-29.2-12.8-57.7-27.2-87-39.7c-28-11.9-56.9-21.5-86.5-28.3c-65.7-15-134.3-16.7-200.7-4.8
				C121.5,685.8,122.3,688.7,124.2,688.4L124.2,688.4z"/>
		</g>
	</g>
	<g>
		<g>
			<path class="st0" d="M668.2,816.8c56.9,2.9,111.8-17.6,165.3-34c56-17.1,112.2-33.7,168.5-49.9c56-16.1,112-33,168.9-45.9
				c56.7-12.8,114.5-18.9,172.6-20.6c64.7-2,129.4,0.9,194,3.9c1.9,0.1,1.9-2.9,0-3c-114.1-5.2-229.7-10.3-342.5,11.6
				c-57.2,11.1-113.2,28.1-169.2,44c-56.3,16.1-112.5,32.6-168.6,49.5c-31.1,9.4-62.1,19.6-93.4,28.2c-31.2,8.6-63.2,14.8-95.7,13.2
				C666.3,813.7,666.3,816.7,668.2,816.8L668.2,816.8z"/>
		</g>
	</g>
	<g>
		<g>
			<path class="st0" d="M425.4,714.2c39.5,11.4,80.5,3.5,119.9-4.1c42.2-8.1,84.8-13.6,127.8-15.3c85.2-3.2,169.9,9,254.8,12.4
				c47,1.9,94.2,0.8,140.6-6.9c1.9-0.3,1.1-3.2-0.8-2.9c-83.5,13.9-168.3,5.6-252.1-0.7c-41.9-3.2-83.9-5.9-126-5.2
				c-41.7,0.7-83.4,4.7-124.6,12c-45.6,8-93,21.2-138.9,7.9C424.3,710.8,423.5,713.7,425.4,714.2L425.4,714.2z"/>
		</g>
	</g>
	<g>
		<g>
			<path class="st0" d="M602.4,906.9c12.8-5.3,26.6-8,40.5-7.6c12.9,0.4,24.5,4.6,37,7.2c9.3,2,18.6,2,26.1-4.6
				c2.9-2.5,5.4-5.1,9.6-3.8c3.1,0.9,5.7,3,8.6,4.3c3.4,1.6,6.9,2.2,10.5,1.5c8.6-1.7,15.1-8.8,22.6-12.9
				c12.7-6.8,24.9,2.3,37.3,5.6c25.8,6.9,53.4,4.8,79.8,4.5c32.5-0.3,65.1-0.1,97.4-4.1c1.9-0.2,1.9-3.2,0-3
				c-29,3.5-58.3,3.7-87.5,4c-27.8,0.3-57.2,2.9-84.6-3.3c-6.4-1.4-12.4-3.5-18.5-6c-5.3-2.2-10.8-4.3-16.6-3.5
				c-9.1,1.2-15.9,8.4-23.6,12.8c-4,2.3-8.4,3.9-13,2.6c-5-1.5-9.1-5.9-14.6-6.1c-5.2-0.1-7.7,4.1-11.5,6.8
				c-5.3,3.7-12,3.8-18.2,2.8c-13.2-2.1-25.5-7.2-39-7.8c-14.7-0.7-29.4,2-43.1,7.7C599.8,904.7,600.6,907.6,602.4,906.9
				L602.4,906.9z"/>
		</g>
	</g>
	<g>
		<g>
			<path class="st0" d="M666.2,817.7c1.8,0.3,3.5,0.7,5.3,1c1.9,0.4,2.6-2.2,0.8-2.9c-1.1-0.4-2.2-0.8-3.4-1.2
				c-1.6-0.6-2.7,2-1.2,2.7c9.2,4.8,18.8,8.6,28.8,11.3c1.9,0.5,2.7-2.4,0.8-2.9c-9.8-2.6-19.1-6.3-28.1-11
				c-0.4,0.9-0.8,1.8-1.2,2.7c1.1,0.4,2.2,0.8,3.4,1.2c0.3-1,0.5-1.9,0.8-2.9c-1.8-0.3-3.5-0.7-5.3-1
				C665.1,814.4,664.3,817.3,666.2,817.7L666.2,817.7z"/>
		</g>
	</g>
	<g>
		<g>
			<path class="st0" d="M531.8,956.3c-2.2-2.6-4.2-5.3-5.9-8.3c-0.8-1.5-1.8-3.1-2.3-4.8c-0.7-1.1-0.8-2.4-0.4-3.7
				c-0.3-1.4,0.1-2.5,1.1-3.3c1.5-4.1-0.3-8.4-1.3-12.6c-1.5-6.6-3-13.2-4.5-19.8c-0.8-3.5-1.6-6.9-2.3-10.4
				c-0.4-1.6-0.7-3.1-1.1-4.7c-0.6-2.8-1.2-4.1,0.9-6.4c1-2.1,2.5-2.5,4.5-0.9c0.9,0.9,1.8,1.8,2.7,2.7c1,1.3,1.7,2.8,2.5,4.2
				c1.4,2.6,2.8,5.2,4.1,7.8c3.1,6.2,5.8,12.6,8.1,19.1c4.4,12.2,7.4,24.8,9.2,37.7c0.5-0.6,1-1.3,1.4-1.9c0.2,0.2,0.3,0.5,0.5,0.7
				c0.5-1.9-2.4-2.7-2.9-0.8c-0.4,1.8,0.5,3.1,2.4,3.1c1.1,0,1.6-0.9,1.4-1.9c-2.3-16.5-6.6-32.6-13.2-47.9
				c-3.1-7.2-6.4-15.2-11-21.6c-2.5-3.5-7-6.7-11.3-4.2c-4.9,2.8-2.6,9.7-1.6,14c2,8.8,4,17.6,5.9,26.4c0.9,4.2,2.8,8.9,3,13.2
				c0.1,3.5-2.8,5.1-2.3,8.6c1,6.5,5.9,13.1,10,17.9C530.9,959.8,533,957.7,531.8,956.3L531.8,956.3z"/>
		</g>
	</g>
	<g>
		<g>
			<path class="st0" d="M541,913.3c-1.5-9-1.3-18.2,0.8-27.1c0.5-2.3,1.2-4.5,2-6.7c1.4-3.8,3.4-3.4,5.4-0.6c2.6,3.7,4.6,7.8,6.1,12
				c6.1,17.4,3.4,36.1,0.8,53.8c-0.3,1.9,2.6,2.7,2.9,0.8c3.3-22.3,6.7-47.6-6.8-67.5c-1.5-2.2-3.5-5.9-6.6-5.4
				c-3.3,0.6-4.4,5.1-5.3,7.7c-3.6,10.9-4.2,22.5-2.3,33.7C538.5,916,541.4,915.2,541,913.3L541,913.3z"/>
		</g>
	</g>
	<g>
		<g>
			<path class="st0" d="M546.4,890.3c3,15.6,4.1,31.3,3.6,47.1c-0.1,1.9,2.9,1.9,3,0c0.6-16.1-0.7-32.1-3.7-47.9
				C548.9,887.6,546.1,888.4,546.4,890.3L546.4,890.3z"/>
		</g>
	</g>
	<g>
		<g>
			<path class="st0" d="M178.6,677.1c-2.9-6.4-9.4-10.9-13.5-16.5c-4.5-6.2-8.3-12.9-12-19.5c-0.3,0.7-0.6,1.5-0.9,2.2
				c20.1-3.6,31.7,16.2,35.6,32.9c0.4,1.9,3.3,1.1,2.9-0.8c-4.3-18.5-17.5-38.8-39.3-35c-1,0.2-1.3,1.4-0.9,2.2
				c3.7,6.7,7.4,13.4,12,19.5c4.1,5.6,10.7,10.3,13.5,16.5C176.8,680.4,179.4,678.9,178.6,677.1L178.6,677.1z"/>
		</g>
	</g>
	<g>
		<g>
			<path class="st0" d="M187.3,661c1.5-15.7,16.5-25.5,22.3-39.4c-0.7,0.3-1.5,0.6-2.2,0.9c6.7,4.3,1.7,19.9-0.2,25.9
				c-2.8,8.8-7.4,16.8-13.3,23.8c-1.2,1.5,0.9,3.6,2.1,2.1c7.4-8.7,12.7-18.8,15.4-29.9c1.7-7,4.9-19.7-2.5-24.5
				c-0.9-0.6-1.9,0.1-2.2,0.9c-6,14.4-20.8,23.8-22.4,40.2C184.1,662.9,187.1,662.9,187.3,661L187.3,661z"/>
		</g>
	</g>
	<g>
		<g>
			<path class="st0" d="M1075.3,706.4c-0.9-2.3-1.8-4.6-2.7-6.9c-0.5-1.1-0.9-2.3-1.4-3.4c-0.6-0.8-0.6-1.7-0.1-2.6
				c0.9,0.8,2.7,0.3,2.6-1.1c-0.5-5-1-10.1-1.5-15.1c-0.1-1.2-1.3-5.9-0.6-6.8c3.1-4.3,5.2,2.8,5.5,3.9c2.7,9.2,2.6,19.8,2.5,29.3
				c0,1.9,3,1.9,3,0c0.1-7.8-0.3-15.5-1.4-23.2c-0.7-4.9-1.5-12-6.3-14.9c-3.1-1.9-5.7,0.1-6.3,3.4c-0.6,3.2,0.4,7,0.7,10.1
				c0.4,4.4,0.9,8.8,1.3,13.2c0.9-0.4,1.7-0.7,2.6-1.1c-1.7-1.6-4.3-1.3-5.3,0.9c-0.7,1.5-0.1,3.1,0.4,4.6c1.2,3.5,2.8,6.9,4.1,10.4
				C1073.1,709,1076,708.2,1075.3,706.4L1075.3,706.4z"/>
		</g>
	</g>
	<g>
		<g>
			<path class="st0" d="M1082,690.1c-0.4-14,2.5-27.7,8.6-40.4c-0.8,0.1-1.6,0.2-2.4,0.3c6.5,5.4,2.2,20,1.1,27
				c-1.5,9.4-3.4,18.8-5.8,28c-0.5,1.9,2.4,2.7,2.9,0.8c2.9-11.2,5.1-22.6,6.7-34.1c1-7.4,3.9-18.3-2.8-23.9
				c-0.7-0.6-1.9-0.6-2.4,0.3c-6.3,13.1-9.4,27.3-9,41.9C1079.1,692,1082.1,692,1082,690.1L1082,690.1z"/>
		</g>
	</g>
	<g>
		<g>
			<path class="st0" d="M557.2,996.2c6.3-6.4,16.1,2.2,23.4,1.8c3.5-0.2,6.7-1.5,9.9-2.6c4.3-1.4,8.4-1.9,12.9-1.5
				c17.8,1.5,35.1,2.8,53,1.6c1.9-0.1,1.9-3.1,0-3c-9.7,0.6-19.3,0.8-29,0.4c-9.8-0.4-20-2.8-29.7-2.1c-3.9,0.3-7.5,1.6-11.2,2.8
				c-5.4,1.7-9.5,1.4-14.7-0.5c-5.7-2.1-12.1-3.8-16.8,1C553.7,995.5,555.8,997.6,557.2,996.2L557.2,996.2z"/>
		</g>
	</g>
	<g>
		<g>
			<path class="st0" d="M368.3,1020.5c7-7.6,19.3-8.1,26.7-0.9c0.1-0.8,0.2-1.6,0.3-2.4c-5.2,2.5-10.5,3.6-16.2,3.3
				c-1.9-0.1-1.9,2.9,0,3c6.3,0.3,12.1-0.9,17.8-3.7c0.9-0.4,1-1.7,0.3-2.4c-8.6-8.3-22.9-7.9-31,0.9
				C364.9,1019.8,367,1021.9,368.3,1020.5L368.3,1020.5z"/>
		</g>
	</g>
	<g>
		<g>
			<path class="st0" d="M89.6,1047.5c-5.1-0.4-10.2,1.1-14.1,4.6c-2.4,2.2-5.8,6.3-2.7,9.2c3.5,3.2,11.9,1.1,16,0.7
				c7.5-0.8,14.8-2.2,22.1-4.1c1.9-0.5,1.1-3.4-0.8-2.9c-8.8,2.3-17.7,3.8-26.8,4.4c-1.8,0.1-3.7,0.3-5.5,0.3
				c-4.5-0.2-2.4-3.6-0.2-5.5c3.3-3,7.6-4.1,12-3.7C91.6,1050.6,91.5,1047.6,89.6,1047.5L89.6,1047.5z"/>
		</g>
	</g>
	<g>
		<g>
			<path class="st0" d="M232.5,965c0.2-0.8,0.8-1.3,1.6-1.3c0.7-0.1,1.4-0.2,2-0.3c1.6-0.2,3.1-0.1,4.7,0.1c3.1,0.4,5.9,1.5,8.6,3.2
				c0.1-0.9,0.2-1.8,0.4-2.7c-3.7,1.3-7.4,1.6-11.3,1c-1.9-0.3-2.7,2.6-0.8,2.9c4.4,0.7,8.6,0.4,12.9-1c1.2-0.4,1.5-2,0.4-2.7
				c-5.2-3.3-12-4.9-18.1-3.2c-3.3,0.9-5.9,6-1.2,7C233.6,968.3,234.4,965.4,232.5,965L232.5,965z"/>
		</g>
	</g>
	<g>
		<g>
			<path class="st0" d="M315.3,277.3c-23.8-8.4-40.8-31.5-43.4-56.5c-2.7-25.8,11.8-50.4,33.6-63.6c23.5-14.2,56.9-14.3,76.2,7.2
				c9.9,10.9,16,25.8,19.6,39.9c3.7,14.5,4.3,30.6-4,43.7c-8.4,13.1-23.4,20.4-37.5,25.9c-14.9,5.9-32.8,10.5-47.4,1.3
				c-1.6-1-3.1,1.6-1.5,2.6c13.1,8.2,28.9,6.1,42.9,1.5c13.7-4.5,28.2-10.8,38.8-21c23.7-22.7,14-60.2-0.8-85.1
				c-7.8-13.2-19.5-22.9-34.4-26.9c-14.2-3.8-29.4-2.5-42.9,3c-24.8,10.2-44.2,34-45.8,61.2c-1.8,30,17.5,59.7,45.8,69.7
				C316.3,280.9,317.1,278,315.3,277.3L315.3,277.3z"/>
		</g>
	</g>
	<g>
		<g>
			<path class="st0" d="M1067.2,857.8c68.2-4.3,136-13.5,202.8-27.6c19.3-4.1,38.5-8.6,57.6-13.5c1.9-0.5,1.1-3.4-0.8-2.9
				c-66.2,16.9-133.6,29.1-201.6,36.2c-19.3,2-38.6,3.6-57.9,4.8C1065.3,854.9,1065.3,857.9,1067.2,857.8L1067.2,857.8z"/>
		</g>
	</g>
	<g>
		<g>
			<path class="st0" d="M910.9,930c8.8,1.5,17.8,1.4,26.5-0.7c5.4-1.3,9.3-3.4,14.9-1.6c3.5,1.1,6.8,1.5,10.4,0.8
				c4-0.8,7.7-2.8,11.1-5c3.7-2.5,7.4-6,11.9-6.9c5.2-1,9.9,3.1,14.9,4.2c3.6,0.8,7.3,0.7,10.9,0.1c1.9-0.3,1.1-3.2-0.8-2.9
				c-6.3,1.1-11.2-0.5-16.9-3c-2.4-1.1-4.7-1.7-7.4-1.5c-8.1,0.9-13.7,8.5-21.2,11.2c-4.8,1.7-8.7,1.1-13.4-0.4
				c-3.6-1.1-6.2-0.5-9.7,0.6c-9.9,3.1-20,4-30.2,2.3C909.9,926.8,909,929.7,910.9,930L910.9,930z"/>
		</g>
	</g>
	<g>
		<g>
			<path class="st1" d="M415.4,1060.1c77.7,0,155.4,0,233.1,0c3.9,0,3.9-6,0-6c-77.7,0-155.4,0-233.1,0
				C411.5,1054.1,411.5,1060.1,415.4,1060.1L415.4,1060.1z"/>
		</g>
	</g>
	<g>
		<g>
			<path class="st1" d="M665.2,1058.3c9.1,0,18.2,0,27.3,0c3.9,0,3.9-6,0-6c-9.1,0-18.2,0-27.3,0
				C661.3,1052.3,661.3,1058.3,665.2,1058.3L665.2,1058.3z"/>
		</g>
	</g>
	<g>
		<g>
			<path class="st1" d="M712.7,1057.4c2.9,0,5.9,0,8.8,0c3.9,0,3.9-6,0-6c-2.9,0-5.9,0-8.8,0
				C708.8,1051.4,708.8,1057.4,712.7,1057.4L712.7,1057.4z"/>
		</g>
	</g>
	<g>
		<g>
			<path class="st1" d="M164.7,1082.1c57.5,0,114.9,0,172.4,0c3.9,0,3.9-6,0-6c-57.5,0-114.9,0-172.4,0
				C160.9,1076.1,160.9,1082.1,164.7,1082.1L164.7,1082.1z"/>
		</g>
	</g>
	<g>
		<g>
			<path class="st1" d="M353.8,1082.1c15,0,29.9,0,44.9,0c3.9,0,3.9-6,0-6c-15,0-29.9,0-44.9,0C350,1076.1,350,1082.1,353.8,1082.1
				L353.8,1082.1z"/>
		</g>
	</g>
	<g>
		<g>
			<path class="st1" d="M424.2,1080.3c0.9,0,1.8,0,2.6,0c1.6,0,3.1-1.4,3-3c-0.1-1.6-1.3-3-3-3c-0.9,0-1.8,0-2.6,0
				c-1.6,0-3.1,1.4-3,3C421.3,1078.9,422.5,1080.3,424.2,1080.3L424.2,1080.3z"/>
		</g>
	</g>
	<g>
		<g>
			<path class="st1" d="M133.1,1082.9c2.1,0,4.1,0,6.2,0c3.9,0,3.9-6,0-6c-2.1,0-4.1,0-6.2,0
				C129.2,1076.9,129.2,1082.9,133.1,1082.9L133.1,1082.9z"/>
		</g>
	</g>
	<g>
		<g>
			<path class="st1" d="M925.5,973c80.6,0,161.2,0,241.9,0c3.9,0,3.9-6,0-6c-80.6,0-161.2,0-241.9,0C921.6,967,921.6,973,925.5,973
				L925.5,973z"/>
		</g>
	</g>
	<g>
		<g>
			<path class="st1" d="M1199,969.5c73,0,146,0,219,0c3.9,0,3.9-6,0-6c-73,0-146,0-219,0C1195.2,963.5,1195.2,969.5,1199,969.5
				L1199,969.5z"/>
		</g>
	</g>
	<g>
		<g>
			<path class="st1" d="M1437.4,967.7c5.9,0,11.7,0,17.6,0c3.9,0,3.9-6,0-6c-5.9,0-11.7,0-17.6,0
				C1433.5,961.7,1433.5,967.7,1437.4,967.7L1437.4,967.7z"/>
		</g>
	</g>
	<g>
		<g>
			<path class="st1" d="M1360,934.3c16.7,0,33.4,0,50.1,0c3.9,0,3.9-6,0-6c-16.7,0-33.4,0-50.1,0
				C1356.1,928.3,1356.1,934.3,1360,934.3L1360,934.3z"/>
		</g>
	</g>
	<g>
		<g>
			<path class="st1" d="M1426.8,933.4c4.1,0,8.2,0,12.3,0c3.9,0,3.9-6,0-6c-4.1,0-8.2,0-12.3,0C1423,927.4,1423,933.4,1426.8,933.4
				L1426.8,933.4z"/>
		</g>
	</g>
	<g>
		<g>
			<path class="st1" d="M877.1,990.6c21.4,0,42.8,0,64.2,0c3.9,0,3.9-6,0-6c-21.4,0-42.8,0-64.2,0
				C873.3,984.6,873.3,990.6,877.1,990.6L877.1,990.6z"/>
		</g>
	</g>
	<g>
		<g>
			<path class="st1" d="M964.2,989.7c9.1,0,18.2,0,27.3,0c3.9,0,3.9-6,0-6c-9.1,0-18.2,0-27.3,0
				C960.3,983.7,960.3,989.7,964.2,989.7L964.2,989.7z"/>
		</g>
	</g>
	<g>
		<g>
			<path class="st1" d="M1003.8,1004.7c6.2,0,12.3,0,18.5,0c3.9,0,3.9-6,0-6c-6.2,0-12.3,0-18.5,0
				C999.9,998.7,999.9,1004.7,1003.8,1004.7L1003.8,1004.7z"/>
		</g>
	</g>
	<g>
		<g>
			<path class="st1" d="M577.9,503.3c-3.6-4.5,10-7.3,12.2-8.2c4.3-1.9,7-5.4,8-10c1-4.7,0-9.7,1.4-14.3c2.1-6.8,9.9-6.4,15.7-6.1
				c3.9,0.2,3.8-5.8,0-6c-6.6-0.4-14.2-0.2-18.8,5.2c-4.1,4.8-3.3,11.3-3.8,17.2c-0.4,5.3-2.4,7.9-7.6,9.4c-3,0.9-6,1.4-8.5,3.3
				c-4.6,3.3-6.5,9.1-2.8,13.7C576,510.6,580.3,506.3,577.9,503.3L577.9,503.3z"/>
		</g>
	</g>
	<g>
		<g>
			<path class="st1" d="M599.2,508.3c-2.7-3.2,3.5-6.4,5.5-7.6c2.7-1.6,5-3.1,7-5.5c4.1-4.9,6.8-14.2,14.2-14.6c3.8-0.2,3.9-6.2,0-6
				c-12.3,0.6-13.3,13.4-21.7,19.4c-3.6,2.5-7.9,3.9-10.2,7.9c-2.1,3.6-1.7,7.5,0.9,10.6C597.4,515.5,601.7,511.2,599.2,508.3
				L599.2,508.3z"/>
		</g>
	</g>
	<g>
		<g>
			<path class="st1" d="M1067.8,184.6c-0.4,6.4-5.4,14.1,0.6,19.5c5.2,4.6,11.7,1.2,17.6,1.6c6.5,0.5,3.7,6.5,2.9,10.9
				c-0.6,3.3-0.9,6.9,0.6,10.1c2.4,5,8.9,8.2,13.7,4.6c3-2.3,0-7.5-3-5.2c-4.9,3.7-5.9-5.2-5.4-7.9c0.5-2.9,1.5-5.8,1.6-8.8
				c0.1-4.2-2.1-7.5-6-8.9c-4.8-1.7-9.1,0.2-13.9,0.1c-8.7-0.2-2.9-10.8-2.6-16C1074.1,180.7,1068.1,180.7,1067.8,184.6
				L1067.8,184.6z"/>
		</g>
	</g>
	<g>
		<g>
			<path class="st1" d="M1102.2,191.5c-2.5,5.4-4.9,11.8-0.9,17.2c1.5,2,3.5,3.2,5.9,3.6c1.6,0.2,3.7-0.5,5.1,0.1
				c2.3,0.9,3.6,3.6,2.5,6c-1.7,3.5,3.5,6.5,5.2,3c2.1-4.5,1.3-9.7-2.7-13c-2.2-1.8-4.2-1.8-6.9-2.1c-7.3-0.7-5.3-6.8-3-11.7
				C1109,191.1,1103.8,188,1102.2,191.5L1102.2,191.5z"/>
		</g>
	</g>
	<g>
		<g>
			<path class="st1" d="M1420.9,398.9c-2.2-5.7,3.1-13.9,9.8-11.8c5.1,1.7,7.4,9.3,4,13.5c-2.4,3,1.8,7.2,4.2,4.2
				c6.2-7.5,3.1-20.6-6.6-23.5c-10.7-3.2-21,9-17.1,19.1C1416.5,404.1,1422.3,402.5,1420.9,398.9L1420.9,398.9z"/>
		</g>
	</g>
	<g>
		<g>
			<path class="st1" d="M253.5,636.3c-0.6-7.1,8.4-11.1,12.2-4.4c3.2,5.8-3.1,10.9-8.6,9c-3.6-1.3-5.2,4.5-1.6,5.8
				c11.1,4,21.6-8.6,14.9-18.6c-7.2-10.7-23.9-4.4-22.8,8.2C247.8,640.1,253.8,640.2,253.5,636.3L253.5,636.3z"/>
		</g>
	</g>
	<g>
		<g>
			<path class="st2" d="M288.3,356c-2.3,3.8-2.5,8.7,0.5,12.2c1.5,1.7,3.6,2.8,5.8,3.2c3.1,0.5,5.4-1.2,8.1,0.1
				c2.7,1.4,2.1,3.1,2.4,5.9c0.1,1.7,0.2,3.3,0.4,5c0.2,1.8,0.4,3.6,1.7,5c1.2,1.3,2.7,1.8,4.4,2.1c1.2,0.2,2.4,0.1,3.7,0.1
				c1,0,2.1,0,3.1,0.2c1.9,0.5,2.7,1.8,2.5,3.7c-1.5,1.1-0.1,3.7,1.5,2.6c3-2.2,2-5.6-0.6-7.8c-1.2-1-2.5-1.5-4.1-1.7
				c-5.2-0.7-8.2,1.3-9.4-6c-0.6-3.6,0.7-11.1-3-13.5c-1.7-1.1-3.2-0.6-4.9,0.1c-2.7,1.1-4.9,2-7.7,0.3c-3.8-2.3-3.9-6.8-1.8-10.2
				C291.9,355.9,289.3,354.4,288.3,356L288.3,356z"/>
		</g>
	</g>
	<g>
		<g>
			<path class="st2" d="M328.7,367.9c-2,3.5-4.4,8.8-1.3,12.4c2,2.4,5.4,2.1,8,3.6c4.1,2.3,6,7.1,5.2,11.6c-0.3,1.9,2.6,2.7,2.9,0.8
				c0.8-4.5-0.2-8.9-3.3-12.3c-1.3-1.5-3-2.6-4.8-3.4c-2.1-0.9-5.7-2-6.4-4.6c-0.5-1.9,1.5-5.1,2.3-6.6
				C332.2,367.7,329.6,366.2,328.7,367.9L328.7,367.9z"/>
		</g>
	</g>
	<g>
		<g>
			<path class="st2" d="M891.6,683.7c-3.4-7,3-15.2,10.6-12.5c7.9,2.8,7.6,13.6,0.1,16.6c-1.8,0.7-1,3.6,0.8,2.9
				c9.7-3.9,11-17.8,0.9-22c-10.4-4.4-19.6,6.9-14.9,16.6C889.9,687,892.5,685.4,891.6,683.7L891.6,683.7z"/>
		</g>
	</g>
	<g>
		<g>
			<path class="st2" d="M523.3,660c-6.4-1.3,3.9-8.2,5-8.9c1.6-1.1,3.1-2.3,3.9-4.2c2.7-6.1-2.2-18.3,8.6-18.9c1.9-0.1,1.9-3.1,0-3
				c-4.2,0.2-7.3,2.5-9.2,6.1c-3.1,5.8,0.6,13.7-5.4,17.7c-3.4,2.3-7,3.8-7.4,8.3c-0.2,2.7,0.9,5.1,3.7,5.7
				C524.4,663.3,525.2,660.4,523.3,660L523.3,660z"/>
		</g>
	</g>
	<g>
		<g>
			<path class="st2" d="M542.5,651.3c-2.8-3.9-1.2-9.4,3.5-10.9c3.2-1,5.6-0.5,7.4-3.8c1.8-3.4,1.5-7.4,3.5-10.9
				c2.5-4.5,6.7-7.6,11.5-9.1c1.8-0.6,1.1-3.5-0.8-2.9c-4.5,1.4-8.4,3.9-11.3,7.6c-1.5,1.9-2.8,4.1-3.6,6.5
				c-1.1,3.2-0.6,7.5-4.2,9.2c-2.2,1.1-4.4,0.5-6.5,2.1c-1.4,1-2.4,2.5-3,4c-1.4,3.3-1.1,6.8,1,9.7
				C541,654.4,543.6,652.9,542.5,651.3L542.5,651.3z"/>
		</g>
	</g>
	<g>
		<g>
			<path class="st3" d="M440.8,191.4c-1.8-3.6,5.9-2.3,6.2-2.2c1.1,0.4,2.2,1.3,3.2,1.9c1.6,0.9,3.4,1.8,5.3,1.9
				c2.5,0.1,4.6-1,6.2-2.8c4.6-5.6,2.9-20.1,13.7-15.8c3.2,1.3,6.8,3.2,10.3,1.6c2.8-1.3,3.4-4.1,3-6.9c-0.2-1.4-1.8-4.2-1.4-5.6
				c0.8-2.7,3.3-2.9,5.2-2c0.9,0.4,1.7,1,2.7,1.3c3,1.1,5.9,0.9,7.7-1.9c1-1.6-1.6-3.1-2.6-1.5c-2,3.2-10-3.4-13.6-1.4
				c-2.9,1.5-2.8,4.5-2.1,7.3c0.8,3.3,2.8,8.1-3.3,8c-2.7,0-5.2-2.3-7.8-2.8c-3.1-0.6-5.9,0.2-7.9,2.6c-5,5.9-3.1,21.3-14.7,15
				c-3.4-1.8-6.2-3.6-10-1.9c-2.9,1.3-4.3,3.8-2.8,6.7C439.1,194.6,441.6,193.1,440.8,191.4L440.8,191.4z"/>
		</g>
	</g>
	<g>
		<g>
			<path class="st0" d="M559.9,273c-4.5-1.1-5.1-6.9-2.9-10.3c3.1-4.8,10.4-4.5,15.3-3.6c8.2,1.5,15.8,4.7,24.1,1.6
				c8-3,14-9.5,23-9.7c9.4-0.2,18.3,3.9,27.8,3.6c16.6-0.5,31.7-8.7,47.6-12.5c9.4-2.3,18.6-2.5,28-0.1c9,2.3,17.4,6,26.4,8.2
				c9.4,2.4,18.7,2,28.2,1.2c10.4-0.8,21.1-1.6,30.5,3.8c-0.2-0.6-0.5-1.1-0.7-1.7c-5,14.7-21.2,20.7-35.5,21.5
				c-17.9,1-35.3-5.5-53.3-4.8c-18.2,0.7-33.6,11.8-51.5,13.5c-18.3,1.8-35.6-6.9-53.8-6.4c-18.5,0.5-42.6,10.6-57.2-5.9
				c-1.3-1.4-3.4,0.7-2.1,2.1c11.5,12.9,29.7,10.6,45,8.3c11.3-1.7,21.6-1.8,32.9,0.4c9.6,1.9,19.2,4.5,29,4.7
				c19.8,0.5,36.5-12.3,56-13.6c19.7-1.3,38.8,6.6,58.5,4.4c14.7-1.6,30-8.5,35-23.5c0.2-0.6-0.1-1.4-0.7-1.7
				c-17.6-10.3-38.8-0.6-57.7-4.9c-10.4-2.4-20.1-7-30.6-9.2c-9.1-2-18.1-1.5-27.1,0.7c-9.6,2.3-18.7,6.1-28.1,9
				c-10.8,3.3-21.1,4.3-32.3,2c-8.9-1.9-17.1-3.4-25.5,0.8c-3.9,2-7.5,4.7-11.5,6.5c-6.8,3-13.3,1.2-20.2-0.5
				c-7.3-1.7-18.3-2.9-22.4,5.2c-2.6,5.1-0.8,12.4,5.2,13.8C561,276.3,561.8,273.4,559.9,273L559.9,273z"/>
		</g>
	</g>
	<g>
		<g>
			<path class="st0" d="M143.5,427.1c13.6-1.8,26.5,5.2,40,3.5c5.5-0.7,10.6-3.1,15.7-5.2c2.4-1,4.9-1.9,7.5-2.5
				c4.9-1.1,9.3,0.2,14.1,1.2c13.4,2.9,28.4-0.3,41.8-2.2c6.6-0.9,13.1-1.9,19.7-3c7.5-1.3,15-3.3,22.5-4.1
				c7.9-0.8,17.2,2.7,14,12.4c-2.7,8.3-12.8,10.7-20.4,11.3c-13.2,1-26.3-2.8-39.5-0.3c-12.3,2.3-23.3,8.7-35.2,12.2
				c-6.6,2-13.2,2.8-20,1.9c-6.8-1-13.2-2.7-20.2-2.2c-14.2,0.9-29.3,9.2-43.5,5.9c-8.7-2-13.2-10-9-18.3c4.1-8,13.5-10.1,21.7-10.1
				c1.9,0,1.9-3,0-3c-11.5,0-25.1,5-26.3,18.2c-1.1,12.2,10.9,17.2,21.2,16.8c7.5-0.3,14.9-2.5,22.2-4.2c9.5-2.2,18.2-3,27.8-1.2
				c7.1,1.3,13.7,2,20.9,0.6c7.4-1.4,14.4-4.4,21.3-7.2c7-2.8,14.1-5.7,21.6-6.8c8.8-1.3,17.6,0.1,26.4,0.6
				c11.5,0.7,29.8,0.2,34-13.4c1.5-4.9,0.4-10.6-3.9-13.8c-4.2-3.1-9.9-2.9-14.8-2.3c-18,2.5-35.7,6.6-53.9,8.6
				c-10.2,1.1-20,2.4-30,0c-8.1-2-14.5-0.6-22.1,2.5c-4,1.6-7.9,3.4-12.1,4.2c-5.2,1-10.6,0.3-15.8-0.6c-8.5-1.6-16.8-3.8-25.4-2.7
				C141.6,424.3,141.6,427.3,143.5,427.1L143.5,427.1z"/>
		</g>
	</g>
	<g>
		<g>
			<path class="st0" d="M1362,546c-18.9,6.6-41-9-54.6-20.8c-0.2,0.8-0.4,1.7-0.7,2.5c9.6-3.9,19.7-4.1,29.9-3.5
				c10.1,0.5,20.2,1.2,30.3,1.5c21.5,0.6,43.1,0.1,64.5-1.5c11.1-0.8,22.1-1.9,33.1-3.2c5.4-0.7,11.9-2,17,0.5
				c7.1,3.6,6.5,11.4-0.3,14.4c-3.5,1.5-7.3,2-11,2.7c-5.8,1-11.6,2.1-17.4,3.1c-10.6,1.9-21.2,3.8-31.9,5.7
				c-6.1,1.1-12.2,2.2-18.3,3.3c-5.7,1-11.6,2.5-17.5,2.6c-10,0.1-17.5-8.7-27.5-7.6c-1.9,0.2-1.9,3.2,0,3
				c5.7-0.7,10.2,2.4,15.1,4.7c4,1.9,7.9,2.9,12.3,2.9c11.5-0.1,23.4-3.6,34.7-5.7c12.2-2.2,24.5-4.4,36.7-6.6
				c5.8-1,11.6-2.1,17.4-3.1c3.9-0.7,8-1.6,11.4-3.9c5.7-3.9,5.9-11.1,1.1-15.8c-7.5-7.4-20.4-3.5-29.5-2.5
				c-24.6,2.7-49.4,4.1-74.2,4c-13.6,0-27.2-0.5-40.8-1.4c-12.1-0.7-24.4-1.3-35.8,3.3c-0.9,0.4-1.6,1.7-0.7,2.5
				c14.4,12.5,37.4,28.6,57.5,21.6C1364.6,548.3,1363.9,545.4,1362,546L1362,546z"/>
		</g>
	</g>
	<g>
		<g>
			<path class="st0" d="M903.4,1074.3c-0.9-5.7,7.2-4.8,10.4-3.7c2.5,0.8,4.9,1.8,7.5,2.1c6.2,0.8,12.3-1.3,18.1-3.2
				c5.6-1.9,11.5-4,17.5-3.4c7.2,0.7,13,6.6,11.9,14.2c-1.2,7.9-9.3,11.6-16.5,9.4c-4.9-1.5-9.2-4.6-14.3-5.4
				c-10.8-1.6-22.1,7.8-32.5,2.8c-1.7-0.8-3.3,1.7-1.5,2.6c6.2,3,12.4,1.6,18.7-0.2c4-1.1,8.2-2.5,12.4-2.4
				c4.9,0.1,8.9,2.5,13.2,4.3c6.1,2.6,12.5,3.1,17.9-1.3c4.6-3.7,6.6-9.6,5.2-15.3c-4.2-16.5-23.2-11.4-34.6-7.6
				c-5.4,1.8-11.1,3.5-16.9,2.3c-3.7-0.8-7.2-3.1-11.2-3c-4.8,0.1-9.1,3.6-8.3,8.6C900.8,1077,903.7,1076.2,903.4,1074.3
				L903.4,1074.3z"/>
		</g>
	</g>
	<g>
		<g>
			<path class="st0" d="M788.1,1041c4.8-4.5,11.4-6.4,17.9-5c2.7,0.6,10.2,2.6,5.5,6.2c-2.5,1.9-8,1.7-11,1.7c-1.9,0-1.9,3,0,3
				c4.4,0,12.1-0.2,15.4-3.7c2.8-3-0.4-6.3-3.1-7.8c-8.6-5-19.7-3.1-26.8,3.5C784.6,1040.2,786.7,1042.3,788.1,1041L788.1,1041z"/>
		</g>
	</g>
	<g>
		<g>
			<path class="st0" d="M732.5,1107.3c-0.8-0.3-1.5-0.6-2.3-0.9c-0.1,0.8-0.2,1.6-0.3,2.4c6.1-4.4,13-1.2,19.5,0.3
				c5.5,1.3,10.3,0.7,15.7-0.6c6.7-1.6,13.5-2.6,20.4-3c3.2-0.2,6.4-0.3,9.6-0.4c3-0.1,10.5-1.6,7.9,3.5c-3.1,6.1-12.1,6.3-17.6,4.5
				c-4.7-1.5-9.1-3.7-14.1-2.5c-5.2,1.2-9.6,4.5-15,5.6c-7.2,1.5-14.3,0.8-21.2-1.7c-1.8-0.6-2.6,2.2-0.8,2.9
				c6.8,2.4,13.9,3.2,21.1,2c8.1-1.4,15.3-7.7,23.7-5.4c6,1.7,10.9,4.4,17.3,2.5c4.1-1.2,9.9-4.8,10.7-9.4c1-5.4-5.7-5.2-9.2-5.1
				c-8.1,0.2-16.3,0.6-24.4,1.8c-4.4,0.7-8.6,1.9-12.9,2.7c-5.3,1-9.6,0-14.7-1.4c-6-1.7-12.2-2.7-17.6,1.1c-0.8,0.6-1,1.6-0.3,2.4
				c1.5,1.7,3.1,2.1,5.2,1.7C735.2,1109.9,734.4,1107,732.5,1107.3L732.5,1107.3z"/>
		</g>
	</g>
	<g>
		<g>
			<path class="st0" d="M1145.5,1050c5.8-2.4,11.9-3.7,18.2-3.6c6.5,0.1,12,2.6,18.2,4c9.1,2.2,15.9-3.4,23.3-7.7
				c11.7-6.9,23.3-2.4,35.5,0.1c8.7,1.8,18,2.1,25.5-3.2c1.6-1.1,0.1-3.7-1.5-2.6c-9.4,6.8-21,3.5-31.3,1
				c-9.7-2.3-19.3-3.6-28.4,1.4c-4,2.2-7.7,5.1-11.9,7c-6.4,2.9-11.6,0.6-17.8-1.2c-10.1-2.9-20.8-2.1-30.5,1.9
				C1142.9,1047.8,1143.7,1050.7,1145.5,1050L1145.5,1050z"/>
		</g>
	</g>
</g>
<g id="girl_hand_l">
	<path class="st4" d="M450.2,557.6c8.9-3.4,24.5,14.9,32.2,26.9c11.8,18.1,13.7,33.9,19.5,70.5c2.2,14.2,5.8,36.7,10.7,65.1
		c8.8,8.6,12.1,17,13.4,22.2c1.8,6.7,2.3,15.3,0,16.1c-2.5,0.9-6.9-7.5-8.7-6.7c-2.4,1.1,5.4,14.6,0.7,20.8
		c-4.8,6.3-22.8,5.3-32.2-4c-8.8-8.7-5.3-19.8-6.7-46.3c-0.5-9-1.9-33.5-9.4-57.7c-9.2-29.5-18.8-31-24.2-57.1
		C441.7,589,440.6,561.3,450.2,557.6z"/>
	<path class="st5" d="M463.4,583.4c5.5-1.2,15.1,23.7,15.7,25.1c8.8,23,4.6,32.8,8.5,66.7c3.2,27.6,5,43.3,13.9,62.7
		c8.6,18.6,18.6,29.5,14.8,34.5c-3.8,5.1-18.7,0.2-30.4-4.5c-1.1-2.5-2.7-6.4-4-11.2c-3.3-11.7-3.1-21-3.1-25.5
		c0-2.5-0.1-31.5-5.8-56.8c-3.1-13.5-4.5-11.5-8.1-25.5C457,618.5,457.3,584.7,463.4,583.4z"/>
	<path class="st6" d="M476.9,631.8c1.1,10.4,2.5,25.9,3.1,44.8c0.9,29.1-0.5,53.3-1.3,53.3c-0.7,0,0.2-17.4-3.6-41.2
		c-2.5-15.8-6.2-28.6-9-37.1c1.9-1.9,4.2-4.5,6.3-8.1C475,638.9,476.3,634.7,476.9,631.8z"/>
</g>
<g id="girl_leg_l">
	<path class="st1" d="M470,986.5c-2.6,4.8-3,10,3,55.3c0.7,5.6,1.4,10.2,1.8,13.4c15.3,2.4,36.9,4.3,62.5,1.8
		c15.5-1.5,33.6-3.2,34.6-9.1c0.8-4.8-9.7-13.4-57.7-29.8c-2.2-16-4.5-32-6.7-48C479.4,972,472.1,982.8,470,986.5z"/>
	<path class="st4" d="M409.7,701.4c9.4,12.8,22.8,31.2,38.5,53.7c37.2,53.2,55.8,79.8,62.3,97.6c19.2,52.7,14.2,103.9,12.3,121.3
		c-1.1,10-2.5,18.2-3.6,23.8c-7.6,2.9-18.5,6.1-31.8,7.2c-11.9,1-22.1-0.1-29.6-1.4c-2.3-13.6-4.2-28.9-5.1-45.5
		c-1.3-24.7-0.1-46.8,2.2-65.7c-25.7-19.7-42.3-40-52.4-54.1c-27-38.1-34.2-71.1-38.5-92.3c-6.1-29.4-1.9-37.4,2-41.6
		C379,690.9,407.2,700.6,409.7,701.4z"/>
	<path class="st7" d="M412.6,785.8c10.3,8.7,23.7,21.6,36.7,39.3c3.6,5,18.5,26.3,31.6,60.5c18,47.4,19.5,91.6,18.7,116.6
		c-4.4,1.6-10.6,3.3-18,3.9c-9.9,0.7-18-1-23.2-2.6c-3.2-19.5-5.6-42-5.8-67c-0.1-16.2,0.6-31.3,1.9-45.1
		c-2.5-1.4-50.8-28.6-50.2-74.1C404.4,804.6,408.4,793.8,412.6,785.8z"/>
	<path class="st5" d="M425.5,862.4c2.2-3,29.7,5.4,40.6,25.8c8.2,15.3,1.6,27.1,1.9,48.9c0.2,16.3,4.4,39.5,22.5,67.6
		c-10.5-0.2-21-0.4-31.6-0.6c-2.9-18.6-5.2-39.8-5.8-63.1c-0.5-18.4,0.1-35.4,1.3-50.9c-3.9-2-8.9-5.1-14.2-9.7
		C434.3,875.2,423.9,864.6,425.5,862.4z"/>
</g>
<g id="girl_leg_r">
	<path class="st1" d="M293.3,978.6c-7.6,4.9-8.9,11.7-15.8,26.7c-4.8,10.4-12,24.3-23.1,40.1c6.3,7.1,16.8,17,32.2,24.3
		c21.1,10,50.7,14.8,55.3,6.1c4.9-9.4-20.8-31.7-28.5-38.3c2.1-4.7,5.5-12.2,9.7-21.3c11.1-23.8,13.3-27.3,11.5-31.6
		C330.4,974.4,307.1,969.8,293.3,978.6z"/>
	<path class="st4" d="M325.4,678.8c-6,16.5-12.1,33-18.1,49.4c-9.9,28.6-5.6,48.4-2.4,57.9c3.5,10.5,9.6,19.5,21.7,37.4
		c9.4,13.8,17.9,24.9,24.1,32.6c-12.4,12.9-26.5,29.6-39.8,50.6c-17.9,28.4-28.5,55.1-35,76c5.9,4.5,14.8,10.2,26.5,14.5
		c13.1,4.8,24.7,5.9,32.6,6c13.9-10.7,32.9-27.4,50.6-51.9c13.9-19.1,32.6-44.8,38.6-80.8c10.2-61.3-23.1-111.2-35-129
		C367.7,709.2,341.9,689.6,325.4,678.8z"/>
	<g>
		<g>
			<path class="st8" d="M367.5,714.8c7.7,10.7,15.3,21.5,22.6,32.4c0.9-0.5,1.7-1,2.6-1.5c-6.5-8.7-12.3-18-17.3-27.7
				c-0.7,0.7-1.4,1.4-2.1,2.1c4.1,2.8,6.4,7,8.9,11.1c2.9,4.8,5.9,9.6,8.8,14.4c5.7,9.3,11.4,18.7,17.1,28c0.9-0.5,1.7-1,2.6-1.5
				c-8.7-13.6-17.4-27.2-26.2-40.8c-1-1.6-3.6-0.1-2.6,1.5c10.8,18,21.7,35.9,32.5,53.9c1,1.7,3.6,0.2,2.6-1.5
				c-7.9-13.4-15.7-26.9-23.6-40.3c-0.8,0.6-1.6,1.2-2.4,1.8c11.3,12.5,13.3,30.7,25.6,42.4c1.4,1.3,3.5-0.8,2.1-2.1
				c-12.3-11.6-14.3-29.9-25.6-42.4c-1.2-1.3-3.2,0.4-2.4,1.8c7.9,13.4,15.7,26.9,23.6,40.3c0.9-0.5,1.7-1,2.6-1.5
				c-10.8-18-21.7-35.9-32.5-53.9c-0.9,0.5-1.7,1-2.6,1.5c8.7,13.6,17.4,27.2,26.2,40.8c1,1.6,3.6,0.1,2.6-1.5
				c-6.4-10.5-12.8-21-19.2-31.4c-4.7-7.8-9-17.9-16.8-23.2c-1.3-0.9-2.7,0.8-2.1,2.1c5,9.7,10.7,18.9,17.3,27.7
				c1.1,1.5,3.7,0.1,2.6-1.5c-7.3-11-14.8-21.8-22.6-32.4C369,711.7,366.4,713.2,367.5,714.8L367.5,714.8z"/>
		</g>
	</g>
	<path class="st9" d="M373.8,719.2c-5.2,7.5-12.4,19.9-15.5,36.2c-9.5,49.4,30.5,71.3,21.6,114.6c-4.7,22.8-16.6,20.7-43.2,68.1
		c-13.5,24.1-22.1,45.3-27.2,59.7c-6.5-2-13.6-4.6-21.1-8c-4.4-2-8.5-4-12.2-6.1c5.9-18.4,14.8-40.6,28.2-64.4
		c15.2-26.9,31.9-47.9,46-63.4c-3.9-5-9.7-12.6-16.4-22.1c-18.5-26.2-27.9-39.6-31-55c-3.5-17-0.6-31.5,1.4-41.3
		c3-14.8,8.1-26.4,12.2-34.3C335.6,708.5,354.7,713.9,373.8,719.2z"/>
	<path class="st6" d="M350.3,713.1c-11.3,12.9-26.1,34.1-24.9,59.7c1.8,40.1,41.4,55.4,35.7,88.3c-1.6,9.1-14.2,23.7-39.5,52.6
		c-13.9,15.9-25.7,28.6-33.8,37.1c6.2-15.2,15.2-33.4,28.2-52.6c11.5-17,23.3-30.6,33.8-41.3c-3.1-4.7-8.6-13.1-15.5-23.5
		c-24.1-36.2-28.8-41.9-31.5-54.5c-3.2-14.8-1.1-27.3,0.5-36.6c2.9-17.3,9-30.6,13.6-39C328,706.5,339.2,709.8,350.3,713.1z"/>
</g>
<g id="torso_girll">
	<path class="st2" d="M402,539.1c-14.2,8.4-41.2,26.9-61.8,60.9C314,643.3,314,685.6,314.9,702c4.9,1.6,9.9,3.2,15,4.7
		c34.1,10.2,67.1,17.1,98.3,21.5c2.6-8.9,5.4-17.9,8.4-27.2c4.5-13.7,9.2-26.8,14-39.3c16.6-8.6,22.4-19.7,24.3-24.3
		c7.7-18,0.4-36.8-7.5-57.1c-4.4-11.4-6.7-17.2-12.2-23.4C438,537.4,409.6,538.6,402,539.1z"/>
	<path class="st10" d="M435.7,562.8c-27.3,3.6-41.9,16-47.8,21.8c-33.3,32.9-21.8,88.4-18.7,103.4c2.8,13.5,7,24.3,10.3,31.6
		c-21.1-5.7-42.1-11.5-63.2-17.2c-1.3-15.3-2.6-54.6,20.1-96.5c21.1-38.8,51.4-58.7,64.9-66.5c1.9,0.1,3.8,0.3,5.7,0.4
		c2.9,3.4,6.4,7,10.7,10.7C424.1,556.1,430.4,560,435.7,562.8z"/>
	<path class="st9" d="M348.2,587.9c-2.8,14.7-5.1,36-2.1,61.2c3.6,29.6,13.1,52.5,20.5,66.9c-17.2-4.4-34.5-8.8-51.7-13.1
		c-0.8-13.8-0.4-34.5,6.2-58.3C328.3,618.6,339.9,599.6,348.2,587.9z"/>
</g>
<g id="boy_leg_l">
	<path class="st1" d="M1193.6,918.3c-6.3,14.1-5.1,27.3-4.1,33.5c19.7,8.7,37.2,12.7,50.6,14.7c4.4,0.7,58.8,8.4,64.1-6.5
		c1.3-3.7-0.8-7.5-2.9-11.2c-11.7-20.5-41.3-21.7-45.3-21.8c-1.1-21.3-14.8-37.1-28.8-38.2C1207.4,887.3,1195,915.2,1193.6,918.3z"
		/>
	<path class="st4" d="M1219.6,574.3c13,18.7,30.5,47.8,43.2,86.4c20.7,62.9,17.3,115.7,15,145.6c-2,26.6-7.4,64.4-22.5,108
		c-4.1,2.6-22.2,13.4-45.1,8.5c-13.6-2.9-22.8-10.1-27.2-14.1c8.1-17.8,17.9-44.6,21.6-78c4.1-36.4-0.9-64.9-7.5-101.5
		c-15-82.7-35.7-114.1-17.8-137.2C1187.9,580.8,1202.6,575.8,1219.6,574.3z"/>
	<path class="st11" d="M1226.7,620c6.8,33.1,12.2,71.1,14.3,113.3c3.6,74.9-4.5,139.5-15,189.8c-4.5,0.6-15.4,1.3-27-4.5
		c-6.9-3.5-11.6-8.1-14.3-11.3c12.5-28.8,17-53.3,18.8-69.8c2.8-25.9,0.5-46.7-3.8-85.5c-2.5-22.7-5.4-41.3-7.5-54
		C1203.7,672.1,1215.2,646,1226.7,620z"/>
	<path class="st12" d="M1204.8,669.8c8.6,22.4,21.5,65.1,17.1,119.4c-4.2,52.3-22.6,91.2-34.3,111.8c19.6-56.6,20.6-91.3,17.6-112.8
		c-0.8-5.5-4.2-27.3-8.1-59.4c-1.6-13.3-2.8-24.2-3.5-31.2C1197.4,688.3,1201.1,679,1204.8,669.8z"/>
</g>
<g id="boy_leg_r">
	<path class="st1" d="M1048.9,875c-8.3,4.1-10.8,10.8-22.2,32.5c-7.6,14.4-14,25.9-18.2,33.3c12.8,9.2,33.1,21.3,60.2,27.7
		c16,3.8,49.3,9.1,53.1,0c4.2-10.1-30-33.4-44.4-42.8c14.8-14.4,15.5-35.3,5.5-46C1074.4,870.6,1059,870,1048.9,875z"/>
	<path class="st4" d="M1193.9,572.2c33,29.1-5.6,126.1-37.3,203.7c-13.7,33.5-35.1,82-66.6,138.7c-5.5,0.8-22,2.4-39.6-7.1
		c-17.7-9.5-25.4-24.4-27.7-29.3c9.2-15.9,20.3-37.3,30.9-63.4c4.2-10.3,22.3-56.3,32.5-121.3c4-25.7,7.6-59.6,7.1-99.9
		c5.9-6,38.8-38.3,77.7-30.9C1176.8,563.8,1186.5,565.7,1193.9,572.2z"/>
	<path class="st13" d="M777,856.8"/>
	<g>
		<g>
			<path class="st8" d="M1204.6,612.2c-0.1,3.5-0.2,7-0.2,10.5c1,0,2,0,3,0c-0.5-5.6-0.2-10.9,0.9-16.4c-1-0.1-2-0.3-2.9-0.4
				c0.6,11.8-2.1,24.2-4.2,35.8c-2.1,11.7-4.9,23.3-8.2,34.7c1,0.3,1.9,0.5,2.9,0.8c5.5-20.8,10.1-41.7,13.9-62.9
				c0.3-1.9-2.6-2.7-2.9-0.8c-3.8,21.1-8.4,42.1-13.9,62.9c-0.5,1.9,2.4,2.7,2.9,0.8c3.5-12,6.3-24.3,8.5-36.6
				c2-11.2,4.6-23.3,4-34.7c-0.1-1.6-2.6-2.1-2.9-0.4c-1.2,5.7-1.5,11.4-1,17.2c0.2,1.9,3,2,3,0c0.1-3.5,0.2-7,0.2-10.5
				C1207.7,610.3,1204.7,610.3,1204.6,612.2L1204.6,612.2z"/>
		</g>
	</g>
	<g>
		<g>
			<path class="st8" d="M1191.9,670.1c0.1,7.7,0.3,15.4,0.4,23.1c0,1.9,3,1.9,3,0c-0.1-7.7-0.3-15.4-0.4-23.1
				C1194.8,668.1,1191.8,668.1,1191.9,670.1L1191.9,670.1z"/>
		</g>
	</g>
	<path class="st7" d="M1150.3,603.3c0.3,20.1-0.8,47.5-6.7,79.3c-6.3,33.7-15.9,59.8-29.9,99.1c-11.4,32.2-16.9,41.8-28.5,77.5
		c-7.1,21.7-12.1,39.9-15.3,52.1c-5.5-0.7-16.9-3-28.3-11.5c-10.6-7.9-16-17.3-18.4-22.2c18.4-32.3,30.1-60.6,37.5-81.2
		c22.9-63.7,28.3-119.1,31.4-153.2c1.3-14.2,2-26,2.3-33.7C1113,607.4,1131.7,605.4,1150.3,603.3z"/>
	<path class="st14" d="M1140,606.2c-7.8,34.3-16.8,61.3-23.9,80.2c-5.8,15.6-14.7,36.6-32.4,78.5c-6.5,15.5-9.8,23.2-11.4,26.7
		c-9.8,22-25.5,52.9-50.6,89.3c22.5-40.4,48.3-98,62-170.6c6.9-36.6,9.4-70,9.7-98.9C1093.3,611.3,1093.3,611.3,1140,606.2z"/>
</g>
<g id="boy_torso">
	<path class="st3" d="M1171.6,360.3c1.6,3.9,4.4,9.6,9.5,15.4c3.7,4.2,8.4,9.6,15.4,11.7c13.6,4.2,26.8-6.6,28.6-8.1
		c13.2,7.8,26.4,15.6,39.5,23.4c1.2,16.3,1.3,40.9-5.1,69.6c-6.1,27.3-12,30.6-16.8,57.1c-7.3,39.8-1.9,75.3-3.7,75.4
		c-0.3,0-0.7-0.8-1.5-5.1c-51.5,3.9-103,7.8-154.5,11.7c-1.5-30.9-1.3-56.9-0.7-76.1c0.8-30,3.2-66.3,13.2-108.4
		c7.1-30.1,12.7-40.3,21.2-48.3C1135.1,361.1,1160.3,360,1171.6,360.3z"/>
	<path class="st15" d="M1231.2,382.9c-1.7,18.3-4.9,45.5-11,78.1c-1.8,9.8-6.9,36.8-11,50c-5,16.2-24.5,62.5-119.9,100.1
		c29.1-3.4,59.1-6.4,89.8-8.9c19.2-1.6,38.2-3,56.9-4.1c6.6-23.5,12.7-50.1,17.1-79.5c6.7-44.5,8-84.7,6.9-118.6
		C1250.4,394.3,1240.8,388.6,1231.2,382.9z"/>
</g>
<g id="boy_head">
	<path class="st4" d="M1190,300.1c-3.5,17.9-5.1,37.7-19.6,59.6c-2,3-3.7,5.3-4.9,6.8c1.2,2.4,13.9,27,40.9,30.7
		c15.4,2.1,27.5-3.8,32.1-6.3c-0.7-6-1.1-13.2-0.5-21.3c0.8-11.9,3.3-21.8,5.8-29.3c11.6-1.5,23.1-3,34.7-4.5
		c2.3-5.1,4.5-10.2,6.8-15.4c3.2-0.1,6.3-0.2,9.5-0.3c-2.4-7-6-18.1-10.2-31.8c-7.8-25.8-7.7-29.5-11.9-35.3
		c-11.6-15.9-37.6-26-54.7-17.5C1201.5,243.6,1196.5,266.7,1190,300.1z"/>
	<g>
		<g>
			<path class="st1" d="M1294.3,318.7c-5.7,0.1-11.3-0.3-16.9-1.1c-1.9-0.3-2.7,2.6-0.8,2.9c5.9,0.9,11.7,1.3,17.7,1.2
				C1296.3,321.7,1296.3,318.7,1294.3,318.7L1294.3,318.7z"/>
		</g>
	</g>
	<g>
		<g>
			<path class="st1" d="M1298.3,272.8c-5.1-2.8-11.2-1.2-14.5,3.5c-1.1,1.6,1.5,3.1,2.6,1.5c2.3-3.3,6.9-4.3,10.4-2.4
				C1298.5,276.3,1300,273.7,1298.3,272.8L1298.3,272.8z"/>
		</g>
	</g>
	<g>
		<g>
			<path class="st1" d="M1295.7,290.8c0.5-2.3,0.4-4.6-0.7-6.7c-0.8-1.5-2.5-3.3-4.4-2.5c-2,0.8-1.9,3.6-1.5,5.3
				c0.4,2.1,1.5,4,3.1,5.4c0.9,0.8,2.6,0.3,2.6-1.1c0-2.5-0.6-4.7-1.7-7c-0.8-1.7-3.4-0.2-2.6,1.5c0.8,1.7,1.2,3.5,1.3,5.4
				c0.9-0.4,1.7-0.7,2.6-1.1c-1.7-1.4-2.3-3.2-2.4-5.3c0.1-0.2,0-0.4-0.3-0.4c0.2,0.1,0.4,0.3,0.5,0.5c0.3,0.4,0.6,1,0.7,1.5
				c0.4,1.2,0.4,2.3,0.1,3.5C1292.3,291.9,1295.2,292.7,1295.7,290.8L1295.7,290.8z"/>
		</g>
	</g>
	<g>
		<g>
			<path class="st1" d="M1269.3,276.8c-5.8-1.9-11.9,0.5-15.3,5.5c-1.1,1.6,1.5,3.1,2.6,1.5c2.6-3.9,7.4-5.5,11.9-4.1
				C1270.3,280.2,1271.1,277.4,1269.3,276.8L1269.3,276.8z"/>
		</g>
	</g>
	<g>
		<g>
			<path class="st1" d="M1270.9,293.5c0.2-2.7-0.9-6.9-3.7-8c-3.7-1.5-3.7,3.7-3.3,5.9c0.5,2.2,2.3,6.3,5.3,4.6c1.2-0.7,1.4-2,1-3.2
				c-0.7-1.9-1.8-3.6-2.6-5.4c-0.8,0.6-1.6,1.2-2.4,1.8c0.4,0.4,0.7,0.8,0.8,1.4c0.5,1.9,3.4,1.1,2.9-0.8c-0.3-1.1-0.8-1.9-1.6-2.7
				c-1.3-1.2-3.1,0.3-2.4,1.8c0.4,0.7,0.7,1.4,1.1,2.2c0.3,0.6,0.6,1.7,1.1,2.2c0.2,0.7,0.4,0.7,0.7,0c-0.1-0.2-0.3-0.5-0.4-0.7
				c-0.3-0.6-0.5-1.2-0.6-1.9c-0.1-0.6,0-1.4-0.2-2c0.1-0.4,0-0.5-0.1,0c0.2,0.3,0.5,0.6,0.6,0.9c0.7,1.2,0.9,2.6,0.8,4
				C1267.7,295.4,1270.7,295.4,1270.9,293.5L1270.9,293.5z"/>
		</g>
	</g>
	<path class="st2" d="M1276.7,259.4c-0.8-5.3-2.9-13.9-8.5-22.8c-2-3.1-6.3-9.8-13.1-14.3c-13-8.6-33-7.9-47.6,2.6
		c-14.2,10.3-21.3,28.8-18.2,47.1C1218.5,267.8,1247.6,263.6,1276.7,259.4z"/>
	<g>
		<g>
			<path class="st1" d="M1324.5,249.8c-44.9,5.7-89.7,11.4-134.6,17.1c-5.7,0.7-5.7,9.7,0,9c44.9-5.7,89.7-11.4,134.6-17.1
				C1330.1,258.1,1330.2,249.1,1324.5,249.8L1324.5,249.8z"/>
		</g>
	</g>
	<path class="st16" d="M1218.4,270.8c7.9,2.9,12.5,8.4,17.9,15c11.3,13.8,7.9,18.9,15.9,27.5c12.6,13.7,25.4,5.6,36.7,19
		c9.6,11.4,8.3,26.8,7.9,30.2c-0.4,3.4-2.1,17.1-13.2,26.5c-9.6,8.1-22.7,10-23.5,8.2c-0.3-0.7,0.8-2.3,7.9-7.1
		c-2.1,1.5-5.3,3.3-9.6,4.1c-4.9,0.9-9.5,0-9.6-0.7c0-0.5,2.6-0.5,4.6-2.7c1.2-1.3,1.7-2.8,2-4.1c-3.9,2.6-8.9,4.8-13.6,3.4
		c-12.8-3.9-15.1-32.6-15.9-42.1c-2.4-30.8,6.4-47.6-4.3-58.4c-0.9-0.9-5.2-5.3-9.9-4.4c-6,1.1-10.6,10.5-8.6,16.7
		c1.7,5.3,7.7,6.8,7.3,7.8c-0.6,1.3-10.7-0.7-19.2-7.5c-3.1-2.5-5.6-4.5-6.9-8.2c-2.3-6.4,0.4-13.7,4-18
		C1195.8,267,1209.8,267.6,1218.4,270.8z"/>
	<path class="st12" d="M1206.5,310.5c1.9,0.2,4.6,0.3,4.8-0.4c0.1-0.3-0.6-0.8-0.6-0.8c0,0,2.3,2.9,5.1,3.3c1.4,0.2,2.5-0.3,3.3-0.7
		c-5.1,10.7-10.3,23.7-14.6,38.7c-4.5,15.5-7,29.7-8.3,41.8c-4.4-1.4-12.4-4.6-19.8-11.8c-5.4-5.2-8.5-10.7-10.3-14.4
		c6-9,9.5-16.9,11.6-22.3c1.9-5,2.6-8.3,6-19.7c2.8-9.2,5-16.8,6.5-22c0.8,0.7,2,1.8,3.6,2.9
		C1196.1,306.7,1200.6,309.8,1206.5,310.5z"/>
	<path class="st17" d="M1238.8,216.9c-11.7,2.3-20.4,11.7-21.7,22.8c-1.6,13.2,8.1,22.2,9,23c-12.4,1.5-24.8,3.1-37.2,4.6
		c-0.2-2.9-0.3-6.9,0.4-11.5c2.4-14.8,11-23.9,12.8-25.8c2.9-3,13.1-12.7,28.2-13.6C1233.8,216.2,1236.7,216.6,1238.8,216.9z"/>
</g>
<g id="boy_hand_l">
	<path class="st4" d="M1261.6,401.7c8-1.2,16.2,12.7,20,19.1c22,37.4,12.8,80.6,10,93.2c-2.2,9.9-6.3,27.4-19.1,46.7
		c-12.2,18.6-26.6,30.1-35.8,36.4c-15.4,5.9-43.4,14-77.1,8.5c-11.7-1.9-21.9-5.1-30.4-8.5c-14.4,0.9-28.8,1.7-43.2,2.6
		c-2.3-0.4-5.5-1-9.3-2.4c-4.6-1.7-9-3.4-9-5c0-1.8,5-4.6,29.4-8.4c-1.2,0.2-17.2,3.3-27.9-7.9c-10-10.4-10.6-28.2-3-35.2
		c6.4-5.9,16.8-3.3,35.8,1.8c18.8,5,33.9,11.8,44.9,17.6c4.2,1.9,36.9,16,66.8-1.2c22.8-13.1,30.4-36.6,32.2-43.1
		c7.2-25.8-5.9-34.9-1.2-72.2C1245.3,437.3,1249.6,403.4,1261.6,401.7z"/>
	<g>
		<g>
			<path class="st1" d="M1062.4,563.1c11.6,0.9,22.7,3.7,33.3,8.5c1.7,0.8,3.3-1.8,1.5-2.6c-11.1-5.1-22.7-8.1-34.8-9
				C1060.5,560,1060.5,563,1062.4,563.1L1062.4,563.1z"/>
		</g>
	</g>
	<g>
		<g>
			<path class="st1" d="M1061.7,550.9c13.3-0.4,24.6,7.7,37,11.5c1.8,0.6,2.6-2.3,0.8-2.9c-12.6-3.9-24.1-12-37.8-11.6
				C1059.8,548,1059.7,551,1061.7,550.9L1061.7,550.9z"/>
		</g>
	</g>
	<g>
		<g>
			<path class="st1" d="M1074.5,540.3c10.9,0.9,20.5,6.1,29.9,11.4c1.7,0.9,3.2-1.6,1.5-2.6c-9.9-5.5-19.9-10.8-31.4-11.8
				C1072.5,537.1,1072.5,540.1,1074.5,540.3L1074.5,540.3z"/>
		</g>
	</g>
	<path class="st18" d="M1249.4,420.1c-5.9,23.7,9.8,39.7,15.1,66.8c0.9,4.8,8,43.7-12.8,71.3c-23.2,30.8-69.2,31.9-78.2,32.2
		c-23.5,0.6-32.4-6.3-69.2-4.4c-3.5,0.2-35.5,2-35.8,6.5c-0.1,2.4,8.8,5.1,15.5,6c8.8,1.2,13.4-0.8,24.6-1.7
		c4.8-0.4,11.7-0.7,20.2,0c10.2,4.2,23.4,8.3,39.2,9.9c4.3,0.4,17.7,1.6,34.9-0.9c0,0,14.4-2,25.8-6c28.3-9.8,56.3-51.1,64.2-96.1
		c8.9-50.7-10.9-88.9-22-97.4c-1.5-1.2-5.8-4.5-10.3-3.4C1253.3,404.5,1250.3,416.4,1249.4,420.1z"/>
	<path class="st6" d="M1291.6,450.2c-1.6,0-1.6,19.1-6,43.1c-2.7,14.6-8.2,44.3-21.5,65c-23.7,36.9-72.1,45.2-90.5,47.4
		c15.8,2.2,40.1,2.7,63.8-9.9c51.4-27.4,56.4-93.5,57.3-105.5C1296.1,470.1,1293.2,450.2,1291.6,450.2z"/>
</g>
<g id="magnifying_glass">
	<path class="st1" d="M428.1,828.6c41.4-36.8,83-73.4,124.8-109.7c78.8-68.5,158.3-136.1,238.6-202.9c-6.3-18.7-14.4-51.1-9.6-90.5
		c1.5-12.5,14.3-104.6,98.7-152.2c7-4,103.9-56.4,194.7,1.4c59.9,38.1,90.9,107.6,83.6,175.5c-10.8,100.9-100.4,145.6-105.6,148.1
		C988.7,629.1,911,620,853.1,575c-87,71.6-173.8,143.3-260.5,215.2c-38,31.5-75.9,63-113.8,94.6c-7.9-3.8-21-11.4-32.8-25.3
		C436.1,847.9,430.9,836.3,428.1,828.6z"/>
	<ellipse class="st4" cx="972.4" cy="433.4" rx="158.6" ry="152"/>
	<g>
		<g>
			<path class="st0" d="M985.3,289.8C956.3,351.2,925.8,412,893.9,472c-9,16.9-18.1,33.8-27.3,50.6c-0.9,1.7,1.7,3.2,2.6,1.5
				c32.7-59.6,64-119.9,93.8-181c8.4-17.2,16.7-34.5,25-51.9C988.8,289.6,986.2,288.1,985.3,289.8L985.3,289.8z"/>
		</g>
	</g>
	<g>
		<g>
			<path class="st0" d="M1034.2,304.7c-31.8,50.2-62,101.3-90.7,153.3c-0.9,1.7,1.7,3.2,2.6,1.5c28.7-52,58.9-103.1,90.7-153.3
				C1037.8,304.6,1035.2,303.1,1034.2,304.7L1034.2,304.7z"/>
		</g>
	</g>
	<g>
		<g>
			<path class="st0" d="M938.2,475.6c-13.2,25.7-27.3,51-42.4,75.7c-1,1.7,1.6,3.2,2.6,1.5c15-24.7,29.2-50,42.4-75.7
				C941.7,475.4,939.1,473.8,938.2,475.6L938.2,475.6z"/>
		</g>
	</g>
	<g>
		<g>
			<path class="st0" d="M993.7,400.6c-16.8,31.6-33.5,63.2-50.3,94.8c-0.9,1.7,1.7,3.2,2.6,1.5c16.8-31.6,33.5-63.2,50.3-94.8
				C997.2,400.4,994.6,398.9,993.7,400.6L993.7,400.6z"/>
		</g>
	</g>
	<path class="st19" d="M967.7,280.9c-11.1,4-84.2,31.4-107.6,104.8c-2.7,8.5-11.1,35.9-4.8,67.6c12.1,60.4,72.5,109.3,151.5,125.7
		c-6,2-14.4,4.4-24.8,5.7c-62.8,7.9-111.5-34.9-117.2-40c-12.4-11.3-50.7-49.7-51.4-110.5c-0.1-5.3,0.2-65.3,45.7-108.6
		c26.5-25.2,57.5-34.4,70.5-38.1C944.8,283.2,958.1,281.6,967.7,280.9z"/>
</g>
<g id="grl_hand_r">
	<path class="st4" d="M382.5,589.4c7.2-0.9,18-1,25.9,5.4c17,13.8,3.9,43.8,12.3,75.5c4.5,17,16.4,39.9,51,62.6
		c13.7,6.9,25.1,12.1,33,15.7c11.3,5.1,18.5,8,18.4,11.9c-0.1,3.9-7.2,6.8-12.3,8.5c6.1,5.7,9.2,12.9,7.1,18.4
		c-1.6,4.3-6,6.4-10.9,8.8c-5.6,2.8-10.3,3.4-15.7,4.1c-10.1,1.3-15.1,1.9-19.7,0c-7.1-3-10.3-9.6-15-19.1
		c-2.6-5.2-5.8-13.3-7.5-23.8c-11.3-5.2-27.5-14.2-43.6-29.3c-6.3-5.9-64.7-61.9-46.3-110.3C362,611,367.9,600,382.5,589.4z"/>
	<g>
		<g>
			<path class="st1" d="M471.9,787.9c2.5,5.5,6.3,10.1,11.2,13.8c1.5,1.2,3-1.4,1.5-2.6c-4.4-3.3-7.8-7.7-10.1-12.7
				C473.7,784.7,471.1,786.2,471.9,787.9L471.9,787.9z"/>
		</g>
	</g>
	<g>
		<g>
			<path class="st1" d="M483.9,786.3c3,5.8,7.5,10.6,13,14.2c1.6,1,3.1-1.6,1.5-2.6c-5.1-3.2-9.2-7.7-12-13.1
				C485.6,783.1,483,784.6,483.9,786.3L483.9,786.3z"/>
		</g>
	</g>
	<g>
		<g>
			<path class="st1" d="M496.5,779.5c2.8,5.9,7.6,10.6,13.5,13.4c1.7,0.8,3.3-1.8,1.5-2.6c-5.5-2.6-9.8-6.8-12.4-12.3
				C498.2,776.2,495.7,777.7,496.5,779.5L496.5,779.5z"/>
		</g>
	</g>
	<path class="st9" d="M385,589.6c-2.2,9.9-4.6,25.5-2.5,44.3c5.5,47.6,36.3,79,41.4,84.1c25.4,25.2,42,21.8,52.1,44.3
		c2.7,6,7.5,19.6,20.5,26.7c5.1,2.7,9.9,3.7,13.1,4.1c-1.7,1.4-4.5,3.3-8.2,4.9c-6.2,2.7-11.6,2.8-20.1,2.9
		c-6.3,0.1-9.5,0.1-12.3-1.2c-5.9-2.7-8.7-8.3-9.8-11.1c-4-10.8-7.9-21.6-11.9-32.4c-19.5-10-47.1-27.8-68.9-58.3
		c-9.1-12.7-24.3-34.5-23-60.7c0.6-11.9,4.4-20.2,5.3-22.2C367.8,600.3,379.6,592.7,385,589.6z"/>
	<path class="st20" d="M356.7,643.3c0.6-0.2,4.4,11.8,11.9,25.8c18.3,34.6,44.7,55.8,63.6,70.6c8.6,6.7,15.9,11.7,20.5,14.8
		c5.6,9.4,8.8,17.5,10.7,23.4c1.6,4.9,2.5,9.3,6.2,13.9c3.8,5,8.7,7.8,12.3,9.4c-2.7,0.1-6.8-0.1-11.1-2.1
		c-8.2-3.8-11.8-11.7-15.6-20.1c-2.2-4.8-4.8-12-6.2-21.3c-52.2-26.4-71.8-59.7-79.2-75.5C362.2,666,355.9,643.7,356.7,643.3z"/>
</g>
<g id="girl_head">
	<path class="st4" d="M439.5,498.1c-7.1,2.8-2.9,16.8-14.3,29.5c-5.6,6.3-12.4,9.3-17.1,11c3,4.5,8.9,11.8,18.6,17.6
		c6.9,4.2,13.5,6.2,18.1,7.1c1.5-2.7,4-6.9,7.1-11.9c11.1-17.5,15.1-19.4,15.7-25.2C469.1,512,448.6,494.5,439.5,498.1z"/>
	<g>
		<g>
			<path class="st1" d="M438.2,525.1c4.1,8.2,8.4,16.3,15.2,22.6c1.4,1.3,3.5-0.8,2.1-2.1c-6.6-6.1-10.7-14.1-14.7-22
				C439.9,521.9,437.3,523.4,438.2,525.1L438.2,525.1z"/>
		</g>
	</g>
	<g>
		<g>
			<path class="st1" d="M435.2,519.7c4.6,9,9.6,17.9,18.4,23.4c1.5,0.9,3-1.1,1.8-2.4c-2.9-3.1-5.9-6.2-8.7-9.3
				c-0.7,0.7-1.4,1.4-2.1,2.1c1.7,1.8,3.5,3.5,5.5,4.9c0.7,0.5,2.9,1.5,3.3,2.1c0.6,1,0,2.6-0.3,3.6c1,0.3,1.9,0.5,2.9,0.8
				c0.1-0.5,0.1-1,0.2-1.4c0.2-1.3-1.4-2.7-2.5-1.5c0-1.1-0.3-2.2-1-3.1c-0.9,0.5-1.7,1-2.6,1.5c1.1,1.5,2.2,3,3.3,4.5
				c0.8-0.6,1.6-1.2,2.4-1.8c-0.9-1-1.6-2-2.3-3.1c-0.9-1.3-3.4-0.5-2.7,1.2c0.6,1.3,0.8,1.8,1.7,2.9c1.2,1.5,3.3-0.6,2.1-2.1
				c-0.3-0.5-0.6-1-0.9-1.6c-0.9,0.4-1.8,0.8-2.7,1.2c0.9,1.3,1.8,2.5,2.8,3.7c1.1,1.3,3.4-0.4,2.4-1.8c-1.1-1.5-2.2-3-3.3-4.5
				c-1.1-1.6-3.4-0.2-2.6,1.5c1,2,3,6.7,5.7,3.7c-0.8-0.5-1.7-1-2.5-1.5c-0.1,0.5-0.1,1-0.2,1.4c-0.3,1.9,2.4,2.7,2.9,0.8
				c0.7-2.4,2.4-3.5,0.4-5.9c-0.9-1.1-2.4-1.6-3.5-2.3c-2.3-1.5-4.3-3.3-6.2-5.3c-1.3-1.4-3.4,0.7-2.1,2.1c2.9,3.1,5.8,6.2,8.7,9.3
				c0.6-0.8,1.2-1.6,1.8-2.4c-8.3-5.2-12.9-13.8-17.3-22.3C436.9,516.4,434.3,518,435.2,519.7L435.2,519.7z"/>
		</g>
	</g>
	<path class="st4" d="M531.5,471.6c-2,8.9-6.1,22.1-15.5,35.7c-16.5,23.9-38.9,34-48.5,37.7c-5.5-2.1-12.7-5.8-19.5-12.1
		c-18.6-17.3-20-41-20.2-47.1c-2-0.5-4.9-1.6-7.4-4c-6.4-6.2-7.9-18.5-2-23.6c6.7-5.8,19.5,1.3,20.9,2c3.1,1.7,5.3,3.8,6.7,5.4
		c5.5-16.6,18.7-29.1,34.4-31.7C501.8,430.4,525.2,446,531.5,471.6z"/>
	<g>
		<g>
			<path class="st1" d="M507.3,495.5c-4,9-9.9,16.7-17.5,23c-1.5,1.2,0.6,3.3,2.1,2.1c7.9-6.4,13.9-14.3,18-23.6
				C510.7,495.2,508.1,493.7,507.3,495.5L507.3,495.5z"/>
		</g>
	</g>
	<g>
		<g>
			<path class="st1" d="M486,511.8c-0.4,3.4,0.8,6.7,3.1,9.2c1.3,1.4,3.4-0.7,2.1-2.1c-1.8-2-2.5-4.4-2.2-7.1
				C489.2,509.9,486.2,509.9,486,511.8L486,511.8z"/>
		</g>
	</g>
	<g>
		<g>
			<path class="st1" d="M479.9,494.7c2.6-3.6,5.7-6.8,9.2-9.7c-0.8-0.5-1.7-1-2.5-1.5c-1.3,4-4.1,7.2-7.8,9.2
				c0.6,0.8,1.2,1.6,1.8,2.4c2.3-2.8,4.6-5.5,6.9-8.3c1.2-1.5-0.9-3.6-2.1-2.1c-2.3,2.8-4.6,5.5-6.9,8.3c-1.1,1.3,0.3,3.2,1.8,2.4
				c4.4-2.4,7.6-6.3,9.2-11c0.5-1.6-1.4-2.3-2.5-1.5c-3.7,3-6.9,6.4-9.6,10.3C476.2,494.8,478.8,496.3,479.9,494.7L479.9,494.7z"/>
		</g>
	</g>
	<g>
		<g>
			<path class="st1" d="M513.1,503.5c1.3-2.2,3-4.1,4.9-5.8c-0.8-0.5-1.7-1-2.5-1.5c-0.9,3-2.7,5.7-5.3,7.6c0.7,0.6,1.5,1.1,2.2,1.7
				c0.6-1.6,1.5-3.1,2.6-4.4c1.2-1.5-0.9-3.6-2.1-2.1c-1.4,1.8-2.5,3.6-3.3,5.7c-0.5,1.2,1.2,2.5,2.2,1.7c3.2-2.4,5.5-5.5,6.6-9.3
				c0.5-1.5-1.4-2.4-2.5-1.5c-2.1,1.8-3.9,4-5.4,6.4C509.4,503.6,512,505.1,513.1,503.5L513.1,503.5z"/>
		</g>
	</g>
	<g>
		<g>
			<path class="st1" d="M469.6,487.3c1.5,3.5,2.3,7.1,2.3,10.8c0,1,1.5,1,1.5,0c0-4-0.9-7.9-2.5-11.6
				C470.5,485.6,469.2,486.4,469.6,487.3L469.6,487.3z"/>
		</g>
	</g>
	<g>
		<g>
			<path class="st1" d="M465.4,484.7c1,1.6,1.7,3.2,2.3,4.9c0.3,0.9,1.7,0.5,1.4-0.4c-0.6-1.9-1.4-3.6-2.4-5.3
				C466.2,483.1,464.9,483.9,465.4,484.7L465.4,484.7z"/>
		</g>
	</g>
	<g>
		<g>
			<path class="st1" d="M488.5,476.5c3.7-1.1,7.2,1.4,7.3,5.3c0,1.4,2.3,1.5,2.3,0c-0.2-5.3-5-8.9-10.2-7.5
				C486.5,474.7,487.1,476.9,488.5,476.5L488.5,476.5z"/>
		</g>
	</g>
	<g>
		<g>
			<path class="st1" d="M515.3,491.2c1.6-1,3.5-1.1,5.2-0.1c1.2,0.8,2.4-1.2,1.1-1.9c-2.3-1.4-5.2-1.4-7.4,0.1
				C513,490.1,514.1,492,515.3,491.2L515.3,491.2z"/>
		</g>
	</g>
	<g>
		<g>
			<path class="st1" d="M466.5,516.9c2.4,4.3,6.5,7.4,11.3,8.7c1.9,0.5,2.7-2.4,0.8-2.9c-4.1-1.1-7.4-3.6-9.5-7.3
				C468.1,513.7,465.5,515.2,466.5,516.9L466.5,516.9z"/>
		</g>
	</g>
	<path class="st3" d="M445.9,469.6c2.2-3.8,7.5-11.9,17.7-17.5c7-3.9,13.6-5,17.6-5.4c2.2,2.9,5.8,6.7,11.1,9.1
		c12.5,5.7,22.6-1.8,30,3.2c3.9,2.6,7.8,8.9,6.3,26.1c6.6,6.8,11,7.2,13.4,6.7c10-2,17.2-24.5,10.9-40.9c-1.9-4.9-4.4-7.7-25.6-24.6
		c-29.9-23.8-33.6-25.2-37.5-26.1c-20.6-4.8-38.8,5.6-41.9,7.4c-4,2.3-4.9,3.4-27.8,27.5c-17.8,18.7-19.5,20.4-21.1,25
		c-4.2,11.6-3.4,28.4,7.3,40.7c10.1,11.5,23.7,13.2,27.2,13.6c-1.5-3.4-3.1-8.2-3.9-14.1c-1-7.6,0-13.9,0.9-18
		c-0.7-0.5-4.7-3.8-5-9.4c-0.2-4.1,1.7-9.3,6.1-11C436.5,460,443.2,462.9,445.9,469.6z"/>
	<path class="st3" d="M441.6,419.3c-4.1-8.1-16.1-9.3-18.2-9.5c-16.7-1.7-30.1,13.2-38,21.9c-14,15.5-10,20.1-23.6,38.8
		c-18,24.8-31.5,25.9-34.3,43c-0.2,1.3-2.7,18.5,8.7,28.9c9.8,9,25.6,9.1,36,3.7c14.1-7.3,12.9-22,23.1-46.7
		C415.3,451.2,449.5,434.9,441.6,419.3z"/>
	<path class="st21" d="M457.7,455.7c-3.2,8-7,20.7-6.8,36.6c0.3,25.4,10.7,44,15.9,52c-5.7-2.4-15.2-7.5-23.5-17.5
		c-3.4-4.1-11.4-13.8-13.5-28.7c-1-6.7-0.4-12.3,0.2-16.1c-0.6-0.5-4.7-4.2-4.5-10c0.1-3.8,2.1-8.9,6.4-10.4
		c4.8-1.7,11.4,1.4,14,8.1c1-2,2.4-4.5,4.5-7.1C453,459.5,455.6,457.3,457.7,455.7z"/>
	<path class="st22" d="M440.1,528.9c-0.8,1.8-1.7,3.6-2.8,5.4c-5,8.4-11.5,14-16.6,17.4c-1.8-1.1-4.2-2.8-6.6-5.4
		c-2.6-2.8-4.2-5.6-5.1-7.6c3.9-1.2,13.6-4.9,20.2-14.6c2.3-3.5,3.7-6.9,4.5-9.7C435.8,519.3,437.9,524.1,440.1,528.9z"/>
	<path class="st18" d="M431.3,480.3c0.5,6.9,1.8,15.9,5.2,26c4.7,13.7,11.5,23.8,16.7,30.2c-5.2-4.2-11.4-10.5-16.4-19.3
		c-3.3-5.9-8.2-14.4-7.6-26C429.4,486.7,430.4,482.9,431.3,480.3z"/>
	<path class="st23" d="M446.6,410.1c-4.2,4.1-30.4,30.5-26.8,68c1.5,16,7.9,28.1,12.5,35.2c-3.2-0.2-9.4-0.9-16.1-4.8
		c-6.7-3.9-10.5-9-12.2-11.6c-1.3-2.1-2.9-5.5-3.9-9.8c0,0-1.8-8.4,1.5-18.8C405.1,456.9,420.9,434.7,446.6,410.1z"/>
	<path class="st24" d="M392.5,426.3c2.3,1.5-10.4,28.2-24.4,51.5c-12.6,20.9-18.8,26.7-19.7,39.5c-0.9,13.3,4.7,24.7,9.7,32.4
		c-2.5,0.2-11.9,0.5-20.1-6c-4.5-3.6-6.9-7.8-8-10.4c-2.4-7-4.5-17.2-0.3-26.8c2.8-6.5,6.1-7,16.4-17.4c9.1-9.2,18.1-18.3,24.7-31.8
		c3.4-6.9,4.6-11.9,10.4-19.7C385,432.4,391.2,425.4,392.5,426.3z"/>
</g>
</svg>
