<svg xmlns="http://www.w3.org/2000/svg" data-name="Layer 1" width="784.94682" height="502.03373" viewBox="0 0 784.94682 502.03373" xmlns:xlink="http://www.w3.org/1999/xlink"><path d="M243.85694,618.51157c3.3177-26.67813,19.85136-52.96384,45.29423-61.64563a123.8632,123.8632,0,0,0,.00613,85.04047c3.90959,10.5753,9.35914,21.9305,5.68165,32.5888-2.28809,6.63189-7.88559,11.70586-14.14246,14.87849-6.25726,3.17263-13.20152,4.68476-20.05886,6.16664l-1.34957,1.11617C248.40213,672.07551,240.53923,645.1897,243.85694,618.51157Z" transform="translate(-208.02681 -198.40479)" fill="#f0f0f0"/><path d="M289.40364,557.37038a105.86975,105.86975,0,0,0-26.31905,59.58345,45.59121,45.59121,0,0,0,.5186,14.27515,26.14861,26.14861,0,0,0,6.50347,12.12824c2.93126,3.22058,6.30257,6.17543,8.39991,10.05247a16.01087,16.01087,0,0,1,.78221,13.07062c-1.85174,5.31109-5.5014,9.64009-9.21759,13.74946-4.12611,4.56266-8.48414,9.23647-10.238,15.28536-.21251.7329-1.33731.3603-1.12512-.3715,3.0515-10.524,13.26755-16.50187,18.13956-25.98072,2.27337-4.423,3.22758-9.55792,1.09633-14.22685-1.86368-4.08279-5.3376-7.13283-8.33374-10.36808a27.90242,27.90242,0,0,1-6.80085-11.62187,42.14814,42.14814,0,0,1-1.06551-14.20255,102.71271,102.71271,0,0,1,7.50152-31.21349,107.74686,107.74686,0,0,1,19.37431-31.04833c.5066-.56729,1.2873.32505.784.88864Z" transform="translate(-208.02681 -198.40479)" fill="#fff"/><path d="M263.40352,609.78346a15.88384,15.88384,0,0,1-12.09073-16.6389c.06037-.76,1.24414-.70184,1.18369.05912A14.70807,14.70807,0,0,0,263.775,608.65834c.74175.17635.366,1.30046-.37149,1.12512Z" transform="translate(-208.02681 -198.40479)" fill="#fff"/><path d="M268.40533,641.92a30.61478,30.61478,0,0,0,13.67134-17.63188c.2151-.73213,1.34-.35975,1.12512.37149a31.844,31.844,0,0,1-14.26357,18.31865c-.657.38974-1.18634-.67064-.53289-1.05826Z" transform="translate(-208.02681 -198.40479)" fill="#fff"/><path d="M274.98494,577.274a8.991,8.991,0,0,0,8.52044-.43252c.65176-.39787,1.18041.663.5329,1.05826a10.07518,10.07518,0,0,1-9.42484.49938.61234.61234,0,0,1-.37681-.7483.59543.59543,0,0,1,.74831-.37682Z" transform="translate(-208.02681 -198.40479)" fill="#fff"/><path d="M366.70462,604.51633c-.39991.26-.79981.52-1.2002.79a118.40776,118.40776,0,0,0-15.13965,11.81995c-.37011.33-.74023.67005-1.10009,1.01a124.82716,124.82716,0,0,0-27.10987,37.11005,121.22365,121.22365,0,0,0-6.64013,17.18c-2.4502,8.13-4.46,17.14-9.31006,23.79a20.79633,20.79633,0,0,1-1.62012,2H260.75442c-.09961-.05-.19971-.09-.2998-.14l-1.75.08c.07031-.31.1499-.63.22021-.94.04-.18.08985-.36.12988-.54.02979-.12.06006-.24.08008-.35.00977-.04.02-.08.02979-.11.02-.11.05029-.21.07031-.31q.65991-2.685,1.35986-5.37c0-.01,0-.01.00977-.02,3.59033-13.63,8.3501-27.08,15-39.38.20019-.37.3999-.75.62012-1.12a115.67333,115.67333,0,0,1,10.39013-15.76,102.26266,102.26266,0,0,1,6.81006-7.79,85.03654,85.03654,0,0,1,21.27979-15.94c15.72021-8.3,33.91992-11.48,50.72021-6.41C365.85452,604.24637,366.27493,604.37631,366.70462,604.51633Z" transform="translate(-208.02681 -198.40479)" fill="#f0f0f0"/><path d="M366.60608,605.07262a105.86972,105.86972,0,0,0-56.88764,31.72816,45.591,45.591,0,0,0-8.18056,11.71015,26.14855,26.14855,0,0,0-2.10938,13.59925c.40144,4.33627,1.31422,8.72532.65458,13.08366a16.0108,16.0108,0,0,1-7.24487,10.9071c-4.67615,3.12574-10.19656,4.38485-15.63784,5.42855-6.04151,1.15883-12.33511,2.26677-17.37736,6.04049-.61094.45724-1.2847-.51747-.67468-.974,8.77264-6.56563,20.52866-5.18785,30.12561-9.82289,4.47811-2.1628,8.33157-5.68824,9.44091-10.69928.97007-4.38194.03268-8.90876-.41173-13.29582a27.90248,27.90248,0,0,1,1.56708-13.374,42.14783,42.14783,0,0,1,7.70016-11.98145,102.71233,102.71233,0,0,1,24.78222-20.40579,107.74708,107.74708,0,0,1,34.16254-13.12569c.746-.14794.83213,1.03459.091,1.18156Z" transform="translate(-208.02681 -198.40479)" fill="#fff"/><path d="M314.29014,631.26766a15.88383,15.88383,0,0,1,.364-20.56468c.50575-.57044,1.41593.18867.90951.75986a14.70808,14.70808,0,0,0-.29949,19.13014c.48607.58739-.49073,1.25871-.974.67468Z" transform="translate(-208.02681 -198.40479)" fill="#fff"/><path d="M298.93539,659.93833a30.61479,30.61479,0,0,0,21.5314-5.847c.61254-.45506,1.28648.5195.67469.974a31.844,31.844,0,0,1-22.41776,6.03876c-.75924-.08439-.54345-1.24973.21167-1.1658Z" transform="translate(-208.02681 -198.40479)" fill="#fff"/><path d="M343.11021,612.28348a8.991,8.991,0,0,0,7.06351,4.78455c.75993.07472.54332,1.24-.21167,1.1658a10.07516,10.07516,0,0,1-7.82586-5.27567.61233.61233,0,0,1,.14967-.82435.59542.59542,0,0,1,.82435.14967Z" transform="translate(-208.02681 -198.40479)" fill="#fff"/><polygon points="395.019 487.713 406.639 483.804 397.089 437.124 379.94 442.894 395.019 487.713" fill="#ffb6b6"/><path d="M598.8053,683.32138,602.076,682.221l11.02244-9.48846,8.59057,2.88994.00093-.00031a15.38729,15.38729,0,0,1,19.48912,9.67748l.15942.47391-37.4672,12.60517Z" transform="translate(-208.02681 -198.40479)" fill="#2f2e41"/><polygon points="338.645 480.031 350.576 482.853 367.135 438.177 349.527 434.013 338.645 480.031" fill="#ffb6b6"/><path d="M544.54955,673.82109l3.35818.79413,14.37178-2.2309,5.76606,6.993.00095.00023a15.38729,15.38729,0,0,1,11.43194,18.5146l-.11509.48658-38.46973-9.09731Z" transform="translate(-208.02681 -198.40479)" fill="#2f2e41"/><rect x="445.07618" y="637.0413" width="21.04716" height="34.87815" transform="translate(703.17271 1110.55596) rotate(-180)" fill="#cacaca"/><rect x="486.56905" y="644.10306" width="4.81099" height="61.04491" transform="translate(-551.84834 502.03514) rotate(-55.84051)" fill="#cacaca"/><rect x="391.70252" y="672.22002" width="61.04491" height="4.81099" transform="translate(-513.98595 155.06438) rotate(-34.15969)" fill="#cacaca"/><circle cx="306.20433" cy="493.35913" r="6.61482" fill="#cacaca"/><circle cx="247.27228" cy="493.35913" r="6.61482" fill="#cacaca"/><circle cx="188.94158" cy="493.35913" r="6.61482" fill="#cacaca"/><rect x="244.86689" y="459.08233" width="4.81078" height="34.2768" fill="#cacaca"/><rect x="451.08966" y="606.37258" width="9.02021" height="46.30375" transform="translate(703.17271 1060.64412) rotate(-180)" fill="#cacaca"/><path d="M409.74182,613.58875V602.76449a7.52531,7.52531,0,0,1,7.51684-7.51684h70.29028a7.52532,7.52532,0,0,1,7.51685,7.51684v10.82426a7.52532,7.52532,0,0,1-7.51685,7.51684H417.25866A7.52531,7.52531,0,0,1,409.74182,613.58875Z" transform="translate(-208.02681 -198.40479)" fill="#3f3d56"/><path d="M367.32638,593.6271l-45.38015-78.02687a11.10661,11.10661,0,0,1,4.01252-15.16765l2.65242-1.54264a11.10661,11.10661,0,0,1,15.16765,4.01253L389.159,580.92933a11.10662,11.10662,0,0,1-4.01253,15.16765l-2.65242,1.54264A11.10661,11.10661,0,0,1,367.32638,593.6271Z" transform="translate(-208.02681 -198.40479)" fill="#3f3d56"/><path d="M410.03773,613.21634a37.04192,37.04192,0,0,1-37-37h4a33.00376,33.00376,0,0,0,52.00708,26.98l2.30664,3.26758A36.76237,36.76237,0,0,1,410.03773,613.21634Z" transform="translate(-208.02681 -198.40479)" fill="#3f3d56"/><path d="M452.03773,557.21634s112-34,129,8,33,90,33,90l-22,7-43-72s-103.64567,26-125.32284-4.5Z" transform="translate(-208.02681 -198.40479)" fill="#2f2e41"/><path d="M371.03773,472.21634l-26-2-5,32s32,83,87,91l52-47-57.59055-21.45669Z" transform="translate(-208.02681 -198.40479)" fill="#6c63ff"/><circle cx="352.81371" cy="422.77753" r="33.99546" transform="translate(-359.7156 3.70199) rotate(-26.52984)" fill="#ffb8b8"/><path d="M362.2461,457.99342c-1.56957,1.31269-3.93428,2.00458-7.16866,2.1049a43.51287,43.51287,0,0,1-42.91077-30.63048c-1.41646-4.5786-2.61616-11.40852-.288-17.94638,1.67428-4.69883,4.9615-8.63967,7.91134-11.96479,2.55338-2.879,5.218-5.69953,7.92094-8.38147,3.22881-3.20581,7.07781-6.76606,11.90555-8.43832,3.53755-1.22466,7.32908-1.33391,10.99583-1.43937,1.27755-.03728,2.59949-.07476,3.88346-.16068a22.69641,22.69641,0,0,0,9.19841-2.29387,4.67109,4.67109,0,0,1,3.86743-.24911,4.75349,4.75349,0,0,1,2.77645,2.79954c.46361,1.25454.88117,2.38591,2.29983,2.80352a3.23956,3.23956,0,0,0,2.9604-.67832,1.677,1.677,0,0,1,1.563-.34218,1.70948,1.70948,0,0,1,1.16229,1.10051l.11646.34436a2.18088,2.18088,0,0,1,2.0144-.24232,2.23482,2.23482,0,0,1,1.46034,2.38657,22.404,22.404,0,0,1-4.70912,11.38723,21.82059,21.82059,0,0,1-6.532,5.43753l-.40247.222-.27826-.4191c-11.29744,4.17413-14.7474,16.01052-14.1895,25.777l-.9883.13273a2.41921,2.41921,0,0,0-1.13446-1.52352,2.9407,2.9407,0,0,0-2.22027-.38627,3.80789,3.80789,0,0,0-2.64837,3.29324,5.65155,5.65155,0,0,0,1.5611,4.28194,15.33929,15.33929,0,0,0,4.043,2.88348c.67787.38279,1.37934.77894,2.04374,1.21373a18.31123,18.31123,0,0,1,7.62046,10.61979c.51575,1.99388.81181,4.83859-.70643,7.067A6.0716,6.0716,0,0,1,362.2461,457.99342Z" transform="translate(-208.02681 -198.40479)" fill="#2f2e41"/><path d="M585.46176,578.09508c-5.23261,45.00689-16.424,87.12126-16.424,87.12126l-21-3,4.783-84.8722" transform="translate(-208.02681 -198.40479)" fill="#2f2e41"/><path d="M378.38978,428.23538a4.70926,4.70926,0,0,1-4.49391-3.313c-13.64474-7.111-6.43106-12.1257-5.49145-17.771A4.69915,4.69915,0,0,1,371.507,401.274l13.94922-4.311a4.70446,4.70446,0,0,1,5.87841,3.103l5.4917,17.771a4.70513,4.70513,0,0,1-3.10278,5.87744l-13.94922,4.311A4.68819,4.68819,0,0,1,378.38978,428.23538Z" transform="translate(-208.02681 -198.40479)" fill="#3f3d56"/><path d="M387.50474,396.34682a4.72509,4.72509,0,0,1,4.54823,3.33134l5.78532,18.16973a4.91727,4.91727,0,0,1-.27433,3.68514,4.70146,4.70146,0,0,1-2.73038,2.40352l-3.13651,1.0522-8.70921-27.35169,3.136-1.05219A4.57233,4.57233,0,0,1,387.50474,396.34682Z" transform="translate(-208.02681 -198.40479)" fill="#6c63ff"/><path d="M315.39857,438.35794a3.04371,3.04371,0,0,1-2.90552-2.14209l-1.45312-4.70215a3.039,3.039,0,0,1,2.00659-3.80078l62.98242-19.46338a3.039,3.039,0,0,1,3.80151,2.00684l1.45288,4.70166a3.04245,3.04245,0,0,1-2.00634,3.80078L316.29432,438.2222A3.02251,3.02251,0,0,1,315.39857,438.35794Z" transform="translate(-208.02681 -198.40479)" fill="#3f3d56"/><path d="M486.73,585.5654h-9.38458a4.716,4.716,0,0,1-4.70764-4.45269l-1.59205-28.27393a4.71275,4.71275,0,0,1,4.70763-4.97946h12.5687a4.71277,4.71277,0,0,1,4.70763,4.97971l-1.59206,28.27368A4.716,4.716,0,0,1,486.73,585.5654Z" transform="translate(-208.02681 -198.40479)" fill="#e4e4e4"/><polygon points="284.652 356.001 284.532 358.096 263.49 358.096 263.369 356.001 284.652 356.001" fill="#cacaca"/><polygon points="284.385 360.714 284.27 362.809 263.752 362.809 263.636 360.714 284.385 360.714" fill="#cacaca"/><polygon points="284.124 365.427 284.003 367.522 264.019 367.522 263.898 365.427 284.124 365.427" fill="#cacaca"/><polygon points="283.856 370.141 283.736 372.235 264.286 372.235 264.165 370.141 283.856 370.141" fill="#cacaca"/><polygon points="283.589 374.854 283.474 376.949 264.548 376.949 264.433 374.854 283.589 374.854" fill="#cacaca"/><polygon points="283.327 379.567 283.207 381.662 264.815 381.662 264.694 379.567 283.327 379.567" fill="#cacaca"/><ellipse cx="274.27277" cy="350.50193" rx="3.40402" ry="0.78554" fill="#cacaca"/><path d="M482.55733,549.69226a.78551.78551,0,0,1-.78554-.78555v-14.878h-4.971a.78555.78555,0,0,1,0-1.57109h5.75656a.7855.7855,0,0,1,.78555.78555v15.66355A.78551.78551,0,0,1,482.55733,549.69226Z" transform="translate(-208.02681 -198.40479)" fill="#cacaca"/><path d="M479.87039,562.58367a10.05574,10.05574,0,0,0-15.151,2.86426l-35.181-6.26711,7.34581,17.055,32.28228,3.33664a10.11027,10.11027,0,0,0,10.70387-16.98878Z" transform="translate(-208.02681 -198.40479)" fill="#ffb6b6"/><path d="M456.99549,579.7637l-64.47705-5.06885-.12866-.24365c-.24634-.46582-24.67627-46.74414-28.271-57.3623a29.68073,29.68073,0,0,1,.04883-19.74121l.06519-.1543.14526-.084a15.062,15.062,0,0,1,18.61084,2.91846,106.6879,106.6879,0,0,1,23.58838,42.88135l2.51147,9.06348,46.13038,10.33252Z" transform="translate(-208.02681 -198.40479)" fill="#6c63ff"/><path id="af4baad4-c88d-44ba-bf25-f9ac1002d243-104" data-name="Rectangle 1" d="M704.79518,241.47848l287.178-41.917v274.979l-287.178-41.916Z" transform="translate(-208.02681 -198.40479)" fill="#f2f2f2"/><path d="M992.97363,475.69629l-289.17871-42.207V240.61377l289.17871-42.209ZM705.79492,431.75977l285.17871,41.624V200.71826l-285.17871,41.625Z" transform="translate(-208.02681 -198.40479)" fill="#3f3d56"/><path id="ff4ff120-a9b9-45f5-a9d3-5a86b5774f09-105" data-name="Path 1" d="M840.54618,296.35948c-.427-.972-.874-1.959-1.352-2.909a24.9934,24.9934,0,0,0-1.543-2.688,11.93331,11.93331,0,0,0-1.808-2.161,6.2601,6.2601,0,0,0-2.146-1.332,5.15006,5.15006,0,0,0-2.707-.18,8.46518,8.46518,0,0,0-2.664,1.059,18.0457,18.0457,0,0,0-2.56,1.867c-.829.708-1.631,1.481-2.4,2.247q-3.426,3.424-6.749,6.939-3.3,3.494-6.506,7.076-3.181,3.561-6.266,7.208-3.067,3.627-6.036,7.338l.009.146,4.639-.576,4.7-.583,4.756-.59,4.816-.6c1.169-.145,2.352-.295,3.535-.49a33.22669,33.22669,0,0,0,3.545-.761,21.179,21.179,0,0,0,3.474-1.29,17.49971,17.49971,0,0,0,3.316-2.067c.406-.322.81-.669,1.216-1.013s.816-.684,1.232-.989a7.86667,7.86667,0,0,1,1.277-.782,4.07329,4.07329,0,0,1,1.351-.391,3.60011,3.60011,0,0,1,1.682.256,5.91206,5.91206,0,0,1,1.564.958,11.361,11.361,0,0,1,1.432,1.444,21.02624,21.02624,0,0,1,1.286,1.712,67.4064,67.4064,0,0,1,6.152,11.76c1.8,4.262,3.4,8.755,5.053,13.211,1.657,4.475,3.358,8.913,5.344,13.053a51.84535,51.84535,0,0,0,7.1,11.332q-2.674-9.087-5.58-17.943-2.891-8.811-6-17.374-3.099-8.516-6.399-16.765-3.284-8.2-6.765-16.122Z" transform="translate(-208.02681 -198.40479)" fill="#fff"/><path id="aabaacff-0bee-43d0-a5f7-3609016c3fe5-106" data-name="Path 2" d="M777.95918,297.98448l-.071.082-.071.082-.071.081-.071.081q-.261.215-.52.436t-.516.445q-.257.225-.512.452l-.509.456q-.477.429-.95.865t-.941.88q-.468.444-.932.9t-.924.911q-.914.913-1.811,1.855t-1.774,1.907q-.877.968-1.737,1.966t-1.7,2.022q-.436.531-.866,1.07t-.855,1.084q-.425.545-.844,1.1t-.835,1.107l-.06-.1-.059-.1-.058-.1-.053-.114-.014-.026-.014-.026-.013-.026-.013-.027a17.94246,17.94246,0,0,1-1.386-3.6,22.065,22.065,0,0,1-.683-4,23.909,23.909,0,0,1,.034-4.162,22.7648,22.7648,0,0,1,.771-4.1,19.07361,19.07361,0,0,1,1.456-3.662,14.30056,14.30056,0,0,1,2-2.9,10.01733,10.01733,0,0,1,2.421-1.99,7.26511,7.26511,0,0,1,2.72-.934,6.51117,6.51117,0,0,1,2.77.251,7.82807,7.82807,0,0,1,2.561,1.4,11.07413,11.07413,0,0,1,2.207,2.439,15.74209,15.74209,0,0,1,1.706,3.375l.008.021.008.022.008.022.007.021.048.133.047.134.046.135Z" transform="translate(-208.02681 -198.40479)" fill="#6c63ff"/><path id="bb114f98-b27e-4f6c-8dcb-dec1941c81cb-107" data-name="Path 3" d="M778.95719,388.37448q1.589.178,3.184.438t3.2.6q1.609.344,3.222.771t3.238.94a80.149,80.149,0,0,1,9.777,3.838,92.04963,92.04963,0,0,1,9.754,5.325,106.65134,106.65134,0,0,1,9.653,6.825,123.65562,123.65562,0,0,1,9.46,8.329q1.554,1.511,3.083,3.1t3.039,3.262q1.51,1.673,2.991,3.422t2.939,3.58l.357.45.356.453.355.455.354.457a.29.29,0,0,0,.239.133.286.286,0,0,0,.208-.119.458.458,0,0,0,.094-.266.479.479,0,0,0-.1-.31q-1.45-1.878-2.933-3.682t-2.992-3.522q-1.5-1.72-3.037-3.365t-3.084-3.2q-1.549-1.556-3.121-3.034t-3.155-2.87q-1.583-1.392-3.186-2.7t-3.213-2.537q-1.613-1.228-3.239-2.375t-3.256-2.211q-1.629-1.06-3.269-2.039t-3.278-1.875q-1.636-.891-3.279-1.7t-3.279-1.53q-1.634-.723-3.277-1.362t-3.272-1.194q-1.628-.553-3.254-1.023t-3.24-.854q-1.614-.384-3.224-.686t-3.205-.521l-.4-.054-.4-.051-.408-.048-.402-.045a.179.179,0,0,0-.1.028.26789.26789,0,0,0-.08.081.42285.42285,0,0,0-.052.121.56833.56833,0,0,0-.02.152.59906.59906,0,0,0,.02.15.49275.49275,0,0,0,.053.129.32781.32781,0,0,0,.08.092.19988.19988,0,0,0,.1.042Z" transform="translate(-208.02681 -198.40479)" fill="#fff"/><path id="e686dcc4-3a5c-45d7-a372-f96757b2bc76-108" data-name="Path 4" d="M777.95818,363.19548q2.839.405,5.708.825t5.8.89q2.928.471,5.883,1,2.971.54,5.967,1.168,3.02.6,6.059,1.363,3.055.763,6.127,1.684,3.088.926,6.19,2.012,3.116,1.101,6.244,2.358,2.781,1.121,5.55,2.445t5.544,2.855q2.775,1.54,5.526,3.283t5.5,3.705q2.57,1.841,5.083,3.9t4.979,4.35q2.466,2.291,4.858,4.793t4.718,5.228q2.3,2.691,4.46,5.613t4.2,6.08q2.031,3.158,3.906,6.52t3.589,6.931q.213.45.423.9t.417.909q.207.456.411.915t.4.921a.4.4,0,0,0,.222.235.27805.27805,0,0,0,.247-.035.4.4,0,0,0,.161-.233.548.548,0,0,0-.037-.359q-1.621-3.684-3.427-7.188t-3.778-6.778q-1.964-3.283-4.089-6.355t-4.379-5.891q-2.271-2.838-4.636-5.47t-4.794-5.031q-2.429-2.4-4.933-4.583t-5.049-4.127q-2.654-2.026-5.346-3.853t-5.388-3.436q-2.7-1.611-5.417-3.021t-5.434-2.607q-3.144-1.372-6.282-2.568-3.12-1.19-6.231-2.2-3.102-1.015-6.178-1.853-3.064-.834-6.113-1.5-3.054-.7-6.083-1.287-3.012-.588-6-1.091-2.969-.5-5.91-.948-2.918-.443-5.818-.854l-.715-.1-.713-.1-.712-.105-.71-.1a.181.181,0,0,0-.188.1.522.522,0,0,0-.062.261.63008.63008,0,0,0,.063.282A.257.257,0,0,0,777.95818,363.19548Z" transform="translate(-208.02681 -198.40479)" fill="#fff"/><path id="b63e2850-e30b-4f93-aa42-78b25661d067-109" data-name="Path 5" d="M904.30418,425.05648q-.46-.8-.917-1.607t-.912-1.607q-.455-.8-.907-1.606t-.9-1.606q-3.653-6.527-7.156-13.074-3.484-6.511-6.823-13.047-3.322-6.5-6.5-13.031-3.166-6.5-6.2-13.026-2.051-4.416-4.037-8.843t-3.9-8.838q-1.912-4.412-3.762-8.837t-3.63-8.838q-.848-2.1-1.682-4.2t-1.652-4.2q-.818-2.1-1.622-4.2t-1.593-4.2q-.612-1.628-1.216-3.258t-1.2-3.259q-.595-1.629-1.181-3.259t-1.164-3.26q-.165-.466-.328-.932t-.324-.933q-.161-.467-.321-.934l-.319-.935q-.375-1.1-.748-2.2t-.748-2.194q-.375-1.094-.757-2.181t-.774-2.162c-.3-.816-.612-1.641-.95-2.452s-.7-1.606-1.089-2.365a19.10552,19.10552,0,0,0-1.271-2.14,11.69105,11.69105,0,0,0-1.5-1.78,6.12277,6.12277,0,0,0-.772-.657,5.33434,5.33434,0,0,0-.83-.488,4.812,4.812,0,0,0-.874-.313,4.55519,4.55519,0,0,0-.905-.133,4.3149,4.3149,0,0,0-1.283.18,6.35863,6.35863,0,0,0-1.232.516,11.05758,11.05758,0,0,0-1.185.75c-.388.277-.768.577-1.142.881q-4.095,3.365-8,7.012-3.873,3.621-7.55,7.512-3.653,3.864-7.107,7.985-3.433,4.094-6.666,8.434-3.219,4.3-6.23,8.806-2.994,4.484-5.781,9.17-2.772,4.661-5.337,9.515-2.545,4.823-4.885,9.835a.268.268,0,0,1-.178.169.22.22,0,0,1-.191-.062.40009.40009,0,0,1-.119-.217.47709.47709,0,0,1,.038-.3q.284-.609.571-1.216t.579-1.207q.291-.6.584-1.206t.591-1.2q3.707-7.474,7.883-14.513,4.2-7.087,8.875-13.707,4.706-6.67,9.876-12.839,5.215-6.219,10.892-11.9.96-.959,1.933-1.9t1.961-1.869q.988-.927,1.989-1.837t2.016-1.805q.512-.451,1.027-.9t1.034-.892q.519-.444,1.042-.88t1.052-.862a10.64031,10.64031,0,0,1,1.045-.842,9.43178,9.43178,0,0,1,1.1-.666,8.48832,8.48832,0,0,1,1.141-.488,7.79054,7.79054,0,0,1,1.173-.3,5.018,5.018,0,0,1,3.629,1.118,11.8158,11.8158,0,0,1,2.829,3.428,33.022,33.022,0,0,1,2.177,4.632c.635,1.622,1.186,3.255,1.682,4.714q.234.689.469,1.377t.473,1.377q.237.688.476,1.376t.48,1.375q.91,2.612,1.841,5.22t1.885,5.218q.954,2.611,1.929,5.218t1.974,5.217q.617,1.612,1.241,3.221t1.258,3.222q.634,1.612,1.276,3.222t1.289,3.219q2.03,5.027,4.139,10.036,2.116,5.027,4.312,10.038,2.2,5.03,4.489,10.046,2.294,5.035,4.672,10.058,3.164,6.684,6.473,13.338,3.327,6.69,6.8,13.354,3.5,6.7,7.149,13.382,3.674,6.719,7.509,13.421a.62594.62594,0,0,1,.08.375.56994.56994,0,0,1-.121.3.28.28,0,0,1-.227.116A.312.312,0,0,1,904.30418,425.05648Z" transform="translate(-208.02681 -198.40479)" fill="#fff"/><path id="be6f29ee-45a1-4b5e-b111-fe61a3bc9058-110" data-name="Path 6" d="M800.19218,307.61848l-.216-.349-.216-.349-.216-.349-.217-.349c-.572-.915-1.153-1.825-1.751-2.706s-1.214-1.737-1.855-2.531a22.90084,22.90084,0,0,0-2-2.212,14.36256,14.36256,0,0,0-2.2-1.751,8.91748,8.91748,0,0,0-1.122-.632,8.0595,8.0595,0,0,0-1.158-.44,7.53184,7.53184,0,0,0-1.184-.247,7.32487,7.32487,0,0,0-1.2-.051,9.04114,9.04114,0,0,0-1.234.208,9.584,9.584,0,0,0-1.213.379,10.41731,10.41731,0,0,0-1.185.546,11.52622,11.52622,0,0,0-1.149.709q-.268.177-.533.365t-.527.383q-.262.2-.521.4t-.516.413q-.293.24-.584.487t-.579.5q-.288.251-.575.505l-.571.509q-.535.479-1.065.966t-1.055.983q-.525.5-1.045,1t-1.035,1.016q-1.024,1.018-2.028,2.069t-1.985,2.13q-.981,1.079-1.943,2.191t-1.9,2.252q-.487.592-.968,1.191t-.956,1.206q-.475.607-.943,1.222t-.931,1.237q-.43.578-.855,1.162t-.844,1.175q-.419.59-.833,1.187t-.823,1.2a.2.2,0,0,1-.185.108.244.244,0,0,1-.163-.121.5.5,0,0,1-.074-.251.457.457,0,0,1,.077-.277l.216-.323.217-.318.218-.317.218-.315q.308-.444.619-.884t.625-.878q.314-.437.632-.871t.638-.864q.584-.787,1.178-1.56t1.2-1.536q.6-.757,1.212-1.507t1.236-1.487q.969-1.149,1.959-2.265t2-2.2q1.014-1.087,2.048-2.14t2.094-2.077q.529-.511,1.063-1.013t1.074-1q.54-.494,1.084-.979t1.095-.962l.333-.286q.167-.142.336-.282t.338-.278q.17-.138.34-.272.387-.318.782-.613t.8-.566q.4-.272.813-.519t.827-.471a9.15087,9.15087,0,0,1,1.2-.549,8.33138,8.33138,0,0,1,1.228-.353,7.8449,7.8449,0,0,1,1.244-.155,7.69913,7.69913,0,0,1,1.25.048,8.8079,8.8079,0,0,1,1.2.281,9.37675,9.37675,0,0,1,1.17.451,10.22762,10.22762,0,0,1,1.136.618,11.38173,11.38173,0,0,1,1.094.783,17.87074,17.87074,0,0,1,2.162,2.029,29.4112,29.4112,0,0,1,1.975,2.434c.634.864,1.245,1.771,1.844,2.7s1.186,1.875,1.77,2.818a.51991.51991,0,0,1,.072.309.58691.58691,0,0,1-.09.277.269.269,0,0,1-.178.133A.206.206,0,0,1,800.19218,307.61848Z" transform="translate(-208.02681 -198.40479)" fill="#fff"/><path id="f1703c2c-b32c-4f49-bbb5-823edaf9ca09-111" data-name="Path 7" d="M869.38518,347.45748l8.934-4.322,4.509-2.181q.55-.293,1.105-.567t1.119-.531q.563-.257,1.133-.494t1.144-.457a5.63511,5.63511,0,0,1,1.02-.28,5.43594,5.43594,0,0,1,2.074.039,5.78,5.78,0,0,1,1.021.32,8.53423,8.53423,0,0,1,.88.5,9.24217,9.24217,0,0,1,.837.613,10.09782,10.09782,0,0,1,.788.722,10.99488,10.99488,0,0,1,.733.825q.359.438.706.893t.682.927q.335.472.656.961t.63.994q.383.608.765,1.22t.762,1.227l.761,1.231.763,1.233q1.578,2.549,3.158,5.116t3.172,5.165q1.591,2.6,3.185,5.214t3.2,5.263q1.6,2.647,3.212,5.313t3.225,5.363q1.618,2.7,3.238,5.414t3.251,5.465q1.635,2.755,3.272,5.53t3.285,5.581q1.648,2.807,3.3,5.633t3.312,5.686l.407.7.407.7.407.7.407.7a.44694.44694,0,0,0,.274.225.372.372,0,0,0,.289-.049.4.4,0,0,0,.175-.245.487.487,0,0,0-.066-.362q-1.678-2.893-3.353-5.766t-3.34-5.713q-1.664-2.839-3.326-5.659t-3.313-5.6q-1.655-2.793-3.307-5.568t-3.293-5.514q-1.641-2.741-3.28-5.463t-3.27-5.411q-1.628-2.689-3.253-5.36t-3.239-5.309q-1.614-2.638-3.226-5.258t-3.212-5.207l-.8-1.289-.8-1.286-.8-1.283-.8-1.28q-.335-.539-.67-1.079t-.675-1.071q-.341-.531-.69-1.05t-.715-1.018a20.41149,20.41149,0,0,0-1.423-1.749,12.43593,12.43593,0,0,0-1.584-1.469,7.60859,7.60859,0,0,0-1.732-1.021,5.32893,5.32893,0,0,0-1.9-.406,9.65866,9.65866,0,0,0-1.15.122,9.865,9.865,0,0,0-1.132.258,10.23244,10.23244,0,0,0-1.106.392,10.7975,10.7975,0,0,0-1.074.524l-1.149.554-1.145.555-1.141.555-1.134.553-9.046,4.385-2.23,1.082a.389.389,0,0,0-.2.243.68511.68511,0,0,0-.015.333.46808.46808,0,0,0,.134.261A.216.216,0,0,0,869.38518,347.45748Z" transform="translate(-208.02681 -198.40479)" fill="#fff"/><path id="b0037319-74a5-4008-9317-45f3792eb6f0-112" data-name="Path 8" d="M779.83918,293.28248l-.417.5a15.64893,15.64893,0,0,0-2.992-4.15,10.23407,10.23407,0,0,0-3.619-2.327,8.04112,8.04112,0,0,0-3.921-.41,9.25106,9.25106,0,0,0-3.911,1.588,13.864,13.864,0,0,0-3.39,3.417,20.64,20.64,0,0,0-2.472,4.734,26.72528,26.72528,0,0,0-1.414,5.631,29.235,29.235,0,0,0-.209,6.128,27.6687,27.6687,0,0,0,.378,3.04,25.26161,25.26161,0,0,0,.694,2.871,22.05149,22.05149,0,0,0,.994,2.645,18.46805,18.46805,0,0,0,1.277,2.363l-.353.552a19.24342,19.24342,0,0,1-1.329-2.461,22.966,22.966,0,0,1-1.035-2.753,26.30809,26.30809,0,0,1-.721-2.988,28.81631,28.81631,0,0,1-.393-3.164,30.441,30.441,0,0,1,.218-6.377,27.8361,27.8361,0,0,1,1.47-5.861,21.49991,21.49991,0,0,1,2.571-4.929,14.449,14.449,0,0,1,3.528-3.56,9.64,9.64,0,0,1,4.072-1.659,8.373,8.373,0,0,1,4.084.422,10.64811,10.64811,0,0,1,3.771,2.42A16.286,16.286,0,0,1,779.83918,293.28248Z" transform="translate(-208.02681 -198.40479)" fill="#fff"/><path id="aafff38a-0033-470b-af8f-2720d14bfd24-113" data-name="Path 9" d="M822.03018,344.69248a1.55035,1.55035,0,0,1-.233-.259,1.9516,1.9516,0,0,1-.187-.321,2.342,2.342,0,0,1-.135-.371,2.64667,2.64667,0,0,1-.077-.409,2.77165,2.77165,0,0,1-.014-.422,2.70636,2.70636,0,0,1,.05-.411,2.467,2.467,0,0,1,.11-.386,2.08836,2.08836,0,0,1,.168-.346l-1.736-25.1,2.9.2.808,24.8a2.13293,2.13293,0,0,1,.281.589,2.68008,2.68008,0,0,1,.114.673,2.7516,2.7516,0,0,1-.057.686,2.30791,2.30791,0,0,1-.23.63,1.63676,1.63676,0,0,1-.372.467,1.12095,1.12095,0,0,1-.444.246.947.947,0,0,1-.48,0A1.14882,1.14882,0,0,1,822.03018,344.69248Z" transform="translate(-208.02681 -198.40479)" fill="#9e616a"/><path id="e5744499-f715-4e36-9399-61aee0985ddd-114" data-name="Path 10" d="M824.06018,315.62448l-.765,8.376.106,5.12-3.194.453-.637-4.232-.353-11.21a4.768,4.768,0,0,1,.129-1.259,4.053,4.053,0,0,1,.423-1.079,2.89121,2.89121,0,0,1,.661-.8,1.93493,1.93493,0,0,1,.84-.411h0a1.63,1.63,0,0,1,.913.076,2.1,2.1,0,0,1,.79.553,3.16293,3.16293,0,0,1,.585.942,4.32309,4.32309,0,0,1,.3,1.243Z" transform="translate(-208.02681 -198.40479)" fill="#2f2e41"/><path id="a9ca9720-7309-4a38-9680-36d71a5e15ab-115" data-name="Path 11" d="M811.94818,388.39648l-1.884-.128-.893-10.653,2.777.149Z" transform="translate(-208.02681 -198.40479)" fill="#9e616a"/><path id="bee5ad7f-ff29-4d45-ab11-22ff698eac35-116" data-name="Path 12" d="M812.42918,391.10248l-6.048-.429v-.112a4.71584,4.71584,0,0,1,.184-1.324,3.5377,3.5377,0,0,1,.5-1.058,2.29994,2.29994,0,0,1,.745-.687,1.6419,1.6419,0,0,1,.914-.21h0l3.706.245Z" transform="translate(-208.02681 -198.40479)" fill="#2f2e41"/><path id="a21bf55f-1c38-45bb-a579-610ecd01da49-117" data-name="Path 13" d="M827.86718,389.47048l-1.963-.134-.931-10.876,2.894.156Z" transform="translate(-208.02681 -198.40479)" fill="#9e616a"/><path id="e08b6af7-be9b-47f0-ac97-9ea1ae8db3f0-118" data-name="Path 14" d="M828.36619,392.23248l-6.3-.447v-.114a4.71457,4.71457,0,0,1,.191-1.351,3.57352,3.57352,0,0,1,.522-1.079,2.3729,2.3729,0,0,1,.776-.7,1.737,1.737,0,0,1,.952-.213h0l3.859.256Z" transform="translate(-208.02681 -198.40479)" fill="#2f2e41"/><path id="ec3ccaec-a5a5-4434-ae33-6511140caff3-119" data-name="Ellipse 1" d="M820.28818,294.58048a2.99206,2.99206,0,0,1,1.632.386,4.17612,4.17612,0,0,1,1.338,1.227,6.30019,6.30019,0,0,1,.9,1.882,8.2188,8.2188,0,0,1,.332,2.348,8.54643,8.54643,0,0,1-.332,2.379,7.01961,7.01961,0,0,1-.9,1.968,4.8,4.8,0,0,1-1.338,1.353,3.21689,3.21689,0,0,1-1.632.54,3.00593,3.00593,0,0,1-1.625-.41,4.21685,4.21685,0,0,1-1.322-1.237,6.33419,6.33419,0,0,1-.89-1.873,8.22713,8.22713,0,0,1-.325-2.325,8.55245,8.55245,0,0,1,.325-2.355,7.05439,7.05439,0,0,1,.889-1.958,4.85011,4.85011,0,0,1,1.323-1.357A3.24216,3.24216,0,0,1,820.28818,294.58048Z" transform="translate(-208.02681 -198.40479)" fill="#9e616a"/><path id="e036711a-3868-4837-b3a6-788b0ed04356-120" data-name="Path 15" d="M819.74818,309.13548l2.914.375h0a12.90541,12.90541,0,0,1,.879,2.313,15.02778,15.02778,0,0,1,.464,2.525,16.04825,16.04825,0,0,1,.042,2.628,15.68682,15.68682,0,0,1-.393,2.614l-2.2,9.215s.191.549.477,1.5.669,2.31,1.051,3.925.767,3.491,1.054,5.476a43.23119,43.23119,0,0,1,.48,6.136,78.81318,78.81318,0,0,0,.916,9.357c.551,3.926,1.286,8.4,2.023,12.62s1.478,8.21,2.034,11.135.928,4.8.928,4.8l-8.281.735-3.561-31.228-4.85,30.587-5.463-1.626,3-39.934,1.994-13.224.085-6.457s-.053-.3-.1-.8a16.12392,16.12392,0,0,1-.06-2,12.77712,12.77712,0,0,1,.34-2.594,8.03014,8.03014,0,0,1,1.1-2.583l2.617-5.382Z" transform="translate(-208.02681 -198.40479)" fill="#cacaca"/><path id="bb8fbc15-773e-43e2-a398-6f49aea3cb57-121" data-name="Path 16" d="M815.44119,298.70648l6.12-.307v-3.875a10.0895,10.0895,0,0,0-1.001-.473,3.32412,3.32412,0,0,0-.941-.247,1.445,1.445,0,0,0-.836.161,1.783,1.783,0,0,0-.686.75,2.063,2.063,0,0,0-1.036.362,3.1,3.1,0,0,0-.844.871,4.52175,4.52175,0,0,0-.568,1.251A5.48151,5.48151,0,0,0,815.44119,298.70648Z" transform="translate(-208.02681 -198.40479)" fill="#2f2e41"/><path id="bfd64cff-ffcf-41c5-9f43-f81c5f9489c0-122" data-name="Path 17" d="M821.90718,293.82048a2.863,2.863,0,0,1,2.3.975,7.27591,7.27591,0,0,1,1.461,2.636,18.03539,18.03539,0,0,1,.767,3.389,24.5353,24.5353,0,0,1,.222,3.225,6.5924,6.5924,0,0,1-.12,1.347,2.98191,2.98191,0,0,1-.343.927,1.90006,1.90006,0,0,1-.539.587,2.30026,2.30026,0,0,1-.707.325l-.368-2.8-.861,2.971-.222.008-.227.006h-.467l-.291-.85-.647.871c-.647.026-1.262.085-1.821.1a4.179,4.179,0,0,1-1.479-.163,1.7,1.7,0,0,1-.993-.88,4.592,4.592,0,0,1-.365-2.047,26.602,26.602,0,0,1,.2-3.205,18.93718,18.93718,0,0,1,.721-3.425,8.008,8.008,0,0,1,1.433-2.768A3.279,3.279,0,0,1,821.90718,293.82048Z" transform="translate(-208.02681 -198.40479)" fill="#2f2e41"/><path id="a5e17919-4dc8-491b-a8f8-b724daf8bc20-123" data-name="Path 18" d="M816.48218,330.68548l-.154-9.691-.408-4.294-1.006,4.285Z" transform="translate(-208.02681 -198.40479)" opacity="0.2" style="isolation:isolate"/><path id="aba19b91-f9bc-42d8-9081-f302e7a60142-124" data-name="Path 19" d="M824.21718,329.31648l-4.64.046v-19.591l4.64-.164a2.453,2.453,0,0,1,1.313.336,3.45306,3.45306,0,0,1,1.075,1,5.14514,5.14514,0,0,1,.727,1.519,6.60522,6.60522,0,0,1,.268,1.885v10.076a6.73292,6.73292,0,0,1-.268,1.894,5.423,5.423,0,0,1-.727,1.552,3.69279,3.69279,0,0,1-1.075,1.052,2.53787,2.53787,0,0,1-1.313.4Z" transform="translate(-208.02681 -198.40479)" fill="#6c63ff"/><path id="ed07398e-425f-476c-be6b-a3651f18917c-125" data-name="Path 20" d="M823.56818,318.77448a.429.429,0,0,1-.228-.061.609.609,0,0,1-.186-.176.8999.8999,0,0,1-.126-.265,1.1579,1.1579,0,0,1-.047-.328v-7.309l1.174-.04v7.32a1.18214,1.18214,0,0,1-.046.33.95722.95722,0,0,1-.128.271.6531.6531,0,0,1-.187.185.446.446,0,0,1-.228.072Z" transform="translate(-208.02681 -198.40479)" fill="#3f3d56"/><path id="ebf3c613-bcbf-4092-85ba-c68bf9c5e996-126" data-name="Path 21" d="M824.98118,327.75948l-3.407.041a.54292.54292,0,0,1-.287-.08.778.778,0,0,1-.234-.225,1.15609,1.15609,0,0,1-.158-.335,1.465,1.465,0,0,1-.058-.413v-2.923a1.48515,1.48515,0,0,1,.058-.414,1.19992,1.19992,0,0,1,.158-.338.81412.81412,0,0,1,.234-.234.55705.55705,0,0,1,.287-.089l3.407-.063a.548.548,0,0,1,.29.079.777.777,0,0,1,.236.224,1.152,1.152,0,0,1,.16.337,1.46486,1.46486,0,0,1,.059.415v2.941a1.48281,1.48281,0,0,1-.059.416,1.2,1.2,0,0,1-.16.341.814.814,0,0,1-.236.233A.561.561,0,0,1,824.98118,327.75948Z" transform="translate(-208.02681 -198.40479)" fill="#3f3d56"/><path id="b7342335-cfca-46c4-a9d4-7ff25269ba84-127" data-name="Path 22" d="M815.35818,321.94748a10.09453,10.09453,0,0,1-.6-1.317,11.54181,11.54181,0,0,1-.431-1.438,12.6566,12.6566,0,0,1-.255-1.528,13.30108,13.30108,0,0,1-.072-1.583,14.72615,14.72615,0,0,1,.31-3.035,10.65842,10.65842,0,0,1,.841-2.5,5.5401,5.5401,0,0,1,1.249-1.721,2.473,2.473,0,0,1,1.534-.672,2.58783,2.58783,0,0,1,.927.209,3.14294,3.14294,0,0,1,.839.539,4.16086,4.16086,0,0,1,.717.834,5.46551,5.46551,0,0,1,.554,1.094l-.33.31a4.92656,4.92656,0,0,0-.489-.983,3.76245,3.76245,0,0,0-.638-.752,2.84186,2.84186,0,0,0-.751-.495,2.33088,2.33088,0,0,0-.829-.2,2.19993,2.19993,0,0,0-1.385.622,5.129,5.129,0,0,0-1.128,1.596,10.08432,10.08432,0,0,0-.76,2.325,14.04954,14.04954,0,0,0-.278,2.819,12.47552,12.47552,0,0,0,.065,1.486,11.90163,11.90163,0,0,0,.237,1.434,10.84873,10.84873,0,0,0,.4,1.351,9.49111,9.49111,0,0,0,.562,1.238Z" transform="translate(-208.02681 -198.40479)" fill="#6c63ff"/><path id="b7b642b4-9c5f-47de-b7a4-9ef0518be937-128" data-name="Path 23" d="M817.22418,345.65548a1.79392,1.79392,0,0,1-.242-.3,2.24655,2.24655,0,0,1-.189-.371,2.66939,2.66939,0,0,1-.131-.415,2.95121,2.95121,0,0,1-.067-.451,3.03415,3.03415,0,0,1,0-.46,2.91036,2.91036,0,0,1,.07-.443,2.6,2.6,0,0,1,.135-.41,2.15957,2.15957,0,0,1,.2-.362l-.855-27.459,3.133.458-.141,27.073a2.4401,2.4401,0,0,1,.28.665,2.95268,2.95268,0,0,1,.011,1.482,2.41709,2.41709,0,0,1-.283.666,1.67284,1.67284,0,0,1-.422.475,1.153,1.153,0,0,1-.5.219,1.02589,1.02589,0,0,1-.518-.046,1.312,1.312,0,0,1-.489-.32Z" transform="translate(-208.02681 -198.40479)" fill="#9e616a"/><path id="fb8e0b0f-20d5-4e98-8c73-aaf11f36490a-129" data-name="Path 24" d="M820.60918,314.18449l-1.172,9.062-.095,5.584-3.474.223-.516-4.657.077-12.241a5.17017,5.17017,0,0,1,.188-1.362,4.26673,4.26673,0,0,1,.5-1.141,2.97584,2.97584,0,0,1,.75-.815,1.99994,1.99994,0,0,1,.926-.379h0a1.7799,1.7799,0,0,1,.986.158,2.39982,2.39982,0,0,1,.833.668,3.63459,3.63459,0,0,1,.595,1.076,4.863,4.863,0,0,1,.271,1.38Z" transform="translate(-208.02681 -198.40479)" fill="#cacaca"/><path id="bc235a67-7b20-4a20-8858-2e3f29967952-130" data-name="Ellipse 2" d="M820.94518,395.96148a.773.773,0,0,1,.47-.528,1.91587,1.91587,0,0,1,.934-.1,5.09928,5.09928,0,0,1,1.267.322,8.97665,8.97665,0,0,1,1.469.726,10.48822,10.48822,0,0,1,1.4,1.015,8.25532,8.25532,0,0,1,1.075,1.1,4.29979,4.29979,0,0,1,.643,1.062,1.45094,1.45094,0,0,1,.105.886.776.776,0,0,1-.479.53,1.9521,1.9521,0,0,1-.947.092,5.19137,5.19137,0,0,1-1.277-.33,9.054,9.054,0,0,1-1.471-.735,10.4797,10.4797,0,0,1-1.392-1.013,8.191,8.191,0,0,1-1.062-1.1,4.26118,4.26118,0,0,1-.632-1.05A1.44809,1.44809,0,0,1,820.94518,395.96148Z" transform="translate(-208.02681 -198.40479)" fill="#fff"/><path id="b50bb785-b8db-4d08-96ef-ee58b0a94edf-131" data-name="Ellipse 3" d="M834.28019,396.10348a.672.672,0,0,1,.548-.408,2.07608,2.07608,0,0,1,.973.134,6.14373,6.14373,0,0,1,1.265.633,11.1304,11.1304,0,0,1,1.428,1.087,13.024,13.024,0,0,1,1.317,1.356,10.05877,10.05877,0,0,1,.969,1.364,4.96731,4.96731,0,0,1,.532,1.214,1.438,1.438,0,0,1,0,.905.675.675,0,0,1-.557.407,2.12108,2.12108,0,0,1-.985-.144,6.25363,6.25363,0,0,1-1.274-.645,11.22279,11.22279,0,0,1-1.424-1.1,13.00724,13.00724,0,0,1-1.307-1.35,9.98254,9.98254,0,0,1-.959-1.354,4.92583,4.92583,0,0,1-.526-1.202A1.43787,1.43787,0,0,1,834.28019,396.10348Z" transform="translate(-208.02681 -198.40479)" fill="#fff"/><path id="b534d4cc-211b-4c90-a5f7-10469ec4cf05-132" data-name="Ellipse 4" d="M840.48017,409.45048a.694.694,0,0,1,.542-.438,2.09981,2.09981,0,0,1,.989.089,6.12465,6.12465,0,0,1,1.3.578,11.03666,11.03666,0,0,1,1.477,1.03,12.88717,12.88717,0,0,1,1.379,1.307,9.9542,9.9542,0,0,1,1.028,1.331,4.933,4.933,0,0,1,.578,1.2,1.45,1.45,0,0,1,.029.915.7.7,0,0,1-.551.437,2.14408,2.14408,0,0,1-1-.1,6.23561,6.23561,0,0,1-1.311-.591,11.13225,11.13225,0,0,1-1.479-1.035,12.87419,12.87419,0,0,1-1.369-1.306,9.87758,9.87758,0,0,1-1.015-1.323,4.88939,4.88939,0,0,1-.568-1.188A1.449,1.449,0,0,1,840.48017,409.45048Z" transform="translate(-208.02681 -198.40479)" fill="#fff"/><path id="a5f32c8e-80f6-4d19-8d94-c7ef166aad5d-133" data-name="Ellipse 5" d="M853.77718,415.05248a.709.709,0,0,1,.56-.442,2.20791,2.20791,0,0,1,1.023.1,6.43651,6.43651,0,0,1,1.346.6,11.53151,11.53151,0,0,1,1.528,1.054,13.376,13.376,0,0,1,1.424,1.336,10.25111,10.25111,0,0,1,1.064,1.364,5.02157,5.02157,0,0,1,.6,1.225,1.452,1.452,0,0,1,.03.93.712.712,0,0,1-.57.441,2.257,2.257,0,0,1-1.037-.108,6.55453,6.55453,0,0,1-1.356-.61,11.6289,11.6289,0,0,1-1.53-1.066,13.35921,13.35921,0,0,1-1.415-1.338,10.16826,10.16826,0,0,1-1.047-1.352,4.9761,4.9761,0,0,1-.59-1.213A1.45111,1.45111,0,0,1,853.77718,415.05248Z" transform="translate(-208.02681 -198.40479)" fill="#fff"/><path id="a1534ae8-adba-47e7-9a6c-73e1b741057c-134" data-name="Path 25" d="M790.57218,301.74448a8.76,8.76,0,0,0-2.928-1.34,7.64411,7.64411,0,0,0-3.007-.121,8.54019,8.54019,0,0,0-2.928,1.056,11.38323,11.38323,0,0,0-2.693,2.197q2.342.509,4.691,1.127t4.722,1.352q2.374.735,4.751,1.581t4.776,1.813a19.04,19.04,0,0,1-1.894-1.858c-.606-.67-1.2-1.378-1.785-2.077s-1.18-1.388-1.792-2.025A14.40064,14.40064,0,0,0,790.57218,301.74448Z" transform="translate(-208.02681 -198.40479)" fill="#fff"/><path id="ea354f02-1fc1-46f1-9fac-9aa5a529dbd3-135" data-name="Path 26" d="M778.98118,303.52749l-.684.881q.087-.115.175-.227t.178-.221q.09-.109.182-.214t.184-.209Z" transform="translate(-208.02681 -198.40479)" fill="#f2f2f2"/><path id="f109d977-ca8a-46c1-80d5-cfdd41118b93-136" data-name="Path 27" d="M894.32818,347.81849a10.55606,10.55606,0,0,0-.67-1.138,9.46135,9.46135,0,0,0-.782-1,8.41312,8.41312,0,0,0-.881-.845,7.46353,7.46353,0,0,0-.959-.678l-1.278.056q3.654,8.581,7.987,16.718,4.359,8.185,9.39,15.884,5.067,7.751,10.8,14.969,5.782,7.272,12.231,13.956l-9.24-14.936-9.05-14.626-8.865-14.326Z" transform="translate(-208.02681 -198.40479)" fill="#fff"/><path d="M719.51151,700.43852h-510.294a1.19069,1.19069,0,0,1,0-2.38137h510.294a1.19068,1.19068,0,0,1,0,2.38137Z" transform="translate(-208.02681 -198.40479)" fill="#cacaca"/><path d="M385.13867,408.89648a2.50412,2.50412,0,0,1-2.37256-1.70556l-1.27246-3.79151a2.5,2.5,0,1,1,4.74024-1.59033l1.27246,3.79151a2.50393,2.50393,0,0,1-1.57471,3.166h-.00049A2.492,2.492,0,0,1,385.13867,408.89648Z" transform="translate(-208.02681 -198.40479)" fill="#3f3d56"/><path d="M388.043,418.9248a2.50323,2.50323,0,0,1-2.40088-1.81738l-1.09375-3.84765a2.50006,2.50006,0,0,1,4.80957-1.36719l1.09375,3.84765a2.5,2.5,0,0,1-1.72168,3.08838A2.51148,2.51148,0,0,1,388.043,418.9248Z" transform="translate(-208.02681 -198.40479)" fill="#3f3d56"/></svg>