<svg xmlns="http://www.w3.org/2000/svg" viewBox="0 0 750 500"><g id="freepik--background-complete--inject-16"><path d="M232.17,134.15H105.53V47.51H232.17Zm-125.64-1H231.17V48.51H106.53Z" style="fill:#ebebeb"></path><path d="M115.43,53.1a2.52,2.52,0,1,1-2.52-2.53A2.52,2.52,0,0,1,115.43,53.1Z" style="fill:#a6a6a6"></path><path d="M125.73,53.1a2.52,2.52,0,1,1-2.52-2.53A2.52,2.52,0,0,1,125.73,53.1Z" style="fill:#ebebeb"></path><path d="M136,53.1a2.52,2.52,0,1,1-2.52-2.53A2.52,2.52,0,0,1,136,53.1Z" style="fill:#B62BCE"></path><rect x="106.03" y="57.53" width="125.64" height="1" style="fill:#ebebeb"></rect><path d="M633.45,251.89l8.29-13.37L637.62,236a3.72,3.72,0,0,1-1.71-3.51,22.1,22.1,0,0,0,.08-2.3,3.77,3.77,0,0,1,2-3.44l4.24-2.27-7.44-13.87-4.24,2.27a3.68,3.68,0,0,1-3.85-.2,18,18,0,0,0-2.13-1.32,3.69,3.69,0,0,1-1.9-3.36l.15-4.82-15.72-.48-.15,4.83a3.71,3.71,0,0,1-2.13,3.23c-.37.17-.73.35-1.1.54l-1.06.61a3.68,3.68,0,0,1-3.85,0l-4.12-2.56-8.3,13.37,4.14,2.56a3.75,3.75,0,0,1,1.7,3.52,21.81,21.81,0,0,0-.08,2.29,3.76,3.76,0,0,1-2,3.43l-4.24,2.28,7.43,13.87,4.25-2.28a3.77,3.77,0,0,1,3.94.28q.94.65,2,1.2a3.69,3.69,0,0,1,2,3.36l-.15,4.86,15.73.49.15-4.83a3.73,3.73,0,0,1,2.18-3.24c.35-.17.7-.34,1-.53s.68-.37,1-.57a3.74,3.74,0,0,1,3.92,0Zm-11.89-10.81a12.89,12.89,0,1,1,4.55-15A12.89,12.89,0,0,1,621.56,241.08Z" style="fill:#ebebeb"></path><path d="M91.58,211.48a2.63,2.63,0,0,1,1.28,2.44c0,.27,0,.54,0,.81s0,.54,0,.81A2.63,2.63,0,0,1,91.58,218l-2.93,1.69,5.51,9.55,2.93-1.69a2.62,2.62,0,0,1,2.75.09,15.48,15.48,0,0,0,1.42.83,2.62,2.62,0,0,1,1.45,2.32v3.38h11v-3.38a2.62,2.62,0,0,1,1.45-2.32,15.48,15.48,0,0,0,1.42-.83,2.62,2.62,0,0,1,2.75-.09l2.93,1.69,5.5-9.55-2.94-1.7a2.61,2.61,0,0,1-1.27-2.42c0-.27,0-.54,0-.81s0-.54,0-.81a2.63,2.63,0,0,1,1.28-2.44l2.93-1.69-5.5-9.54-2.93,1.69a2.63,2.63,0,0,1-2.74-.1,15.55,15.55,0,0,0-1.43-.82,2.63,2.63,0,0,1-1.45-2.33v-3.37h-11v3.37a2.63,2.63,0,0,1-1.45,2.33,14.33,14.33,0,0,0-1.43.82,2.62,2.62,0,0,1-2.75.1l-2.92-1.69-5.51,9.54Zm16.63-5.79a9,9,0,1,1-9,9A9,9,0,0,1,108.21,205.69Z" style="fill:#ebebeb"></path><path d="M634.57,294.87a2.63,2.63,0,0,1,1.28,2.43c0,.27,0,.54,0,.82s0,.54,0,.81a2.64,2.64,0,0,1-1.27,2.43l-2.94,1.69,5.51,9.54,2.93-1.68a2.62,2.62,0,0,1,2.75.09,13.4,13.4,0,0,0,1.42.82,2.63,2.63,0,0,1,1.45,2.33v3.38h11v-3.38a2.63,2.63,0,0,1,1.45-2.33,13.4,13.4,0,0,0,1.42-.82,2.62,2.62,0,0,1,2.75-.09l2.93,1.68,5.51-9.54-2.95-1.7a2.63,2.63,0,0,1-1.27-2.42c0-.27,0-.54,0-.81s0-.55,0-.82a2.63,2.63,0,0,1,1.28-2.43l2.94-1.69-5.51-9.54-2.92,1.68a2.62,2.62,0,0,1-2.75-.09,15.55,15.55,0,0,0-1.43-.82,2.63,2.63,0,0,1-1.45-2.33V278.7h-11v3.38a2.63,2.63,0,0,1-1.45,2.33,15.55,15.55,0,0,0-1.43.82,2.62,2.62,0,0,1-2.75.09l-2.92-1.68-5.51,9.54Zm16.64-5.79a9,9,0,1,1-9,9A9,9,0,0,1,651.21,289.08Z" style="fill:#ebebeb"></path><path d="M632.4,93.57A38.17,38.17,0,1,1,594.65,49.8V88Z" style="fill:#dbdbdb"></path><path d="M640.59,80.2a38.11,38.11,0,0,1-.41,5.59L602.42,80.2V42A38.14,38.14,0,0,1,640.59,80.2Z" style="fill:#ebebeb"></path><rect x="610.92" y="101.05" width="28.42" height="1" style="fill:#c7c7c7"></rect><path d="M642.19,104.9a3.35,3.35,0,1,1,3.34-3.35A3.35,3.35,0,0,1,642.19,104.9Zm0-5.69a2.35,2.35,0,1,0,2.34,2.34A2.35,2.35,0,0,0,642.19,99.21Z" style="fill:#c7c7c7"></path><rect x="652.5" y="99.42" width="31.53" height="1.42" style="fill:#c7c7c7"></rect><rect x="652.5" y="102.26" width="17.85" height="1.42" style="fill:#c7c7c7"></rect><rect x="69.95" y="288.11" width="9.43" height="67.1" style="fill:#ebebeb"></rect><rect x="86.15" y="304.35" width="9.43" height="50.86" style="fill:#ebebeb"></rect><rect x="102.36" y="329.78" width="9.43" height="25.43" style="fill:#ebebeb"></rect><rect x="118.57" y="315.26" width="9.43" height="39.95" style="fill:#ebebeb"></rect><rect x="134.77" y="300.01" width="9.43" height="55.21" style="fill:#ebebeb"></rect><rect x="150.98" y="291.04" width="9.43" height="64.18" style="fill:#ebebeb"></rect><path d="M64.48,279.58l.11,18.91,0,18.91.08,37.81-.24-.24q13,0,26,0l26,0,26,.05,26,.14-26,.14-26,0-26,.06c-8.67,0-17.33,0-26,0h-.24v-.24l.08-37.81.05-18.91Z" style="fill:#ebebeb"></path><path d="M62.4,283.37a8.45,8.45,0,0,1,4.16,0,8.15,8.15,0,0,1-4.16,0Z" style="fill:#ebebeb"></path><path d="M62.4,289.12a8.15,8.15,0,0,1,4.16,0,8.15,8.15,0,0,1-4.16,0Z" style="fill:#ebebeb"></path><path d="M62.4,294.87a8.15,8.15,0,0,1,4.16,0,8.15,8.15,0,0,1-4.16,0Z" style="fill:#ebebeb"></path><path d="M62.4,300.62a7.43,7.43,0,0,1,2.08-.27,7.08,7.08,0,0,1,2.08.27,7.07,7.07,0,0,1-2.08.26A7.42,7.42,0,0,1,62.4,300.62Z" style="fill:#ebebeb"></path><path d="M62.4,306.36a7.42,7.42,0,0,1,2.08-.26,7.07,7.07,0,0,1,2.08.26,7.08,7.08,0,0,1-2.08.27A7.43,7.43,0,0,1,62.4,306.36Z" style="fill:#ebebeb"></path><path d="M62.4,312.11a8.45,8.45,0,0,1,4.16,0,8.15,8.15,0,0,1-4.16,0Z" style="fill:#ebebeb"></path><path d="M62.4,317.86a8.15,8.15,0,0,1,4.16,0,8.15,8.15,0,0,1-4.16,0Z" style="fill:#ebebeb"></path><path d="M62.4,323.61a8.15,8.15,0,0,1,4.16,0,8.15,8.15,0,0,1-4.16,0Z" style="fill:#ebebeb"></path><path d="M62.4,329.36a8.15,8.15,0,0,1,4.16,0,8.45,8.45,0,0,1-4.16,0Z" style="fill:#ebebeb"></path><path d="M62.4,335.1a8.45,8.45,0,0,1,4.16,0,8.15,8.15,0,0,1-4.16,0Z" style="fill:#ebebeb"></path><path d="M62.4,340.85a8.45,8.45,0,0,1,4.16,0,8.15,8.15,0,0,1-4.16,0Z" style="fill:#ebebeb"></path><path d="M62.4,346.6a8.15,8.15,0,0,1,4.16,0,8.15,8.15,0,0,1-4.16,0Z" style="fill:#ebebeb"></path></g><g id="freepik--Shadow--inject-16"><ellipse cx="375" cy="449.95" rx="286.91" ry="17.29" style="fill:#ebebeb"></ellipse></g><g id="freepik--Floor--inject-16"><polygon points="46.93 393.56 128.95 393.31 210.96 393.23 375 393.06 539.04 393.23 621.05 393.31 703.07 393.56 621.05 393.8 539.04 393.89 375 394.06 210.96 393.89 128.95 393.8 46.93 393.56" style="fill:#263238"></polygon></g><g id="freepik--Plant--inject-16"><path d="M652.31,334a247.7,247.7,0,0,1,.36-26.42A336.39,336.39,0,0,1,661,253.71c2.3-10,5.15-19.75,8.11-29.53.09-.3.56-.22.48.09-9.16,34.48-16.67,70.06-16.16,105.91.15,10,1.31,19.88,2.26,29.85,0,.26-.41.37-.47.1C653.28,351.6,652.66,342.66,652.31,334Z" style="fill:#B62BCE"></path><path d="M669.54,224.27s13.87,35.21,10.76,43.49-9.51,10-9.51,10,8.49,12.12,2.56,23.48-19.11,10.83-20,23.72C653.37,325,652.63,271.11,669.54,224.27Z" style="fill:#B62BCE"></path><path d="M654.87,302.75a.32.32,0,0,1,0-.19,322.55,322.55,0,0,1,13.45-70.83c0-.07.14,0,.12,0q-4.12,15.45-7.29,31.06a15.35,15.35,0,0,1,6.63-3.69s.06.05,0,.07a17.62,17.62,0,0,0-6.84,4.57c-.4,2-.8,4.08-1.18,6.13,3.1-3.47,7.4-5.19,11.71-6.82a0,0,0,1,1,0,.09c-4.48,1.83-8.94,4.18-12,8Q658,280,656.77,288.8a16.77,16.77,0,0,1,8.28-4.74c.09,0,.15.11.05.14a17.49,17.49,0,0,0-8.39,5.38l-.05,0q-.42,3.11-.79,6.21a21.57,21.57,0,0,1,5.8-3.5,0,0,0,1,1,0,.09,19.77,19.77,0,0,0-5.8,3.85.12.12,0,0,1-.08,0c-.23,2-.46,3.95-.66,5.93a28.15,28.15,0,0,1,11.77-8.41c.09,0,.13.11.05.15a30.58,30.58,0,0,0-11.6,8.92.26.26,0,0,1-.29.09c-.3,3-.57,6.06-.79,9.1,0,.05-.07.05-.07,0C654.4,309,654.62,305.86,654.87,302.75Z" style="fill:#263238"></path><path d="M666,255.63a17.39,17.39,0,0,1,8.33-2.6.06.06,0,0,1,0,.11,32.74,32.74,0,0,0-8.24,2.69C666,255.88,665.92,255.7,666,255.63Z" style="fill:#263238"></path><path d="M664.34,292.91a17.51,17.51,0,0,1,6.25-2.14c.08,0,.08.1,0,.12a23.49,23.49,0,0,0-6.19,2.17C664.33,293.1,664.25,293,664.34,292.91Z" style="fill:#263238"></path><path d="M615.84,268.33a94.21,94.21,0,0,1,16.06,14,57.61,57.61,0,0,1,11.26,19.09,143,143,0,0,1,8.39,45.67,111.4,111.4,0,0,1-2.48,25.69.24.24,0,0,1-.48-.09,143.86,143.86,0,0,0-.25-44.9c-2.38-14.56-6.12-30.41-15.38-42.25-5.05-6.44-11.33-11.52-17.55-16.76C615.09,268.55,615.51,268.1,615.84,268.33Z" style="fill:#B62BCE"></path><path d="M649.5,336.65a85.87,85.87,0,0,0-11.7-15c-6.94-6.94-12.78-11.87-13.69-16.46s7-8,7-8S621.46,299,618.84,295s-3.9-27.37-3.9-27.37,17.47,12.47,25.61,30S649.5,336.65,649.5,336.65Z" style="fill:#B62BCE"></path><path d="M621,273.57c7.35,7.22,14.75,14.91,19.08,24.39A92.55,92.55,0,0,1,643.92,308a0,0,0,0,0,0,0c.22.69.45,1.38.66,2.07a.27.27,0,0,1,0,.12,198,198,0,0,1,5,21.56s-.06.07-.07,0q-1.12-5.47-2.51-11l-.1,0a15.19,15.19,0,0,0-4.59-1.16c-.1,0-.09-.2,0-.19a17.08,17.08,0,0,1,4.54.83c-.85-3.31-1.77-6.61-2.8-9.86a49,49,0,0,0-10.36-1.35s-.05-.05,0-.06a39.15,39.15,0,0,1,10.19.87c-.18-.56-.37-1.11-.56-1.67a53.29,53.29,0,0,0-6.89-1.17s0-.07,0-.07a33.22,33.22,0,0,1,6.75.82c-.95-2.81-2-5.59-3.11-8.29a52.22,52.22,0,0,0-3.3-6.4,40.92,40.92,0,0,0-5.59-1c-.06,0,0-.09,0-.09a14.89,14.89,0,0,1,5.23.51c-.92-1.48-1.88-2.93-2.92-4.34h0c-3.92-.87-7.89-1.68-11.89-.92-.07,0-.1-.11,0-.12,3.81-1,7.6-.43,11.4.32-.42-.55-.84-1.09-1.27-1.63a25.55,25.55,0,0,0-7.32-1.15s-.06-.08,0-.08a19.17,19.17,0,0,1,6.83.6c-3.24-4-6.82-7.8-10.35-11.54C620.68,273.5,620.81,273.39,621,273.57Z" style="fill:#263238"></path><path d="M621.18,289.48a16.13,16.13,0,0,1,3.47-.12.12.12,0,0,1,0,.24c-1.15,0-2.3-.05-3.45,0A.07.07,0,1,1,621.18,289.48Z" style="fill:#263238"></path><path d="M633.75,312.12a15.83,15.83,0,0,1,5.39,1.08,0,0,0,0,1,0,.08c-1.78-.42-3.57-.6-5.37-.89C633.59,312.36,633.6,312.12,633.75,312.12Z" style="fill:#263238"></path><path d="M637.52,304.3a11,11,0,0,1,2.29.21.07.07,0,0,1,0,.13,10.32,10.32,0,0,1-2.29-.11A.12.12,0,0,1,637.52,304.3Z" style="fill:#263238"></path><path d="M700.72,293.1a79.77,79.77,0,0,0-16.24,7.65A48.71,48.71,0,0,0,671,313.6a120.36,120.36,0,0,0-17.34,35A93.54,93.54,0,0,0,649.67,370a.21.21,0,0,0,.41,0,121.66,121.66,0,0,1,10.58-36.28c5.3-11.23,12-23.19,22.22-30.63,5.57-4.05,11.83-6.7,18.07-9.51C701.28,293.45,701.05,293,700.72,293.1Z" style="fill:#B62BCE"></path><path d="M657.69,340.61a72.68,72.68,0,0,1,12.93-9.4c7.22-4,13.08-6.65,14.88-10.16s-3.79-8.05-3.79-8.05,7.37,3.61,10.43,1,9.48-21.25,9.48-21.25S684.6,298.76,674,311,657.69,340.61,657.69,340.61Z" style="fill:#B62BCE"></path><path d="M658.57,336.77c8.52-16,19.88-30.43,35.44-40,0,0,0,0,0,0a78.23,78.23,0,0,0-11.39,8.91,18.1,18.1,0,0,1,9.15,1.93.06.06,0,0,1,0,.1,25,25,0,0,0-9.42-1.59.18.18,0,0,1-.1,0c-.55.52-1.1,1.05-1.64,1.59a28.6,28.6,0,0,1,4.89.65s0,.08,0,.07a24.9,24.9,0,0,0-5.17-.43,107.28,107.28,0,0,0-8,9.12,8.05,8.05,0,0,1,3.42.25.07.07,0,0,1,0,.13,18.57,18.57,0,0,0-3.65-.06c-.47.6-.94,1.19-1.4,1.79a33.07,33.07,0,0,1,10.34,1,0,0,0,0,1,0,.08,41.52,41.52,0,0,0-10.61-.69c-.43.58-.85,1.17-1.27,1.75a22.44,22.44,0,0,1,6.15.71.06.06,0,0,1,0,.12,23.41,23.41,0,0,0-6.36-.5q-2.74,3.8-5.27,7.72a5.62,5.62,0,0,1,2.7.16,0,0,0,0,1,0,.07,12.39,12.39,0,0,0-2.92.14c-1.52,2.36-3,4.75-4.38,7.14C658.79,337.14,658.46,337,658.57,336.77Z" style="fill:#263238"></path><path d="M671.82,323.52a13.35,13.35,0,0,1,4.94.6s0,.09,0,.08a38.7,38.7,0,0,0-4.92-.51A.09.09,0,1,1,671.82,323.52Z" style="fill:#263238"></path><path d="M686.66,304a8.7,8.7,0,0,1,2.28.14.07.07,0,1,1,0,.13c-.75-.08-1.49-.05-2.24-.07A.1.1,0,0,1,686.66,304Z" style="fill:#263238"></path><polygon points="635.73 393.45 674.15 393.45 668.67 353.32 667.27 343.03 642.61 343.03 641.21 353.32 635.73 393.45" style="fill:#455a64"></polygon><polygon points="641.21 353.32 668.67 353.32 667.27 343.03 642.61 343.03 641.21 353.32" style="fill:#263238"></polygon><rect x="639.08" y="339.46" width="31.72" height="8.71" transform="translate(1309.89 687.63) rotate(180)" style="fill:#455a64"></rect></g><g id="freepik--Device--inject-16"><rect x="145.11" y="67.87" width="450.2" height="306.13" style="fill:#263238"></rect><rect x="145.11" y="328.84" width="450.2" height="45.16" style="fill:#dbdbdb"></rect><rect x="282.48" y="429.19" width="175.46" height="14.66" style="fill:#c7c7c7"></rect><polygon points="437.04 429.2 303.37 429.2 306.77 403.75 306.94 402.55 307.25 400.16 307.41 398.96 307.73 396.58 307.78 396.21 307.89 395.38 308.21 392.99 308.37 391.79 310.75 374.01 429.67 374.01 431.91 390.78 432.02 391.59 432.39 394.37 432.49 395.18 432.64 396.21 432.87 397.95 432.97 398.76 433.34 401.55 433.45 402.35 437.04 429.2" style="fill:#dbdbdb"></polygon><path d="M377.53,348.39a7.46,7.46,0,1,1-7.46-7.46A7.45,7.45,0,0,1,377.53,348.39Z" style="fill:#37474f"></path><polygon points="432.64 396.21 308.37 391.79 310.75 374.01 429.67 374.01 432.64 396.21" style="fill:#c7c7c7"></polygon><rect x="165.88" y="87.78" width="408.65" height="219.83" style="fill:#fff"></rect><rect x="165.88" y="87.78" width="408.65" height="219.83" style="fill:#fff"></rect><rect x="165.88" y="97.72" width="401.41" height="28.43" style="fill:#B62BCE"></rect><rect x="179.38" y="107.23" width="9.7" height="1.56" style="fill:#fff"></rect><rect x="179.38" y="114.21" width="9.7" height="1.56" style="fill:#fff"></rect><rect x="179.38" y="110.76" width="9.7" height="1.56" style="fill:#fff"></rect><rect x="283.9" y="107.31" width="220.09" height="8.37" style="fill:#fff"></rect><path d="M504.07,115.77H283.81v-8.54H504.07Z" style="fill:#fff"></path><rect x="495.52" y="107.23" width="8.55" height="8.55" style="fill:#455a64"></rect><path d="M502.45,113.85l-.77.58-1.44-1.89-.52-.69a1.11,1.11,0,0,0,.3-.17,1.26,1.26,0,0,0,.4-.52l.56.74Z" style="fill:#fff"></path><path d="M500.93,109.39a2.11,2.11,0,1,0-.69,3.15,1.89,1.89,0,0,0,.3-.19,2.08,2.08,0,0,0,.44-.45A2.13,2.13,0,0,0,500.93,109.39Zm-.91,2.29a1.11,1.11,0,0,1-.3.17,1.28,1.28,0,0,1-1.47-.4,1.27,1.27,0,1,1,1.77.23Z" style="fill:#fff"></path><rect x="285.65" y="108.96" width="0.45" height="5.08" style="fill:#c7c7c7"></rect><path d="M552.58,116a4.51,4.51,0,0,1-1.37.57,4.71,4.71,0,0,1-3.63-.57,4.76,4.76,0,1,1,5,0Z" style="fill:#455a64"></path><path d="M551.53,111.42a1.45,1.45,0,1,1-1.45-1.45A1.45,1.45,0,0,1,551.53,111.42Z" style="fill:#fff"></path><path d="M552.58,115.41v.6a4.51,4.51,0,0,1-1.37.57,4.71,4.71,0,0,1-3.63-.57v-.6a2.5,2.5,0,1,1,5,0Z" style="fill:#fff"></path><path d="M536.11,116.72H532.8v-1.17a.18.18,0,0,0-.1-.16,2.5,2.5,0,0,1-.35-.21.21.21,0,0,0-.19,0l-1,.59-1.65-2.86,1-.59a.19.19,0,0,0,.08-.17,1.27,1.27,0,0,1,0-.2,1.48,1.48,0,0,1,0-.21.17.17,0,0,0-.09-.16l-1-.59,1.65-2.86,1,.58a.17.17,0,0,0,.19,0l.35-.21a.18.18,0,0,0,.1-.15v-1.17h3.31v1.17a.2.2,0,0,0,.1.16l.36.2a.19.19,0,0,0,.19,0l1-.58,1.65,2.86-1,.59a.18.18,0,0,0-.09.17,2,2,0,0,1,0,.4.19.19,0,0,0,.09.17l1,.59-1.65,2.86-1-.58a.19.19,0,0,0-.19,0,3.35,3.35,0,0,1-.36.21.18.18,0,0,0-.1.16Zm-2.48-.82h1.66v-.35a1,1,0,0,1,.55-.89l.28-.16a1,1,0,0,1,1,0l.3.18.83-1.44L538,113a1,1,0,0,1-.49-.92v-.32a1,1,0,0,1,.5-.93l.3-.17-.83-1.44-.3.18a1,1,0,0,1-1,0l-.28-.16a1,1,0,0,1-.55-.89V108h-1.66v.35a1,1,0,0,1-.55.89l-.29.16a1,1,0,0,1-1,0l-.3-.18-.83,1.44.31.17a1,1,0,0,1,.49.93v.32a1,1,0,0,1-.49.93l-.31.17.83,1.44.31-.18a1,1,0,0,1,1,0l.29.16a1,1,0,0,1,.55.89Zm.83-1.52a2.45,2.45,0,1,1,2.44-2.44A2.45,2.45,0,0,1,534.46,114.38Zm0-4.06a1.62,1.62,0,1,0,1.62,1.62A1.61,1.61,0,0,0,534.46,110.32Z" style="fill:#455a64"></path><rect x="197.3" y="110.76" width="66.68" height="3.19" style="fill:#455a64"></rect><rect x="165.88" y="87.78" width="408.65" height="9.95" style="fill:#455a64"></rect><path d="M173.79,92.75a2.47,2.47,0,1,1-2.47-2.47A2.48,2.48,0,0,1,173.79,92.75Z" style="fill:#c7c7c7"></path><path d="M183.86,92.75a2.47,2.47,0,1,1-2.47-2.47A2.47,2.47,0,0,1,183.86,92.75Z" style="fill:#fff"></path><path d="M193.94,92.75a2.47,2.47,0,1,1-2.47-2.47A2.48,2.48,0,0,1,193.94,92.75Z" style="fill:#B62BCE"></path><rect x="567.29" y="97.72" width="7.25" height="209.88" style="fill:#dbdbdb"></rect><path d="M570.91,183.9h0A1.87,1.87,0,0,1,569,182v-81a1.88,1.88,0,0,1,1.88-1.87h0a1.87,1.87,0,0,1,1.87,1.87v81A1.87,1.87,0,0,1,570.91,183.9Z" style="fill:#a6a6a6"></path><rect x="181.39" y="142.64" width="74.22" height="151.96" style="fill:#ebebeb"></rect><rect x="268.36" y="141.54" width="285.2" height="153.59" style="fill:#ebebeb"></rect><rect x="488.91" y="168.95" width="13.69" height="91.1" style="fill:#B62BCE"></rect><rect x="418.34" y="174.78" width="13.69" height="85.27" style="fill:#B62BCE"></rect><rect x="300.73" y="176.97" width="13.69" height="83.08" style="fill:#B62BCE"></rect><rect x="324.25" y="190.78" width="13.69" height="69.27" style="fill:#455a64"></rect><rect x="347.77" y="215.96" width="13.69" height="44.09" style="fill:#B62BCE"></rect><rect x="371.3" y="189.57" width="13.69" height="70.48" style="fill:#B62BCE"></rect><rect x="394.82" y="201.14" width="13.69" height="58.91" style="fill:#455a64"></rect><rect x="441.87" y="187.93" width="13.69" height="72.12" style="fill:#455a64"></rect><rect x="465.39" y="209.17" width="13.69" height="50.88" style="fill:#B62BCE"></rect><rect x="512.44" y="160.36" width="13.69" height="99.69" style="fill:#455a64"></rect><path d="M291.25,159.62l.19,25.11.09,25.11.13,50.21-.41-.41c39.71-.12,136.46.05,176.18.08l33.12.09,29.38.24-29.38.24-33.12.09c-39.72,0-136.47.2-176.18.08h-.42v-.41l.14-50.21.09-25.11Z" style="fill:#c7c7c7"></path><path d="M287.64,165.39a14.36,14.36,0,0,1,7.21,0,14.36,14.36,0,0,1-7.21,0Z" style="fill:#c7c7c7"></path><path d="M287.64,175.36a13.16,13.16,0,0,1,3.61-.47,12.72,12.72,0,0,1,3.6.47,14.36,14.36,0,0,1-7.21,0Z" style="fill:#c7c7c7"></path><path d="M287.64,185.32a14.36,14.36,0,0,1,7.21,0,12.72,12.72,0,0,1-3.6.47A13.16,13.16,0,0,1,287.64,185.32Z" style="fill:#c7c7c7"></path><path d="M287.64,195.29a13.16,13.16,0,0,1,3.61-.47,12.72,12.72,0,0,1,3.6.47,12.71,12.71,0,0,1-3.6.46A13.15,13.15,0,0,1,287.64,195.29Z" style="fill:#c7c7c7"></path><path d="M287.64,205.25a14.36,14.36,0,0,1,7.21,0,14.06,14.06,0,0,1-7.21,0Z" style="fill:#c7c7c7"></path><path d="M287.64,215.22a13.15,13.15,0,0,1,3.61-.46,12.71,12.71,0,0,1,3.6.46,14.06,14.06,0,0,1-7.21,0Z" style="fill:#c7c7c7"></path><path d="M287.64,225.19a13.16,13.16,0,0,1,3.61-.47,12.72,12.72,0,0,1,3.6.47,14.36,14.36,0,0,1-7.21,0Z" style="fill:#c7c7c7"></path><path d="M287.64,235.15a14.36,14.36,0,0,1,7.21,0,12.72,12.72,0,0,1-3.6.47A13.16,13.16,0,0,1,287.64,235.15Z" style="fill:#c7c7c7"></path><path d="M287.64,245.12a14.36,14.36,0,0,1,7.21,0,12.71,12.71,0,0,1-3.6.46A13.15,13.15,0,0,1,287.64,245.12Z" style="fill:#c7c7c7"></path><rect x="189.98" y="151.85" width="44.08" height="4.31" style="fill:#c7c7c7"></rect><rect x="198.2" y="162.69" width="48.83" height="1" style="fill:#c7c7c7"></rect><rect x="198.2" y="167.52" width="48.83" height="1" style="fill:#c7c7c7"></rect><rect x="198.2" y="172.34" width="37.85" height="1" style="fill:#c7c7c7"></rect><rect x="189.98" y="224.72" width="44.08" height="4.31" style="fill:#c7c7c7"></rect><rect x="198.2" y="235.57" width="48.83" height="1" style="fill:#c7c7c7"></rect><rect x="198.2" y="240.39" width="48.83" height="1" style="fill:#c7c7c7"></rect><rect x="198.2" y="245.21" width="37.85" height="1" style="fill:#c7c7c7"></rect><rect x="198.2" y="181.98" width="48.83" height="1" style="fill:#c7c7c7"></rect><rect x="198.2" y="186.8" width="48.83" height="1" style="fill:#c7c7c7"></rect><rect x="198.2" y="191.63" width="48.83" height="1" style="fill:#c7c7c7"></rect><rect x="198.2" y="196.45" width="37.85" height="1" style="fill:#c7c7c7"></rect><rect x="198.2" y="206.09" width="48.83" height="1" style="fill:#c7c7c7"></rect><rect x="198.2" y="210.91" width="48.83" height="1" style="fill:#c7c7c7"></rect><rect x="198.2" y="215.73" width="37.85" height="1" style="fill:#c7c7c7"></rect><rect x="300.73" y="270.1" width="7.98" height="7.98" style="fill:#B62BCE"></rect><path d="M317.62,272.1c6.71-.21,13.41-.3,20.12-.38s13.41-.08,20.12-.12l20.12.11,10.06.14c3.35.09,6.7.14,10.06.25-3.36.11-6.71.16-10.06.24l-10.06.14-20.12.12c-6.71,0-13.41,0-20.12-.12S324.33,272.3,317.62,272.1Z" style="fill:#c7c7c7"></path><path d="M317.62,275.76c4.41-.21,8.81-.31,13.22-.39s8.82-.07,13.22-.11,8.82,0,13.22.11l6.61.14c2.21.08,4.41.13,6.61.25-2.2.11-4.4.16-6.61.24l-6.61.14c-4.4.08-8.81.08-13.22.12s-8.81,0-13.22-.12S322,276,317.62,275.76Z" style="fill:#c7c7c7"></path><rect x="415.07" y="270.1" width="7.98" height="7.98" style="fill:#455a64"></rect><path d="M432,272.1c6.71-.21,13.42-.3,20.12-.38s13.41-.08,20.12-.12l20.12.11,10.06.14c3.35.09,6.71.14,10.06.25-3.35.11-6.71.16-10.06.24l-10.06.14-20.12.12c-6.71,0-13.41,0-20.12-.12S438.67,272.3,432,272.1Z" style="fill:#c7c7c7"></path><path d="M432,275.76c4.41-.21,8.82-.31,13.22-.39s8.82-.07,13.22-.11,8.82,0,13.23.11l6.61.14c2.2.08,4.4.13,6.61.25-2.21.11-4.41.16-6.61.24l-6.61.14c-4.41.08-8.82.08-13.23.12s-8.81,0-13.22-.12S436.37,276,432,275.76Z" style="fill:#c7c7c7"></path></g><g id="freepik--Windows--inject-16"><rect x="489.13" y="133.11" width="167.82" height="139.48" style="fill:#fff"></rect><path d="M657,272.6l-167.82.13H489v-.13l-.12-139.49v-.25h.25L657,133h.12v.11Zm0,0-.11-139.49.11.12-167.82.13.25-.25-.11,139.49-.14-.14Z" style="fill:#263238"></path><rect x="488.94" y="133.11" width="168.21" height="11.15" style="fill:#37474f"></rect><path d="M497.8,138.69a2.77,2.77,0,1,1-2.77-2.77A2.77,2.77,0,0,1,497.8,138.69Z" style="fill:#c7c7c7"></path><circle cx="506.32" cy="138.69" r="2.76" style="fill:#fff"></circle><path d="M520.37,138.69a2.76,2.76,0,1,1-2.76-2.77A2.76,2.76,0,0,1,520.37,138.69Z" style="fill:#B62BCE"></path><rect x="510.01" y="249.41" width="6.08" height="6.08" style="fill:#263238"></rect><path d="M521.76,251c2.07-.18,4.14-.26,6.21-.32s5.82,0,5.82,0l3.1.11c1,.07,2.07.11,3.1.21-1,.09-2.07.13-3.1.2l-3.1.12s-3.75.06-5.82,0S523.83,251.18,521.76,251Z" style="fill:#c7c7c7"></path><path d="M521.76,254.05c2.06-.18,4.12-.26,6.18-.32s5.46.11,5.46.11c1,.07,2.07.11,3.1.21-1,.09-2.06.13-3.1.2,0,0-3.4.18-5.46.11S523.82,254.22,521.76,254.05Z" style="fill:#c7c7c7"></path><rect x="558.23" y="249.41" width="6.08" height="6.08" style="fill:#455a64"></rect><path d="M570,251c2.07-.18,4.14-.26,6.21-.32s5.82,0,5.82,0l3.1.11c1,.07,2.07.11,3.1.21-1,.09-2.06.13-3.1.2l-3.1.12s-3.75.06-5.82,0S572,251.18,570,251Z" style="fill:#c7c7c7"></path><path d="M570,254.05c2.06-.18,4.12-.26,6.18-.32s5.47.11,5.47.11c1,.07,2.06.11,3.09.21-1,.09-2.06.13-3.09.2,0,0-3.4.18-5.47.11S572,254.22,570,254.05Z" style="fill:#c7c7c7"></path><rect x="606.44" y="249.41" width="6.08" height="6.08" style="fill:#B62BCE"></rect><path d="M618.18,251c2.07-.18,4.14-.26,6.21-.32s5.82,0,5.82,0l3.1.11c1,.07,2.07.11,3.11.21-1,.09-2.07.13-3.11.2l-3.1.12s-3.75.06-5.82,0S620.25,251.18,618.18,251Z" style="fill:#c7c7c7"></path><path d="M618.18,254.05c2.06-.18,4.13-.26,6.19-.32s5.46.11,5.46.11c1,.07,2.06.11,3.09.21-1,.09-2.06.13-3.09.2,0,0-3.4.18-5.46.11S620.24,254.22,618.18,254.05Z" style="fill:#c7c7c7"></path><path d="M506,231.36c11-.21,22.07-.31,33.1-.39l33.1-.11,33.1.11,16.55.14,16.55.25-16.55.24-16.55.14-33.1.11-33.1-.11C528,231.66,517,231.56,506,231.36Z" style="fill:#ebebeb"></path><path d="M506,222.2c11-.21,22.07-.3,33.1-.38l33.1-.12,33.1.12,16.55.13,16.55.25-16.55.25-16.55.13-33.1.12-33.1-.12C528,222.5,517,222.41,506,222.2Z" style="fill:#ebebeb"></path><path d="M506,213c11-.2,22.07-.3,33.1-.38l33.1-.11,33.1.11,16.55.14,16.55.24-16.55.25-16.55.14-33.1.11-33.1-.11C528,213.35,517,213.25,506,213Z" style="fill:#ebebeb"></path><path d="M506,203.89c11-.21,22.07-.3,33.1-.38l33.1-.12,33.1.12,16.55.13,16.55.25-16.55.25-16.55.13-33.1.12-33.1-.12C528,204.19,517,204.1,506,203.89Z" style="fill:#ebebeb"></path><path d="M506,194.73c11-.2,22.07-.3,33.1-.38l33.1-.11,33.1.11,16.55.14,16.55.24-16.55.25-16.55.14-33.1.11-33.1-.11C528,195,517,194.94,506,194.73Z" style="fill:#ebebeb"></path><path d="M506,185.58c11-.21,22.07-.3,33.1-.38l33.1-.12,33.1.12,16.55.13,16.55.25-16.55.24-16.55.14-33.1.12-33.1-.12C528,185.88,517,185.79,506,185.58Z" style="fill:#ebebeb"></path><path d="M506,176.42c11-.2,22.07-.3,33.1-.38l33.1-.11,33.1.11,16.55.14,16.55.24-16.55.25-16.55.14-33.1.11-33.1-.11C528,176.73,517,176.63,506,176.42Z" style="fill:#ebebeb"></path><path d="M506,167.27c11-.21,22.07-.3,33.1-.38l33.1-.12,33.1.11,16.55.14,16.55.25-16.55.24-16.55.14-33.1.12-33.1-.12C528,167.57,517,167.48,506,167.27Z" style="fill:#ebebeb"></path><path d="M506,158.11c11-.2,22.07-.3,33.1-.38l33.1-.12,33.1.12,16.55.14,16.55.24-16.55.25-16.55.14-33.1.11-33.1-.11C528,158.42,517,158.32,506,158.11Z" style="fill:#ebebeb"></path><polygon points="512.17 227.72 511.94 226.74 529.1 222.84 545.55 206.7 552.17 211.1 565.28 198 572.49 202.32 577.17 198.4 590.23 212.18 607.39 191.55 621.67 206.74 638.17 199.2 638.58 200.11 621.43 207.94 607.44 193.06 590.28 213.69 577.09 199.77 572.58 203.54 565.43 199.26 552.3 212.39 545.68 207.98 529.6 223.75 529.46 223.78 512.17 227.72" style="fill:#455a64"></polygon><circle cx="529.37" cy="223.15" r="1.73" style="fill:#455a64"></circle><path d="M547.18,207.48a1.74,1.74,0,1,1-1.74-1.74A1.73,1.73,0,0,1,547.18,207.48Z" style="fill:#455a64"></path><path d="M567.23,198.77A1.73,1.73,0,1,1,565.5,197,1.73,1.73,0,0,1,567.23,198.77Z" style="fill:#455a64"></path><path d="M574.28,203a1.74,1.74,0,1,1-1.73-1.73A1.74,1.74,0,0,1,574.28,203Z" style="fill:#455a64"></path><path d="M578.89,199.22a1.74,1.74,0,1,1-1.74-1.74A1.74,1.74,0,0,1,578.89,199.22Z" style="fill:#455a64"></path><circle cx="607.26" cy="192.3" r="1.73" style="fill:#455a64"></circle><circle cx="621.81" cy="207.09" r="1.73" style="fill:#455a64"></circle><path d="M640.11,199.89a1.74,1.74,0,1,1-1.74-1.73A1.74,1.74,0,0,1,640.11,199.89Z" style="fill:#455a64"></path><path d="M592,212.79a1.74,1.74,0,1,1-1.74-1.73A1.74,1.74,0,0,1,592,212.79Z" style="fill:#455a64"></path><polygon points="512.42 227.45 511.69 226.78 530.03 206.72 537.44 210.62 557.02 190.72 562.43 195.16 571.67 187.21 589.28 199.88 593.19 195.43 603.16 204.63 617.79 191.64 627.17 199.67 638.24 196.68 638.5 197.65 626.92 200.77 617.8 192.97 603.15 205.98 593.27 196.86 589.43 201.23 571.72 188.48 562.45 196.46 557.09 192.08 537.63 211.85 530.25 207.96 512.42 227.45" style="fill:#263238"></polygon><circle cx="530" cy="207.67" r="1.73" style="fill:#263238"></circle><path d="M539.18,211.14a1.74,1.74,0,1,1-1.74-1.73A1.74,1.74,0,0,1,539.18,211.14Z" style="fill:#263238"></path><path d="M558.56,191.52a1.74,1.74,0,1,1-1.74-1.74A1.73,1.73,0,0,1,558.56,191.52Z" style="fill:#263238"></path><path d="M564.38,195.75a1.74,1.74,0,1,1-1.73-1.74A1.73,1.73,0,0,1,564.38,195.75Z" style="fill:#263238"></path><path d="M573.44,187.84a1.74,1.74,0,1,1-1.73-1.73A1.73,1.73,0,0,1,573.44,187.84Z" style="fill:#263238"></path><circle cx="589.25" cy="200.51" r="1.73" style="fill:#263238"></circle><path d="M594.75,196.2a1.74,1.74,0,1,1-1.73-1.73A1.73,1.73,0,0,1,594.75,196.2Z" style="fill:#263238"></path><path d="M604.68,205.36a1.74,1.74,0,1,1-1.74-1.74A1.73,1.73,0,0,1,604.68,205.36Z" style="fill:#263238"></path><path d="M619.64,192.73a1.74,1.74,0,1,1-1.73-1.73A1.74,1.74,0,0,1,619.64,192.73Z" style="fill:#263238"></path><circle cx="627.13" cy="200.25" r="1.73" style="fill:#263238"></circle><path d="M640.11,197a1.74,1.74,0,1,1-1.74-1.74A1.74,1.74,0,0,1,640.11,197Z" style="fill:#263238"></path><polygon points="512.71 227.16 512.21 226.3 534.48 213.51 546.43 218.89 552.97 216.69 559.84 220.93 574.03 210.5 579.71 215.1 585.72 213.31 595.55 218.86 611.06 211.46 620.88 218.81 638.08 206.44 638.67 207.25 620.87 220.04 610.95 212.62 595.51 219.99 585.6 214.39 579.49 216.21 574 211.76 559.88 222.13 552.84 217.79 546.37 219.96 534.54 214.63 512.71 227.16" style="fill:#B62BCE"></polygon><path d="M536.25,214.07a1.74,1.74,0,1,1-1.74-1.73A1.74,1.74,0,0,1,536.25,214.07Z" style="fill:#B62BCE"></path><circle cx="546.4" cy="219.36" r="1.73" style="fill:#B62BCE"></circle><circle cx="552.92" cy="217.54" r="1.73" style="fill:#B62BCE"></circle><path d="M561.69,221.41a1.74,1.74,0,1,1-1.74-1.73A1.74,1.74,0,0,1,561.69,221.41Z" style="fill:#B62BCE"></path><path d="M581.26,215.41a1.74,1.74,0,1,1-1.73-1.74A1.73,1.73,0,0,1,581.26,215.41Z" style="fill:#B62BCE"></path><circle cx="595.45" cy="219.28" r="1.73" style="fill:#B62BCE"></circle><circle cx="621.13" cy="219.28" r="1.73" style="fill:#B62BCE"></circle><circle cx="573.91" cy="211.06" r="1.73" style="fill:#B62BCE"></circle><circle cx="585.78" cy="214.07" r="1.73" style="fill:#B62BCE"></circle><path d="M612.6,211.94a1.74,1.74,0,1,1-1.74-1.74A1.73,1.73,0,0,1,612.6,211.94Z" style="fill:#B62BCE"></path><path d="M640.11,206.84a1.74,1.74,0,1,1-1.74-1.73A1.74,1.74,0,0,1,640.11,206.84Z" style="fill:#B62BCE"></path><polygon points="510.61 153.82 510.81 175.43 510.94 197.04 511.04 218.64 511.07 240.25 510.61 239.78 542.12 239.77 573.62 239.82 605.13 239.97 636.64 240.25 605.13 240.52 573.62 240.68 542.12 240.73 510.61 240.71 510.14 240.71 510.14 240.25 510.18 218.64 510.28 197.04 510.41 175.43 510.61 153.82" style="fill:#ebebeb"></polygon><rect x="416.26" y="283.75" width="167.82" height="132.45" style="fill:#fff"></rect><path d="M584.08,416.2l-167.82.14h-.14v-.14L416,283.75v-.25h.25l167.82.14h.12v.11Zm0,0L584,283.75l.12.12L416.26,284l.25-.25L416.4,416.2l-.14-.14Z" style="fill:#263238"></path><rect x="416.07" y="283.75" width="168.21" height="11.15" style="fill:#37474f"></rect><path d="M424.93,289.33a2.77,2.77,0,1,1-2.77-2.77A2.77,2.77,0,0,1,424.93,289.33Z" style="fill:#c7c7c7"></path><circle cx="433.45" cy="289.33" r="2.76" style="fill:#fff"></circle><path d="M447.5,289.33a2.76,2.76,0,1,1-2.76-2.77A2.76,2.76,0,0,1,447.5,289.33Z" style="fill:#B62BCE"></path><rect x="438.1" y="393.77" width="6.08" height="6.08" style="fill:#B62BCE"></rect><path d="M449.85,395.37c2.07-.17,4.14-.25,6.2-.32s5.82,0,5.82,0l3.11.12c1,.07,2.07.11,3.1.2-1,.1-2.07.14-3.1.21l-3.11.11s-3.75.07-5.82,0S451.92,395.54,449.85,395.37Z" style="fill:#c7c7c7"></path><path d="M449.85,398.41c2.06-.17,4.12-.25,6.18-.32s5.46.12,5.46.12c1,.07,2.06.11,3.1.2-1,.1-2.07.14-3.1.21,0,0-3.4.18-5.46.11S451.91,398.58,449.85,398.41Z" style="fill:#c7c7c7"></path><path d="M438.1,362.53c4,0,6.37-13.12,12-13.12s6.25,9.57,11,9.57,4.61-16.81,11-16.81S477,349,483.73,349s4.17-15.84,11.16-15.84S499.05,355,506.34,355c4.61,0,6.4-6.93,11.9-6.93,3.64,0,5.79,3.47,10.55,3.47s5.81-13.33,11.76-13.33,6.63,7.89,11,7.89,6-12.92,14-12.92v51.1H438.1Z" style="fill:#B62BCE;opacity:0.5"></path><path d="M438.1,363.16V361.9c1.21,0,2.88-3.07,4.09-5.3,2.09-3.85,4.25-7.82,7.93-7.82s5.3,2.91,6.85,5.48c1.21,2,2.47,4.09,4.16,4.09,1.49,0,2.78-4,3.72-7,1.54-4.83,3.14-9.82,7.28-9.82,3.71,0,5.16,2,6.44,3.69s2.32,3.13,5.16,3.13c2.58,0,3.58-3.7,4.56-7.28,1.14-4.21,2.33-8.56,6.6-8.56s5.32,5.48,6.47,11.28c.92,4.7,2.08,10.54,5,10.54,1.74,0,3.15-1.44,4.65-3,1.83-1.86,3.91-4,7.25-4a10.35,10.35,0,0,1,5.09,1.69,10.8,10.8,0,0,0,5.46,1.78c1.65,0,3.16-3.17,4.37-5.72,1.78-3.74,3.62-7.61,7.39-7.61s5.59,2.51,7.22,4.73c1.18,1.62,2.31,3.15,3.78,3.15,1.26,0,2.69-2.45,3.94-4.61,2.15-3.7,4.82-8.3,10-8.3v1.26c-4,0-6.34,4-8.38,7.52-1.75,3-3.14,5.4-5.6,5.4s-3.93-1.86-5.37-3.84-3-4.05-5.63-4.05c-2.49,0-4.19,3.59-5.69,6.75-1.68,3.53-3.13,6.58-6.07,6.58a12.8,12.8,0,0,1-6.56-2,8.38,8.38,0,0,0-4-1.43c-2.41,0-4.12,1.74-5.78,3.43s-3.45,3.5-6.12,3.5c-4.46,0-5.57-5.64-6.76-11.62-.89-4.54-2-10.2-4.69-10.2s-3.88,4-4.85,7.54c-1.16,4.27-2.26,8.3-6.31,8.3s-5.42-2-6.74-3.81c-1.2-1.61-2.23-3-4.86-3s-4.28,4.9-5.54,8.84c-1.42,4.46-2.54,8-5.46,8s-4.3-2.36-5.8-4.86c-1.4-2.31-2.85-4.71-5.21-4.71s-4.56,3.89-6.26,7C442,360.46,440.54,363.16,438.1,363.16Z" style="fill:#B62BCE"></path><path d="M434.81,320.23c21.79-.13,43.57-.1,65.36-.15s43.58,0,65.36.15c-21.78.14-43.57.11-65.36.16S456.6,320.37,434.81,320.23Z" style="fill:#c7c7c7"></path><path d="M434.81,333.15c21.79-.14,43.57-.1,65.36-.16s43.58,0,65.36.16c-21.78.14-43.57.1-65.36.16S456.6,333.28,434.81,333.15Z" style="fill:#c7c7c7"></path><path d="M434.81,346.07c21.79-.14,43.57-.11,65.36-.16s43.58,0,65.36.16c-21.78.13-43.57.1-65.36.15S456.6,346.2,434.81,346.07Z" style="fill:#c7c7c7"></path><path d="M434.81,359c21.79-.13,43.57-.1,65.36-.16s43.58,0,65.36.16c-21.78.14-43.57.1-65.36.16S456.6,359.12,434.81,359Z" style="fill:#c7c7c7"></path><path d="M434.81,371.9c21.79-.14,43.57-.1,65.36-.16s43.58,0,65.36.16c-21.78.13-43.57.1-65.36.16S456.6,372,434.81,371.9Z" style="fill:#c7c7c7"></path><path d="M461.13,311.84c.19,12.06.14,24.13.22,36.2-.08,12.07,0,24.14-.22,36.21-.19-12.07-.15-24.14-.22-36.21S460.94,323.9,461.13,311.84Z" style="fill:#c7c7c7"></path><path d="M483.73,311.84c.2,12.06.15,24.13.23,36.2-.08,12.07,0,24.14-.23,36.21-.19-12.07-.14-24.14-.22-36.21C483.59,336,483.54,323.9,483.73,311.84Z" style="fill:#c7c7c7"></path><path d="M506.34,311.84c.19,12.06.14,24.13.22,36.2s0,24.14-.22,36.21c-.19-12.07-.14-24.14-.22-36.21C506.2,336,506.15,323.9,506.34,311.84Z" style="fill:#c7c7c7"></path><path d="M529,311.84c.19,12.06.14,24.13.22,36.2-.08,12.07,0,24.14-.22,36.21-.2-12.07-.15-24.14-.23-36.21C528.8,336,528.75,323.9,529,311.84Z" style="fill:#c7c7c7"></path><path d="M551.55,311.84c.19,12.06.15,24.13.23,36.2-.08,12.07,0,24.14-.23,36.21-.19-12.07-.14-24.14-.22-36.21C551.41,336,551.36,323.9,551.55,311.84Z" style="fill:#c7c7c7"></path><path d="M438.1,312.62c.15,11.94.27,23.88.28,35.81l.14,35.82-.42-.3,63.72.08,31.86.05,31.85.17-31.85.16-31.86.06-63.72.07h-.42v-.29l.14-35.82C437.83,336.5,438,324.56,438.1,312.62Z" style="fill:#c7c7c7"></path></g><g id="freepik--Character--inject-16"><path d="M262.71,456.5c-2.15.7-63.42.16-65.74-1.34-.88-.56-1.33-9.49-1.55-20.29,0-2.33-4.68-39.93-4.68-39.93l41,.25,3.22,39.91s23.36,10.7,25.73,12.62S264.85,455.8,262.71,456.5Z" style="fill:#f7a9a0"></path><path d="M194.84,429.19c.33,3,.56,5.18.57,5.68.23,10.8.67,19.73,1.56,20.29,2.32,1.5,63.59,2,65.73,1.34s.31-6.87-2.05-8.78-25.74-12.62-25.74-12.62l-.48-5.91Z" style="fill:#fff"></path><path d="M262.71,456.5c-2.15.7-63.42.16-65.74-1.34-.88-.56-1.33-9.49-1.55-20.29l39.5.23s23.36,10.7,25.73,12.62S264.85,455.8,262.71,456.5Z" style="fill:#B62BCE"></path><path d="M261.85,454c-10.27-.34-51.71-.75-61.89-.31-.08,0-.08.06,0,.06,10.17.57,51.62.64,61.89.42C262.06,454.21,262.07,454.05,261.85,454Z" style="fill:#263238"></path><path d="M238.89,436.16c-4.11-.09-8.89,1.32-11.47,4.65-.1.13.08.27.21.21A56.31,56.31,0,0,1,239,436.67.26.26,0,0,0,238.89,436.16Z" style="fill:#263238"></path><path d="M242.05,437.42c-4.11-.09-8.88,1.32-11.47,4.66-.1.13.09.27.21.21a56.57,56.57,0,0,1,11.33-4.36A.26.26,0,0,0,242.05,437.42Z" style="fill:#263238"></path><path d="M245.22,438.69c-4.11-.09-8.89,1.31-11.48,4.65-.1.13.09.27.21.21a56.54,56.54,0,0,1,11.33-4.35A.26.26,0,0,0,245.22,438.69Z" style="fill:#263238"></path><path d="M248.38,440c-4.11-.09-8.89,1.32-11.47,4.66-.1.13.08.27.2.21a56.66,56.66,0,0,1,11.34-4.36A.26.26,0,0,0,248.38,440Z" style="fill:#263238"></path><path d="M132.42,243.16s46.57,81.5,47.77,87.19c1.85,8.76,12.47,105.33,12.47,105.33l45.83-.29s-8.9-86.34-16.67-111.48c-4.25-13.73-26.55-50.93-37-69.29-.93-1.64-.66-9.15-.66-9.15Z" style="fill:#37474f"></path><path d="M234.09,427.75c-7.11-.14-28.62-.73-38.09,0a.07.07,0,0,0,0,.14c3.25.51,31,.17,38.09,0A.1.1,0,0,0,234.09,427.75Z" style="fill:#263238"></path><path d="M140.45,250.69c3.05,4.92,6.28,9.75,9.41,14.64s6.25,9.78,9.32,14.7q9.23,14.75,18,29.76a89.68,89.68,0,0,1,7.24,14.51,87.51,87.51,0,0,1,4,15.58c.91,5.33,1.48,10.7,2,16.06q.85,8.58,1.7,17.15c1.16,11.7,3.63,33.63,4.79,45.33.15,1.44.29,2.87.41,4.31,0,.21-.36.24-.38,0-1.31-11.62-3.7-33.52-4.87-45.15l-1.77-17.39c-.54-5.38-1.06-10.78-1.83-16.14a105.8,105.8,0,0,0-3.29-15.62,74.94,74.94,0,0,0-6.66-15.23c-5.61-10-11.56-19.75-17.51-29.53S148.94,264,142.66,254.33c-.78-1.19-1.56-2.38-2.37-3.56C140.23,250.68,140.39,250.59,140.45,250.69Z" style="fill:#263238"></path><path d="M150.85,459.83c-2.26-.17-60.22-24.49-61.82-26.75a.83.83,0,0,1-.08-.43c0-2,4.15-9,7.64-18.12.22-.59,20.11-34.2,20.11-34.2l37.89,15.6-21.48,33.63s17.65,18.69,19.12,21.35S153.1,460,150.85,459.83Z" style="fill:#f7a9a0"></path><path d="M89,432.65a.83.83,0,0,0,.08.43c1.6,2.26,59.56,26.58,61.82,26.75s2.85-6.26,1.38-8.92-19.12-21.35-19.12-21.35l3.24-5.07L99.69,409.18c-1.82,3.1-3,5.21-3.1,5.35C93.1,423.69,89,430.65,89,432.65Z" style="fill:#fff"></path><path d="M150.85,459.82c-2.26-.15-60.22-24.48-61.82-26.74-.6-.85,2.1-8.78,7.56-18.55l36.52,15s17.65,18.69,19.13,21.35S153.1,460,150.85,459.82Z" style="fill:#B62BCE"></path><path d="M151,457.22c-9.39-4.17-47.65-20.1-57.25-23.5-.08,0-.1,0,0,.06,9.21,4.33,47.6,20,57.21,23.6C151.11,457.46,151.17,457.31,151,457.22Z" style="fill:#263238"></path><path d="M136.4,432c-3.77-1.62-8.73-2.11-12.38,0-.14.08,0,.28.11.27a56.64,56.64,0,0,1,12.14.21A.26.26,0,0,0,136.4,432Z" style="fill:#263238"></path><path d="M138.86,434.39c-3.78-1.62-8.73-2.11-12.38,0-.14.08,0,.28.11.27a56.64,56.64,0,0,1,12.14.21A.26.26,0,0,0,138.86,434.39Z" style="fill:#263238"></path><path d="M141.31,436.75c-3.77-1.63-8.73-2.11-12.38,0-.14.09,0,.29.12.27a57.31,57.31,0,0,1,12.14.22A.26.26,0,0,0,141.31,436.75Z" style="fill:#263238"></path><path d="M143.77,439.11c-3.77-1.63-8.73-2.11-12.38,0-.14.09,0,.29.12.27a56.57,56.57,0,0,1,12.13.22A.26.26,0,0,0,143.77,439.11Z" style="fill:#263238"></path><path d="M134.51,430.63,92.1,412.89s58.28-86.18,58.74-92c.41-5.11-22.25-50-23-63-.82-14,6.07-24.8,13.57-31.44l42.74,19s-3.73,7.63-11.09,11.67c0,0,21.91,51.81,20.44,67.64S134.51,430.63,134.51,430.63Z" style="fill:#37474f"></path><path d="M136.5,422.54c-6.13-2.72-4.33-2-10.5-4.68-3-1.3-22.83-9.83-25.86-10.55-.06,0-.11.09,0,.13,2.63,1.65,22.6,9.83,25.64,11.07,6.21,2.54,4.45,1.75,10.69,4.21A.1.1,0,0,0,136.5,422.54Z" style="fill:#263238"></path><path d="M180.31,256.29a82.47,82.47,0,0,0-13.45,4.17.14.14,0,0,0,.09.27c4.51-1.26,9.1-2.43,13.53-3.92A.27.27,0,0,0,180.31,256.29Z" style="fill:#263238"></path><path d="M175.11,254.41a20.36,20.36,0,0,0-1.16,2.34,5.62,5.62,0,0,0-.6,2c0,.13.18.17.26.09a7,7,0,0,0,1.13-1.85c.38-.72.78-1.43,1.14-2.17C176.12,254.31,175.38,254,175.11,254.41Z" style="fill:#263238"></path><path d="M175.7,250.28c.28-.67.55-1.34.85-2s.65-1.37.9-2.08c0-.11.22,0,.17.08-.28.67-.46,1.39-.69,2.09s-.46,1.39-.7,2.08a40.6,40.6,0,0,1-1.56,3.81,4.93,4.93,0,0,0,2.12-.34,3.9,3.9,0,0,0,1.51-1.77c.4-.76.76-1.53,1.17-2.27a16.17,16.17,0,0,0,1.25-2.54c0-.11.21,0,.17.08a28.9,28.9,0,0,1-2.41,5.39c-.41.67-.75,1.37-1.5,1.62a6.23,6.23,0,0,1-2.51.14c-.1,0-.23,0-.2-.17C174.69,253,175.15,251.62,175.7,250.28Z" style="fill:#263238"></path><path d="M173.72,258.83c1.52,3.33,2.86,6.65,4.28,10s2.68,6.53,3.94,9.82c2.54,6.66,4.81,13.44,6.78,20.28q1.47,5.08,2.68,10.24a74.14,74.14,0,0,1,1.91,10.45,27.49,27.49,0,0,1-1,10.44c-1,3.45-6.74,16.32-8.81,19-1.35,1.73-1.31,1.7-.83.7,1.35-2.82,9.78-18.35,9.67-27.28a58.46,58.46,0,0,0-1.63-11c-.76-3.47-1.63-6.92-2.58-10.35-1.87-6.75-4.11-13.37-6.41-20-1.3-3.71-2.69-7.38-4-11.07S175,263,173.56,258.89A.09.09,0,1,1,173.72,258.83Z" style="fill:#263238"></path><path d="M141.49,247.49c.77-.28,1.82.2,2.6.34a22,22,0,0,0,3,.34,23.12,23.12,0,0,0,3-.06,6.62,6.62,0,0,0,2.87-.72,14.42,14.42,0,0,0,3.71-3.84,22,22,0,0,0,2.91-5c0-.1.2,0,.16.08-.33,1-.58,2-1,3a21,21,0,0,1-1.44,2.69,11.66,11.66,0,0,1-3.85,4.25c-1.78,1-4.06.9-6,.76a21.47,21.47,0,0,1-3.39-.49c-.81-.18-2.16-.33-2.67-1A.24.24,0,0,1,141.49,247.49Z" style="fill:#263238"></path><path d="M104.36,404.92C111.5,394.4,123,374.67,129.87,364s13.69-21.5,20.37-32.35c1.6-2.6,3.44-5.19,4.49-8.07,1.14-3.13.55-6.19-.41-9.28A154.44,154.44,0,0,0,148,297.67c-2.39-5.45-5-10.81-7.51-16.19a156.63,156.63,0,0,1-7.09-16.29c-1.8-5.35-2.44-10.88-.94-16.38s4.63-10.35,7.91-14.9c.86-1.2,1.74-2.39,2.61-3.59.06-.09.2,0,.13.11-3.6,4.75-7.12,9.77-9.27,15.36a27.07,27.07,0,0,0-1.87,8.65,28.16,28.16,0,0,0,1.28,8.88c1.66,5.6,4.31,10.91,6.78,16.18s5.13,10.74,7.56,16.17a168.88,168.88,0,0,1,6.6,16.7c.83,2.53,1.76,5.18,1.67,7.89-.1,3-1.55,5.61-3,8.08-6.51,10.8-13.26,21.45-20.09,32s-18.33,30.3-25.42,40.78c-.9,1.32-1.79,2.64-2.69,3.95C104.49,405.28,104.25,405.08,104.36,404.92Z" style="fill:#263238"></path><path d="M172.79,178.61c2.07,11.49,16.05,43.32,25.08,50,5.26,3.9,38.4,19.31,40.5,15.76,1.94-3.3,2.15-29.15,2.15-29.15-7.79-2.54-29.43-9.37-31.94-9.86-1.77-.35-13.39-15.22-25.81-30.24C175.9,166.81,171.54,171.74,172.79,178.61Z" style="fill:#f7a9a0"></path><path d="M233.53,211.18l-2.86,34.62s-27.21-10.22-35.11-17.19-19.81-33.25-23.14-47,3.09-16.44,13.93-3.82c8.92,10.38,20.69,25.08,22.33,25.91S233.53,211.18,233.53,211.18Z" style="fill:#B62BCE"></path><path d="M176.87,183.3a1.54,1.54,0,0,1-.61.31,1.2,1.2,0,0,1-1.14-.36,1.64,1.64,0,0,0-1.77-.3,1.25,1.25,0,0,0-.49.36,3.45,3.45,0,0,0,.11.4,1.25,1.25,0,0,1,.55-.28,1.19,1.19,0,0,1,1.15.29,1.57,1.57,0,0,0,2.44-.19c.14-.23.3-.44.43-.68C177.3,183,177.09,183.16,176.87,183.3ZM192,184.44a1.56,1.56,0,0,1-.18.5,1.21,1.21,0,0,1-1,.59,1.61,1.61,0,0,0-1.49,1,1.39,1.39,0,0,0-.08.87c0,.27.08.52.15.78.07-.26.11-.51.16-.78a1.67,1.67,0,0,1,.22-.65,1.22,1.22,0,0,1,1.06-.56,1.61,1.61,0,0,0,1.47-1,1.37,1.37,0,0,0,.07-.29C192.19,184.72,192.08,184.58,192,184.44Zm39,41.46c-.07-.25-.1-.51-.17-.78a5.93,5.93,0,0,0-.15.78,1.6,1.6,0,0,1-.21.68,1.21,1.21,0,0,1-1,.59,1.6,1.6,0,0,0-1.49,1,1.29,1.29,0,0,0-.07.86,6.34,6.34,0,0,0,.14.78c.07-.25.11-.51.16-.78a1.57,1.57,0,0,1,.22-.64,1.19,1.19,0,0,1,1.06-.56,1.63,1.63,0,0,0,1.47-1A2,2,0,0,0,230.94,225.9Zm-31.17-9.73c-.06-.26-.09-.51-.16-.78a7.72,7.72,0,0,0-.16.78,1.56,1.56,0,0,1-.21.67,1.19,1.19,0,0,1-1,.6,1.59,1.59,0,0,0-1.49,1,1.3,1.3,0,0,0-.08.86c0,.28.08.53.14.79a5,5,0,0,0,.16-.79,1.63,1.63,0,0,1,.23-.64,1.21,1.21,0,0,1,1-.56,1.62,1.62,0,0,0,1.48-1A1.91,1.91,0,0,0,199.77,216.17Zm-21.13-18c-.06-.26-.09-.51-.16-.78a5.63,5.63,0,0,0-.15.78,1.83,1.83,0,0,1-.09.4c.08.21.17.42.26.64a.48.48,0,0,0,.08-.16A1.78,1.78,0,0,0,178.64,198.18Zm43.69,41.94a1.89,1.89,0,0,1-.61.34,1.28,1.28,0,0,1-1.16-.31,1.61,1.61,0,0,0-1.74-.36,1.42,1.42,0,0,0-.69.55l-.19.29.2.09.22-.15a1.36,1.36,0,0,1,.6-.3,1.27,1.27,0,0,1,1.16.35,1.57,1.57,0,0,0,2.43-.28,7.48,7.48,0,0,0,.43-.66Zm-12.84-33.58a2,2,0,0,1-.61.34,1.26,1.26,0,0,1-1.15-.31,1.63,1.63,0,0,0-1.75-.37,1.52,1.52,0,0,0-.68.56c-.15.23-.31.43-.45.68.24-.15.45-.31.67-.45a1.61,1.61,0,0,1,.61-.31,1.28,1.28,0,0,1,1.15.35,1.63,1.63,0,0,0,1.78.31,1.7,1.7,0,0,0,.66-.58c.14-.22.3-.43.43-.67C209.92,206.23,209.72,206.4,209.49,206.54Zm8.36,11.55a1.79,1.79,0,0,1-.61.34,1.23,1.23,0,0,1-1.16-.31,1.61,1.61,0,0,0-1.74-.36,1.48,1.48,0,0,0-.69.56c-.14.22-.3.43-.45.67l.68-.45a1.54,1.54,0,0,1,.6-.3,1.29,1.29,0,0,1,1.16.35,1.63,1.63,0,0,0,1.78.31,1.78,1.78,0,0,0,.66-.58c.14-.23.3-.43.42-.67C218.28,217.79,218.08,218,217.85,218.09Zm-29.69-6.57a1.79,1.79,0,0,1-.61.34,1.23,1.23,0,0,1-1.16-.31,1.61,1.61,0,0,0-1.74-.36,1.35,1.35,0,0,0-.47.3h0l.18.36a1.54,1.54,0,0,1,.44-.19A1.28,1.28,0,0,1,186,212a1.63,1.63,0,0,0,1.78.31,1.78,1.78,0,0,0,.66-.58c.14-.23.3-.43.42-.67C188.59,211.22,188.39,211.38,188.16,211.52Zm42.77,1.28a1.26,1.26,0,0,1-.64-.23,1.17,1.17,0,0,1-.56-1,1.64,1.64,0,0,0-1-1.48,1.7,1.7,0,0,0-.89,0c-.25,0-.51.07-.78.14.27.08.53.11.78.16a1.48,1.48,0,0,1,.68.21,1.2,1.2,0,0,1,.59,1,1.6,1.6,0,0,0,1,1.49,1.51,1.51,0,0,0,.88.1c.27-.07.53-.1.78-.16A4.9,4.9,0,0,0,230.93,212.8Zm-22.82,18.11a1.26,1.26,0,0,1-.64-.23,1.17,1.17,0,0,1-.56-1.05,1.64,1.64,0,0,0-1-1.48,1.7,1.7,0,0,0-.89,0c-.25,0-.51.08-.78.14.27.08.53.11.78.16a1.52,1.52,0,0,1,.68.21,1.21,1.21,0,0,1,.59,1,1.6,1.6,0,0,0,1,1.49,1.51,1.51,0,0,0,.88.1c.27-.07.53-.1.78-.16A6.33,6.33,0,0,0,208.11,230.91ZM195.6,201a1.56,1.56,0,0,1-.64-.21,1.2,1.2,0,0,1-.56-1.06,1.64,1.64,0,0,0-1-1.47,1.46,1.46,0,0,0-.87-.06l-.8.15a5.71,5.71,0,0,0,.8.17,1.46,1.46,0,0,1,.66.19,1.23,1.23,0,0,1,.59,1,1.56,1.56,0,0,0,1.86,1.59,7.55,7.55,0,0,0,.8-.16C196.13,201.08,195.87,201.05,195.6,201Z" style="fill:#fff"></path><path d="M172.42,181.64c3.33,13.72,15.24,40,23.14,47,4.19,3.7,13.8,8.3,21.91,11.82l.21.08-44.23-69.83a3.85,3.85,0,0,0-.69.06C171.32,172.44,171.1,176.16,172.42,181.64Z" style="opacity:0.1"></path><path d="M223.44,241.07c.66-4.88,2.62-25,2.74-29.34,0-.31-.18-.39-.23-.07-2.32,14.59-2.3,24.55-2.7,29.38C223.24,241.16,223.43,241.19,223.44,241.07Z" style="fill:#263238"></path><path d="M126.63,243.32c.13.19,63.32,10,64,9.41.94-.79-4.49-68.48-7.33-78.89-1.21-4.43-11.15-7.27-16-4.42C155.26,176.54,141.49,205.26,138,214,132.19,228.43,126.2,242.65,126.63,243.32Z" style="fill:#B62BCE"></path><path d="M161.46,175.52c-.05-.28-.08-.54-.15-.79-.07.25-.1.51-.16.79a1.56,1.56,0,0,1-.2.65,1.22,1.22,0,0,1-1,.6,1.68,1.68,0,0,0-.83.23l-.69.85a1.55,1.55,0,0,0-.06.79c.06.25.09.51.16.78a5.93,5.93,0,0,0,.15-.78,1.48,1.48,0,0,1,.23-.66,1.23,1.23,0,0,1,1.06-.56,1.56,1.56,0,0,0,1.52-1.9Zm0,16.53a1.62,1.62,0,0,1-.64-.22,1.19,1.19,0,0,1-.56-1.07,1.66,1.66,0,0,0-1-1.47,1.75,1.75,0,0,0-.87,0,7.6,7.6,0,0,0-.8.17c.27.06.53.09.8.14a1.61,1.61,0,0,1,.66.21,1.21,1.21,0,0,1,.59,1,1.62,1.62,0,0,0,1,1.49,1.56,1.56,0,0,0,.87.09c.27-.06.53-.09.79-.16A6.91,6.91,0,0,0,161.46,192.05Zm16.87,51.68a1.43,1.43,0,0,1-.65-.22,1.24,1.24,0,0,1-.57-1.06,1.54,1.54,0,0,0-1.9-1.52c-.26,0-.53.08-.78.14a6.74,6.74,0,0,0,.78.16,1.66,1.66,0,0,1,.65.21,1.2,1.2,0,0,1,.62,1,1.57,1.57,0,0,0,1,1.49,1.5,1.5,0,0,0,.88.1l.79-.16C178.84,243.81,178.59,243.78,178.33,243.73Zm-18.46-7.32a1.56,1.56,0,0,1-.65-.22,1.23,1.23,0,0,1-.56-1.06,1.61,1.61,0,0,0-1-1.48,1.64,1.64,0,0,0-.87-.06l-.78.16a6.33,6.33,0,0,0,.78.16,1.36,1.36,0,0,1,.66.21,1.21,1.21,0,0,1,.61,1,1.57,1.57,0,0,0,1.85,1.58,8,8,0,0,0,.79-.17C160.39,236.49,160.13,236.46,159.87,236.41ZM134,242.15a1.72,1.72,0,0,1-.65-.22,1.23,1.23,0,0,1-.56-1.06,1.61,1.61,0,0,0-1-1.48,1.64,1.64,0,0,0-.87-.06c-.27.06-.53.09-.79.16a6.91,6.91,0,0,0,.79.16,1.36,1.36,0,0,1,.66.21,1.21,1.21,0,0,1,.61,1,1.57,1.57,0,0,0,1,1.49,1.47,1.47,0,0,0,.87.08,5.82,5.82,0,0,0,.79-.16C134.5,242.23,134.24,242.2,134,242.15Zm35.63-27.76a1.47,1.47,0,0,1-.64-.21,1.24,1.24,0,0,1-.56-1.05,1.62,1.62,0,0,0-1-1.48,1.46,1.46,0,0,0-.87-.06c-.27.06-.52.09-.8.16a8.08,8.08,0,0,0,.8.16,1.56,1.56,0,0,1,.66.19,1.22,1.22,0,0,1,.59,1,1.64,1.64,0,0,0,1,1.5,1.43,1.43,0,0,0,.86.08,7.08,7.08,0,0,0,.8-.16Zm19.82,15.18a1.14,1.14,0,0,1-.35-.17,1.17,1.17,0,0,1-.56-1.05,1.64,1.64,0,0,0-1-1.48,1.66,1.66,0,0,0-.88,0c-.26,0-.52.08-.79.14a7.9,7.9,0,0,0,.79.16,1.47,1.47,0,0,1,.67.21,1.19,1.19,0,0,1,.59,1,1.6,1.6,0,0,0,1,1.49,1.5,1.5,0,0,0,.62.13Zm-1.51-17.88a1.37,1.37,0,0,1-.37.17,1.23,1.23,0,0,1-1.16-.31,1.61,1.61,0,0,0-1.74-.36,1.48,1.48,0,0,0-.69.56c-.14.22-.3.43-.44.67.24-.15.44-.3.67-.45a1.65,1.65,0,0,1,.61-.3A1.28,1.28,0,0,1,186,212a1.63,1.63,0,0,0,1.78.31,1.09,1.09,0,0,0,.23-.14C188,212,187.94,211.85,187.92,211.69Zm-32.71,7.36a6.33,6.33,0,0,0-.16-.78c-.06.25-.1.51-.16.78a1.65,1.65,0,0,1-.19.66,1.22,1.22,0,0,1-1,.59,1.56,1.56,0,0,0-1.58,1.86,7.55,7.55,0,0,0,.16.8,7.55,7.55,0,0,0,.16-.8,1.32,1.32,0,0,1,.22-.64,1.19,1.19,0,0,1,1.06-.56,1.65,1.65,0,0,0,1.47-1A1.54,1.54,0,0,0,155.21,219.05Zm30.72,32.14a6.33,6.33,0,0,0-.16-.78c-.06.25-.1.51-.16.78a1.51,1.51,0,0,1-.2.66,1.43,1.43,0,0,1-.28.32l.66.08a.66.66,0,0,0,.09-.19A1.63,1.63,0,0,0,185.93,251.19Zm-7.29-53c-.06-.26-.09-.51-.16-.78a5.63,5.63,0,0,0-.15.78,1.71,1.71,0,0,1-.21.67,1.2,1.2,0,0,1-1,.6,1.61,1.61,0,0,0-1.49,1,1.39,1.39,0,0,0-.08.87c0,.27.08.52.15.78.07-.26.11-.51.16-.78a1.67,1.67,0,0,1,.22-.65,1.22,1.22,0,0,1,1.06-.56,1.61,1.61,0,0,0,1.47-1A1.78,1.78,0,0,0,178.64,198.18ZM143.48,213a1.65,1.65,0,0,1-.65-.2,1.24,1.24,0,0,1-.56-1.06,1.61,1.61,0,0,0-1-1.47,1.43,1.43,0,0,0-.86-.07c-.28.07-.53.1-.8.16a5.39,5.39,0,0,0,.8.16,1.51,1.51,0,0,1,.66.2,1.23,1.23,0,0,1,.59,1,1.65,1.65,0,0,0,1,1.51,1.54,1.54,0,0,0,.87.07,5.9,5.9,0,0,0,.8-.15C144,213.11,143.75,213.08,143.48,213ZM145,244.92c-.06-.28-.09-.53-.16-.79a5,5,0,0,0-.15.79,1.66,1.66,0,0,1-.21.66,1.47,1.47,0,0,1-.57.51c.27,0,.52.07.79.12a1.64,1.64,0,0,0,.24-.43A1.6,1.6,0,0,0,145,244.92Zm31.88-61.62a1.54,1.54,0,0,1-.61.31,1.2,1.2,0,0,1-1.14-.36,1.64,1.64,0,0,0-1.77-.3,1.51,1.51,0,0,0-.66.58,7.83,7.83,0,0,0-.45.67c.24-.15.45-.3.67-.45a1.34,1.34,0,0,1,.61-.32,1.19,1.19,0,0,1,1.15.29,1.57,1.57,0,0,0,2.44-.19c.14-.23.3-.44.43-.68C177.3,183,177.09,183.16,176.87,183.3Zm-21.24,19.24a1.28,1.28,0,0,1-1.75,0,1.61,1.61,0,0,0-1.77-.3,1.49,1.49,0,0,0-.66.57c-.14.23-.32.44-.45.68.24-.15.45-.31.67-.45a1.34,1.34,0,0,1,.61-.32,1.17,1.17,0,0,1,1.15.29,1.59,1.59,0,0,0,1.75.36,1.54,1.54,0,0,0,.69-.56,7.65,7.65,0,0,0,.43-.67C156.06,202.24,155.85,202.39,155.63,202.54Zm-14.38,28.33a1.28,1.28,0,0,1-1.76,0,1.61,1.61,0,0,0-1.77-.32,1.84,1.84,0,0,0-.65.57,5.71,5.71,0,0,0-.45.68,6,6,0,0,0,.67-.45,1.44,1.44,0,0,1,.61-.32,1.25,1.25,0,0,1,1.14.3,1.62,1.62,0,0,0,1.76.37,1.5,1.5,0,0,0,.67-.56c.14-.22.32-.43.45-.67C141.68,230.57,141.47,230.73,141.25,230.87Zm34.07-2.9a1.48,1.48,0,0,1-.63.31,1.26,1.26,0,0,1-1.14-.35,1.56,1.56,0,0,0-1.78-.31,1.6,1.6,0,0,0-.65.58c-.15.21-.3.41-.45.65a6,6,0,0,0,.67-.44,2.31,2.31,0,0,1,.61-.33,1.25,1.25,0,0,1,1.15.31,1.57,1.57,0,0,0,2.44-.19c.14-.23.3-.44.43-.68C175.74,227.66,175.54,227.81,175.32,228Zm-11.83,18a1.55,1.55,0,0,1-.62.3,1.26,1.26,0,0,1-1.14-.35,1.56,1.56,0,0,0-1.78-.31,1.6,1.6,0,0,0-.65.58c-.15.21-.31.41-.45.65a4.83,4.83,0,0,0,.67-.44,2.31,2.31,0,0,1,.61-.33,1.25,1.25,0,0,1,1.15.31,1.57,1.57,0,0,0,2.44-.19c.14-.22.3-.43.43-.67A6.44,6.44,0,0,0,163.49,246Zm26.69-6a1.51,1.51,0,0,0-.34.39,6,6,0,0,0-.45.67c.24-.15.45-.3.67-.45l.15-.12Z" style="fill:#fff"></path><rect x="220.72" y="201.3" width="8.81" height="42.39" transform="translate(243.81 -93.47) rotate(48.72)" style="fill:#455a64"></rect><path d="M302.51,154.56a45.58,45.58,0,1,0-4.19,64.32A45.58,45.58,0,0,0,302.51,154.56Zm-61.29,53.81a36,36,0,1,1,50.77,3.3A36,36,0,0,1,241.22,208.37Z" style="fill:#263238"></path><rect x="194.11" y="226.72" width="13.32" height="34.32" rx="1.64" transform="translate(251.59 -67.89) rotate(48.72)" style="fill:#263238"></rect><g style="opacity:0.4"><path d="M292,211.67a36,36,0,1,1,3.31-50.78A36,36,0,0,1,292,211.67Z" style="fill:#fff"></path><path d="M283.47,217.24a36,36,0,0,1-42.25-8.87,36.58,36.58,0,0,1-5.44-8.23Z" style="fill:#ebebeb"></path><path d="M304.13,187.38,238.82,164a35.84,35.84,0,0,1,5.7-6.35,35.44,35.44,0,0,1,8.16-5.4l48.23,17.29A36,36,0,0,1,304.13,187.38Z" style="fill:#ebebeb"></path><path d="M294.57,209.17l-62.22-22.32a37,37,0,0,1,.26-7l66.25,23.76A35.21,35.21,0,0,1,294.57,209.17Z" style="fill:#ebebeb"></path><path d="M303.41,192.25l-67.14-24.08c.2-.39.4-.77.61-1.15L303.67,191C303.59,191.4,303.52,191.83,303.41,192.25Z" style="fill:#ebebeb"></path><path d="M294.07,159.57l-29.8-10.69c1.07-.12,2.15-.19,3.23-.21l24.23,8.69C292.54,158.05,293.32,158.79,294.07,159.57Z" style="fill:#ebebeb"></path></g><path d="M250.7,165.06l.12-.09c.55-.44-.57.41-.18.13s.91-.65,1.38-1a36.6,36.6,0,0,1,5.2-2.79L258,161c.08,0-.61.24-.06,0l.48-.18c.62-.23,1.24-.44,1.86-.64a33.62,33.62,0,0,1,4.22-1l1-.16c.46-.07-.52.06.1,0l.62-.06q1.18-.1,2.37-.12c.86,0,1.71,0,2.56.09l1.17.11c.68.08-.27-.05.21,0l.7.11a32.26,32.26,0,0,1,6.09,1.72l.1,0,.21.09c.28.13.57.25.85.39q.83.38,1.62.81a37.46,37.46,0,0,1,3.28,2,2.71,2.71,0,0,0,2.7-4.71,34.2,34.2,0,0,0-22.89-5.84,37.32,37.32,0,0,0-15.32,5.39,26.18,26.18,0,0,0-3,2.12,2.73,2.73,0,0,0,0,3.84,2.78,2.78,0,0,0,3.84,0Z" style="fill:#fff"></path><path d="M245.07,170.84a2.67,2.67,0,1,1,0-3.77A2.66,2.66,0,0,1,245.07,170.84Z" style="fill:#fff"></path><path d="M160.33,174.23c-13.35,11.85-37.7,44.88-33.71,51,9,13.95,27.28,28.35,34.84,32.61,3.26,1.84,21.52-20.77,18.7-23.6-3.4-3.4-26.51-19.08-26.35-20.34s8.84-17.71,13.49-31.09C173.08,166.25,165.9,169.28,160.33,174.23Z" style="fill:#f7a9a0"></path><path d="M167.81,229.62s11.37-.72,18.83-.84c4.16-.07,11.3.45,14.38,1.8,4.61,2,22.58,13.39,19.92,17.81-2.41,4-16.61-7.74-16.61-7.74s15.37,10.57,11.59,14.86-18.08-11.11-18.08-11.11,15.56,11.21,10.95,15c-3.48,2.87-17.2-10.34-17.2-10.34s13.3,9.73,9.85,12.84c-3.81,3.43-17.24-8-17.24-8-10.11,6.42-17.51,5.91-22.74,3.94C160.24,257.42,167.81,229.62,167.81,229.62Z" style="fill:#f7a9a0"></path><path d="M200,237.18c11.92,6.92,15.65,14,15.51,13.8-3.23-3.95-9.39-8.83-11.13-10.17s-2.69-2.23-4.43-3.57C199.85,237.21,199.91,237.15,200,237.18Z" style="fill:#263238"></path><path d="M194.3,242.85A47,47,0,0,1,207.44,253c.13.17,0,.18-.14,0-2.17-1.76-10.8-8.52-13-10.17C194.22,242.88,194.26,242.83,194.3,242.85Z" style="fill:#263238"></path><path d="M189.1,247.41a34.65,34.65,0,0,1,9.94,8.17c.14.16,0,.18-.18,0-3.26-2.78-5.79-5-9.84-8.09C189,247.49,189,247.36,189.1,247.41Z" style="fill:#263238"></path><path d="M173.68,228.05l-21.36,25.83s-27.5-24.56-26.81-31.76c1-10.14,27.81-42.71,35.16-48.73,7.18-5.88,11.25-4.39,8.34,5.18-2.66,8.72-13.75,34.49-13.76,34.88S173.68,228.05,173.68,228.05Z" style="fill:#B62BCE"></path><path d="M173.67,228l0,0-.07-.06v0a1.26,1.26,0,0,0-.38-.27,1.51,1.51,0,0,0-1.4,0,1.6,1.6,0,0,0-.65.58c-.15.21-.3.41-.45.65a6,6,0,0,0,.67-.44,2.31,2.31,0,0,1,.61-.33,1.25,1.25,0,0,1,1.15.31.65.65,0,0,0,.18.15l.4-.49A0,0,0,0,0,173.67,228Zm-32.42,2.83a1.28,1.28,0,0,1-1.76,0,1.61,1.61,0,0,0-1.77-.32,1.84,1.84,0,0,0-.65.57,5.71,5.71,0,0,0-.45.68,6,6,0,0,0,.67-.45,1.44,1.44,0,0,1,.61-.32,1.25,1.25,0,0,1,1.14.3,1.62,1.62,0,0,0,1.76.37,1.5,1.5,0,0,0,.67-.56c.14-.22.32-.43.45-.67C141.68,230.57,141.47,230.73,141.25,230.87Zm-4.94-28.33a1.23,1.23,0,0,1-.46.27c-.15.21-.3.41-.44.62a1.48,1.48,0,0,0,.45-.11,1.54,1.54,0,0,0,.69-.56,7.74,7.74,0,0,0,.44-.67Zm19.32,0a1.28,1.28,0,0,1-1.75,0,1.61,1.61,0,0,0-1.77-.3,1.49,1.49,0,0,0-.66.57c-.14.23-.32.44-.45.68.24-.15.45-.31.67-.45a1.34,1.34,0,0,1,.61-.32,1.17,1.17,0,0,1,1.15.29,1.59,1.59,0,0,0,1.75.36,1.54,1.54,0,0,0,.69-.56,7.65,7.65,0,0,0,.43-.67C156.06,202.24,155.85,202.39,155.63,202.54ZM145,244.92c-.06-.28-.09-.53-.16-.79a5,5,0,0,0-.15.79,1.66,1.66,0,0,1-.21.66,1.29,1.29,0,0,1-.5.46l.45.43a1.58,1.58,0,0,0,.51-.69A1.6,1.6,0,0,0,145,244.92Zm2.26-54.09c-.06-.26-.09-.51-.16-.78a5.63,5.63,0,0,0-.15.78,1.82,1.82,0,0,1-.21.68,1.21,1.21,0,0,1-1,.59,1.6,1.6,0,0,0-1.49,1,1.39,1.39,0,0,0-.08.87c.05.27.08.52.15.78.07-.26.11-.51.16-.78a1.67,1.67,0,0,1,.22-.65,1.22,1.22,0,0,1,1.06-.56,1.61,1.61,0,0,0,1.47-1A1.78,1.78,0,0,0,147.25,190.83ZM143.48,213a1.65,1.65,0,0,1-.65-.2,1.24,1.24,0,0,1-.56-1.06,1.61,1.61,0,0,0-1-1.47,1.43,1.43,0,0,0-.86-.07c-.28.07-.53.1-.8.16a5.39,5.39,0,0,0,.8.16,1.51,1.51,0,0,1,.66.2,1.23,1.23,0,0,1,.59,1,1.65,1.65,0,0,0,1,1.51,1.54,1.54,0,0,0,.87.07,5.9,5.9,0,0,0,.8-.15C144,213.11,143.75,213.08,143.48,213Zm-11.84,4.47c0-.28-.08-.53-.15-.79-.07.26-.1.51-.17.79a1.55,1.55,0,0,1-.19.65,1.17,1.17,0,0,1-1,.59,1.67,1.67,0,0,0-1.51,1,1.64,1.64,0,0,0-.08.87,7.37,7.37,0,0,0,.16.79,7.37,7.37,0,0,0,.16-.79,1.3,1.3,0,0,1,.23-.65,1.21,1.21,0,0,1,1.05-.56,1.62,1.62,0,0,0,1.47-1A1.5,1.5,0,0,0,131.64,217.48Zm23.57,1.57a6.33,6.33,0,0,0-.16-.78c-.06.25-.1.51-.16.78a1.65,1.65,0,0,1-.19.66,1.22,1.22,0,0,1-1,.59,1.56,1.56,0,0,0-1.58,1.86,7.55,7.55,0,0,0,.16.8,7.55,7.55,0,0,0,.16-.8,1.32,1.32,0,0,1,.22-.64,1.19,1.19,0,0,1,1.06-.56,1.65,1.65,0,0,0,1.47-1A1.54,1.54,0,0,0,155.21,219.05Zm3.28-43.67v0a.13.13,0,0,0,0-.06Zm1.38,61a1.56,1.56,0,0,1-.65-.22,1.23,1.23,0,0,1-.56-1.06,1.61,1.61,0,0,0-1-1.48,1.64,1.64,0,0,0-.87-.06l-.78.16a6.33,6.33,0,0,0,.78.16,1.36,1.36,0,0,1,.66.21,1.21,1.21,0,0,1,.61,1,1.57,1.57,0,0,0,1.85,1.58,8,8,0,0,0,.79-.17C160.39,236.49,160.13,236.46,159.87,236.41Zm1.59-44.36a1.62,1.62,0,0,1-.64-.22,1.19,1.19,0,0,1-.56-1.07,1.66,1.66,0,0,0-1-1.47,1.75,1.75,0,0,0-.87,0,7.6,7.6,0,0,0-.8.17c.27.06.53.09.8.14a1.61,1.61,0,0,1,.66.21,1.21,1.21,0,0,1,.59,1,1.62,1.62,0,0,0,1,1.49,1.56,1.56,0,0,0,.87.09c.27-.06.53-.09.79-.16A6.91,6.91,0,0,0,161.46,192.05Zm0-16.53c-.05-.28-.08-.54-.15-.79-.07.25-.1.51-.16.79a1.56,1.56,0,0,1-.2.65,1.22,1.22,0,0,1-1,.6,1.61,1.61,0,0,0-1.49,1,1.5,1.5,0,0,0-.09.88c.06.25.09.51.16.78a5.93,5.93,0,0,0,.15-.78,1.48,1.48,0,0,1,.23-.66,1.23,1.23,0,0,1,1.06-.56,1.56,1.56,0,0,0,1.52-1.9Z" style="fill:#fff"></path><path d="M148.36,247.81c3.26-3.7,16.07-19.3,18.61-22.85.17-.25.06-.42-.16-.19-10,10.83-15.58,19.12-18.59,22.9C148.14,247.77,148.27,247.9,148.36,247.81Z" style="fill:#263238"></path><path d="M166.4,185.88c0-.11.25,0,.21.07-.38,1.19-1,2.93-1.8,5l.21-.33c.49-.82.95-1.65,1.36-2.51,0-.09.18,0,.14.07-.41.87-.83,1.75-1.29,2.6a14.3,14.3,0,0,1-1,1.68C161,200.92,156,213,156,213.35c0,.53,14.91,12,17.91,14.53.11.1-.62.84-.71,1a.1.1,0,0,1-.18-.07,6.15,6.15,0,0,1,.38-.69c-2.9-2.07-18.12-13.91-18.33-14.47S164.8,189.48,166.4,185.88Z" style="fill:#263238"></path><path d="M131.88,233.19c.89.74,8.85,9.63,9.72,10.46a.08.08,0,0,1-.1.12c-3.52-2.51-9-9-9.69-10.52C131.79,233.2,131.83,233.15,131.88,233.19Z" style="fill:#263238"></path><path d="M252.64,211.72c.24,4.66,2.9,11.44,2,14.78a4,4,0,0,1-3.65,3.05s2.52,2.9,1.17,5.79c-.69,1.49-3.68,1.69-3.68,1.69s1.92,2.42.56,4.92c-1.09,2-3.92,1.89-3.92,1.89s.76,3.17-1,4.85c-3.56,3.4-21.55-4.05-21.59-11.82,0-3.63,4.28-1.57,4.28-1.57s-5.46-4.45-4-8.2,6.86-.74,6.86-.74-5.25-4.35-3.37-8.09c2-3.89,6.87,0,6.87,0s-2.88-4.37-.78-6.9c3.46-4.17,10,5.59,14.39,6.28l3-6.27Z" style="fill:#f7a9a0"></path><path d="M253.53,218.69c.16-4.43,3.62-4.94,5-9,1.49-4.53-4.18-5.54-8.65,1.53l-3.1,6.5Z" style="fill:#f7a9a0"></path><path d="M244.63,243.89a.05.05,0,0,1,0,.1,33.84,33.84,0,0,1-18.08-8.77c-.15-.16,0-.48.23-.34A69.31,69.31,0,0,0,244.63,243.89Z" style="fill:#263238"></path><path d="M248.51,237.11c.07,0,0,.14,0,.13-6.7-1.08-14.32-4.78-19.12-10.8-.16-.21-.1-.56.1-.33C232.94,229.86,242.51,235.2,248.51,237.11Z" style="fill:#263238"></path><path d="M232.91,217.77c4.82,5.59,11,9.07,17.76,11.75.09,0,0,.15,0,.14-3.69-.4-7.85-2.55-11-4.5a19.44,19.44,0,0,1-7-7.22C232.64,217.82,232.8,217.65,232.91,217.77Z" style="fill:#263238"></path><path d="M178.61,180.4c-3.28-.18-7.73-7-8.68-11.44a66.07,66.07,0,0,1,2.47-6.19c.79-2,1.63-4.22,2.25-6.31l12.16,7.06a34.48,34.48,0,0,0-3.64,7.65,4,4,0,0,0-.16.88,1.31,1.31,0,0,1,0,.15C182.77,173.9,181.79,180.58,178.61,180.4Z" style="fill:#f7a9a0"></path><path d="M181.62,171.87a8.63,8.63,0,0,0,1.36.33l0-.15a4.09,4.09,0,0,1,.16-.88,34.66,34.66,0,0,1,3.63-7.65L175,156.69C174.7,159.82,174.3,169.53,181.62,171.87Z" style="fill:#263238"></path><path d="M173.24,143.66c-1.59,4.81.65,18.86,4,22.06,4.89,4.64,13.06,5.26,17-.66,3.86-5.73.62-24-3.16-26.91C185.56,133.84,175.58,136.56,173.24,143.66Z" style="fill:#f7a9a0"></path><path d="M187.18,152.93s-.07,0-.06.09c.17.95.22,2-.59,2.5a0,0,0,1,0,0,0C187.57,155.26,187.5,153.79,187.18,152.93Z" style="fill:#263238"></path><path d="M186.18,152.07c-1.54.12-1.19,3.19.24,3.08S187.47,152,186.18,152.07Z" style="fill:#263238"></path><path d="M192.45,152.27s.08,0,.09.07c.08,1,.33,2,1.22,2.26a0,0,0,0,1,0,.05C192.69,154.62,192.38,153.18,192.45,152.27Z" style="fill:#263238"></path><path d="M193.19,151.18c1.52-.3,2,2.76.58,3S191.92,151.42,193.19,151.18Z" style="fill:#263238"></path><path d="M184.81,150.8c.4-.15.75-.36,1.14-.55a2.15,2.15,0,0,0,1.06-.79.65.65,0,0,0-.2-.77,1.58,1.58,0,0,0-1.64,0,2.4,2.4,0,0,0-1.25,1.18A.69.69,0,0,0,184.81,150.8Z" style="fill:#263238"></path><path d="M194.2,149.49c-.43,0-.83-.11-1.26-.17a2.09,2.09,0,0,1-1.24-.43.65.65,0,0,1-.06-.8,1.62,1.62,0,0,1,1.57-.48,2.33,2.33,0,0,1,1.55.74A.69.69,0,0,1,194.2,149.49Z" style="fill:#263238"></path><path d="M186.8,161.68c.25.2.51.48.86.47a2.56,2.56,0,0,0,1-.36s.06,0,0,0a1.26,1.26,0,0,1-1.14.66,1,1,0,0,1-.85-.76S186.76,161.65,186.8,161.68Z" style="fill:#263238"></path><path d="M187.47,158.72a3.29,3.29,0,0,0,2.33,1.19,4.17,4.17,0,0,0,1.17-.08l.22-.05.21-.06a.23.23,0,0,0,.16-.23h0a.44.44,0,0,0,0-.1h0v-.09c-.06-.73-.26-1.84-.26-1.84.28.11,1.72.56,1.65.18a49.05,49.05,0,0,0-2.38-9.66.09.09,0,0,0-.17,0c.41,3.05,1.35,6,1.82,9.06a5.65,5.65,0,0,0-1.59-.29c-.1,0,.43,2.13.43,2.46v0a4.53,4.53,0,0,1-3.48-.66C187.47,158.57,187.41,158.65,187.47,158.72Z" style="fill:#263238"></path><path d="M190.5,159.51a3.87,3.87,0,0,1-1.41,1.37,1.74,1.74,0,0,1-1,.18c-.78-.11-.88-.81-.81-1.42a4.27,4.27,0,0,1,.24-.95A5,5,0,0,0,190.5,159.51Z" style="fill:#263238"></path><path d="M189.09,160.88a1.74,1.74,0,0,1-1,.18c-.78-.11-.88-.81-.81-1.42A1.79,1.79,0,0,1,189.09,160.88Z" style="fill:#ff98b9"></path><path d="M177.58,151.37c1-2.73-.57-7.33.8-8.54,3-2.64,9,2.51,13.15,2.57s5.4-2.52,4.7-5.79-3.46-5.5-8-6.21A17,17,0,0,0,177,136s1-1.62.66-2.13-2.36,1-3,1.71a6.07,6.07,0,0,0-1,1.93,6.29,6.29,0,0,0-1.83-.21,3.82,3.82,0,0,0-2.4,1c-.08.24,1.39.44,2.42.5,0,0-1.94,2.53-1.92,4.71s3.33,12.56,4.14,12.67C175.11,156.36,177.2,152.47,177.58,151.37Z" style="fill:#263238"></path><path d="M172.24,138.56s.08,0,0,.06a7,7,0,0,0-2.21,3.06,8.55,8.55,0,0,0-.08,4.49,41.07,41.07,0,0,0,3.18,8.13c0,.08-.09.14-.13.06a30.34,30.34,0,0,1-3.44-8.75C169.16,143,169.79,140,172.24,138.56Z" style="fill:#263238"></path><path d="M178.23,141.77a9.83,9.83,0,0,1,3.66.27,14.08,14.08,0,0,1,3.12,1.58,14,14,0,0,0,7.42,2.1s0,.05,0,.06a12.22,12.22,0,0,1-6.91-1.55,30.56,30.56,0,0,0-3.23-1.74,12.58,12.58,0,0,0-4-.5A.11.11,0,0,1,178.23,141.77Z" style="fill:#263238"></path><path d="M179.47,134.85a19.12,19.12,0,0,1,5.18-1.66,15,15,0,0,1,5.21-.14,7.54,7.54,0,0,1,6.39,5.51,6.55,6.55,0,0,1-.65,4.65c-.06.09-.2,0-.15-.08A6.73,6.73,0,0,0,194,135.2c-2.43-2.15-5.87-2.34-8.93-1.88a27.67,27.67,0,0,0-5.58,1.55S179.46,134.86,179.47,134.85Z" style="fill:#263238"></path><path d="M176,155.13s-3.15-4.53-5.21-3.41.3,7.69,2.71,8.6a2.46,2.46,0,0,0,3.29-1.31Z" style="fill:#f7a9a0"></path><path d="M171.48,153.59s0,0,0,.06a6.19,6.19,0,0,1,3.19,3.89,1.35,1.35,0,0,0-2-.38s0,.1,0,.09a1.52,1.52,0,0,1,1.66.53,7.33,7.33,0,0,1,.79,1.35c.08.15.36.07.3-.1l0,0C175.46,156.83,173.8,153.81,171.48,153.59Z" style="fill:#263238"></path><path d="M183.13,171.23l-4.32,7.55-8.53-11.48L167,170.15s7.5,17.4,7.66,16.69l4.24-6.44,4.09,5.45,1.28-12.08Z" style="fill:#fff"></path><path d="M184,179.92c.14-2,.34-4,.39-6a.07.07,0,0,0-.13,0c-.66,1.86-1.17,9.52-1.43,11.33l0,0c-.17-.23-3.82-4.82-3.87-4.77-.87,1-4,5.68-4.2,6.11-1.19-2.76-5.79-12.85-7.28-15.51a.07.07,0,1,0-.12.05c1,2.88,7,16.45,7.17,16.43a79.43,79.43,0,0,0,4.45-6.81c.59,1,4.21,6.09,4.27,5.79A62.37,62.37,0,0,0,184,179.92Z" style="fill:#263238"></path></g></svg>