<svg xmlns="http://www.w3.org/2000/svg" viewBox="0 0 500 500"><g id="freepik--background-complete--inject-16"><path d="M271.69,100.81a2.9,2.9,0,0,1,1.28-.15h.43l-.14.14c0-.5.08-.85.14-.85s.12.35.14.85v.13H273A2.9,2.9,0,0,1,271.69,100.81Z" style="fill:#e0e0e0"></path><path d="M268.26,100.81c0-.08.38-.15.86-.15s.85.07.85.15-.38.15-.85.15S268.26,100.89,268.26,100.81Z" style="fill:#e0e0e0"></path><path d="M264.83,100.81c0-.08.39-.15.86-.15s.86.07.86.15-.39.15-.86.15S264.83,100.89,264.83,100.81Z" style="fill:#e0e0e0"></path><path d="M261.41,100.81c0-.08.38-.15.85-.15s.86.07.86.15-.38.15-.86.15S261.41,100.89,261.41,100.81Z" style="fill:#e0e0e0"></path><path d="M258,100.81c0-.08.38-.15.85-.15s.86.07.86.15-.38.15-.86.15S258,100.89,258,100.81Z" style="fill:#e0e0e0"></path><path d="M254.55,100.81c0-.08.38-.15.86-.15s.85.07.85.15-.38.15-.85.15S254.55,100.89,254.55,100.81Z" style="fill:#e0e0e0"></path><path d="M251.12,100.81c0-.08.39-.15.86-.15s.86.07.86.15-.39.15-.86.15S251.12,100.89,251.12,100.81Z" style="fill:#e0e0e0"></path><path d="M247.7,100.81c0-.08.38-.15.85-.15s.86.07.86.15-.38.15-.86.15S247.7,100.89,247.7,100.81Z" style="fill:#e0e0e0"></path><path d="M244.27,100.81c0-.08.38-.15.86-.15s.85.07.85.15-.38.15-.85.15S244.27,100.89,244.27,100.81Z" style="fill:#e0e0e0"></path><path d="M240.84,100.81c0-.08.39-.15.86-.15s.86.07.86.15-.39.15-.86.15S240.84,100.89,240.84,100.81Z" style="fill:#e0e0e0"></path><path d="M237.42,100.81c0-.08.38-.15.85-.15s.86.07.86.15-.38.15-.86.15S237.42,100.89,237.42,100.81Z" style="fill:#e0e0e0"></path><path d="M234,100.81c0-.08.38-.15.86-.15s.85.07.85.15-.38.15-.85.15S234,100.89,234,100.81Z" style="fill:#e0e0e0"></path><path d="M230.56,100.81c0-.08.39-.15.86-.15s.86.07.86.15-.39.15-.86.15S230.56,100.89,230.56,100.81Z" style="fill:#e0e0e0"></path><path d="M227.13,100.81c0-.08.39-.15.86-.15s.86.07.86.15-.39.15-.86.15S227.13,100.89,227.13,100.81Z" style="fill:#e0e0e0"></path><path d="M223.71,100.81c0-.08.38-.15.85-.15s.86.07.86.15-.38.15-.86.15S223.71,100.89,223.71,100.81Z" style="fill:#e0e0e0"></path><path d="M220.28,100.81c0-.08.38-.15.86-.15s.85.07.85.15-.38.15-.85.15S220.28,100.89,220.28,100.81Z" style="fill:#e0e0e0"></path><path d="M216.85,100.81c0-.08.39-.15.86-.15s.86.07.86.15-.39.15-.86.15S216.85,100.89,216.85,100.81Z" style="fill:#e0e0e0"></path><path d="M213.43,100.81c0-.08.38-.15.85-.15s.86.07.86.15-.38.15-.86.15S213.43,100.89,213.43,100.81Z" style="fill:#e0e0e0"></path><path d="M212.36,98.45c.08,0,.15.38.15.86s-.07.85-.15.85-.15-.38-.15-.85S212.28,98.45,212.36,98.45Z" style="fill:#e0e0e0"></path><path d="M212.36,95c.08,0,.15.39.15.86s-.07.86-.15.86-.15-.39-.15-.86S212.28,95,212.36,95Z" style="fill:#e0e0e0"></path><path d="M212.36,91.6c.08,0,.15.38.15.85s-.07.86-.15.86-.15-.38-.15-.86S212.28,91.6,212.36,91.6Z" style="fill:#e0e0e0"></path><path d="M212.36,88.17c.08,0,.15.38.15.86s-.07.85-.15.85-.15-.38-.15-.85S212.28,88.17,212.36,88.17Z" style="fill:#e0e0e0"></path><path d="M212.36,84.74c.08,0,.15.39.15.86s-.07.86-.15.86-.15-.39-.15-.86S212.28,84.74,212.36,84.74Z" style="fill:#e0e0e0"></path><path d="M212.36,81.31c.08,0,.15.39.15.86s-.07.86-.15.86-.15-.39-.15-.86S212.28,81.31,212.36,81.31Z" style="fill:#e0e0e0"></path><path d="M212.36,77.89c.08,0,.15.38.15.85s-.07.86-.15.86-.15-.38-.15-.86S212.28,77.89,212.36,77.89Z" style="fill:#e0e0e0"></path><path d="M212.36,74.46c.08,0,.15.38.15.86s-.07.85-.15.85-.15-.38-.15-.85S212.28,74.46,212.36,74.46Z" style="fill:#e0e0e0"></path><path d="M212.36,71c.08,0,.15.39.15.86s-.07.86-.15.86-.15-.39-.15-.86S212.28,71,212.36,71Z" style="fill:#e0e0e0"></path><path d="M212.36,67.61c.08,0,.15.38.15.85s-.07.86-.15.86-.15-.38-.15-.86S212.28,67.61,212.36,67.61Z" style="fill:#e0e0e0"></path><path d="M212.36,64.18c.08,0,.15.38.15.86s-.07.85-.15.85-.15-.38-.15-.85S212.28,64.18,212.36,64.18Z" style="fill:#e0e0e0"></path><path d="M212.36,60.75c.08,0,.15.39.15.86s-.07.86-.15.86-.15-.39-.15-.86S212.28,60.75,212.36,60.75Z" style="fill:#e0e0e0"></path><path d="M212.36,57.33c.08,0,.15.38.15.85s-.07.86-.15.86-.15-.38-.15-.86S212.28,57.33,212.36,57.33Z" style="fill:#e0e0e0"></path><path d="M212.36,53.9c.08,0,.15.38.15.86s-.07.85-.15.85-.15-.38-.15-.85S212.28,53.9,212.36,53.9Z" style="fill:#e0e0e0"></path><path d="M212.36,50.47c.08,0,.15.38.15.86s-.07.85-.15.85-.15-.38-.15-.85S212.28,50.47,212.36,50.47Z" style="fill:#e0e0e0"></path><path d="M212.36,47c.08,0,.15.39.15.86s-.07.86-.15.86-.15-.39-.15-.86S212.28,47,212.36,47Z" style="fill:#e0e0e0"></path><path d="M212.36,43.62c.08,0,.15.38.15.85s-.07.86-.15.86-.15-.38-.15-.86S212.28,43.62,212.36,43.62Z" style="fill:#e0e0e0"></path><path d="M212.36,40.19c.08,0,.15.38.15.86s-.07.85-.15.85-.15-.38-.15-.85S212.28,40.19,212.36,40.19Z" style="fill:#e0e0e0"></path><path d="M215.36,39.76c0,.09-.38.15-.86.15s-.85-.06-.85-.15.38-.14.85-.14S215.36,39.68,215.36,39.76Z" style="fill:#e0e0e0"></path><path d="M218.79,39.76c0,.09-.39.15-.86.15s-.86-.06-.86-.15.39-.14.86-.14S218.79,39.68,218.79,39.76Z" style="fill:#e0e0e0"></path><path d="M222.21,39.76c0,.09-.38.15-.85.15s-.86-.06-.86-.15.38-.14.86-.14S222.21,39.68,222.21,39.76Z" style="fill:#e0e0e0"></path><path d="M225.64,39.76c0,.09-.38.15-.86.15s-.85-.06-.85-.15.38-.14.85-.14S225.64,39.68,225.64,39.76Z" style="fill:#e0e0e0"></path><path d="M229.07,39.76c0,.09-.39.15-.86.15s-.86-.06-.86-.15.39-.14.86-.14S229.07,39.68,229.07,39.76Z" style="fill:#e0e0e0"></path><path d="M232.49,39.76c0,.09-.38.15-.85.15s-.86-.06-.86-.15.38-.14.86-.14S232.49,39.68,232.49,39.76Z" style="fill:#e0e0e0"></path><path d="M235.92,39.76c0,.09-.38.15-.86.15s-.85-.06-.85-.15.38-.14.85-.14S235.92,39.68,235.92,39.76Z" style="fill:#e0e0e0"></path><path d="M239.35,39.76c0,.09-.39.15-.86.15s-.86-.06-.86-.15.39-.14.86-.14S239.35,39.68,239.35,39.76Z" style="fill:#e0e0e0"></path><path d="M242.78,39.76c0,.09-.39.15-.86.15s-.86-.06-.86-.15.39-.14.86-.14S242.78,39.68,242.78,39.76Z" style="fill:#e0e0e0"></path><path d="M246.2,39.76c0,.09-.38.15-.85.15s-.86-.06-.86-.15.38-.14.86-.14S246.2,39.68,246.2,39.76Z" style="fill:#e0e0e0"></path><path d="M249.63,39.76c0,.09-.38.15-.86.15s-.85-.06-.85-.15.38-.14.85-.14S249.63,39.68,249.63,39.76Z" style="fill:#e0e0e0"></path><path d="M253.06,39.76c0,.09-.39.15-.86.15s-.86-.06-.86-.15.39-.14.86-.14S253.06,39.68,253.06,39.76Z" style="fill:#e0e0e0"></path><path d="M256.48,39.76c0,.09-.38.15-.85.15s-.86-.06-.86-.15.38-.14.86-.14S256.48,39.68,256.48,39.76Z" style="fill:#e0e0e0"></path><path d="M259.91,39.76c0,.09-.38.15-.86.15s-.85-.06-.85-.15.38-.14.85-.14S259.91,39.68,259.91,39.76Z" style="fill:#e0e0e0"></path><path d="M263.34,39.76c0,.09-.39.15-.86.15s-.86-.06-.86-.15.39-.14.86-.14S263.34,39.68,263.34,39.76Z" style="fill:#e0e0e0"></path><path d="M266.76,39.76c0,.09-.38.15-.85.15s-.86-.06-.86-.15.38-.14.86-.14S266.76,39.68,266.76,39.76Z" style="fill:#e0e0e0"></path><path d="M270.19,39.76c0,.09-.38.15-.86.15s-.85-.06-.85-.15.38-.14.85-.14S270.19,39.68,270.19,39.76Z" style="fill:#e0e0e0"></path><path d="M273.4,40s-.07-.08-.1-.22l.1.1a3.52,3.52,0,0,1-.64,0c-.47,0-.86-.06-.86-.15s.39-.14.86-.14a3.52,3.52,0,0,1,.64.05l.11,0v.07C273.47,39.9,273.44,40,273.4,40Z" style="fill:#e0e0e0"></path><path d="M273.4,43.41c-.08,0-.15-.38-.15-.86s.07-.85.15-.85.15.38.15.85S273.48,43.41,273.4,43.41Z" style="fill:#e0e0e0"></path><path d="M273.4,46.84c-.08,0-.15-.39-.15-.86s.07-.86.15-.86.15.39.15.86S273.48,46.84,273.4,46.84Z" style="fill:#e0e0e0"></path><path d="M273.4,50.26c-.08,0-.15-.38-.15-.85s.07-.86.15-.86.15.38.15.86S273.48,50.26,273.4,50.26Z" style="fill:#e0e0e0"></path><path d="M273.4,53.69c-.08,0-.15-.38-.15-.86s.07-.85.15-.85.15.38.15.85S273.48,53.69,273.4,53.69Z" style="fill:#e0e0e0"></path><path d="M273.4,57.12c-.08,0-.15-.38-.15-.86s.07-.85.15-.85.15.38.15.85S273.48,57.12,273.4,57.12Z" style="fill:#e0e0e0"></path><path d="M273.4,60.55c-.08,0-.15-.39-.15-.86s.07-.86.15-.86.15.39.15.86S273.48,60.55,273.4,60.55Z" style="fill:#e0e0e0"></path><path d="M273.4,64c-.08,0-.15-.38-.15-.85s.07-.86.15-.86.15.38.15.86S273.48,64,273.4,64Z" style="fill:#e0e0e0"></path><ellipse cx="273.4" cy="66.54" rx="0.15" ry="0.86" style="fill:#e0e0e0"></ellipse><path d="M273.4,70.83c-.08,0-.15-.39-.15-.86s.07-.86.15-.86.15.39.15.86S273.48,70.83,273.4,70.83Z" style="fill:#e0e0e0"></path><path d="M273.4,74.25c-.08,0-.15-.38-.15-.85s.07-.86.15-.86.15.38.15.86S273.48,74.25,273.4,74.25Z" style="fill:#e0e0e0"></path><ellipse cx="273.4" cy="76.82" rx="0.15" ry="0.86" style="fill:#e0e0e0"></ellipse><path d="M273.4,81.11c-.08,0-.15-.39-.15-.86s.07-.86.15-.86.15.39.15.86S273.48,81.11,273.4,81.11Z" style="fill:#e0e0e0"></path><path d="M273.4,84.53c-.08,0-.15-.38-.15-.85s.07-.86.15-.86.15.38.15.86S273.48,84.53,273.4,84.53Z" style="fill:#e0e0e0"></path><path d="M273.4,88c-.08,0-.15-.38-.15-.85s.07-.86.15-.86.15.38.15.86S273.48,88,273.4,88Z" style="fill:#e0e0e0"></path><path d="M273.4,91.39c-.08,0-.15-.38-.15-.86s.07-.85.15-.85.15.38.15.85S273.48,91.39,273.4,91.39Z" style="fill:#e0e0e0"></path><ellipse cx="273.4" cy="93.96" rx="0.15" ry="0.86" style="fill:#e0e0e0"></ellipse><path d="M273.4,98.24c-.08,0-.15-.38-.15-.85s.07-.86.15-.86.15.38.15.86S273.48,98.24,273.4,98.24Z" style="fill:#e0e0e0"></path><rect x="271.14" y="97.93" width="4.52" height="4.52" style="fill:#e0e0e0"></rect><rect x="210.1" y="98.55" width="4.52" height="4.52" style="fill:#e0e0e0"></rect><rect x="271.14" y="37.06" width="4.52" height="4.52" style="fill:#e0e0e0"></rect><rect x="210.1" y="37.5" width="4.52" height="4.52" style="fill:#e0e0e0"></rect><path d="M156.58,466.67c0-.15.69-.27,1.55-.27s1.56.12,1.56.27-.69.27-1.56.27S156.58,466.82,156.58,466.67Z" style="fill:#e0e0e0"></path><path d="M150.34,466.67c0-.15.7-.27,1.56-.27s1.56.12,1.56.27-.7.27-1.56.27S150.34,466.82,150.34,466.67Z" style="fill:#e0e0e0"></path><path d="M144.1,466.67c0-.15.7-.27,1.56-.27s1.56.12,1.56.27-.7.27-1.56.27S144.1,466.82,144.1,466.67Z" style="fill:#e0e0e0"></path><path d="M137.87,466.67c0-.15.7-.27,1.56-.27s1.56.12,1.56.27-.7.27-1.56.27S137.87,466.82,137.87,466.67Z" style="fill:#e0e0e0"></path><path d="M131.63,466.67c0-.15.7-.27,1.56-.27s1.56.12,1.56.27-.7.27-1.56.27S131.63,466.82,131.63,466.67Z" style="fill:#e0e0e0"></path><path d="M125.4,466.67c0-.15.7-.27,1.56-.27s1.56.12,1.56.27-.7.27-1.56.27S125.4,466.82,125.4,466.67Z" style="fill:#e0e0e0"></path><path d="M119.16,466.67c0-.15.7-.27,1.56-.27s1.56.12,1.56.27-.7.27-1.56.27S119.16,466.82,119.16,466.67Z" style="fill:#e0e0e0"></path><path d="M112.93,466.67c0-.15.69-.27,1.55-.27s1.56.12,1.56.27-.69.27-1.56.27S112.93,466.82,112.93,466.67Z" style="fill:#e0e0e0"></path><path d="M106.69,466.67c0-.15.7-.27,1.56-.27s1.56.12,1.56.27-.7.27-1.56.27S106.69,466.82,106.69,466.67Z" style="fill:#e0e0e0"></path><path d="M100.45,466.67c0-.15.7-.27,1.56-.27s1.56.12,1.56.27-.7.27-1.56.27S100.45,466.82,100.45,466.67Z" style="fill:#e0e0e0"></path><path d="M94.22,466.67c0-.15.7-.27,1.56-.27s1.56.12,1.56.27-.7.27-1.56.27S94.22,466.82,94.22,466.67Z" style="fill:#e0e0e0"></path><path d="M88,466.67c0-.15.7-.27,1.56-.27s1.56.12,1.56.27-.7.27-1.56.27S88,466.82,88,466.67Z" style="fill:#e0e0e0"></path><path d="M83.54,464.88c.15,0,.27.69.27,1.55v.24l-.27-.27c.75,0,1.33.13,1.33.27s-.58.25-1.33.27h-.26v-.51C83.27,465.57,83.39,464.88,83.54,464.88Z" style="fill:#e0e0e0"></path><path d="M83.54,458.64c.15,0,.27.7.27,1.56s-.12,1.56-.27,1.56-.27-.7-.27-1.56S83.39,458.64,83.54,458.64Z" style="fill:#e0e0e0"></path><path d="M83.54,452.4c.15,0,.27.7.27,1.56s-.12,1.56-.27,1.56-.27-.7-.27-1.56S83.39,452.4,83.54,452.4Z" style="fill:#e0e0e0"></path><path d="M83.54,446.17c.15,0,.27.7.27,1.56s-.12,1.56-.27,1.56-.27-.7-.27-1.56S83.39,446.17,83.54,446.17Z" style="fill:#e0e0e0"></path><path d="M83.54,439.93c.15,0,.27.7.27,1.56s-.12,1.56-.27,1.56-.27-.7-.27-1.56S83.39,439.93,83.54,439.93Z" style="fill:#e0e0e0"></path><path d="M83.54,433.7c.15,0,.27.7.27,1.56s-.12,1.56-.27,1.56-.27-.7-.27-1.56S83.39,433.7,83.54,433.7Z" style="fill:#e0e0e0"></path><path d="M83.54,427.46c.15,0,.27.7.27,1.56s-.12,1.56-.27,1.56-.27-.7-.27-1.56S83.39,427.46,83.54,427.46Z" style="fill:#e0e0e0"></path><path d="M83.54,421.23c.15,0,.27.69.27,1.56s-.12,1.55-.27,1.55-.27-.69-.27-1.55S83.39,421.23,83.54,421.23Z" style="fill:#e0e0e0"></path><path d="M83.54,415c.15,0,.27.7.27,1.56s-.12,1.56-.27,1.56-.27-.7-.27-1.56S83.39,415,83.54,415Z" style="fill:#e0e0e0"></path><path d="M83.54,408.76c.15,0,.27.69.27,1.55s-.12,1.56-.27,1.56-.27-.69-.27-1.56S83.39,408.76,83.54,408.76Z" style="fill:#e0e0e0"></path><path d="M83.54,402.52c.15,0,.27.7.27,1.56s-.12,1.56-.27,1.56-.27-.7-.27-1.56S83.39,402.52,83.54,402.52Z" style="fill:#e0e0e0"></path><path d="M83.54,396.28c.15,0,.27.7.27,1.56s-.12,1.56-.27,1.56-.27-.7-.27-1.56S83.39,396.28,83.54,396.28Z" style="fill:#e0e0e0"></path><path d="M84,390.51c0,.08-.18.15-.47.2l.19-.19a6.49,6.49,0,0,1,.08,1.09c0,.86-.12,1.56-.27,1.56s-.27-.7-.27-1.56a6.49,6.49,0,0,1,.08-1.09l0-.22.16,0C83.83,390.37,84,390.44,84,390.51Z" style="fill:#e0e0e0"></path><path d="M90.24,390.51c0,.15-.7.28-1.56.28s-1.56-.13-1.56-.28.7-.27,1.56-.27S90.24,390.37,90.24,390.51Z" style="fill:#e0e0e0"></path><path d="M96.48,390.51c0,.15-.7.28-1.56.28s-1.56-.13-1.56-.28.7-.27,1.56-.27S96.48,390.37,96.48,390.51Z" style="fill:#e0e0e0"></path><path d="M102.71,390.51c0,.15-.69.28-1.56.28s-1.55-.13-1.55-.28.69-.27,1.55-.27S102.71,390.37,102.71,390.51Z" style="fill:#e0e0e0"></path><path d="M109,390.51c0,.15-.7.28-1.56.28s-1.56-.13-1.56-.28.7-.27,1.56-.27S109,390.37,109,390.51Z" style="fill:#e0e0e0"></path><path d="M115.19,390.51c0,.15-.7.28-1.56.28s-1.56-.13-1.56-.28.7-.27,1.56-.27S115.19,390.37,115.19,390.51Z" style="fill:#e0e0e0"></path><path d="M121.42,390.51c0,.15-.7.28-1.56.28s-1.56-.13-1.56-.28.7-.27,1.56-.27S121.42,390.37,121.42,390.51Z" style="fill:#e0e0e0"></path><path d="M127.66,390.51c0,.15-.7.28-1.56.28s-1.56-.13-1.56-.28.7-.27,1.56-.27S127.66,390.37,127.66,390.51Z" style="fill:#e0e0e0"></path><path d="M133.89,390.51c0,.15-.7.28-1.56.28s-1.56-.13-1.56-.28.7-.27,1.56-.27S133.89,390.37,133.89,390.51Z" style="fill:#e0e0e0"></path><path d="M140.13,390.51c0,.15-.7.28-1.56.28s-1.56-.13-1.56-.28.7-.27,1.56-.27S140.13,390.37,140.13,390.51Z" style="fill:#e0e0e0"></path><path d="M146.36,390.51c0,.15-.69.28-1.56.28s-1.55-.13-1.55-.28.69-.27,1.55-.27S146.36,390.37,146.36,390.51Z" style="fill:#e0e0e0"></path><path d="M152.6,390.51c0,.15-.7.28-1.56.28s-1.56-.13-1.56-.28.7-.27,1.56-.27S152.6,390.37,152.6,390.51Z" style="fill:#e0e0e0"></path><path d="M158.83,390.51c0,.15-.69.28-1.55.28s-1.56-.13-1.56-.28.69-.27,1.56-.27S158.83,390.37,158.83,390.51Z" style="fill:#e0e0e0"></path><path d="M159.69,395.89c-.15,0-.27-.7-.27-1.56s.12-1.56.27-1.56.27.7.27,1.56S159.84,395.89,159.69,395.89Z" style="fill:#e0e0e0"></path><path d="M159.69,402.13c-.15,0-.27-.7-.27-1.56s.12-1.56.27-1.56.27.7.27,1.56S159.84,402.13,159.69,402.13Z" style="fill:#e0e0e0"></path><path d="M159.69,408.36c-.15,0-.27-.69-.27-1.56s.12-1.55.27-1.55.27.69.27,1.55S159.84,408.36,159.69,408.36Z" style="fill:#e0e0e0"></path><path d="M159.69,414.6c-.15,0-.27-.7-.27-1.56s.12-1.56.27-1.56.27.7.27,1.56S159.84,414.6,159.69,414.6Z" style="fill:#e0e0e0"></path><path d="M159.69,420.83c-.15,0-.27-.69-.27-1.55s.12-1.56.27-1.56.27.7.27,1.56S159.84,420.83,159.69,420.83Z" style="fill:#e0e0e0"></path><path d="M159.69,427.07c-.15,0-.27-.7-.27-1.56s.12-1.56.27-1.56.27.7.27,1.56S159.84,427.07,159.69,427.07Z" style="fill:#e0e0e0"></path><path d="M159.69,433.31c-.15,0-.27-.7-.27-1.56s.12-1.56.27-1.56.27.7.27,1.56S159.84,433.31,159.69,433.31Z" style="fill:#e0e0e0"></path><path d="M159.69,439.54c-.15,0-.27-.7-.27-1.56s.12-1.56.27-1.56.27.7.27,1.56S159.84,439.54,159.69,439.54Z" style="fill:#e0e0e0"></path><path d="M159.69,445.78c-.15,0-.27-.7-.27-1.56s.12-1.56.27-1.56.27.7.27,1.56S159.84,445.78,159.69,445.78Z" style="fill:#e0e0e0"></path><path d="M159.69,452c-.15,0-.27-.69-.27-1.56s.12-1.55.27-1.55.27.69.27,1.55S159.84,452,159.69,452Z" style="fill:#e0e0e0"></path><path d="M159.69,458.25c-.15,0-.27-.7-.27-1.56s.12-1.56.27-1.56.27.7.27,1.56S159.84,458.25,159.69,458.25Z" style="fill:#e0e0e0"></path><path d="M159.69,464.48c-.15,0-.27-.69-.27-1.55s.12-1.56.27-1.56.27.69.27,1.56S159.84,464.48,159.69,464.48Z" style="fill:#e0e0e0"></path><rect x="156.87" y="463.08" width="5.64" height="5.64" style="fill:#e0e0e0"></rect><rect x="80.72" y="463.85" width="5.64" height="5.64" style="fill:#e0e0e0"></rect><rect x="156.87" y="387.15" width="5.64" height="5.64" style="fill:#e0e0e0"></rect><rect x="80.72" y="387.7" width="5.64" height="5.64" style="fill:#e0e0e0"></rect><path d="M127.1,403c21.69-17.53,24.79-47.46,22-74-.46-4.43-.3-9.14-2.68-12.89s-7.5-6.06-11.34-3.91c-3.19,1.78-4.35,5.72-6,9a25.92,25.92,0,0,1-9.71,10.67c-2.72,1.67-6.15,2.81-9,1.46-4-1.84-4.8-7.1-5.08-11.51q-.78-12.34-1.57-24.69c-.28-4.41-.58-8.92-2.25-13s-5-7.77-9.25-8.66-9.3,1.9-9.88,6.29c-.25,1.82.25,3.66.25,5.5s-.7,3.93-2.41,4.56-3.58-.49-5-1.69C70.33,286,66.84,280.47,63.55,275s-6.5-11.15-11-15.72-10.46-8-16.81-7.94-12.81,4.46-14,10.77,2.91,12.39,7.21,17.15a98.28,98.28,0,0,0,21.88,18.12c1.46.89,3,1.85,3.68,3.45,1.17,2.88-1.42,6-4.25,7.16-3.22,1.33-6.81,1.24-10.22,1.88s-7,2.43-8.11,5.77c-1.49,4.64,2.61,9.1,6.54,11.94a84.87,84.87,0,0,0,26,12.67c3.33,1,6.82,1.76,9.6,3.86s4.63,5.95,3.27,9.17-5.36,4.5-8.8,4.11-6.62-2-9.94-3c-6.23-1.87-14-.9-17.55,4.61-2.31,3.63-2.2,8.44-.62,12.46s4.44,7.37,7.45,10.44c10.52,10.72,23.6,19,38,22.93s27.54,4.3,41.17-1.79" style="fill:#f5f5f5"></path><path d="M124,405.15c-1.7-10.47,0-5.23-4.88-18.36a394.58,394.58,0,0,0-18.68-41.47L94.94,334.7c-1.8-3.49-3.58-6.94-5.53-10.21a198.57,198.57,0,0,0-12.3-18.14c-4.19-5.59-8.37-10.73-12.31-15.51s-7.72-9.16-11.33-13A156.37,156.37,0,0,0,35.12,261c-2.32-1.82-4.16-3.17-5.42-4.06l-1.44-1a3.72,3.72,0,0,0-.51-.32,2.94,2.94,0,0,0,.46.39L29.6,257c1.23.94,3,2.33,5.32,4.18a166.33,166.33,0,0,1,18.13,17c3.57,3.86,7.31,8.26,11.23,13s8.07,10,12.24,15.53a200.91,200.91,0,0,1,12.2,18.1c1.94,3.26,3.7,6.68,5.5,10.17l5.45,10.62a406.06,406.06,0,0,1,18.7,41.37c4.9,13.07,3.25,7.77,5,18.18" style="fill:#e0e0e0"></path><path d="M89.17,324.48a8.68,8.68,0,0,0,.3-1.92c.15-1.23.3-3,.46-5.25.32-4.43.54-10.58.77-17.35s.54-12.9.92-17.32c.19-2.21.36-4,.49-5.23a8.12,8.12,0,0,0,.11-1.94,9.57,9.57,0,0,0-.42,1.89c-.23,1.22-.49,3-.75,5.22-.53,4.42-.94,10.56-1.16,17.35s-.39,12.73-.54,17.35c-.07,2.09-.14,3.85-.19,5.26A10.11,10.11,0,0,0,89.17,324.48Z" style="fill:#e0e0e0"></path><path d="M31.69,317.84A12.34,12.34,0,0,0,34,318c1.46,0,3.58.06,6.2.18,5.23.2,12.46.72,20.4,1.65s15.1,2.11,20.25,3.09c2.58.48,4.65.92,6.09,1.22a13.28,13.28,0,0,0,2.25.39,10.68,10.68,0,0,0-2.18-.7c-1.41-.4-3.48-.93-6-1.48-5.13-1.14-12.3-2.39-20.27-3.34a198.08,198.08,0,0,0-20.48-1.41c-2.63-.05-4.75,0-6.22.08A11.74,11.74,0,0,0,31.69,317.84Z" style="fill:#e0e0e0"></path><path d="M118.3,385.8a3.47,3.47,0,0,0,.34-.72l.83-2.12c.71-1.85,1.66-4.54,2.8-7.89,2.28-6.69,5.15-16,8.17-26.38s5.79-19.71,7.93-26.44c1-3.28,1.92-6,2.56-8,.27-.87.5-1.58.68-2.17a2.73,2.73,0,0,0,.19-.78,3.17,3.17,0,0,0-.34.73c-.23.57-.5,1.27-.83,2.11-.71,1.85-1.67,4.54-2.81,7.89-2.28,6.69-5.14,16-8.16,26.39s-5.79,19.71-7.93,26.44c-1.06,3.27-1.92,6-2.56,8-.28.87-.5,1.59-.69,2.17A3,3,0,0,0,118.3,385.8Z" style="fill:#e0e0e0"></path><path d="M41.2,366.77A2.9,2.9,0,0,0,42,367l2.24.58,8.26,2.05c7,1.73,16.57,4.24,27.18,7s20.24,5.21,27.25,6.8c3.5.79,6.35,1.41,8.32,1.79l2.27.43a3.07,3.07,0,0,0,.81.1,2.9,2.9,0,0,0-.77-.26l-2.24-.58-8.26-2c-7-1.73-16.57-4.24-27.18-7s-20.24-5.21-27.25-6.8c-3.5-.79-6.35-1.41-8.32-1.79L42,366.86A2.75,2.75,0,0,0,41.2,366.77Z" style="fill:#e0e0e0"></path><path d="M452.29,282a15.14,15.14,0,0,1,2.47,11.59,26.57,26.57,0,0,1-5,11c-4.6,6.37-12.34,11.06-19.56,14.16-2.92-8.23.67-17.7,2.8-22.38,3.36-7.41,13.92-18.77,19.28-14.37" style="fill:#f5f5f5"></path><path d="M430.55,333.76a12.9,12.9,0,0,1,9.65-8.65,17.14,17.14,0,0,1,13,2.76c1.75,1.17,3.42,2.81,3.62,4.9a5.55,5.55,0,0,1-2.67,4.92,11.19,11.19,0,0,1-5.62,1.52c-6.72.32-13.28-.6-17.94-5.45" style="fill:#f5f5f5"></path><path d="M414.9,345.69a25.39,25.39,0,0,1,3.29-4,24.14,24.14,0,0,1,4.34-3.67,52.43,52.43,0,0,1,5.91-3.6,25.77,25.77,0,0,1,12.22-2.9,18.4,18.4,0,0,1,3.8.53c.87.25,1.33.43,1.31.49s-1.95-.43-5.11-.4a27.69,27.69,0,0,0-11.82,3.07,59.69,59.69,0,0,0-5.86,3.49,26.28,26.28,0,0,0-4.35,3.43A37.62,37.62,0,0,1,414.9,345.69Z" style="fill:#e0e0e0"></path><path d="M445,291.39A14.17,14.17,0,0,1,444,293.8c-.73,1.52-1.82,3.71-3.19,6.41-2.73,5.39-6.59,12.79-11.05,20.86s-8.72,15.27-11.9,20.41c-1.59,2.57-2.9,4.63-3.84,6a15.2,15.2,0,0,1-1.52,2.14,15.81,15.81,0,0,1,1.23-2.32l3.6-6.18c3-5.22,7.2-12.45,11.66-20.51s8.31-15.29,11.27-20.73l3.43-6.28A15.57,15.57,0,0,1,445,291.39Z" style="fill:#e0e0e0"></path><path d="M420.42,331.51a30.22,30.22,0,0,0-7.24-26.63c-1.66-1.78-4.08-3.47-6.36-2.61s-3,3.74-3,6.18a25.79,25.79,0,0,0,16.22,23.6" style="fill:#f5f5f5"></path><path d="M412.07,311.93c.05,0,.38.34.92,1s1.27,1.76,2.14,3.09A34.09,34.09,0,0,1,420,327.51a21.24,21.24,0,0,1,.18,6.9,20.72,20.72,0,0,1-1.59,5.4,21,21,0,0,1-1.85,3.29c-.51.73-.82,1.11-.87,1.08s1-1.72,2.15-4.61a22.66,22.66,0,0,0,1.36-5.27,22,22,0,0,0-.24-6.63,38,38,0,0,0-4.5-11.29A46.75,46.75,0,0,1,412.07,311.93Z" style="fill:#e0e0e0"></path><path d="M456.46,263.82c0-.18.84-.33,1.87-.33s1.87.15,1.87.33-.84.32-1.87.32S456.46,264,456.46,263.82Z" style="fill:#e0e0e0"></path><path d="M449,263.82c0-.18.84-.33,1.87-.33s1.87.15,1.87.33-.84.32-1.87.32S449,264,449,263.82Z" style="fill:#e0e0e0"></path><path d="M441.52,263.82c0-.18.84-.33,1.87-.33s1.87.15,1.87.33-.84.32-1.87.32S441.52,264,441.52,263.82Z" style="fill:#e0e0e0"></path><path d="M434.06,263.82c0-.18.83-.33,1.86-.33s1.87.15,1.87.33-.84.32-1.87.32S434.06,264,434.06,263.82Z" style="fill:#e0e0e0"></path><path d="M426.59,263.82c0-.18.83-.33,1.87-.33s1.86.15,1.86.33-.83.32-1.86.32S426.59,264,426.59,263.82Z" style="fill:#e0e0e0"></path><path d="M419.12,263.82c0-.18.84-.33,1.87-.33s1.86.15,1.86.33-.83.32-1.86.32S419.12,264,419.12,263.82Z" style="fill:#e0e0e0"></path><path d="M411.65,263.82c0-.18.84-.33,1.87-.33s1.87.15,1.87.33-.84.32-1.87.32S411.65,264,411.65,263.82Z" style="fill:#e0e0e0"></path><path d="M404.18,263.82c0-.18.84-.33,1.87-.33s1.87.15,1.87.33-.84.32-1.87.32S404.18,264,404.18,263.82Z" style="fill:#e0e0e0"></path><path d="M396.72,263.82c0-.18.83-.33,1.86-.33s1.87.15,1.87.33-.84.32-1.87.32S396.72,264,396.72,263.82Z" style="fill:#e0e0e0"></path><path d="M389.25,263.82c0-.18.83-.33,1.86-.33s1.87.15,1.87.33-.83.32-1.87.32S389.25,264,389.25,263.82Z" style="fill:#e0e0e0"></path><path d="M381.78,263.82c0-.18.83-.33,1.87-.33s1.86.15,1.86.33-.83.32-1.86.32S381.78,264,381.78,263.82Z" style="fill:#e0e0e0"></path><path d="M374.31,263.82c0-.18.84-.33,1.87-.33s1.86.15,1.86.33-.83.32-1.86.32S374.31,264,374.31,263.82Z" style="fill:#e0e0e0"></path><path d="M369,261.67c.18,0,.32.84.32,1.87v.28l-.32-.32c.9,0,1.59.15,1.59.32s-.69.29-1.59.32h-.32v-.6C368.67,262.51,368.81,261.67,369,261.67Z" style="fill:#e0e0e0"></path><path d="M369,254.2c.18,0,.32.84.32,1.87s-.14,1.87-.32,1.87-.32-.84-.32-1.87S368.81,254.2,369,254.2Z" style="fill:#e0e0e0"></path><path d="M369,246.73c.18,0,.32.84.32,1.87s-.14,1.87-.32,1.87-.32-.84-.32-1.87S368.81,246.73,369,246.73Z" style="fill:#e0e0e0"></path><path d="M369,239.26c.18,0,.32.84.32,1.87S369.17,243,369,243s-.32-.84-.32-1.87S368.81,239.26,369,239.26Z" style="fill:#e0e0e0"></path><path d="M369,231.8c.18,0,.32.83.32,1.86s-.14,1.87-.32,1.87-.32-.84-.32-1.87S368.81,231.8,369,231.8Z" style="fill:#e0e0e0"></path><path d="M369,224.33c.18,0,.32.83.32,1.87s-.14,1.86-.32,1.86-.32-.83-.32-1.86S368.81,224.33,369,224.33Z" style="fill:#e0e0e0"></path><path d="M369,216.86c.18,0,.32.84.32,1.87s-.14,1.86-.32,1.86-.32-.83-.32-1.86S368.81,216.86,369,216.86Z" style="fill:#e0e0e0"></path><path d="M369,209.39c.18,0,.32.84.32,1.87s-.14,1.87-.32,1.87-.32-.84-.32-1.87S368.81,209.39,369,209.39Z" style="fill:#e0e0e0"></path><path d="M369,201.92c.18,0,.32.84.32,1.87s-.14,1.87-.32,1.87-.32-.84-.32-1.87S368.81,201.92,369,201.92Z" style="fill:#e0e0e0"></path><path d="M369,194.46c.18,0,.32.83.32,1.86s-.14,1.87-.32,1.87-.32-.84-.32-1.87S368.81,194.46,369,194.46Z" style="fill:#e0e0e0"></path><path d="M369,187c.18,0,.32.83.32,1.86s-.14,1.87-.32,1.87-.32-.83-.32-1.87S368.81,187,369,187Z" style="fill:#e0e0e0"></path><path d="M369,179.52c.18,0,.32.84.32,1.87s-.14,1.86-.32,1.86-.32-.83-.32-1.86S368.81,179.52,369,179.52Z" style="fill:#e0e0e0"></path><path d="M369.55,172.61c0,.09-.22.17-.56.23l.23-.23a8,8,0,0,1,.09,1.31c0,1-.14,1.87-.32,1.87s-.32-.84-.32-1.87a8,8,0,0,1,.09-1.31l0-.26.19,0C369.33,172.44,369.55,172.52,369.55,172.61Z" style="fill:#e0e0e0"></path><path d="M377,172.61c0,.18-.84.32-1.87.32s-1.87-.14-1.87-.32.84-.32,1.87-.32S377,172.43,377,172.61Z" style="fill:#e0e0e0"></path><path d="M384.48,172.61c0,.18-.83.32-1.86.32s-1.87-.14-1.87-.32.84-.32,1.87-.32S384.48,172.43,384.48,172.61Z" style="fill:#e0e0e0"></path><path d="M392,172.61c0,.18-.83.32-1.86.32s-1.87-.14-1.87-.32.83-.32,1.87-.32S392,172.43,392,172.61Z" style="fill:#e0e0e0"></path><path d="M399.42,172.61c0,.18-.83.32-1.87.32s-1.86-.14-1.86-.32.83-.32,1.86-.32S399.42,172.43,399.42,172.61Z" style="fill:#e0e0e0"></path><path d="M406.89,172.61c0,.18-.84.32-1.87.32s-1.86-.14-1.86-.32.83-.32,1.86-.32S406.89,172.43,406.89,172.61Z" style="fill:#e0e0e0"></path><path d="M414.36,172.61c0,.18-.84.32-1.87.32s-1.87-.14-1.87-.32.84-.32,1.87-.32S414.36,172.43,414.36,172.61Z" style="fill:#e0e0e0"></path><path d="M421.83,172.61c0,.18-.84.32-1.87.32s-1.87-.14-1.87-.32.84-.32,1.87-.32S421.83,172.43,421.83,172.61Z" style="fill:#e0e0e0"></path><path d="M429.29,172.61c0,.18-.83.32-1.86.32s-1.87-.14-1.87-.32.84-.32,1.87-.32S429.29,172.43,429.29,172.61Z" style="fill:#e0e0e0"></path><path d="M436.76,172.61c0,.18-.83.32-1.86.32s-1.87-.14-1.87-.32.83-.32,1.87-.32S436.76,172.43,436.76,172.61Z" style="fill:#e0e0e0"></path><path d="M444.23,172.61c0,.18-.84.32-1.87.32s-1.86-.14-1.86-.32.83-.32,1.86-.32S444.23,172.43,444.23,172.61Z" style="fill:#e0e0e0"></path><path d="M451.7,172.61c0,.18-.84.32-1.87.32s-1.87-.14-1.87-.32.84-.32,1.87-.32S451.7,172.43,451.7,172.61Z" style="fill:#e0e0e0"></path><path d="M459.17,172.61c0,.18-.84.32-1.87.32s-1.87-.14-1.87-.32.84-.32,1.87-.32S459.17,172.43,459.17,172.61Z" style="fill:#e0e0e0"></path><path d="M460.2,179.05c-.18,0-.33-.84-.33-1.87s.15-1.86.33-1.86.32.83.32,1.86S460.37,179.05,460.2,179.05Z" style="fill:#e0e0e0"></path><path d="M460.2,186.52c-.18,0-.33-.84-.33-1.87s.15-1.87.33-1.87.32.84.32,1.87S460.37,186.52,460.2,186.52Z" style="fill:#e0e0e0"></path><path d="M460.2,194c-.18,0-.33-.84-.33-1.87s.15-1.87.33-1.87.32.84.32,1.87S460.37,194,460.2,194Z" style="fill:#e0e0e0"></path><path d="M460.2,201.45c-.18,0-.33-.83-.33-1.86s.15-1.87.33-1.87.32.84.32,1.87S460.37,201.45,460.2,201.45Z" style="fill:#e0e0e0"></path><path d="M460.2,208.92c-.18,0-.33-.83-.33-1.86s.15-1.87.33-1.87.32.83.32,1.87S460.37,208.92,460.2,208.92Z" style="fill:#e0e0e0"></path><path d="M460.2,216.39c-.18,0-.33-.83-.33-1.87s.15-1.86.33-1.86.32.83.32,1.86S460.37,216.39,460.2,216.39Z" style="fill:#e0e0e0"></path><path d="M460.2,223.86c-.18,0-.33-.84-.33-1.87s.15-1.86.33-1.86.32.83.32,1.86S460.37,223.86,460.2,223.86Z" style="fill:#e0e0e0"></path><path d="M460.2,231.33c-.18,0-.33-.84-.33-1.87s.15-1.87.33-1.87.32.84.32,1.87S460.37,231.33,460.2,231.33Z" style="fill:#e0e0e0"></path><path d="M460.2,238.8c-.18,0-.33-.84-.33-1.87s.15-1.87.33-1.87.32.84.32,1.87S460.37,238.8,460.2,238.8Z" style="fill:#e0e0e0"></path><path d="M460.2,246.26c-.18,0-.33-.83-.33-1.86s.15-1.87.33-1.87.32.84.32,1.87S460.37,246.26,460.2,246.26Z" style="fill:#e0e0e0"></path><path d="M460.2,253.73c-.18,0-.33-.83-.33-1.86s.15-1.87.33-1.87.32.83.32,1.87S460.37,253.73,460.2,253.73Z" style="fill:#e0e0e0"></path><path d="M460.2,261.2c-.18,0-.33-.84-.33-1.87s.15-1.86.33-1.86.32.83.32,1.86S460.37,261.2,460.2,261.2Z" style="fill:#e0e0e0"></path><rect x="456.82" y="259.51" width="6.75" height="6.75" style="fill:#e0e0e0"></rect><rect x="365.61" y="260.44" width="6.75" height="6.75" style="fill:#e0e0e0"></rect><rect x="456.82" y="168.58" width="6.75" height="6.75" style="fill:#e0e0e0"></rect><rect x="365.61" y="169.23" width="6.75" height="6.75" style="fill:#e0e0e0"></rect></g><g id="freepik--Squares--inject-16"><path d="M446.91,144.29c0-.12.57-.22,1.27-.22s1.26.1,1.26.22-.57.22-1.26.22S446.91,144.41,446.91,144.29Z" style="fill:#263238"></path><path d="M441.86,144.29c0-.12.57-.22,1.27-.22s1.26.1,1.26.22-.57.22-1.26.22S441.86,144.41,441.86,144.29Z" style="fill:#263238"></path><path d="M436.81,144.29c0-.12.57-.22,1.27-.22s1.26.1,1.26.22-.57.22-1.26.22S436.81,144.41,436.81,144.29Z" style="fill:#263238"></path><path d="M431.76,144.29c0-.12.57-.22,1.27-.22s1.26.1,1.26.22-.57.22-1.26.22S431.76,144.41,431.76,144.29Z" style="fill:#263238"></path><path d="M426.71,144.29c0-.12.57-.22,1.26-.22s1.27.1,1.27.22-.57.22-1.27.22S426.71,144.41,426.71,144.29Z" style="fill:#263238"></path><path d="M421.66,144.29c0-.12.57-.22,1.26-.22s1.27.1,1.27.22-.57.22-1.27.22S421.66,144.41,421.66,144.29Z" style="fill:#263238"></path><path d="M416.61,144.29c0-.12.57-.22,1.26-.22s1.27.1,1.27.22-.57.22-1.27.22S416.61,144.41,416.61,144.29Z" style="fill:#263238"></path><path d="M411.56,144.29c0-.12.56-.22,1.26-.22s1.27.1,1.27.22-.57.22-1.27.22S411.56,144.41,411.56,144.29Z" style="fill:#263238"></path><path d="M406.51,144.29c0-.12.56-.22,1.26-.22s1.26.1,1.26.22-.56.22-1.26.22S406.51,144.41,406.51,144.29Z" style="fill:#263238"></path><path d="M401.46,144.29c0-.12.56-.22,1.26-.22s1.26.1,1.26.22-.56.22-1.26.22S401.46,144.41,401.46,144.29Z" style="fill:#263238"></path><path d="M396.41,144.29c0-.12.56-.22,1.26-.22s1.26.1,1.26.22-.56.22-1.26.22S396.41,144.41,396.41,144.29Z" style="fill:#263238"></path><path d="M391.36,144.29c0-.12.56-.22,1.26-.22s1.26.1,1.26.22-.56.22-1.26.22S391.36,144.41,391.36,144.29Z" style="fill:#263238"></path><path d="M387.76,142.84c.12,0,.22.56.22,1.26v.19l-.21-.22c.61,0,1.07.11,1.07.22s-.46.2-1.07.22h-.22v-.41C387.54,143.4,387.64,142.84,387.76,142.84Z" style="fill:#263238"></path><path d="M387.76,137.79c.12,0,.22.56.22,1.26s-.1,1.26-.22,1.26-.22-.56-.22-1.26S387.64,137.79,387.76,137.79Z" style="fill:#263238"></path><path d="M387.76,132.74c.12,0,.22.56.22,1.26s-.1,1.26-.22,1.26-.22-.56-.22-1.26S387.64,132.74,387.76,132.74Z" style="fill:#263238"></path><path d="M387.76,127.69c.12,0,.22.56.22,1.26s-.1,1.26-.22,1.26-.22-.56-.22-1.26S387.64,127.69,387.76,127.69Z" style="fill:#263238"></path><path d="M387.76,122.63c.12,0,.22.57.22,1.27s-.1,1.26-.22,1.26-.22-.57-.22-1.26S387.64,122.63,387.76,122.63Z" style="fill:#263238"></path><path d="M387.76,117.58c.12,0,.22.57.22,1.27s-.1,1.26-.22,1.26-.22-.57-.22-1.26S387.64,117.58,387.76,117.58Z" style="fill:#263238"></path><path d="M387.76,112.53c.12,0,.22.57.22,1.27s-.1,1.26-.22,1.26-.22-.57-.22-1.26S387.64,112.53,387.76,112.53Z" style="fill:#263238"></path><path d="M387.76,107.48c.12,0,.22.57.22,1.27s-.1,1.26-.22,1.26-.22-.57-.22-1.26S387.64,107.48,387.76,107.48Z" style="fill:#263238"></path><path d="M387.76,102.43c.12,0,.22.57.22,1.26s-.1,1.27-.22,1.27-.22-.57-.22-1.27S387.64,102.43,387.76,102.43Z" style="fill:#263238"></path><path d="M387.76,97.38c.12,0,.22.57.22,1.26s-.1,1.27-.22,1.27-.22-.57-.22-1.27S387.64,97.38,387.76,97.38Z" style="fill:#263238"></path><path d="M387.76,92.33c.12,0,.22.57.22,1.26s-.1,1.27-.22,1.27-.22-.57-.22-1.27S387.64,92.33,387.76,92.33Z" style="fill:#263238"></path><path d="M387.76,87.28c.12,0,.22.57.22,1.26s-.1,1.27-.22,1.27-.22-.57-.22-1.27S387.64,87.28,387.76,87.28Z" style="fill:#263238"></path><path d="M388.14,82.61c0,.06-.15.11-.38.15l.15-.15a5.22,5.22,0,0,1,.07.88c0,.7-.1,1.26-.22,1.26s-.22-.56-.22-1.26a5.35,5.35,0,0,1,.06-.88l0-.18.13,0C388,82.49,388.14,82.55,388.14,82.61Z" style="fill:#263238"></path><path d="M393.19,82.61c0,.12-.57.22-1.27.22s-1.26-.1-1.26-.22.57-.22,1.26-.22S393.19,82.49,393.19,82.61Z" style="fill:#263238"></path><path d="M398.24,82.61c0,.12-.57.22-1.27.22s-1.26-.1-1.26-.22.57-.22,1.26-.22S398.24,82.49,398.24,82.61Z" style="fill:#263238"></path><path d="M403.29,82.61c0,.12-.57.22-1.26.22s-1.27-.1-1.27-.22.57-.22,1.27-.22S403.29,82.49,403.29,82.61Z" style="fill:#263238"></path><path d="M408.34,82.61c0,.12-.57.22-1.26.22s-1.27-.1-1.27-.22.57-.22,1.27-.22S408.34,82.49,408.34,82.61Z" style="fill:#263238"></path><path d="M413.39,82.61c0,.12-.57.22-1.26.22s-1.27-.1-1.27-.22.57-.22,1.27-.22S413.39,82.49,413.39,82.61Z" style="fill:#263238"></path><path d="M418.44,82.61c0,.12-.57.22-1.26.22s-1.27-.1-1.27-.22.57-.22,1.27-.22S418.44,82.49,418.44,82.61Z" style="fill:#263238"></path><path d="M423.49,82.61c0,.12-.56.22-1.26.22s-1.26-.1-1.26-.22.56-.22,1.26-.22S423.49,82.49,423.49,82.61Z" style="fill:#263238"></path><path d="M428.54,82.61c0,.12-.56.22-1.26.22s-1.26-.1-1.26-.22.56-.22,1.26-.22S428.54,82.49,428.54,82.61Z" style="fill:#263238"></path><path d="M433.59,82.61c0,.12-.56.22-1.26.22s-1.26-.1-1.26-.22.56-.22,1.26-.22S433.59,82.49,433.59,82.61Z" style="fill:#263238"></path><path d="M438.64,82.61c0,.12-.56.22-1.26.22s-1.26-.1-1.26-.22.56-.22,1.26-.22S438.64,82.49,438.64,82.61Z" style="fill:#263238"></path><path d="M443.69,82.61c0,.12-.56.22-1.26.22s-1.26-.1-1.26-.22.56-.22,1.26-.22S443.69,82.49,443.69,82.61Z" style="fill:#263238"></path><path d="M448.74,82.61c0,.12-.56.22-1.26.22s-1.26-.1-1.26-.22.56-.22,1.26-.22S448.74,82.49,448.74,82.61Z" style="fill:#263238"></path><path d="M449.44,87c-.12,0-.22-.56-.22-1.26s.1-1.26.22-1.26.22.56.22,1.26S449.56,87,449.44,87Z" style="fill:#263238"></path><path d="M449.44,92c-.12,0-.22-.56-.22-1.26s.1-1.26.22-1.26.22.56.22,1.26S449.56,92,449.44,92Z" style="fill:#263238"></path><path d="M449.44,97.06c-.12,0-.22-.56-.22-1.26s.1-1.26.22-1.26.22.56.22,1.26S449.56,97.06,449.44,97.06Z" style="fill:#263238"></path><path d="M449.44,102.11c-.12,0-.22-.56-.22-1.26s.1-1.26.22-1.26.22.56.22,1.26S449.56,102.11,449.44,102.11Z" style="fill:#263238"></path><path d="M449.44,107.17c-.12,0-.22-.57-.22-1.27s.1-1.26.22-1.26.22.57.22,1.26S449.56,107.17,449.44,107.17Z" style="fill:#263238"></path><path d="M449.44,112.22c-.12,0-.22-.57-.22-1.27s.1-1.26.22-1.26.22.57.22,1.26S449.56,112.22,449.44,112.22Z" style="fill:#263238"></path><path d="M449.44,117.27c-.12,0-.22-.57-.22-1.27s.1-1.26.22-1.26.22.57.22,1.26S449.56,117.27,449.44,117.27Z" style="fill:#263238"></path><path d="M449.44,122.32c-.12,0-.22-.57-.22-1.27s.1-1.26.22-1.26.22.57.22,1.26S449.56,122.32,449.44,122.32Z" style="fill:#263238"></path><path d="M449.44,127.37c-.12,0-.22-.57-.22-1.26s.1-1.27.22-1.27.22.57.22,1.27S449.56,127.37,449.44,127.37Z" style="fill:#263238"></path><path d="M449.44,132.42c-.12,0-.22-.57-.22-1.26s.1-1.27.22-1.27.22.57.22,1.27S449.56,132.42,449.44,132.42Z" style="fill:#263238"></path><path d="M449.44,137.47c-.12,0-.22-.57-.22-1.26s.1-1.27.22-1.27.22.57.22,1.27S449.56,137.47,449.44,137.47Z" style="fill:#263238"></path><path d="M449.44,142.52c-.12,0-.22-.57-.22-1.26s.1-1.27.22-1.27.22.57.22,1.27S449.56,142.52,449.44,142.52Z" style="fill:#263238"></path><rect x="447.16" y="141.38" width="4.57" height="4.57" style="fill:#263238"></rect><rect x="385.47" y="142.01" width="4.57" height="4.57" style="fill:#263238"></rect><rect x="447.16" y="79.88" width="4.57" height="4.57" style="fill:#263238"></rect><rect x="385.47" y="80.32" width="4.57" height="4.57" style="fill:#263238"></rect><path d="M102.11,233.4c0-.12.56-.22,1.26-.22s1.26.1,1.26.22-.56.22-1.26.22S102.11,233.52,102.11,233.4Z" style="fill:#263238"></path><path d="M97.06,233.4c0-.12.56-.22,1.26-.22s1.26.1,1.26.22-.56.22-1.26.22S97.06,233.52,97.06,233.4Z" style="fill:#263238"></path><path d="M92,233.4c0-.12.56-.22,1.26-.22s1.26.1,1.26.22-.56.22-1.26.22S92,233.52,92,233.4Z" style="fill:#263238"></path><path d="M87,233.4c0-.12.56-.22,1.26-.22s1.26.1,1.26.22-.56.22-1.26.22S87,233.52,87,233.4Z" style="fill:#263238"></path><path d="M81.9,233.4c0-.12.57-.22,1.27-.22s1.26.1,1.26.22-.57.22-1.26.22S81.9,233.52,81.9,233.4Z" style="fill:#263238"></path><path d="M76.85,233.4c0-.12.57-.22,1.27-.22s1.26.1,1.26.22-.57.22-1.26.22S76.85,233.52,76.85,233.4Z" style="fill:#263238"></path><path d="M71.8,233.4c0-.12.57-.22,1.27-.22s1.26.1,1.26.22-.57.22-1.26.22S71.8,233.52,71.8,233.4Z" style="fill:#263238"></path><path d="M66.75,233.4c0-.12.57-.22,1.27-.22s1.26.1,1.26.22-.57.22-1.26.22S66.75,233.52,66.75,233.4Z" style="fill:#263238"></path><path d="M61.7,233.4c0-.12.57-.22,1.26-.22s1.27.1,1.27.22-.57.22-1.27.22S61.7,233.52,61.7,233.4Z" style="fill:#263238"></path><path d="M56.65,233.4c0-.12.57-.22,1.26-.22s1.27.1,1.27.22-.57.22-1.27.22S56.65,233.52,56.65,233.4Z" style="fill:#263238"></path><path d="M51.6,233.4c0-.12.57-.22,1.26-.22s1.27.1,1.27.22-.57.22-1.27.22S51.6,233.52,51.6,233.4Z" style="fill:#263238"></path><path d="M46.55,233.4c0-.12.57-.22,1.26-.22s1.27.1,1.27.22-.57.22-1.27.22S46.55,233.52,46.55,233.4Z" style="fill:#263238"></path><path d="M43,232c.12,0,.22.57.22,1.26v.19l-.22-.21c.61,0,1.07.1,1.07.21s-.46.2-1.07.22h-.21v-.41C42.73,232.52,42.83,232,43,232Z" style="fill:#263238"></path><path d="M43,226.9c.12,0,.22.57.22,1.26s-.1,1.27-.22,1.27-.22-.57-.22-1.27S42.83,226.9,43,226.9Z" style="fill:#263238"></path><path d="M43,221.85c.12,0,.22.56.22,1.26s-.1,1.26-.22,1.26-.22-.56-.22-1.26S42.83,221.85,43,221.85Z" style="fill:#263238"></path><path d="M43,216.8c.12,0,.22.56.22,1.26s-.1,1.26-.22,1.26-.22-.56-.22-1.26S42.83,216.8,43,216.8Z" style="fill:#263238"></path><path d="M43,211.75c.12,0,.22.56.22,1.26s-.1,1.26-.22,1.26-.22-.56-.22-1.26S42.83,211.75,43,211.75Z" style="fill:#263238"></path><path d="M43,206.7c.12,0,.22.56.22,1.26s-.1,1.26-.22,1.26-.22-.56-.22-1.26S42.83,206.7,43,206.7Z" style="fill:#263238"></path><path d="M43,201.65c.12,0,.22.56.22,1.26s-.1,1.26-.22,1.26-.22-.56-.22-1.26S42.83,201.65,43,201.65Z" style="fill:#263238"></path><path d="M43,196.6c.12,0,.22.56.22,1.26s-.1,1.26-.22,1.26-.22-.56-.22-1.26S42.83,196.6,43,196.6Z" style="fill:#263238"></path><path d="M43,191.54c.12,0,.22.57.22,1.27s-.1,1.26-.22,1.26-.22-.57-.22-1.26S42.83,191.54,43,191.54Z" style="fill:#263238"></path><path d="M43,186.49c.12,0,.22.57.22,1.27S43.07,189,43,189s-.22-.57-.22-1.26S42.83,186.49,43,186.49Z" style="fill:#263238"></path><path d="M43,181.44c.12,0,.22.57.22,1.27S43.07,184,43,184s-.22-.57-.22-1.26S42.83,181.44,43,181.44Z" style="fill:#263238"></path><path d="M43,176.39c.12,0,.22.57.22,1.27s-.1,1.26-.22,1.26-.22-.57-.22-1.26S42.83,176.39,43,176.39Z" style="fill:#263238"></path><path d="M43.33,171.72c0,.06-.15.12-.38.16l.16-.16a5.44,5.44,0,0,1,.06.88c0,.7-.1,1.27-.22,1.27s-.22-.57-.22-1.27a6.88,6.88,0,0,1,.06-.88l0-.18.12,0C43.18,171.6,43.33,171.66,43.33,171.72Z" style="fill:#263238"></path><path d="M48.38,171.72c0,.12-.57.22-1.26.22s-1.27-.1-1.27-.22.57-.22,1.27-.22S48.38,171.6,48.38,171.72Z" style="fill:#263238"></path><path d="M53.43,171.72c0,.12-.56.22-1.26.22s-1.26-.1-1.26-.22.56-.22,1.26-.22S53.43,171.6,53.43,171.72Z" style="fill:#263238"></path><path d="M58.48,171.72c0,.12-.56.22-1.26.22s-1.26-.1-1.26-.22.56-.22,1.26-.22S58.48,171.6,58.48,171.72Z" style="fill:#263238"></path><path d="M63.53,171.72c0,.12-.56.22-1.26.22s-1.26-.1-1.26-.22.56-.22,1.26-.22S63.53,171.6,63.53,171.72Z" style="fill:#263238"></path><path d="M68.58,171.72c0,.12-.56.22-1.26.22s-1.26-.1-1.26-.22.56-.22,1.26-.22S68.58,171.6,68.58,171.72Z" style="fill:#263238"></path><path d="M73.63,171.72c0,.12-.56.22-1.26.22s-1.26-.1-1.26-.22.56-.22,1.26-.22S73.63,171.6,73.63,171.72Z" style="fill:#263238"></path><path d="M78.68,171.72c0,.12-.56.22-1.26.22s-1.26-.1-1.26-.22.56-.22,1.26-.22S78.68,171.6,78.68,171.72Z" style="fill:#263238"></path><path d="M83.73,171.72c0,.12-.56.22-1.26.22s-1.26-.1-1.26-.22.56-.22,1.26-.22S83.73,171.6,83.73,171.72Z" style="fill:#263238"></path><path d="M88.79,171.72c0,.12-.57.22-1.27.22s-1.26-.1-1.26-.22.57-.22,1.26-.22S88.79,171.6,88.79,171.72Z" style="fill:#263238"></path><path d="M93.84,171.72c0,.12-.57.22-1.27.22s-1.26-.1-1.26-.22.57-.22,1.26-.22S93.84,171.6,93.84,171.72Z" style="fill:#263238"></path><path d="M98.89,171.72c0,.12-.57.22-1.27.22s-1.26-.1-1.26-.22.57-.22,1.26-.22S98.89,171.6,98.89,171.72Z" style="fill:#263238"></path><path d="M103.94,171.72c0,.12-.57.22-1.27.22s-1.26-.1-1.26-.22.57-.22,1.26-.22S103.94,171.6,103.94,171.72Z" style="fill:#263238"></path><path d="M104.63,176.08c-.12,0-.22-.57-.22-1.27s.1-1.26.22-1.26.22.57.22,1.26S104.75,176.08,104.63,176.08Z" style="fill:#263238"></path><path d="M104.63,181.13c-.12,0-.22-.57-.22-1.27s.1-1.26.22-1.26.22.57.22,1.26S104.75,181.13,104.63,181.13Z" style="fill:#263238"></path><path d="M104.63,186.18c-.12,0-.22-.57-.22-1.27s.1-1.26.22-1.26.22.57.22,1.26S104.75,186.18,104.63,186.18Z" style="fill:#263238"></path><path d="M104.63,191.23c-.12,0-.22-.57-.22-1.26s.1-1.27.22-1.27.22.57.22,1.27S104.75,191.23,104.63,191.23Z" style="fill:#263238"></path><path d="M104.63,196.28c-.12,0-.22-.57-.22-1.26s.1-1.27.22-1.27.22.57.22,1.27S104.75,196.28,104.63,196.28Z" style="fill:#263238"></path><path d="M104.63,201.33c-.12,0-.22-.57-.22-1.26s.1-1.27.22-1.27.22.57.22,1.27S104.75,201.33,104.63,201.33Z" style="fill:#263238"></path><path d="M104.63,206.38c-.12,0-.22-.57-.22-1.26s.1-1.27.22-1.27.22.57.22,1.27S104.75,206.38,104.63,206.38Z" style="fill:#263238"></path><path d="M104.63,211.43c-.12,0-.22-.56-.22-1.26s.1-1.26.22-1.26.22.56.22,1.26S104.75,211.43,104.63,211.43Z" style="fill:#263238"></path><path d="M104.63,216.48c-.12,0-.22-.56-.22-1.26s.1-1.26.22-1.26.22.56.22,1.26S104.75,216.48,104.63,216.48Z" style="fill:#263238"></path><path d="M104.63,221.53c-.12,0-.22-.56-.22-1.26s.1-1.26.22-1.26.22.56.22,1.26S104.75,221.53,104.63,221.53Z" style="fill:#263238"></path><path d="M104.63,226.58c-.12,0-.22-.56-.22-1.26s.1-1.26.22-1.26.22.56.22,1.26S104.75,226.58,104.63,226.58Z" style="fill:#263238"></path><path d="M104.63,231.63c-.12,0-.22-.56-.22-1.26s.1-1.26.22-1.26.22.56.22,1.26S104.75,231.63,104.63,231.63Z" style="fill:#263238"></path><rect x="102.35" y="230.49" width="4.57" height="4.57" style="fill:#263238"></rect><rect x="40.67" y="231.12" width="4.57" height="4.57" style="fill:#263238"></rect><rect x="102.35" y="168.99" width="4.57" height="4.57" style="fill:#263238"></rect><rect x="40.67" y="169.44" width="4.57" height="4.57" style="fill:#263238"></rect></g><g id="freepik--Character--inject-16"><rect x="125.3" y="190.49" width="275.61" height="257.45" style="fill:#fff"></rect><rect x="125.3" y="190.22" width="275.61" height="17.74" style="fill:#455a64"></rect><path d="M138.05,200.49a2.57,2.57,0,1,1-2.57-2.71A2.65,2.65,0,0,1,138.05,200.49Z" style="fill:#263238"></path><path d="M147.35,200.49a2.57,2.57,0,1,1-2.57-2.71A2.65,2.65,0,0,1,147.35,200.49Z" style="fill:#263238"></path><path d="M155.9,198.57a2.82,2.82,0,0,1,0,3.83,2.47,2.47,0,0,1-3.63,0,2.8,2.8,0,0,1,0-3.83A2.49,2.49,0,0,1,155.9,198.57Z" style="fill:#263238"></path><path d="M400.91,447.67c0-1.35-.07-102.73-.16-257.45l.16.16-275.58,0h0l.19-.19c0,93.91,0,182.14,0,257.45l-.16-.16,275.61.16-275.61.16h-.16v-.16c0-75.31,0-163.54,0-257.45V190h.22l275.58,0h.16v.16C401,344.94,400.91,446.32,400.91,447.67Z" style="fill:#263238"></path><rect x="242.64" y="221.31" width="13.76" height="13.76" style="fill:#FF725E"></rect><rect x="260.18" y="221.31" width="13.76" height="13.76" style="fill:#FF725E"></rect><rect x="277.71" y="221.31" width="13.76" height="13.76" style="fill:#FF725E"></rect><rect x="277.71" y="221.31" width="13.76" height="13.76" style="fill:#fff;opacity:0.4"></rect><rect x="242.64" y="221.31" width="13.76" height="13.76" style="opacity:0.2"></rect><path d="M328.21,316.19s0,.41,0,1.21,0,2-.12,3.51a62.76,62.76,0,0,1-2.45,13.14c-.47,1.37-.86,2.85-1.51,4.32-.3.75-.6,1.51-.92,2.29s-.73,1.53-1.1,2.32c-.72,1.6-1.67,3.16-2.61,4.81-.47.82-1.05,1.6-1.58,2.42s-1.09,1.66-1.73,2.45a59.28,59.28,0,0,1-8.83,9.47,61.57,61.57,0,0,1-11.91,8.12l.11-.18c-.13,5.14-.27,10.59-.42,16.24v.22h-.22l-53.11,0h-.25v-.26c0-4.86,0-10,0-15.28l.15.23c-1.78-.94-3.75-1.85-5.58-3a60.5,60.5,0,0,1-29.29-51.1,60.16,60.16,0,0,1,5.43-26,61,61,0,0,1,13.49-18.9,63.6,63.6,0,0,1,7.93-6.37,66.28,66.28,0,0,1,7.89-4.48,61.37,61.37,0,0,1,13.76-4.57,65,65,0,0,1,9.1-1.12l2.39,0h.81s-.27,0-.81.05l-2.38.09a67.57,67.57,0,0,0-9.07,1.21,61.61,61.61,0,0,0-13.67,4.64,64.18,64.18,0,0,0-7.83,4.48,62.37,62.37,0,0,0-7.86,6.37,60.78,60.78,0,0,0-13.36,18.8,59.85,59.85,0,0,0-5.34,25.86,60.08,60.08,0,0,0,29.08,50.66c1.81,1.18,3.77,2.09,5.53,3l.15.08V386.3l-.26-.26,53.11,0-.23.22c.16-5.65.31-11.09.46-16.23v-.13l.11-.05a61.66,61.66,0,0,0,11.86-8,58.22,58.22,0,0,0,8.8-9.39c.64-.78,1.2-1.61,1.74-2.42s1.11-1.59,1.58-2.41c.94-1.64,1.89-3.18,2.61-4.77.38-.79.79-1.54,1.11-2.31s.63-1.53.93-2.27c.66-1.45,1.05-2.93,1.53-4.29A64.33,64.33,0,0,0,328,320.9c.11-1.54.13-2.72.18-3.51S328.21,316.19,328.21,316.19Z" style="fill:#FF725E"></path><path d="M275.7,386.05a7.09,7.09,0,0,1,.06-.75c.06-.52.14-1.25.24-2.18.24-1.92.58-4.75,1.12-8.39s1.25-8.07,2.41-13.17A89.74,89.74,0,0,1,285,344.7a57.43,57.43,0,0,1,5-9.07,11,11,0,0,1,4.14-3.72,6.25,6.25,0,0,1,5.75.19,4.08,4.08,0,0,1,1.92,2.4,4.24,4.24,0,0,1-.25,3.11,8.64,8.64,0,0,1-4.68,4,16.58,16.58,0,0,1-12.6-.89,16.82,16.82,0,0,1-8.56-10.11,12.65,12.65,0,0,1-.35-7,5.43,5.43,0,0,1,5.5-4.21,3.91,3.91,0,0,1,3.09,2.13,5.51,5.51,0,0,1,.48,3.74c-.58,2.53-2.4,4.42-4.26,6a18.05,18.05,0,0,1-14.12,4.1,15.75,15.75,0,0,1-11.72-8.74,9.16,9.16,0,0,1-.41-7.34,4.68,4.68,0,0,1,2.66-2.68,4.54,4.54,0,0,1,3.73.35,6,6,0,0,1,2.56,2.66,9.37,9.37,0,0,1,.92,3.49,17.36,17.36,0,0,1-.92,6.92,18,18,0,0,1-8.54,10.16A18.38,18.38,0,0,1,241.81,342a9.62,9.62,0,0,1-5.45-2.9,4.69,4.69,0,0,1-.34-5.83,3.92,3.92,0,0,1,2.72-1.33,5.76,5.76,0,0,1,2.9.56,8.8,8.8,0,0,1,3.7,4.16c1.53,3.28,2.75,6.48,4,9.53,4.84,12.21,8.28,22.27,10.58,29.24,1.15,3.49,2,6.21,2.57,8.06l.63,2.11c.14.47.2.72.2.72a7.13,7.13,0,0,1-.27-.7l-.7-2.08-2.7-8c-2.39-6.95-5.9-17-10.8-29.15-1.25-3-2.5-6.25-4-9.46a8.21,8.21,0,0,0-3.45-3.88c-1.55-.77-3.72-.76-4.88.62a4.08,4.08,0,0,0,.35,5,9,9,0,0,0,5.11,2.66A17.7,17.7,0,0,0,254,339.65a17.41,17.41,0,0,0,8.19-9.79,16.69,16.69,0,0,0,.87-6.63c-.16-2.22-1.08-4.53-3.1-5.57a3.68,3.68,0,0,0-5.37,2,8.43,8.43,0,0,0,.41,6.75,15,15,0,0,0,11.16,8.3,17.34,17.34,0,0,0,13.53-3.93c1.79-1.54,3.51-3.37,4-5.61a4.68,4.68,0,0,0-.41-3.23,3.19,3.19,0,0,0-2.51-1.76,4.32,4.32,0,0,0-3,1,5.25,5.25,0,0,0-1.73,2.72,12.09,12.09,0,0,0,.34,6.58,16.1,16.1,0,0,0,8.18,9.7,15.93,15.93,0,0,0,12.06.9,8,8,0,0,0,4.34-3.69,3.57,3.57,0,0,0-1.4-4.71,5.67,5.67,0,0,0-5.19-.18,10.65,10.65,0,0,0-3.93,3.52,57.73,57.73,0,0,0-5,8.95,90,90,0,0,0-5.57,16.74c-1.19,5.07-1.95,9.49-2.53,13.12s-1,6.41-1.25,8.36c-.13.93-.24,1.65-.32,2.17S275.7,386.05,275.7,386.05Z" style="fill:#FF725E"></path><path d="M292.26,396.13a2.39,2.39,0,0,0,1.08-.38,2,2,0,0,0,.75-1.1,10.7,10.7,0,0,0,0-1.92c0-.36,0-.75,0-1.15a2.21,2.21,0,0,0-.22-1.18,1.91,1.91,0,0,0-.95-.84,3.65,3.65,0,0,0-1.43-.12l-7,0-40.72.08a1.72,1.72,0,0,0-1.71,1.59c0,1,0,1.95,0,2.91a1.73,1.73,0,0,0,1.43,1.8c.87,0,1.88,0,2.8,0h10.81l18.3.06,12.35.08,3.35.05.87,0,.3,0-.3,0-.87,0-3.35.05-12.35.08-18.3.05-10.81,0c-1,0-1.85,0-2.88,0a2.27,2.27,0,0,1-1.87-2.31c0-1,0-2,0-2.94a2.25,2.25,0,0,1,2.23-2.08l40.72.08,7,0a4,4,0,0,1,1.53.17,2.14,2.14,0,0,1,1.07,1,2.4,2.4,0,0,1,.23,1.29c0,.4,0,.79,0,1.15a11.93,11.93,0,0,1-.1,2,2,2,0,0,1-.85,1.15,1.91,1.91,0,0,1-.83.3A.86.86,0,0,1,292.26,396.13Z" style="fill:#FF725E"></path><path d="M290.81,399.12a2.6,2.6,0,0,1,1,.09,3.49,3.49,0,0,1,2.55,3.72,3.54,3.54,0,0,1-1.08,2.2,3.64,3.64,0,0,1-2.65,1l-3.18,0,.14-.09-4.49,8.87-1.29,2.53-.67,1.31a4.57,4.57,0,0,1-3.88,2.43H274c-4.34,0-8.9.05-13.77,0a4.67,4.67,0,0,1-3.25-1.87,18.46,18.46,0,0,1-.93-1.65L255.2,416l-3.55-6.76L250,406.09l.23.14h-4.76a4,4,0,0,1-1.63-.28,3.67,3.67,0,0,1,1.06-7.06c1,0,2,0,3,0h5.65l19.49.05L286,399l3.54.05.92,0,.31,0a1.2,1.2,0,0,1-.31,0l-.92,0-3.54.05L273,399.3l-19.49.06h-5.65c-1,0-2,0-2.9,0a3.17,3.17,0,0,0-2.32,1.34,3.15,3.15,0,0,0,1.4,4.74,3.44,3.44,0,0,0,1.44.24h4.92l.07.14,1.66,3.15,3.55,6.76.87,1.66a15.58,15.58,0,0,0,.88,1.58,4.16,4.16,0,0,0,2.89,1.68c4.76.05,9.41,0,13.72,0h3.18a4.13,4.13,0,0,0,2.65-1.07,7.8,7.8,0,0,0,1.55-2.4c.44-.86.87-1.7,1.3-2.52,1.69-3.28,3.22-6.24,4.57-8.84l0-.08h.1c2.19-.11,4.4.45,5.66-.87a3.31,3.31,0,0,0,.7-3.94,3.41,3.41,0,0,0-2-1.7A9.1,9.1,0,0,0,290.81,399.12Z" style="fill:#FF725E"></path><rect x="293.81" y="369.62" width="2.79" height="2.79" style="fill:#FF725E"></rect><rect x="293.52" y="384.46" width="2.79" height="2.79" style="fill:#FF725E"></rect><rect x="240.4" y="384.46" width="2.79" height="2.79" style="fill:#FF725E"></rect><rect x="240.4" y="369.62" width="2.79" height="2.79" style="fill:#FF725E"></rect><rect x="266.22" y="254.2" width="2.79" height="2.79" style="fill:#FF725E"></rect><rect x="326.81" y="314.8" width="2.79" height="2.79" style="fill:#FF725E"></rect><path d="M290.4,255.22c0,.14-10.59.26-23.64.26s-23.64-.12-23.64-.26,10.58-.26,23.64-.26S290.4,255.07,290.4,255.22Z" style="fill:#FF725E"></path><path d="M290.93,255.22a.83.83,0,1,1-.83-.83A.83.83,0,0,1,290.93,255.22Z" style="fill:#FF725E"></path><circle cx="243.12" cy="255.22" r="0.83" style="fill:#FF725E"></circle><path d="M330.12,283.38c-.06.14-13.89-6.06-30.88-13.84s-30.72-14.19-30.66-14.32,13.88,6.06,30.88,13.84S330.18,283.25,330.12,283.38Z" style="fill:#FF725E"></path><path d="M210,156.07c0,.1-1.49-.38-3.92-.71a28.9,28.9,0,0,0-4.28-.23,30.37,30.37,0,0,0-5.22.61,31,31,0,0,0-5,1.59,27.24,27.24,0,0,0-3.81,2c-2.08,1.29-3.22,2.33-3.28,2.25s.24-.3.75-.77c.26-.23.58-.52,1-.81s.83-.66,1.36-1a24.5,24.5,0,0,1,3.82-2.11,29.24,29.24,0,0,1,5.09-1.64,28.57,28.57,0,0,1,5.32-.59,25.11,25.11,0,0,1,4.35.35,16.73,16.73,0,0,1,1.64.34,9.88,9.88,0,0,1,1.21.34A4.71,4.71,0,0,1,210,156.07Z" style="fill:#fafafa"></path><path d="M336.67,129.05l-27.87-9.26h0c-19.32-6.89-30.1-5.12-48.56,3.8-1.2.58-3.26,1.48-5.22,2.35l-32.57,14.38-23.29,10.17c-15.69,6.84-23.91,22.45-24.66,39.55l76.73.07,101.07-.05,17.56-31C365.59,137.47,343.83,132.43,336.67,129.05Z" style="fill:#FF725E"></path><path d="M357.17,139.19l63.56,58.36a25.19,25.19,0,0,1-.91,37.88l-33.16,27.63-23.38-13.24,27.38-35.42L352.3,190.06Z" style="fill:#FF725E"></path><path d="M273.75,189.66a1.18,1.18,0,0,1,0-.28c0-.21,0-.47-.07-.8,0-.76-.11-1.8-.19-3.12-.15-2.75-.36-6.65-.62-11.46l.15.18a316.76,316.76,0,0,1-32.92-9.26c-6.54-2.17-12.6-4.75-18.3-6.42a45.4,45.4,0,0,0-8.25-1.67,28.33,28.33,0,0,0-7.31.19,21.48,21.48,0,0,0-9.71,4,18.89,18.89,0,0,0-2.13,1.95l-.5.56c-.12.13-.18.19-.19.18a13.21,13.21,0,0,1,2.69-2.85,21.2,21.2,0,0,1,9.78-4.21,28.08,28.08,0,0,1,7.41-.26,45,45,0,0,1,8.34,1.64c5.76,1.66,11.81,4.22,18.34,6.39,12.55,4.28,24.21,7.38,32.83,9.38l.14,0V174c.19,4.81.34,8.72.45,11.47,0,1.32.07,2.37.09,3.12v.81A1.16,1.16,0,0,1,273.75,189.66Z" style="fill:#263238"></path><path d="M260.26,170.81c-.14,0-.09-4.86.13-10.85s.5-10.85.64-10.85.09,4.87-.12,10.86S260.41,170.82,260.26,170.81Z" style="fill:#263238"></path><path d="M352,190.51a5.14,5.14,0,0,1,0-1.23c0-.89.08-2,.13-3.32.1-2.8.16-6.67.19-11s.11-8.16.25-11c.07-1.4.14-2.54.21-3.32a6.17,6.17,0,0,1,.16-1.22,5.49,5.49,0,0,1,.05,1.23c0,.89,0,2-.05,3.32,0,2.92-.06,6.74-.1,11s-.15,8.17-.35,11c-.09,1.4-.19,2.54-.29,3.32A5.42,5.42,0,0,1,352,190.51Z" style="fill:#263238"></path><path d="M305.39,140.91a13.09,13.09,0,0,1-2.07,1.38c-1.12.74-1.94,1.49-2.05,1.39s.58-1,1.77-1.83A4.19,4.19,0,0,1,305.39,140.91Z" style="fill:#263238"></path><path d="M308.4,150a4.45,4.45,0,0,1,.64-2.8c.74-1.45,1.8-2.28,1.89-2.17s-.74,1-1.42,2.41S308.55,150,308.4,150Z" style="fill:#263238"></path><path d="M318.61,151.55a7.55,7.55,0,0,1,.29-5,8.66,8.66,0,0,1,0,2.5A8.77,8.77,0,0,1,318.61,151.55Z" style="fill:#263238"></path><path d="M329.42,150a21.4,21.4,0,0,1-.8-2.82,20.53,20.53,0,0,1-.88-2.79,5.51,5.51,0,0,1,1.38,2.64A5.4,5.4,0,0,1,329.42,150Z" style="fill:#263238"></path><path d="M336.36,142.52c-.14.06-.63-.78-1.35-1.72s-1.39-1.64-1.3-1.76,1,.44,1.72,1.44S336.49,142.47,336.36,142.52Z" style="fill:#263238"></path><path d="M340.93,136.5c-.13.08-.88-1-2.2-1.91s-2.58-1.25-2.55-1.4a4.31,4.31,0,0,1,2.85,1A4.16,4.16,0,0,1,340.93,136.5Z" style="fill:#263238"></path><path d="M301.57,134c0,.15-1,.35-2,.91s-1.81,1.22-1.92,1.12.5-1,1.68-1.59A3,3,0,0,1,301.57,134Z" style="fill:#263238"></path><path d="M300.46,127.79c-.08.12-.85-.25-1.86-.43s-1.87-.09-1.9-.24.85-.47,2-.27S300.55,127.68,300.46,127.79Z" style="fill:#263238"></path><path d="M273.46,185.63a13.23,13.23,0,0,1-3.65.26,13.39,13.39,0,0,1-3.65-.27,13.17,13.17,0,0,1,3.65-.26A13.45,13.45,0,0,1,273.46,185.63Z" style="fill:#263238"></path><path d="M273.25,180.62a12.09,12.09,0,0,1-3.46.4,11.63,11.63,0,0,1-3.48-.13,23.75,23.75,0,0,1,6.94-.27Z" style="fill:#263238"></path><path d="M273,176.36a12.19,12.19,0,0,1-3.56.13,12.47,12.47,0,0,1-3.54-.39,12.19,12.19,0,0,1,3.56-.13A12.47,12.47,0,0,1,273,176.36Z" style="fill:#263238"></path><path d="M408.13,218c-.07.06-.8-.71-2.21-1.68a17.38,17.38,0,0,0-2.6-1.45,18.49,18.49,0,0,0-3.46-1.11,18.88,18.88,0,0,0-3.62-.36,17.46,17.46,0,0,0-3,.3c-1.67.33-2.66.75-2.69.66s.22-.16.66-.36a10.09,10.09,0,0,1,1.95-.66,14.75,14.75,0,0,1,3-.42,17.13,17.13,0,0,1,3.74.33,16.62,16.62,0,0,1,3.55,1.19,15.08,15.08,0,0,1,2.62,1.58,11.43,11.43,0,0,1,1.53,1.38C408,217.77,408.16,218,408.13,218Z" style="fill:#263238"></path><path d="M387,255.76a14.68,14.68,0,0,1-2,2.81,14,14,0,0,1-2.28,2.6,10,10,0,0,1,1.87-2.92A9.69,9.69,0,0,1,387,255.76Z" style="fill:#263238"></path><path d="M380.41,250.57a23.5,23.5,0,0,1-5.05,6.34,20.4,20.4,0,0,1,2.39-3.27A19.27,19.27,0,0,1,380.41,250.57Z" style="fill:#263238"></path><path d="M374.5,246.36a18.61,18.61,0,0,1-2.84,3.32,19,19,0,0,1-3.22,3,18.86,18.86,0,0,1,2.84-3.33A19.12,19.12,0,0,1,374.5,246.36Z" style="fill:#263238"></path><g style="opacity:0.30000000000000004"><path d="M390.18,214.23a17.91,17.91,0,0,1,14.91-3.63c1.8.39,3.74,1.25,4.4,3a2.25,2.25,0,0,1-.94,2.86c-1,.43-2.14-.29-3.09-.87a16.66,16.66,0,0,0-14.72-1.26l1.52-.28"></path></g><g style="opacity:0.2"><path d="M202,158.27c4.79-4,11.38-5.28,17.59-4.73s12.13,2.78,17.89,5.14c4,1.65,8,3.38,12.12,4.72a22.18,22.18,0,0,1,9.84,6.44l.85,1c-15.73-4.94-17.85-5.77-33.58-10.71A70,70,0,0,0,214,157a23.45,23.45,0,0,0-12.81,1.72"></path></g><path d="M345.42,132.75s0,.08-.05.24l-.2.69a22.17,22.17,0,0,1-.94,2.58,32.57,32.57,0,0,1-5.28,8.61,29.58,29.58,0,0,1-12.16,8.63,28.07,28.07,0,0,1-18.16.65,25.66,25.66,0,0,1-14.16-11.3,22.29,22.29,0,0,1-2.79-7.54,23,23,0,0,1-.1-7,21.88,21.88,0,0,1,3.57-9.41,15.1,15.1,0,0,1,2.39-2.84,1.2,1.2,0,0,1-.15.2l-.46.55a9.16,9.16,0,0,0-.71.9,15,15,0,0,0-.91,1.3,22.32,22.32,0,0,0-3.37,9.35,22.61,22.61,0,0,0,.17,6.88,22,22,0,0,0,2.77,7.37,25.25,25.25,0,0,0,13.91,11,27.77,27.77,0,0,0,17.83-.59,29.6,29.6,0,0,0,12.05-8.43,34,34,0,0,0,5.38-8.45c.48-1.08.82-2,1-2.54.1-.27.19-.49.25-.67A2,2,0,0,1,345.42,132.75Z" style="fill:#fafafa"></path><path d="M376.83,157.64a1.38,1.38,0,0,1-.07.36,3.28,3.28,0,0,1-.52.95,4.76,4.76,0,0,1-3.72,1.63,9.39,9.39,0,0,1-3-.54c-1.05-.33-2.14-.8-3.35-1.16a25.7,25.7,0,0,0-8.5-1,45.52,45.52,0,0,0-10.27,1.74c-3.63,1-7.42,2.33-11.49,3.55a77.36,77.36,0,0,1-13,2.8,52.77,52.77,0,0,1-14.3-.12,40.51,40.51,0,0,1-13.56-4.54,33.91,33.91,0,0,1-5.61-3.89,39.48,39.48,0,0,1-4.57-4.68c-2.73-3.27-4.95-6.65-7.14-9.71a62.36,62.36,0,0,0-6.61-8.08,27.49,27.49,0,0,0-6.88-5.1,20.1,20.1,0,0,0-6.14-2,15.74,15.74,0,0,0-4.09-.11c-.94.09-1.42.21-1.43.18a8.78,8.78,0,0,1,1.42-.29,15.23,15.23,0,0,1,4.13,0,19.92,19.92,0,0,1,6.24,2,27.09,27.09,0,0,1,7,5.1,61.18,61.18,0,0,1,6.7,8.09c2.21,3.06,4.44,6.42,7.16,9.65a34.81,34.81,0,0,0,10.06,8.44,40.37,40.37,0,0,0,13.39,4.46,52.55,52.55,0,0,0,14.16.14,77.62,77.62,0,0,0,12.95-2.76c4.06-1.2,7.86-2.54,11.52-3.51a45.38,45.38,0,0,1,10.37-1.69,26.11,26.11,0,0,1,8.59,1.08c1.23.38,2.32.87,3.35,1.2a9.39,9.39,0,0,0,2.88.58,4.77,4.77,0,0,0,3.64-1.49A3.7,3.7,0,0,0,376.83,157.64Z" style="fill:#fafafa"></path><path d="M259.94,162.14a1.19,1.19,0,0,1-.45,0,7.59,7.59,0,0,1-1.28-.14,11.73,11.73,0,0,1-4.37-1.85,21.9,21.9,0,0,1-5.09-4.87c-1.66-2.06-3.24-4.5-5.22-6.77a23.28,23.28,0,0,0-6.61-5.25,24.68,24.68,0,0,0-6.5-2.35,33.22,33.22,0,0,0-6.39-.53,1.62,1.62,0,0,1,.45-.08c.29,0,.72-.09,1.28-.1a21.35,21.35,0,0,1,4.73.35,23.51,23.51,0,0,1,13.43,7.62c2,2.31,3.59,4.76,5.21,6.82a22.87,22.87,0,0,0,4.91,4.86,12.51,12.51,0,0,0,4.21,1.95C259.32,162.08,259.94,162.09,259.94,162.14Z" style="fill:#fafafa"></path><path d="M350.78,189.76s0-.07-.13-.22l-.33-.66c-.14-.3-.33-.65-.57-1.06a14.34,14.34,0,0,0-.87-1.4,25.78,25.78,0,0,0-7.44-7.25,32.37,32.37,0,0,0-6.42-3.26,39.53,39.53,0,0,0-8-2,80.75,80.75,0,0,0-19-.1c-6.74.59-13.18,1.35-19.07,1.34A49.77,49.77,0,0,1,273.46,173a31.58,31.58,0,0,1-9.41-4.7,19.66,19.66,0,0,1-2.9-2.55s.08,0,.21.15l.56.48c.24.22.55.48.93.77s.81.64,1.32,1a32.38,32.38,0,0,0,9.4,4.51,50.26,50.26,0,0,0,15.34,2c5.87,0,12.28-.78,19-1.38a79.47,79.47,0,0,1,19.12.15,39,39,0,0,1,8.1,2.1,32.77,32.77,0,0,1,6.48,3.35,25.26,25.26,0,0,1,7.4,7.45A16.64,16.64,0,0,1,350.78,189.76Z" style="fill:#fafafa"></path><path d="M391.31,171c0,.12-2.3.29-5.86,1.37l-1.38.44c-.49.16-1,.37-1.47.57-1,.37-2.07.91-3.17,1.43a37.62,37.62,0,0,0-12.22,10.05c-.73,1-1.46,1.9-2,2.83-.29.47-.59.9-.84,1.34s-.48.86-.7,1.27c-1.74,3.28-2.36,5.53-2.48,5.49a11.33,11.33,0,0,1,.44-1.57,15.36,15.36,0,0,1,.66-1.79,24.31,24.31,0,0,1,1.05-2.3l.68-1.3c.24-.46.54-.9.83-1.37a34.43,34.43,0,0,1,2-2.89,36,36,0,0,1,12.38-10.18,33.44,33.44,0,0,1,3.23-1.41c.52-.19,1-.4,1.5-.55l1.41-.42a23.65,23.65,0,0,1,2.46-.58,13.8,13.8,0,0,1,1.88-.3A8.86,8.86,0,0,1,391.31,171Z" style="fill:#fafafa"></path><path d="M409.62,188.49a7.06,7.06,0,0,1-1.41.39c-.92.21-2.24.55-3.85,1s-3.5,1.14-5.55,2a62.69,62.69,0,0,0-6.48,3.16,64.55,64.55,0,0,0-6,3.94c-1.77,1.33-3.3,2.61-4.54,3.75s-2.2,2.09-2.85,2.77a8.25,8.25,0,0,1-1.06,1,7.23,7.23,0,0,1,.91-1.16,39.51,39.51,0,0,1,2.75-2.89A49.77,49.77,0,0,1,386,198.6a57.91,57.91,0,0,1,6.06-4,59.38,59.38,0,0,1,6.56-3.14,51.44,51.44,0,0,1,5.63-1.88c1.63-.44,3-.73,3.9-.88A9.51,9.51,0,0,1,409.62,188.49Z" style="fill:#fafafa"></path><path d="M428.55,222.75a9.57,9.57,0,0,1-1.48.66,15.39,15.39,0,0,1-1.78.63,22.29,22.29,0,0,1-2.42.66l-1.43.31c-.5.11-1,.16-1.56.24a33.55,33.55,0,0,1-3.49.31,38.67,38.67,0,0,1-8-.59,39.26,39.26,0,0,1-7.65-2.33c-1.12-.52-2.19-1-3.13-1.55-.48-.27-.95-.51-1.38-.79l-1.22-.8a24.45,24.45,0,0,1-2-1.5,13.41,13.41,0,0,1-1.44-1.23,9.15,9.15,0,0,1-1.13-1.15c.08-.09,1.7,1.56,4.79,3.57l1.22.77c.43.26.9.49,1.37.75.94.54,2,1,3.12,1.49a37.32,37.32,0,0,0,15.43,2.88,33,33,0,0,0,3.44-.26c.54-.07,1.06-.11,1.55-.2l1.42-.28C426.4,223.58,428.5,222.64,428.55,222.75Z" style="fill:#fafafa"></path><path d="M393.69,255.8a6.07,6.07,0,0,1-.31-1.17c-.19-.87-.43-1.94-.7-3.22a47,47,0,0,0-3.32-10.28,21.31,21.31,0,0,0-6.8-8.19,24,24,0,0,0-4-2.07,4.19,4.19,0,0,1,1.18.3,13,13,0,0,1,3,1.46,20.56,20.56,0,0,1,7.07,8.27A41.91,41.91,0,0,1,393,251.34c.25,1.37.43,2.48.54,3.25A5.47,5.47,0,0,1,393.69,255.8Z" style="fill:#fafafa"></path><path d="M244.09,190.17a3,3,0,0,1-.13-.91,20.09,20.09,0,0,1,0-2.5,27.7,27.7,0,0,1,5.57-15.34,17.55,17.55,0,0,1,1.62-1.91c.42-.42.66-.65.68-.62s-.81,1-2,2.74a31.28,31.28,0,0,0-5.51,15.15C244.13,188.87,244.18,190.17,244.09,190.17Z" style="fill:#fafafa"></path><path d="M205.87,190a7.23,7.23,0,0,1,0-1.47,14.78,14.78,0,0,1,.12-1.71c.08-.66.14-1.43.31-2.25s.32-1.74.59-2.7.57-2,.92-3a39.38,39.38,0,0,1,3.09-6.57,40.47,40.47,0,0,1,4.32-5.83c.77-.81,1.49-1.6,2.24-2.25a24.52,24.52,0,0,1,2.1-1.79,20.4,20.4,0,0,1,1.84-1.34,13.8,13.8,0,0,1,1.45-.92,8.08,8.08,0,0,1,1.29-.69c.06.1-1.77,1.11-4.35,3.24-.64.53-1.34,1.12-2,1.82s-1.42,1.44-2.17,2.25a40.74,40.74,0,0,0-4.23,5.78,41.41,41.41,0,0,0-3.09,6.46c-.36,1-.72,2-1,3s-.47,1.84-.64,2.66C206,187.89,206,190,205.87,190Z" style="fill:#fafafa"></path><path d="M302,122.67c-.1.11-.87-.52-1.94-1s-2-.79-2-.94a3.15,3.15,0,0,1,2.23.48C301.42,121.73,302.08,122.58,302,122.67Z" style="fill:#263238"></path><path d="M312.07,67.16a53.52,53.52,0,0,1-.79-10.48,18,18,0,0,1,3.26-9.85,10.86,10.86,0,0,1,9-4.5c2.16.14,4.26,1.07,6.42.87,2.5-.23,4.58-1.91,6.79-3.09a18.26,18.26,0,0,1,11.38-1.93,10.9,10.9,0,0,1,5.59,2.39,6.12,6.12,0,0,1,2.12,5.51,29,29,0,0,1,7.56.18,9.78,9.78,0,0,1,6.31,3.86,6,6,0,0,1-.18,7.05,4.84,4.84,0,0,1,5.57,3.3A6.25,6.25,0,0,1,373,66.88,11.64,11.64,0,0,1,365.27,69c-2.37-.3-5.09-.78-7.08-2.1" style="fill:#263238"></path><path d="M315.26,146.41h0a18.16,18.16,0,0,0,21.22-14.32c1.08-5.47,1.95-10,1.95-10s14.2,1.51,18-12.07,9.78-45.5,9.78-45.5h0A49,49,0,0,0,317,57.76l-2.43,1-13.71,66.09A18.16,18.16,0,0,0,315.26,146.41Z" style="fill:#b78876"></path><path d="M338.51,121.85a32.82,32.82,0,0,1-16.42-9.79s1.58,10.93,15.51,13.33Z" style="fill:#aa6550"></path><path d="M312.51,73.34c-.21-.16-8.63-5.26-10.81,4.13s7.69,9.65,7.77,9.39S312.51,73.34,312.51,73.34Z" style="fill:#b78876"></path><path d="M307.43,82.63s-.19.08-.5.14a1.65,1.65,0,0,1-1.22-.26c-.91-.59-1.38-2.36-1-4.07a5.53,5.53,0,0,1,1-2.24,2,2,0,0,1,1.52-1,.86.86,0,0,1,.86.68c.07.29,0,.46,0,.49s.24-.11.26-.51a1.11,1.11,0,0,0-.24-.68,1.23,1.23,0,0,0-.85-.45,2.38,2.38,0,0,0-2.05,1.06A5.7,5.7,0,0,0,304,78.31c-.38,1.9.17,3.9,1.44,4.61A1.82,1.82,0,0,0,307,83C307.36,82.85,307.46,82.66,307.43,82.63Z" style="fill:#aa6550"></path><path d="M356.23,86.31a2,2,0,0,1-2.4,1.47,1.94,1.94,0,0,1-1.54-2.29,2,2,0,0,1,2.4-1.47A1.92,1.92,0,0,1,356.23,86.31Z" style="fill:#263238"></path><path d="M358.52,83c-.31.19-1.49-1.3-3.59-1.85s-3.91.09-4.07-.23c-.08-.14.29-.54,1.09-.85a5.47,5.47,0,0,1,3.34-.12,5.28,5.28,0,0,1,2.77,1.78C358.57,82.35,358.67,82.87,358.52,83Z" style="fill:#263238"></path><path d="M334.85,80.88a2,2,0,0,1-2.4,1.46,1.92,1.92,0,0,1-1.54-2.29,2,2,0,0,1,2.4-1.46A1.93,1.93,0,0,1,334.85,80.88Z" style="fill:#263238"></path><path d="M337.83,77.85c-.31.19-1.5-1.29-3.59-1.85s-3.91.09-4.07-.23c-.08-.14.29-.53,1.09-.84a5.55,5.55,0,0,1,3.34-.13,5.29,5.29,0,0,1,2.77,1.79C337.88,77.25,338,77.77,337.83,77.85Z" style="fill:#263238"></path><path d="M341.29,95.41a14.46,14.46,0,0,1,3.56.29c.55.09,1.09.12,1.28-.22a2.93,2.93,0,0,0,.06-1.68c-.16-1.43-.32-2.93-.49-4.5-.66-6.38-1-11.57-.72-11.6s1,5.13,1.65,11.52c.14,1.57.29,3.07.42,4.5a3.24,3.24,0,0,1-.28,2.17,1.39,1.39,0,0,1-1.09.55,3.64,3.64,0,0,1-.94-.12A14.36,14.36,0,0,1,341.29,95.41Z" style="fill:#263238"></path><path d="M334.74,95.21c.35.07-.25,2.35,1.26,4.48s4,2.53,3.94,2.85c0,.15-.66.3-1.69,0a5.83,5.83,0,0,1-3.32-2.25,5.11,5.11,0,0,1-.91-3.71C334.18,95.65,334.59,95.16,334.74,95.21Z" style="fill:#263238"></path><path d="M358.73,79.06c-.5.37-1.81-.5-3.53-1s-3.29-.53-3.5-1.12c-.08-.28.28-.7,1-1a5.31,5.31,0,0,1,5.66,1.7C358.88,78.32,359,78.87,358.73,79.06Z" style="fill:#263238"></path><path d="M337.12,69.56c-.3.19-.81-.06-1.47-.38a16.06,16.06,0,0,0-2.49-1,15.51,15.51,0,0,0-2.65-.52c-.73-.1-1.29-.18-1.44-.51s.23-.84,1.12-1.25a5.68,5.68,0,0,1,6.7,2C337.41,68.73,337.41,69.38,337.12,69.56Z" style="fill:#263238"></path><path d="M365.77,68.83a33.08,33.08,0,0,1-19.61-6.31C339.81,58,332,55,330,56.09s-3.52,8.15-10.69,9.12c0,0-1.71,13.65-7.05,12.29s1.44-21.82,1.44-21.82L328,51.35,342.9,51l13.53,2.18L368.38,59Z" style="fill:#263238"></path><path d="M382.51,260.71s-15,23-18.46,23.34c-.87.1-1.73.78-3.88,1.19-.45.08-2.24-.43-2.74-.37-8,1-19.74,2.15-20-.25-.41-3.68,3.42-3.91,6.75-4.47a63.14,63.14,0,0,0,6.26-1.49,3.57,3.57,0,0,0,2.54-3c.47-3.49,1.34-9.95,1.62-11.48.39-2.11,10.29-10.35,10.29-10.35Z" style="fill:#b78876"></path><path d="M340.13,277.37l32.79-8.15A2.54,2.54,0,0,1,376,271h0a2.54,2.54,0,0,1-1.81,3.15l-32.62,8.4a1.8,1.8,0,0,1-2.19-1.22l-.52-1.64A1.82,1.82,0,0,1,340.13,277.37Z" style="fill:#263238"></path><path d="M359.17,272.64s-8.46,3-15,5.79a6.15,6.15,0,0,1-2.7.53,2.6,2.6,0,0,1-2.28-1.32c-.56-1.17.91-1.7,1.92-2.51s2.54-1.94,3.82-2.94a7.57,7.57,0,0,0,2.85-4.24c1.83-7.41,9.64-15.87,17.06-14.08l1.84-2.1,15.79,8.94" style="fill:#b78876"></path><path d="M335.32,277.55l-5.4,5.19.13.43,5.06-1.55a.58.58,0,0,1,.4-.62.59.59,0,0,1,.35,1.13.58.58,0,0,1-.68-.29l-5.06,1.54.12.42,7.55,1.34a3,3,0,0,1,1.67-3.46l-.71-2.38C336.38,280,335.32,277.55,335.32,277.55Z" style="fill:#FF725E"></path><path d="M360.7,281.85a1.06,1.06,0,0,1-.25.77,6,6,0,0,1-1.59,1.55,5.14,5.14,0,0,1-1.38.74,12.6,12.6,0,0,1-1.73.35c-1.22.19-2.56.24-4,.34-2.81.17-5.35.29-7.19.36a17.92,17.92,0,0,1-3,0,16.64,16.64,0,0,1,3-.37c1.83-.16,4.37-.34,7.18-.51,1.4-.1,2.74-.14,3.93-.29a12.64,12.64,0,0,0,1.66-.3,5,5,0,0,0,1.3-.62,7.25,7.25,0,0,0,1.63-1.36C360.61,282.12,360.65,281.84,360.7,281.85Z" style="fill:#aa6550"></path><path d="M365.55,281.43c.05,0-.17.52-.67,1.22a7.28,7.28,0,0,1-2.53,2.23,5.09,5.09,0,0,1-3.34.49,3.85,3.85,0,0,1-1-.29c-.22-.1-.33-.16-.32-.2s.15,0,.38,0a9.27,9.27,0,0,0,1,.13,5.68,5.68,0,0,0,3.06-.59,8.82,8.82,0,0,0,2.48-2C365.15,281.79,365.49,281.39,365.55,281.43Z" style="fill:#aa6550"></path><path d="M359.48,272.15a14.79,14.79,0,0,1-2.47,1.23c-1.54.7-3.69,1.63-6.09,2.61s-4.59,1.82-6.2,2.36A7,7,0,0,1,342,279s.25-.08.69-.25,1.08-.4,1.87-.71l6.13-2.49c2.4-1,4.57-1.86,6.15-2.47A15,15,0,0,1,359.48,272.15Z" style="fill:#aa6550"></path><path d="M273.25,175.56s35.26-.12,39.91,14.49l-39.25.13Z" style="fill:#b78876"></path></g><g id="freepik--tools-tabs--inject-16"><rect x="342.12" y="343.31" width="123.36" height="47.95" style="fill:#fff"></rect><rect x="342.12" y="343.31" width="123.36" height="10.28" style="fill:#FF725E"></rect><rect x="349.07" y="366.41" width="12.19" height="12.19" style="fill:#fff"></rect><path d="M361.26,378.6a5.45,5.45,0,0,1-.05-.92c0-.65,0-1.48-.06-2.5,0-2.2-.07-5.2-.12-8.77l.23.23-12.19,0c-.06.06.49-.49.26-.25h0v3.26c0,1.08,0,2.13,0,3.15,0,2,0,4,0,5.75l-.23-.22,8.76.11,2.51.06c.58,0,.9,0,.92.05a3.85,3.85,0,0,1-.83,0l-2.45.06c-2.13,0-5.2.1-8.91.12h-.22v-.23c0-1.78,0-3.71,0-5.75,0-1,0-2.07,0-3.15v-3.26h0c-.23.23.32-.32.26-.27l12.19,0h.22v.22c0,3.71-.07,6.79-.11,8.91,0,1-.05,1.82-.06,2.45A6.74,6.74,0,0,1,361.26,378.6Z" style="fill:#263238"></path><line x1="361.26" y1="366.41" x2="349.07" y2="378.6" style="fill:#fafafa"></line><path d="M349.07,378.6a71.91,71.91,0,0,1,5.91-6.28,73.83,73.83,0,0,1,6.28-5.91,70.47,70.47,0,0,1-5.91,6.28A71.91,71.91,0,0,1,349.07,378.6Z" style="fill:#FF725E"></path><rect x="364.93" y="366.41" width="12.19" height="12.19" style="fill:#263238"></rect><rect x="380.79" y="366.41" width="12.19" height="12.19" style="fill:#455a64"></rect><rect x="396.65" y="366.41" width="12.19" height="12.19" style="fill:#FF725E"></rect><rect x="412.51" y="366.41" width="12.19" height="12.19" style="fill:#FF725E"></rect><g style="opacity:0.5"><rect x="412.51" y="366.41" width="12.19" height="12.19" style="fill:#fff"></rect></g><rect x="428.36" y="366.41" width="12.19" height="12.19" style="fill:#FF725E"></rect><g style="opacity:0.30000000000000004"><rect x="428.36" y="366.41" width="12.19" height="12.19"></rect></g><rect x="444.22" y="366.41" width="12.19" height="12.19" style="fill:#FF725E"></rect><g style="opacity:0.7000000000000001"><rect x="444.22" y="366.41" width="12.19" height="12.19"></rect></g><path d="M465.47,391.27s0-.3,0-.86,0-1.4,0-2.48c0-2.19,0-5.39-.05-9.53,0-8.26-.06-20.23-.1-35.09l.18.18-123.34.08h0l.26-.26c0,16.77,0,33,0,48l-.25-.25,88.38.11,25.69.07,6.88,0h1.79l.61,0h-.58l-1.76,0-6.83,0-25.63.07-88.55.12h-.25v-.25c0-15,0-31.19,0-48v-.26h.27l123.34.08h.18v.18c0,14.91-.07,26.91-.09,35.2,0,4.12,0,7.31-.05,9.49,0,1.06,0,1.88,0,2.45S465.47,391.27,465.47,391.27Z" style="fill:#263238"></path><rect x="63.15" y="65.36" width="114.53" height="83.64" style="fill:#fff"></rect><rect x="63.15" y="65.36" width="114.53" height="10.45" style="fill:#FF725E"></rect><path d="M69.37,70.88a1.2,1.2,0,1,1-2.39,0,1.2,1.2,0,1,1,2.39,0Z" style="fill:#fff"></path><path d="M74.22,70.88A1.2,1.2,0,1,1,73,69.57,1.26,1.26,0,0,1,74.22,70.88Z" style="fill:#fff"></path><path d="M79.06,70.88a1.2,1.2,0,1,1-2.39,0,1.2,1.2,0,1,1,2.39,0Z" style="fill:#fff"></path><rect x="74.04" y="86.05" width="16.32" height="41.06" style="fill:#FF725E"></rect><rect x="99.21" y="86.05" width="16.32" height="41.06" style="fill:#ebebeb"></rect><rect x="124.38" y="86.05" width="16.32" height="41.06" style="fill:#fafafa"></rect><rect x="149.55" y="86.37" width="16.32" height="41.06" style="fill:#e0e0e0"></rect><rect x="72.15" y="131.65" width="98.93" height="9.38" style="fill:#FF725E"></rect><polygon points="163.56 139.11 165.69 150.41 167.44 147.25 171.19 152.88 173.07 151.62 169.32 145.99 172.77 145.46 163.56 139.11" style="fill:#263238"></polygon><path d="M177.68,149s0-.53,0-1.53,0-2.5,0-4.44c0-3.9,0-9.6-.06-16.89,0-14.57-.06-35.45-.11-60.77l.21.21-114.52.05h0l.26-.26c0,30,0,58.45,0,83.63l-.24-.23,82.61.12,23.51.06,6.25,0h2.16l-.52,0h-1.59l-6.2,0-23.45.06-82.77.12h-.23V149c0-25.18,0-53.63,0-83.63V65.1h.27l114.52.05h.22v.21c-.05,25.38-.09,46.31-.12,60.9,0,7.27,0,13-.05,16.84,0,1.92,0,3.4,0,4.4S177.68,149,177.68,149Z" style="fill:#263238"></path><rect x="64.56" y="390.45" width="116.62" height="45.34" style="fill:#fff"></rect><rect x="64.56" y="390.45" width="116.62" height="9.72" style="fill:#FF725E"></rect><rect x="78.42" y="407.57" width="11.45" height="11.45" style="fill:#FF725E"></rect><rect x="85.36" y="414.51" width="11.45" height="11.45" style="fill:#FF725E"></rect><rect x="105.72" y="407.57" width="11.45" height="11.45" style="fill:#FF725E"></rect><rect x="112.66" y="414.51" width="11.45" height="11.45" style="fill:#fff"></rect><path d="M124.11,426a6.42,6.42,0,0,1,0-.87c0-.61,0-1.4-.06-2.35,0-2-.09-4.84-.12-8.23l.23.23-11.45,0,.26-.26h0v6c0,1.92,0,3.73,0,5.4l-.22-.22c3.38,0,6.22.07,8.23.11l2.35.06c.55,0,.85,0,.87,0a3.51,3.51,0,0,1-.78.06l-2.3.05c-2,.05-4.89.1-8.37.12h-.23V426c0-1.67,0-3.48,0-5.4,0-1,0-1.95,0-3v-3.07h0l.26-.26,11.45,0h.23v.22c0,3.49-.07,6.38-.11,8.38,0,.93,0,1.69-.06,2.3A4.13,4.13,0,0,1,124.11,426Z" style="fill:#FF725E"></path><rect x="131.19" y="407.57" width="11.45" height="11.45" style="fill:#fff"></rect><path d="M142.64,419s0-.32,0-.87,0-1.4-.06-2.35c0-2-.09-4.85-.11-8.24l.22.23-11.45,0,.26-.25h0v3.06c0,1,0,2,0,3,0,1.92,0,3.74,0,5.41l-.23-.23c3.39,0,6.22.07,8.23.12l2.36.06a4.68,4.68,0,0,1,.86,0,5.76,5.76,0,0,1-.77.05l-2.3.06c-2,0-4.89.09-8.38.11H131V419c0-1.67,0-3.49,0-5.41,0-1,0-1.95,0-3V407.6h0c-.23.23.32-.32.26-.27l11.45,0h.23v.22c0,3.49-.07,6.38-.11,8.38,0,.93,0,1.7-.06,2.3A3.74,3.74,0,0,1,142.64,419Z" style="fill:#FF725E"></path><rect x="138.13" y="414.51" width="11.45" height="11.45" style="fill:#fff"></rect><path d="M149.58,426a6.42,6.42,0,0,1-.05-.87c0-.61,0-1.4-.06-2.35,0-2-.09-4.84-.11-8.23l.22.23-11.45,0,.26-.26h0v3.07c0,1,0,2,0,3,0,1.92,0,3.73,0,5.4l-.22-.22c3.38,0,6.22.07,8.23.11l2.35.06c.55,0,.85,0,.87,0a3.51,3.51,0,0,1-.78.06l-2.3.05c-2,.05-4.89.1-8.37.12h-.23V426c0-1.67,0-3.48,0-5.4,0-1,0-1.95,0-3v-3.07h0l.26-.26,11.45,0h.23v.22c0,3.49-.08,6.38-.12,8.38,0,.93,0,1.69-.06,2.3A4.13,4.13,0,0,1,149.58,426Z" style="fill:#FF725E"></path><rect x="138.13" y="414.51" width="4.52" height="4.52" style="fill:#FF725E"></rect><rect x="154.61" y="407.57" width="11.45" height="11.45" style="fill:#FF725E"></rect><rect x="161.55" y="414.51" width="11.45" height="11.45" style="fill:#FF725E"></rect><rect x="161.55" y="414.51" width="4.52" height="4.52" style="fill:#fafafa"></rect><path d="M181.18,435.79s0-.28,0-.81,0-1.33,0-2.35c0-2.07,0-5.1-.05-9,0-7.81,0-19.12-.1-33.17l.18.18-116.61.08h0l.26-.26c0,15.85,0,31.17,0,45.34l-.25-.25,83.56.12,24.28.07,6.51,0h1.69l.58,0h-.55l-1.66,0-6.45,0-24.23.07L64.56,436h-.25v-.25c0-14.17,0-29.49,0-45.34v-.26h.27l116.61.08h.19v.18c0,14.09-.07,25.44-.09,33.28,0,3.89,0,6.91-.05,9,0,1,0,1.78,0,2.31S181.18,435.79,181.18,435.79Z" style="fill:#263238"></path><rect x="89.37" y="220.15" width="80.92" height="138.8" style="fill:#fff"></rect><rect x="89.37" y="220.15" width="80.92" height="11.7" style="fill:#FF725E"></rect><polygon points="108.81 246.44 109.79 259.39 113.42 254.67 119.47 254.42 108.81 246.44" style="fill:#FF725E"></polygon><path d="M143.79,246.44a1,1,0,0,1,.19.13l.58.42,2.21,1.61,7.76,5.7.34.25-.43,0-5.84.25h-.21l.12-.07-3.63,4.72-.24.32,0-.39c-.25-3.74-.46-7-.62-9.39-.07-1.07-.12-2-.17-2.66,0-.26,0-.49,0-.7a1.14,1.14,0,0,1,0-.22l0,.27c0,.21,0,.45.07.73.06.72.14,1.62.24,2.71.2,2.37.47,5.55.78,9.23l-.26-.08,3.61-4.73.05,0h.28l5.84-.23-.08.27-7.54-5.76-2.21-1.7-.6-.47Z" style="fill:#FF725E"></path><path d="M106.46,302.82c-.06-.06,4-4.33,9.05-9.54s9.22-9.38,9.28-9.32-4,4.33-9.05,9.54S106.52,302.88,106.46,302.82Z" style="fill:#FF725E"></path><path d="M162.64,293.26a20.06,20.06,0,0,0-.41-2.89,12.11,12.11,0,0,0-4.22-6.56,11.3,11.3,0,0,0-11.09-1.73,10.77,10.77,0,0,0-2.94,1.66,11,11,0,0,0-2.42,2.54,12.13,12.13,0,0,0,0,14,11.14,11.14,0,0,0,2.43,2.55,10.73,10.73,0,0,0,2.94,1.65,11.39,11.39,0,0,0,6.17.55,11.59,11.59,0,0,0,4.92-2.27,12.15,12.15,0,0,0,4.22-6.56,20.26,20.26,0,0,0,.41-2.89s0,.26,0,.76a7,7,0,0,1-.08.92,8.6,8.6,0,0,1-.22,1.24,12,12,0,0,1-4.19,6.7,11.5,11.5,0,0,1-11.33,1.82,10.85,10.85,0,0,1-3-1.68,11.5,11.5,0,0,1-2.5-2.61,12.43,12.43,0,0,1,0-14.31,11.41,11.41,0,0,1,2.49-2.6,11.15,11.15,0,0,1,3-1.69,11.54,11.54,0,0,1,11.32,1.82,12.05,12.05,0,0,1,4.2,6.71,8.6,8.6,0,0,1,.22,1.24,7,7,0,0,1,.08.92C162.65,293,162.64,293.26,162.64,293.26Z" style="fill:#FF725E"></path><path d="M152.16,324.09l.29.22c.22.2.5.43.83.71l3.17,2.75.07.06-.07.07-13.61,15.6,0,.05h-.06l-1.64.25-2.94.45-.22,0,0-.22c.37-1.86.72-3.65,1.06-5.35v0l0,0c3.68-4.34,6.89-8,9.21-10.62s3.79-4,3.87-3.93a2.42,2.42,0,0,1-.28.25c-.17.17-.43.43-.75.78-.65.69-1.56,1.72-2.7,3-2.28,2.61-5.46,6.33-9.12,10.68l0-.06-1,5.35-.18-.18,2.95-.45,1.63-.24-.09.05,13.7-15.52v.13l-3.07-2.79-.81-.75A2.84,2.84,0,0,1,152.16,324.09Z" style="fill:#FF725E"></path><path d="M122.56,343s0-.13,0-.37l0-1.06c0-1,0-2.31,0-4,0-3.46,0-8.31-.07-14.1l.14.13-19,0,.15-.15h0v10.3c0,3.28,0,6.37,0,9.2l-.13-.13,13.71.06,3.87,0,1,0h.36a1.91,1.91,0,0,1-.33,0h-1l-3.84,0-13.8.06h-.14V343c0-2.83,0-5.92,0-9.2,0-1.64,0-3.33,0-5.05v-5.25h0l.16-.16,19,0h.14v.14c0,5.83-.06,10.71-.07,14.19,0,1.66,0,3,0,3.95v1A2,2,0,0,1,122.56,343Z" style="fill:#FF725E"></path><path d="M106.46,323.5a28.78,28.78,0,0,1-4.11.15,28.78,28.78,0,0,1-4.11-.15,26.29,26.29,0,0,1,4.11-.16A26.29,26.29,0,0,1,106.46,323.5Z" style="fill:#FF725E"></path><path d="M103.59,327.25a67.07,67.07,0,0,1,0-9.26,71.53,71.53,0,0,1,0,9.26Z" style="fill:#FF725E"></path><path d="M170.29,358.94s0-.23,0-.68,0-1.11,0-2c0-1.75,0-4.31,0-7.64,0-6.68,0-16.4-.07-28.67,0-24.52-.06-59.18-.11-99.83l.24.24-80.91,0h0l.26-.26c0,52.94,0,101.51-.06,138.79l-.2-.2,59,.11,16.2,0,4.24,0,1.46,0s-.47,0-1.42,0l-4.2,0-16.15.06-59.15.1h-.2v-.2c0-37.28,0-85.85-.06-138.79v-.27h.27l80.91,0h.24v.25c-.05,40.71-.09,75.43-.12,100,0,12.25,0,21.95-.06,28.61,0,3.31,0,5.86,0,7.59,0,.85,0,1.5,0,2S170.29,358.94,170.29,358.94Z" style="fill:#263238"></path></g></svg>