<svg width="40" height="40" viewBox="0 0 40 40" fill="none" xmlns="http://www.w3.org/2000/svg">
<path fill-rule="evenodd" clip-rule="evenodd" d="M22.605 40H3.33333C1.49333 40 0 38.5067 0 36.6667V3.33333C0 1.49333 1.49333 0 3.33333 0H26.6667C28.5067 0 30 1.49333 30 3.33333V10H26.6667V5H3.33333V33.3333H21.6667V37.5C21.6667 38.3733 21.97 39.4583 22.605 40ZM37.5 11.6667C38.88 11.6667 40 12.7867 40 14.1667V37.5C40 38.8767 38.8817 40 37.5 40H25.8333C24.4517 40 23.3333 38.875 23.3333 37.5V14.1667C23.3333 12.7883 24.455 11.6667 25.8333 11.6667H37.5ZM15 35C15.92 35 16.6667 35.7467 16.6667 36.6667C16.6667 37.5867 15.92 38.3333 15 38.3333C14.08 38.3333 13.3333 37.5867 13.3333 36.6667C13.3333 35.7467 14.08 35 15 35ZM31.6667 38.3333C30.745 38.3333 30 37.5867 30 36.6667C30 35.7467 30.745 35 31.6667 35C32.5867 35 33.3317 35.7467 33.3317 36.6667C33.3317 37.5867 32.5867 38.3333 31.6667 38.3333ZM38.3333 33.3333V16.6267H25V33.3333H38.3333ZM32.5 15C32.9583 15 33.3333 14.6267 33.3333 14.1667C33.3333 13.7067 32.9583 13.3333 32.5 13.3333H30.8333C30.3733 13.3333 30 13.7067 30 14.1667C30 14.6267 30.3733 15 30.8333 15H32.5Z" fill="#4D13D1"/>
</svg>
