<svg width="20" height="22" viewBox="0 0 20 22" fill="none" xmlns="http://www.w3.org/2000/svg">
<path fill-rule="evenodd" clip-rule="evenodd" d="M0 0.784973V16.785H13.68L20 21.215V0.784973H0ZM18 17.375L14.32 14.785H2V2.78497H18V17.375ZM5 8.78497C5 8.23269 5.44772 7.78497 6 7.78497C6.55228 7.78497 7 8.23269 7 8.78497C7 9.33726 6.55228 9.78497 6 9.78497C5.44772 9.78497 5 9.33726 5 8.78497ZM9 8.78497C9 8.23269 9.44772 7.78497 10 7.78497C10.5523 7.78497 11 8.23269 11 8.78497C11 9.33726 10.5523 9.78497 10 9.78497C9.44772 9.78497 9 9.33726 9 8.78497ZM13 8.78497C13 8.23269 13.4477 7.78497 14 7.78497C14.5523 7.78497 15 8.23269 15 8.78497C15 9.33726 14.5523 9.78497 14 9.78497C13.4477 9.78497 13 9.33726 13 8.78497Z" fill="white"/>
</svg>
