<svg width="24" height="24" viewBox="0 0 24 24" fill="none" xmlns="http://www.w3.org/2000/svg">
<path fill-rule="evenodd" clip-rule="evenodd" d="M20.5041 3.48767C19.3969 2.3787 18.0797 1.49941 16.6286 0.900737C15.1775 0.302067 13.6215 -0.00407663 12.0507 4.09902e-05C5.46122 4.09902e-05 0.103139 5.3347 0.100274 11.892C0.0976233 13.9789 0.647853 16.0296 1.6955 17.8373L0 24L6.33504 22.3463C8.08699 23.2958 10.0501 23.7934 12.0449 23.7936H12.0501C18.6361 23.7936 23.9976 18.4583 23.9999 11.9011C24.0049 10.3384 23.6985 8.79017 23.0984 7.34604C22.4984 5.90191 21.6166 4.59051 20.5041 3.48767ZM12.0507 21.7852H12.0449C10.2661 21.7854 8.51996 21.3095 6.98941 20.4074L6.6267 20.193L2.86727 21.1744L3.87116 17.5249L3.63451 17.1508C2.64128 15.5759 2.1155 13.7537 2.11779 11.8942C2.11779 6.44439 6.5757 2.01016 12.0547 2.01016C14.6891 2.01167 17.215 3.05448 19.0768 4.90923C20.9387 6.76399 21.9841 9.27878 21.983 11.9005C21.9807 17.3509 17.5251 21.7852 12.0507 21.7852ZM17.4987 14.3822C17.2002 14.2334 15.7322 13.5143 15.4583 13.4128C15.1844 13.3113 14.9856 13.2645 14.7867 13.5616C14.5879 13.8587 14.0155 14.5311 13.8413 14.7267C13.6671 14.9222 13.4929 14.9502 13.1944 14.8014C12.8958 14.6525 11.9338 14.3389 10.793 13.3261C9.90538 12.5386 9.30603 11.5652 9.13127 11.2675C8.9565 10.9699 9.11293 10.8113 9.26248 10.6614C9.39656 10.5279 9.56101 10.3141 9.70999 10.1407C9.85897 9.96738 9.90939 9.84306 10.0085 9.64519C10.1077 9.44731 10.0584 9.27339 9.98388 9.12455C9.9094 8.97572 9.31233 7.51304 9.06308 6.9177C8.8207 6.33833 8.57489 6.41702 8.39153 6.4079C8.21963 6.39935 8.01793 6.39706 7.81853 6.39706C7.66715 6.40114 7.51826 6.43633 7.38119 6.50041C7.24413 6.56449 7.12186 6.65608 7.02207 6.76944C6.74875 7.06653 5.97749 7.78561 5.97749 9.2483C5.97749 10.711 7.04728 12.124 7.19626 12.3225C7.34524 12.5209 9.30202 15.5221 12.2959 16.8092C12.8519 17.048 13.4201 17.2574 13.9983 17.4365C14.714 17.6646 15.3649 17.6303 15.8789 17.5539C16.4519 17.469 17.646 16.8354 17.8947 16.1414C18.1433 15.4474 18.1433 14.8521 18.0666 14.7278C17.9898 14.6035 17.7973 14.5311 17.4987 14.3822Z" fill="#111111"/>
</svg>
