<svg width="104" height="13" viewBox="0 0 104 13" fill="none" xmlns="http://www.w3.org/2000/svg">
<path d="M18.0974 6.41097C18.0974 8.39322 16.4337 9.97885 14.3607 9.97885C12.2877 9.97885 10.6238 8.39322 10.6238 6.41097C10.6238 4.41529 12.2877 2.80228 14.3607 2.80228C16.4337 2.80228 18.0974 4.41529 18.0974 6.41097ZM15.7244 6.39737C15.7241 6.12472 15.6438 5.85829 15.4938 5.63176C15.3437 5.40523 15.1306 5.22877 14.8814 5.12467C14.6322 5.02058 14.358 4.99352 14.0936 5.04693C13.8292 5.10033 13.5863 5.2318 13.3958 5.42472C13.2052 5.61763 13.0755 5.86333 13.023 6.13077C12.9706 6.39821 12.9977 6.67537 13.1009 6.92723C13.2042 7.17909 13.379 7.39435 13.6032 7.54579C13.8275 7.69723 14.0911 7.77806 14.3607 7.77806C14.7224 7.77702 15.0689 7.63117 15.3245 7.37241C15.5801 7.11366 15.7239 6.76307 15.7244 6.39737ZM28.1015 4.96206C28.1015 7.81901 26.1104 9.77388 23.3011 9.77388H19.2371C19.1924 9.77453 19.148 9.76616 19.1066 9.74926C19.0651 9.73236 19.0274 9.70726 18.9956 9.67545C18.9639 9.64363 18.9387 9.60573 18.9216 9.56396C18.9045 9.52219 18.8958 9.4774 18.896 9.43219V0.533084C18.8984 0.443914 18.9357 0.359336 18.9996 0.297852C19.0635 0.236369 19.1489 0.202985 19.2371 0.205006H23.3011C26.1104 0.205006 28.1015 2.1051 28.1015 4.96206ZM25.5378 4.96206C25.5378 3.62254 24.6103 2.46057 23.2466 2.46057H21.3508V7.51831H23.2466C24.6103 7.51831 25.5378 6.30175 25.5378 4.96206ZM31.7155 2.80234C32.5203 2.80234 33.1612 3.10304 33.4476 3.52687V3.32176C33.4489 3.23829 33.4824 3.15864 33.541 3.09987C33.5996 3.04109 33.6787 3.00786 33.7612 3.00728H35.466C35.5072 3.00642 35.5482 3.01394 35.5864 3.02941C35.6247 3.04488 35.6595 3.06797 35.6887 3.09731C35.718 3.12665 35.7411 3.16164 35.7567 3.2002C35.7723 3.23876 35.78 3.2801 35.7795 3.32176V9.45949C35.78 9.50114 35.7723 9.54247 35.7567 9.58101C35.7411 9.61956 35.718 9.65454 35.6887 9.68387C35.6595 9.71319 35.6247 9.73627 35.5864 9.75172C35.5482 9.76717 35.5072 9.77467 35.466 9.77379H33.7612C33.72 9.77466 33.6791 9.76715 33.6408 9.7517C33.6026 9.73625 33.5678 9.71318 33.5385 9.68385C33.5093 9.65453 33.4861 9.61956 33.4705 9.58101C33.4549 9.54247 33.4471 9.50114 33.4476 9.45949V9.25438C33.1612 9.67821 32.5067 9.97891 31.7019 9.97891C29.9836 9.97891 28.3335 8.59822 28.3335 6.37005C28.3335 4.14187 29.9971 2.80234 31.7155 2.80234ZM32.0702 7.79171C32.3436 7.79478 32.6117 7.71561 32.8405 7.56426C33.0693 7.41292 33.2484 7.19623 33.3551 6.94172C33.4618 6.68721 33.4913 6.40637 33.4399 6.13488C33.3884 5.86338 33.2583 5.61348 33.066 5.41693C32.8738 5.22038 32.6281 5.08604 32.3602 5.03099C32.0922 4.97593 31.8142 5.00264 31.5613 5.10772C31.3084 5.2128 31.0921 5.39151 30.9399 5.62114C30.7877 5.85078 30.7065 6.12098 30.7065 6.39742C30.705 6.57966 30.7391 6.76039 30.8069 6.92924C30.8747 7.09809 30.9749 7.25172 31.1016 7.3813C31.2283 7.51087 31.3792 7.61384 31.5454 7.68427C31.7116 7.7547 31.89 7.79122 32.0702 7.79171ZM39.421 2.80234C40.2529 2.80234 40.894 3.11664 41.1803 3.48571V0.519392C41.1816 0.435937 41.2152 0.356307 41.2738 0.297537C41.3324 0.238766 41.4114 0.205522 41.494 0.204916H43.226C43.2672 0.204049 43.3082 0.211571 43.3465 0.227035C43.3847 0.242499 43.4195 0.265588 43.4488 0.294928C43.4781 0.324268 43.5012 0.35926 43.5168 0.397822C43.5324 0.436383 43.5402 0.477727 43.5397 0.519392V9.45949C43.5402 9.50114 43.5324 9.54248 43.5168 9.58103C43.5012 9.61958 43.478 9.65456 43.4488 9.68388C43.4195 9.71321 43.3847 9.73628 43.3464 9.75172C43.3082 9.76717 43.2672 9.77467 43.226 9.77379H41.5212C41.48 9.77467 41.4391 9.76717 41.4008 9.75172C41.3626 9.73628 41.3278 9.71321 41.2985 9.68388C41.2692 9.65456 41.2461 9.61958 41.2305 9.58103C41.2149 9.54248 41.2071 9.50114 41.2076 9.45949V9.25438C40.8667 9.67821 40.2665 9.9789 39.4619 9.9789C37.7436 9.9789 36.0935 8.59822 36.0935 6.37004C36.0935 4.14186 37.73 2.80234 39.421 2.80234ZM39.8302 7.79171C40.1036 7.79478 40.3717 7.71561 40.6005 7.56426C40.8293 7.41292 41.0084 7.19623 41.1151 6.94172C41.2219 6.68721 41.2513 6.40637 41.1999 6.13488C41.1484 5.86338 41.0183 5.61348 40.826 5.41693C40.6338 5.22038 40.3881 5.08604 40.1202 5.03099C39.8522 4.97593 39.5742 5.00264 39.3213 5.10772C39.0684 5.2128 38.8521 5.39151 38.6999 5.62114C38.5477 5.85078 38.4665 6.12098 38.4665 6.39742C38.465 6.57966 38.4991 6.76039 38.5669 6.92924C38.6347 7.09809 38.7349 7.25172 38.8616 7.3813C38.9883 7.51087 39.1392 7.61384 39.3054 7.68427C39.4716 7.7547 39.65 7.79122 39.8302 7.79171ZM47.181 2.80234C48.0128 2.80234 48.6539 3.11664 48.9403 3.48571V0.519392C48.9416 0.435937 48.9751 0.356307 49.0337 0.297537C49.0923 0.238766 49.1714 0.205522 49.2539 0.204916H50.986C51.0272 0.204064 51.0681 0.211597 51.1064 0.227066C51.1447 0.242535 51.1794 0.265624 51.2087 0.294961C51.238 0.324298 51.2611 0.359284 51.2767 0.397839C51.2923 0.436394 51.3001 0.477731 51.2996 0.519392V9.45949C51.3001 9.50114 51.2923 9.54247 51.2767 9.58101C51.2611 9.61955 51.2379 9.65452 51.2087 9.68385C51.1794 9.71317 51.1446 9.73624 51.1064 9.75169C51.0681 9.76714 51.0272 9.77466 50.986 9.77379H49.2812C49.24 9.77467 49.199 9.76717 49.1608 9.75172C49.1225 9.73628 49.0877 9.71321 49.0585 9.68388C49.0292 9.65456 49.0061 9.61958 48.9904 9.58103C48.9748 9.54248 48.967 9.50114 48.9675 9.45949V9.25438C48.6266 9.67821 48.0265 9.9789 47.2218 9.9789C45.5036 9.9789 43.8535 8.59822 43.8535 6.37004C43.8535 4.14186 45.4899 2.80234 47.181 2.80234ZM47.5902 7.79171C47.8636 7.79478 48.1317 7.71561 48.3604 7.56426C48.5892 7.41292 48.7684 7.19623 48.8751 6.94172C48.9818 6.68721 49.0113 6.40637 48.9598 6.13488C48.9083 5.86338 48.7782 5.61348 48.586 5.41693C48.3937 5.22038 48.148 5.08604 47.8801 5.03099C47.6122 4.97593 47.3341 5.00264 47.0813 5.10772C46.8284 5.2128 46.6121 5.39151 46.4599 5.62114C46.3077 5.85078 46.2264 6.12098 46.2264 6.39742C46.2249 6.57966 46.259 6.76039 46.3269 6.92924C46.3947 7.09809 46.4948 7.25172 46.6216 7.3813C46.7483 7.51087 46.8991 7.61384 47.0653 7.68427C47.2316 7.7547 47.4099 7.79122 47.5902 7.79171ZM57.0003 10.758C56.5776 12.1933 55.582 13 54.0273 13C53.1818 13 52.3633 12.7129 51.8315 12.2481C51.7517 12.1733 51.703 12.0707 51.6952 11.961C51.7031 11.8566 51.741 11.7568 51.8042 11.6739L52.4453 10.6897C52.4767 10.6456 52.5176 10.6092 52.5648 10.5832C52.612 10.5571 52.6644 10.5422 52.718 10.5393C52.868 10.5393 52.9363 10.5803 53.0726 10.6761C53.2772 10.8128 53.5499 10.9768 53.8636 10.9768C54.1227 10.9768 54.4772 10.8674 54.6 10.4573L54.8183 9.77381H53.7818C53.6872 9.77306 53.5955 9.74036 53.5214 9.68092C53.4472 9.62148 53.3949 9.5387 53.3726 9.44573L51.6407 3.54049C51.6107 3.44747 51.5923 3.35102 51.586 3.2534C51.586 3.11666 51.6816 3.0073 51.8724 3.0073H53.9181C54.0954 3.0073 54.2045 3.17125 54.2455 3.33538L55.3772 7.57301H55.4592L56.373 3.33538C56.4139 3.17125 56.5229 3.0073 56.7003 3.0073H58.7732C58.964 3.0073 59.0596 3.11666 59.0596 3.2534C59.0533 3.35101 59.0349 3.44745 59.0051 3.54049L57.0003 10.758ZM8.19628 8.44789C7.37803 9.59608 6.01411 9.97892 4.81408 9.97892C2.04571 9.97892 0 7.88749 0 4.98937C0 2.21457 2.20925 0 5.10046 0C7.24157 0 8.96001 0.915865 9.73738 2.66562C9.83278 2.87055 9.90092 3.19881 9.32817 3.30799L7.81433 3.58148C7.69806 3.60544 7.57736 3.59346 7.46792 3.54711C7.35847 3.50077 7.26536 3.42219 7.20069 3.3216C6.96518 2.99727 6.65699 2.73402 6.30138 2.55344C5.94578 2.37286 5.5529 2.2801 5.15498 2.28277C3.64132 2.28277 2.56395 3.44474 2.56395 5.00298C2.56395 6.72552 3.79123 7.72336 5.11409 7.72336C6.00066 7.72336 6.73696 7.38168 7.21431 6.75291H5.87782C5.83312 6.75354 5.78874 6.74514 5.74729 6.72822C5.70583 6.7113 5.66813 6.68619 5.63638 6.65436C5.60464 6.62252 5.5795 6.58461 5.56242 6.54283C5.54535 6.50105 5.53668 6.45625 5.53693 6.41105V5.12612C5.53668 5.08092 5.54535 5.03613 5.56243 4.99437C5.57951 4.9526 5.60466 4.9147 5.6364 4.88288C5.66815 4.85106 5.70585 4.82597 5.7473 4.80906C5.78876 4.79216 5.83313 4.78379 5.87782 4.78443H9.95544C10.0001 4.78378 10.0445 4.79215 10.086 4.80905C10.1275 4.82595 10.1652 4.85105 10.1969 4.88286C10.2287 4.91468 10.2538 4.95258 10.2709 4.99435C10.288 5.03612 10.2967 5.08091 10.2965 5.12612V9.43213C10.2967 9.47733 10.288 9.52213 10.2709 9.5639C10.2538 9.60566 10.2287 9.64356 10.1969 9.67538C10.1652 9.7072 10.1275 9.73229 10.086 9.74919C10.0445 9.76609 10.0001 9.77446 9.95544 9.77381H8.53718C8.49249 9.77444 8.44812 9.76606 8.40667 9.74915C8.36523 9.73224 8.32753 9.70714 8.29579 9.67533C8.26405 9.64351 8.2389 9.60562 8.22181 9.56386C8.20473 9.5221 8.19605 9.47732 8.19629 9.43213L8.19628 8.44789ZM59.2857 2.28321C59.2157 2.21436 59.1602 2.13175 59.1229 2.04045C59.0472 1.85349 59.0472 1.64395 59.1229 1.45699C59.1607 1.36607 59.216 1.28363 59.2855 1.21444C59.355 1.14524 59.4375 1.09067 59.528 1.05387C59.6201 1.01661 59.7184 0.997668 59.8176 0.998074C59.9166 0.997639 60.0147 1.01673 60.1065 1.05427C60.1967 1.09087 60.2787 1.14525 60.3479 1.21422C60.4178 1.28347 60.4731 1.36637 60.5103 1.45787C60.5854 1.64434 60.5854 1.85309 60.5103 2.03957C60.4731 2.13107 60.4178 2.21396 60.3479 2.28321C60.2787 2.35219 60.1967 2.40656 60.1065 2.44316C60.0147 2.48071 59.9166 2.49979 59.8176 2.49936C59.7184 2.49975 59.6201 2.48084 59.528 2.44364C59.4373 2.40729 59.3549 2.35272 59.2857 2.28321ZM59.8176 2.36674C59.8973 2.36855 59.9765 2.35361 60.0502 2.32288C60.1239 2.29214 60.1904 2.24626 60.2456 2.18817C60.3569 2.06926 60.4189 1.91178 60.4189 1.74808C60.4189 1.58437 60.3569 1.42689 60.2456 1.30799C60.1316 1.19335 59.9773 1.12901 59.8164 1.12901C59.6556 1.12901 59.5013 1.19335 59.3872 1.30799C59.2754 1.42669 59.213 1.58436 59.213 1.74832C59.213 1.91227 59.2754 2.06994 59.3872 2.18865C59.443 2.24669 59.51 2.29247 59.584 2.32312C59.6581 2.35376 59.7376 2.36862 59.8176 2.36674ZM59.6606 2.19624H59.5137C59.506 2.19609 59.4987 2.19292 59.4932 2.18741C59.4878 2.18189 59.4846 2.17446 59.4845 2.16666V1.33244C59.4845 1.32867 59.4854 1.32496 59.487 1.32154C59.4886 1.31812 59.4908 1.31508 59.4937 1.31262C59.4963 1.30988 59.4994 1.30768 59.5028 1.30616C59.5063 1.30464 59.51 1.30382 59.5137 1.30375H59.8385C59.9278 1.29938 60.0154 1.32905 60.0841 1.38688C60.1141 1.41328 60.1381 1.4461 60.1541 1.48299C60.1701 1.51987 60.1778 1.55988 60.1767 1.60015C60.1769 1.65303 60.1615 1.70478 60.1324 1.74875C60.1025 1.79477 60.0606 1.83155 60.0113 1.85507L60.1984 2.14891C60.202 2.15305 60.2044 2.15819 60.2052 2.16368C60.2059 2.16918 60.205 2.17478 60.2026 2.17977C60.1998 2.18449 60.1958 2.18831 60.1909 2.19077C60.186 2.19324 60.1805 2.19425 60.1751 2.19368H60.0289C60.018 2.19398 60.0072 2.19136 59.9976 2.18608C59.9873 2.17931 59.9786 2.17037 59.9721 2.15986L59.8067 1.89392H59.6899V2.16666C59.6897 2.17445 59.6866 2.18189 59.6811 2.1874C59.6757 2.19292 59.6683 2.19609 59.6606 2.19624ZM59.9629 1.5984C59.9637 1.58223 59.9609 1.56609 59.9548 1.55114C59.9487 1.53619 59.9394 1.52279 59.9275 1.5119C59.9006 1.4897 59.8665 1.47842 59.8319 1.48025H59.6899V1.7183H59.8319C59.8666 1.71897 59.9005 1.7068 59.9271 1.68409C59.9389 1.67334 59.9482 1.66009 59.9544 1.64528C59.9606 1.63047 59.9635 1.61447 59.9629 1.5984Z" fill="white"/>
<path d="M94.3957 2.81859C93.4055 2.81859 92.586 3.1637 91.9371 3.85392C91.2881 4.54425 90.9636 5.39482 90.9636 6.40563C90.9636 7.42629 91.2906 8.27443 91.9444 8.95008C92.5981 9.62586 93.4297 9.96366 94.4392 9.96346C95.0264 9.97372 95.6082 9.84906 96.1409 9.59887C96.6168 9.37637 97.0251 9.02894 97.3232 8.59275C97.4001 8.46652 97.3809 8.36447 97.2657 8.2866L96.8473 8.0242C96.7224 7.93669 96.6071 7.95612 96.5014 8.0825C95.9246 8.7436 95.2468 9.07408 94.4679 9.07393C94.151 9.08235 93.8356 9.026 93.5408 8.90824C93.2459 8.79049 92.9776 8.61376 92.7519 8.38865C92.2911 7.93348 92.018 7.31866 91.9876 6.66803H97.5251C97.6788 6.66803 97.7558 6.58541 97.756 6.42017V6.23061C97.756 5.22953 97.4363 4.41056 96.7969 3.77368C96.1576 3.13705 95.3572 2.81869 94.3957 2.81859ZM92.0163 5.92445C92.0749 5.31139 92.3486 4.73979 92.7879 4.31315C93.0011 4.10514 93.253 3.94196 93.529 3.83309C93.805 3.72421 94.0996 3.6718 94.3957 3.6789C95.0397 3.6789 95.5806 3.88063 96.0182 4.28408C96.4557 4.68754 96.7081 5.23433 96.7755 5.92445H92.0163ZM81.2153 3.00815H80.6963C80.6313 3.00839 80.5691 3.03458 80.5232 3.081C80.4772 3.12743 80.4513 3.19034 80.451 3.25601V9.52604C80.4514 9.59169 80.4773 9.65456 80.5233 9.70097C80.5692 9.74738 80.6314 9.77359 80.6963 9.7739H81.2153C81.2466 9.77481 81.2776 9.76875 81.3063 9.75613C81.3349 9.74352 81.3605 9.72466 81.3811 9.70092C81.4242 9.65324 81.4475 9.59062 81.4462 9.52604V3.25601C81.4474 3.19139 81.4241 3.12875 81.3811 3.08098C81.3604 3.05731 81.3349 3.03852 81.3062 3.02593C81.2776 3.01335 81.2465 3.00728 81.2153 3.00815ZM70.5296 3.00815H70.0106C69.9456 3.00839 69.8834 3.03458 69.8375 3.081C69.7915 3.12743 69.7656 3.19034 69.7653 3.25601V4.30588C69.5453 3.85924 69.199 3.48876 68.7704 3.24147C68.3075 2.96636 67.7787 2.82511 67.2418 2.83312C66.7974 2.82411 66.3559 2.9082 65.9451 3.0801C65.5344 3.252 65.1632 3.50799 64.8551 3.83197C64.2061 4.49797 63.8816 5.34612 63.8816 6.37641C63.8816 7.40686 64.2061 8.255 64.8551 8.92085C65.5041 9.58685 66.3044 9.9198 67.2562 9.9197C67.7875 9.92659 68.3107 9.78805 68.7704 9.51877C69.1967 9.27838 69.543 8.91555 69.7653 8.47616V9.81765C69.7653 10.5176 69.5587 11.0766 69.1454 11.4945C68.732 11.9124 68.1311 12.1214 67.3428 12.1215C66.6985 12.1215 66.1817 11.9757 65.7925 11.6841C65.4229 11.4217 65.1592 11.0335 65.0499 10.5904C65.0208 10.4541 64.9247 10.4007 64.7615 10.4301L64.2422 10.5759C64.0981 10.5952 64.0452 10.6778 64.0835 10.8238C64.2349 11.4619 64.6185 12.0189 65.1579 12.3839C65.7203 12.7825 66.4389 12.9818 67.3137 12.9818C68.4002 12.9818 69.2462 12.6902 69.8519 12.107C70.4577 11.5236 70.7606 10.7653 70.7605 9.83219V3.25601C70.7617 3.19145 70.7385 3.12886 70.6957 3.08098C70.6749 3.05733 70.6493 3.03855 70.6206 3.02597C70.5919 3.01338 70.5609 3.0073 70.5296 3.00815ZM69.0805 8.25738C68.6237 8.76303 68.0397 9.01578 67.3284 9.01563C67.0006 9.024 66.675 8.96056 66.3737 8.82967C66.0725 8.69879 65.8029 8.50356 65.5833 8.25738C65.1218 7.75217 64.8911 7.12518 64.8912 6.37641C64.8912 5.63773 65.1219 5.01559 65.5833 4.50999C65.8029 4.26386 66.0726 4.06866 66.3738 3.93778C66.675 3.8069 67.0006 3.74343 67.3284 3.75173C68.0396 3.75173 68.6236 4.00206 69.0805 4.50272C69.5371 5.00348 69.7653 5.62804 69.7653 6.37641C69.7653 7.12503 69.5371 7.75202 69.0805 8.25738ZM78.4468 3.00815H77.9419C77.877 3.00834 77.8147 3.03451 77.7688 3.08096C77.7229 3.12741 77.6971 3.19034 77.6969 3.25601V6.85759C77.6969 7.51885 77.4998 8.05595 77.1055 8.46889C76.7111 8.88214 76.1824 9.08871 75.5194 9.08861C74.8463 9.08861 74.3295 8.89173 73.9691 8.49797C73.6085 8.1043 73.4282 7.55751 73.4283 6.85759V3.25601C73.4281 3.19034 73.4021 3.12743 73.3562 3.081C73.3102 3.03458 73.248 3.00839 73.1831 3.00815H72.664C72.6341 3.00874 72.6046 3.01551 72.5773 3.02803C72.55 3.04055 72.5255 3.05857 72.5053 3.08098C72.4821 3.10364 72.4638 3.13085 72.4513 3.16095C72.4389 3.19105 72.4327 3.2234 72.4331 3.25601V7.03262C72.4331 7.91726 72.6879 8.62687 73.1974 9.16144C73.7071 9.69617 74.3993 9.96351 75.2741 9.96346C75.7932 9.97566 76.306 9.84727 76.7595 9.5916C77.1649 9.3624 77.4918 9.01406 77.6969 8.59275V9.54057C77.696 9.57216 77.702 9.60356 77.7144 9.63255C77.7268 9.66154 77.7454 9.68742 77.7688 9.70833C77.8161 9.75174 77.878 9.7752 77.9419 9.7739H78.4468C78.5117 9.77351 78.5738 9.74727 78.6197 9.70086C78.6656 9.65446 78.6915 9.59164 78.6918 9.52604V3.25601C78.6916 3.19039 78.6657 3.12753 78.6198 3.08111C78.5739 3.03469 78.5117 3.00847 78.4468 3.00815ZM89.4063 0.205151H88.8873C88.8223 0.205458 88.7602 0.231665 88.7142 0.278077C88.6683 0.324489 88.6423 0.387355 88.642 0.45301V4.29135C88.423 3.84587 88.0763 3.47747 87.6471 3.23421C87.1827 2.96355 86.6545 2.82496 86.1185 2.83312C85.6741 2.82597 85.233 2.91237 84.8234 3.08683C84.4138 3.26129 84.0445 3.52 83.7391 3.84651C83.0851 4.5223 82.7582 5.37534 82.7583 6.40563C82.7583 7.43608 83.0852 8.28665 83.7391 8.95734C84.0478 9.28301 84.4199 9.54052 84.8319 9.71368C85.2438 9.88683 85.6868 9.97188 86.1329 9.96346C86.6629 9.97089 87.1845 9.82953 87.6398 9.55511C88.0672 9.30392 88.4149 8.93467 88.642 8.4907V9.52604C88.6423 9.59169 88.6683 9.65455 88.7142 9.70097C88.7602 9.74738 88.8223 9.77359 88.8873 9.77389H89.4063C89.4376 9.77478 89.4687 9.7687 89.4974 9.75609C89.5261 9.74348 89.5517 9.72464 89.5723 9.70091C89.6153 9.65314 89.6385 9.59056 89.6372 9.52604V0.45301C89.6384 0.388495 89.6152 0.32595 89.5723 0.278129C89.5516 0.254453 89.526 0.235652 89.4973 0.223045C89.4686 0.210438 89.4376 0.20433 89.4063 0.205151ZM87.9716 8.27933C87.5148 8.78009 86.9307 9.03037 86.2194 9.03017C85.5077 9.03017 84.9236 8.77989 84.4673 8.27933C84.0105 7.77872 83.7821 7.15415 83.7822 6.40563C83.7822 5.65716 84.0106 5.02771 84.4673 4.51725C84.9238 4.007 85.5079 3.75183 86.2194 3.75173C86.9306 3.75173 87.5147 4.0069 87.9716 4.51725C88.4281 5.02766 88.6564 5.65711 88.6564 6.40563C88.6564 7.15425 88.4281 7.77882 87.9716 8.27933ZM80.9557 0.205151C80.8489 0.204034 80.7431 0.225507 80.645 0.268193C80.5469 0.310878 80.4588 0.373831 80.3862 0.45301C80.2338 0.608003 80.1482 0.81768 80.1482 1.03624C80.1482 1.2548 80.2338 1.46448 80.3862 1.61947C80.4595 1.69776 80.5478 1.76012 80.6457 1.80273C80.7437 1.84535 80.8492 1.86733 80.9558 1.86733C81.0624 1.86733 81.1679 1.84535 81.2659 1.80273C81.3638 1.76012 81.4521 1.69776 81.5254 1.61947C81.6778 1.46448 81.7634 1.2548 81.7634 1.03624C81.7634 0.817681 81.6778 0.608004 81.5254 0.45301C81.4528 0.373825 81.3646 0.310871 81.2665 0.268187C81.1683 0.225503 81.0625 0.204031 80.9557 0.205151ZM103.51 6.63154C103.183 6.32539 102.678 6.10428 101.996 5.96821L100.741 5.72021C99.9911 5.5649 99.6161 5.23927 99.6161 4.74331C99.6161 4.43226 99.7531 4.17224 100.027 3.96325C100.301 3.75425 100.674 3.64973 101.145 3.64968C101.818 3.64672 102.474 3.8727 103.005 4.29135C103.061 4.34735 103.136 4.37881 103.214 4.37881C103.293 4.37881 103.368 4.34735 103.423 4.29135L103.668 4.04349C103.803 3.91726 103.798 3.79089 103.654 3.66436C103.058 3.10071 102.245 2.81879 101.217 2.81859C100.467 2.81859 99.842 3.00083 99.3421 3.36533C98.8421 3.72992 98.5922 4.20383 98.5922 4.78707C98.5922 5.769 99.2075 6.37172 100.438 6.5952L101.606 6.81384C102.52 6.98886 102.976 7.37284 102.976 7.96576C102.976 8.27696 102.827 8.54914 102.529 8.78231C102.231 9.01563 101.823 9.13232 101.303 9.13237C100.524 9.13616 99.7741 8.83277 99.2124 8.28659C99.0584 8.15058 98.9238 8.13599 98.8087 8.24284L98.5634 8.46162C98.3903 8.61722 98.4096 8.79704 98.6212 9.00109C99.294 9.64262 100.174 9.96341 101.26 9.96346C102.135 9.96346 102.81 9.75446 103.286 9.33647C103.762 8.91862 104 8.43744 104 7.89293C104 7.35835 103.837 6.93789 103.51 6.63154Z" fill="white"/>
</svg>
