<?xml version="1.0" encoding="UTF-8"?>
<svg width="135px" height="18px" viewBox="0 0 135 18" version="1.1" xmlns="http://www.w3.org/2000/svg" xmlns:xlink="http://www.w3.org/1999/xlink">
    <!-- Generator: sketchtool 55.2 (78181) - https://sketchapp.com -->
    <title>9F28AB19-A64D-4F6E-8A8E-360EC841C451</title>
    <desc>Created with sketchtool.</desc>
    <defs>
        <polygon id="path-1" points="0.518008065 0.242673387 10.2151452 0.242673387 10.2151452 13.0002823 0.518008065 13.0002823"></polygon>
        <path d="M33.8175,0.817620968 C33.7282258,0.817620968 33.6520161,0.849193548 33.5866935,0.913427419 L33.5866935,0.913427419 C33.5235484,0.976572581 33.4919758,1.05387097 33.4919758,1.14314516 L33.4919758,1.14314516 L33.4919758,7.02326613 C33.2110887,6.44951613 32.7701613,5.98681452 32.1702823,5.63516129 L32.1702823,5.63516129 C31.5693145,5.28459677 30.8932258,5.10931452 30.1398387,5.10931452 L30.1398387,5.10931452 C28.8997984,5.10931452 27.8470161,5.55133065 26.9793145,6.43971774 L26.9793145,6.43971774 C26.1116129,7.32592742 25.676129,8.4483871 25.676129,9.80165323 L25.676129,9.80165323 C25.676129,11.1549194 26.1116129,12.2719355 26.9793145,13.1527016 L26.9793145,13.1527016 C27.8470161,14.0345565 28.9074194,14.4754839 30.1583468,14.4754839 L30.1583468,14.4754839 C30.8986694,14.4754839 31.5660484,14.2947581 32.1604839,13.9376613 L32.1604839,13.9376613 C32.7538306,13.5805645 33.1991129,13.1145968 33.4919758,12.5386694 L33.4919758,12.5386694 L33.4919758,13.8995565 C33.4919758,13.9888306 33.5235484,14.0650403 33.5866935,14.1303629 L33.5866935,14.1303629 C33.6520161,14.1924194 33.7282258,14.2250806 33.8175,14.2250806 L33.8175,14.2250806 L34.5066532,14.2250806 C34.5970161,14.2250806 34.668871,14.1924194 34.7276613,14.1303629 L34.7276613,14.1303629 C34.7853629,14.0650403 34.8136694,13.9888306 34.8136694,13.8995565 L34.8136694,13.8995565 L34.8136694,1.14314516 C34.8136694,1.05387097 34.7853629,0.976572581 34.7276613,0.913427419 L34.7276613,0.913427419 C34.668871,0.849193548 34.5970161,0.817620968 34.5066532,0.817620968 L34.5066532,0.817620968 L33.8175,0.817620968 Z M27.9471774,12.2621371 C27.3407661,11.6056452 27.0370161,10.7836694 27.0370161,9.80165323 L27.0370161,9.80165323 C27.0370161,8.81854839 27.3407661,7.99004032 27.9471774,7.32157258 L27.9471774,7.32157258 C28.5525,6.64875 29.32875,6.31451613 30.27375,6.31451613 L30.27375,6.31451613 C31.21875,6.31451613 31.9939113,6.64875 32.6014113,7.32157258 L32.6014113,7.32157258 C33.2078226,7.99004032 33.5115726,8.81854839 33.5115726,9.80165323 L33.5115726,9.80165323 C33.5115726,10.7836694 33.2078226,11.6056452 32.6014113,12.2621371 L32.6014113,12.2621371 C31.9939113,12.9197177 31.21875,13.2495968 30.27375,13.2495968 L30.27375,13.2495968 C29.32875,13.2495968 28.5525,12.9197177 27.9471774,12.2621371 L27.9471774,12.2621371 Z M22.5264919,1.48717742 C22.3152823,1.70383065 22.2085887,1.96076613 22.2085887,2.25362903 L22.2085887,2.25362903 C22.2085887,2.54649194 22.3152823,2.80342742 22.5264919,3.02008065 L22.5264919,3.02008065 C22.7366129,3.23673387 22.9891935,3.34560484 23.2820565,3.34560484 L23.2820565,3.34560484 C23.5770968,3.34560484 23.8285887,3.23673387 24.0397984,3.02008065 L24.0397984,3.02008065 C24.2510081,2.80342742 24.3544355,2.54649194 24.3544355,2.25362903 L24.3544355,2.25362903 C24.3544355,1.96076613 24.2510081,1.70383065 24.0397984,1.48717742 L24.0397984,1.48717742 C23.8285887,1.26943548 23.5770968,1.16165323 23.2820565,1.16165323 L23.2820565,1.16165323 C22.9891935,1.16165323 22.7366129,1.26943548 22.5264919,1.48717742 L22.5264919,1.48717742 Z M47.7039919,5.80608871 C47.039879,6.28512097 46.7089113,6.90895161 46.7089113,7.67540323 L46.7089113,7.67540323 C46.7089113,8.96443548 47.5254435,9.75483871 49.1606855,10.0487903 L49.1606855,10.0487903 L50.7110081,10.3383871 C51.9249194,10.5670161 52.5313306,11.0710887 52.5313306,11.8506048 L52.5313306,11.8506048 C52.5313306,12.2599597 52.3342742,12.6159677 51.9368952,12.9229839 L51.9368952,12.9229839 C51.5416935,13.23 50.9984274,13.3824194 50.3092742,13.3824194 L50.3092742,13.3824194 C49.2619355,13.3824194 48.337621,13.0133468 47.5330645,12.2719355 L47.5330645,12.2719355 C47.3272984,12.0944758 47.14875,12.074879 46.9963306,12.2142339 L46.9963306,12.2142339 L46.6708065,12.5016532 C46.44,12.7052419 46.466129,12.9425806 46.7459274,13.2104032 L46.7459274,13.2104032 C47.6408468,14.0541532 48.8090323,14.4754839 50.2515726,14.4754839 L50.2515726,14.4754839 C51.4143145,14.4754839 52.3103226,14.201129 52.9428629,13.6513306 L52.9428629,13.6513306 C53.5754032,13.102621 53.891129,12.4689919 53.891129,11.7537097 L53.891129,11.7537097 C53.891129,11.0514919 53.6744758,10.4984274 53.2400806,10.0977823 L53.2400806,10.0977823 C52.8056855,9.69495968 52.1350403,9.4053629 51.2292339,9.22572581 L51.2292339,9.22572581 L49.5635081,8.90129032 C48.56625,8.69552419 48.067621,8.26875 48.067621,7.61770161 L48.067621,7.61770161 C48.067621,7.20834677 48.2505242,6.86758065 48.6141532,6.5921371 L48.6141532,6.5921371 C48.9777823,6.31778226 49.4742339,6.18060484 50.0980645,6.18060484 L50.0980645,6.18060484 C51.0049597,6.18060484 51.8280242,6.46149194 52.5716129,7.02326613 L52.5716129,7.02326613 C52.7610484,7.17677419 52.946129,7.17677419 53.1246774,7.02326613 L53.1246774,7.02326613 L53.4512903,6.69665323 C53.6298387,6.53116935 53.6233065,6.36459677 53.4327823,6.20020161 L53.4327823,6.20020161 C52.6402016,5.45987903 51.562379,5.08862903 50.1927823,5.08862903 L50.1927823,5.08862903 C49.199879,5.08862903 48.3670161,5.32705645 47.7039919,5.80608871 L47.7039919,5.80608871 Z M37.8675,6.44951613 C37.0063306,7.35423387 36.5752016,8.47342742 36.5752016,9.80165323 L36.5752016,9.80165323 C36.5752016,11.1429435 37.0106855,12.2566935 37.8783871,13.1429032 L37.8783871,13.1429032 C38.7471774,14.0312903 39.851129,14.4754839 41.1913306,14.4754839 L41.1913306,14.4754839 C42.0361694,14.4754839 42.7884677,14.3143548 43.4514919,13.9953629 L43.4514919,13.9953629 C44.1156048,13.676371 44.6392742,13.2365323 45.0225,12.6736694 L45.0225,12.6736694 C45.1248387,12.5081855 45.0987097,12.3742742 44.947379,12.2719355 L44.947379,12.2719355 L44.3910484,11.9279032 C44.2255645,11.8125 44.0720565,11.838629 43.9294355,12.0041129 L43.9294355,12.0041129 C43.1651613,12.8707258 42.2647984,13.3062097 41.2294355,13.3062097 L41.2294355,13.3062097 C40.323629,13.3062097 39.562621,13.0068145 38.9507661,12.4069355 L38.9507661,12.4069355 C38.3378226,11.8059677 38.0003226,11.0514919 37.935,10.1456855 L37.935,10.1456855 L45.2914113,10.1456855 C45.4960887,10.1456855 45.5973387,10.0368145 45.5973387,9.82016129 L45.5973387,9.82016129 L45.5973387,9.56975806 C45.5973387,8.25568548 45.1738306,7.18004032 44.3235484,6.34282258 L44.3235484,6.34282258 C43.4743548,5.50669355 42.4117742,5.08862903 41.1347177,5.08862903 L41.1347177,5.08862903 C39.8184677,5.08862903 38.7297581,5.54262097 37.8675,6.44951613 L37.8675,6.44951613 Z M38.9997581,7.05048387 C39.5800403,6.49741935 40.2920565,6.21762097 41.1347177,6.21762097 L41.1347177,6.21762097 C41.9904435,6.21762097 42.7079032,6.48326613 43.2892742,7.01346774 L43.2892742,7.01346774 C43.8706452,7.54366935 44.2037903,8.26221774 44.2930645,9.16802419 L44.2930645,9.16802419 L37.9731048,9.16802419 C38.0754435,8.3133871 38.4172984,7.60790323 38.9997581,7.05048387 L38.9997581,7.05048387 Z M1.89544355,6.42012097 C1.03427419,7.29435484 0.602056452,8.40919355 0.602056452,9.76245968 L0.602056452,9.76245968 C0.602056452,11.1157258 1.03427419,12.2305645 1.89544355,13.1047984 L1.89544355,13.1047984 C2.75770161,13.980121 3.82137097,14.4166935 5.0853629,14.4166935 L5.0853629,14.4166935 C5.82459677,14.4166935 6.49524194,14.2414113 7.09620968,13.8908468 L7.09620968,13.8908468 C7.69717742,13.5381048 8.13592742,13.0841129 8.41899194,12.5201613 L8.41899194,12.5201613 L8.41899194,14.2816935 C8.41899194,15.2016532 8.1446371,15.9365323 7.59483871,16.4863306 L7.59483871,16.4863306 C7.04504032,17.0350403 6.24701613,17.3083065 5.19967742,17.3083065 L5.19967742,17.3083065 C4.34395161,17.3083065 3.65806452,17.1177823 3.14092742,16.7356452 L3.14092742,16.7356452 C2.62379032,16.3513306 2.29608871,15.8733871 2.15455645,15.2985484 L2.15455645,15.2985484 C2.11754032,15.12 1.98798387,15.0492339 1.77133065,15.0873387 L1.77133065,15.0873387 L1.08217742,15.2800403 C0.891653226,15.3050806 0.819798387,15.4139516 0.870967742,15.6044758 L0.870967742,15.6044758 C1.07455645,16.4471371 1.55032258,17.1319355 2.29717742,17.6545161 L2.29717742,17.6545161 C3.04512097,18.1781855 3.99991935,18.4405645 5.16157258,18.4405645 L5.16157258,18.4405645 C6.60629032,18.4405645 7.72875,18.0551613 8.53330645,17.2887097 L8.53330645,17.2887097 C9.33895161,16.5244355 9.74068548,15.5282661 9.74068548,14.3012903 L9.74068548,14.3012903 L9.74068548,5.66346774 C9.74068548,5.57419355 9.71129032,5.49798387 9.65467742,5.43375 L9.65467742,5.43375 C9.59697581,5.37060484 9.52294355,5.33685484 9.43258065,5.33685484 L9.43258065,5.33685484 L8.74451613,5.33685484 C8.65524194,5.33685484 8.57794355,5.37060484 8.51479839,5.43375 L8.51479839,5.43375 C8.44947581,5.49798387 8.41899194,5.57419355 8.41899194,5.66346774 L8.41899194,5.66346774 L8.41899194,7.0428629 C8.13592742,6.4691129 7.69717742,6.00205645 7.09620968,5.64495968 L7.09620968,5.64495968 C6.49524194,5.28677419 5.81915323,5.10931452 5.06685484,5.10931452 L5.06685484,5.10931452 C3.81483871,5.10931452 2.75770161,5.5458871 1.89544355,6.42012097 L1.89544355,6.42012097 Z M2.86330645,12.2327419 C2.24927419,11.568629 1.94443548,10.7455645 1.94443548,9.76245968 L1.94443548,9.76245968 C1.94443548,8.79241935 2.24927419,7.97479839 2.86330645,7.30959677 L2.86330645,7.30959677 C3.47733871,6.64657258 4.24814516,6.31451613 5.18116935,6.31451613 L5.18116935,6.31451613 C6.12725806,6.31451613 6.90241935,6.64439516 7.50774194,7.30197581 L7.50774194,7.30197581 C8.11524194,7.95955645 8.41899194,8.77826613 8.41899194,9.76245968 L8.41899194,9.76245968 C8.41899194,10.7455645 8.11524194,11.568629 7.50774194,12.2327419 L7.50774194,12.2327419 C6.90241935,12.8990323 6.12725806,13.23 5.18116935,13.23 L5.18116935,13.23 C4.24814516,13.23 3.47733871,12.8990323 2.86330645,12.2327419 L2.86330645,12.2327419 Z M22.9391129,5.33685484 C22.8476613,5.33685484 22.7714516,5.37060484 22.7072177,5.43375 L22.7072177,5.43375 C22.6429839,5.49798387 22.6114113,5.57419355 22.6114113,5.66346774 L22.6114113,5.66346774 L22.6114113,13.8995565 C22.6114113,13.9888306 22.6429839,14.0650403 22.7072177,14.1303629 L22.7072177,14.1303629 C22.7714516,14.1924194 22.8476613,14.2250806 22.9391129,14.2250806 L22.9391129,14.2250806 L23.6271774,14.2250806 C23.7164516,14.2250806 23.7893952,14.1924194 23.8470968,14.1303629 L23.8470968,14.1303629 C23.9037097,14.0650403 23.9331048,13.9888306 23.9331048,13.8995565 L23.9331048,13.8995565 L23.9331048,5.66346774 C23.9331048,5.57419355 23.9037097,5.49798387 23.8470968,5.43375 L23.8470968,5.43375 C23.7893952,5.37060484 23.7164516,5.33685484 23.6271774,5.33685484 L23.6271774,5.33685484 L22.9391129,5.33685484 Z M19.278871,5.33685484 C19.1895968,5.33685484 19.1122984,5.37060484 19.0502419,5.43375 L19.0502419,5.43375 C18.9827419,5.49798387 18.9533468,5.57419355 18.9533468,5.66346774 L18.9533468,5.66346774 L18.9533468,10.3939113 C18.9533468,11.2627016 18.6909677,11.9681855 18.1683871,12.5114516 L18.1683871,12.5114516 C17.643629,13.0547177 16.9425,13.3258065 16.0606452,13.3258065 L16.0606452,13.3258065 C15.1668145,13.3258065 14.4809274,13.0666935 14.0029839,12.5484677 L14.0029839,12.5484677 C13.5228629,12.0335081 13.2833468,11.313871 13.2833468,10.3939113 L13.2833468,10.3939113 L13.2833468,5.66346774 C13.2833468,5.57419355 13.2517742,5.49798387 13.188629,5.43375 L13.188629,5.43375 C13.1222177,5.37060484 13.0470968,5.33685484 12.9578226,5.33685484 L12.9578226,5.33685484 L12.2686694,5.33685484 C12.1924597,5.33685484 12.1206048,5.37060484 12.0574597,5.43375 L12.0574597,5.43375 C11.9932258,5.49798387 11.9616532,5.57419355 11.9616532,5.66346774 L11.9616532,5.66346774 L11.9616532,10.6258065 C11.9616532,11.7874597 12.3002419,12.7193952 12.9774194,13.4205242 L12.9774194,13.4205242 C13.6535081,14.1238306 14.572379,14.4754839 15.735121,14.4754839 L15.735121,14.4754839 C16.4885081,14.4754839 17.1460887,14.3110887 17.7089516,13.9855645 L17.7089516,13.9855645 C18.2696371,13.661129 18.6855242,13.2234677 18.9533468,12.6736694 L18.9533468,12.6736694 L18.9533468,13.9191532 C18.9533468,14.0073387 18.9827419,14.0824597 19.0502419,14.1401613 L19.0502419,14.1401613 C19.1122984,14.1978629 19.1895968,14.2250806 19.278871,14.2250806 L19.278871,14.2250806 L19.9506048,14.2250806 C20.039879,14.2250806 20.115,14.1924194 20.1792339,14.1303629 L20.1792339,14.1303629 C20.2434677,14.0650403 20.276129,13.9888306 20.276129,13.8995565 L20.276129,13.8995565 L20.276129,5.66346774 C20.276129,5.57419355 20.2434677,5.49798387 20.1792339,5.43375 L20.1792339,5.43375 C20.115,5.37060484 20.039879,5.33685484 19.9506048,5.33685484 L19.9506048,5.33685484 L19.278871,5.33685484 Z" id="path-3"></path>
        <path d="M33.8175,0.817620968 C33.7282258,0.817620968 33.6520161,0.849193548 33.5866935,0.913427419 L33.5866935,0.913427419 C33.5235484,0.976572581 33.4919758,1.05387097 33.4919758,1.14314516 L33.4919758,1.14314516 L33.4919758,7.02326613 C33.2110887,6.44951613 32.7701613,5.98681452 32.1702823,5.63516129 L32.1702823,5.63516129 C31.5693145,5.28459677 30.8932258,5.10931452 30.1398387,5.10931452 L30.1398387,5.10931452 C28.8997984,5.10931452 27.8470161,5.55133065 26.9793145,6.43971774 L26.9793145,6.43971774 C26.1116129,7.32592742 25.676129,8.4483871 25.676129,9.80165323 L25.676129,9.80165323 C25.676129,11.1549194 26.1116129,12.2719355 26.9793145,13.1527016 L26.9793145,13.1527016 C27.8470161,14.0345565 28.9074194,14.4754839 30.1583468,14.4754839 L30.1583468,14.4754839 C30.8986694,14.4754839 31.5660484,14.2947581 32.1604839,13.9376613 L32.1604839,13.9376613 C32.7538306,13.5805645 33.1991129,13.1145968 33.4919758,12.5386694 L33.4919758,12.5386694 L33.4919758,13.8995565 C33.4919758,13.9888306 33.5235484,14.0650403 33.5866935,14.1303629 L33.5866935,14.1303629 C33.6520161,14.1924194 33.7282258,14.2250806 33.8175,14.2250806 L33.8175,14.2250806 L34.5066532,14.2250806 C34.5970161,14.2250806 34.668871,14.1924194 34.7276613,14.1303629 L34.7276613,14.1303629 C34.7853629,14.0650403 34.8136694,13.9888306 34.8136694,13.8995565 L34.8136694,13.8995565 L34.8136694,1.14314516 C34.8136694,1.05387097 34.7853629,0.976572581 34.7276613,0.913427419 L34.7276613,0.913427419 C34.668871,0.849193548 34.5970161,0.817620968 34.5066532,0.817620968 L34.5066532,0.817620968 L33.8175,0.817620968 Z M27.9471774,12.2621371 C27.3407661,11.6056452 27.0370161,10.7836694 27.0370161,9.80165323 L27.0370161,9.80165323 C27.0370161,8.81854839 27.3407661,7.99004032 27.9471774,7.32157258 L27.9471774,7.32157258 C28.5525,6.64875 29.32875,6.31451613 30.27375,6.31451613 L30.27375,6.31451613 C31.21875,6.31451613 31.9939113,6.64875 32.6014113,7.32157258 L32.6014113,7.32157258 C33.2078226,7.99004032 33.5115726,8.81854839 33.5115726,9.80165323 L33.5115726,9.80165323 C33.5115726,10.7836694 33.2078226,11.6056452 32.6014113,12.2621371 L32.6014113,12.2621371 C31.9939113,12.9197177 31.21875,13.2495968 30.27375,13.2495968 L30.27375,13.2495968 C29.32875,13.2495968 28.5525,12.9197177 27.9471774,12.2621371 L27.9471774,12.2621371 Z M22.5264919,1.48717742 C22.3152823,1.70383065 22.2085887,1.96076613 22.2085887,2.25362903 L22.2085887,2.25362903 C22.2085887,2.54649194 22.3152823,2.80342742 22.5264919,3.02008065 L22.5264919,3.02008065 C22.7366129,3.23673387 22.9891935,3.34560484 23.2820565,3.34560484 L23.2820565,3.34560484 C23.5770968,3.34560484 23.8285887,3.23673387 24.0397984,3.02008065 L24.0397984,3.02008065 C24.2510081,2.80342742 24.3544355,2.54649194 24.3544355,2.25362903 L24.3544355,2.25362903 C24.3544355,1.96076613 24.2510081,1.70383065 24.0397984,1.48717742 L24.0397984,1.48717742 C23.8285887,1.26943548 23.5770968,1.16165323 23.2820565,1.16165323 L23.2820565,1.16165323 C22.9891935,1.16165323 22.7366129,1.26943548 22.5264919,1.48717742 L22.5264919,1.48717742 Z M47.7039919,5.80608871 C47.039879,6.28512097 46.7089113,6.90895161 46.7089113,7.67540323 L46.7089113,7.67540323 C46.7089113,8.96443548 47.5254435,9.75483871 49.1606855,10.0487903 L49.1606855,10.0487903 L50.7110081,10.3383871 C51.9249194,10.5670161 52.5313306,11.0710887 52.5313306,11.8506048 L52.5313306,11.8506048 C52.5313306,12.2599597 52.3342742,12.6159677 51.9368952,12.9229839 L51.9368952,12.9229839 C51.5416935,13.23 50.9984274,13.3824194 50.3092742,13.3824194 L50.3092742,13.3824194 C49.2619355,13.3824194 48.337621,13.0133468 47.5330645,12.2719355 L47.5330645,12.2719355 C47.3272984,12.0944758 47.14875,12.074879 46.9963306,12.2142339 L46.9963306,12.2142339 L46.6708065,12.5016532 C46.44,12.7052419 46.466129,12.9425806 46.7459274,13.2104032 L46.7459274,13.2104032 C47.6408468,14.0541532 48.8090323,14.4754839 50.2515726,14.4754839 L50.2515726,14.4754839 C51.4143145,14.4754839 52.3103226,14.201129 52.9428629,13.6513306 L52.9428629,13.6513306 C53.5754032,13.102621 53.891129,12.4689919 53.891129,11.7537097 L53.891129,11.7537097 C53.891129,11.0514919 53.6744758,10.4984274 53.2400806,10.0977823 L53.2400806,10.0977823 C52.8056855,9.69495968 52.1350403,9.4053629 51.2292339,9.22572581 L51.2292339,9.22572581 L49.5635081,8.90129032 C48.56625,8.69552419 48.067621,8.26875 48.067621,7.61770161 L48.067621,7.61770161 C48.067621,7.20834677 48.2505242,6.86758065 48.6141532,6.5921371 L48.6141532,6.5921371 C48.9777823,6.31778226 49.4742339,6.18060484 50.0980645,6.18060484 L50.0980645,6.18060484 C51.0049597,6.18060484 51.8280242,6.46149194 52.5716129,7.02326613 L52.5716129,7.02326613 C52.7610484,7.17677419 52.946129,7.17677419 53.1246774,7.02326613 L53.1246774,7.02326613 L53.4512903,6.69665323 C53.6298387,6.53116935 53.6233065,6.36459677 53.4327823,6.20020161 L53.4327823,6.20020161 C52.6402016,5.45987903 51.562379,5.08862903 50.1927823,5.08862903 L50.1927823,5.08862903 C49.199879,5.08862903 48.3670161,5.32705645 47.7039919,5.80608871 L47.7039919,5.80608871 Z M37.8675,6.44951613 C37.0063306,7.35423387 36.5752016,8.47342742 36.5752016,9.80165323 L36.5752016,9.80165323 C36.5752016,11.1429435 37.0106855,12.2566935 37.8783871,13.1429032 L37.8783871,13.1429032 C38.7471774,14.0312903 39.851129,14.4754839 41.1913306,14.4754839 L41.1913306,14.4754839 C42.0361694,14.4754839 42.7884677,14.3143548 43.4514919,13.9953629 L43.4514919,13.9953629 C44.1156048,13.676371 44.6392742,13.2365323 45.0225,12.6736694 L45.0225,12.6736694 C45.1248387,12.5081855 45.0987097,12.3742742 44.947379,12.2719355 L44.947379,12.2719355 L44.3910484,11.9279032 C44.2255645,11.8125 44.0720565,11.838629 43.9294355,12.0041129 L43.9294355,12.0041129 C43.1651613,12.8707258 42.2647984,13.3062097 41.2294355,13.3062097 L41.2294355,13.3062097 C40.323629,13.3062097 39.562621,13.0068145 38.9507661,12.4069355 L38.9507661,12.4069355 C38.3378226,11.8059677 38.0003226,11.0514919 37.935,10.1456855 L37.935,10.1456855 L45.2914113,10.1456855 C45.4960887,10.1456855 45.5973387,10.0368145 45.5973387,9.82016129 L45.5973387,9.82016129 L45.5973387,9.56975806 C45.5973387,8.25568548 45.1738306,7.18004032 44.3235484,6.34282258 L44.3235484,6.34282258 C43.4743548,5.50669355 42.4117742,5.08862903 41.1347177,5.08862903 L41.1347177,5.08862903 C39.8184677,5.08862903 38.7297581,5.54262097 37.8675,6.44951613 L37.8675,6.44951613 Z M38.9997581,7.05048387 C39.5800403,6.49741935 40.2920565,6.21762097 41.1347177,6.21762097 L41.1347177,6.21762097 C41.9904435,6.21762097 42.7079032,6.48326613 43.2892742,7.01346774 L43.2892742,7.01346774 C43.8706452,7.54366935 44.2037903,8.26221774 44.2930645,9.16802419 L44.2930645,9.16802419 L37.9731048,9.16802419 C38.0754435,8.3133871 38.4172984,7.60790323 38.9997581,7.05048387 L38.9997581,7.05048387 Z M1.89544355,6.42012097 C1.03427419,7.29435484 0.602056452,8.40919355 0.602056452,9.76245968 L0.602056452,9.76245968 C0.602056452,11.1157258 1.03427419,12.2305645 1.89544355,13.1047984 L1.89544355,13.1047984 C2.75770161,13.980121 3.82137097,14.4166935 5.0853629,14.4166935 L5.0853629,14.4166935 C5.82459677,14.4166935 6.49524194,14.2414113 7.09620968,13.8908468 L7.09620968,13.8908468 C7.69717742,13.5381048 8.13592742,13.0841129 8.41899194,12.5201613 L8.41899194,12.5201613 L8.41899194,14.2816935 C8.41899194,15.2016532 8.1446371,15.9365323 7.59483871,16.4863306 L7.59483871,16.4863306 C7.04504032,17.0350403 6.24701613,17.3083065 5.19967742,17.3083065 L5.19967742,17.3083065 C4.34395161,17.3083065 3.65806452,17.1177823 3.14092742,16.7356452 L3.14092742,16.7356452 C2.62379032,16.3513306 2.29608871,15.8733871 2.15455645,15.2985484 L2.15455645,15.2985484 C2.11754032,15.12 1.98798387,15.0492339 1.77133065,15.0873387 L1.77133065,15.0873387 L1.08217742,15.2800403 C0.891653226,15.3050806 0.819798387,15.4139516 0.870967742,15.6044758 L0.870967742,15.6044758 C1.07455645,16.4471371 1.55032258,17.1319355 2.29717742,17.6545161 L2.29717742,17.6545161 C3.04512097,18.1781855 3.99991935,18.4405645 5.16157258,18.4405645 L5.16157258,18.4405645 C6.60629032,18.4405645 7.72875,18.0551613 8.53330645,17.2887097 L8.53330645,17.2887097 C9.33895161,16.5244355 9.74068548,15.5282661 9.74068548,14.3012903 L9.74068548,14.3012903 L9.74068548,5.66346774 C9.74068548,5.57419355 9.71129032,5.49798387 9.65467742,5.43375 L9.65467742,5.43375 C9.59697581,5.37060484 9.52294355,5.33685484 9.43258065,5.33685484 L9.43258065,5.33685484 L8.74451613,5.33685484 C8.65524194,5.33685484 8.57794355,5.37060484 8.51479839,5.43375 L8.51479839,5.43375 C8.44947581,5.49798387 8.41899194,5.57419355 8.41899194,5.66346774 L8.41899194,5.66346774 L8.41899194,7.0428629 C8.13592742,6.4691129 7.69717742,6.00205645 7.09620968,5.64495968 L7.09620968,5.64495968 C6.49524194,5.28677419 5.81915323,5.10931452 5.06685484,5.10931452 L5.06685484,5.10931452 C3.81483871,5.10931452 2.75770161,5.5458871 1.89544355,6.42012097 L1.89544355,6.42012097 Z M2.86330645,12.2327419 C2.24927419,11.568629 1.94443548,10.7455645 1.94443548,9.76245968 L1.94443548,9.76245968 C1.94443548,8.79241935 2.24927419,7.97479839 2.86330645,7.30959677 L2.86330645,7.30959677 C3.47733871,6.64657258 4.24814516,6.31451613 5.18116935,6.31451613 L5.18116935,6.31451613 C6.12725806,6.31451613 6.90241935,6.64439516 7.50774194,7.30197581 L7.50774194,7.30197581 C8.11524194,7.95955645 8.41899194,8.77826613 8.41899194,9.76245968 L8.41899194,9.76245968 C8.41899194,10.7455645 8.11524194,11.568629 7.50774194,12.2327419 L7.50774194,12.2327419 C6.90241935,12.8990323 6.12725806,13.23 5.18116935,13.23 L5.18116935,13.23 C4.24814516,13.23 3.47733871,12.8990323 2.86330645,12.2327419 L2.86330645,12.2327419 Z M22.9391129,5.33685484 C22.8476613,5.33685484 22.7714516,5.37060484 22.7072177,5.43375 L22.7072177,5.43375 C22.6429839,5.49798387 22.6114113,5.57419355 22.6114113,5.66346774 L22.6114113,5.66346774 L22.6114113,13.8995565 C22.6114113,13.9888306 22.6429839,14.0650403 22.7072177,14.1303629 L22.7072177,14.1303629 C22.7714516,14.1924194 22.8476613,14.2250806 22.9391129,14.2250806 L22.9391129,14.2250806 L23.6271774,14.2250806 C23.7164516,14.2250806 23.7893952,14.1924194 23.8470968,14.1303629 L23.8470968,14.1303629 C23.9037097,14.0650403 23.9331048,13.9888306 23.9331048,13.8995565 L23.9331048,13.8995565 L23.9331048,5.66346774 C23.9331048,5.57419355 23.9037097,5.49798387 23.8470968,5.43375 L23.8470968,5.43375 C23.7893952,5.37060484 23.7164516,5.33685484 23.6271774,5.33685484 L23.6271774,5.33685484 L22.9391129,5.33685484 Z M19.278871,5.33685484 C19.1895968,5.33685484 19.1122984,5.37060484 19.0502419,5.43375 L19.0502419,5.43375 C18.9827419,5.49798387 18.9533468,5.57419355 18.9533468,5.66346774 L18.9533468,5.66346774 L18.9533468,10.3939113 C18.9533468,11.2627016 18.6909677,11.9681855 18.1683871,12.5114516 L18.1683871,12.5114516 C17.643629,13.0547177 16.9425,13.3258065 16.0606452,13.3258065 L16.0606452,13.3258065 C15.1668145,13.3258065 14.4809274,13.0666935 14.0029839,12.5484677 L14.0029839,12.5484677 C13.5228629,12.0335081 13.2833468,11.313871 13.2833468,10.3939113 L13.2833468,10.3939113 L13.2833468,5.66346774 C13.2833468,5.57419355 13.2517742,5.49798387 13.188629,5.43375 L13.188629,5.43375 C13.1222177,5.37060484 13.0470968,5.33685484 12.9578226,5.33685484 L12.9578226,5.33685484 L12.2686694,5.33685484 C12.1924597,5.33685484 12.1206048,5.37060484 12.0574597,5.43375 L12.0574597,5.43375 C11.9932258,5.49798387 11.9616532,5.57419355 11.9616532,5.66346774 L11.9616532,5.66346774 L11.9616532,10.6258065 C11.9616532,11.7874597 12.3002419,12.7193952 12.9774194,13.4205242 L12.9774194,13.4205242 C13.6535081,14.1238306 14.572379,14.4754839 15.735121,14.4754839 L15.735121,14.4754839 C16.4885081,14.4754839 17.1460887,14.3110887 17.7089516,13.9855645 L17.7089516,13.9855645 C18.2696371,13.661129 18.6855242,13.2234677 18.9533468,12.6736694 L18.9533468,12.6736694 L18.9533468,13.9191532 C18.9533468,14.0073387 18.9827419,14.0824597 19.0502419,14.1401613 L19.0502419,14.1401613 C19.1122984,14.1978629 19.1895968,14.2250806 19.278871,14.2250806 L19.278871,14.2250806 L19.9506048,14.2250806 C20.039879,14.2250806 20.115,14.1924194 20.1792339,14.1303629 L20.1792339,14.1303629 C20.2434677,14.0650403 20.276129,13.9888306 20.276129,13.8995565 L20.276129,13.8995565 L20.276129,5.66346774 C20.276129,5.57419355 20.2434677,5.49798387 20.1792339,5.43375 L20.1792339,5.43375 C20.115,5.37060484 20.039879,5.33685484 19.9506048,5.33685484 L19.9506048,5.33685484 L19.278871,5.33685484 Z" id="path-5"></path>
    </defs>
    <g id="Page-1" stroke="none" stroke-width="1" fill="none" fill-rule="evenodd">
        <g id="Web-Builder---1" transform="translate(-1116.000000, -5822.000000)">
            <g id="GD-Guides" transform="translate(64.000000, 5647.000000)">
                <g id="text-block" transform="translate(1052.000000, 174.000000)">
                    <g id="GoDaddy-Guides-Logo" transform="translate(0.000000, -0.000000)">
                        <g id="gd-logo" transform="translate(0.000000, 1.360343)">
                            <path d="M20.4017661,8.94723387 C20.4017661,7.96521774 19.6233387,7.15848387 18.6326129,7.15848387 C17.6418871,7.15848387 16.862371,7.96521774 16.862371,8.94723387 C16.862371,9.92925 17.6418871,10.7196532 18.6326129,10.7196532 C19.6233387,10.7196532 20.4017661,9.92925 20.4017661,8.94723387 M23.4806371,8.96465323 C23.4806371,11.5089677 21.3217258,13.5426774 18.6326129,13.5426774 C15.9424113,13.5426774 13.7845887,11.5089677 13.7845887,8.96465323 C13.7845887,6.40400806 15.9424113,4.33437097 18.6326129,4.33437097 C21.3217258,4.33437097 23.4806371,6.40400806 23.4806371,8.96465323" id="Fill-1" fill="#121212"></path>
                            <path d="M33.1340081,7.10524597 C33.1340081,5.38617339 31.9309839,3.89572984 30.1618306,3.89572984 L27.7013468,3.89572984 L27.7013468,10.3855282 L30.1618306,10.3855282 C31.9309839,10.3855282 33.1340081,8.82431855 33.1340081,7.10524597 M36.4600161,7.10524597 C36.4600161,10.7709315 33.8765081,13.2804073 30.2315081,13.2804073 L24.9588871,13.2804073 C24.71175,13.2804073 24.516871,13.0866169 24.516871,12.8416573 L24.516871,1.42218145 C24.516871,1.19355242 24.71175,1.00085081 24.9588871,1.00085081 L30.2315081,1.00085081 C33.8765081,1.00085081 36.4600161,3.43956048 36.4600161,7.10524597" id="Fill-3" fill="#121212"></path>
                            <path d="M41.6098306,10.7366371 C42.6005565,10.7366371 43.3789839,9.92990323 43.3789839,8.9478871 C43.3789839,7.96587097 42.6005565,7.1591371 41.6098306,7.1591371 C40.6191048,7.1591371 39.8406774,7.96587097 39.8406774,8.9478871 C39.8406774,9.92990323 40.6191048,10.7366371 41.6098306,10.7366371 M41.1493065,4.33502419 C42.193379,4.33502419 43.0251532,4.72042742 43.3964032,5.26478226 L43.3964032,5.00131452 C43.3964032,4.77268548 43.5912823,4.59740323 43.8035806,4.59740323 L46.0158387,4.59740323 C46.2455565,4.59740323 46.4230161,4.77268548 46.4230161,5.00131452 L46.4230161,12.8770403 C46.4230161,13.1045806 46.2455565,13.2798629 46.0158387,13.2798629 L43.8035806,13.2798629 C43.5738629,13.2798629 43.3964032,13.1045806 43.3964032,12.8770403 L43.3964032,12.6135726 C43.0251532,13.1568387 42.1759597,13.5433306 41.1318871,13.5433306 C38.9022097,13.5433306 36.7618065,11.772 36.7618065,8.91195968 C36.7618065,6.05300806 38.919629,4.33502419 41.1493065,4.33502419" id="Fill-5" fill="#121212"></path>
                            <path d="M51.6776734,10.7366371 C52.6683992,10.7366371 53.4468266,9.92990323 53.4468266,8.9478871 C53.4468266,7.96587097 52.6683992,7.1591371 51.6776734,7.1591371 C50.6869476,7.1591371 49.9085202,7.96587097 49.9085202,8.9478871 C49.9085202,9.92990323 50.6869476,10.7366371 51.6776734,10.7366371 M51.1463831,4.33502419 C52.2263831,4.33502419 53.0570685,4.73784677 53.4294073,5.21143548 L53.4294073,1.40530645 C53.4294073,1.17667742 53.6242863,1.00139516 53.8365847,1.00139516 L56.0836815,1.00139516 C56.3133992,1.00139516 56.4908589,1.17667742 56.4908589,1.40530645 L56.4908589,12.8770403 C56.4908589,13.1045806 56.3133992,13.2798629 56.0836815,13.2798629 L53.8714234,13.2798629 C53.6417056,13.2798629 53.464246,13.1045806 53.464246,12.8770403 L53.464246,12.6135726 C53.0222298,13.1568387 52.2438024,13.5433306 51.1997298,13.5433306 C48.9700524,13.5433306 46.8296492,11.772 46.8296492,8.91195968 C46.8296492,6.05300806 48.9526331,4.33502419 51.1463831,4.33502419" id="Fill-7" fill="#121212"></path>
                            <path d="M61.7461694,10.7366371 C62.7368952,10.7366371 63.5153226,9.92990323 63.5153226,8.9478871 C63.5153226,7.96587097 62.7368952,7.1591371 61.7461694,7.1591371 C60.7554435,7.1591371 59.9770161,7.96587097 59.9770161,8.9478871 C59.9770161,9.92990323 60.7554435,10.7366371 61.7461694,10.7366371 M61.214879,4.33502419 C62.294879,4.33502419 63.1255645,4.73784677 63.4979032,5.21143548 L63.4979032,1.40530645 C63.4979032,1.17667742 63.6927823,1.00139516 63.9050806,1.00139516 L66.1521774,1.00139516 C66.3818952,1.00139516 66.5593548,1.17667742 66.5593548,1.40530645 L66.5593548,12.8770403 C66.5593548,13.1045806 66.3818952,13.2798629 66.1521774,13.2798629 L63.9399194,13.2798629 C63.7102016,13.2798629 63.5327419,13.1045806 63.5327419,12.8770403 L63.5327419,12.6135726 C63.0907258,13.1568387 62.3122984,13.5433306 61.2682258,13.5433306 C59.0385484,13.5433306 56.8981452,11.772 56.8981452,8.91195968 C56.8981452,6.05300806 59.021129,4.33502419 61.214879,4.33502419" id="Fill-9" fill="#121212"></path>
                            <g id="Group-13" transform="translate(66.411290, 4.354839)">
                                <mask id="mask-2" fill="white">
                                    <use xlink:href="#path-1"></use>
                                </mask>
                                <g id="Clip-12"></g>
                                <path d="M7.54345161,10.1880363 C6.99474194,12.0301331 5.70462097,13.0644073 3.68615323,13.0644073 C2.58873387,13.0644073 1.52833065,12.6964234 0.83808871,12.0998105 C0.731395161,11.9942056 0.659540323,11.8548508 0.659540323,11.7318266 C0.659540323,11.6262218 0.713975806,11.4857782 0.80325,11.362754 L1.63284677,10.0998508 C1.75804839,9.92456855 1.95183871,9.90714919 1.98776613,9.90714919 C2.18155645,9.90714919 2.26974194,9.95940726 2.44720161,10.0824315 C2.71284677,10.2588024 3.06776613,10.4689234 3.47494355,10.4689234 C3.81026613,10.4689234 4.26970161,10.3284798 4.42974194,9.80263306 L4.71171774,8.92513306 L3.36716129,8.92513306 C3.08409677,8.92513306 2.90772581,8.73243145 2.83804839,8.50380242 L0.589862903,0.926383065 C0.536516129,0.733681452 0.518008065,0.628076613 0.518008065,0.558399194 C0.518008065,0.383116935 0.642120968,0.242673387 0.891435484,0.242673387 L3.54462097,0.242673387 C3.77433871,0.242673387 3.91587097,0.452794355 3.97030645,0.662915323 L5.4378871,6.10102016 L5.54349194,6.10102016 L6.72909677,0.662915323 C6.78353226,0.452794355 6.92506452,0.242673387 7.15478226,0.242673387 L9.84389516,0.242673387 C10.092121,0.242673387 10.2151452,0.383116935 10.2151452,0.558399194 C10.2151452,0.628076613 10.1977258,0.733681452 10.1454677,0.926383065 L7.54345161,10.1880363 Z" id="Fill-11" fill="#121212" mask="url(#mask-2)"></path>
                            </g>
                            <path d="M10.6347339,11.5786452 C9.57324194,13.0516694 7.803,13.5437661 6.24614516,13.5437661 C2.65449194,13.5437661 0.000217741935,10.8590081 0.000217741935,7.14106452 C0.000217741935,3.57989516 2.86679032,0.738362903 6.61848387,0.738362903 C9.39578226,0.738362903 11.6254597,1.91416935 12.6346935,4.15908871 C12.7577177,4.42146774 12.8459032,4.84279839 12.1034032,4.98324194 L10.139371,5.33380645 C9.67884677,5.42199194 9.43170968,5.12368548 9.34243548,5.00066129 C8.7588871,4.21134677 7.82150806,3.66808065 6.68925,3.66808065 C4.72521774,3.66808065 3.32731452,5.15852419 3.32731452,7.15848387 C3.32731452,9.36856452 4.91900806,10.6488871 6.63590323,10.6488871 C7.78666935,10.6488871 8.74146774,10.2101371 9.36094355,9.40340323 L7.62662903,9.40340323 C7.37840323,9.40340323 7.1846129,9.21070161 7.1846129,8.96465323 L7.1846129,7.31634677 C7.1846129,7.07029839 7.37840323,6.87759677 7.62662903,6.87759677 L12.9177581,6.87759677 C13.1648952,6.87759677 13.3597742,7.07029839 13.3597742,7.31634677 L13.3597742,12.8415484 C13.3597742,13.0875968 13.1648952,13.2802984 12.9177581,13.2802984 L11.07675,13.2802984 C10.8296129,13.2802984 10.6347339,13.0875968 10.6347339,12.8415484 L10.6347339,11.5786452 Z" id="Fill-14" fill="#121212"></path>
                            <path d="M77.7993024,2.78981855 C77.7993024,2.74300403 77.7829718,2.7059879 77.7535766,2.67877016 C77.7230927,2.65155242 77.6806331,2.6384879 77.6294637,2.6384879 L77.4443831,2.6384879 L77.4443831,2.94332661 L77.6294637,2.94332661 C77.6806331,2.9422379 77.722004,2.92699597 77.7524879,2.89977823 C77.7829718,2.87256048 77.7993024,2.83554435 77.7993024,2.78981855 M77.4073669,3.55627016 L77.2168427,3.55627016 C77.2059556,3.55627016 77.1961573,3.55300403 77.1885363,3.54538306 C77.182004,3.5377621 77.1787379,3.52905242 77.1787379,3.51925403 L77.1787379,2.44905242 C77.1787379,2.43925403 77.182004,2.43054435 77.189625,2.42292339 C77.197246,2.41530242 77.2070444,2.41203629 77.2168427,2.41203629 L77.6381734,2.41203629 C77.7699073,2.41203629 77.8744234,2.446875 77.9560766,2.51872984 C78.0366411,2.58949597 78.0769234,2.68094758 78.0769234,2.79199597 C78.0769234,2.86058468 78.0562379,2.92372984 78.0181331,2.98252016 C77.9811169,3.04131048 77.9277702,3.08703629 77.8624476,3.11860887 L78.1041411,3.49639113 C78.1150282,3.51054435 78.1161169,3.52360887 78.1095847,3.53558468 C78.1030524,3.54756048 78.0921653,3.55409274 78.074746,3.55409274 L77.8853105,3.55409274 C77.8678911,3.55409274 77.8559153,3.55082661 77.8439395,3.54429435 C77.8319637,3.5377621 77.8221653,3.52578629 77.8112782,3.51054435 L77.5957137,3.16868952 L77.4443831,3.16868952 L77.4443831,3.51925403 C77.4443831,3.52905242 77.4422056,3.5377621 77.433496,3.54538306 C77.4247863,3.55300403 77.4160766,3.55627016 77.4073669,3.55627016 M77.6098669,3.77618952 C77.8297863,3.77618952 78.0148669,3.69889113 78.1661976,3.54647177 C78.3164395,3.39405242 78.3904718,3.20570565 78.3904718,2.98252016 C78.3904718,2.75824597 78.3164395,2.56989919 78.1661976,2.41747984 C78.0148669,2.26397177 77.8297863,2.1877621 77.6098669,2.1877621 C77.3888589,2.1877621 77.2016008,2.26397177 77.0513589,2.41747984 C76.9022056,2.56989919 76.8249073,2.75824597 76.8249073,2.98252016 C76.8249073,3.20679435 76.9022056,3.39514113 77.0513589,3.54756048 C77.2016008,3.69997984 77.3888589,3.77618952 77.6098669,3.77618952 M76.919625,3.66840726 C76.8281734,3.57913306 76.758496,3.47461694 76.709504,3.35703629 C76.6605121,3.23836694 76.6354718,3.11425403 76.6354718,2.98252016 C76.6354718,2.85078629 76.6605121,2.72667339 76.709504,2.60800403 C76.758496,2.49042339 76.8281734,2.38590726 76.919625,2.29663306 C77.0099879,2.20735887 77.1155927,2.13877016 77.2342621,2.09086694 C77.3540202,2.04296371 77.4792218,2.02010081 77.6098669,2.02010081 C77.7416008,2.02010081 77.8668024,2.04405242 77.9854718,2.09195565 C78.1030524,2.13985887 78.2086573,2.20844758 78.2990202,2.29663306 C78.3904718,2.38699597 78.4590605,2.4915121 78.5080524,2.60909274 C78.5570444,2.7277621 78.5831734,2.851875 78.5831734,2.98252016 C78.5831734,3.11316532 78.5570444,3.23836694 78.5080524,3.35594758 C78.4590605,3.47352823 78.3904718,3.57804435 78.2990202,3.66840726 C78.2086573,3.75659274 78.1030524,3.82627016 77.9854718,3.87308468 C77.8668024,3.9209879 77.7416008,3.94602823 77.6098669,3.94602823 C77.4792218,3.94602823 77.3540202,3.92207661 77.2342621,3.87417339 C77.1155927,3.82627016 77.0099879,3.75768145 76.919625,3.66840726" id="Fill-16" fill="#121212"></path>
                        </g>
                        <g id="guides" transform="translate(80.564516, 0.271633)">
                            <g id="Group-21">
                                <mask id="mask-4" fill="white">
                                    <use xlink:href="#path-3"></use>
                                </mask>
                                <g id="Clip-20"></g>
                                <path d="M0.601947581,0.817076613 L0.601947581,18.4400202 L0.601947581,0.817076613 Z" id="Fill-19" fill="#3374BA" mask="url(#mask-4)"></path>
                            </g>
                            <mask id="mask-6" fill="white">
                                <use xlink:href="#path-5"></use>
                            </mask>
                            <g id="Clip-23"></g>
                            <polygon id="Fill-22" fill="#3374BA" mask="url(#mask-6)" points="0.602056452 18.4394758 0.684798387 18.4394758 0.684798387 0.816532258 0.602056452 0.816532258"></polygon>
                            <polygon id="Fill-24" fill="#3374BA" mask="url(#mask-6)" points="0.684798387 18.4394758 1.23895161 18.4394758 1.23895161 0.816532258 0.684798387 0.816532258"></polygon>
                            <polygon id="Fill-25" fill="#3474BA" mask="url(#mask-6)" points="1.23895161 18.4394758 1.79419355 18.4394758 1.79419355 0.816532258 1.23895161 0.816532258"></polygon>
                            <polygon id="Fill-26" fill="#3573B9" mask="url(#mask-6)" points="1.79310484 18.4394758 2.34725806 18.4394758 2.34725806 0.816532258 1.79310484 0.816532258"></polygon>
                            <polygon id="Fill-27" fill="#3673B9" mask="url(#mask-6)" points="2.34725806 18.4394758 2.90141129 18.4394758 2.90141129 0.816532258 2.34725806 0.816532258"></polygon>
                            <polygon id="Fill-28" fill="#3772B9" mask="url(#mask-6)" points="2.90141129 18.4394758 3.45556452 18.4394758 3.45556452 0.816532258 2.90141129 0.816532258"></polygon>
                            <polygon id="Fill-29" fill="#3872B9" mask="url(#mask-6)" points="3.45556452 18.4394758 4.01080645 18.4394758 4.01080645 0.816532258 3.45556452 0.816532258"></polygon>
                            <polygon id="Fill-30" fill="#3971B8" mask="url(#mask-6)" points="4.01080645 18.4394758 4.56495968 18.4394758 4.56495968 0.816532258 4.01080645 0.816532258"></polygon>
                            <polygon id="Fill-31" fill="#3A71B8" mask="url(#mask-6)" points="4.56387097 18.4394758 5.11802419 18.4394758 5.11802419 0.816532258 4.56387097 0.816532258"></polygon>
                            <polygon id="Fill-32" fill="#3B71B8" mask="url(#mask-6)" points="5.11802419 18.4394758 5.67326613 18.4394758 5.67326613 0.816532258 5.11802419 0.816532258"></polygon>
                            <polygon id="Fill-33" fill="#3C70B7" mask="url(#mask-6)" points="5.67326613 18.4394758 6.22741935 18.4394758 6.22741935 0.816532258 5.67326613 0.816532258"></polygon>
                            <polygon id="Fill-34" fill="#3D70B7" mask="url(#mask-6)" points="6.22741935 18.4394758 6.78157258 18.4394758 6.78157258 0.816532258 6.22741935 0.816532258"></polygon>
                            <polygon id="Fill-35" fill="#3E6FB7" mask="url(#mask-6)" points="6.78048387 18.4394758 7.3346371 18.4394758 7.3346371 0.816532258 6.78048387 0.816532258"></polygon>
                            <polygon id="Fill-36" fill="#3F6FB6" mask="url(#mask-6)" points="7.3346371 18.4394758 7.88987903 18.4394758 7.88987903 0.816532258 7.3346371 0.816532258"></polygon>
                            <polygon id="Fill-37" fill="#406FB6" mask="url(#mask-6)" points="7.88987903 18.4394758 8.44403226 18.4394758 8.44403226 0.816532258 7.88987903 0.816532258"></polygon>
                            <polygon id="Fill-38" fill="#416EB6" mask="url(#mask-6)" points="8.44403226 18.4394758 8.99818548 18.4394758 8.99818548 0.816532258 8.44403226 0.816532258"></polygon>
                            <polygon id="Fill-39" fill="#426EB6" mask="url(#mask-6)" points="8.99818548 18.4394758 9.55342742 18.4394758 9.55342742 0.816532258 8.99818548 0.816532258"></polygon>
                            <polygon id="Fill-40" fill="#436DB5" mask="url(#mask-6)" points="9.55233871 18.4394758 10.1064919 18.4394758 10.1064919 0.816532258 9.55233871 0.816532258"></polygon>
                            <polygon id="Fill-41" fill="#446DB5" mask="url(#mask-6)" points="10.1064919 18.4394758 10.6606452 18.4394758 10.6606452 0.816532258 10.1064919 0.816532258"></polygon>
                            <polygon id="Fill-42" fill="#456CB5" mask="url(#mask-6)" points="10.6606452 18.4394758 11.2147984 18.4394758 11.2147984 0.816532258 10.6606452 0.816532258"></polygon>
                            <polygon id="Fill-43" fill="#466CB4" mask="url(#mask-6)" points="11.2147984 18.4394758 11.7700403 18.4394758 11.7700403 0.816532258 11.2147984 0.816532258"></polygon>
                            <polygon id="Fill-44" fill="#476CB4" mask="url(#mask-6)" points="11.7689516 18.4394758 12.3231048 18.4394758 12.3231048 0.816532258 11.7689516 0.816532258"></polygon>
                            <polygon id="Fill-45" fill="#486BB4" mask="url(#mask-6)" points="12.3231048 18.4394758 12.8772581 18.4394758 12.8772581 0.816532258 12.3231048 0.816532258"></polygon>
                            <polygon id="Fill-46" fill="#496BB4" mask="url(#mask-6)" points="12.8772581 18.4394758 13.4325 18.4394758 13.4325 0.816532258 12.8772581 0.816532258"></polygon>
                            <polygon id="Fill-47" fill="#4A6AB3" mask="url(#mask-6)" points="13.4325 18.4394758 13.9866532 18.4394758 13.9866532 0.816532258 13.4325 0.816532258"></polygon>
                            <polygon id="Fill-48" fill="#4B6AB3" mask="url(#mask-6)" points="13.9866532 18.4394758 14.5408065 18.4394758 14.5408065 0.816532258 13.9866532 0.816532258"></polygon>
                            <polygon id="Fill-49" fill="#4C69B3" mask="url(#mask-6)" points="14.5397177 18.4394758 15.0949597 18.4394758 15.0949597 0.816532258 14.5397177 0.816532258"></polygon>
                            <polygon id="Fill-50" fill="#4D69B2" mask="url(#mask-6)" points="15.0949597 18.4394758 15.6491129 18.4394758 15.6491129 0.816532258 15.0949597 0.816532258"></polygon>
                            <polygon id="Fill-51" fill="#4E69B2" mask="url(#mask-6)" points="15.6491129 18.4394758 16.2032661 18.4394758 16.2032661 0.816532258 15.6491129 0.816532258"></polygon>
                            <polygon id="Fill-52" fill="#4F68B2" mask="url(#mask-6)" points="16.2032661 18.4394758 16.7574194 18.4394758 16.7574194 0.816532258 16.2032661 0.816532258"></polygon>
                            <polygon id="Fill-53" fill="#5068B1" mask="url(#mask-6)" points="16.7563306 18.4394758 17.3115726 18.4394758 17.3115726 0.816532258 16.7563306 0.816532258"></polygon>
                            <polygon id="Fill-54" fill="#5167B1" mask="url(#mask-6)" points="17.3115726 18.4394758 17.8657258 18.4394758 17.8657258 0.816532258 17.3115726 0.816532258"></polygon>
                            <polygon id="Fill-55" fill="#5267B1" mask="url(#mask-6)" points="17.8657258 18.4394758 18.419879 18.4394758 18.419879 0.816532258 17.8657258 0.816532258"></polygon>
                            <polygon id="Fill-56" fill="#5367B1" mask="url(#mask-6)" points="18.419879 18.4394758 18.975121 18.4394758 18.975121 0.816532258 18.419879 0.816532258"></polygon>
                            <polygon id="Fill-57" fill="#5466B0" mask="url(#mask-6)" points="18.975121 18.4394758 19.5292742 18.4394758 19.5292742 0.816532258 18.975121 0.816532258"></polygon>
                            <polygon id="Fill-58" fill="#5566B0" mask="url(#mask-6)" points="19.5281855 18.4394758 20.0823387 18.4394758 20.0823387 0.816532258 19.5281855 0.816532258"></polygon>
                            <polygon id="Fill-59" fill="#5665B0" mask="url(#mask-6)" points="20.0823387 18.4394758 20.6364919 18.4394758 20.6364919 0.816532258 20.0823387 0.816532258"></polygon>
                            <polygon id="Fill-60" fill="#5765AF" mask="url(#mask-6)" points="20.6364919 18.4394758 21.1917339 18.4394758 21.1917339 0.816532258 20.6364919 0.816532258"></polygon>
                            <polygon id="Fill-61" fill="#5864AF" mask="url(#mask-6)" points="21.1917339 18.4394758 21.7458871 18.4394758 21.7458871 0.816532258 21.1917339 0.816532258"></polygon>
                            <polygon id="Fill-62" fill="#5964AF" mask="url(#mask-6)" points="21.7458871 18.4394758 22.3000403 18.4394758 22.3000403 0.816532258 21.7458871 0.816532258"></polygon>
                            <polygon id="Fill-63" fill="#5A64AF" mask="url(#mask-6)" points="22.2989516 18.4394758 22.8541935 18.4394758 22.8541935 0.816532258 22.2989516 0.816532258"></polygon>
                            <polygon id="Fill-64" fill="#5B63AE" mask="url(#mask-6)" points="22.8541935 18.4394758 23.4083468 18.4394758 23.4083468 0.816532258 22.8541935 0.816532258"></polygon>
                            <polygon id="Fill-65" fill="#5C63AE" mask="url(#mask-6)" points="23.4083468 18.4394758 23.9625 18.4394758 23.9625 0.816532258 23.4083468 0.816532258"></polygon>
                            <polygon id="Fill-66" fill="#5D62AE" mask="url(#mask-6)" points="23.9625 18.4394758 24.5177419 18.4394758 24.5177419 0.816532258 23.9625 0.816532258"></polygon>
                            <polygon id="Fill-67" fill="#5E62AD" mask="url(#mask-6)" points="24.5166532 18.4394758 25.0708065 18.4394758 25.0708065 0.816532258 24.5166532 0.816532258"></polygon>
                            <polygon id="Fill-68" fill="#5F61AD" mask="url(#mask-6)" points="25.0708065 18.4394758 25.6249597 18.4394758 25.6249597 0.816532258 25.0708065 0.816532258"></polygon>
                            <polygon id="Fill-69" fill="#6061AD" mask="url(#mask-6)" points="25.6249597 18.4394758 26.1791129 18.4394758 26.1791129 0.816532258 25.6249597 0.816532258"></polygon>
                            <polygon id="Fill-70" fill="#6161AC" mask="url(#mask-6)" points="26.1791129 18.4394758 26.7343548 18.4394758 26.7343548 0.816532258 26.1791129 0.816532258"></polygon>
                            <polygon id="Fill-71" fill="#6260AC" mask="url(#mask-6)" points="26.7343548 18.4394758 27.2885081 18.4394758 27.2885081 0.816532258 26.7343548 0.816532258"></polygon>
                            <polygon id="Fill-72" fill="#6460AC" mask="url(#mask-6)" points="27.2874194 18.4394758 27.8415726 18.4394758 27.8415726 0.816532258 27.2874194 0.816532258"></polygon>
                            <polygon id="Fill-73" fill="#655FAC" mask="url(#mask-6)" points="27.8415726 18.4394758 28.3968145 18.4394758 28.3968145 0.816532258 27.8415726 0.816532258"></polygon>
                            <polygon id="Fill-74" fill="#665FAB" mask="url(#mask-6)" points="28.3968145 18.4394758 28.9509677 18.4394758 28.9509677 0.816532258 28.3968145 0.816532258"></polygon>
                            <polygon id="Fill-75" fill="#675FAB" mask="url(#mask-6)" points="28.9509677 18.4394758 29.505121 18.4394758 29.505121 0.816532258 28.9509677 0.816532258"></polygon>
                            <polygon id="Fill-76" fill="#685EAB" mask="url(#mask-6)" points="29.5040323 18.4394758 30.0581855 18.4394758 30.0581855 0.816532258 29.5040323 0.816532258"></polygon>
                            <polygon id="Fill-77" fill="#695EAA" mask="url(#mask-6)" points="30.0581855 18.4394758 30.6134274 18.4394758 30.6134274 0.816532258 30.0581855 0.816532258"></polygon>
                            <polygon id="Fill-78" fill="#6A5DAA" mask="url(#mask-6)" points="30.6134274 18.4394758 31.1675806 18.4394758 31.1675806 0.816532258 30.6134274 0.816532258"></polygon>
                            <polygon id="Fill-79" fill="#6B5DAA" mask="url(#mask-6)" points="31.1675806 18.4394758 31.7217339 18.4394758 31.7217339 0.816532258 31.1675806 0.816532258"></polygon>
                            <polygon id="Fill-80" fill="#6C5CA9" mask="url(#mask-6)" points="31.7217339 18.4394758 32.2769758 18.4394758 32.2769758 0.816532258 31.7217339 0.816532258"></polygon>
                            <polygon id="Fill-81" fill="#6D5CA9" mask="url(#mask-6)" points="32.2758871 18.4394758 32.8300403 18.4394758 32.8300403 0.816532258 32.2758871 0.816532258"></polygon>
                            <polygon id="Fill-82" fill="#6E5CA9" mask="url(#mask-6)" points="32.8300403 18.4394758 33.3841935 18.4394758 33.3841935 0.816532258 32.8300403 0.816532258"></polygon>
                            <polygon id="Fill-83" fill="#6F5BA9" mask="url(#mask-6)" points="33.3841935 18.4394758 33.9383468 18.4394758 33.9383468 0.816532258 33.3841935 0.816532258"></polygon>
                            <polygon id="Fill-84" fill="#705BA8" mask="url(#mask-6)" points="33.9383468 18.4394758 34.4935887 18.4394758 34.4935887 0.816532258 33.9383468 0.816532258"></polygon>
                            <polygon id="Fill-85" fill="#715AA8" mask="url(#mask-6)" points="34.4935887 18.4394758 35.0477419 18.4394758 35.0477419 0.816532258 34.4935887 0.816532258"></polygon>
                            <polygon id="Fill-86" fill="#725AA8" mask="url(#mask-6)" points="35.0466532 18.4394758 35.6008065 18.4394758 35.6008065 0.816532258 35.0466532 0.816532258"></polygon>
                            <polygon id="Fill-87" fill="#7359A7" mask="url(#mask-6)" points="35.6008065 18.4394758 36.1560484 18.4394758 36.1560484 0.816532258 35.6008065 0.816532258"></polygon>
                            <polygon id="Fill-88" fill="#7459A7" mask="url(#mask-6)" points="36.1560484 18.4394758 36.7102016 18.4394758 36.7102016 0.816532258 36.1560484 0.816532258"></polygon>
                            <polygon id="Fill-89" fill="#7559A7" mask="url(#mask-6)" points="36.7102016 18.4394758 37.2643548 18.4394758 37.2643548 0.816532258 36.7102016 0.816532258"></polygon>
                            <polygon id="Fill-90" fill="#7658A7" mask="url(#mask-6)" points="37.2632661 18.4394758 37.8185081 18.4394758 37.8185081 0.816532258 37.2632661 0.816532258"></polygon>
                            <polygon id="Fill-91" fill="#7758A6" mask="url(#mask-6)" points="37.8185081 18.4394758 38.3726613 18.4394758 38.3726613 0.816532258 37.8185081 0.816532258"></polygon>
                            <polygon id="Fill-92" fill="#7857A6" mask="url(#mask-6)" points="38.3726613 18.4394758 38.9268145 18.4394758 38.9268145 0.816532258 38.3726613 0.816532258"></polygon>
                            <polygon id="Fill-93" fill="#7957A6" mask="url(#mask-6)" points="38.9268145 18.4394758 39.4809677 18.4394758 39.4809677 0.816532258 38.9268145 0.816532258"></polygon>
                            <polygon id="Fill-94" fill="#7A57A5" mask="url(#mask-6)" points="39.4809677 18.4394758 40.0362097 18.4394758 40.0362097 0.816532258 39.4809677 0.816532258"></polygon>
                            <polygon id="Fill-95" fill="#7B56A5" mask="url(#mask-6)" points="40.035121 18.4394758 40.5892742 18.4394758 40.5892742 0.816532258 40.035121 0.816532258"></polygon>
                            <polygon id="Fill-96" fill="#7C56A5" mask="url(#mask-6)" points="40.5892742 18.4394758 41.1434274 18.4394758 41.1434274 0.816532258 40.5892742 0.816532258"></polygon>
                            <polygon id="Fill-97" fill="#7D55A4" mask="url(#mask-6)" points="41.1434274 18.4394758 41.6986694 18.4394758 41.6986694 0.816532258 41.1434274 0.816532258"></polygon>
                            <polygon id="Fill-98" fill="#7E55A4" mask="url(#mask-6)" points="41.6986694 18.4394758 42.2528226 18.4394758 42.2528226 0.816532258 41.6986694 0.816532258"></polygon>
                            <polygon id="Fill-99" fill="#7F54A4" mask="url(#mask-6)" points="42.2517339 18.4394758 42.8058871 18.4394758 42.8058871 0.816532258 42.2517339 0.816532258"></polygon>
                            <polygon id="Fill-100" fill="#8054A4" mask="url(#mask-6)" points="42.8058871 18.4394758 43.3600403 18.4394758 43.3600403 0.816532258 42.8058871 0.816532258"></polygon>
                            <polygon id="Fill-101" fill="#8154A3" mask="url(#mask-6)" points="43.3600403 18.4394758 43.9152823 18.4394758 43.9152823 0.816532258 43.3600403 0.816532258"></polygon>
                            <polygon id="Fill-102" fill="#8253A3" mask="url(#mask-6)" points="43.9152823 18.4394758 44.4694355 18.4394758 44.4694355 0.816532258 43.9152823 0.816532258"></polygon>
                            <polygon id="Fill-103" fill="#8353A3" mask="url(#mask-6)" points="44.4694355 18.4394758 45.0235887 18.4394758 45.0235887 0.816532258 44.4694355 0.816532258"></polygon>
                            <polygon id="Fill-104" fill="#8452A2" mask="url(#mask-6)" points="45.0225 18.4394758 45.5777419 18.4394758 45.5777419 0.816532258 45.0225 0.816532258"></polygon>
                            <polygon id="Fill-105" fill="#8552A2" mask="url(#mask-6)" points="45.5777419 18.4394758 46.1318952 18.4394758 46.1318952 0.816532258 45.5777419 0.816532258"></polygon>
                            <polygon id="Fill-106" fill="#8651A2" mask="url(#mask-6)" points="46.1318952 18.4394758 46.6860484 18.4394758 46.6860484 0.816532258 46.1318952 0.816532258"></polygon>
                            <polygon id="Fill-107" fill="#8751A2" mask="url(#mask-6)" points="46.6860484 18.4394758 47.2402016 18.4394758 47.2402016 0.816532258 46.6860484 0.816532258"></polygon>
                            <polygon id="Fill-108" fill="#8851A1" mask="url(#mask-6)" points="47.2402016 18.4394758 47.7954435 18.4394758 47.7954435 0.816532258 47.2402016 0.816532258"></polygon>
                            <polygon id="Fill-109" fill="#8950A1" mask="url(#mask-6)" points="47.7943548 18.4394758 48.3485081 18.4394758 48.3485081 0.816532258 47.7943548 0.816532258"></polygon>
                            <polygon id="Fill-110" fill="#8A50A1" mask="url(#mask-6)" points="48.3485081 18.4394758 48.9026613 18.4394758 48.9026613 0.816532258 48.3485081 0.816532258"></polygon>
                            <polygon id="Fill-111" fill="#8B4FA0" mask="url(#mask-6)" points="48.9026613 18.4394758 49.4579032 18.4394758 49.4579032 0.816532258 48.9026613 0.816532258"></polygon>
                            <polygon id="Fill-112" fill="#8C4FA0" mask="url(#mask-6)" points="49.4579032 18.4394758 50.0120565 18.4394758 50.0120565 0.816532258 49.4579032 0.816532258"></polygon>
                            <polygon id="Fill-113" fill="#8D4FA0" mask="url(#mask-6)" points="50.0109677 18.4394758 50.565121 18.4394758 50.565121 0.816532258 50.0109677 0.816532258"></polygon>
                            <polygon id="Fill-114" fill="#8E4E9F" mask="url(#mask-6)" points="50.565121 18.4394758 51.1203629 18.4394758 51.1203629 0.816532258 50.565121 0.816532258"></polygon>
                            <polygon id="Fill-115" fill="#8F4E9F" mask="url(#mask-6)" points="51.1203629 18.4394758 51.6745161 18.4394758 51.6745161 0.816532258 51.1203629 0.816532258"></polygon>
                            <polygon id="Fill-116" fill="#904D9F" mask="url(#mask-6)" points="51.6745161 18.4394758 52.2286694 18.4394758 52.2286694 0.816532258 51.6745161 0.816532258"></polygon>
                            <polygon id="Fill-117" fill="#914D9F" mask="url(#mask-6)" points="52.2286694 18.4394758 52.7828226 18.4394758 52.7828226 0.816532258 52.2286694 0.816532258"></polygon>
                            <polygon id="Fill-118" fill="#924C9E" mask="url(#mask-6)" points="52.7817339 18.4394758 53.3369758 18.4394758 53.3369758 0.816532258 52.7817339 0.816532258"></polygon>
                            <polygon id="Fill-119" fill="#934C9E" mask="url(#mask-6)" points="53.3369758 18.4394758 53.891129 18.4394758 53.891129 0.816532258 53.3369758 0.816532258"></polygon>
                            <path d="M53.8912379,18.4400202 L53.8912379,0.817076613 L53.8912379,18.4400202 Z" id="Fill-120" fill="#934C9E" mask="url(#mask-6)"></path>
                        </g>
                    </g>
                </g>
            </g>
        </g>
    </g>
</svg>