<svg width="24" height="24" viewBox="0 0 24 24" fill="none" xmlns="http://www.w3.org/2000/svg">
<path d="M24 12C24 14.5342 23.1977 17.0033 21.7082 19.0534C20.2187 21.1036 18.1183 22.6296 15.7082 23.4127C13.2981 24.1958 10.7019 24.1958 8.2918 23.4127C5.88167 22.6296 3.78133 21.1036 2.2918 19.0534C0.802259 17.0033 -2.21542e-07 14.5342 0 12C2.21543e-07 9.46585 0.80226 6.99675 2.2918 4.94658C3.78133 2.8964 5.88168 1.37042 8.2918 0.587321C10.7019 -0.195774 13.2981 -0.195774 15.7082 0.587322L14.7812 3.44049C12.9736 2.85317 11.0264 2.85317 9.21885 3.44049C7.41126 4.02781 5.836 5.1723 4.71885 6.70993C3.6017 8.24756 3 10.0994 3 12C3 13.9006 3.60169 15.7524 4.71885 17.2901C5.836 18.8277 7.41126 19.9722 9.21885 20.5595C11.0264 21.1468 12.9736 21.1468 14.7812 20.5595C16.5887 19.9722 18.164 18.8277 19.2812 17.2901C20.3983 15.7524 21 13.9006 21 12H24Z" fill="white"/>
</svg>
