<?xml version="1.0" encoding="UTF-8"?>
<!-- Created with Inkscape (http://www.inkscape.org/) -->
<svg version="1.1" viewBox="0 0 100 100" xmlns="http://www.w3.org/2000/svg" xmlns:cc="http://creativecommons.org/ns#" xmlns:dc="http://purl.org/dc/elements/1.1/" xmlns:rdf="http://www.w3.org/1999/02/22-rdf-syntax-ns#">
 <title>NEON Data Theme - Biogeochemistry</title>
 <metadata>
  <rdf:RDF>
   <cc:Work rdf:about="">
    <dc:format>image/svg+xml</dc:format>
    <dc:type rdf:resource="http://purl.org/dc/dcmitype/StillImage"/>
    <dc:title>NEON Data Theme - Biogeochemistry</dc:title>
   </cc:Work>
  </rdf:RDF>
 </metadata>
 <g>
  <rect x="1.4215e-8" y="1.6477e-5" width="100" height="100" fill="#00af6e" stroke-width="1.3401"/>
  <rect x="-1.7799e-7" y="-7.1054e-15" width="100" height="70.571" fill="#009162"/>
  <g fill="#00ca7d">
   <path d="m30.438 2.7883a15.571 15.571 0 0 0-15.571 15.571 15.571 15.571 0 0 0 15.571 15.571 15.571 15.571 0 0 0 15.571-15.571 15.571 15.571 0 0 0-15.571-15.571zm0 0.37251a15.199 15.199 0 0 1 15.199 15.199 15.199 15.199 0 0 1-15.199 15.199 15.199 15.199 0 0 1-15.199-15.199 15.199 15.199 0 0 1 15.199-15.199z" stroke-width=".21584"/>
   <ellipse cx="30.438" cy="18.36" rx="10.952" ry="10.952" stroke-width=".15181"/>
   <path d="m30.363 5.1724a13.262 13.262 0 0 0-13.262 13.262 13.262 13.262 0 0 0 13.262 13.262 13.262 13.262 0 0 0 13.262-13.262 13.262 13.262 0 0 0-13.262-13.262zm0 0.89405a12.368 12.368 0 0 1 12.368 12.368 12.368 12.368 0 0 1-12.368 12.368 12.368 12.368 0 0 1-12.368-12.368 12.368 12.368 0 0 1 12.368-12.368z" stroke-width=".18383"/>
  </g>
  <path d="m100 86v-17.122s-5.3463-1.2595-8.1014-2.484c-2.7551-1.2245-6.4636-0.19021-9.3476-0.6282-4.76-1.6647-8.9796-4.898-14.286-4.6429-5.3061 0.25511-17.063-0.59909-23.077 4.1785-6.058 4.8128-24.984 20.699-24.984 20.699z" fill="#00483a"/>
  <path d="m85.105 55.932c-1.8755 2.8387-4.9929 6.2054-8.1066 8.1825 1.5531-0.08118 2.8481-0.02734 3.9593 0.1183-5.2859 11.497-16.903 19.482-30.387 19.482-5.6957 0-11.058-1.4265-15.751-3.9386-0.29547-0.15644-0.57802-0.28153-0.89955-0.2818-0.87312-1.2e-5 -1.5809 0.70779-1.5809 1.5809 2.59e-4 0.63856 0.42036 1.1741 0.97433 1.4593 5.1409 2.7569 11.016 4.3231 17.257 4.3231 14.956 4e-6 27.807-8.9816 33.474-21.842 1.5906 0.64488 2.6678 1.5217 3.7868 2.3058-1.0102-2.4244-2.6246-8.2222-2.7271-11.39z" fill="#fff"/>
  <path d="m28.981 20.748c-3.9906 2.9232-7.4554 6.6992-10.088 11.258-7.5144 13.015-6.1554 28.712 2.1886 40.105-1.3604 1.0602-2.6645 1.5574-3.909 2.1373 2.6174 0.33902 8.4739 1.8472 11.282 3.3493-1.5281-3.0585-2.8914-7.4632-3.0474-11.166-0.70968 1.3924-1.4076 2.4923-2.0926 3.3862-7.3499-10.377-8.4611-24.499-1.6864-36.233 2.3999-4.1567 5.5566-7.6019 9.1925-10.271z" fill="#fffff7"/>
  <path d="m42.373 10.143c-1.3676 2.2422-5.1095 6.956-7.6116 8.9007 3.399-0.15122 7.9548 0.3919 11.384 1.7489-0.97855-1.2087-1.6957-2.2878-2.231-3.2723 12.409-2.4816 25.696 2.2238 33.622 13.132 3.1386 4.3199 5.0905 9.1393 5.9208 14.07 0.04935 0.29308 0.09361 0.58679 0.13504 0.88058 0.20459 1.4662 0.31323 2.9366 0.32199 4.4018 0.0035 0.33431 0.02811 0.64197 0.18136 0.92467 0.4166 0.76732 1.3761 1.0517 2.1434 0.63504 0.56106-0.30492 0.83123-0.92954 0.81752-1.5525-0.0081-1.5574-0.11918-3.1203-0.32924-4.6791-0.0012-0.0085-8.58e-4 -0.01717-0.0023-0.02566-0.0052-0.03761-0.01203-0.07511-0.01729-0.11272-0.04486-0.32353-0.09359-0.6468-0.14732-0.96987-0.64925-3.9038-1.9441-7.768-3.9386-11.441-0.77459-1.4266-1.635-2.7763-2.5631-4.0558l-0.01897 0.02566c-8.7953-12.062-23.592-17.161-37.307-14.191-0.41322-1.6659-0.33654-3.0529-0.35993-4.4191z" fill="#fff"/>
  <path d="m22.323 14.387c-2.3373 0-4.3681 1.3092-5.401 3.2339a4.5972 4.5972 0 0 0-2.066-0.49608 4.5972 4.5972 0 0 0-4.5972 4.597 4.5972 4.5972 0 0 0 1.1504 3.0335c-0.03005 0.01026-0.06498 0.02028-0.0901 0.03074-1.3346 0.55608-0.97303 1.6962-0.97303 1.6962h30.723s0.05558-0.91764-0.36147-1.2513c-0.39144-0.31315-1.0047-0.99347-7.2163-1.1678a3.4294 3.4294 0 0 0 0.25826-1.3014 3.4294 3.4294 0 0 0-3.4296-3.4296 3.4294 3.4294 0 0 0-1.9005 0.5778c-0.30324-3.1001-2.9168-5.5229-6.0967-5.5229z" fill="#00483a"/>
  <path d="m61.052 9.9578c0 0.14554 0.02742 0.44949-0.09061 0.54996-0.16065 0.13769-0.60405-0.24996-0.7037-0.37118h-0.0722l-0.03611 0.03585c-7e-3 0.26463-0.23033 0.48917-0.39713 0.67942 0.04077 0.07041 0.10724 0.1681 0.10868 0.25034 0.0022 0.14412-0.18668 0.32259-0.23217 0.46491-0.08376 0.26391 0.25744 0.41016 0.20509 0.60256-0.04804 0.17702-0.25057 0.05205-0.32928-0.02073 0.08081 0.07505-0.40146-0.4967-0.33936-0.4066-0.07042-0.10216-0.05269-0.19382-0.12021-0.24604-0.06858-0.05216-0.31919-0.03661-0.41198-0.03661 0.0354 0.06976 0.07485 0.13805 0.09355 0.21457 0.04946 0.20527 0.0051 0.89542-0.05239 1.1086-0.03762 0.14089-0.05776 0.33795-0.22349 0.38228-0.43903 0.1173-0.37115-0.21668-0.8647-0.31073 3.54e-4 0.43593 0.06211 0.27784 0.10399 0.53604 0.01841 0.1123-6e-3 0.22207 0.06323 0.32149 0.08628 0.12338 0.40221 0.236 0.36465 0.44342-0.02783 0.15198-0.2311 0.16343-0.35133 0.1652-0.64337 0.0086-0.41303-0.07149-0.75818-0.13119l-0.39675-0.02732c-0.25743-0.0676-0.02853-0.12766-0.54193-0.12766v0.07149c0.42602 0.0108 0.43794 0.30538 0.21662 0.42913 0.06028 0.39838 0.4567 0.40375 0.5744 0.46489 0.0795 0.04147 0.17186 0.14768 0.24191 0.21133 0.12781 0.11623 0.21733 0.1649 0.18917 0.36014-0.02712 0.18847-0.4011 0.31939-0.57223 0.3226-0.14767 0.0032-0.76218 0.01436-0.86327-0.02073l-0.15777-0.08844-0.20652-0.08758c-0.18016-0.10324-0.16534-0.16166-0.39713-0.1967 0.08809 0.1409 0.29531 0.27718 0.41807 0.40521l0.36359 0.47918c0.07434 0.0974 0.23718 0.38476 0.20288 0.50562-0.06858 0.24174-0.34985 0.09233-0.4791 0.03898-0.15706-0.06404-0.25418-0.0054-0.3939-0.06933l-0.76141-0.50138c0.17835 0.31542 0.38197 0.38696 0.4845 0.51212l0.11413 0.18989 0.14945 0.13373 0.25777 0.2879 0.13433 0.20384c0.10032 0.09319 0.2469 0.09762 0.41082 0.26746 0.26067 0.2707 0.20655 0.53676-0.21514 0.51352-0.20436-0.01134-0.2087-0.07354-0.36106-0.12194-0.08739-0.02754-0.15524-0.01469-0.24333-0.05961l-0.28306-0.19849c-0.11554-0.06404-0.16319-0.03779-0.26465-0.0892l-0.27189-0.1967c-0.10976-0.06069-0.17327-0.03963-0.26966-0.08952l-0.27191-0.21268c-0.11192-0.05615-0.31371-0.0086-0.56175-0.0676-6.96e-4 0.1906-0.05481 0.34335 0.07799 0.50071 0.16247 0.19239 0.33647 0.24029 0.53035 0.37296 0.17041 0.11659 0.53144 0.49456 0.63325 0.67407 0.12925 0.22743 0.01577 0.52139-0.23396 0.61295-0.06564 0.02387-0.17798 0.02192-0.24947 0.02073-0.38126-0.0065-0.15235-0.14164-0.61375-0.14306 0.09781 0.34366 0.26645 0.33472 0.37079 0.47276l0.20684 0.45704h0.72211c0.10795 0 0.2585-0.01101 0.3455 0.0622 0.14767 0.12444 0.09387 0.34334-0.09427 0.43097-0.4448 0.20705-0.46249 0.14767-0.93725 0.15053-0.34227 0.0022-0.23722 0.08434-0.46938 0.13695h-0.68593c-0.42676 0.0065-0.2993-0.06414-0.54156-0.12234l-0.43325-0.027-0.32494-0.12552h-0.50551c0.04836 0.22138 0.10258 0.19352 0.15961 0.3523 0.03721 0.10367 0.01026 0.21094 0.13465 0.26458 0.26284 0.11339 0.46396-0.15877 0.8611-0.1155l0.71592 0.17737c0.22529 0.11088 0.19783 0.24069 0.51157 0.25072h0.46937c0.05524-0.0054 0.12674-0.0054 0.17982 0 0.39316 0.11873 0.01578 0.4892-0.32426 0.49884h-0.57762l-0.51305 0.1041c7e-3 0.08682 0.01264 0.24245 0 0.32184-0.07979 0.27929-0.44446 0.6805-0.75062 0.6923-0.1473 0.0065-0.20975-0.08401-0.33106-0.11047l-0.35488-0.02073-0.28887-0.12659h-0.46931c0.08526 0.15841 0.15051 0.15482 0.14437 0.35222l0.79431 0.52536 0.90261 0.05475c0.19352 0.03358 0.29746 0.16808 0.44837 0.24463 0.10507 0.05324 0.28271 0.0365 0.31918 0.17983 0.02742 0.10942-0.09963 0.19096-0.17473 0.24818-0.04228 0.03218-0.06827 0.05378-0.11519 0.07473 3e-3 -0.0065-0.47024 0.15871-0.46006 0.16328l-0.23418 0.04708c0.11517 0.2135 0.2527 0.17737 0.46931 0.1788 0.33722 0.0032 0.40619 0.10442 0.39644 0.42911-0.0092 0.31434-0.14945 0.35618-0.43251 0.36119h-0.46937c-0.05524-0.0043-0.15994-0.0065-0.21048 0-0.05856 0.02117-0.41304 0.0032-0.569 0.01188-0.14189 0.0076-0.22206-0.08477-0.36106-0.11372l-0.43324-0.01868c-0.2271-0.03931-0.15271-0.13265-0.50544-0.13517-0.61276 0-0.80906 0.25202-0.80906 0.25202v0.07149c0.29785 0.02386 0.22852 0.12981 0.43467 0.23923 0.10218 0.05399 0.21158 0.04676 0.3235 0.05443h0.90256l0.25274 0.11587 0.2152 0.04546 0.19208 0.09913c0.12961 0.0433 0.36135-0.01674 0.48339 0.08444 0.13395 0.11156-0.04006 0.34936-0.12095 0.4495-0.23648 0.29395-0.3953 0.32541-0.73359 0.43877-0.11085 0.03726-0.16106 0.0892-0.28887 0.11052-0.46104 0.07667-0.53142-0.13269-0.90256-0.13522-0.73399-0.0054-0.25276-0.14298-1.047-0.14298 7e-3 0.09686 0.02891 0.29964 0.06928 0.38297 0.11264 0.23423 0.28236 0.22495 0.21954 0.54678l0.36068 0.0203 0.32525 0.15841c0.02853-0.16842 0.11374-0.35079 0.32351-0.33042 0.21228 0.0203 0.26934 0.39768 0.469 0.42163 0.13357 0.01652 0.19133-0.1534 0.43504-0.12159 0.18016 0.02365 0.22712 0.1645 0.39464 0.12589 0.15668-0.03628 0.29748-0.3247 0.49713-0.20169 0.1632 0.10054 0.11952 0.6065 0.11916 0.78564-3.53e-4 0.13769 0.01195 0.27429-0.08779 0.38514-0.09821 0.10978-0.20868 0.11333-0.34551 0.1155h-0.86649c-0.28991 0.0065-0.33757 0.08812-0.32494 0.35761 0.14731 0.04104 0.57044 0.28642 0.67045 0.40122 0.19749 0.22706 0.01306 0.38091-0.2372 0.38554h-1.1554c-0.37765-0.0022-0.28773-0.08509-0.50543-0.13232l-0.28882-0.02624-0.25274-0.10799-0.36106-0.05551c0.02307 0.28323 0.16464 0.30144 0.35636 0.47131 0.152 0.13444 0.32316 0.36726 0.36577 0.56572 0.17148 0.10183 0.14366 0.21278 0.14436 0.39335 0.3614-0.04352 0.23792 0.01868 0.43939 0.08769l0.20906 0.04028 0.39068 0.20921c0.2058 0.18382 0.04118 0.44699-0.17728 0.531-0.08446 0.0325-0.16608 0.01825-0.24804 0.03661-0.1343 0.0297-0.17799 0.0987-0.32493 0.12841-0.2538 0.03963-0.77591 0.0054-1.047 0-0.42712 0.0032-0.29894-0.06598-0.54156-0.13165-0.09205-0.01469-0.35992-0.0076-0.46932 0-0.05056 0.0933-0.12423 0.20314-0.25131 0.21745-0.07402 0.0032-0.43795-0.24675-0.55855 0-0.01943 0.04395-0.01688 0.08952-0.02053 0.13269 0.12131 0 0.32278-0.01469 0.42713 0.0419 0.09274 0.05075 0.14552 0.14626 0.25923 0.20848l0.17691 0.07019 0.46466 0.33795c0.22313 0.20814 0.01026 0.25997 0.44119 0.37869 0.03893-0.05831 0.06859-0.10871 0.12201-0.15701 0.16355-0.14803 0.35456-0.16519 0.40727 0.08563 0.05299 0.25247-0.10074 0.71915 0.15851 0.86397 0.0791 0.04395 0.34405 0.16448 0.42383 0.13159 0.15922-0.0662 0.08019-0.2378 0.44086-0.24459 0.0885-9.18e-4 0.27836-0.0108 0.34985 0.03661 0.18882 0.12478 0.03094 0.43307-0.05128 0.57004-0.17186 0.285-0.3603 0.3844-0.62206 0.55678-0.17655 0.11657-0.17585 0.16986-0.39861 0.19561v0.35546h0.72214c0.10577-0.0054 0.26499-0.01177 0.34984 0.05928 0.0624 0.05237 0.07505 0.11656 0.08122 0.19308 0.02236 0.26892-0.0877 0.36833-0.28416 0.52996-0.07041 0.05756-0.36032 0.24536-0.43721 0.27181-0.10724 0.03704-0.19965 0.0022-0.30832 0.05183l-0.26788 0.17554c-0.23538 0.14196-0.66795 0.35868-0.93873 0.36547l0.1751 0.21819c0.08881 0.15128 0.11377 0.3286 0.33039 0.42336 0.07838 0.03175 0.2953 0.0032 0.39712 0 0.01841-0.10799 0.03865-0.21417 0.18124-0.20308 0.1094 0.0086 0.26283 0.1054 0.36032 0.15305 0.1426 0.06965 0.17436 0.03769 0.28881 0.08682l0.40728 0.23346 0.16748 0.04373c0.05452 0.02138 0.33795 0.19272 0.36106 0.23529 0.10724 0.19774-0.20216 0.23782-0.32203 0.2396h-0.57769c0.15417 0.11227 0.226 0.04071 0.39099 0.12944 0.34046 0.18345 0.66216 0.39837 0.95858 0.64547 0.22203 0.1856 0.16176 0.34152-0.12201 0.36763h-0.21652c-0.45743 9.18e-4 -0.32351-0.10872-0.54483-0.1366-0.21554-0.0271-0.30578 0.08985-0.46609 0.09438-0.15596 0.0054-0.226-0.09201-0.50544-0.09881-0.38595-0.0097-0.30616 0.09395-0.54155 0.13485l-0.686 0.02721c-0.3206 0.09125-0.35344 0.26214-0.72206 0.26679 0.10217 0.1509 0.17005 0.08574 0.32494 0.11798 0.11336 0.02322 0.15846 0.07397 0.28881 0.09157 0.1437 0.01922 0.29208-0.01512 0.43325 0.0297l0.49497 0.19272c0.20182 0.13514 0.23324 0.25463 0.34011 0.31901l0.49464 0.21812 0.27977 0.19486c0.19605 0.11838 0.76399-0.06803 0.6824 0.40947-0.07008 0.40983-0.47369 0.1788-0.63109 0.19168-0.1538 0.01253-0.2015 0.11014-0.39718 0.05075-0.12564-0.03823-0.35668-0.16198-0.48376-0.06296-0.09103 0.07116-0.05776 0.51852-0.05776 0.64295l0.21662 0.08812 0.21662 0.03898c0.18234 0.05658 0.13575 0.11907 0.43325 0.12335 0.15994 0.0022 0.59721-0.02527 0.71814 0.0419 0.21194 0.11802 0.15416 0.34901 0.04978 0.51531-0.28738 0.45524-0.55277 0.47457-0.69249 0.57218-0.08233 0.05767-0.13397 0.14444-0.22313 0.19308l-0.24946 0.08833-0.43467 0.21884-0.3957 0.03542c-0.22096 0.06695-0.49285 0.2457-0.72212 0.2625-0.32168 0.02365-0.41048-0.15019-0.61374-0.1856l-0.61376 0.05702-0.28886 0.11693-0.28881 0.03553-0.21662 0.0974c-0.20183 0.06944-0.3134-0.01253-0.36106 0.27607 0.27944-0.04967 0.71054-0.11619 0.83979 0.21457 0.03358 0.08563 0.02669 0.22816 0.02669 0.32186 0.31736 0.01857 0.26467 0.13268 0.46974 0.16592 0.18955 0.03067 0.20183-0.08769 0.32928-0.13979 0.04552-0.01857 0.26282-0.04622 0.32022-0.05043 0.16282-0.01209 0.44192 0.01706 0.556 0.1398 0.165 0.17701 0.1939 0.4692 0.45493 0.47705 0.26788 0.0086 0.2863-0.17235 0.64987-0.19168l0.43324 0.04287c0.08082 0.01857 0.17326 0.07537 0.25269 0.06144 0.15705-0.02721 0.18848-0.2017 0.46936-0.21635h0.14443c0.44301 0.04967 0.09597 0.37698-0.05704 0.51536-0.2177 0.19702-0.40795 0.43877-0.70112 0.5339-0.09205 0.03013-0.29246 0.0203-0.39716 0.02073-0.07181 0-0.20973-0.0086-0.26713 0.03661-0.10104 0.07937-0.04187 0.41194-0.04876 0.53568-0.02093 0.37478-0.38595 0.57041-0.73111 0.58042-0.13936-0.0076-0.33795-0.01609-0.46937 0-0.24948 0.05507-0.23611 0.13054-0.54155 0.14092h-0.39713c-0.25814 0.05356-0.17691 0.13619-0.64987 0.13691-0.27078 3.67e-4 -0.41158-0.04147-0.656 0.08509-0.29281 0.15199-0.51484-0.08877-0.64374 0.2725l0.0361 0.03574c0.28234-0.05 0.42781-0.06036 0.63829 0.16448 0.06858 0.07311 0.11051 0.18308 0.19679 0.23279 0.09597 0.03866 0.20182-0.01674 0.32023 0 0.10254 0.02862 0.16032 0.08876 0.25275 0.11838l0.25269 0.03164c0.14658 0.03402 0.37116 0.21996 0.4755 0.25499 0.09316 0.03132 0.41807 0.01965 0.53542 0.01998 0.19278 3.24e-4 0.39208 0.0108 0.47872 0.21779 0.06282 0.15021 0.02418 0.46667 0.21626 0.55251 0.1798 0.08056 0.27876-0.32582 0.56398-0.18885 0.13106 0.06296 0.38269 0.53747 0.3242 0.66013-0.03103 0.06468-0.11013 0.09157-0.17511 0.10518l-0.61375 0.10475c-0.1408 0-0.20258-0.09179-0.6138-0.09255h-1.047c-0.07071 0-0.17658-0.0054-0.24265 0.01857-0.04593 0.01577-0.08435 0.0433-0.12306 0.07192-0.06211 0.04579-0.14589 0.10979-0.14914 0.19381-3e-3 0.07905 0.0809 0.16198 0.13036 0.21776 0.17041 0.19239 0.491 0.31758 0.6625 0.4792 0.05167 0.0487 0.1556 0.1999 0.14983 0.27214-0.01026 0.11766-0.14842 0.16234-0.24735 0.17308-0.10794 0.01209-0.21915-0.0086-0.32493 0.02397-0.34263 0.10367-0.42023 0.26533-0.83037 0.26605-0.1899 3.56e-4 -0.3939-0.01393-0.57768 0.03272l-0.25269 0.06695-0.46613 0.0446c-0.15345 0.0325-0.16424 0.09244-0.29242 0.13411-0.08881 0.01544-0.3614 0.0065-0.46899 0-0.41014 0.0108-0.52459 0.24711-0.54157 0.61545l0.28882-0.04589c0.0895-0.0022 0.13646 0.03391 0.21661 0.05734 0.21302 0.06263 0.33003-3.56e-4 0.39718 0.31035h1.1553c0.17799 3.45e-4 0.36428-0.0097 0.48522 0.14768 0.09455 0.12303 0.0617 0.28144 0.05635 0.41698 0.11662 0.0076 0.44804 0.01577 0.54156 0 0.22818-0.06512 0.10938-0.1348 0.50544-0.13551l0.46936 0.03164c0.10005-0.01469 0.1614-0.08984 0.25274-0.11728 0.14622-0.04395 0.28086 0.05237 0.24656 0.20309-0.02782 0.12088-0.24946 0.42984-0.35957 0.49026l-0.64518 0.18064h-0.35491c-0.10397 0.03164-0.14583 0.09611-0.25921 0.13371-0.08526 0.01469-0.33184 0.0076-0.43292 0-0.47151 0.0086-0.44549 0.1352-0.79426 0.14915-0.42133 0.01685-0.32495-0.13949-0.7943-0.14164-0.42891-0.0022-0.20976-0.0022-0.54155-0.123l-0.1805-0.05443-0.18056-0.08801c-0.1195-0.03855-0.24621-0.0032-0.35957-0.04147-0.10723-0.03661-0.12561-0.09665-0.2574-0.11766-0.1408-0.02289-0.41594-0.02646-0.42352 0.17418-3e-3 0.08412 0.08445 0.14803 0.1018 0.28607 0.22095 0.08769 0.29534 0.10658 0.32494 0.35762 0.2733-0.06458 0.43145 0.07581 0.66505 0.20131l0.23143 0.10183c0.2372 0.13873 0.56247 0.52814 0.73649 0.7495 0.1112 0.1416 0.0787 0.15056 0.11371 0.30611 0.03974 0.17561 0.12819 0.33115-0.05957 0.47418-0.25742 0.19597-0.45634-0.13049-0.67621-0.20307-0.10326-0.03391-0.5152-0.02073-0.64987-0.02073v0.07149c0.24082 0.0065 0.35234 0.07257 0.46932 0.28606 0.41159 0.0473 0.195 0.27827 0.6138 0.28612 0.12095 0.0022 0.36209-0.01782 0.46102 0.0419 0.17185 0.10399 0.11661 0.56072 0.11661 0.74487 0.16427-0.08196 0.30435-0.22455 0.54155-0.32289 0.14586-0.06069 0.18414-0.0032 0.36106-0.0865 0.13503-0.06382 0.38343-0.15269 0.4589 0.05658 0.04046 0.11301-0.10329 0.29108-0.1531 0.3887-0.0624 0.1216-0.05269 0.19096-0.05299 0.32184l0.64987-0.25067c0.17908-0.05443 0.2704-0.0108 0.39099-0.09179 0.14406-0.09773 0.19349-0.25212 0.25307-0.32397 0.06787-0.08185 0.24733-0.19487 0.34445-0.09816 0.09346 0.09244-0.01882 0.25282-0.07546 0.33541l-0.66034 0.71519c0.73797 0 0.44412-0.29535 1.1554-0.28607 0.31556 0.0054 0.44554 0.15022 0.40654 0.46492-6e-3 0.05075-0.01586 0.12835-0.0357 0.17413-0.02992 0.069-0.27839 0.30185-0.34519 0.35441l-0.68503 0.26182-0.28558 0.03531-0.22314 0.10367-0.2134 0.04417-0.21662 0.09773s-0.20636 0.04395-0.31483 0.04395c0 0-0.42084 0.14761-0.58251 0.30927-0.01962 0.07321 0.14873 0.25604 0.14873 0.25604 0.27403-0.0086 0.18486-0.05356 0.36248-0.1173l0.27728-0.04546 0.15777-0.08941 0.17727-0.06468c0.10652-0.04071 0.28886-0.12735 0.34662 0.03628 0.05128 0.14483-0.13069 0.24281-0.16607 0.4595l0.36101-0.03585c0.05988-0.11943 0.12458-0.19778 0.25274-0.25286 0.13178-0.05648 0.65564-0.02073 0.79103 0.02235 0.04945 0.01555 0.17476 0.08671 0.21519 0.11979 0.08052 0.06544 0.1036 0.12873 0.14909 0.21812l0.46938-0.22456 0.1704-0.04363c0.0791-0.02926 0.14152-0.09287 0.22709-0.10615 0.10848-0.01641 0.21006 0.06522 0.27459 0.16214-6e-3 0.07527 0.01364 0.12403 0.06413 0.14075l0.83635 0.29956c0.36839 0.16034 0.72796 0.1722 1.1952 0.48022 0.3325 0.21958 0.42262 0.47704 0.72084 0.5418 0.45132 0.09805 0.46172-0.2685 0.73681-0.43435 0.19137-0.11533 0.40823-0.06803 0.61634-0.13824 0.35245-0.12006 0.51989-0.4399 1.1163-0.31828 0.18898 0.0378 0.92895 0.26379 0.97999 0.43834 0.09568 0.2322-0.54302 0.77084 0 0.94301h0.53505c0.93693-0.01587 0.98082-0.72188 1.3851-0.95883 0.22646-0.1319 0.38589 0.07818 0.60836 0.10172 0.29263 0.03142 0.33733-0.1903 1.1164-0.15871 0.68734 0.02764 0.51669 0.41148 0.96084 0.45731 0.48481 0.05054 0.74872-0.40838 1.1091-0.31836 0.11802 0.03013 0.19376 0.09816 0.2711 0.18723 0.23922 0.28039 0.31976 0.77794 0.84365 0.6705 0.18101-0.03639 0.24483-0.12869 0.30304-0.2922l0.18019-0.5355c0.4282 0.34277 0.50955 0.38939 0.90346 0l0.60359-0.61128c0.10043-0.10898 0.30144-0.39017 0.46091-0.372 0.09963 0.01188 0.30619 0.18874 0.425 0.24718 0.23284 0.11375 0.38117 0.07278 0.61481 0.22753 0.1834 0.1224 0.36197 0.37983 0.65859 0.38772 0.34607 0.0097 0.40188-0.31748 0.5789-0.46437 0.15948-0.11057 0.90986-0.08142 1.0964 0 0.50954 0.1785 0.55813 0.81827 1.0406 0.87591 0.7288 0.08682 0.25281-0.60102 0.5901-0.86007 0.3365-0.25749 0.89944 0.05842 1.2407 0.16184 0.06939-0.16269 0.18179-0.63021 0.34365-0.68391 0.22885-0.07656 0.41226 0.25351 0.70012 0.40199 0.63072 0.32697 0.91778 0.13348 1.5078 0.05929 0.35084-0.04341 0.74156-0.02441 0.80773-0.48576 0.05422-0.38225-0.1541-0.16602-0.40368-0.30424l-0.18917-0.16806-0.21049-0.10906c-0.24009-0.13588-0.31986-0.22957-0.61375-0.23886h-0.36068c-0.16066-0.04395-0.64629-0.40484-0.73835-0.54109-0.10216-0.15162-0.0081-0.2771-0.13967-0.40727-0.11084-0.10944-0.48527-0.15594-0.55747-0.40521-0.05018-0.17379 0.07364-0.22674 0.19748-0.2979 0.20543-0.11836 0.33687-0.17986 0.58778-0.16056 0.25706 0.01998 0.27799 0.07905 0.43071 0.25109 0.06604 0.07397 0.12637 0.12338 0.17945 0.21065 0.04047 0.06695 0.05877 0.13836 0.11227 0.20129 0.0614 0.07224 0.17477 0.11155 0.26756 0.18666 0.3076 0.24746 0.53722 0.46634 0.95962 0.47098h0.61344c0.23684 0.04622 0.09568 0.13842 0.50581 0.13913 0.55059 9.17e-4 0.58706-0.09946 1.1192 0.10723 0.10543-0.19525 0.28378-0.46881 0.54155-0.46381 0.0791 0.0022 0.12998 0.05583 0.32494 0.07041v-0.25029c-0.24659-0.0086-0.18847-0.0812-0.36249-0.19345-0.09711-0.06263-0.15742-0.04795-0.24804-0.09146l-0.25746-0.1781c-0.1621-0.0974-0.19347-0.0514-0.32345-0.10799l-0.32494-0.19885-0.2466-0.1054c-0.27547-0.16414-0.70983-0.53501-0.81562-0.84255-0.06927-0.20204 0.04663-0.31572 0.1531-0.46663 0.12853-0.18202 0.37618-0.52857 0.55092-0.65553l0.16755-0.08714c0.10578-0.05658 0.16539-0.12125 0.29898-0.09535 0.23467 0.04503 0.37904 0.26353 0.68593 0.26925 0.11626 0.0022 0.43942 0.01782 0.52823-0.03661 0.14694-0.09049 0.18522-0.32398 0.25634-0.41696 0.04228-0.05475 0.10065-0.09319 0.15448-0.13554 0.17367-0.13658 0.20401-0.17809 0.29896-0.37657 0.0263-0.06576 0.07374-0.15483 0-0.21382-0.04147-0.03747-0.13501-0.03531-0.19096-0.03661h-0.14446c-0.23179-0.0054-0.17512-0.02829-0.34011-0.10979l-0.23756-0.08574c-0.16284-0.08337-0.36934-0.24895-0.54156-0.29436-0.09935-0.02613-0.29462 0.0243-0.43326 0.02505-0.61557 0.0043-0.3621-0.04395-0.72206-0.09665-0.10472-0.01544-0.23288-0.0022-0.32494-0.03142l-0.46936-0.23099c-0.17439-0.07505-0.12168 0.0108-0.3957-0.18236-0.21843-0.15377-0.46969-0.35086-0.46969-0.63872 0-0.33758 0.24369-0.46597 0.47657-0.64442l0.18843-0.15626c0.18341-0.11767 0.36649 0.0097 0.38093-0.41521h-1.047c-0.39679-6.81e-4 -0.41412-0.11407-0.75818-0.25352l-0.17908-0.05237-0.16103-0.08984-0.16569-0.05324-0.18019-0.08877-0.24947-0.06933-0.29241-0.20205c-0.09711-0.05237-0.14153-0.05248-0.24191-0.12409l-0.50183-0.4209-0.18918-0.12979c-0.17619-0.13375-0.27693-0.29433-0.39209-0.47671-0.06239-0.09913-0.25132-0.28395-0.21557-0.39445 0.02882-0.08952 0.15669-0.12625 0.24116-0.12625 0.17944-3.45e-4 0.21668 0.11409 0.39754 0.11766 0.19677 0.0043 0.28195-0.12479 0.50508-0.09838 0.18737 0.02214 0.48994 0.20701 0.55674 0.38941 0.02498 0.06868 0.01659 0.14235 0.02882 0.21314 0.0108 0.0622 0.12602 0.40622 0.16321 0.44342 0.06028 0.06101 0.2462 0.07732 0.33429 0.09298l0.20653-0.41231c0.22168-0.23102 0.58345 0.25462 0.74808 0.3426 0.21662 0.1155 0.30326-0.09848 0.56176 0.21273h0.0722c0.17185-0.19885 0.1549-0.12511 0.36105-0.21096 0.19244-0.08013 0.3116-0.15451 0.54014-0.09989 0.15307 0.03661 0.14113 0.12374 0.39855 0.1509 0.21337 0.02279 0.43578-0.01317 0.43758-0.26931 3e-3 -0.40587-0.54621-0.36972-0.69028-0.44698l-0.30398-0.2013c-0.10543-0.0487-0.18053-0.01404-0.30653-0.07149l-0.72677-0.45916c-0.17619-0.11371-0.4827-0.30647-0.63505-0.44341-0.05018-0.04546-0.16612-0.18134-0.19103-0.24035-0.05635-0.10907-0.05664-0.49456 0-0.60006 0.04915-0.08045 0.14155-0.12836 0.21377-0.18344l-0.6138-0.28897c-0.13215-0.05108-0.20937-0.01749-0.32345-0.05864l-0.41378-0.22997c-0.08557-0.04071-0.14185-0.03283-0.22741-0.09244l-0.3755-0.33258c-0.09963-0.11228-0.29786-0.39121-0.31483-0.53501-0.01558-0.13088 0.02669-0.27177 0.17616-0.29107 0.22059-0.02862 0.49466 0.2099 0.63077 0.35724 0.2336 0.25212 0.32237 0.24175 0.55452 0.40016 0.10507 0.07149 0.13613 0.15347 0.22604 0.18527 0.16174 0.05756 0.3845-0.1159 0.53685-0.1606 0.08738-0.02613 0.45421 0.07106 0.53833 0.11765 0.06927 0.03834 0.09935 0.08401 0.14766 0.14234l0.82424-0.04622 0.40327-0.26501h1.5164l-0.36106-0.40412c-0.25199-0.0086-0.20759-0.09654-0.39749-0.19916-0.13178-0.07116-0.20292-0.03218-0.32134-0.08574-0.08446-0.03823-0.2744-0.18987-0.4004-0.23065-0.16319-0.0528-0.41662 0.03423-0.54695-0.13804-0.11012-0.14554-0.11119-0.56106 0.08162-0.64294 0.20074-0.08542 0.50221-0.01782 0.68742 0.08077 6e-3 -0.05475 0.02134-0.07613 0-0.13694-0.02235-0.11084-0.3838-0.45918 0.03073-0.53963h0.28882l-0.03682-0.27823-0.32419-0.22529c-0.05128 0.02797-0.12316 0.07289-0.18056 0.0825-0.09456 0.01566-0.16646-0.03661-0.25274-0.06414-0.24696-0.07872-0.34442-0.16124-0.61375-0.16767h-1.1553l-0.54156-0.17131c-0.08161-0.03402-0.11806-0.07505-0.21661-0.09773l-0.36106-0.019-0.42996-0.16019-0.15782-0.08542-0.23323-0.07267c-0.10722-0.05594-0.37076-0.31038-0.39459-0.42659-0.03105-0.15058 0.05845-0.23314 0.1693-0.31431 0.2206-0.16166 0.46323-0.22427 0.72137-0.29187-0.08233-0.21848-0.16322-0.20203-0.36106-0.27212-0.28702-0.10183-0.23864-0.08412-0.54155-0.09298-0.06575 0.0076-0.15307 0.0086-0.21625 0-0.09678-0.03326-0.1224-0.07084-0.19606-0.10475-0.17294-0.0798-0.37111-0.11372-0.51516-0.25998-0.24912-0.25318 0.08628-0.87828 0.38448-0.85647 0.17221 0.01253 0.20437 0.25851 0.50691 0.47772 0.05411-0.25388-0.11338-0.24312-0.04481-0.42766 0.06969-0.18771 0.24406-0.16951 0.40581-0.18631 0.16066-0.01695 0.26825-0.06836 0.43325-0.03758 0.31771 0.05993 0.33288 0.16846 0.54156 0.18455 0.33612 0.0257 0.3762-0.1366 0.60401-0.30541 0.2206-0.16343 0.2719-0.09665 0.34916-0.15808 0.07008-0.05583 0.03651-0.13335 0.13284-0.27533l0.53976-0.71734c0.11553-0.14448 0.30722-0.12874 0.43214-0.47276l-0.0361-0.03574-0.72211 0.03542-0.28882-0.02797-0.39712 0.02289c-0.10794-0.01458-0.22277-0.08952-0.32351-0.13765-0.16319-0.07872-0.50254-0.27677-0.4426-0.4967 0.02742-0.10021 0.13104-0.12767 0.20937-0.17671l0.31012-0.21632c0.09861-0.04687 0.16034-0.03067 0.24048-0.06058l0.37332-0.23063c0.14984-0.06911 0.29098-7.13e-4 0.46319-0.06771 0.35093-0.13589 0.43941-0.27642 0.58381-0.35475l0.4993-0.22027c-0.10759-0.11086-0.26428-0.24781-0.42712-0.26138-0.08628-0.0076-0.12598 0.03931-0.22418 0.02451l-0.25132-0.08121h-0.57763c-0.22636-0.0043-0.58888 0.07289-0.72211-0.14697-0.25922-0.0784-0.44512-0.39872-0.21731-0.61756 0.21627-0.2074 0.3379-0.16913 0.61337-0.16913v-0.17811c-0.02993-0.31935-0.29135-0.10755-0.57656-0.21776l-0.1805-0.08023-0.32351-0.05626-0.16104-0.08153-0.20144-0.05237c-0.22818-0.06836-0.18344-0.1166-0.46938-0.12054-0.37512-0.0054-0.33284 0.04104-0.68594-0.11447-0.20146-0.08877-0.66579-0.18987-0.6907-0.45736-0.01801-0.19455 0.25455-0.37082 0.43796-0.35403 0.2762 0.02538 0.39462 0.3519 0.64374 0.29074 0.07181-0.01749 0.12601-0.07732 0.18991-0.11084l0.17579-0.07592c0.09061-0.05205 0.295-0.26782 0.34699-0.3597 0.08526-0.15055 0.03146-0.37087 0.23397-0.41592 0.31085-0.069 0.32128 0.28286 0.32526 0.48275v0.3637c0.32927-0.10021 0.0697-0.23174 0.19462-0.38585 0.13899-0.15447 0.56972-0.07149 0.74194 0 0-0.14304-0.01407-0.58576 0.02095-0.68697 0.04836-0.13874 0.26138-0.35937 0.37619-0.45307 0.19243-0.15699 0.29966-0.14234 0.39606-0.25213 0.10074-0.11479 0.05299-0.21314 0.10004-0.33116 0.043-0.10909 0.14078-0.17629 0.22599-0.25104-0.23143-0.0649-0.74235-0.02224-1.2237-0.20046 0 0-0.81604 0.01317-1.1443 0.17582-0.42396 0.18962-1.1915 0.12218-1.1915 0.12218-0.51521-0.07581-0.07071-0.80881 0.05674-0.99477 0.08993-0.13124 0.08809-0.28896 0.22134-0.35332 0.04583-0.01825 0.09215-0.01749 0.13972 0 0.19134 0.05583 0.18052 0.23208 0.18124 0.3923 0.20398-0.1241 0.50072-0.67232 1.0109-0.67947 0.53724-0.0076 0.28704-0.05443 0.57769-0.12766 0.12454-0.03175 0.24476 0.0108 0.32636-0.07149 0.1195-0.10367 0.11083-0.29215 0-0.388-0.05411-0.0379-0.12454-0.06004-0.1787-0.0892-0.06818-0.03704-0.11266-0.08088-0.18992-0.10691-0.04583-0.0054-0.5496-0.11159-0.98127-0.06782-0.43765 0.17612-1.1427 0.06782-1.1427 0.06782-0.39029-0.0065-0.31158-0.07732-0.54155-0.13196l-0.25275-0.04039-0.1805-0.08477-0.21191-0.0581c-0.09495-0.03823-0.32566-0.25497-0.3856-0.33794-0.06141-0.08542-0.15414-0.23964-0.0722-0.33618 0.10796-0.12661 0.57366-0.08769 0.7419-0.0784h0.39575c0.11914-0.01469 0.16242-0.10162 0.29166-0.14412 0.05411-0.0065 0.12276-0.0065 0.17908 0 0.33721-0.01177 0.4318 0.05518 0.64987 0.31435h0.07221c0.08951-0.11086 0.21769-0.27498 0.36137-0.31074 0.11698-0.02894 0.35639 0.01793 0.44303-0.04665 0.03248-0.02386 0.14332-0.23603 0.29532-0.34008 0.10868-0.07473 0.19245-0.03995 0.30833-0.06436l0.32494-0.12552 0.75819-0.40765c0.14911-0.05583 0.42309-0.02009 0.57762 0l-0.14438-0.38582c-0.22275-0.12266-0.31629-0.28111-0.57768-0.28613h-1.3719c-0.45382-6.69e-4 -0.39282-0.09611-0.68599-0.13194l-0.43325 0.02473c-0.14731 9.18e-4 -0.63217-0.01793-0.75818-0.04687-0.11915-0.02754-0.17039-0.09362-0.28882-0.12086l-0.28886-0.02322c-0.21048-0.04104-0.2278-0.14914-0.50544-0.12875-0.23358 0.01717-0.29349 0.17452-0.50543 0.12017-0.38559-0.09989-0.02964-0.38941 0.10577-0.52138 0.07111-0.06976 0.13501-0.15308 0.22239-0.20313l0.24914-0.11478 0.65019-0.4252c0.16932-0.09848 0.22424-0.05702 0.30763-0.10907 0.06535-0.04071 0.1253-0.14092 0.16935-0.20493 0.16391-0.23924 0.27183-0.38337 0.20901-0.68947-0.25165 0.10324-0.2101 0.14162-0.50544 0.14306h-1.8412c-0.15994 0-0.72388 0.05518-0.76178-0.14627-0.01112-0.05928 0.03782-0.13195 0.06128-0.18558 0.19532-0.44237 0.48307-0.29895 0.66431-0.67837-0.15056-0.02149-0.18195 0.0086-0.28882 0-0.09599-0.02419-0.1466-0.073-0.25274-0.06177-0.11589 0.01209-0.1119 0.06728-0.39713 0.07473h-0.28886c-0.18377 0.03466-0.29678 0.17488-0.50402 0.12804-0.0791-0.01782-0.12634-0.05928-0.18663-0.10259-0.23683-0.15341-0.24622-0.3104 0-0.47275 0.18016-0.113 0.55275-0.02149 0.7228-0.06846 0.19317-0.05324 0.08376-0.20737 0.4011-0.27494l0.0261-0.1756 0.32023-0.56753 0.19531-0.1867c-0.37332 0.0054-0.29782 0.1277-0.57762 0.25107-0.11264 0.04967-0.18561 0.02224-0.28887 0.05583-0.13034 0.04211-0.22958 0.16593-0.39385 0.08607-0.05167-0.02495-0.11593-0.0865-0.15564-0.12802-0.17728-0.18524-0.06493-0.32936 0.06716-0.50922 0.12924-0.1756 0.34332-0.29974 0.43646-0.41022 0.1047-0.12443 0.06827-0.20098 0.1448-0.30326 0.10181-0.13626 0.48774-0.33898 0.65924-0.36543l0.02093-0.13988 0.18123-0.3794 0.12275-0.08876 0.0361-0.21458c-0.3697-9.29e-4 -0.24624-0.04665-0.46936-0.12233-0.08912-0.03078-0.15705-0.01436-0.23937-0.07786-0.08052-0.0622-0.32348-0.44485-0.37438-0.55071-0.13539 0.07667-0.43719 0.29789-0.578 0.31652-0.28414 0.03758-0.36754-0.17812-0.47259-0.37803-0.04763-0.0906-0.19246-0.38479-0.19462-0.47491-4e-3 -0.17452 0.22888-0.30503 0.37871-0.32183l0.23144-0.25642c0.07363-0.10691 0.14335-0.6394-0.14909-0.54678-0.11012 0.03466-0.20618 0.1792-0.30511 0.23069-0.09598 0.05043-0.16213 0.01965-0.26755 0.06976-0.18304 0.08682-0.35562 0.20703-0.55382 0.25531-0.12384 0.0297-0.26209 0.16735-0.38016 0.04967-0.12781-0.12729-0.02669-0.37688 0.05201-0.50242l0.1336-0.2492c0.05452-0.07084 0.15632-0.12122 0.28522-0.29932l0.14041-0.24778 0.19933-0.25568c-0.0978-0.10367-0.09679-0.1098-0.10831-0.25034-0.17438-0.09773-0.1888-0.35832-0.10359-0.53031l0.24078-0.33794c0.04118-0.07581 0.06028-0.15737 0.07951-0.24034-0.31952 0.0108-0.42136 0.21027-0.65136 0.26821-0.08375 0.02462-0.34802 0.02656-0.42853 0-0.21699-0.08218-0.34875-0.33437-0.26606-0.55108 0.11192-0.29254 0.39566-0.31576 0.40722-0.68268-0.26501 0.13232-0.25743 0.10291-0.54156 0.10723-0.28124 0.0054-0.20795 0.07786-0.3975 0.12765-0.25814 0.06803-0.63 0.02829-0.75818-0.23813-0.06494-0.13446-0.0108-0.26752 0.11264-0.34368l0.39318-0.17878 0.18054-0.03045c0.20868-0.06479 0.16392-0.14558 0.43326-0.08769l0.0361-0.10723-0.0361-0.03574c-0.27115-0.0086-0.80768-0.31652-0.83006-0.60798-6e-3 -0.07473 0.04611-0.15197 0.08304-0.21382 0.06141-0.10367 0.06545-0.11873 0.16934-0.17952v-0.25034c-0.3123 0.02462-0.21481 0.13699-0.54156 0.14306-0.126 0.0022-0.31773 0.01749-0.40654-0.08682-0.13901-0.16342 0.0347-0.27645 0.07111-0.41983l0.04663-0.35152c-0.40365-0.07505-0.39825 0.17234-0.68599 0.26497-0.22096 0.07149-0.44516-0.10648-0.31844-0.33254 0.07292-0.13087 0.28701-0.17525 0.42203-0.25715 0.24442-0.14804 0.25709-0.27462 0.25746-0.53352-0.09427 3.46e-4 -0.18668-0.0086-0.27369 0.03358-0.13142 0.06296-0.33502 0.24886-0.48449 0.22419-0.24586-0.04104-0.27691-0.34727-0.24767-0.54396 0.02387-0.15876 0.0974-0.17946 0.14005-0.35758 0.07008-0.29072-0.1065-0.70805-0.36174-0.85823z" fill="#00483a"/>
 </g>
</svg>
