<?xml version="1.0" encoding="UTF-8"?>
<!-- Created with Inkscape (http://www.inkscape.org/) -->
<svg version="1.1" viewBox="0 0 100 100" xmlns="http://www.w3.org/2000/svg" xmlns:cc="http://creativecommons.org/ns#" xmlns:dc="http://purl.org/dc/elements/1.1/" xmlns:rdf="http://www.w3.org/1999/02/22-rdf-syntax-ns#">
 <title>NEON Data Theme - Ecohydrology</title>
 <metadata>
  <rdf:RDF>
   <cc:Work rdf:about="">
    <dc:format>image/svg+xml</dc:format>
    <dc:type rdf:resource="http://purl.org/dc/dcmitype/StillImage"/>
    <dc:title>NEON Data Theme - Ecohydrology</dc:title>
   </cc:Work>
  </rdf:RDF>
 </metadata>
 <g>
  <rect y="3.8147e-6" width="100" height="100" fill="#006eb2"/>
  <rect y="70.286" width="100" height="29.714" fill="#0099d4"/>
  <path d="m81.208 70.286c-0.74786 0.29581-2.2456 0.74165-3.6278 1.0262-1.7173 0.35355-6.8184 0.60602-11.819 0.70703-5.0003 0.10101-24.193 1.5655-25.911 2.0201-1.7173 0.45457-3.3839 1.0101-3.3839 2.8789s4.7983 3.9399 6.8186 5.1016c2.0203 1.1617 9.5963 4.8487 9.6468 5.3538 0.0505 0.50507 0.18109 1.0224-2.7891 2.1981-3.4286 1.3571-7.2857 2.0714-14 3.3571-6.6972 1.2824-27.901 5.6098-35.161 7.0714h57.645c0.43108-0.37858 0.88887-0.76947 1.3767-1.1618 2.3233-1.8688 7.0209-3.6867 10.051-6.3131 3.0305-2.6264 4.7982-3.8893 2.7779-5.8086-2.0203-1.9193-8.4854-2.8793-14.546-4.6975-6.0609-1.8183-7.6267-3.4845-7.1217-4.5452 0.50508-1.0607 5.1014-1.6668 8.7885-2.0709 3.6871-0.40406 11.42-0.77836 18.811-1.7645 6.1208-0.81658 8.2149-2.812 8.4849-3.3527z" fill="#66c2e6"/>
  <path d="m56.922 6.0358c-1.0104 1.3889-2.0666 2.7251-2.9335 4.1873-0.78916 0.96644-1.1499 2.1657-1.7894 3.208-0.43031 0.83201-0.6974 1.7383-1.1439 2.5717-0.18935 0.96125-0.67843 1.8367-0.85256 2.8046-0.35204 0.87022-0.4246 1.8088-0.68093 2.7075-0.16117 1.7318-0.54684 3.4803-0.37988 5.2266 0.18664 1.2208 0.20637 2.4665 0.52222 3.6648 0.22629 1.4603 0.39862 2.9288 0.64775 4.385 0.1662 1.4778 0.35492 2.9431 0.45199 4.4263 0.28836 2.4215 0.24184 4.8965-0.15382 7.3015-0.17606 1.5479-0.60326 3.0192-1.1759 4.4662-1.1068 2.0073 1.422-0.28128 1.9357-1.009 1.3122-1.2461 2.5828-2.5014 3.753-3.8809 1.0637-1.7699 2.329-3.3652 3.0534-5.2973 0.44092-1.3453 1.0027-2.6609 1.0382-4.1039 0.23996-1.8439 0.05781-3.7351-0.08176-5.5812-0.26237-1.4458-0.47265-2.8928-0.9097-4.2916-0.10288-0.60988-0.41411-1.1482-0.48645-1.7651-0.46908-0.91817-0.77542-1.8735-1.1566-2.8062-0.52787-1.3043-1.1994-2.5318-1.6752-3.8477-0.44575-0.78971-0.7065-1.6565-0.93185-2.5361-0.38057-1.3251-0.03849-2.7287 0.46364-3.9582 0.50757-1.0653 0.91846-2.2215 1.7558-3.0999 0.61153-0.58417 1.0412-1.3419 1.8083-1.7535 0.66458-0.72034 3.0418-1.8155 0.8327-2.1273-0.87327-0.27557-1.3856 0.58834-1.9112 1.1083zm-9.7443 10.039c-2.0861 2.05-4.4235 3.9805-5.6227 6.7278-1.8058 3.342-2.3053 7.2389-1.8653 10.971 0.56392 6.4049 3.5144 12.265 4.6579 18.553 0.07465 1.9775 0.17812 3.9981-0.21398 5.9462-0.60777 0.90097-0.04182 2.187 0.55053 0.61631 2.0554-3.9623 4.3997-7.9377 4.9114-12.46 0.44234-3.478-0.03028-7.0056-0.45048-10.464-0.49818-4.3425-1.5928-8.6689-1.1622-13.066 0.34263-2.6576 0.62948-5.4361 1.8173-7.8687 0.88794-1.6951-0.95458-0.88017-1.4554 0.01037-0.36115 0.37767-0.75922 0.70774-1.1671 1.0336z" fill="#00202c"/>
  <path d="m48.439 71.189c0 2.4817-2.0118 4.4935-4.4935 4.4935s-4.4935-2.0118-4.4935-4.4935c0-2.4817 4.4935-8.8965 4.4935-8.8965s4.4935 6.4148 4.4935 8.8965z" fill="#fff" stroke-width=".062286"/>
  <path d="m54.089 77.69c0 1.5415-1.2496 2.7911-2.7911 2.7911-1.5415 0-2.7911-1.2496-2.7911-2.7911 0-1.5415 2.7911-5.526 2.7911-5.526s2.7911 3.9845 2.7911 5.526z" fill="#fff" stroke-width=".038689"/>
 </g>
</svg>
