<?xml version="1.0" encoding="UTF-8"?>
<!-- Created with Inkscape (http://www.inkscape.org/) -->
<svg version="1.1" viewBox="0 0 100 100" xmlns="http://www.w3.org/2000/svg" xmlns:cc="http://creativecommons.org/ns#" xmlns:dc="http://purl.org/dc/elements/1.1/" xmlns:rdf="http://www.w3.org/1999/02/22-rdf-syntax-ns#">
 <title>NEON Data Theme - Land Cover &amp; Processes</title>
 <metadata>
  <rdf:RDF>
   <cc:Work rdf:about="">
    <dc:format>image/svg+xml</dc:format>
    <dc:type rdf:resource="http://purl.org/dc/dcmitype/StillImage"/>
    <dc:title>NEON Data Theme - Land Cover &amp; Processes</dc:title>
   </cc:Work>
  </rdf:RDF>
 </metadata>
 <g>
  <rect y="9.2686e-6" width="100" height="100" fill="#f58b44" stroke-width="1.3401"/>
  <rect y="9.77e-15" width="100" height="69.429" fill="#e0782d"/>
  <path d="m75.821 69.429v-11.661l-2.9464-2.9464v-10.161l-5.7321 1.9821h-6.6786v6.3393h-2.7857v-10.571h-5.3214v6.5714h-2.3214v3.1071h-2.5536v7.6786h-3.4821v-15.196l-1.4286-1v-3.2144l-2.2857-1.3569v-1.6286l-0.28571-0.28571v-3.4286l-0.28572 0.28571v5.0571l-2.2857 1.3571v3.2144l-1.4286 1v11.955h-4.0287v2.1718h-2.8032v3.3588h-0.85863v-10.506h-5.6821v6.364h-1.49v-11.63l-0.99458 1.05e-4v-5.5714l-0.28578-0.28582 1.27e-4 -1.3927-1.2858-1.23e-4 -2.5714-5.3929-0.11429-9.3214h-0.12857l-0.11428 9.3214-2.5714 5.3929-1.2857-7.1e-5v1.3929l-0.28572 0.28571v5.5714l-1.4822 1.43e-4v0.6785l-2.5357-0.92857v11.446h-0.625v1.1786h-1.7143v-5.9286h-5.1429v16.649z" fill="#faa26f"/>
  <g fill="#fff">
   <path d="m73.167 6.4248a15.571 15.571 0 0 0-15.571 15.571 15.571 15.571 0 0 0 15.571 15.571 15.571 15.571 0 0 0 15.571-15.571 15.571 15.571 0 0 0-15.571-15.571zm0 0.37251a15.199 15.199 0 0 1 15.199 15.199 15.199 15.199 0 0 1-15.199 15.199 15.199 15.199 0 0 1-15.199-15.199 15.199 15.199 0 0 1 15.199-15.199z" stroke-width=".21584"/>
   <circle cx="73.167" cy="21.996" r="10.952" stroke-width=".15181"/>
   <path d="m73.093 8.809a13.262 13.262 0 0 0-13.262 13.262 13.262 13.262 0 0 0 13.262 13.262 13.262 13.262 0 0 0 13.262-13.262 13.262 13.262 0 0 0-13.262-13.262zm0 0.89405a12.368 12.368 0 0 1 12.368 12.368 12.368 12.368 0 0 1-12.368 12.368 12.368 12.368 0 0 1-12.368-12.368 12.368 12.368 0 0 1 12.368-12.368z" stroke-width=".18383"/>
  </g>
  <path d="m5.1356 59.555-5.579e-4 5.57e-4c0 0.11856 0.022491 0.36626-0.073661 0.4481-0.13086 0.11218-0.49193-0.20371-0.5731-0.30246h-0.059152l-0.029018 0.02958c-0.0057 0.21557-0.18779 0.39804-0.32366 0.55302 0.033203 0.05735 0.087564 0.13725 0.088728 0.20424 0.00172 0.1174-0.15211 0.26241-0.18917 0.37835-0.06823 0.21498 0.2095 0.33434 0.16685 0.49107-0.039133 0.1442-0.2043 0.04256-0.26842-0.01674 0.065824 0.06113-0.32682-0.40487-0.27623-0.33147-0.057361-0.08322-0.043216-0.15779-0.098214-0.20033-0.055867-0.04249-0.25979-0.02958-0.33538-0.02958 0.028834 0.05682 0.061213 0.11233 0.076451 0.17467 0.040285 0.16721 0.00393 0.72928-0.042969 0.9029-0.03066 0.11477-0.046915 0.27528-0.18192 0.31138-0.35763 0.09556-0.3022-0.17617-0.70424-0.25279 2.783e-4 0.35511 0.050136 0.22606 0.084263 0.43639 0.014999 0.09149-0.00451 0.18074 0.051897 0.26172 0.070283 0.1005 0.32747 0.19265 0.29688 0.36161-0.022662 0.12381-0.18833 0.13304-0.28627 0.13449-0.52408 7e-3 -0.33659-0.05851-0.61775-0.10714l-0.3231-0.02232c-0.2097-0.055073-0.023191-0.1038-0.44141-0.1038v0.05803c0.34703 0.0087 0.35662 0.24908 0.17634 0.34989 0.049092 0.32452 0.37232 0.32854 0.46819 0.37835 0.064752 0.03378 0.13992 0.12059 0.19699 0.17243 0.10411 0.09467 0.17696 0.13449 0.15402 0.29352-0.022082 0.15352-0.32656 0.25966-0.46596 0.26228-0.12029 0.0026-0.62078 0.01177-0.70313-0.01674l-0.12891-0.07198-0.16797-0.07143c-0.14676-0.08409-0.13485-0.13161-0.32366-0.16016 0.071767 0.11477 0.24096 0.22607 0.34096 0.33036l0.29576 0.39007c0.060566 0.07934 0.19312 0.31338 0.16518 0.41183-0.055866 0.19692-0.28479 0.0753-0.39007 0.03181-0.12794-0.052158-0.20705-0.00432-0.32087-0.056359l-0.37333-0.2461v0.12556c0.058618 0.04746 0.11173 0.08534 0.14788 0.12947l0.093192 0.15457 0.12165 0.10882 0.20982 0.23438 0.10938 0.1663c0.081712 0.0759 0.2013 0.07928 0.33482 0.21763 0.21234 0.22051 0.16828 0.43746-0.17522 0.41853-0.16647-0.0093-0.16998-0.05991-0.29408-0.09934-0.071196-0.02243-0.12691-0.01189-0.19866-0.04855l-0.23047-0.16182c-0.049821-0.027612-0.084815-0.035192-0.1183-0.041852v33.864h13.366v-25.93l-1.3783-0.01841c-0.17146-0.03342-0.18566-0.12152-0.41183-0.10491-0.19027 0.01397-0.23918 0.14193-0.41183 0.09766-0.31409-0.08136-0.02381-0.31716 0.0865-0.42466 0.05792-0.05682 0.10963-0.12496 0.1808-0.16574l0.20312-0.09319 0.52958-0.34654c0.13792-0.08022 0.18263-0.04633 0.25056-0.08873 0.05323-0.03316 0.10195-0.11472 0.13784-0.16685 0.13352-0.19489 0.22138-0.3126 0.1702-0.56194-0.20499 0.08409-0.1707 0.11547-0.41127 0.11663h-1.5c-0.13028 0-0.58966 0.04524-0.62054-0.11886-9e-3 -0.04828 0.03054-0.10753 0.04966-0.15123 0.15911-0.36034 0.39366-0.24338 0.54129-0.55246-0.12264-0.01752-0.14844 7e-3 -0.23549 0-0.0782-0.01972-0.11889-0.05991-0.20536-0.05078-0.09441 0.0097-0.09132 0.05532-0.32366 0.06138h-0.23549c-0.1497 0.02823-0.2419 0.14196-0.41071 0.1038-0.064432-0.01451-0.10267-0.04786-0.15179-0.08315-0.19292-0.12496-0.20057-0.25279 0-0.38504 0.14676-0.09203 0.45021-0.01754 0.58873-0.05581 0.15735-0.04337 0.068503-0.16928 0.32701-0.22433l0.02121-0.14286 0.2606-0.46261 0.15904-0.15178c-0.3041 0.0044-0.2425 0.10374-0.47042 0.20424-0.09176 0.04046-0.15138 0.01843-0.23549 0.04576-0.10617 0.0343-0.18706 0.13538-0.32087 0.07031-0.0421-0.02031-0.09433-0.07054-0.12667-0.10435-0.14441-0.1509-0.052917-0.26866 0.054688-0.41518 0.10528-0.14304 0.27959-0.24371 0.35547-0.3337 0.085282-0.10137 0.05597-0.1639 0.1183-0.24721 0.082933-0.11098 0.39714-0.27645 0.53683-0.29799l0.0173-0.11384 0.14732-0.30915 0.09989-0.07198 0.02958-0.17466c-0.30115-8.57e-4 -0.2005-0.03825-0.38225-0.09989-0.0726-0.02505-0.12769-0.0118-0.19476-0.06361-0.06558-0.05068-0.26378-0.36243-0.30524-0.44866-0.11028 0.06245-0.35628 0.2432-0.47098 0.25837-0.23146 0.03061-0.29947-0.14519-0.38504-0.30803-0.038792-0.0738-0.15672-0.31386-0.15848-0.38728-0.0033-0.14216 0.18655-0.24803 0.30859-0.26172l0.18862-0.20926c0.059984-0.08709 0.11656-0.52076-0.12165-0.44531-0.089697 0.02823-0.16774 0.14612-0.24833 0.18806-0.078177 0.04107-0.13176 0.01611-0.21763 0.05692-0.1491 0.07072-0.29 0.16826-0.45145 0.20759-0.10089 0.0242-0.21354 0.13658-0.30971 0.04073-0.10411-0.1037-0.021691-0.30678 0.042411-0.40904l0.10882-0.20312c0.044415-0.057708 0.12714-0.098776 0.23214-0.24386l0.1144-0.20201 0.16239-0.20815c-0.079671-0.08446-0.078783-0.0892-0.08817-0.20368-0.14204-0.07962-0.15367-0.29238-0.084263-0.43248l0.19643-0.27512c0.033545-0.06175 0.049072-0.12828 0.064732-0.19587-0.26027 0.0087-0.34334 0.17156-0.53069 0.21875-0.06823 0.02005-0.28375 0.02166-0.34933 0-0.17675-0.06694-0.28387-0.27269-0.21652-0.44922 0.091168-0.2383 0.32206-0.25692 0.33147-0.5558-0.21587 0.10778-0.2094 0.08354-0.44085 0.08706-0.2291 0.0044-0.16981 0.06379-0.32422 0.10436-0.21028 0.05542-0.51278 0.02286-0.61719-0.1942-0.0529-0.10953-0.00903-0.2181 0.091518-0.28013l0.32031-0.14565 0.14732-0.02454c0.16999-0.05278 0.13328-0.1186 0.35268-0.07143l0.029576-0.08761-0.029576-0.02902c-0.22089-7e-3 -0.65812-0.25756-0.67635-0.49498-0.0049-0.06086 0.037979-0.12372 0.06808-0.17411 0.050026-0.08446 0.053204-0.09668 0.13784-0.14621v-0.20424c-0.25439 0.02005-0.17524 0.11168-0.44141 0.11663-0.10263 0.0017-0.25857 0.01411-0.33092-0.07087-0.11323-0.13312 0.028368-0.22528 0.058035-0.34207l0.037946-0.28628c-0.3288-0.0611-0.32476 0.14051-0.55915 0.21596-0.17999 0.05823-0.36215-0.0865-0.25893-0.27064 0.059413-0.10658 0.23376-0.14311 0.34375-0.20982 0.1991-0.12059 0.20897-0.22381 0.20926-0.43471-0.076796 2.8e-4 -0.15177-7e-3 -0.22266 0.02734-0.10706 0.05128-0.27277 0.20313-0.39453 0.18303-0.20027-0.03343-0.22583-0.28286-0.20201-0.44308 0.019434-0.12932 0.079663-0.14621 0.1144-0.29129 0.057099-0.23682-0.086731-0.57688-0.29464-0.69922z" fill="#883a15"/>
  <path d="m36.388 54.69-5.72e-4 5.72e-4c0 0.11138 0.02111 0.34387-0.0692 0.42076-0.12294 0.10537-0.46225-0.19127-0.5385-0.28404h-0.05525l-0.02791 0.02734c-0.0054 0.20251-0.17592 0.3745-0.30357 0.52009 0.0312 0.05387 0.08205 0.12847 0.08315 0.19141 0.0017 0.11029-0.1432 0.24711-0.17802 0.35603-0.0641 0.20196 0.19743 0.3137 0.15736 0.46094-0.03677 0.13547-0.19199 0.04007-0.25223-0.01563 0.06183 0.05744-0.30701-0.38034-0.25948-0.31138-0.05389-0.07817-0.04041-0.14809-0.09208-0.18806-0.05248-0.03991-0.24428-0.02846-0.31529-0.02846 0.02708 0.05339 0.05711 0.10606 0.07143 0.16462 0.03785 0.15709 0.0038 0.6851-0.04018 0.84822-0.02879 0.10781-0.04393 0.25849-0.17076 0.29241-0.33598 0.08977-0.28413-0.16574-0.66183-0.23772 2.62e-4 0.3336 0.04776 0.21257 0.0798 0.41016 0.01408 0.08594-0.0051 0.17002 0.04799 0.2461 0.06602 0.09442 0.30776 0.18055 0.27902 0.33929-0.02128 0.11631-0.17641 0.12532-0.26842 0.12667-0.49235 0.0066-0.31622-0.05476-0.58036-0.10045l-0.30357-0.0212c-0.197-0.05174-0.02174-0.09765-0.41462-0.09765v0.05468c0.32602 0.0083 0.3351 0.23398 0.16574 0.32868 0.04613 0.30487 0.34911 0.30868 0.43918 0.35547 0.06084 0.03174 0.13166 0.11312 0.18527 0.16183 0.09781 0.08895 0.16608 0.12626 0.14453 0.27567-0.02078 0.14423-0.30654 0.2442-0.4375 0.24665-0.11301 0.0026-0.58336 0.01123-0.66071-0.01563l-0.12054-0.06752-0.15848-0.06696c-0.13787-0.079-0.12619-0.12385-0.30357-0.15067 0.06742 0.10782 0.22581 0.21173 0.31975 0.30971l0.27846 0.36718c0.05689 0.07454 0.18138 0.29423 0.15513 0.38672-0.05248 0.18499-0.26772 0.0704-0.36663 0.02958-0.12019-0.04901-0.19441-0.0041-0.30134-0.05301l-0.58259-0.38336c0.13648 0.24138 0.29207 0.29596 0.37053 0.39174l0.08706 0.14565 0.1144 0.10212 0.19755 0.22042 0.10267 0.15569c0.07677 0.07131 0.18929 0.07482 0.31474 0.2048 0.19948 0.20716 0.15752 0.41064-0.16518 0.39286-0.15639-0.0086-0.15963-0.05615-0.27623-0.09319-0.06688-0.02106-0.11842-0.0114-0.18583-0.04575l-0.21707-0.15179c-0.08842-0.049-0.12436-0.02875-0.20201-0.06809l-0.20815-0.15067c-0.08399-0.04644-0.13271-0.03045-0.20647-0.06864l-0.20815-0.16239c-0.08564-0.04297-0.23987-0.0067-0.42969-0.0519-5.72e-4 0.14586-0.04193 0.26295 0.05972 0.38337 0.12433 0.14723 0.25732 0.18363 0.40569 0.28516 0.13041 0.08923 0.40646 0.37824 0.48438 0.51563 0.09892 0.17404 0.01198 0.39924-0.17913 0.46931-0.05024 0.01826-0.13614 0.01654-0.19085 0.01563-0.29176-5e-3 -0.11621-0.10828-0.46931-0.10937 0.07486 0.26299 0.20363 0.25652 0.28348 0.36216l0.15848 0.34933h0.55245c0.08261 0 0.19793-8e-3 0.26451 0.04799 0.11301 0.09523 0.072 0.26274-0.07198 0.3298-0.34039 0.15845-0.35431 0.11277-0.71763 0.11496-0.26193 0.0017-0.18115 0.06465-0.35882 0.10491h-0.52511c-0.32658 5e-3 -0.22922-0.04921-0.41462-0.09375l-0.33148-0.02066-0.24832-0.09598h-0.38728c0.03701 0.16942 0.07856 0.14802 0.12221 0.26953 0.02849 0.07934 0.0081 0.16152 0.10324 0.20257 0.20114 0.08677 0.35511-0.12129 0.65904-0.08817l0.54799 0.1356c0.17241 0.08486 0.15108 0.18429 0.39118 0.19197h0.35938c0.04227-0.0041 0.09665-0.0041 0.13728 0 0.30088 0.09086 0.01246 0.37432-0.24777 0.3817h-0.44197l-0.39286 0.07924c0.0054 0.06644 0.0097 0.18589 0 0.24665-0.06105 0.21373-0.33992 0.52054-0.57422 0.52958-0.11272 5e-3 -0.16052-0.06401-0.25335-0.08426l-0.27176-0.01617-0.22098-0.09654h-0.35938c0.06525 0.12122 0.11519 0.11847 0.11049 0.26953l0.6077 0.40179 0.69085 0.04185c0.14809 0.02571 0.2277 0.12892 0.34319 0.1875 0.08041 0.04074 0.21652 0.0276 0.24442 0.13728 0.02097 0.08374-0.07645 0.1465-0.13393 0.19029-0.03235 0.02463-0.05226 0.04088-0.08817 0.05692 0.0023-5e-3 -0.35991 0.1215-0.35212 0.125l-0.17913 0.03627c0.08814 0.16338 0.19361 0.13562 0.35937 0.13672 0.25807 0.0026 0.31048 0.07965 0.30302 0.32813-7e-3 0.24056-0.1143 0.27295-0.33092 0.27678h-0.35882c-0.04227-0.0033-0.1226-5e-3 -0.16128 0-0.04481 0.0162-0.31591 0.0023-0.43527 9e-3 -0.10858 0.0058-0.16986-0.06489-0.27623-0.08706l-0.33203-0.01451c-0.1738-0.03008-0.11678-0.10131-0.38672-0.10324-0.46893 0-0.61886 0.19308-0.61886 0.19308l0.05918 29.23s4.7043-0.29859 5.6323 0.04241c0.71701-0.01217 0.75033-0.55248 1.0597-0.73382 0.1733-0.10094 0.29571 0.06011 0.46596 0.07813 0.22395 0.02406 0.25817-0.14583 0.85436-0.12165 0.526 0.02116 0.39504 0.31482 0.73493 0.34989 0.37101 0.03867 0.57296-0.3122 0.84877-0.24331 0.09032 0.02306 0.1484 0.07469 0.20759 0.14286 0.18307 0.21457 0.24473 0.59561 0.64565 0.5134 0.13852-0.02786 0.1876-0.09865 0.23214-0.22377l0.13784-0.4096c0.32769 0.26231 0.38996 0.29799 0.6914 0l0.4615-0.46764c0.07685-0.0834 0.2312-0.29905 0.35324-0.28515 0.07624 0.0091 0.23386 0.14445 0.32478 0.18917 0.17818 0.08705 0.29163 0.05569 0.47042 0.1741 0.14035 0.09367 0.27747 0.29084 0.50446 0.29687 0.26484 0.0075 0.30761-0.24305 0.44308-0.35547 0.12204-0.08462 0.69595-0.06231 0.83873 0 0.38994 0.1366 0.42713 0.62664 0.79632 0.67076 0.55773 0.06644 0.19333-0.46024 0.45145-0.65848 0.25751-0.19706 0.6886 0.04474 0.94977 0.12388 0.05311-0.1245 0.13896-0.48234 0.26284-0.52344 0.17513-0.05859 0.31542 0.19385 0.53571 0.30748 0.48267 0.25022 0.70246 0.10253 1.154 0.04575 0.26849-0.03322 0.56767-0.0186 0.6183-0.37165 0.04149-0.29252-0.11815-0.12748-0.30915-0.23326l-0.14453-0.12835-0.16127-0.0837c-0.18373-0.10401-0.24496-0.1754-0.46986-0.18251h-0.27567c-0.12295-0.03364-0.49483-0.3098-0.56529-0.41406-0.07818-0.11604-0.0058-0.21233-0.10658-0.31194-0.08482-0.08375-0.37164-0.11951-0.4269-0.31027-0.0384-0.133 0.05646-0.17322 0.15123-0.22768 0.15721-0.09058 0.25776-0.13754 0.44978-0.12277 0.19672 0.01529 0.21292 0.06031 0.3298 0.19196 0.05054 0.05661 0.09666 0.0945 0.13728 0.16128 0.03097 0.05124 0.045 0.10586 0.08593 0.15402 0.04698 0.05529 0.13379 0.08539 0.2048 0.14286 0.2354 0.18937 0.41112 0.35694 0.73437 0.36049h0.46931c0.18125 0.03537 0.07341 0.10603 0.38728 0.10658 0.42135 5.71e-4 0.44877-0.07613 0.85603 0.08203 0.08068-0.14942 0.21735-0.35873 0.41462-0.35491 0.06054 0.0017 0.09969 0.04241 0.24889 0.05357v-0.19141c-0.18871-0.0066-0.14417-0.06198-0.27735-0.14788-0.07432-0.04794-0.12095-0.03701-0.19029-0.07031l-0.19698-0.13616c-0.12405-0.07454-0.14774-0.03929-0.24721-0.08259l-0.24888-0.15235-0.18862-0.08035c-0.21081-0.12561-0.54348-0.40973-0.62444-0.64509-0.05301-0.15462 0.0357-0.24165 0.11719-0.35714 0.09835-0.13929 0.28815-0.40451 0.42187-0.50167l0.12835-0.0664c0.08096-0.0433 0.12656-0.09293 0.2288-0.07311 0.17959 0.03446 0.2897 0.20154 0.52455 0.20592 0.08897 0.0017 0.33661 0.01377 0.40458-0.02788 0.11245-0.06925 0.14144-0.24804 0.19587-0.3192 0.03235-0.0419 0.07711-0.07138 0.11831-0.1038 0.1329-0.10452 0.15612-0.13606 0.22879-0.28795 0.02012-0.05032 0.05643-0.11836 0-0.16351-0.03174-0.02868-0.1034-0.02691-0.14621-0.02788h-0.11049c-0.17738-0.0041-0.13378-0.02189-0.26005-0.08426l-0.18192-0.06585c-0.12461-0.0638-0.28283-0.19014-0.41462-0.22489-0.07603-0.02-0.22538 0.01837-0.33147 0.01897-0.47108 0.0033-0.27699-0.03333-0.55246-0.07366-0.08015-0.01182-0.17843-0.0017-0.24888-0.02401l-0.35882-0.1769c-0.13345-0.05744-0.09331 0.0084-0.30302-0.13951-0.16716-0.11768-0.35937-0.26855-0.35937-0.48884 0-0.25834 0.18618-0.35674 0.3644-0.49331l0.14452-0.11949c0.14035-0.09005 0.28024 0.0071 0.29129-0.31808h-0.80134c-0.30365-5.71e-4 -0.31649-0.08692-0.5798-0.19364l-0.13728-0.04018-0.12333-0.06864-0.12667-0.04074-0.13784-0.06808-0.19085-0.05301-0.22378-0.15457c-0.07432-0.04009-0.10845-0.04006-0.18527-0.09487l-0.38393-0.32253-0.14509-0.099326c-0.13483-0.10234-0.21153-0.22483-0.29966-0.3644-0.04775-0.07586-0.19253-0.21733-0.16518-0.3019 0.02206-0.06851 0.12006-0.09654 0.18471-0.09654 0.13732-2.2e-4 0.16571 0.08711 0.30413 0.08984 0.15058 0.0033 0.21597-0.09554 0.38672-0.07533 0.1434 0.01694 0.37466 0.15841 0.42578 0.29799 0.01911 0.05256 0.01297 0.10877 0.02231 0.16295 0.0082 0.0476 0.09599 0.31082 0.12444 0.33928 0.04613 0.04669 0.18873 0.05945 0.25614 0.07143l0.15792-0.31584c0.16965-0.17679 0.44656 0.19495 0.57254 0.26227 0.16578 0.08839 0.23186-0.07521 0.42969 0.16295h0.05525c0.13151-0.15217 0.11903-0.09557 0.27679-0.16128 0.14727-0.06132 0.23805-0.11824 0.41295-0.07644 0.11714 0.028 0.10825 0.09472 0.30524 0.11551 0.16328 0.01743 0.33345-0.01047 0.33482-0.20647 0.0023-0.3106-0.41821-0.28296-0.52846-0.34208l-0.2327-0.15402c-0.08068-0.03727-0.13795-0.01069-0.23438-0.05468l-0.55636-0.351c-0.13483-0.08701-0.3689-0.23448-0.48549-0.33929-0.0384-0.03479-0.12714-0.139-0.1462-0.18415-0.04312-0.08346-0.04335-0.37853 0-0.45927 0.03761-0.06156 0.10824-0.09848 0.16351-0.14062l-0.46987-0.22098c-0.10113-0.03909-0.16046-0.01314-0.24777-0.04464l-0.31641-0.17634c-0.06548-0.03115-0.10863-0.02469-0.1741-0.07031l-0.28739-0.25446c-0.07624-0.08593-0.22809-0.29955-0.24107-0.4096-0.01191-0.10016 0.02066-0.20789 0.13505-0.22266 0.16881-0.02189 0.37854 0.16068 0.4827 0.27344 0.17877 0.19294 0.24645 0.18458 0.42411 0.3058 0.08041 0.05471 0.10418 0.11741 0.17299 0.14174 0.12378 0.04405 0.29468-0.08857 0.41127-0.12277 0.06688-0.02 0.34746 0.05474 0.41183 0.09041 0.05301 0.02934 0.07575 0.06419 0.11272 0.10882l0.63114-0.03571 0.3086-0.20257h1.1602l-0.27623-0.30915c-0.19284-0.0066-0.1588-0.07382-0.30413-0.15234-0.10085-0.05446-0.15547-0.02486-0.24609-0.06585-0.06463-0.02925-0.20993-0.14514-0.30636-0.17634-0.12488-0.04041-0.31878 0.0258-0.41852-0.10603-0.08427-0.11138-0.08505-0.42896 0.0625-0.49163 0.15362-0.06536 0.38449-0.01352 0.52623 0.06194 0.0046-0.0419 0.01634-0.05838 0-0.10491-0.01708-0.08482-0.29379-0.35138 0.02343-0.41295h0.22098l-0.02788-0.21317-0.24833-0.17244c-0.03924 0.0214-0.09447 0.0557-0.13839 0.06306-0.07236 0.01198-0.12706-0.02802-0.19308-0.04911-0.18899-0.06025-0.26375-0.12342-0.46987-0.12835h-0.88393l-0.41462-0.13114c-0.06245-0.02602-0.09031-0.05743-0.16574-0.07478l-0.27623-0.01451-0.32924-0.12221-0.12054-0.06529-0.17857-0.05581c-0.08205-0.04281-0.28366-0.23753-0.3019-0.32645-0.02375-0.11524 0.04463-0.1784 0.12947-0.24052 0.16882-0.12371 0.35435-0.17148 0.5519-0.22321-0.063-0.16719-0.12483-0.15507-0.27623-0.20871-0.21965-0.07793-0.18281-0.0641-0.41462-0.07087-0.05032 0.0058-0.11683 0.0066-0.16518 0-0.07406-0.02545-0.09374-0.0544-0.15011-0.08035-0.13234-0.06107-0.28373-0.08673-0.39397-0.19866-0.19065-0.19376 0.06587-0.67238 0.29408-0.65569 0.13179 0.0096 0.15631 0.19776 0.38784 0.36552 0.04141-0.19429-0.08707-0.18579-0.0346-0.32701 0.05334-0.14366 0.18705-0.13 0.31083-0.14286 0.12295-0.01297 0.20521-0.05202 0.33147-0.02845 0.24313 0.04586 0.25493 0.12887 0.41462 0.14118 0.25723 0.01969 0.28772-0.10464 0.46205-0.23382 0.16882-0.12507 0.20817-0.07408 0.2673-0.12109 0.05364-0.04273 0.02783-0.10173 0.10156-0.21038l0.41295-0.54911c0.08841-0.11056 0.23532-0.09834 0.33092-0.36161l-0.02791-0.02734-0.55246 0.02677-0.22098-0.0212-0.30413 0.01731c-0.08261-0.01114-0.17012-0.06808-0.24721-0.10491-0.12488-0.06024-0.3846-0.21227-0.33872-0.38058 0.021-0.07669 0.1002-0.09752 0.16015-0.13505l0.23717-0.16574c0.07546-0.03586 0.12282-0.02343 0.18415-0.04632l0.28571-0.17634c0.11466-0.05289 0.22257-8.58e-4 0.35435-0.0519 0.26856-0.10399 0.33647-0.21127 0.44698-0.27121l0.38225-0.16853c-0.08233-0.08483-0.2024-0.18995-0.32701-0.20033-0.06602-0.0058-0.09672 0.0303-0.17187 0.01897l-0.19197-0.0625h-0.44196c-0.17323-0.0033-0.45106 0.05609-0.55301-0.11217-0.19838-0.06-0.34063-0.30518-0.1663-0.47266 0.1655-0.15871 0.2585-0.12946 0.46931-0.12946v-0.13616c-0.02291-0.24439-0.22259-0.08251-0.44085-0.16685l-0.13839-0.06138-0.24721-0.04297-0.12333-0.0625-0.15402-0.04018c-0.17462-0.05231-0.14056-0.08907-0.35938-0.09208-0.28707-0.0041-0.2549 0.03139-0.52511-0.08761-0.15417-0.06792-0.5094-0.14519-0.52846-0.34989-0.01377-0.14888 0.19502-0.28406 0.33538-0.27121 0.21136 0.0194 0.30154 0.26945 0.49219 0.22265 0.05495-0.0134 0.09674-0.05917 0.14565-0.08482l0.13449-0.05803c0.06934-0.03984 0.22584-0.20479 0.26562-0.27511 0.06524-0.11521 0.02414-0.28416 0.17913-0.31864 0.23788-0.05281 0.24584 0.21645 0.24888 0.36942v0.27846c0.25198-0.07669 0.0534-0.17727 0.149-0.2952 0.10637-0.11821 0.43573-0.05471 0.56752 0 0-0.10946-0.01058-0.44822 0.01618-0.52567 0.03701-0.10617 0.20009-0.27484 0.28795-0.34654 0.14726-0.12014 0.22924-0.10906 0.30301-0.19308 0.07709-0.08785 0.04044-0.16303 0.07645-0.25335 0.0329-0.08348 0.10779-0.13532 0.17299-0.19252-0.17711-0.04966-0.56803-0.01708-0.93638-0.15346 0 0-0.62436 0.01058-0.87556 0.13505-0.32444 0.14511-0.91183 0.09319-0.91183 0.09319-0.39427-0.05801-0.05457-0.61885 0.04297-0.76116 0.06882-0.10043 0.06768-0.22139 0.16964-0.27065 0.03507-0.01397 0.07018-0.0134 0.10658 0 0.14643 0.04273 0.1384 0.17761 0.13895 0.30022 0.1561-0.09496 0.38304-0.51406 0.77344-0.51953 0.41113-0.0058 0.2201-0.04161 0.44252-0.09765 0.09531-0.02429 0.187 0.0078 0.24944-0.05525 0.09145-0.07934 0.08482-0.22352 0-0.29688-0.04141-0.029-0.09527-0.04577-0.13672-0.06809-0.05218-0.02835-0.08597-0.06211-0.14509-0.08203-0.03507-0.0041-0.42077-0.0854-0.75112-0.0519-0.33492 0.13478-0.87444 0.0519-0.87444 0.0519-0.29868-5e-3 -0.23863-0.05863-0.41462-0.10045l-0.19308-0.03125-0.13839-0.06474-0.16239-0.04464c-0.07266-0.02925-0.24877-0.19487-0.29464-0.25837-0.04699-0.06536-0.11795-0.18338-0.05525-0.25726 0.08262-0.0969 0.43877-0.06737 0.56752-0.06027h0.30302c0.09117-0.01125 0.12431-0.0774 0.22322-0.10993 0.04141-5e-3 0.09361-5e-3 0.13672 0 0.25806-9e-3 0.33033 0.04219 0.49721 0.24052h0.05525c0.0685-0.08483 0.16683-0.21035 0.27678-0.23772 0.08952-0.02214 0.27298 0.01368 0.33929-0.03571 0.02486-0.01826 0.10969-0.18097 0.226-0.2606 0.08317-0.05719 0.14681-0.03043 0.23549-0.0491l0.24888-0.09598 0.58036-0.31194c0.11411-0.04272 0.32371-0.01537 0.44196 0l-0.11049-0.2952c-0.17047-0.09387-0.24193-0.21546-0.44197-0.21931h-1.0502c-0.34729-5.71e-4 -0.3002-0.07358-0.52455-0.10101l-0.33203 0.01897c-0.11273 5.71e-4 -0.48337-0.01357-0.5798-0.03571-0.09118-0.02106-0.13035-0.07179-0.22098-0.09263l-0.22154-0.01786c-0.16108-0.0314-0.17424-0.11382-0.38672-0.09821-0.17876 0.01314-0.22453 0.13367-0.38672 0.09208-0.29508-0.07644-0.02271-0.298 0.08091-0.399 0.05441-0.05339 0.10333-0.11739 0.1702-0.15569l0.19085-0.08761 0.49776-0.32533c0.12958-0.07536 0.17112-0.04387 0.23494-0.0837 0.05001-0.03115 0.09631-0.10784 0.13002-0.15681 0.12543-0.18308 0.20767-0.29365 0.1596-0.5279-0.19258 0.079-0.16071 0.10883-0.38672 0.10993h-1.409c-0.1224 0-0.55414 0.042-0.58314-0.11216-0.0085-0.04536 0.02947-0.10126 0.04743-0.1423 0.14948-0.33853 0.36967-0.22861 0.50837-0.51897-0.11522-0.01646-0.13975 0.0066-0.22154 0-0.07346-0.01851-0.11185-0.05547-0.19308-0.04688-0.08869 0.0093-0.08585 0.05122-0.30413 0.05692h-0.22098c-0.14064 0.02654-0.22701 0.13406-0.3856 0.09821-0.06054-0.01363-0.09671-0.04555-0.14286-0.07869-0.18124-0.11739-0.18843-0.23736 0-0.36161 0.13787-0.08648 0.42288-0.01651 0.55301-0.05245 0.14783-0.04074 0.06407-0.15867 0.30692-0.21038l0.02009-0.13449 0.24498-0.43415 0.14955-0.14286c-0.28569 0.0041-0.22784 0.09755-0.44197 0.19197-0.0862 0.03801-0.14196 0.01672-0.22098 0.04241-0.09975 0.03223-0.17563 0.12697-0.30134 0.06585-0.03954-0.01908-0.08902-0.06588-0.11942-0.09765-0.13566-0.14176-0.04975-0.25186 0.05134-0.38951 0.09891-0.13438 0.26298-0.22963 0.33426-0.31417 0.08013-0.09522 0.05192-0.15388 0.11049-0.23214 0.07791-0.10427 0.37323-0.25934 0.50446-0.27958l0.01617-0.10714 0.13895-0.29018 0.09374-0.06807 0.02792-0.16406c-0.28292-8.58e-4 -0.18863-0.03584-0.35938-0.09375-0.0682-0.02354-0.12004-0.01111-0.18304-0.05971-0.06162-0.0476-0.24788-0.3403-0.28683-0.42132-0.10361 0.05868-0.33421 0.22793-0.44197 0.24219-0.21744 0.02876-0.28177-0.13608-0.36216-0.28906-0.03646-0.06934-0.14678-0.29487-0.14844-0.36384-3e-3 -0.13356 0.17496-0.23324 0.28962-0.2461l0.1769-0.19643c0.05635-0.08181 0.10996-0.48885-0.11384-0.41797-0.08427 0.02654-0.15811 0.13694-0.23382 0.17634-0.07345 0.03859-0.12356 0.01523-0.20424 0.05357-0.14007 0.06644-0.27243 0.15836-0.4241 0.19531-0.09478 0.02271-0.20039 0.128-0.29074 0.03795-0.0978-0.09741-0.0206-0.28842 0.03962-0.38448l0.10212-0.19085c0.04173-0.05421 0.11954-0.0925 0.21819-0.22879l0.1077-0.18973 0.15234-0.19587c-0.07485-0.07934-0.07377-0.08385-0.08259-0.1914-0.13344-0.07479-0.14445-0.27408-0.07924-0.40569l0.18416-0.25898c0.03151-0.05801 0.04611-0.1201 0.06083-0.18359-0.24452 0.0083-0.32232 0.16046-0.49833 0.2048-0.06409 0.01883-0.26651 0.02031-0.32813 0-0.16605-0.06289-0.26696-0.25548-0.20368-0.42132 0.08564-0.22387 0.3031-0.24153 0.31194-0.52232-0.20281 0.10126-0.19718 0.07873-0.41462 0.08203-0.21523 0.0041-0.15907 0.05955-0.30413 0.09765-0.19755 0.05206-0.48227 0.0214-0.58036-0.18248-0.04969-0.1029-8e-3 -0.20456 0.0865-0.26284l0.30078-0.13672 0.13783-0.02343c0.1597-0.04959 0.12536-0.11127 0.33147-0.06696l0.02791-0.08259-0.02791-0.02734c-0.20751-0.0066-0.61792-0.2418-0.63505-0.46485-0.0046-0.05719 0.03536-0.11672 0.06361-0.16406 0.047-0.07934 0.04995-0.09075 0.12946-0.13727v-0.19142c-0.23899 0.01885-0.16402 0.10472-0.41406 0.10938-0.09642 0.0017-0.24342 0.01343-0.31138-0.06641-0.10638-0.12506 0.02682-0.2117 0.05468-0.32143l0.03571-0.26897c-0.3089-0.05741-0.30491 0.13224-0.52511 0.20312-0.1691 0.05471-0.34084-0.08145-0.24386-0.25447 0.05581-0.10015 0.21978-0.13431 0.3231-0.19698 0.18705-0.11329 0.19671-0.21036 0.19699-0.40848-0.07215 2.63e-4 -0.14267-0.0066-0.20926 0.02566-0.10057 0.04818-0.2567 0.19075-0.37109 0.17188-0.18814-0.0314-0.21155-0.26578-0.18918-0.41629 0.01826-0.1215 0.07451-0.13713 0.10714-0.27344 0.05364-0.22248-0.08145-0.54187-0.27678-0.6568z" fill="#883a14"/>
  <path d="m92.542 57.969c0 0.05554 0.0098 0.17149-0.0346 0.20982-0.06126 0.05254-0.2304-0.09493-0.26842-0.14118h-0.02791l-0.0134 0.0134c-0.0023 0.10097-0.08816 0.1869-0.15179 0.25949 0.01554 0.02686 0.0413 0.06405 0.04185 0.09543 5.72e-4 0.05499-0.0714 0.12315-0.08873 0.17746-0.03198 0.10069 0.09812 0.1565 0.07813 0.22991-0.01832 0.06755-0.09549 0.01949-0.12556-0.0084 0.03086 0.02864-0.15316-0.18951-0.12947-0.15514-0.02686-0.03896-0.01997-0.07381-0.04575-0.09375-0.02618-0.01989-0.12196-0.01394-0.15736-0.01394 0.01351 0.02663 0.02854 0.05284 0.03571 0.08203 0.01883 0.07831 0.0021 0.34167-0.02009 0.42299-0.01437 0.05375-0.02215 0.12873-0.08537 0.14565-0.16752 0.04476-0.14148-0.08242-0.3298-0.1183 1.28e-4 0.16633 0.02363 0.10572 0.03962 0.20424 7e-3 0.04284-0.0023 0.08485 0.02399 0.12277 0.0329 0.04707 0.15384 0.08994 0.13951 0.16908-0.01069 0.05799-0.08806 0.06238-0.13393 0.06306-0.24548 0.0033-0.15793-0.02743-0.28962-0.05022l-0.15122-0.01004c-0.09823-0.0258-0.01111-0.04855-0.20703-0.04855v0.02677c0.16255 0.0041 0.16703 0.11684 0.08259 0.16406 0.023 0.152 0.17441 0.15413 0.21931 0.17746 0.03031 0.01583 0.06589 0.05609 0.09263 0.08035 0.04879 0.04435 0.08271 0.06278 0.07198 0.13728-0.01026 0.07191-0.15289 0.1221-0.21819 0.12333-0.05634 0.0012-0.29123 0.0056-0.3298-0.0078l-0.05971-0.03404-0.07924-0.03349c-0.06874-0.03939-0.06279-0.06141-0.15123-0.07478 0.03361 0.05376 0.11276 0.10572 0.1596 0.15457l0.13839 0.18304c0.02837 0.03716 0.09065 0.14641 0.07757 0.19252-0.02618 0.09223-0.13372 0.03541-0.18304 0.01505-0.05993-0.02443-0.0968-0.0023-0.15011-0.02677l-0.29018-0.19085c0.06804 0.12035 0.14559 0.14756 0.18471 0.19531l0.04353 0.07254 0.05692 0.05079 0.09821 0.10993 0.05134 0.07757c0.03829 0.03555 0.09426 0.03733 0.15681 0.10212 0.09947 0.10329 0.07886 0.20474-0.08203 0.19587-0.07798-0.0043-0.07971-0.02786-0.13783-0.04631-0.03334-0.01047-0.05901-0.0056-0.09263-0.02288l-0.10826-0.07533c-0.04409-0.02443-0.06229-0.01443-0.101-0.03404l-0.1038-0.07534c-0.04189-0.02314-0.0659-0.015-0.10268-0.03404l-0.1038-0.08147c-0.0427-0.02143-0.11965-0.0032-0.21428-0.02566-2.52e-4 0.07273-0.02114 0.13137 0.02958 0.19141 0.06199 0.0734 0.1286 0.09167 0.20257 0.1423 0.06502 0.04448 0.20278 0.1882 0.24163 0.2567 0.04932 0.08677 0.0059 0.19944-0.08928 0.23438-0.02503 0.0091-0.06816 0.0082-0.09543 0.0078-0.14547-0.0026-0.05776-0.05414-0.23382-0.05468 0.03732 0.13112 0.10137 0.12757 0.14118 0.18024l0.07924 0.17467h0.27511c0.0412 0 0.09906-0.0045 0.13225 0.02342 0.05634 0.04747 0.03549 0.13119-0.03627 0.16462-0.16972 0.079-0.17655 0.05637-0.3577 0.05748-0.13059 8.56e-4 -0.09056 0.03181-0.17913 0.0519h-0.26172c-0.16283 0.0026-0.11404-0.02411-0.20647-0.04632l-0.16518-0.010616-0.12388-0.047989h-0.19308c0.01849 0.08448 0.03906 0.07391 0.06083 0.13448 0.01423 0.03956 0.0038 0.08054 0.05134 0.101 0.1003 0.04326 0.17716-0.0606 0.32868-0.04408l0.27288 0.06808c0.08595 0.04231 0.0756 0.09161 0.19531 0.09543h0.17913c0.02106-0.0021 0.0484-0.0021 0.06864 0 0.15001 0.04529 0.0057 0.18661-0.12388 0.19029h-0.21987l-0.19587 0.03962c0.0026 0.03314 0.0049 0.09247 0 0.12277-0.03042 0.10656-0.16053 0.17072-0.27734 0.17522-0.0562 0.0026-0.12503-0.02783-0.17132-0.03795l-0.09878-9e-3 -0.11105 0.03739h-0.17913c0.03253 0.06044 0.05759 0.05917 0.05524 0.13449l0.30302 0.20033 0.34431 0.0212c0.07384 0.0128 0.11373 0.06398 0.17132 0.09319 0.04011 0.02031 0.10774 0.01394 0.12165 0.06864 0.01037 0.04176-0.0383 0.07303-0.06696 0.09487-0.01614 0.01229-0.02566 0.02049-0.04353 0.02846 0.0012-0.0026-0.17966 0.06021-0.17578 0.06194l-0.08928 0.01843c0.04393 0.08145-0.90678 0.11228-0.90678 0.11228l-0.17525 1.5864 0.11607 13.207 5.0893 0.05078s0.09326-0.04921 0.11551-0.1116l0.06864-0.20424c0.16338 0.13079 0.19458 0.14857 0.34487 0l0.23047-0.23326c0.0383-0.04156 0.11493-0.14923 0.17578-0.1423 0.03796 0.0043 0.11706 0.07202 0.16239 0.0943 0.08879 0.0434 0.14522 0.02803 0.23437 0.08706 0.06993 0.04668 0.13795 0.14487 0.25112 0.14788 0.13204 0.0038 0.15344-0.12085 0.22098-0.1769 0.06082-0.04221 0.34734-0.03107 0.41853 0 0.19442 0.0681 0.21269 0.31171 0.39676 0.3337 0.27808 0.0331 0.09675-0.22928 0.22544-0.32812 0.12839-0.09824 0.34299 0.02248 0.47322 0.06194 0.02654-0.06208 0.06939-0.24067 0.13114-0.26116 0.08735-0.02923 0.15747 0.09679 0.2673 0.15346 0.24066 0.12475 0.3502 0.05121 0.57534 0.02288 0.13386-0.0166 0.28278-0.0092 0.30803-0.18527 0.02066-0.14585-0.05882-0.06332-0.15402-0.11607l-0.07198-0.06418-0.08035-0.04186c-0.09157-0.05184-0.12224-0.08743-0.23438-0.09096h-0.13783c-0.06126-0.01675-0.24612-0.15449-0.28125-0.20647-0.03895-0.05785-0.0037-0.10602-0.05357-0.15569-0.04229-0.04178-0.18506-0.05948-0.21261-0.15458-0.0192-0.06633 0.02805-0.08614 0.07533-0.11328 0.07837-0.04518 0.1286-0.06876 0.22433-0.06139 0.09812 0.0078 0.10583 0.02977 0.16406 0.09543 0.0252 0.02823 0.04843 0.0476 0.06864 0.08091 0.01543 0.02552 0.02255 0.05246 0.04297 0.07646 0.02343 0.02757 0.06671 0.04279 0.10212 0.07143 0.11737 0.09443 0.20491 0.17792 0.36607 0.17969h0.23382c0.09034 0.0176 0.03662 0.05273 0.19308 0.05301 0.21008 2.85e-4 0.2244-0.03815 0.42746 0.04073 0.04018-0.07449 0.10807-0.17881 0.20647-0.1769 0.03019 0.0012 0.04952 0.02126 0.12389 0.02677v-0.09543c-0.09412-0.0032-0.07201-0.03079-0.1384-0.07366-0.03707-0.02392-0.06025-0.01857-0.09487-0.03516l-0.09821-0.06752c-0.06182-0.03715-0.07371-0.01969-0.12333-0.04129l-0.12388-0.07589-0.09431-0.04018c-0.10511-0.06262-0.27046-0.20409-0.31083-0.32143-0.02642-0.07709 0.0174-0.12043 0.05803-0.17802 0.04906-0.06945 0.14372-0.20211 0.21038-0.25056l0.06418-0.03293c0.04041-0.02158 0.0628-0.04671 0.11384-0.03682 0.08957 0.01717 0.14463 0.10105 0.26172 0.10324 0.04439 0.0012 0.16756 0.0064 0.20145-0.01451 0.05606-0.03451 0.07057-0.12356 0.09765-0.15904 0.01611-0.02088 0.03862-0.03517 0.05915-0.05134 0.06627-0.05212 0.07813-0.06825 0.1144-0.14398 0.0099-0.02509 0.02819-0.05897 0-0.08148-0.01589-0.01429-0.05179-0.01346-0.07311-0.01394h-0.05525c-0.08846-0.0021-0.06652-0.0108-0.12947-0.04185l-0.09096-0.03293c-0.06216-0.03181-0.14076-0.09484-0.20647-0.11217-0.03786-0.0099-0.11228 0.0092-0.16518 0.0095-0.23487 0.0017-0.13832-0.01674-0.27567-0.03682-0.03996-0.0058-0.0887-5.71e-4 -0.12388-0.01172l-0.17913-0.08817c-0.06659-0.02864-0.04664 4e-3 -0.15122-0.06975-0.08335-0.05867-0.17913-0.13403-0.17913-0.24386 0-0.1288 0.09309-0.17745 0.18192-0.24554l0.07199-0.0597c0.06993-0.04489 0.13958 0.0036 0.14509-0.15848h-0.39955c-0.1514-2.82e-4 -0.15778-0.0439-0.28906-0.0971l-0.06864-0.01955-0.06139-0.0346-0.06305-0.02009-0.06864-0.03404-0.09543-0.02623-0.1116-0.077c-0.03707-0.02-0.05367-0.02012-0.09208-0.04744l-0.19141-0.16071-0.07255-0.04966c-0.06726-0.05103-0.10562-0.11233-0.14955-0.18192-0.02375-0.03784-0.09569-0.1085-0.08204-0.15067 0.01109-0.03416 0.0599-0.04799 0.09208-0.04799 0.06848-1.08e-4 0.08279 0.04384 0.15178 0.0452 0.07503 0.0017 0.10737-0.04802 0.19252-0.03795 0.07148 0.0084 0.18712 0.0794 0.21261 0.149 0.0099 0.0262 0.0062 0.0539 0.01058 0.08091 0.0044 0.02371 0.04831 0.15545 0.0625 0.16964 0.023 0.02328 0.09414 0.02919 0.12779 0.03516l0.07868-0.15737c0.08458-0.08815 0.22233 0.09701 0.28516 0.13058 0.0827 0.04406 0.11565-0.03727 0.21429 0.08148h0.02791c0.06559-0.07587 0.05923-0.0476 0.13783-0.08035 0.07347-0.03056 0.11872-0.05936 0.20591-0.03851 0.05839 0.01397 0.05354 0.04769 0.15179 0.05803 0.08136 0.0086 0.16672-0.0054 0.16741-0.10324 0.0012-0.15486-0.20842-0.14072-0.26339-0.1702l-0.11607-0.077c-0.04018-0.01857-0.06916-0.0054-0.11719-0.02734l-0.27678-0.17522c-0.06726-0.04339-0.18462-0.11683-0.24275-0.16908-0.0192-0.01734-0.063-0.069-0.07255-0.09152-0.02142-0.04162-0.02154-0.18854 0-0.2288 0.01877-0.03069 0.05395-0.04928 0.08148-0.07031l-0.23437-0.10993c-0.05039-0.01948-0.07982-0.0066-0.12333-0.02231l-0.15792-0.08817c-0.03262-0.01554-0.05386-0.0124-0.0865-0.03516l-0.14341-0.12667c-0.03796-0.04284-0.11351-0.14938-0.11998-0.20424-0.0055-0.04993 0.0096-0.10368 0.06696-0.11105 0.08413-0.01085 0.18858 0.07996 0.24051 0.13616 0.08913 0.09619 0.12293 0.09245 0.2115 0.1529 0.04006 0.02726 0.0522 0.05817 0.0865 0.07031 0.0617 0.02198 0.14667-0.04379 0.2048-0.06083 0.0333-0.0099 0.17326 0.02686 0.20536 0.04464 0.02642 0.01463 0.03795 0.03188 0.05636 0.05413l0.31473-0.01731 0.15346-0.101h0.57868l-0.13783-0.15456c-0.09613-0.0033-0.07937-0.03674-0.15179-0.07589-0.05028-0.02714-0.07696-0.01248-0.12221-0.03293-0.03218-0.0146-0.10479-0.07205-0.1529-0.08761-0.06226-0.02014-0.15897 0.01271-0.20871-0.05301-0.04195-0.05554-0.04222-0.21373 0.03125-0.24498 0.07657-0.03259 0.19162-0.0069 0.26228 0.03069 0.0023-0.02088 0.0079-0.02926 0-0.05245-0.0089-0.04229-0.14649-0.17522 0.01172-0.20591h0.10993l-0.01394-0.10603-0.12389-0.08593c-0.01955 0.01069-0.04665 0.02811-0.06864 0.03181-0.03608 0.0059-0.06356-0.01403-0.09654-0.02455-0.09423-0.03003-0.13162-0.06173-0.23438-0.06418h-0.44085l-0.20647-0.06529c-0.03108-0.01297-0.04497-0.02872-0.08259-0.03739l-0.13784-0.0072-0.16406-0.06083-0.06027-0.03293-0.08873-0.02788c-0.04096-0.02135-0.14158-0.11805-0.15067-0.16239-0.01189-0.05746 0.02246-0.08901 0.06473-0.11998 0.08413-0.06168 0.17662-0.08581 0.27511-0.11161-0.03141-0.08337-0.06232-0.07706-0.13783-0.1038-0.10956-0.03887-0.09087-0.03178-0.20648-0.03516-0.02509 0.0029-0.05852 0.0033-0.08259 0-0.03696-0.01269-0.0466-0.02722-0.07478-0.04018-0.06603-0.03045-0.14146-0.04352-0.19643-0.09934-0.09502-0.09661 0.03237-0.33477 0.1462-0.32645 0.06571 0.0048 0.07825 0.09828 0.19364 0.18192 0.02066-0.09686-0.04337-0.09253-0.01729-0.16294 0.02663-0.07163 0.09342-0.06447 0.15513-0.07087 0.06126-0.0065 0.10221-0.02626 0.16518-0.01451 0.12122 0.02286 0.12686 0.06418 0.20647 0.07031 0.12826 0.0097 0.14355-0.05222 0.23047-0.11663 0.08413-0.06236 0.10393-0.03682 0.13337-0.06027 0.02675-0.02129 0.01415-0.05072 0.05079-0.10491l0.20591-0.274c0.04406-0.05513 0.11696-0.04898 0.16462-0.18024l-0.0134-0.0134-0.27567 0.0134-0.11049-0.01058-0.15123 0.0084c-0.04119-0.0055-0.0849-0.03409-0.12332-0.05245-0.06225-0.03003-0.19195-0.10526-0.16909-0.18917 0.0099-0.03825 0.04997-0.04881 0.0798-0.06752l0.1183-0.08259c0.03762-0.01788 0.06145-0.01149 0.09208-0.02288l0.1423-0.08817c0.05716-0.02637 0.1112-1.78e-4 0.1769-0.02566 0.1339-0.05184 0.16757-0.10572 0.22265-0.1356l0.19029-0.08426c-0.04107-0.0423-0.10077-0.09415-0.16294-0.09933-0.03286-0.0029-0.04787 0.01465-0.08539 9e-3l-0.09598-0.03069h-0.22042c-0.08636-0.0017-0.22483 0.02755-0.27567-0.05636-0.09889-0.02991-0.16952-0.15199-0.08259-0.23549 0.08246-0.07913 0.12871-0.06474 0.23382-0.06474v-0.06752c-0.01143-0.12185-0.11105-0.04109-0.21987-0.08315l-0.06864-0.03069-0.12333-0.02177-0.06194-0.03069-0.07645-0.02009c-0.08703-0.02609-0.07008-0.04425-0.17913-0.04575-0.14313-0.0021-0.12699 0.01526-0.26172-0.04408-0.07681-0.03386-0.25445-0.07205-0.26395-0.17411-0.0067-0.07424 0.09744-0.14201 0.16741-0.1356 0.10533 0.0096 0.15049 0.13439 0.24553 0.11105 0.02743-0.0067 0.04813-0.02963 0.07255-0.04242l0.06696-0.02845c0.03452-0.01986 0.11242-0.10222 0.13226-0.13728 0.03253-0.05745 0.01203-0.14185 0.08928-0.15904 0.1186-0.02632 0.12292 0.10788 0.12444 0.18415v0.13895c0.12562-0.03825 0.0266-0.08853 0.07422-0.14732 0.05307-0.05895 0.2172-0.02729 0.28292 0 0-0.05458-0.0056-0.22366 0.0078-0.26227 0.01843-0.05292 0.09954-0.13668 0.14341-0.17243 0.07337-0.05991 0.11444-0.05465 0.15123-0.09654 0.03841-0.0438 0.02054-0.08109 0.03851-0.12612 0.01642-0.04161 0.05342-0.06747 0.08594-0.09598-0.08824-0.02477-0.28342-0.0084-0.46707-0.07645 0 0-0.31114 0.0049-0.43639 0.06696-0.16177 0.07234-0.4548 0.04688-0.4548 0.04688-0.19658-0.02893-0.02686-0.30851 0.02177-0.37946 0.0343-0.05007 0.03342-0.11049 0.08426-0.13505 0.01755-7e-3 0.03548-0.0067 0.05357 0 0.07303 0.02128 0.06897 0.08843 0.0692 0.14955 0.0778-0.04735 0.19095-0.2562 0.3856-0.25893 0.20498-0.0029 0.10956-0.0206 0.22042-0.04855 0.0475-0.01212 0.09326 4e-3 0.12444-0.02734 0.04562-0.03955 0.04229-0.11187 0-0.14844-0.02066-0.01446-0.04745-0.02291-0.06808-0.03404-0.02597-0.01415-0.04302-0.0308-0.07255-0.04073-0.01754-0.0021-0.20974-0.04238-0.37444-0.02566-0.16699 0.06719-0.43582 0.02566-0.43582 0.02566-0.14891-0.0026-0.11872-0.02938-0.20647-0.05022l-0.09654-0.01563-0.0692-0.03236-0.08091-0.02177c-0.03619-0.0146-0.12389-0.09723-0.14677-0.12891-0.0234-0.03258-0.05864-0.09152-0.02734-0.12835 0.04118-0.0483 0.21873-0.03367 0.28293-0.03014h0.15067c0.0454-0.0055 0.06226-0.03848 0.1116-0.05468 0.02066-0.0026 0.04655-0.0026 0.06809 0 0.12867-0.0044 0.16512 0.02109 0.24833 0.11998h0.02734c0.03418-0.0423 0.08298-0.10521 0.13784-0.11886 0.04463-0.01097 0.13602 0.0068 0.16908-0.01786 0.01243-0.0091 0.05476-0.08976 0.11272-0.12946 0.04151-0.02852 0.07358-0.01523 0.11774-0.02455l0.12388-0.04799 0.28906-0.15569c0.05694-0.02132 0.16146-0.0078 0.22042 0l-0.05468-0.14732c-0.08503-0.04681-0.12068-0.1069-0.22042-0.10882h-0.52344c-0.17315-2.57e-4 -0.14986-0.03656-0.26172-0.05022l-0.16574 9e-3c-0.05616 2.86e-4 -0.24098-0.0069-0.28906-0.01786-0.04539-0.01047-0.06531-0.03538-0.11049-0.04576l-0.10993-9e-3c-0.08035-0.01566-0.08715-0.05689-0.19308-0.0491-0.08913 0.0066-0.11165 0.06649-0.19252 0.04575-0.14712-0.03811-0.01158-0.14887 0.04018-0.19922 0.0272-0.02663 0.05153-0.05791 0.08482-0.07702l0.09487-0.04408 0.24833-0.16239c0.0646-0.03757 0.08539-0.02143 0.11719-0.04129 0.02497-0.01554 0.04798-0.05371 0.06474-0.07813 0.06249-0.09128 0.10388-0.1466 0.0798-0.26339-0.09601 0.03939-0.08038 0.05413-0.19308 0.05468h-0.70257c-0.06105 0-0.27628 0.02106-0.29074-0.05581-0.0044-0.02263 0.01443-0.05041 0.02343-0.07087 0.07447-0.16879 0.18475-0.11416 0.2539-0.25893-0.05749-0.0082-0.06964 0.0033-0.11049 0-0.03663-0.0092-0.05603-0.02771-0.09654-0.02343-0.04419 0.0046-0.04243 0.02562-0.15123 0.02845h-0.11049c-0.07015 0.01323-0.1129 0.06698-0.19196 0.0491-0.03019-0.0068-0.04833-0.02255-0.07143-0.03906-0.09035-0.05853-0.0939-0.11886 0-0.18081 0.0687-0.04312 0.2108-0.0078 0.27567-0.02566 0.07371-0.02031 0.03182-0.07912 0.1529-0.10491l0.01004-0.06696 0.12221-0.21708 0.07478-0.07087c-0.14244 0.0021-0.11367 0.04836-0.22042 0.09543-0.04296 0.01894-0.07109 0.0089-0.11049 0.02177-0.04973 0.01609-0.08741 0.06284-0.15011 0.03236-0.01965-0.0095-0.0445-0.03271-0.05971-0.04855-0.06759-0.07069-0.02472-0.12557 0.02566-0.1942 0.04928-0.06699 0.13131-0.11465 0.16685-0.15681 0.03997-0.04746 0.02606-0.0765 0.05525-0.11551 0.03885-0.052 0.18624-0.12942 0.25167-0.13951l0.0078-0.05357 0.0692-0.14453 0.04688-0.03404 0.0134-0.08148c-0.14105-2.85e-4 -0.09396-0.018-0.17913-0.04688-0.03408-0.01174-0.05955-0.0053-0.09096-0.02958-0.03074-0.02371-0.12343-0.16999-0.14286-0.21038-0.05162 0.02925-0.16725 0.11399-0.22098 0.12109-0.10844 0.01434-0.14016-0.06826-0.18024-0.14453-0.0182-0.03458-0.07343-0.14698-0.07422-0.18136-0.0012-0.06658 0.08738-0.11636 0.14453-0.12277l0.08872-0.09765c0.02809-0.0408 0.05464-0.24404-0.05692-0.2087-0.04195 0.01323-0.07891 0.06852-0.11663 0.08817-0.03663 0.01925-0.06182 0.0078-0.10212 0.02677-0.06981 0.03313-0.13587 0.07868-0.2115 0.0971-0.04729 0.01134-0.10004 0.0639-0.14509 0.01897-0.04872-0.04857-0.0097-0.14351 0.02009-0.1914l0.05079-0.09543c0.02074-0.02703 0.06009-0.04589 0.10937-0.11384l0.05357-0.09487 0.07589-0.09765c-0.0373-0.03956-0.03686-0.04179-0.04129-0.09543-0.06659-0.0373-0.07214-0.13639-0.03962-0.20201l0.09208-0.12891c0.01575-0.02893 0.0228-0.06043 0.03014-0.09208-0.12191 0.0041-0.16113 0.08058-0.24888 0.10268-0.03198 0.0094-0.13279 0.01004-0.1635 0-0.0828-0.03136-0.13309-0.12769-0.10156-0.21038 0.04273-0.11162 0.15129-0.1206 0.15569-0.2606-0.10111 0.05049-0.09808 0.03909-0.20647 0.04073-0.10733 0.0021-0.07947 0.03011-0.15179 0.0491-0.09845 0.02594-0.24072 0.01069-0.28962-0.09096-0.02474-0.0513-0.0044-0.10208 0.04297-0.13114l0.15011-0.06808 0.0692-0.01172c0.0796-0.02472 0.06236-0.05557 0.16518-0.03348l0.01394-0.04129-0.01394-0.0134c-0.10345-0.0033-0.30843-0.12094-0.31697-0.23214-0.0023-0.02851 0.01771-0.05787 0.03181-0.08148 0.02343-0.03956 0.02512-0.04543 0.06473-0.06864v-0.09543c-0.11915 0.0094-0.08175 0.05236-0.20647 0.05468-0.04806 8.57e-4 -0.12124 0.0069-0.15513-0.03293-0.05306-0.06236 0.01337-0.10545 0.02734-0.16016l0.01729-0.13448c-0.15402-0.02863-0.15193 0.06567-0.26172 0.101-0.08436 0.02729-0.16944-0.04042-0.1211-0.12668 0.02786-0.04993 0.10924-0.06696 0.16072-0.09821 0.09324-0.05649 0.0981-0.1049 0.09821-0.20368-0.03596 1.31e-4 -0.07117-0.0033-0.10435 0.01283-0.05017 0.02403-0.12768 0.09535-0.18471 0.08594-0.09379-0.01566-0.10606-0.13254-0.09487-0.20759 0.0089-0.06057 0.03726-0.06875 0.05357-0.13672 0.02668-0.11069-0.04021-0.26938-0.13728-0.32701z" fill="#7d2d0f"/>
  <path d="m23.117 52.169-5.71e-4 0.0012c0 0.15176 0.02878 0.46834-0.0943 0.5731-0.16752 0.14358-0.62991-0.26031-0.73382-0.38672h-0.07533l-0.03739 0.03739c-0.0073 0.27595-0.24069 0.50976-0.41462 0.70815 0.0425 0.07342 0.11234 0.1754 0.11384 0.26116 0.0023 0.15028-0.19475 0.33652-0.24219 0.48493-0.08735 0.27519 0.26832 0.42772 0.21373 0.62835-0.0501 0.18459-0.26112 0.05413-0.34319-0.02177 0.08426 0.07826-0.41855-0.51806-0.3538-0.42411-0.07343-0.10652-0.05515-0.20168-0.12556-0.25614-0.07151-0.05438-0.33293-0.03851-0.42969-0.03851 0.03691 0.07274 0.07815 0.14398 0.09765 0.22377 0.05157 0.21405 0.0052 0.934-0.05468 1.1563-0.03923 0.14691-0.06045 0.35221-0.23326 0.39844-0.4578 0.12232-0.38658-0.22614-0.90123-0.32422 3.71e-4 0.45457 0.0646 0.28992 0.10826 0.55915 0.0192 0.1171-0.0064 0.23172 0.06585 0.33538 0.08997 0.12866 0.41918 0.24577 0.38002 0.46205-0.02902 0.15848-0.2407 0.17059-0.36607 0.17243-0.67087 9e-3 -0.43083-0.07446-0.79074-0.13672l-0.4135-0.028469c-0.26843-0.07049-0.02995-0.13337-0.56529-0.13337v0.07478c0.44423 0.01125 0.45678 0.3185 0.226 0.44754 0.06286 0.41542 0.47605 0.42062 0.59877 0.48438 0.0829 0.04324 0.17919 0.15406 0.25223 0.22042 0.13327 0.1212 0.22691 0.17197 0.19754 0.37556-0.02827 0.19652-0.41865 0.33315-0.5971 0.33649-0.15398 0.0033-0.79471 0.01483-0.90011-0.02177l-0.16406-0.09207-0.2154-0.09152c-0.18786-0.10765-0.17237-0.16826-0.41406-0.2048 0.09186 0.14692 0.30782 0.28893 0.43583 0.42243l0.37891 0.49944c0.07751 0.10157 0.24726 0.40132 0.2115 0.52734-0.07152 0.25207-0.36467 0.09637-0.49944 0.04073-0.16378-0.06678-0.26502-0.0059-0.41072-0.07255l-0.79408-0.52232c0.18597 0.3289 0.39867 0.40353 0.50558 0.53404l0.11886 0.19754 0.15569 0.13951 0.26897 0.30022 0.14007 0.21261c0.10461 0.09718 0.25709 0.10192 0.42801 0.27902 0.27182 0.28227 0.21538 0.55939-0.22433 0.53516-0.21309-0.01182-0.21725-0.07621-0.37612-0.12667-0.09113-0.02871-0.16205-0.01566-0.25391-0.0625l-0.29521-0.20708c-0.12048-0.06678-0.16987-0.03904-0.27567-0.09263l-0.28348-0.20536c-0.11445-0.06328-0.18074-0.04117-0.28125-0.09319l-0.28348-0.2221c-0.1167-0.05855-0.32729-0.0087-0.58594-0.07031-7.15e-4 0.19875-0.05701 0.35824 0.08148 0.52232 0.16942 0.20061 0.35085 0.25061 0.55301 0.38895 0.17769 0.12158 0.55399 0.51538 0.66016 0.70257 0.13478 0.23715 0.01653 0.54403-0.24386 0.63951-0.06845 0.02489-0.1855 0.02246-0.26004 0.0212-0.39756-0.0068-0.15894-0.14751-0.64007-0.149 0.10199 0.35835 0.27792 0.34879 0.38672 0.49274l0.2154 0.47656h0.75279c0.11257 0 0.26977-0.01106 0.36049 0.06529 0.15398 0.12976 0.09798 0.35784-0.09821 0.44922-0.46381 0.21591-0.48206 0.15383-0.97712 0.15681-0.3569 0.0023-0.24787 0.088-0.48996 0.14286h-0.71484c-0.445 0.0068-0.31212-0.06655-0.56473-0.12723l-0.45201-0.02845-0.33873-0.13058h-0.52733c0.05042 0.23085 0.10738 0.20161 0.16685 0.36719 0.0388 0.1081 0.01037 0.21974 0.14007 0.27567 0.27407 0.11823 0.48375-0.16566 0.89788-0.12054l0.74665 0.18527c0.23492 0.11562 0.20632 0.2507 0.53348 0.26116h0.4894c0.0576-0.0056 0.13215-0.0056 0.1875 0 0.40997 0.12381 0.01641 0.5106-0.33817 0.52065h-0.60212l-0.53516 0.10826c0.0073 0.09054 0.01319 0.25259 0 0.33538-0.0832 0.29123-0.46312 0.70979-0.78236 0.7221-0.1536 0.0068-0.21893-0.08737-0.34542-0.11496l-0.36998-0.02177-0.30134-0.13225h-0.4894c0.08889 0.16518 0.15707 0.16191 0.15067 0.36775l0.82812 0.54743 0.94141 0.05748c0.20179 0.03502 0.31027 0.1752 0.46763 0.25502 0.10956 0.05552 0.29456 0.03804 0.33259 0.1875 0.02858 0.1141-0.10416 0.1987-0.18248 0.25837-0.04408 0.03355-0.07104 0.05628-0.11998 0.07813 0.0031-0.0068-0.48996 0.16544-0.47935 0.1702l-0.24442 0.04911c0.1201 0.22263 0.26352 0.18488 0.4894 0.18638 0.35164 0.0033 0.42367 0.10898 0.4135 0.44754-0.0096 0.32777-0.15629 0.37145-0.45145 0.37668h-0.4894c-0.0576-0.0045-0.1666-0.0068-0.21931 0-0.06107 0.02206-0.43056 0.0032-0.59319 0.01229-0.14795 0.0079-0.23174-0.08812-0.37667-0.1183l-0.45145-0.01955c-0.23681-0.04099-0.15953-0.13856-0.52734-0.14118-0.63896 0-0.84375 0.26284-0.84375 0.26284v0.07477c0.31059 0.02489 0.23872 0.13534 0.45368 0.24944 0.10655 0.0563 0.22034 0.04893 0.33705 0.05692h0.94141l0.26339 0.12053 0.22433 0.04744 0.20033 0.10324c0.13515 0.04515 0.37666-0.01734 0.50391 0.08817 0.13967 0.11633-0.04177 0.36432-0.12612 0.46875-0.24659 0.30652-0.41231 0.33938-0.76507 0.45759-0.11559 0.03884-0.16751 0.09272-0.30078 0.11496-0.48075 0.07995-0.5544-0.13799-0.94141-0.14062-0.76537-0.0056-0.26327-0.149-1.0915-0.149 0.0073 0.101 0.02988 0.3121 0.07199 0.399 0.11746 0.24425 0.29429 0.23472 0.2288 0.57031l0.37612 0.0212 0.33929 0.16518c0.02975-0.17562 0.11831-0.36611 0.33705-0.34486 0.22136 0.02116 0.2812 0.41476 0.4894 0.43973 0.13928 0.01722 0.19956-0.15984 0.45368-0.12668 0.18787 0.02465 0.23659 0.17139 0.41127 0.13114 0.16338-0.03784 0.31023-0.33866 0.51842-0.21038 0.17018 0.10483 0.12482 0.63239 0.12444 0.8192-3.71e-4 0.14358 0.01249 0.28619-0.09152 0.40178-0.10241 0.11447-0.21781 0.11828-0.36049 0.12054h-0.90346c-0.30231 0.0068-0.3519 0.09176-0.33873 0.37277 0.15361 0.04279 0.59493 0.29882 0.69922 0.41853 0.20593 0.23677 0.01319 0.39695-0.24777 0.40178h-1.2048c-0.39379-0.0023-0.29977-0.08859-0.52679-0.13784l-0.30134-0.02735-0.26339-0.11272-0.37667-0.05748c0.024052 0.29533 0.17174 0.31395 0.37165 0.49107 0.1585 0.14019 0.33726 0.3829 0.3817 0.58984 0.17881 0.10618 0.14937 0.22186 0.15011 0.41016 0.37686-0.04538 0.24863 0.01957 0.45871 0.09152l0.21763 0.04242 0.40737 0.21763c0.2146 0.19167 0.04308 0.46652-0.18471 0.55413-0.08806 0.0339-0.17347 0.0188-0.25893 0.03795-0.14004 0.03097-0.1855 0.10296-0.33873 0.13393-0.26465 0.04133-0.80879 0.0056-1.0915 0-0.44538 0.0033-0.31174-0.0688-0.56473-0.13728-0.095983-0.01531-0.37532-0.0079-0.4894 0-0.052721 0.09728-0.12976 0.21164-0.26228 0.22656-0.07719 0.0033-0.45628-0.2573-0.58203 0-0.020257 0.04583-0.017957 0.09337-0.021763 0.13839 0.1265 0 0.3365-0.01491 0.44531 0.04408 0.096703 0.05292 0.15207 0.15219 0.27065 0.21708l0.18415 0.07311 0.48493 0.35268c0.23267 0.21704 0.010475 0.27074 0.45982 0.39453 0.040593-0.06081 0.071529-0.11314 0.12723-0.1635 0.17054-0.15436 0.36971-0.17226 0.42466 0.08928 0.05525 0.26327-0.10515 0.75022 0.16518 0.90122 0.08248 0.04583 0.35877 0.17102 0.44196 0.13672 0.16603-0.06902 0.08372-0.24794 0.45982-0.25502 0.09228-8.58e-4 0.29041-0.01094 0.36496 0.03851 0.19689 0.13011 0.03216 0.45148-0.05357 0.59431-0.17921 0.29718-0.37605 0.40061-0.649 0.58036-0.1841 0.12156-0.18289 0.1774-0.41518 0.20424v0.37052h0.75279c0.1103-0.0056 0.27648-0.01217 0.36496 0.06194 0.06506 0.05461 0.07783 0.12166 0.08426 0.20145 0.02331 0.28042-0.09089 0.38391-0.29576 0.55246-0.07342 0.06002-0.37574 0.25589-0.45592 0.28348-0.11183 0.03863-0.20867 0.0023-0.32199 0.05412l-0.27902 0.18304c-0.24545 0.14803-0.69644 0.37406-0.97879 0.38114l0.18248 0.22712c0.092605 0.15775 0.11842 0.3426 0.34431 0.44141 0.08173 0.03311 0.3079 0.0033 0.41406 0 0.0192-0.1126 0.04049-0.22306 0.18917-0.2115 0.11408 9e-3 0.27389 0.10991 0.37556 0.1596 0.1487 0.07263 0.182 0.03916 0.30134 0.0904l0.42466 0.24331 0.17467 0.04575c0.05685 0.02231 0.35257 0.20115 0.37667 0.24554 0.11183 0.2062-0.21095 0.24814-0.33594 0.25h-0.60268c0.16076 0.11707 0.23588 0.04195 0.40792 0.13448 0.35502 0.19129 0.69035 0.41589 0.99944 0.67355 0.23153 0.19353 0.16868 0.35614-0.12723 0.38337h-0.22545c-0.47698 8.57e-4 -0.3373-0.11378-0.56808-0.14286-0.22476-0.02826-0.31889 0.09405-0.48605 0.09878-0.16263 0.0056-0.23596-0.09614-0.52734-0.10324-0.40245-0.01015-0.31927 0.09798-0.56473 0.14063l-0.7154 0.02846c-0.33431 0.09515-0.36842 0.27305-0.75279 0.2779 0.10653 0.15735 0.17721 0.0897 0.33873 0.12332 0.11821 0.0242 0.16542 0.07707 0.30134 0.09543 0.14984 0.02005 0.3048-0.01606 0.45201 0.03069l0.51562 0.20145c0.21045 0.14092 0.24347 0.26546 0.35491 0.33259l0.51562 0.22712 0.29185 0.20312c0.20443 0.12344 0.79658-0.07046 0.7115 0.42746-0.07307 0.42735-0.49379 0.18635-0.65792 0.19978-0.16038 0.01306-0.21002 0.11493-0.41406 0.05301-0.13102-0.03986-0.37195-0.16911-0.50446-0.06585-0.09492 0.07421-0.06027 0.54045-0.06027 0.6702l0.226 0.09208 0.22545 0.04073c0.19013 0.059 0.14179 0.12388 0.45201 0.12835 0.16678 0.0023 0.62278-0.02594 0.74888 0.04409 0.221 0.12306 0.16074 0.36398 0.0519 0.53739-0.29967 0.4747-0.5764 0.49476-0.7221 0.59654-0.08585 0.06013-0.13973 0.15073-0.2327 0.20145l-0.26004 0.09208-0.45312 0.22824-0.41295 0.03682c-0.23042 0.0698-0.51373 0.25592-0.7528 0.27344-0.33544 0.02466-0.42812-0.15672-0.64007-0.19364l-0.64007 0.05972-0.30134 0.12165-0.30078 0.03739-0.226 0.10156c-0.21045 0.07241-0.32698-0.013-0.37667 0.28795 0.29139-0.0518 0.74134-0.12113 0.87612 0.22377 0.03502 0.08929 0.027343 0.23768 0.027343 0.33538 0.33092 0.01937 0.27612 0.13833 0.48996 0.17299 0.19765 0.03198 0.21029-0.09131 0.34319-0.14565 0.047462-0.01937 0.27441-0.04807 0.33426-0.05245 0.16979-0.01262 0.46084 0.01766 0.5798 0.14565 0.17205 0.18458 0.20214 0.48902 0.47433 0.49721 0.27934 9e-3 0.29834-0.17962 0.67746-0.19978l0.45201 0.04464c0.08427 0.01937 0.18057 0.0787 0.26339 0.06418 0.16376-0.02837 0.19651-0.21017 0.4894-0.22545h0.15067c0.46194 0.0518 0.09984 0.3931-0.05971 0.53739-0.22701 0.20544-0.42532 0.45717-0.73103 0.55636-0.09598 0.03141-0.30488 0.02132-0.41406 0.02177-0.07488 0-0.21861-0.0086-0.27846 0.03851-0.10536 0.08276-0.0436 0.42956-0.05078 0.55859-0.02182 0.3908-0.40236 0.59447-0.76228 0.60491-0.14532-0.0079-0.35236-0.01677-0.4894 0-0.26014 0.05743-0.24623 0.13594-0.56473 0.14677h-0.41407c-0.26918 0.05585-0.18484 0.14211-0.67801 0.14286-0.28235 2.86e-4 -0.42929-0.04324-0.68415 0.08872-0.30532 0.15849-0.53691-0.09211-0.67132 0.2846l0.037946 0.03682c0.29441-0.05214 0.44625-0.06259 0.66574 0.17188 0.071514 0.07623 0.11483 0.19091 0.2048 0.24274 0.10007 0.04031 0.21079-0.01746 0.33426 0 0.10693 0.02984 0.16702 0.09245 0.26339 0.12333l0.26339 0.03292c0.15285 0.03547 0.38729 0.2291 0.49609 0.26563 0.097142 0.03266 0.43567 0.02085 0.55804 0.0212 0.20102 2.85e-4 0.40909 0.01129 0.49944 0.22712 0.065501 0.15663 0.025158 0.48639 0.22545 0.57589 0.18748 0.084 0.29076-0.33981 0.58817-0.19698 0.13667 0.06564 0.39915 0.56071 0.33817 0.68862-0.03236 0.06745-0.11527 0.09519-0.18304 0.10938l-0.64007 0.10938c-0.14682 0-0.2107-0.09575-0.63951-0.09654h-1.0921c-0.073732 0-0.1839-0.0055-0.25279 0.01955-0.04789 0.01642-0.087975 0.04493-0.12835 0.07478-0.064769 0.04774-0.15231 0.11439-0.15569 0.20201-0.00315 0.08243 0.084585 0.16895 0.13616 0.22712 0.17769 0.20062 0.51201 0.33146 0.69085 0.5 0.053881 0.05079 0.16227 0.20816 0.15625 0.28348-0.010702 0.12269-0.15521 0.1696-0.25837 0.1808-0.11256 0.01263-0.22843-0.0089-0.33873 0.02512-0.35728 0.1081-0.43784 0.2766-0.86551 0.27735-0.19802 2.85e-4 -0.41104-0.0146-0.60268 0.03404l-0.26339 0.06976-0.48605 0.04631c-0.16001 0.0339-0.17158 0.09662-0.30525 0.14007-0.092605 0.01611-0.37665 0.0068-0.48884 0-0.42768 0.01125-0.54703 0.25765-0.56473 0.64174l0.30134-0.04799c0.093325-0.0023 0.14243 0.03527 0.226 0.05971 0.22213 0.06531 0.34404-2.86e-4 0.41406 0.32366h1.2048c0.18559 2.85e-4 0.37947-0.01015 0.50558 0.15402 0.098595 0.12829 0.064737 0.29338 0.059152 0.43471 0.12161 0.0079 0.46722 0.01643 0.56473 0 0.23793-0.0679 0.1138-0.14044 0.52679-0.14118l0.4894 0.03292c0.10433-0.01531 0.16814-0.0936 0.26339-0.12221 0.15247-0.04583 0.29302 0.05489 0.25725 0.21205-0.014346 0.062314-0.078204 0.17245-0.1529 0.27565h27.951c-0.1393-0.05206-0.11853 6e-3 -0.38337-0.18025-0.22777-0.16035-0.4894-0.36557-0.4894-0.66574 0-0.35201 0.25382-0.4858 0.49665-0.67188l0.19643-0.16294c0.19125-0.12271 0.38226 0.01004 0.39732-0.43304h-1.0915c-0.41376-5.71e-4 -0.43196-0.11909-0.79074-0.26451l-0.18694-0.05468-0.16797-0.09375-0.17243-0.05525-0.18806-0.09263-0.26004-0.07255-0.30469-0.21038c-0.10127-0.05461-0.14756-0.0548-0.25223-0.12947l-0.52344-0.43918-0.19754-0.13504c-0.18372-0.13947-0.2884-0.30703-0.40848-0.49721-0.06506-0.10336-0.26216-0.29605-0.22489-0.41127 0.03005-0.09334 0.16303-0.1317 0.25112-0.1317 0.18712-2.85e-4 0.22602 0.11904 0.41462 0.12277 0.20518 0.0045 0.29412-0.13023 0.52678-0.10268 0.19538 0.02309 0.5107 0.21605 0.58036 0.40625 0.02606 0.07162 0.01738 0.14828 0.03014 0.2221 0.01125 0.06486 0.13142 0.42382 0.1702 0.46261 0.06286 0.06361 0.25692 0.08021 0.34877 0.09654l0.2154-0.42968c0.23116-0.24089 0.60846 0.2654 0.78013 0.35714 0.22588 0.12044 0.31582-0.10243 0.58538 0.2221h0.07533c0.17919-0.20735 0.16172-0.1309 0.37667-0.22042 0.20067-0.08355 0.32475-0.16074 0.56306-0.1038 0.15962 0.03817 0.14731 0.12905 0.41574 0.15737 0.22249 0.02375 0.45459-0.01361 0.45647-0.28069 0.0031-0.42322-0.56965-0.38596-0.71987-0.46652l-0.31696-0.20982c-0.10993-0.05079-0.18837-0.01432-0.31975-0.07422l-0.75781-0.4788c-0.18372-0.11857-0.50352-0.31981-0.66239-0.46261-0.05233-0.04741-0.17324-0.18903-0.19922-0.25056-0.05876-0.11373-0.05906-0.51555 0-0.62556 0.05126-0.08388 0.14791-0.13398 0.22322-0.19141l-0.64007-0.30134c-0.1378-0.05326-0.21865-0.01849-0.33761-0.06138l-0.43136-0.2394c-0.08923-0.04245-0.14795-0.03438-0.23717-0.09654l-0.39118-0.3471c-0.10388-0.11709-0.31099-0.40754-0.32868-0.55748-0.01626-0.13648 0.02828-0.28345 0.18415-0.30357 0.23002-0.02984 0.51543 0.21857 0.65737 0.37221 0.24359 0.26289 0.33605 0.25223 0.57812 0.41741 0.10956 0.07454 0.1423 0.15992 0.23605 0.19308 0.16866 0.06002 0.40084-0.12081 0.55971-0.16741 0.09112-0.02725 0.47367 0.07418 0.56138 0.12277 0.07223 0.03998 0.10364 0.08762 0.15402 0.14844l0.85938-0.04799 0.4202-0.27678h1.5815l-0.37667-0.42132c-0.26277-9e-3 -0.21604-0.10058-0.41406-0.20759-0.13742-0.07421-0.2119-0.03343-0.33538-0.08928-0.08806-0.03986-0.28602-0.198-0.41741-0.24051-0.17016-0.05506-0.4344 0.03567-0.57031-0.14397-0.11483-0.15177-0.11623-0.58481 0.08482-0.6702 0.20932-0.08907 0.52395-0.01911 0.71708 0.08371 0.0063-0.05709 0.02226-0.07888 0-0.1423-0.02331-0.11558-0.40045-0.47917 0.03181-0.56306h0.30134l-0.0385-0.29018-0.33817-0.23493c-0.05347 0.02917-0.1282 0.07648-0.18806 0.0865-0.0986 0.01632-0.17342-0.03825-0.26339-0.06696-0.25752-0.08209-0.35922-0.16851-0.64007-0.17522h-1.2048l-0.56473-0.17857c-0.08509-0.03547-0.12323-0.07791-0.226-0.10156l-0.37612-0.02009-0.44866-0.16685-0.16462-0.08928-0.24275-0.07589c-0.1118-0.05835-0.38699-0.32359-0.41183-0.44477-0.03237-0.15702 0.0613-0.24293 0.1769-0.32757 0.23003-0.16857 0.48306-0.23364 0.75223-0.30413-0.08585-0.22782-0.17037-0.21096-0.37667-0.28404-0.29929-0.10618-0.24887-0.08787-0.56473-0.0971-0.06856 0.0079-0.15956 9e-3 -0.22544 0-0.10091-0.03468-0.128-0.07345-0.2048-0.10882-0.18033-0.08321-0.38662-0.1187-0.53683-0.27121-0.25977-0.26401 0.08973-0.91615 0.40067-0.89342 0.17957 0.01305 0.21298 0.26974 0.52846 0.49832 0.05642-0.26473-0.11782-0.25344-0.04631-0.44587 0.07267-0.19574 0.25433-0.17668 0.42299-0.1942 0.16753-0.01769 0.27996-0.07115 0.45201-0.03906 0.33129 0.06249 0.34714 0.17519 0.56473 0.19197 0.3505 0.0268 0.39192-0.14206 0.62947-0.31808 0.23003-0.17041 0.28383-0.10112 0.3644-0.16518 0.07307-0.05822 0.03794-0.13878 0.13839-0.28683l0.56306-0.74832c0.12047-0.15065 0.32008-0.13401 0.45033-0.49274l-0.03739-0.03739-0.75335 0.03683-0.30078-0.02902-0.41462 0.024c-0.11256-0.0152-0.23201-0.09322-0.33705-0.14341-0.17016-0.08209-0.524-0.28852-0.4615-0.51786 0.02858-0.1045 0.1365-0.13358 0.21819-0.18471l0.32366-0.22545c0.10282-0.04887 0.16698-0.03186 0.25056-0.06305l0.38951-0.24052c0.15624-0.07207 0.30313-0.0012 0.4827-0.07087 0.36594-0.1417 0.45824-0.28775 0.60882-0.36942l0.52065-0.22991c-0.11219-0.1156-0.27552-0.25817-0.44532-0.27232-0.08997-0.0079-0.13142 0.04054-0.23382 0.02512l-0.26228-0.08426h-0.60212c-0.23604-0.0045-0.61386 0.07581-0.75279-0.15346-0.27031-0.08174-0.46411-0.41577-0.22656-0.64397 0.22551-0.21626 0.35226-0.17634 0.63951-0.17634v-0.18583c-0.0312-0.333-0.30415-0.1122-0.60155-0.22712l-0.18806-0.08371-0.33705-0.05859-0.16797-0.08482-0.21038-0.05468c-0.23794-0.07128-0.19123-0.12146-0.4894-0.12556-0.39115-0.0056-0.34721 0.04272-0.7154-0.11942-0.21008-0.09256-0.69389-0.1982-0.71987-0.47712-0.01877-0.20287 0.26523-0.38638 0.45648-0.36886 0.28801 0.02646 0.41154 0.36678 0.67132 0.30301 0.07488-0.01823 0.13147-0.08056 0.1981-0.11551l0.18304-0.07924c0.09449-0.05427 0.30796-0.27919 0.36216-0.375 0.08891-0.15699 0.0327-0.38662 0.24386-0.43359 0.32414-0.07195 0.33514 0.29491 0.33929 0.50335v0.3789c0.34334-0.1045 0.07231-0.24165 0.20257-0.40234 0.14494-0.16108 0.59442-0.07454 0.774 0 0-0.14915-0.01474-0.61043 0.02177-0.71596 0.05042-0.14467 0.27258-0.37495 0.3923-0.47266 0.20065-0.1637 0.31243-0.14835 0.41295-0.26284 0.10505-0.1197 0.0553-0.22236 0.10435-0.34542 0.04484-0.11375 0.14664-0.18378 0.23549-0.26172-0.24133-0.06767-0.77375-0.02343-1.2757-0.20926 0 0-0.85136 0.014-1.1936 0.18359-0.44209 0.19773-1.2422 0.12723-1.2422 0.12723-0.53723-0.07905-0.07374-0.84348 0.05916-1.0374 0.09378-0.13685 0.09209-0.30119 0.23102-0.3683 0.04778-0.01903 0.09604-0.01823 0.14565 0 0.19952 0.05822 0.18787 0.24197 0.18862 0.40904 0.2127-0.12941 0.52217-0.7007 1.0541-0.70815 0.5602-0.0079 0.2996-0.057 0.60268-0.13337 0.12986-0.03311 0.25532 0.01103 0.3404-0.07478 0.12461-0.1081 0.11557-0.30463 0-0.40458-0.05642-0.03952-0.12991-0.06223-0.18639-0.09263-0.0711-0.03863-0.11753-0.08447-0.1981-0.11161-0.04778-0.0056-0.57331-0.11652-1.0234-0.07087-0.45635 0.18364-1.1914 0.07087-1.1914 0.07087-0.40698-0.0068-0.32493-0.08085-0.56473-0.13783l-0.26339-0.04186-0.18862-0.08817-0.22098-0.06083c-0.09901-0.03986-0.33929-0.26559-0.40179-0.35212-0.06404-0.08907-0.16078-0.25034-0.07533-0.351 0.11258-0.13203 0.598-0.09116 0.77344-0.08148h0.41295c0.12423-0.01531 0.16936-0.10578 0.30413-0.15011 0.05642-0.0068 0.12765-0.0068 0.18638 0 0.35162-0.01229 0.45062 0.05731 0.67801 0.32756h0.07533c0.09333-0.1156 0.22685-0.28692 0.37668-0.32422 0.12197-0.03017 0.37171 0.0188 0.46205-0.04855 0.03388-0.02488 0.14955-0.24585 0.30804-0.35435 0.11333-0.07792 0.20059-0.04207 0.32143-0.06752l0.33873-0.13058 0.79074-0.42522c0.15548-0.05822 0.44098-0.02094 0.60212 0l-0.15067-0.40235c-0.23228-0.12791-0.32956-0.29331-0.60212-0.29855h-1.4308c-0.47322-5.72e-4 -0.4097-0.09991-0.7154-0.13728l-0.45145 0.02566c-0.15361 8.58e-4 -0.65934-0.01894-0.79074-0.0491-0.12425-0.02871-0.17785-0.09717-0.30134-0.12556l-0.30078-0.02455c-0.21949-0.04279-0.23783-0.15519-0.52734-0.13393-0.24357 0.01791-0.30578 0.18167-0.52679 0.125-0.40207-0.10416-0.03127-0.40591 0.10993-0.54353 0.07414-0.07274 0.14103-0.15986 0.23214-0.21206l0.25949-0.11942 0.67801-0.44364c0.17656-0.1027 0.23391-0.059 0.32087-0.11328 0.06815-0.04245 0.13097-0.14699 0.1769-0.21373 0.17092-0.24947 0.28314-0.40012 0.21764-0.71931-0.26241 0.10765-0.21882 0.14806-0.52679 0.14955h-1.9202c-0.16678 0-0.75456 0.05717-0.79409-0.1529-0.0116-0.06182 0.03914-0.13715 0.06361-0.19308 0.20368-0.46128 0.50409-0.31194 0.69308-0.70759-0.157-0.0224-0.1899 9e-3 -0.30134 0-0.10009-0.02523-0.15271-0.07589-0.26339-0.06418-0.12085 0.0126-0.1172 0.06979-0.41462 0.07757h-0.3008c-0.19163 0.03614-0.30957 0.18222-0.52567 0.13337-0.08248-0.01857-0.13188-0.06143-0.19476-0.10658-0.24696-0.15996-0.25674-0.32401 0-0.4933 0.18786-0.11783 0.57659-0.02246 0.75391-0.07143 0.20143-0.05552 0.08707-0.2158 0.41797-0.28627l0.02734-0.18359 0.33371-0.59152 0.20368-0.19475c-0.38928 0.0056-0.31036 0.13308-0.60212 0.26172-0.11746 0.0518-0.19366 0.02357-0.30134 0.05859-0.13591 0.04392-0.23942 0.17257-0.41071 0.08928-0.05389-0.026-0.12098-0.09007-0.16239-0.13337-0.18486-0.19316-0.06743-0.34314 0.07031-0.53069 0.13477-0.1831 0.35823-0.31281 0.45536-0.42801 0.10918-0.12975 0.07086-0.20976 0.15067-0.31641 0.10616-0.14208 0.50868-0.353 0.6875-0.38058l0.02177-0.14621 0.18917-0.39564 0.12779-0.09263 0.03795-0.22377c-0.3855-8.57e-4 -0.25674-0.04832-0.4894-0.12723-0.09293-0.03209-0.16416-0.01526-0.25-0.08148-0.08396-0.06486-0.33699-0.46384-0.39007-0.57422-0.14118 0.07995-0.45585 0.31093-0.60268 0.33036-0.29628 0.03919-0.3832-0.18608-0.49274-0.39453-0.04967-0.09448-0.20087-0.401-0.20313-0.49498-0.0042-0.18198 0.23886-0.31786 0.39509-0.33538l0.24107-0.26786c0.07677-0.11148 0.14925-0.66633-0.15569-0.56975-0.11482 0.03614-0.21492 0.18682-0.31808 0.24051-0.10008 0.05259-0.16909 0.02031-0.27902 0.07255-0.19087 0.09054-0.37089 0.21584-0.57757 0.26618-0.12914 0.03097-0.27309 0.1746-0.39621 0.0519-0.13327-0.13274-0.02794-0.3931 0.05413-0.524l0.13951-0.25948c0.05686-0.07386 0.16302-0.12678 0.29743-0.3125l0.14621-0.25837 0.20815-0.26618c-0.10198-0.1081-0.10125-0.11461-0.11327-0.26116-0.18183-0.10191-0.19655-0.37367-0.10771-0.55302l0.25112-0.35268c0.04293-0.07905 0.06254-0.16405 0.08259-0.25056-0.33318 0.01125-0.4393 0.21916-0.67913 0.27958-0.08734 0.02569-0.36303 0.02769-0.44699 0-0.22626-0.08569-0.36356-0.34825-0.27734-0.57422 0.1167-0.30504 0.41261-0.32945 0.42466-0.71205-0.27634 0.13797-0.26845 0.1071-0.56473 0.1116-0.29327 0.0056-0.21696 0.08144-0.41462 0.13337-0.26918 0.07094-0.65653 0.02949-0.79018-0.24832-0.06772-0.14021-0.01153-0.27885 0.11719-0.35826l0.41016-0.18638 0.18806-0.03181c0.2176-0.06756 0.17116-0.15189 0.45201-0.09152l0.03739-0.11216-0.03739-0.03683c-0.28274-9e-3 -0.84217-0.33001-0.86551-0.63393-0.0063-0.07792 0.04799-0.15871 0.0865-0.22321 0.06404-0.1081 0.06801-0.12356 0.17634-0.18694v-0.26116c-0.32565 0.02569-0.22402 0.14267-0.56473 0.149-0.13138 0.0023-0.33094 0.01837-0.42355-0.09041-0.14495-0.1704 0.03625-0.28854 0.07422-0.43806l0.04855-0.36607c-0.42091-0.07826-0.41536 0.17964-0.7154 0.27623-0.23041 0.07454-0.46417-0.11137-0.33203-0.3471 0.07604-0.13646 0.29894-0.18246 0.43973-0.26786 0.25487-0.15437 0.26859-0.28639 0.26897-0.55636-0.0983 2.85e-4 -0.19498-0.0089-0.28571 0.03515-0.13704 0.06565-0.34916 0.25954-0.50502 0.23382-0.25636-0.04278-0.28886-0.36242-0.25837-0.56752 0.02488-0.16555 0.10174-0.18704 0.1462-0.37277 0.07309-0.30315-0.11108-0.73848-0.37723-0.89509z" fill="#632b0a"/>
  <path d="m83.631 51.665c0 0.0841 0.01582 0.25973-0.05233 0.31779-0.09277 0.07956-0.34904-0.14443-0.40662-0.21448h-0.04171l-0.02092 0.02072c-0.0042 0.15291-0.1331 0.28266-0.22948 0.39259 0.02356 0.04068 0.06199 0.09713 0.06284 0.14466 8.17e-4 0.08328-0.10787 0.1864-0.13415 0.26864-0.0484 0.15249 0.14876 0.23701 0.11851 0.34818-0.02781 0.10228-0.14478 0.03008-0.19027-0.01198 0.04671 0.04337-0.23197-0.28701-0.19608-0.23495-0.04066-0.05903-0.03046-0.11199-0.06942-0.14217-0.0396-0.03014-0.18445-0.02115-0.23806-0.02115 0.02048 0.04031 0.04321 0.07977 0.05402 0.12398 0.02855 0.11861 0.0031 0.5174-0.03026 0.64057-0.02176 0.0814-0.03333 0.19528-0.12914 0.2209-0.25369 0.06778-0.21446-0.1252-0.49966-0.17955 2.01e-4 0.2519 0.03588 0.16054 0.06008 0.30974 0.01058 0.06489-0.0031 0.12832 0.03651 0.18576 0.04978 0.0713 0.2324 0.13637 0.21071 0.25623-0.01602 0.08781-0.13354 0.09443-0.20301 0.09546-0.37176 5e-3 -0.23867-0.0413-0.4381-0.07581l-0.22925-0.01579c-0.14876-0.03906-0.01646-0.07377-0.31314-0.07377v0.04131c0.24616 0.0063 0.25305 0.17646 0.12516 0.24796 0.03481 0.2302 0.26391 0.2333 0.33191 0.26863 0.04596 0.02397 0.09936 0.08533 0.13978 0.12211 0.07388 0.06716 0.12558 0.09528 0.10931 0.2081-0.0156 0.1089-0.23177 0.18456-0.33066 0.18641-0.08534 0.0019-0.44042 0.0083-0.49882-0.01198l-0.09118-0.05111-0.11933-0.0506c-0.10413-0.05965-0.09553-0.09341-0.22947-0.11366 0.05084 0.08142 0.17065 0.16016 0.24157 0.23414l0.21009 0.27689c0.04299 0.05628 0.13705 0.22232 0.11723 0.29216-0.03959 0.13968-0.20216 0.05336-0.27684 0.02253-0.09076-0.03701-0.14687-0.0031-0.2276-0.04006l-0.43995-0.2897c0.10307 0.18226 0.22071 0.2236 0.27996 0.29592l0.06592 0.10973 0.08641 0.07728 0.14894 0.16636 0.0776 0.11778c0.05796 0.05385 0.14268 0.05641 0.23739 0.15455 0.15062 0.15642 0.11934 0.31016-0.12431 0.29673-0.11808-0.0065-0.1206-0.0425-0.20864-0.07046-0.05042-0.01591-0.08969-0.0085-0.1406-0.03445l-0.16357-0.11469c-0.06677-0.03701-0.09426-0.02184-0.15292-0.05153l-0.1571-0.11367c-0.06347-0.03507-0.1001-0.02289-0.15583-0.05173l-0.15711-0.12289c-0.06464-0.03244-0.18128-5e-3 -0.32461-0.03906-3.93e-4 0.11013-0.03174 0.1984 0.04512 0.28933 0.09384 0.11117 0.19442 0.13885 0.30645 0.21551 0.0985 0.06737 0.30708 0.28577 0.36591 0.3895 0.07473 0.13142 0.0095 0.30128-0.13519 0.35418-0.03789 0.01379-0.10286 0.01267-0.14414 0.01197-0.22031-0.0037-0.088-0.08184-0.35466-0.08266 0.05648 0.19858 0.15396 0.19341 0.21426 0.27318l0.11951 0.26409h0.41726c0.06242 0 0.14936-0.0064 0.19964 0.03594 0.08534 0.07191 0.05424 0.1984-0.05446 0.24903-0.25702 0.11964-0.26724 0.08533-0.54158 0.08698-0.19777 0.0013-0.13707 0.04873-0.27121 0.07913h-0.39636c-0.24658 0.0037-0.17295-0.03707-0.31293-0.0707l-0.25034-0.01559-0.18777-0.07254h-0.2921c0.02791 0.12792 0.05923 0.11182 0.09224 0.20357 0.02155 0.0599 0.0053 0.12189 0.0778 0.15288 0.15188 0.06551 0.26809-0.09175 0.49758-0.06674l0.41369 0.10249c0.13017 0.06407 0.1143 0.13908 0.29559 0.14488h0.27122c0.03185-3e-3 0.07325-3e-3 0.10393 0 0.22718 0.0686 0.0095 0.28268-0.18738 0.28825h-0.33376l-0.29644 0.06016c0.0042 0.05017 0.0075 0.1401 0 0.18597-0.04607 0.16138-0.25683 0.39321-0.43375 0.40003-0.08514 0.0037-0.12119-0.04855-0.19129-0.06384l-0.20506-0.01198-0.16692-0.07315h-0.27118c0.04925 0.09153 0.08694 0.08947 0.08343 0.20352l0.45898 0.30357 0.52156 0.03163c0.11182 0.01941 0.17189 0.09712 0.25909 0.14136 0.06072 0.03076 0.16335 0.02109 0.18442 0.1039 0.01582 0.06324-0.05754 0.11034-0.10095 0.14341-0.02441 0.0186-0.03949 0.03107-0.06655 0.04318 0.0022-0.0037-0.27171 0.0917-0.26583 0.09435l-0.13532 0.0272c0.06655 0.12337 0.14602 0.10249 0.27118 0.10331 0.19486 0.0019 0.23472 0.06033 0.22908 0.24795-0.0053 0.18164-0.08641 0.20582-0.24992 0.20871h-0.27122c-0.03185-0.0026-0.09246-0.0037-0.12162 0-0.03386 0.01222-0.23867 0.0019-0.32879 0.0069-0.08195 0.0043-0.12832-0.04898-0.20864-0.06571l-0.25033-0.0108c-0.13123-0.02272-0.08821-0.07665-0.29207-0.07811-0.35407 0-0.4675 0.14562-0.4675 0.14562v0.04131c0.17211 0.01379 0.13205 0.07501 0.25117 0.13824 0.05901 0.0312 0.12226 0.02703 0.18693 0.03146h0.52153l0.14604 0.06695 0.12434 0.02627 0.111 0.05728c0.07483 0.02502 0.2088-0.0096 0.27931 0.0488 0.07738 0.06447-0.02314 0.20187-0.06985 0.25974-0.13664 0.16985-0.22841 0.18803-0.42389 0.25354-0.06411 0.02152-0.09309 0.05153-0.16692 0.06387-0.2664 0.0443-0.30707-0.07668-0.52153-0.07814-0.42412-0.0031-0.14605-0.08262-0.60501-0.08262 4e-3 0.05597 0.01672 0.17314 0.04004 0.2213 0.06507 0.13535 0.16316 0.12998 0.12686 0.31595l0.2084 0.01173 0.18794 0.09153c0.01646-0.09732 0.06571-0.2027 0.18694-0.19093 0.12267 0.01173 0.15563 0.22979 0.27101 0.24363 0.07717 0.0095 0.11055-0.08864 0.25137-0.07026 0.10413 0.01366 0.13123 0.09506 0.22804 0.07274 0.09055-0.02096 0.17189-0.18762 0.28725-0.11654 0.09426 0.0581 0.0691 0.35045 0.06879 0.45397-1.91e-4 0.07957 0.0075 0.15849-0.05074 0.22255-0.05679 0.06343-0.12058 0.06548-0.19964 0.06674h-0.50069c-0.16752 0.0037-0.19506 0.05091-0.18776 0.20664 0.08513 0.02371 0.32962 0.1655 0.3874 0.23184 0.11411 0.1312 0.0075 0.2201-0.13706 0.22278h-0.66758c-0.21821-0.0013-0.16625-0.04917-0.29204-0.07646l-0.16689-0.01517-0.14604-0.0624-0.20863-0.03208c0.01329 0.16366 0.09514 0.17418 0.20591 0.27234 0.08782 0.07769 0.18673 0.21222 0.21135 0.32689 0.09908 0.05884 0.08301 0.12295 0.08341 0.22729 0.20883-0.02515 0.13748 0.0108 0.25388 0.05067l0.12081 0.02327 0.22575 0.12089c0.11891 0.10622 0.02378 0.25828-0.10244 0.30683-0.04872 0.01879-0.09596 0.01047-0.14333 0.02116-0.0776 0.01717-0.10286 0.05704-0.18776 0.0742-0.14665 0.0229-0.44833 0.0031-0.60501 0-0.2468 0.0019-0.17274-0.03813-0.31293-0.07606-0.05316-0.0085-0.20797-0.0043-0.27118 0-0.02919 0.05392-0.07176 0.11738-0.14522 0.12565-0.04281 0.0019-0.25306-0.14258-0.32274 0-0.01125 0.0254-0.0097 0.05173-0.01182 0.07667 0.07013 0 0.18651-0.0085 0.2468 0.02421 0.05357 0.02933 0.08408 0.08452 0.14979 0.12047l0.10222 0.04056 0.26849 0.19528c0.12893 0.12027 0.0057 0.15022 0.25493 0.21882 0.0225-0.03369 0.03962-0.06282 0.07053-0.09073 0.09451-0.08554 0.20488-0.09545 0.23533 0.04949 0.03058 0.14588-0.05823 0.41554 0.09159 0.49923 0.04574 0.0254 0.1988 0.09505 0.2449 0.07604 0.09203-0.03825 0.04628-0.13741 0.25475-0.14133 0.05116-5.17e-4 0.16085-0.0063 0.20215 0.02116 0.10911 0.0721 0.01783 0.25024-0.02962 0.32939-0.09925 0.16468-0.20819 0.22212-0.35944 0.32172-0.102 0.06736-0.10158 0.09816-0.23033 0.11303v0.2054h0.41727c0.06114-0.0031 0.15312-0.0068 0.20215 0.03425 0.03609 0.03026 0.04341 0.06735 0.04692 0.11157 0.01295 0.15539-0.05074 0.21283-0.16419 0.30623-0.04066 0.03326-0.2082 0.14177-0.25264 0.15706-0.06199 0.0214-0.11536 0.0013-0.17815 0.02994l-0.15479 0.10143c-0.13601 0.08204-0.38596 0.20726-0.54243 0.21118l0.10118 0.12608c0.05129 0.08741 0.06572 0.18988 0.19091 0.24463 0.04525 0.01835 0.17063 0.0019 0.22946 0 0.01069-0.06241 0.02234-0.12376 0.10472-0.11735 0.06319 5e-3 0.15187 0.06089 0.2082 0.08843 0.08237 0.04024 0.10074 0.02178 0.16689 0.05017l0.23533 0.1349 0.09681 0.02527c0.03152 0.01234 0.19527 0.11136 0.20864 0.13596 0.06199 0.11426-0.11683 0.13742-0.18608 0.13845h-0.33381c0.08906 0.06487 0.1306 0.02352 0.22593 0.07479 0.19673 0.106 0.38262 0.23019 0.5539 0.37297 0.12829 0.10724 0.09352 0.19734-0.07048 0.21243h-0.12512c-0.26431 4.95e-4 -0.18693-0.06282-0.31481-0.07893-0.12456-0.01567-0.1767 0.05192-0.26933 0.05453-0.09013 0.0031-0.13058-0.05316-0.29205-0.0571-0.22302-0.0056-0.17691 0.05428-0.31293 0.07792l-0.39639 0.01572c-0.18525 0.05273-0.20423 0.15147-0.41722 0.15416 0.05903 0.08719 0.09827 0.04954 0.18776 0.06817 0.06547 0.01341 0.09156 0.04275 0.16688 0.05291 0.08304 0.01111 0.16877-0.0087 0.25034 0.01715l0.28601 0.11136c0.11662 0.07809 0.13477 0.14713 0.19653 0.18434l0.28582 0.12604 0.16165 0.1126c0.11328 0.0684 0.44146-0.03931 0.39431 0.23661-0.04055 0.23681-0.27371 0.10331-0.36467 0.11076-0.08885 0.0072-0.11644 0.06364-0.22951 0.02933-0.07261-0.02209-0.2061-0.0936-0.27952-0.03638-0.05259 0.04112-0.03336 0.29962-0.03336 0.37152l0.12517 0.05092 0.12518 0.02253c0.1053 0.0327 0.07844 0.06881 0.25034 0.07128 0.09246 0.0013 0.34508-0.0146 0.41496 0.02421 0.12246 0.0682 0.08906 0.20167 0.02877 0.29776-0.16607 0.26305-0.31941 0.27422-0.40015 0.33062-0.04756 0.03333-0.07738 0.08346-0.12893 0.11157l-0.14415 0.05105-0.25117 0.12646-0.22865 0.02046c-0.12768 0.03869-0.28478 0.14197-0.41726 0.15168-0.18588 0.01367-0.23719-0.08679-0.35464-0.10724l-0.35465 0.03295-0.16692 0.06757-0.16688 0.02053-0.12518 0.05629c-0.11662 0.04013-0.18108-0.0072-0.20863 0.15952 0.16148-0.0287 0.41057-0.06713 0.48526 0.12398 0.01941 0.04949 0.01541 0.13184 0.01541 0.18598 0.18338 0.01069 0.15293 0.07667 0.27143 0.09587 0.10953 0.01772 0.11662-0.05067 0.19027-0.08077 0.02634-0.01069 0.15186-0.02671 0.18503-0.02914 0.09408-7e-3 0.25535 0.0098 0.32127 0.08079 0.09534 0.10228 0.11204 0.27112 0.26288 0.27566 0.15479 5e-3 0.16543-0.09959 0.37551-0.11076l0.25035 0.02477c0.0467 0.01069 0.1001 0.04355 0.14601 0.03551 0.09075-0.01572 0.10891-0.11655 0.27121-0.12502h0.08343c0.25599 0.0287 0.05541 0.21783-0.0329 0.29779-0.1258 0.11384-0.23573 0.25354-0.40513 0.3085-0.05318 0.01741-0.16899 0.01173-0.2295 0.012-0.0415 0-0.12119-5e-3 -0.15436 0.02114-0.05838 0.04586-0.02421 0.23803-0.02822 0.30953-0.01207 0.21656-0.22301 0.3296-0.42245 0.33538-0.08056-0.0043-0.19527-0.0094-0.27122 0-0.14415 0.03182-0.13643 0.07543-0.31292 0.08143h-0.22948c-0.14916 0.03095-0.10222 0.0787-0.37551 0.0791-0.15646 1.66e-4 -0.23783-0.02397-0.37906 0.04917-0.16919 0.08782-0.29749-0.05129-0.37197 0.15746l0.02086 0.02065c0.16315-0.02889 0.2472-0.03488 0.36883 0.09505 0.03962 0.04225 0.06384 0.1058 0.11371 0.13451 0.05544 0.02234 0.11662-0.0096 0.18503 0 0.05927 0.01655 0.09265 0.05129 0.14605 0.06841l0.14602 0.01827c0.08469 0.01964 0.21447 0.1271 0.27476 0.14734 0.05382 0.0181 0.24157 0.01135 0.30938 0.01154 0.1114 1.65e-4 0.22655 0.0063 0.27662 0.12584 0.03628 0.0868 0.01394 0.26966 0.12496 0.31926 0.10388 0.04654 0.16108-0.18827 0.32588-0.10912 0.07575 0.03638 0.22112 0.31057 0.18733 0.38145-0.01794 0.03737-0.06369 0.0529-0.10119 0.06078l-0.35465 0.06053c-0.08138 0-0.11706-0.05304-0.35467-0.05347h-0.60499c-0.04085 0-0.10205-0.0031-0.14021 0.01069-0.02658 0.0092-0.04877 0.02502-0.0711 0.04155-0.03588 0.02647-0.08431 0.06343-0.08617 0.11199-0.0016 0.04568 0.04672 0.0936 0.07534 0.12583 0.09846 0.11117 0.28372 0.1835 0.38282 0.2769 0.02984 0.02814 0.08991 0.11551 0.08657 0.15725-0.0057 0.06799-0.08577 0.09381-0.14294 0.10002-0.06237 7e-3 -0.12663-5e-3 -0.18776 0.01385-0.19798 0.0599-0.24282 0.15332-0.47982 0.15373-0.10973 1.66e-4 -0.2276-0.0081-0.33381 0.01891l-0.14601 0.03869-0.26934 0.02578c-0.08867 0.01877-0.09491 0.05341-0.16898 0.07749-0.05129 9e-3 -0.20882 0.0037-0.27099 0-0.237 0.0063-0.30313 0.14278-0.31294 0.35562l0.16689-0.02652c0.05169-0.0013 0.07885 0.01959 0.12517 0.03314 0.12309 0.0362 0.1907-1.64e-4 0.2295 0.17933h0.66758c0.10285 1.66e-4 0.2105-0.0056 0.28038 0.08533 0.05463 0.07109 0.03563 0.16263 0.03254 0.24094 0.06743 0.0043 0.2589 0.0092 0.31293 0 0.13184-0.03763 0.06319-0.07789 0.29206-0.0783l0.27122 0.01827c0.05781-0.0085 0.09326-0.05192 0.14604-0.06776 0.08449-0.0254 0.16229 0.03026 0.14247 0.11735-0.01606 0.06986-0.14415 0.24838-0.20777 0.28329l-0.3728 0.10438h-0.20507c-0.0601 0.01827-0.08427 0.05554-0.14978 0.07725-0.04924 0.0085-0.19175 0.0043-0.25016 0-0.27246 5e-3 -0.25742 0.07812-0.45895 0.08618-0.24346 0.0097-0.18776-0.0806-0.45897-0.08184-0.24784-0.0013-0.12121-0.0013-0.31293-0.07107l-0.10429-0.03146-0.10434-0.05085c-0.06906-0.02228-0.14227-0.0019-0.20777-0.02397-0.06197-0.02114-0.07257-0.05585-0.14873-0.06799-0.08138-0.01323-0.24034-0.0153-0.24472 0.10064-0.0016 0.04862 0.04877 0.08554 0.05879 0.1653 0.12767 0.05067 0.17066 0.06159 0.18776 0.20664 0.15792-0.03731 0.2493 0.04381 0.38429 0.11632l0.13373 0.05884c0.13706 0.08016 0.32501 0.30518 0.42557 0.43309 0.06425 0.08182 0.04549 0.08701 0.06572 0.17688 0.02299 0.10148 0.07411 0.19135-0.03441 0.274-0.14874 0.11324-0.26369-0.07542-0.39074-0.11734-0.05968-0.01958-0.2977-0.01199-0.37552-0.01199v0.04134c0.13915 4e-3 0.2036 0.04191 0.27119 0.16529 0.23783 0.02731 0.11267 0.16079 0.35467 0.16533 0.06988 0.0016 0.20922-0.01026 0.26639 0.02421 0.09929 0.06009 0.06735 0.324 0.06735 0.4304 0.09493-0.04737 0.17586-0.12975 0.31293-0.18657 0.08427-0.03506 0.1064-0.0016 0.20863-0.04999 0.07803-0.03686 0.22155-0.08824 0.26516 0.0327 0.02341 0.06531-0.05968 0.16819-0.08846 0.2246-0.03603 0.07028-0.03041 0.11034-0.03058 0.18597l0.37552-0.14484c0.10347-0.03148 0.15624-0.0065 0.22592-0.053 0.08325-0.0565 0.1118-0.14568 0.14623-0.1872 0.03922-0.04729 0.14292-0.1126 0.19903-0.05675 0.05397 0.0534-0.01085 0.14608-0.04362 0.19381l-0.38156 0.41326c0.42642 0 0.25663-0.17067 0.6676-0.1653 0.18234 0.0032 0.25745 0.08681 0.23492 0.26864-0.0032 0.02935-0.0092 0.0742-0.02063 0.10062-0.01728 0.03987-0.16087 0.17442-0.19946 0.20479l-0.39583 0.15129-0.16502 0.02038-0.12894 0.05993-0.1233 0.02552-0.12518 0.05651s-0.11924 0.02544-0.18192 0.02544c0 0-0.24318 0.08529-0.3366 0.17871-0.01134 0.04232 0.08594 0.14795 0.08594 0.14795 0.15835-0.0049 0.10681-0.03098 0.20946-0.06775l0.16022-0.02625 0.09116-0.05169 0.10244-0.03734c0.06155-0.02356 0.16691-0.07362 0.20029 0.02095 0.0296 0.08369-0.0755 0.1403-0.09596 0.26552l0.2086-0.02071c0.03458-0.06897 0.07201-0.11428 0.14604-0.14611 0.07615-0.03262 0.37884-0.01199 0.45708 0.01288 0.02853 9e-3 0.10098 0.05015 0.12434 0.06922 0.04655 0.03783 0.05985 0.07436 0.08615 0.12604l0.27122-0.12976 0.09846-0.0252c0.04574-0.01688 0.08177-0.05365 0.13121-0.06132 0.06273-0.0094 0.12138 0.03768 0.15867 0.0937-0.0031 0.04345 0.0085 0.07167 0.03705 0.08129l0.48328 0.1731c0.21286 0.09265 0.42063 0.09951 0.69064 0.27748 0.19213 0.12688 0.2442 0.27565 0.41653 0.31307 0.26079 0.05667 0.2668-0.15514 0.42576-0.25098 0.11058-0.06662 0.23588-0.0393 0.35613-0.07991 0.20366-0.06939 0.30041-0.25419 0.64506-0.18392 0.1092 0.02186 0.53678 0.15242 0.56626 0.25329 0.0553 0.13418-0.31378 0.44541 0 0.5449h0.30917c0.54139-0.0093 0.56675-0.41713 0.80036-0.55405 0.13085-0.07624 0.22298 0.04517 0.35152 0.05879 0.1691 0.01818 0.19492-0.10996 0.64508-0.0917 0.39718 0.01598 0.29857 0.23776 0.55522 0.26425 0.28013 0.02919 0.43262-0.23598 0.64089-0.18396 0.06815 0.01736 0.11196 0.05675 0.15664 0.10818 0.13824 0.16202 0.18476 0.44952 0.48749 0.38744 0.10455-0.02104 0.14147-0.07436 0.1751-0.16885l0.10413-0.30942c0.24742 0.19806 0.29443 0.225 0.52204 0l0.34877-0.35322c0.05806-0.06294 0.17418-0.22545 0.26632-0.21496 0.05754 0.0065 0.17693 0.10906 0.24558 0.14283 0.13453 0.06572 0.22026 0.04207 0.35526 0.13147 0.10594 0.0707 0.20916 0.21948 0.38054 0.22404 0.19998 0.0057 0.23224-0.18345 0.33452-0.26833 0.09213-0.06393 0.52575-0.04705 0.63355 0 0.29443 0.10315 0.3225 0.47282 0.60126 0.50613 0.42113 0.05015 0.14608-0.34728 0.34098-0.49697 0.19444-0.14879 0.51972 0.03376 0.71692 0.09352 0.04013-0.09401 0.10509-0.36415 0.19857-0.39519 0.13224-0.04427 0.23822 0.14648 0.40455 0.23228 0.36445 0.18893 0.53033 0.07713 0.87129 0.03424 0.20272-0.02512 0.42849-0.0141 0.46674-0.28068 0.03132-0.22088-0.08906-0.09593-0.23326-0.1758l-0.10932-0.09711-0.12164-0.06303c-0.13873-0.07852-0.18482-0.13265-0.35464-0.13802h-0.20841c-0.09288-0.02536-0.37346-0.23393-0.42665-0.31265-0.05901-0.08762-0.0053-0.16012-0.08068-0.23533-0.06411-0.06328-0.28039-0.09011-0.32212-0.23414-0.02898-0.10043 0.04257-0.13102 0.11411-0.17214 0.1187-0.06841 0.19465-0.10393 0.33964-0.09278 0.14854 0.01158 0.16063 0.04566 0.24888 0.14509 0.03811 0.04273 0.07303 0.07127 0.10371 0.12172 0.02336 0.03865 0.03387 0.07999 0.06486 0.11631 0.03545 0.04175 0.10095 0.0645 0.15461 0.10786 0.17774 0.14299 0.31041 0.26946 0.55449 0.27215h0.35446c0.13685 0.02666 0.0553 0.07999 0.29227 0.0804 0.31814 4.32e-4 0.33922-0.05748 0.64673 0.06197 0.06093-0.11282 0.16398-0.2709 0.31293-0.268 0.04575 0.0016 0.07505 0.03229 0.18776 0.04069v-0.14463c-0.14248-0.0049-0.1089-0.04689-0.20944-0.11178-0.05615-0.0362-0.09097-0.02773-0.14333-0.05283l-0.14876-0.10291c-0.09373-0.05626-0.1118-0.02967-0.18691-0.06237l-0.18776-0.1149-0.1425-0.06091c-0.15918-0.09484-0.41017-0.30914-0.47129-0.48685-0.04002-0.11675 0.02696-0.18243 0.08842-0.26964 0.07431-0.10518 0.21737-0.30542 0.31834-0.37879l0.09681-0.05039c0.06114-0.0327 0.09554-0.07007 0.17277-0.05513 0.1356 0.026 0.21902 0.15228 0.39634 0.15559 0.06719 0.0016 0.25392 0.01037 0.30523-0.0212 0.08492-0.05226 0.10703-0.18721 0.14812-0.24093 0.02452-0.03163 0.05817-0.05385 0.08927-0.07833 0.10031-0.07893 0.11788-0.10291 0.17275-0.2176 0.01518-0.03799 0.04268-0.08947 0-0.12355-0.02399-0.02165-0.07802-0.02041-0.11034-0.02114h-0.08343c-0.13394-0.0031-0.10116-0.01634-0.19654-0.06343l-0.13727-0.04954c-0.09405-0.04817-0.21341-0.14386-0.31293-0.17009-0.05743-0.01511-0.17024 0.01403-0.25034 0.01447-0.3557 0.0026-0.20924-0.0254-0.41723-0.05585-0.06051-9e-3 -0.13456-0.0013-0.18776-0.01816l-0.27121-0.13348c-0.10074-0.04338-0.07027 0.0063-0.22865-0.10537-0.12622-0.08886-0.2714-0.20274-0.2714-0.36908 0-0.19506 0.14081-0.26925 0.27537-0.37236l0.10889-0.09029c0.10594-0.068 0.21177 0.0056 0.22011-0.23992h-0.60501c-0.22928-4.32e-4 -0.23929-0.06592-0.43811-0.1465l-0.10349-0.03026-0.09299-0.05192-0.09574-0.03077-0.10413-0.05129-0.14415-0.04006-0.16896-0.11675c-0.05615-0.03026-0.08173-0.03032-0.13979-0.0717l-0.28996-0.24318-0.10932-0.075c-0.1018-0.07728-0.16001-0.17006-0.22656-0.27544-0.03609-0.05728-0.14521-0.16408-0.12457-0.22793 0.01666-0.05172 0.09055-0.07295 0.13936-0.07295 0.10371-1.67e-4 0.12519 0.06591 0.22971 0.06799 0.1137 0.0026 0.16292-0.07211 0.29185-0.05684 0.10827 0.01279 0.28311 0.11962 0.32171 0.22501 0.01444 0.03969 0.0095 0.08225 0.01666 0.12316 0.0064 0.03594 0.07281 0.23473 0.09426 0.25622 0.03482 0.03526 0.14226 0.04467 0.19316 0.05372l0.11934-0.23825c0.12809-0.13349 0.33713 0.14713 0.43226 0.19797 0.12517 0.06674 0.17523-0.05691 0.3246 0.12292h0.04171c0.09925-0.1149 0.08949-0.07229 0.20863-0.1219 0.11119-0.04629 0.18005-0.08927 0.31211-0.05772 0.08842 0.02114 0.08152 0.0715 0.23029 0.08719 0.12329 0.01316 0.25181-0.0076 0.25285-0.15562 0.0022-0.23452-0.31562-0.21364-0.39887-0.25828l-0.17565-0.11631c-0.06093-0.02814-0.10435-0.0081-0.17713-0.0413l-0.41995-0.26532c-0.1018-0.06571-0.27891-0.17708-0.36695-0.25622-0.02898-0.02627-0.09596-0.10479-0.11038-0.13888-0.03248-0.06302-0.0327-0.28577 0-0.34674 0.02835-0.04649 0.08173-0.07418 0.12352-0.106l-0.35465-0.16697c-0.07632-0.02952-0.12099-0.01004-0.18691-0.03389l-0.23909-0.13288c-0.04947-0.02352-0.08195-0.01897-0.1314-0.05341l-0.21698-0.19218c-0.05754-0.06488-0.17212-0.22605-0.18192-0.30915-0.0085-0.07562 0.01539-0.15704 0.1018-0.16819 0.12746-0.01654 0.28583 0.12129 0.36448 0.20642 0.13498 0.14568 0.18628 0.13969 0.32041 0.23122 0.06072 0.04131 0.07866 0.08868 0.13062 0.10706 0.09341 0.03326 0.22217-0.06698 0.31021-0.09279 0.05053-0.01511 0.26245 0.04106 0.31106 0.06799 0.04002 0.02215 0.05743 0.04854 0.08534 0.08224l0.47627-0.0267 0.23302-0.15313h0.87623l-0.20863-0.23352c-0.1456-5e-3 -0.11996-0.0558-0.22969-0.11508-0.07611-0.04112-0.11725-0.0186-0.18568-0.04954-0.04872-0.02209-0.15857-0.10972-0.23136-0.13328-0.09426-0.03051-0.24075 0.01978-0.31605-0.07976-0.06358-0.0841-0.06422-0.3242 0.04713-0.37151 0.11599-0.04935 0.29019-0.01026 0.39721 0.04667 0.0031-0.03163 0.01231-0.04398 0-0.07912-0.01284-0.06405-0.22178-0.26533 0.01773-0.31181h0.16686l-0.02123-0.16078-0.18732-0.13018c-0.02962 0.01615-0.07123 0.04211-0.10435 0.04768-0.05466 0.0091-0.09617-0.02115-0.14605-0.03707-0.1427-0.04548-0.19901-0.09317-0.35464-0.09689h-0.66758l-0.31294-0.09898c-0.04712-0.01965-0.06826-0.04337-0.12516-0.05648l-0.20864-0.01093-0.24844-0.09257-0.09118-0.04936-0.13476-0.042c-0.06199-0.03232-0.21424-0.17935-0.22802-0.2465-0.01794-0.08702 0.03376-0.13472 0.09787-0.18162 0.12748-0.09341 0.26767-0.12959 0.41683-0.16865-0.04756-0.12624-0.09426-0.11674-0.20863-0.15724-0.16585-0.05885-0.1379-0.04862-0.31292-0.05372-0.038 0.0043-0.08842 5e-3 -0.12497 0-0.05594-0.01921-0.0707-0.04093-0.11328-0.06053-0.09989-0.04611-0.21444-0.06571-0.29768-0.15022-0.14394-0.1463 0.04978-0.50749 0.22217-0.4949 0.09947 0.0072 0.11809 0.14938 0.29291 0.27604 0.03132-0.1467-0.06549-0.14048-0.0259-0.24711 0.04024-0.10847 0.14102-0.09794 0.23448-0.10765 0.09288-0.0097 0.155-0.0395 0.25034-0.02172 0.18358 0.03463 0.19234 0.09734 0.31293 0.10664 0.19422 0.01486 0.21738-0.07893 0.34902-0.17647 0.12746-0.09443 0.15711-0.05585 0.20175-0.09135 0.04055-0.03226 0.02112-0.07706 0.07675-0.1591l0.3119-0.41451c0.06677-0.08348 0.17752-0.07439 0.2497-0.27318l-0.02091-0.02066-0.41725 0.02046-0.1669-0.01615-0.22946 0.01323c-0.06242-0.0084-0.12873-0.05173-0.18694-0.07954-0.09426-0.04548-0.29038-0.15993-0.25575-0.28701 0.01582-0.0579 0.0758-0.07378 0.12099-0.1021l0.17919-0.12498c0.05701-0.02708 0.09266-0.01772 0.13896-0.03501l0.21571-0.13326c0.08662-0.03993 0.16814-4.96e-4 0.26764-0.03911 0.20279-0.07852 0.25391-0.15973 0.33735-0.20498l0.28851-0.12728c-0.06209-0.06406-0.15271-0.14319-0.24681-0.15104-0.04978-0.0043-0.07282 0.02272-0.12953 0.01416l-0.14522-0.04693h-0.33376c-0.13081-0.0026-0.34027 0.04211-0.41726-0.08492-0.14978-0.0453-0.25721-0.23039-0.12556-0.35685 0.12496-0.11984 0.19525-0.09773 0.35442-0.09773v-0.10291c-0.0173-0.18453-0.16834-0.06215-0.33315-0.12583l-0.10435-0.04637-0.18693-0.03251-0.09309-0.0471-0.1164-0.03026c-0.13186-0.0395-0.10604-0.06737-0.27122-0.06964-0.21676-0.0031-0.19233 0.02371-0.39636-0.06614-0.1164-0.05129-0.38472-0.10972-0.3991-0.26428-0.01058-0.11242 0.14708-0.21427 0.25306-0.20457 0.1596 0.01465 0.22803 0.20334 0.37198 0.168 0.0415-0.01004 0.07282-0.04467 0.10973-0.06405l0.10158-0.04387c0.05233-0.03008 0.17046-0.15475 0.20051-0.20785 0.04925-0.087 0.01815-0.2143 0.13519-0.24033 0.17962-0.03987 0.18564 0.16345 0.18794 0.27895v0.21016c0.19026-0.0579 0.04033-0.13391 0.11246-0.22295 0.08035-0.08926 0.32921-0.04131 0.42873 0 0-0.08265-0.0085-0.33847 0.01211-0.39695 0.02791-0.08017 0.15103-0.20766 0.21737-0.2618 0.11119-0.09072 0.17315-0.08224 0.22886-0.14569 0.05817-0.06634 0.03057-0.12316 0.05785-0.19136 0.02484-0.06303 0.08142-0.10186 0.13057-0.14506-0.13373-0.0375-0.42895-0.01285-0.70708-0.11583 0 0-0.47154 0.0076-0.66121 0.10159-0.24498 0.10957-0.68851 0.07059-0.68851 0.07059-0.29771-0.0438-0.04086-0.46736 0.03281-0.57481 0.05191-0.07583 0.05084-0.16697 0.12789-0.20416 0.02653-0.01047 0.05329-0.01004 0.08079 0 0.11056 0.03226 0.10435 0.13411 0.10477 0.22669 0.11787-0.0717 0.28933-0.38849 0.58412-0.39262 0.31042-0.0043 0.16585-0.03146 0.33381-0.07377 0.07197-0.01835 0.14143 0.0063 0.18858-0.04131 0.0691-0.05991 0.06411-0.16881 0-0.2242-0.03121-0.0219-0.07197-0.03469-0.10329-0.05153-0.03938-0.0214-0.06507-0.04674-0.10974-0.06177-0.02653-0.0031-0.31758-0.06448-0.56701-0.03919-0.25289 0.10177-0.6603 0.03919-0.6603 0.03919-0.22552-0.0037-0.18003-0.04467-0.31292-0.07626l-0.14605-0.02334-0.10435-0.04898-0.12244-0.03357c-0.05488-0.02209-0.18818-0.14733-0.22281-0.19527-0.03545-0.04936-0.08906-0.13847-0.04171-0.19426 0.06242-0.07317 0.33147-0.05067 0.42868-0.0453h0.22868c0.06879-0.0085 0.09384-0.05871 0.16854-0.08328 0.03121-0.0037 0.0709-0.0037 0.10349 0 0.19485-0.0068 0.2495 0.03189 0.37552 0.18164h0.04172c0.05169-0.06406 0.12579-0.15889 0.20881-0.17956 0.06762-0.01672 0.20593 0.01037 0.256-0.02695 0.01879-0.01379 0.08279-0.13638 0.17065-0.19651 0.06284-0.04318 0.1112-0.02309 0.17816-0.03718l0.18776-0.07254 0.4381-0.23555c0.0862-0.03225 0.24448-0.0116 0.33378 0l-0.08343-0.22296c-0.12871-0.07087-0.18276-0.16244-0.3338-0.16534h-0.79274c-0.26223-3.87e-4 -0.22699-0.05554-0.3964-0.07624l-0.25034 0.01429c-0.08513 5.18e-4 -0.36528-0.01037-0.4381-0.02708-0.06879-0.01592-0.0984-0.05409-0.16689-0.06983l-0.16691-0.01342c-0.12163-0.02371-0.13164-0.08617-0.29206-0.07439-0.13498 0.0098-0.16959 0.10084-0.29206 0.06943-0.22281-0.05772-0.01709-0.22501 0.06114-0.30127 0.04108-0.04031 0.07802-0.08845 0.1285-0.11738l0.14396-0.06633 0.3757-0.24569c0.09787-0.05691 0.12957-0.03295 0.17776-0.06302 0.03778-0.02352 0.07239-0.08143 0.09787-0.11841 0.09468-0.13824 0.15707-0.22152 0.12077-0.3984-0.14541 0.05965-0.1214 0.08183-0.29206 0.08266h-1.0639c-0.09246 0-0.41828 0.03188-0.44018-0.08451-0.0064-0.03425 0.02187-0.07625 0.03534-0.10724 0.11287-0.25561 0.27914-0.17274 0.38387-0.39198-0.08704-0.01242-0.10519 5e-3 -0.16689 0-0.05541-0.01398-0.0847-0.04218-0.14605-0.03569-0.06698 7e-3 -0.06464 0.03889-0.22946 0.04318h-0.16692c-0.10618 0.02003-0.17148 0.10105-0.29123 0.07398-0.04575-0.01026-0.07303-0.03425-0.10784-0.05927-0.13686-0.08865-0.14228-0.17936 0-0.27317 0.10413-0.06529 0.31938-0.01242 0.41765-0.03957 0.11162-0.03077 0.0484-0.11982 0.23177-0.15887l0.01507-0.10146 0.18504-0.32794 0.11286-0.10788c-0.21572 0.0031-0.17209 0.0738-0.33377 0.14508-0.06507 0.0287-0.10725 0.01285-0.16692 0.03225-0.07536 0.02434-0.13267 0.09588-0.22757 0.04973-0.02983-0.01442-0.06698-0.04999-0.08991-0.07397-0.10244-0.10704-0.03747-0.19031 0.03885-0.29424 0.07473-0.10146 0.19838-0.1732 0.2522-0.23704 0.0605-0.0719 0.03949-0.11614 0.08365-0.17523 0.05892-0.07873 0.28184-0.19587 0.38093-0.21115l0.01211-0.08083 0.10477-0.21923 0.0709-0.05129 0.02091-0.12399c-0.21363-5.38e-4 -0.14229-0.02695-0.27121-0.07069-0.05148-0.01779-0.09076-0.0083-0.13831-0.045-0.0466-0.03594-0.18692-0.25705-0.21633-0.31822-0.07824 0.04431-0.25262 0.17213-0.33398 0.1829-0.16419 0.02171-0.21238-0.10292-0.27308-0.21844-0.0276-0.05235-0.11121-0.22234-0.11247-0.27442-0.0022-0.10084 0.13225-0.17626 0.21883-0.18597l0.13374-0.14817c0.04257-0.06177 0.08279-0.36946-0.08609-0.31595-0.06358 0.02003-0.11913 0.10355-0.1763 0.1333-0.05541 0.02914-0.09373 0.01136-0.1546 0.04031-0.10572 0.05017-0.20548 0.11963-0.32002 0.14753-0.07154 0.01716-0.15144 0.0967-0.21967 0.0287-0.07388-0.07355-0.01539-0.21778 0.03004-0.29031l0.07717-0.144c0.03153-0.04093 0.09033-0.07004 0.16481-0.17296l0.0811-0.14317 0.11518-0.14774c-0.05648-0.05991-0.05594-0.06344-0.06263-0.14466-0.10074-0.05648-0.1091-0.20705-0.05987-0.30643l0.13913-0.19528c0.02378-0.0438 0.03481-0.09092 0.04596-0.13887-0.18463 0.0063-0.24348 0.1215-0.37637 0.15498-0.0483 0.01422-0.2011 0.01534-0.24762 0-0.12539-0.04749-0.20152-0.19321-0.15375-0.31843 0.06464-0.16904 0.22862-0.18246 0.2353-0.39447-0.15313 0.07646-0.14875 0.05947-0.31293 0.06196-0.16251 0.0031-0.12015 0.045-0.22969 0.07377-0.14916 0.03931-0.36404 0.01635-0.4381-0.1376-0.03747-0.0777-0.0064-0.15458 0.06507-0.19859l0.22719-0.1033 0.10435-0.0176c0.12058-0.03744 0.09468-0.08412 0.25034-0.05067l0.02091-0.06196-0.02091-0.02066c-0.15668-5e-3 -0.4667-0.1829-0.47963-0.35131-0.0031-0.04318 0.02664-0.08781 0.04798-0.12356 0.03545-0.05991 0.03789-0.0686 0.09787-0.10373v-0.14466c-0.18046 0.01422-0.12412 0.07915-0.31292 0.08266-0.07282 0.0013-0.18361 0.01004-0.23492-0.05017-0.08035-0.09443 0.02006-0.15974 0.04108-0.24259l0.02696-0.20312c-0.23324-0.04335-0.23011 0.0996-0.39637 0.15312-0.12769 0.04131-0.25724-0.06152-0.18401-0.19216 0.04214-0.07562 0.16584-0.10127 0.24386-0.14859 0.14123-0.08555 0.14856-0.15868 0.14877-0.30828-0.05446 2e-4 -0.10787-5e-3 -0.15815 0.0194-0.07589 0.03638-0.19358 0.1438-0.27995 0.12954-0.14206-0.02371-0.16001-0.20067-0.14311-0.31432 0.0138-0.09173 0.05626-0.1037 0.08099-0.20662 0.04055-0.16799-0.06156-0.40913-0.20902-0.49592z" fill="#883a15"/>
 </g>
</svg>
