<svg width="167" height="60" viewBox="0 0 167 60" xmlns="http://www.w3.org/2000/svg"><g fill="#FFF" fill-rule="nonzero"><path d="M11.042 36.327c1.209-.144 1.777-.288 1.777-1.633v-9.652c-1.114-1.392-1.445-1.464-1.706-1.464v-.505h4.242l6.966 8.692h.047v-6.17c0-1.225-.237-1.897-1.872-2.017v-.505h4.313v.505c-1.47.192-1.588.672-1.588 1.632v11.981h-.568l-8.933-11.02h-.048v8.139c0 1.465.427 1.849 1.92 2.017v.504h-4.55v-.504z"/><path d="M11.042 36.327c1.209-.144 1.777-.288 1.777-1.633v-9.652c-1.114-1.392-1.445-1.464-1.706-1.464v-.505h4.242l6.966 8.692h.047v-6.17c0-1.225-.237-1.897-1.872-2.017v-.505h4.313v.505c-1.47.192-1.588.672-1.588 1.632v11.981h-.568l-8.933-11.02h-.048v8.139c0 1.465.427 1.849 1.92 2.017v.504h-4.55v-.504zM34.382 27.18c-.355-1.417-1.564-3.77-3.933-3.77-1.043 0-2.157.6-2.157 1.945 0 1.104.38 1.536 2.062 2.4l2.962 1.489c.687.336 2.204 1.537 2.204 3.745 0 1.801-1.28 4.25-4.977 4.25-1.919 0-2.82-.696-3.435-.696-.427 0-.522.36-.593.696h-.592v-5.018h.592c.403 2.065 1.564 4.346 4.123 4.346 2.417 0 2.512-2.017 2.512-2.28 0-1.37-.948-1.85-2.251-2.474l-1.35-.648c-3.436-1.68-3.436-3.41-3.436-4.346 0-1.248.616-4.01 4.43-4.01 1.612 0 2.56.673 3.128.673.45 0 .569-.312.664-.697h.592v4.418h-.545v-.024z"/><path d="M34.382 27.18c-.355-1.417-1.564-3.77-3.933-3.77-1.043 0-2.157.6-2.157 1.945 0 1.104.38 1.536 2.062 2.4l2.962 1.489c.687.336 2.204 1.537 2.204 3.745 0 1.801-1.28 4.25-4.977 4.25-1.919 0-2.82-.696-3.435-.696-.427 0-.522.36-.593.696h-.592v-5.018h.592c.403 2.065 1.564 4.346 4.123 4.346 2.417 0 2.512-2.017 2.512-2.28 0-1.37-.948-1.85-2.251-2.474l-1.35-.648c-3.436-1.68-3.436-3.41-3.436-4.346 0-1.248.616-4.01 4.43-4.01 1.612 0 2.56.673 3.128.673.45 0 .569-.312.664-.697h.592v4.418h-.545v-.024zM36.704 23.073h11.397v4.082h-.474c-.45-2.113-.995-3.41-4.43-3.41-1.09 0-1.446.073-1.446.961v4.73c2.488.048 2.796-1.392 3.08-3.025h.498v6.867h-.545c-.213-1.681-.545-3.146-3.08-3.146v4.73c0 1.345.805 1.393 2.203 1.44v.505H36.68v-.504c1.138-.12 1.777-.192 1.777-1.44v-9.845c0-1.344-.829-1.392-1.777-1.44v-.505h.024z"/><path d="M36.704 23.073h11.397v4.082h-.474c-.45-2.113-.995-3.41-4.43-3.41-1.09 0-1.446.073-1.446.961v4.73c2.488.048 2.796-1.392 3.08-3.025h.498v6.867h-.545c-.213-1.681-.545-3.146-3.08-3.146v4.73c0 1.345.805 1.393 2.203 1.44v.505H36.68v-.504c1.138-.12 1.777-.192 1.777-1.44v-9.845c0-1.344-.829-1.392-1.777-1.44v-.505h.024z"/><path d="M29.572 8.956c-11.469 0-20.757 9.411-20.757 21.032 0 11.62 9.288 21.032 20.757 21.032 11.468 0 20.757-9.411 20.757-21.032 0-11.62-9.312-21.032-20.757-21.032zm0 41.656c-11.232 0-20.354-9.22-20.354-20.624 0-11.38 9.099-20.624 20.354-20.624 11.231 0 20.354 9.22 20.354 20.624-.024 11.38-9.123 20.624-20.354 20.624z"/><path d="M29.572 8.956c-11.469 0-20.757 9.411-20.757 21.032 0 11.62 9.288 21.032 20.757 21.032 11.468 0 20.757-9.411 20.757-21.032 0-11.62-9.312-21.032-20.757-21.032zm0 41.656c-11.232 0-20.354-9.22-20.354-20.624 0-11.38 9.099-20.624 20.354-20.624 11.231 0 20.354 9.22 20.354 20.624-.024 11.38-9.123 20.624-20.354 20.624z"/><path d="M54.544 26.699c-.19-.505-.355-1.009-.521-1.513-.095-.96-.095-1.92-.071-2.761.331-1.8 1.61-2.737 3.151-3.337-.19-.457-.403-.985-.545-1.369-1.658.816-3.649.96-5.142-.48-.308-.336-.64-.696-.924-1.056a20.44 20.44 0 01-1.208-2.714c-.356-1.8.474-3.169 1.658-4.297-.331-.36-.758-.769-1.019-1.057-1.232 1.393-3.009 2.305-4.928 1.56-.38-.167-.735-.335-1.09-.527-.853-.673-1.588-1.417-2.227-2.09-1.02-1.512-.759-3.096-.095-4.609-.45-.192-.972-.408-1.35-.576-.593 1.752-1.92 3.29-3.982 3.361a23.732 23.732 0 01-1.872-.12 19.697 19.697 0 01-2.227-.888C30.659 3.217 30.28 1.656 30.327 0h-1.469c.119 1.849-.52 3.77-2.393 4.634-.426.168-.877.336-1.303.48-1.019.12-2.038.12-2.915.096-1.777-.336-2.7-1.633-3.293-3.193-.45.192-.972.408-1.35.552.805 1.68.947 3.698-.475 5.21-.379.36-.758.72-1.16 1.057-.878.48-1.802.864-2.607 1.2-1.754.36-3.128-.456-4.242-1.68-.355.335-.758.744-1.042 1.032 1.374 1.248 2.274 3.049 1.54 4.994-.19.408-.38.816-.569 1.2a24.706 24.706 0 01-1.967 2.137c-1.492 1.032-3.056.768-4.55.096-.189.456-.402.984-.568 1.369 1.73.6 3.246 1.944 3.318 4.033a38.806 38.806 0 01-.095 1.657 23.348 23.348 0 01-.948 2.521c-.995 1.513-2.535 1.897-4.17 1.849v1.488c1.824-.12 3.72.529 4.573 2.425.166.456.332.913.474 1.369.118 1.032.118 2.065.094 2.953-.331 1.8-1.61 2.737-3.151 3.337.19.456.403 1.009.545 1.369 1.659-.817 3.65-.96 5.142.48.355.384.687.768 1.019 1.153.474.888.853 1.8 1.16 2.617.356 1.776-.473 3.169-1.658 4.297.332.36.735.769 1.02 1.057 1.231-1.393 3.008-2.305 4.928-1.56.426.191.853.407 1.28.623a21.179 21.179 0 012.084 1.993c1.02 1.513.759 3.097.095 4.61.45.192.972.408 1.35.576.593-1.752 1.92-3.29 3.982-3.361.52.024 1.042.048 1.587.096.948.288 1.848.648 2.607 1.008 1.492 1.009 1.872 2.57 1.824 4.226h1.47c-.12-1.873.52-3.794 2.393-4.634.497-.192.995-.36 1.516-.528a20.94 20.94 0 012.701-.072c1.778.336 2.702 1.633 3.294 3.193.45-.192.995-.408 1.35-.552-.805-1.68-.947-3.697.474-5.21.38-.36.759-.72 1.162-1.056.829-.457 1.706-.817 2.464-1.129 1.753-.36 3.128.456 4.241 1.68.356-.336.759-.744 1.043-1.032-1.374-1.248-2.275-3.049-1.54-4.994.237-.552.497-1.08.782-1.608.592-.72 1.232-1.369 1.8-1.945 1.493-1.033 3.057-.769 4.55-.096.19-.456.403-.985.569-1.369-1.73-.6-3.247-1.945-3.318-4.01.024-.576.048-1.176.095-1.752.26-.864.593-1.68.924-2.401.995-1.513 2.536-1.897 4.17-1.849v-1.488c-1.871.072-3.767-.553-4.62-2.45zm-1.28.864l-.236.336c-.498.48-1.28.336-1.944.264-.426-.096-.853-.216-1.279-.312.047.552.095 1.129.095 1.705l.023.024c.119.24.072.432-.023.552 0 .6-.024 1.2-.095 1.777.521-.12 1.019-.24 1.54-.336.545-.048 1.138-.12 1.54.336.45.768.285 1.993.19 2.88 0 .049-.024.121-.024.169-.142.672-.332 1.345-.687 1.945l-.355.216c-.64.264-1.327-.192-1.896-.504-.355-.265-.71-.529-1.09-.793-.166.552-.332 1.08-.545 1.609 0 .024.024.024.024.048 0 .288-.095.432-.26.528a19.86 19.86 0 01-.76 1.609c.522.072 1.067.168 1.588.288.522.168 1.09.336 1.304.888.118.889-.498 1.97-.9 2.737-.024.024-.024.048-.048.072-.427.6-.877 1.249-1.493 1.705l-.403.048c-.687 0-1.137-.696-1.564-1.2-.237-.385-.474-.793-.71-1.177-.356.432-.711.865-1.114 1.273 0 .024.023.048.023.096-.094.288-.284.384-.473.384-.403.408-.83.792-1.28 1.176.474.288.924.577 1.374.913.427.36.877.744.853 1.32-.19.793-1.042 1.513-1.706 2.065-.663.432-1.35.888-2.156 1.08l-.403-.12c-.64-.288-.782-1.08-.995-1.704-.071-.456-.142-.913-.213-1.345-.498.264-.995.529-1.493.744 0 .025 0 .049-.024.073-.19.216-.403.24-.568.168-.522.216-1.067.408-1.635.576.331.432.64.888.924 1.368.26.48.545 1.033.284 1.561-.498.672-1.564.984-2.37 1.248-.781.145-1.587.289-2.416.169l-.332-.264c-.474-.505-.332-1.297-.26-1.97.118-.431.212-.888.307-1.32-.545.048-1.113.096-1.658.096-.024.024-.024.048-.048.072-.26.12-.45.072-.592-.072a13.68 13.68 0 01-1.73-.096c.119.528.237 1.057.332 1.609.047.552.118 1.152-.332 1.56-.687.409-1.753.313-2.606.24-.806-.168-1.683-.36-2.441-.792l-.19-.36c-.26-.648.19-1.344.498-1.92l.782-1.081a17.739 17.739 0 01-1.588-.552c-.023 0-.023.024-.047.024-.284 0-.427-.096-.521-.264-.545-.24-1.067-.48-1.564-.769-.071.529-.19 1.08-.285 1.609-.165.528-.331 1.104-.876 1.32-.711.096-1.564-.288-2.275-.672-.71-.504-1.493-1.008-2.062-1.753l-.047-.408c0-.696.687-1.152 1.185-1.584.379-.24.735-.456 1.114-.697-.427-.36-.853-.744-1.256-1.128h-.024c-.26-.096-.355-.24-.38-.408-.402-.432-.805-.865-1.184-1.32-.284.455-.569.912-.877 1.344-.355.432-.734.888-1.303.864-.734-.192-1.421-.96-1.943-1.633-.474-.72-.995-1.488-1.208-2.4l.095-.409c.284-.648 1.066-.792 1.682-1.008l1.28-.216c-.261-.504-.522-1.008-.735-1.537h-.024c-.19-.168-.237-.36-.19-.528a23.719 23.719 0 01-.592-1.68c-.426.312-.853.624-1.303.912-.474.264-1.019.552-1.54.288-.569-.432-.9-1.32-1.138-2.089-.165-.888-.379-1.849-.237-2.81l.261-.335c.498-.48 1.28-.336 1.943-.264.427.096.853.192 1.256.312a19.98 19.98 0 01-.095-1.705s-.023 0-.023-.024a.546.546 0 01.023-.576c0-.6.048-1.2.095-1.777-.521.12-1.043.24-1.564.336-.545.048-1.137.12-1.54-.336-.427-.744-.308-1.945-.213-2.809.166-.744.331-1.537.734-2.209l.356-.216c.64-.264 1.327.192 1.895.504.356.264.735.529 1.09.817.166-.553.356-1.08.545-1.585-.024-.024-.047-.048-.047-.072-.024-.312.118-.456.308-.552a18.9 18.9 0 01.758-1.56 19.593 19.593 0 01-1.635-.313c-.521-.168-1.09-.336-1.303-.888-.095-.697.26-1.513.616-2.21.498-.72 1.019-1.536 1.753-2.112l.403-.048c.687 0 1.138.696 1.564 1.2.237.385.474.769.711 1.177.355-.432.71-.865 1.114-1.273 0-.024-.024-.048-.024-.072.095-.288.26-.384.474-.384.403-.408.83-.792 1.28-1.176a27.037 27.037 0 01-1.375-.889c-.426-.36-.877-.744-.853-1.344.19-.769.972-1.44 1.611-1.969.711-.48 1.493-1.008 2.37-1.249l.403.096c.64.289.782 1.08.995 1.705.071.456.142.889.213 1.345.498-.264.995-.505 1.517-.745v-.072c.19-.216.379-.24.568-.168a22.09 22.09 0 011.635-.576c-.213-.408-.521-.84-.829-1.32-.26-.48-.545-1.033-.284-1.561.426-.576 1.28-.888 2.014-1.129.877-.168 1.824-.384 2.796-.24l.331.264c.474.505.332 1.297.261 1.97-.118.431-.213.888-.308 1.32a19.203 19.203 0 011.659-.096c.024-.024.024-.048.047-.072.26-.12.45-.072.593.072.592 0 1.16.048 1.73.096-.143-.528-.238-1.08-.332-1.609-.048-.552-.119-1.152.308-1.56.758-.457 1.966-.289 2.843-.193.19.024.38.048.545.072.545.145 1.066.313 1.564.6l.213.36c.26.65-.19 1.345-.497 1.922-.285.384-.57.792-.853 1.176.52.168 1.042.336 1.54.528a.632.632 0 00.142-.12c.355-.024.497.168.569.408.52.216 1.019.48 1.492.745.095-.576.19-1.153.308-1.729.166-.528.332-1.104.877-1.32.64-.097 1.375.216 2.014.552.758.552 1.659 1.104 2.275 1.92l.047.409c0 .696-.687 1.152-1.184 1.584-.403.24-.782.48-1.185.72.426.36.853.72 1.256 1.105.023 0 .07-.024.094-.024.285.12.38.288.38.504.403.408.782.84 1.137 1.273.284-.48.592-.937.9-1.393.356-.432.735-.888 1.304-.864.687.168 1.303.84 1.8 1.464.474.769 1.067 1.585 1.304 2.521l-.119.409c-.284.648-1.066.792-1.682 1.008-.427.072-.877.144-1.303.216.26.504.521 1.009.734 1.537h.048c.19.192.237.36.19.528.212.552.426 1.104.592 1.68.426-.312.853-.624 1.303-.912.474-.264 1.019-.552 1.54-.288.64.48.971 1.56 1.209 2.377.26.768.402 1.609.307 2.449zM70.446 6.242h-1.374V53.59h1.374zM104.757 21.993h10.497s0-2.881-2.18-4.394c-2.062-1.44-4.55-1.344-6.469.432 0 0-1.753 1.489-1.848 3.962zm2.275 8.98c1.208 1.008 3.672 1.608 5.568.48 1.872-1.129 2.772-3.602 2.772-3.602l3.792.72c-1.446 4.202-3.152 5.307-4.882 6.267-1.184.672-6.35 2.305-10.639-1.753-4.265-4.033-3.317-10.156-3.317-10.156.426-4.682 3.649-7.467 4.241-7.947.593-.48 5.213-4.034 10.497-.48 5.284 3.553 4.621 10.924 4.621 10.924h-15.307c-.119 2.81 1.445 4.514 2.654 5.547zM139.021 24.37c.024 1.704-1.777 3.12-4.005 3.169-2.251.048-4.099-1.297-4.123-3.001-.023-1.705 1.754-3.122 4.005-3.17 2.227-.047 4.075 1.297 4.123 3.002z"/><path d="M134.495 11.693v5.306s9.407.312 9.407 6.099c0 5.786-9.383 7.274-9.265 7.274.119 0 12.559-.648 12.274-9.867-.213-6.651-9.217-8.956-12.416-8.812z"/><path d="M135.466 37.311l.048-5.306s-9.407-.384-9.36-6.17c.047-5.787 9.431-7.203 9.312-7.203-.118 0-12.558.552-12.369 9.772.166 6.674 9.147 9.027 12.369 8.907zM80.564 14.575s-.047 9.291-.047 11.813v8.859h4.1V25.211s-.048-5.066.023-5.762c.023-.24.118-.625.19-.793.426-.984 1.445-1.2 2.18-1.344.923-.192 3.174-.12 3.956.12.711.216 1.233.624 1.564 1.272.403.84.474 1.2.45 2.665 0 1.753-.023 13.854-.023 13.854h4.004v-13.59c0-.768.142-3.073-1.042-5.017-1.232-2.017-2.891-2.761-3.412-2.954-.545-.192-2.512-.72-5.498-.384-2.914.336-4.786 1.993-4.786 1.993l-1.659-.696zM150.347 14.454s-.048 9.292-.048 11.813v8.86h4.1V25.09s-.048-5.066.023-5.762a3.54 3.54 0 01.19-.792c.426-.985 1.422-1.2 2.18-1.345.924-.168 3.175-.096 3.957.144.711.216 1.232.625 1.564 1.273.403.816.474 1.2.45 2.689 0 1.729-.024 13.83-.024 13.83h4.005V20.769c0-1.057-.142-2.761-1.043-4.25-1.232-1.993-2.89-2.761-3.412-2.953-.521-.192-2.511-.72-5.473-.384-2.915.336-4.787 2.016-4.787 2.016l-1.682-.744zM80.445 43.314v-.096c0-2.065 1.256-3.554 3.057-3.554 1.777 0 3.033 1.465 3.033 3.53v.096c0 2.065-1.256 3.553-3.057 3.553-1.777 0-3.033-1.464-3.033-3.53zm4.905-.024v-.072c0-1.489-.782-2.497-1.872-2.497s-1.848.984-1.848 2.473v.072c0 1.488.782 2.497 1.872 2.497 1.09.024 1.848-.96 1.848-2.473zM87.554 41.465h1.113v.84c.332-.504.782-.936 1.517-.936 1.043 0 2.014.888 2.014 2.665v.144c0 1.777-.971 2.665-2.014 2.665-.758 0-1.209-.432-1.517-.888v2.305h-1.113v-6.795zm3.53 2.689v-.096c0-1.056-.545-1.705-1.208-1.705-.664 0-1.232.648-1.232 1.68v.097c0 1.032.568 1.68 1.232 1.68.687.025 1.208-.6 1.208-1.656zM92.909 44.154v-.072c0-1.585.948-2.713 2.203-2.713 1.422 0 2.157 1.2 2.157 2.761v.384h-3.247c.095.889.64 1.369 1.304 1.369.497 0 .853-.216 1.184-.553l.57.697c-.475.504-1.043.816-1.825.816-1.304 0-2.346-1.032-2.346-2.689zm3.293-.384c-.047-.84-.426-1.44-1.066-1.44-.616 0-1.042.552-1.114 1.44h2.18zM98.193 41.465h1.114v1.032c.284-.696.781-1.152 1.563-1.104v1.224h-.047c-.9 0-1.516.6-1.516 1.801v2.329h-1.114v-5.282zM101.131 45.235v-.048c0-1.129.735-1.681 1.848-1.681.498 0 .853.096 1.185.216v-.216c0-.696-.403-1.08-1.113-1.08-.498 0-.901.168-1.256.312l-.308-.889c.497-.24 1.019-.408 1.706-.408s1.184.192 1.54.528c.332.336.521.865.521 1.513v3.265h-1.09V46.1c-.308.456-.758.744-1.445.744-.877 0-1.588-.6-1.588-1.608zm3.033-.264v-.529a2.334 2.334 0 00-.971-.192c-.64 0-1.019.336-1.019.889v.024c0 .528.355.816.853.84.663 0 1.137-.432 1.137-1.032zM106.51 45.474V42.45h-.568v-.96h.568v-1.417h1.114v1.417h1.161v.96h-1.161v2.81c0 .407.213.575.569.575.213 0 .403-.048.592-.144v.913c-.261.144-.545.216-.924.216-.782 0-1.351-.336-1.351-1.345zM109.33 44.154v-.072c0-1.585.947-2.713 2.227-2.713 1.422 0 2.156 1.2 2.156 2.761v.384h-3.293c.094.889.639 1.369 1.303 1.369.497 0 .853-.216 1.185-.553l.568.697c-.474.504-1.042.816-1.824.816-1.304 0-2.322-1.032-2.322-2.689zm3.293-.384c-.047-.84-.426-1.44-1.09-1.44-.616 0-1.042.552-1.113 1.44h2.203zM114.377 44.178v-.12c0-1.777.971-2.665 2.014-2.665.758 0 1.209.432 1.517.888v-2.713h1.113v7.18h-1.113v-.841c-.332.504-.782.936-1.517.936-1.019 0-2.014-.888-2.014-2.665zm3.554-.024v-.096c0-1.032-.568-1.68-1.232-1.68-.687 0-1.208.624-1.208 1.704v.072c0 1.056.545 1.705 1.208 1.705.664-.024 1.232-.672 1.232-1.705zM123.737 45.955v.792h-1.114v-7.179h1.114v2.761c.332-.504.782-.936 1.516-.936 1.043 0 2.014.888 2.014 2.665v.144c0 1.777-.971 2.665-2.014 2.665-.758-.024-1.208-.456-1.516-.912zm2.417-1.801v-.096c0-1.056-.545-1.705-1.209-1.705-.663 0-1.232.649-1.232 1.681v.096c0 1.032.569 1.68 1.232 1.68.664.025 1.209-.6 1.209-1.656zM131.082 41.465h1.137l-1.753 5.354c-.356 1.057-.782 1.44-1.541 1.44-.379 0-.734-.095-1.042-.287l.332-.865c.165.096.402.168.592.168.284 0 .474-.12.616-.552l-1.848-5.282h1.185l1.208 3.818 1.114-3.794zM135.561 39.785h2.441c.734 0 1.374.216 1.753.6.308.312.45.696.45 1.176v.024c0 .865-.497 1.297-1.019 1.56.759.265 1.304.721 1.304 1.658v.048c0 1.224-.972 1.896-2.441 1.896h-2.512v-6.962h.024zm3.531 1.968c0-.576-.427-.936-1.161-.936h-1.256v1.92h1.184c.759 0 1.233-.335 1.233-.984zm-1.043 1.97h-1.374v1.992h1.421c.782 0 1.28-.336 1.28-.984v-.025c0-.6-.45-.984-1.327-.984zM141.177 45.235v-.048c0-1.129.734-1.681 1.848-1.681.497 0 .853.096 1.184.216v-.216c0-.696-.402-1.08-1.113-1.08-.498 0-.901.168-1.256.312l-.308-.889c.498-.24 1.019-.408 1.706-.408s1.185.192 1.54.528c.332.336.521.865.521 1.513v3.265h-1.09V46.1c-.308.456-.758.744-1.445.744-.853 0-1.587-.6-1.587-1.608zm3.056-.264v-.529a2.334 2.334 0 00-.971-.192c-.64 0-1.019.336-1.019.889v.024c0 .528.355.816.853.84.64 0 1.137-.432 1.137-1.032zM146.555 45.474V42.45h-.569v-.96h.569v-1.417h1.114v1.417h1.161v.96h-1.161v2.81c0 .407.213.575.569.575.213 0 .402-.048.592-.144v.913c-.261.144-.545.216-.924.216-.758 0-1.351-.336-1.351-1.345zM149.943 45.474V42.45h-.568v-.96h.568v-1.417h1.114v1.417h1.161v.96h-1.161v2.81c0 .407.213.575.569.575.213 0 .403-.048.592-.144v.913c-.261.144-.545.216-.924.216-.782 0-1.351-.336-1.351-1.345zM152.74 44.154v-.072c0-1.585.948-2.713 2.204-2.713 1.421 0 2.156 1.2 2.156 2.761v.384h-3.246c.095.889.64 1.369 1.303 1.369.498 0 .853-.216 1.185-.553l.568.697c-.473.504-1.042.816-1.824.816-1.303 0-2.346-1.032-2.346-2.689zm3.294-.384c-.048-.84-.427-1.44-1.067-1.44-.616 0-1.042.552-1.113 1.44h2.18zM158.094 39.568h1.114v7.18h-1.114zM160.464 39.568h1.114v7.18h-1.114zM162.549 44.154v-.072c0-1.585.948-2.713 2.228-2.713 1.421 0 2.156 1.2 2.156 2.761v.384h-3.246c.094.889.639 1.369 1.303 1.369.498 0 .853-.216 1.185-.553l.568.697c-.474.504-1.042.816-1.824.816-1.327 0-2.37-1.032-2.37-2.689zm3.294-.384c-.047-.84-.427-1.44-1.09-1.44-.616 0-1.043.552-1.114 1.44h2.204z"/></g></svg>