<?xml version="1.0" encoding="UTF-8"?>
<!-- Created with Inkscape (http://www.inkscape.org/) -->
<svg version="1.1" viewBox="0 0 100 100" xmlns="http://www.w3.org/2000/svg" xmlns:cc="http://creativecommons.org/ns#" xmlns:dc="http://purl.org/dc/elements/1.1/" xmlns:rdf="http://www.w3.org/1999/02/22-rdf-syntax-ns#">
 <title>NEON Data Theme - Organisms, Populations, &amp; Communities</title>
 <metadata>
  <rdf:RDF>
   <cc:Work rdf:about="">
    <dc:format>image/svg+xml</dc:format>
    <dc:type rdf:resource="http://purl.org/dc/dcmitype/StillImage"/>
    <dc:title>NEON Data Theme - Organisms, Populations, &amp; Communities</dc:title>
   </cc:Work>
  </rdf:RDF>
 </metadata>
 <g>
  <rect y="8.8818e-16" width="100" height="100" fill="#f5b23b"/>
  <circle cx="72.714" cy="27.086" r="21.143" fill="#fffbff"/>
  <circle cx="27" cy="27.086" r="21.143" fill="#a4681b"/>
  <circle cx="27" cy="72.771" r="21.143" fill="#fffbff"/>
  <circle cx="73" cy="72.771" r="21.143" fill="#a4681b"/>
  <path id="Selection" d="m30.106 25.086c-0.89857-0.59015-2.1978-0.61747-3.3217-0.80342-0.81768-0.13529-1.6481-0.19173-2.4762-0.22503-0.6578-0.02646-1.3175-0.01524-1.9749 0.02021-0.56163 0.03029-1.1255 0.1666-1.6793 0.16427-0.51975-0.39396-1.0447-0.81075-1.6416-1.0808-0.69689-0.31527-1.455-0.50444-2.2131-0.60642-0.62377-0.08392-1.2954-0.21153-1.8882 0-0.66315 0.23665-1.3125 0.61723-1.6351 1.3373-0.33402 0.37402-0.4734 0.9709-1.0236 1.1445-0.54973 0.02286-2.6842 1.0808-0.73421 0.76105 0.50939 0.01877 1.0718-0.18262 1.542 0.0092-0.2208 0.50006-2.8585 0.45291-1.7561 1.0671 0.65077 0.13559 1.4123-0.13782 1.9709 0.25007 0.42946 0.24852 0.79531 0.60772 1.2237 0.85864 0.48935 0.41776 0.99004 0.86583 1.244 1.4666 0.60657 0.60853 1.0796 1.3155 1.6504 1.9522 0.49289 0.50684 0.97181 1.0668 1.663 1.2851 0.34438 0.34483 2.1877 0.71155 0.96137 1.0165-0.74214-5e-3 -1.4674-0.23724-2.1241-0.4722-0.74692-0.63206-1.2732 0.47889-0.23029 0.32917-0.52376 0.40918-2.1711-0.84158-1.9612 0.51489 0.6788-0.30814 1.267 0.18436 2.0433 0.03256 0.58852-0.1494 1.3625 0.30721 0.28334 0.42387-1.0336-0.25404-1.2971 0.52965-0.24106 0.60602 0.93936-0.15043 2.0036-0.70718 2.8967-0.63999 0.75679 0.48492 1.6636 0.42652 2.3825 0.25405 0.62321 0.55192 0.78007-0.20726 0.09665-0.38183-0.6045-0.19308-1.3372 0.05456-1.9375-0.23588-0.13577-0.87799 1.5453 0.10902 2.1559 0.01181 0.90321 0.37647 1.9104 0.1277 2.8544 0.18728 0.0108 0.36674-0.8794 0.62261-1.2186 0.98495-0.58453 0.49402-1.2292 0.88975-1.8114 1.384-0.65072 0.53736-1.5414 0.18824-2.2892 0.10811-0.71406-0.72238-1.5512 0.13368-0.37584 0.41666 0.3052 0.53136-1.3095-0.43786-1.7015 6e-3 -0.48837 0.75541 0.36377 0.53979 0.4583 0.4295 0.52287 0.56013 2.1173-0.27376 2.2058 0.27983-0.56757-0.31538-1.6233 0.78124-0.70032 0.78861 0.93976 0.5316 1.5228-1.2996 2.6219-0.94638 0.786 0.13912 1.584-0.07984 2.3546 0.12698 0.29317-0.96726 1.806 0.54695 1.5064-0.48248-0.60443-0.64251-1.5529-0.27218-2.3288-0.29307-0.6907 0.34416-1.723 0.11907-0.60602-0.40474 0.62856-0.51251 1.3451-0.88088 1.9705-1.3826 0.55792-0.33483 1.0769-0.72199 1.649-1.0557 0.30282-0.79947 1.1849-0.91813 1.7983-1.3656 0.90672-0.56521 1.7584-1.2889 2.4817-2.0985 0.38958-0.85586 0.76664-1.8155 1.6608-2.3146 0.66068-0.54868 1.3313-1.1246 1.8144-1.8367 0.5335-0.40031 1.2396-0.23264 1.3004-0.98388 1.2024-0.51276 2.5026-0.75043 3.6651-1.3321 0.98029-0.24085 1.8346-0.60141 2.7791-0.97918 0.55639-0.48556 2.3928-0.75142 1.6026-1.7261-1.2615 0.24884-2.4743 0.57346-3.7037 0.891-1.0344 0.26716-2.0564 0.5808-3.0894 0.8531-0.74255 0.19572-1.4879 0.381-2.2344 0.56106-0.84565 0.20397-1.6861 0.43574-2.5426 0.58819-0.75315 0.13406-1.4602 0.43387-2.2771 0.28605-0.3744 0.04468-0.90746-0.16711-1.1198 0.25029zm-15.16-0.76304c1.3108 0.12102 0.30002 1.4832-0.46377 0.75553-0.09665-0.30912 0.2181-0.61981 0.46377-0.75553z" fill="#fff"/>
  <path d="m78.24 17.545c-0.07775-0.05432-0.17991-0.13802-0.28249-0.11406-0.17094 0.04006-0.14092 0.29356-0.46845 0.24028-0.48162-0.07797-0.31532-0.26638-0.89391-0.27246-0.1258 0.0022-0.28757-0.02062-0.42903 0-0.31996 0.04665-0.6315 0.15174-0.92966 0.27675-0.18628 0.07807-0.35744 0.18849-0.53032 0.29285-0.16079 0.09708-0.32018 0.19742-0.47093 0.30964-0.35463 0.2642-0.69878 0.54512-1.0158 0.8535-0.21392 0.2081-0.41575 0.43041-0.59457 0.66935-0.14168 0.18927-0.26154 0.39374-0.37579 0.60142-0.1284 0.17592-0.26889 0.17736-0.20312 0.50381 0.01512 0.07397 0.02916 0.1373 0.09071 0.18807 0.10475 0.08585 0.44058 0.0973 0.526-0.02041 0.07019-0.09762 0.05399-0.27068 0.08639-0.38223 0.1704-0.3692 0.36834-0.62059 0.6071-0.88819 0.34026-0.38132 0.75623-0.68915 1.1592-1.0033 0.19708-0.15358 0.39577-0.30814 0.6139-0.4298 0.22677-0.12639 0.46262-0.24817 0.7152-0.30786 0.29048-0.06868 0.68399-0.12836 0.89391-0.05151 0.09719 0.03542 0.13833 0.07753 0.21446 0.14195-0.4448 0.17092-0.48259 0.07278-0.71509 0.1441-0.20993 0.06436-0.40905 0.16078-0.60786 0.25423-0.19276 0.0906-0.38929 0.17775-0.56606 0.29678-0.17537 0.11817-0.3272 0.26828-0.4841 0.41012-0.14125 0.12769-0.30744 0.11549-0.41121 0.39654-0.01944 0.43544 0.11825 0.9321 0.22062 1.2869 0.05183 0.1684 0.1406 0.20953 0.15777 0.28962 0.02592 0.11979-0.09395 0.17878-0.14848 0.35435-0.06047 0.19594-0.05831 0.44052-0.05075 0.64361 0.0108 0.2385-0.20474 0.295-0.36154 0.30142-0.32245 0.01328-0.49695-0.4262-0.79197-0.55708-0.13261-0.05885-0.27947-0.09093-0.42439-0.09578-0.26414-0.0086-0.53043 0.04546-0.78344 0.12157-0.20204 0.0608-0.15593 0.28176-0.57535 0.26424-0.27763 0.03995-0.42169-0.20032-0.64392-0.26924-0.453-0.14049-1.083-0.36209-1.3927-0.29034-0.2041 0.1334-0.38692 0.16166-0.57038 0.26245-0.31154 0.17122-0.60418 0.37544-0.89564 0.57889-0.27839 0.19427-0.549 0.39974-0.81379 0.61214-0.39728 0.31865-0.79564 0.63825-1.1614 0.99259-0.21489 0.20823-0.46704 0.56021-0.60462 0.66364-0.4083 0.22543-0.78344 0.18799-1.1761 0.27818-0.45225 0.10388-0.69802 0.24109-1.3587 0.30285-0.13477-0.0065-0.17991-0.05183-0.42914-0.05475-0.27601-0.0032-0.35247-0.01965-0.35754 0.25029 0 0.1273-0.01296 0.50273 0.03132 0.60286 0.06587 0.14588 0.33076 0.16913 0.46693 0.12765 0.16986-0.05151 0.1488-0.18022 0.29178-0.25959 0.10907-0.06047 0.23638-0.0392 0.35333-0.06512 0.40884-0.09038 0.81033-0.21102 1.216-0.3143 0.35722-0.09093 0.65343-0.22984 1.0727-0.26889 0.23995-0.13608 0.49674-0.19603 0.71509-0.34576 0.24599-0.16867 0.43713-0.40594 0.65364-0.61107 0.34242-0.32443 0.67276-0.66168 1.0208-0.98007 0.23422-0.21429 0.45689-0.44511 0.718-0.62574 0.16652-0.1152 0.34264-0.35741 0.53496-0.28784 0.22623 0.2243 0.188 0.24187 0.50516 0.36615l0.48054 0.27746c0.06371 0.07397 0.01944 0.12694-0.05507 0.16413-0.10043 0.05075-0.24016 0.03088-0.35117 0.07581-0.15464 0.06263-0.28584 0.17231-0.42471 0.2646-0.27968 0.18573-0.54998 0.38527-0.82242 0.5814-0.26381 0.1899-0.53486 0.37076-0.78668 0.57639-0.20258 0.16551-0.34642 0.41196-0.58097 0.52776-0.27115 0.13381-0.59414 0.11335-0.89251 0.16197-0.32094 0.05227-0.6423 0.10324-0.9654 0.13945-0.15129 0.01695-0.36726-0.01749-0.45516 0.0365-0.10799 0.15026-0.25409 0.2756-0.35657 0.43158-0.11749 0.17894-0.19513 0.3811-0.29167 0.5721-0.09071 0.17944-0.18498 0.35731-0.27072 0.5392-0.09935 0.21121-0.1933 0.42526-0.28325 0.64076-0.1081 0.25907-0.21889 0.51762-0.30819 0.78378-0.10583 0.31668-0.19146 0.64035-0.26997 0.96505-0.08315 0.34266-0.0108 0.76518-0.21133 1.0362-0.19945 0.26496-0.7369 0.3901-1.0573 0.39403-0.22774 0.0022-0.45581 7.12e-4 -0.67934 0.05432l-0.25031 0.09082c-0.16587 0.05896-0.46661 0.10302-0.6436 0.10518l-1.0369 0.06512-0.92966-0.06468c-0.10259 0.0022-0.26176 0.01177-0.33616 0.09114-0.07451 0.07969-0.07451 0.37579-0.03564 0.47448 0.03348 0.08434 0.25701 0.38152 0.33821 0.4137 0.11868 0.04719 0.38584 0.02473 0.49274-0.04471 0.09719-0.06328 0.13336-0.14945 0.25668-0.19916 0.14556-0.05788 0.44739-0.05475 0.60753-0.05648l0.57211-0.05831c0.36953-0.16703 0.77804-0.16008 1.2157-0.20524l0.53637-0.03326c0.64587-0.16194 1.1409-0.26892 1.5375-0.45804 0.11544-0.05475 0.25452-0.0947 0.32104-0.21418 0.04319-0.07872 0.03672-0.19452 0.02808-0.28248-0.03887-0.39026 0.0216-0.76843 0.09395-1.1442 0.05615-0.29393 0.17083-0.57387 0.26457-0.85815 0.09503-0.28796 0.19945-0.57273 0.30182-0.85815 0.08531-0.23891 0.17591-0.47614 0.26133-0.71513 0.08099-0.22744 0.23919-0.68402 0.23919-0.68402 0.24761-0.11758 0.5828 0.05972 0.81454 0.11192-0.16328 0.4269-0.48011 0.65695-0.69079 1.0044-0.09719 0.16048-0.1825 0.32826-0.26392 0.49738-0.10691 0.22242-0.21284 0.44646-0.29459 0.67936-0.11457 0.32637-0.2217 0.65907-0.27277 1.0012-0.08315 0.5543-0.10367 1.1226-0.05075 1.6805 0.04427 0.47403 0.18163 0.93579 0.30927 1.3945 0.07451 0.26652 0.15982 0.53059 0.26468 0.78664 0.08531 0.20824 0.22159 0.55592 0.29491 0.60713 0.06803 0.04395 0.19524 0.03618 0.27537 0.0365 0.02052 0.27255 0.19546 0.38116 0.36078 0.50595 0.24146 0.1823 0.56606 0.21517 0.85525 0.30428 0.42374 0.13057 0.85104 0.25515 1.2869 0.33682 0.40095 0.07516 0.80785 0.14699 1.2157 0.13981 0.43389-0.0076 0.86476-0.09492 1.2872-0.19416 0.32914-0.07732 0.65192-0.18457 0.96551-0.31108 0.19578-0.07905 0.38454-0.17547 0.56887-0.27854 0.15852-0.08877 0.31791-0.17914 0.46045-0.29177 0.09503-0.07537 0.13984-0.25457 0.26144-0.25459 0.24286-4.3e-5 0.56747 0.35648 0.52201 0.5081-0.16425 0.2897-0.5584 0.27678-0.84737 0.39261-0.25722 0.10302-0.52309 0.18285-0.78668 0.26816-0.32018 0.10367-0.64101 0.20614-0.9654 0.29607-0.34318 0.09514-0.68345 0.21421-1.0369 0.25744-0.32763 0.04006-0.84597-0.0771-0.99013 0-0.10583 0.07721-0.07235 0.19237-0.17235 0.359-0.17893 0.47247-0.33368 0.89554-0.44663 1.3587-0.15723 0.64519-0.18844 1.3154-0.31856 1.9666-0.1081 0.54066-0.13714 0.90644-0.38335 1.609-0.01188 0.12194 0.08855 0.42157 0.20636 0.47414 0.07667 0.03402 0.26392 0.02754 0.35258 0.02646 0.188-0.0022 0.44804 0.0065 0.49058-0.21525 0.03564-0.12015 0.04211-0.2764 0-0.39118-0.09071-0.18915-0.19524-0.13694-0.20388-0.4305 0.13174-0.6526 0.13347-1.1725 0.24135-1.7521 0.12732-0.6834-0.01728-1.4979 0.47849-2.0299 0.19092-0.18486 0.45074-0.07786 0.67394-0.12729 0.37223-0.08239 0.74208-0.17659 1.1085-0.28212 0.30031-0.0865 0.59878-0.18045 0.89251-0.28748 0.23023-0.08391 0.4543-0.18406 0.68075-0.27783 0.23887-0.09891 0.48-0.19292 0.71509-0.30034 0.19254-0.0879 0.36057-0.15798 0.56898-0.2814 0.25139-0.09784 0.42644-0.14427 0.48227-0.33111 0.19016-0.63556 0.30085-1.123 0.30754-1.3745 0-0.21096-0.01296-0.78879 0.06263-0.96149 0.18714-0.17652 0.34858-0.3381 0.51164-0.51775 0.1839-0.20251 0.35798-0.41399 0.52525-0.63038 0.11101-0.14347 0.20777-0.29746 0.31683-0.4423 0.09179-0.12143 0.19254-0.23555 0.28325-0.35755 0.10151-0.13666 0.1987-0.27669 0.2921-0.41906 0.09071-0.13921 0.03672-0.4019 0.26208-0.42514 0.07019-0.0076 0.15226 0.01425 0.20885 0.05648 0.14125 0.10583 0.10863 0.26889 0.18876 0.40441 0.07991 0.13551 0.23595 0.19093 0.33713 0.32645 0.04643 0.06296 0.06479 0.13837 0.04643 0.20666-0.05399 0.20747-0.28444 0.32124-0.43162 0.47734-0.36899 0.3915-0.7463 0.7753-1.1309 1.1514-0.31975 0.31251-0.71465 0.55655-0.97792 0.91786-0.20971 0.28778-0.33228 0.63201-0.45732 0.96542-0.12591 0.33583-0.19643 0.68993-0.29254 1.0355-0.09935 0.35715-0.21133 0.71114-0.29318 1.0727-0.02916 0.12862 0 0.26924-0.07019 0.38938-0.06263 0.11622-0.1595 0.13122-0.2177 0.20024-0.09935 0.11835-0.04859 0.33145 0.0378 0.44337 0.14384 0.18666 0.40592 0.18879 0.62038 0.182 0.10475-0.0032 0.20917-0.0065 0.2596-0.11478 0.10583-0.22741-0.06911-0.5438-0.04104-0.81416 0.04104-0.40425 0.20593-0.78611 0.30431-1.1803 0.07991-0.32109 0.15172-0.64428 0.23314-0.96505 0.01836-0.07149 0.01728-0.15188 0.05723-0.21382 0.40473-0.46048 0.47482-0.61254 1.1331-1.0806 0.22278-0.23981 0.43562-0.48882 0.6422-0.74266 0.17084-0.20989 0.33055-0.42863 0.4935-0.64468 0.19708-0.26131 0.4272-0.50167 0.58561-0.78808 0.14222-0.25698 0.33152-0.58972 0.31975-0.82096l-0.08531-0.75088c-0.18908-0.2929-0.20463-0.39008-0.27418-0.75088-0.06047-0.19737-0.24351-0.30786-0.23671-0.46412 0.0108-0.14302 0.14697-0.16948 0.21813-0.26567 0.14006-0.34979 0.35571-0.59253 0.36035-0.77197 0-0.16305 0.0216-0.58176-0.04643-0.71154-0.1582-0.15779-0.23142-0.2814-0.33616-0.49094-0.07235-0.09546-0.27461-0.20524-0.22602-0.44195 0.24329-0.1412 0.79046-0.28397 1.1796-0.25029 0.13088 0.01641 0.16695 0.10442 0.28886 0.15233 0.37428 0.02365 0.66185 0.12672 0.964 0.23598 0.17591 0.0622 0.52276 0.0744 0.6733-0.04643 0.2961-0.35026 0.63723-0.72344 0.89424-1.1288 0.10691-0.16852 0.18368-0.35458 0.26608-0.53634 0.10151-0.22308 0.17667-0.45731 0.28001-0.67938 0.06263-0.13402-0.01296-0.27389 0.20485-0.39332 0.05615 0.24851 0.04643 0.52863 0 0.78664-0.04536 0.25047-0.16047 0.48434-0.26781 0.71513-0.08639 0.18551-0.192 0.3618-0.30107 0.53491-0.09179 0.14622-0.18962 0.28968-0.29783 0.42442-0.13509 0.1681-0.28519 0.32383-0.43702 0.477-0.26576 0.2683-0.53248 0.53833-0.82847 0.77304-0.12591 0.09989-0.24092 0.20146-0.40074 0.26853l-0.25031 0.1634c-0.16554 0.08725-0.35074 0.06047-0.45376 0.14232-0.09935 0.0797-0.08423 0.19201-0.02592 0.29141 0.05075 0.08617 0.20561 0.31394 0.30506 0.33574 0.15366 0.03358 0.22278-0.09514 0.32396-0.17806 0.29794-0.20348 0.61401-0.37606 0.89024-0.605 0.40689-0.33714 0.76217-0.73323 1.1192-1.1227 0.15993-0.1744 0.31899-0.35091 0.45732-0.54278 0.10583-0.14634 0.2055-0.29856 0.28282-0.46161 0.05399-0.11361 0.08531-0.23664 0.12451-0.35613 0.08207-0.24924 0.19654-0.49226 0.23055-0.75231 0.04967-0.37842 0.01404-0.7634-0.04211-1.1442-0.03455-0.23778-0.13725-0.32645-0.11695-0.42586 0.02052-0.0973 0.14125-0.14338 0.17883-0.28962 0.02592-0.10118-0.01512-0.20095 0.02268-0.28069 0.08423-0.17771 0.39955-0.1533 0.60116-0.2249 0.23692-0.08423 0.47622-0.16199 0.71509-0.24065 0.29729-0.09784 0.59155-0.20659 0.89391-0.28784 0.36985-0.09935 0.81098 0.02322 1.1227-0.2435 0.05939-0.05756 0.05615-0.14767 0.05723-0.22383 0.0108-0.41692 0.0108-0.37007-0.24426-0.57925-0.06155-0.05183-0.10475-0.1055-0.18768-0.12407-0.20453-0.04579-0.19416 0.1348-0.39156 0.25602-0.25506 0.22023-0.5205 0.23162-0.7856 0.33575-0.27105 0.10647-0.54684 0.20094-0.82232 0.29534-0.27267 0.09341-0.5625 0.14296-0.8221 0.26817-0.11609 0.05605-0.21986 0.17914-0.32288 0.2131-0.19157 0.06328-0.19481-0.21346-0.35679-0.21346-0.16846 0-0.15982 0.27675-0.32536 0.27282-0.11339-0.0032-0.2285-0.15125-0.35398-0.21884-0.09719-0.05291-0.41553-0.12371-0.53637-0.14803v-0.10723c0.3232-0.08509 0.30247-0.08725 0.57535-0.24958 0.06803-0.04039 0.13693-0.06328 0.19308-0.12265 0.19729-0.29751 0.33638-0.59422 0.33994-0.80773 0-0.20488 0.02592-0.65005-0.09719-0.81059-0.10475-0.13659-0.27752-0.14196-0.3773-0.26997-0.09719-0.12515-0.06911-0.30285-0.27742-0.38438-0.21122-0.03887-1.0732-0.06339-1.2067 0.0054-0.10831 0.10334-0.19686 0.17918-0.3218 0.26853-0.05183 0.04363-0.25031 0.30928-0.28357 0.37222-0.03456 0.06512-0.07559 0.27425-0.17559 0.25673-0.17375-0.03034-0.09071-0.37651-0.27105-0.55529-0.05291-0.05183-0.15701-0.11371-0.14405-0.20166 0.02052-0.14159 0.37504-0.12765 0.30031-0.35328-0.04211-0.12586-0.2488-0.13194-0.2488-0.26209 0.20733-0.30356 0.21057-0.54549 0.31532-0.81845 0.10043-0.26208 0.19762-0.52553 0.30074-0.78664 0.08963-0.22744 0.17483-0.45708 0.27666-0.67936 0.08207-0.17987 0.17494-0.39484 0.2704-0.52849 0.08639-0.11514 0.20809-0.10799 0.2528-0.25994 0.0108-0.04471 0.0108-0.12979 0-0.17699-0.02376-0.40798-0.27968-0.35792-0.60073-0.35363h-0.21306c-0.28217 0.05864-0.13488 0.3565-0.14589 0.63968-0.01944 0.48736-0.17332 0.52575-0.26576 0.78664-0.08963 0.2521-0.18628 0.50141-0.27882 0.75231-0.07883 0.21395-0.15982 0.42725-0.23606 0.64218-0.06263 0.17808-0.11133 0.36064-0.18336 0.53634zm-3.1466 1.9666s0.2137-0.11332 0.3218-0.16734c0.2217-0.11073 0.47946-0.19197 0.67049-0.32127 0.35711-0.24177 0.63539-0.23375 0.9654-0.31663 0.26144-0.10583 0.69738-0.24667 0.9708-0.11835 0.08747 0.04751 0.28282 0.29714 0.35614 0.38402 0.14697 0.17414 0.39145 0.29034 0.26457 0.56995-0.11015 0.24279-0.38908-0.09146-0.5814-0.06036-0.15323 0.02473-0.31856 0.123-0.42439 0.19129-0.2096 0.13517-0.1095 0.29607-0.13844 0.4466-0.02376 0.12193-0.19308 0.3286-0.30139 0.38688-0.22494 0.12122-0.41802-0.1298-0.56606-0.20202-0.10151-0.04935-0.2136-0.04017-0.3218-0.04179-0.14157-0.0022-0.32137-0.01469-0.42266 0.04179-0.08207 0.04611-0.13444 0.14052-0.19481 0.16698-0.08423 0.0365-0.12656-0.03402-0.1488-0.10367-0.03132-0.09762-0.0108-0.19308-0.07235-0.31644-0.07127-0.13551-0.26608-0.29963-0.3773-0.53956zm6.0032-0.65398c0.1798 0.05896 0.08315 0.2013 0 0.30642-0.14373 0.18379-0.26424 0.52598-0.53248 0.55208-0.24167 0.02322-0.25496-0.26602-0.15226-0.41549 0.15701-0.14365 0.56445-0.41466 0.68474-0.44302zm-0.62438 2.5019c0.25247-0.01782 0.3705 0.1323 0.53248 0.28462 0.06695 0.0636 0.44512 0.39833 0.46726 0.4559 0.05291 0.1373-0.13034 0.32023-0.17548 0.48664-0.06695 0.24558-0.06047 0.50885-0.14017 0.75052-0.04967 0.15119-0.14449 0.28397-0.20928 0.42944-0.09935 0.22315-0.17559 0.45606-0.2745 0.67936-0.05723 0.12914-0.03456 0.30178-0.18455 0.38152-0.22461 0.0011-0.73204-0.21487-0.9046-0.35077-0.06587-0.05615-0.04967-0.16167-0.05507-0.24528-0.01404-0.20281 0.0378-0.40491 0.04967-0.60786 0.01944-0.33491-0.15528-0.8372 0.03564-1.0058 0.08531-0.06728 0.20528-0.03931 0.30647-0.04967 0.21522-0.02289 0.36435-0.11156 0.47125-0.30322 0.07667-0.13658 0.07667-0.31465 0.04643-0.46483-0.03132-0.15519-0.11295-0.3243 0.03348-0.44052zm-15.247 12.955c0.05075-0.34862 0.20962-0.54381 0.42592-0.78946 1.5844-1.5514 3.2125-3.1681 4.5865-4.4795 0.57373-0.59008 1.1503-1.1766 1.7453-1.7453 1.039-0.9844 2.1187-2.0196 3.0107-2.9034l0.40784-0.38943c0.15658-0.12765 0.48734-0.07041 0.43151 0.18664-0.04319 0.2006-0.2646 0.35252-0.41297 0.4605-3.0466 3.0465-6.3099 6.2221-9.1511 8.9219-0.32968 0.31036-0.5885 0.60182-1.0437 0.73805z" fill="#a4681b"/>
  <path d="m40.359 65.127c-0.96515 0.16604-1.9281 0.29231-2.8636 0.54539-0.70676 0.08135-1.331 0.42808-2.0067 0.59992-0.50664 0.16903-0.97608 0.43328-1.4899 0.59646-0.45952 0.31764-1.0075 0.48105-1.4634 0.80746-0.48984 0.21576-0.8926 0.57055-1.3547 0.83601-0.75431 0.64378-1.6071 1.2052-2.233 1.9853-0.40905 0.57319-0.89616 1.0902-1.2434 1.7056-0.48799 0.68688-1.0014 1.3556-1.4784 2.0499-0.51956 0.67008-1.0249 1.3441-1.5749 1.9889-0.84478 1.1044-1.8477 2.0975-2.9655 2.9233-0.68731 0.5627-1.4468 0.99426-2.2561 1.3581-1.2504 0.38045 0.69305 0.45031 1.1923 0.35712 1.0317 0.01231 2.0501 0.0048 3.0768-0.09441 1.1384-0.30059 2.2897-0.44966 3.3539-0.95143 0.71502-0.3746 1.4677-0.68903 2.0558-1.2647 0.83109-0.65829 1.5084-1.5037 2.1853-2.3138 0.46753-0.69528 0.95681-1.3703 1.3342-2.1158 0.20039-0.29019 0.2872-0.63397 0.50284-0.91485 0.17326-0.56178 0.42782-1.074 0.64281-1.6068 0.30274-0.74298 0.51622-1.5117 0.84485-2.2387 0.13174-0.49998 0.36972-0.95792 0.62732-1.4071 0.3712-0.69291 1.069-1.1307 1.7631-1.4336 0.63098-0.23368 1.2585-0.5429 1.95-0.5691 0.48218 0.0046 0.95905-0.13458 1.4362 0.0022 0.55801-0.03028 1.965 0.46716 1.186-0.53849-0.2474-0.4598-0.80023-0.31033-1.2218-0.30679zm-7.9736 0.22956c-1.6676 0.0087-3.3905-0.13149-4.9728 0.51475-2.0667 0.64819-3.82 2.0424-5.1237 3.7427-2.3157 2.8422-3.4393 6.4105-5.4718 9.4353-0.75601 0.8376-1.5166 1.705-2.4513 2.3454-0.60659 0.12666-0.88653 0.87726-0.01998 0.47076 2.4153-0.80251 4.9539-1.4955 6.9607-3.1404 1.5634-1.2458 2.7726-2.8756 3.9757-4.4562 1.5227-1.973 2.7951-4.1766 4.7191-5.8027 1.1965-0.95007 2.4183-1.9717 3.8709-2.4939 1.0368-0.33987-0.04028-0.73925-0.599-0.57438-0.29776 0.01069-0.59168-0.01253-0.88794-0.04148z" fill="#a4681b"/>
  <path d="m77.845 69.042c-0.09287 0.0065-0.15105-0.26139-0.29906-0.26084-0.14801 5.08e-4 -0.23014 0.28149-0.36436 0.28784-0.1342 0.0065-0.20578-0.25977-0.37687-0.25513-0.17109 0.0043-0.21864 0.26585-0.38741 0.27086-0.16877 0.0054-0.14213-0.27515-0.33159-0.2735-0.18946 0.0022-0.21365 0.25271-0.38974 0.24788-0.1761-0.0043-0.12769-0.30282-0.41392-0.28726-0.28623 0.01555-0.22039 0.3-0.45191 0.30934-0.23152 0.0097-0.21193-0.30492-0.41196-0.29521-0.20002 0.0097-0.2426 0.24582-0.35059 0.30625-0.08509 0.04719-0.18056-0.01717-0.31108-0.0297-0.43444-0.04179-0.34183 0.29606-0.64361 0.34183-0.25888 0.03931-0.29574-0.16275-0.43837-0.2528-0.14478-0.09146-0.27424-0.20664-0.42299-0.29142-0.2067-0.11778-0.4182-0.2374-0.64791-0.29927-0.8645-0.23291-1.78-0.29637-2.6742-0.25102-0.42211 0.02138-0.8424 0.11375-1.244 0.24565-0.20161 0.06619-0.39596 0.15876-0.57603 0.27104-0.31681 0.19752-0.63292 0.41525-0.87424 0.70011-0.18382 0.21696-0.35507 0.46682-0.41657 0.74444-0.08034 0.36255-0.09794 0.78644 0.08261 1.1109 0.05788 0.10399 0.29613 0.09146 0.28855 0.21025-0.01155 0.18158-0.29789 0.24002-0.47841 0.26281-0.28067 0.03542-0.56165-0.10043-0.82204-0.21096-0.28626-0.12155-0.53716-0.31451-0.7945-0.48914-0.28268-0.19183-0.57127-0.38013-0.82168-0.61251-0.57817-0.53653-1.0304-1.1945-1.5518-1.7864-0.09514-0.10799-0.18972-0.2163-0.28748-0.32181-0.13726-0.14816-0.2745-0.29663-0.41978-0.43694-0.10172-0.09827-0.20784-0.19212-0.31609-0.2832-0.12655-0.10647-0.24851-0.22084-0.38938-0.3075-0.22283-0.13707-0.4505-0.32005-0.71191-0.33038-0.2984-0.01177-0.6122 0.11858-0.83991 0.31179-0.17406 0.14769-0.28111 0.374-0.33968 0.59463-0.21715 0.8179 0.0419 1.6935 0 2.5387-0.0054 0.10712 0.0086 0.22097-0.03186 0.32038-0.03682 0.0906-0.11751 0.15666-0.18308 0.22919-0.20928 0.23153-0.42034 0.46644-0.669 0.65506-0.1323 0.10032-0.2989 0.149-0.43158 0.24887-0.17967 0.13524-0.34951 0.28934-0.48556 0.4684-0.10043 0.13219-0.2026 0.27561-0.23706 0.43802-0.0554 0.26091-0.05734 0.55932 0.0622 0.79772 0.07376 0.14708 0.23212 0.2376 0.37151 0.32503 0.20744 0.1301 0.43998 0.22246 0.67615 0.28713 0.55624 0.15227 1.1394 0.19165 1.7149 0.22919 0.3687 0.02408 0.74022 0.02765 1.1084-0.0032 0.34907-0.02894 0.68807-0.13878 1.0369-0.17021 0.70046-0.06306 1.4138-0.13833 2.1096-0.03574 0.30951 0.04568 0.5986 0.18274 0.8939 0.28606 0.21713 0.07592 0.4411 0.13887 0.64505 0.24528 0.20821 0.10863 0.60786 0.16347 0.58211 0.39689-0.02289 0.20732-0.46431 0.05875-0.5814 0.23135-0.22461 0.33111-0.02818 0.80122 0 1.2003 0.0086 0.11755 0.01847 0.23643 0.04967 0.35005 0.05864 0.21277 0.1442 0.42024 0.25565 0.61072 0.18215 0.31128 0.40687 0.6017 0.66542 0.85314 0.15798 0.15363 0.33866 0.28692 0.53242 0.39189 0.20132 0.10907 0.42144 0.18419 0.64325 0.24099 0.12726 0.03261 0.25906 0.04676 0.3901 0.05615 0.42797 0.03067 0.86118 0.05097 1.2872 0 0.4602-0.05507 0.90688-0.1961 1.3512-0.32789 0.25562-0.07581 0.50218-0.17939 0.75446-0.26567 0.26272-0.08984 0.51302-0.27045 0.79057-0.26245 0.21908 0.0065 0.39854 0.18922 0.61107 0.24279 0.1153 0.02905 0.2364 0.02592 0.35435 0.04114 0.37009 0.04751 0.73731 0.11766 1.1084 0.15626 0.26139 0.02721 0.52664 0.09125 0.78664 0.05291 0.24933-0.03672 0.47478-0.16988 0.70761-0.26638 0.20553-0.0852 0.4-0.19633 0.60786-0.27568 0.28237-0.10777 0.57571-0.18447 0.8653-0.27104 0.2732-0.08164 0.5378-0.22347 0.82275-0.2342 0.4012-0.01512 0.79638 0.12313 1.18 0.24172 0.21762 0.06728 0.5093 0.07149 0.63003 0.26459 0.05669 0.09082 0.06382 0.25159-0.01793 0.32064-0.10194 0.08606-0.26507-0.02959-0.39755-0.04492-0.39345-0.04557-0.7839-0.13534-1.18-0.14016-0.52622-0.0065-1.066 0.0032-1.5718 0.14803-0.21727 0.06242-0.41988 0.17607-0.60606 0.30428-0.14181 0.09762-0.27578 0.21246-0.38116 0.34862-0.24019 0.31032-0.53367 0.64814-0.55137 1.0401-0.01469 0.32473 0.141 0.67598 0.37723 0.89927 0.16947 0.16018 0.42722 0.21158 0.65934 0.23384 0.4077 0.03909 0.82672-0.0527 1.215-0.18307 0.22677-0.07613 0.42958-0.21291 0.63038-0.3429 0.40408-0.2616 0.77197-0.5755 1.1488-0.87496 0.4152-0.32991 0.7349-0.81256 1.225-1.0151 0.15486-0.06404 0.33328-0.03682 0.50058-0.04611 0.4999-0.02797 1.0025 0.0076 1.5018-0.0297 0.23975-0.01814 0.47675-0.06296 0.71512-0.09438 0.28604-0.0378 0.57932-0.0392 0.85815-0.11335 0.21483-0.05712 0.60176-0.03099 0.61715-0.2528 0.0076-0.11364-0.19403-0.11988-0.29534-0.17198-0.37388-0.19228-0.78073-0.31692-1.1503-0.5174-0.21946-0.11906-0.43953-0.24371-0.63002-0.40512-0.17466-0.14798-0.31099-0.3361-0.46125-0.50881-0.14551-0.16726-0.28788-0.33734-0.42621-0.51059-0.11348-0.14214-0.23583-0.27879-0.3311-0.43373-0.13088-0.21282-0.27064-0.43118-0.32645-0.67471-0.06393-0.27882-0.05194-0.57686 0-0.85816 0.0555-0.30065 0.16131-0.60011 0.32752-0.85671 0.14566-0.22487 0.34031-0.42738 0.5678-0.56888 0.28808-0.17918 0.62925-0.27132 0.964-0.32645 0.28224-0.04654 0.57221-0.0076 0.85815 0 0.30822 0.0086 0.84233-0.24631 0.92358 0.05108 0.07106 0.2603-0.41646 0.36666-0.67328 0.44945-0.48809 0.15735-1.06-0.13287-1.5375 0.05399-0.2465 0.09643-0.46518 0.29139-0.60179 0.51811-0.19558 0.32463-0.26208 0.72956-0.25315 1.1084 0.0065 0.29526 0.10658 0.58888 0.23779 0.8535 0.2173 0.43845 0.53924 0.82543 0.88675 1.1699 0.237 0.23496 0.51869 0.42321 0.80308 0.59785 0.34418 0.21135 0.70361 0.40639 1.0849 0.53952 0.57138 0.19948 1.1704 0.37676 1.7756 0.37905 0.49889 0.0022 1.028-0.19363 1.466-0.30143 0.38197-0.09416 0.76326-0.19237 1.1396-0.30715 0.25452-0.07764 0.50816-0.15972 0.75553-0.2578 0.23884-0.09471 0.47256-0.20272 0.70189-0.31859 0.16183-0.08175 0.32473-0.16363 0.47484-0.26531 0.13872-0.09395 0.3031-0.17349 0.39047-0.31643 0.07365-0.12046 0.0852-0.27327 0.08725-0.41442 0.0022-0.16228 0.03164-0.36784-0.0865-0.47914-0.04233-0.03995-0.11608-0.03088-0.17342-0.02073-0.19743 0.03477-0.35681 0.18293-0.5367 0.27139-0.21456 0.1055-0.43012 0.20904-0.64718 0.30928-0.21255 0.09816-0.42331 0.2011-0.64147 0.28606-0.30394 0.11834-0.60503 0.35722-0.92787 0.31072-0.14615-0.02106-0.27946-0.13195-0.36328-0.25351-0.04093-0.05928-0.08315-0.14434-0.05259-0.20954 0.09924-0.21154 0.42143-0.20194 0.63182-0.30357 0.19089-0.09222 0.37854-0.19135 0.5721-0.27783 0.2349-0.10496 0.47153-0.20724 0.71441-0.29212 0.25788-0.09017 0.56631-0.06836 0.78664-0.22991 0.08261-0.06058 0.15318-0.15443 0.17091-0.2553 0.01274-0.07257-0.01209-0.15326-0.05291-0.21454-0.11544-0.17306-0.33612-0.24526-0.50201-0.37078-0.10908-0.0825-0.2173-0.1662-0.32432-0.25137-0.17318-0.13786-0.33742-0.28694-0.51417-0.42016-0.54556-0.4112-1.101-0.812-1.6838-1.1685-0.17239-0.1055-0.35619-0.19104-0.53456-0.28606-0.36911-0.19663-0.73565-0.39826-1.1084-0.58782-0.38796-0.19728-0.77447-0.39882-1.1739-0.57174-0.49158-0.21284-0.99304-0.40427-1.5018-0.5721-0.31739-0.10475-0.64155-0.18817-0.96542-0.27068-0.47352-0.12063-0.94457-0.26238-1.4288-0.32788-0.24827-0.03358-0.50421 0.01123-0.75088-0.0325-0.23274-0.04125-0.48131-0.08056-0.67579-0.21489-0.24126-0.16667-0.3249-0.49713-0.546-0.68974-0.11208-0.09762-0.23514-0.22719-0.38429-0.22624-0.14914 9.07e-4 -0.25534 0.24957-0.34821 0.2561zm8.8209 4.391c0.28372-0.02257 0.5918 0.24926 0.6765 0.52097 0.05896 0.18903-0.02127 0.44896-0.18128 0.56567-0.15175 0.11072-0.39847 0.08963-0.56353 0-0.20973-0.11394-0.41124-0.36299-0.38973-0.60071 0.02009-0.22169 0.23614-0.46828 0.45804-0.48593z" fill="#fff"/>
 </g>
</svg>
