<svg xmlns="http://www.w3.org/2000/svg" viewBox="0 0 500 500"><g id="freepik--background-complete--inject-15"><rect x="79.85" y="49.91" width="159.91" height="200.93" style="fill:#e0e0e0"></rect><rect x="85.7" y="55.66" width="149.23" height="189.44" style="fill:#fafafa"></rect><polygon points="85.7 195.11 115.72 195.11 119.58 212.78 132.61 212.78 143.71 162.54 180.85 162.54 180.85 128.28 207.87 128.28 207.87 185.52 234.93 185.52 234.93 245.11 85.7 245.11 85.7 195.11" style="fill:#f5f5f5"></polygon><rect x="157.87" y="55.66" width="4.82" height="187.88" style="fill:#e0e0e0"></rect><rect x="85.7" y="147.44" width="149.23" height="4.94" style="fill:#e0e0e0"></rect><polygon points="391.64 103.48 401.24 128.03 395.27 128.01 390.49 112.92 391.64 103.48" style="fill:#e0e0e0"></polygon><polygon points="358.87 80.79 355.57 127.84 389.63 128.55 393.46 80.79 358.87 80.79" style="fill:#ebebeb"></polygon><polygon points="362.27 84.58 359.53 123.74 384.85 124.93 388.39 84.35 362.27 84.58" style="fill:#fafafa"></polygon><polygon points="367.83 90.12 365.77 117.64 379.74 117.64 382.21 90.12 367.83 90.12" style="fill:#e0e0e0"></polygon><polygon points="308.28 128.21 308.28 89.52 336.61 89.52 336.61 128.18 308.28 128.21" style="fill:#ebebeb"></polygon><path d="M324.39,89.52s6.83-49.94,4.92-49.87-6.72,45.53-6.72,45.53-.2-37.65-2-37.45,0,39.86,0,39.86-3.08-32.19-4.74-31.42.71,33.35.71,33.35h7.84" style="fill:#e0e0e0"></path><path d="M319.24,89.52s2.37-24.89,3.15-23.19,0,14.82,0,14.82S329,49,330.67,50.07,324,85,324,85s6.4-19.31,7.81-17.27-5.31,20.15-5.31,20.15,6.87-12.81,7.34-11.09-3.28,12.74-3.28,12.74Z" style="fill:#ebebeb"></path><path d="M315.2,89.67s-15.14-29.73-13.27-28.81S313.49,81,313.49,81s-6.41-18.54-5-19.11,8.43,20.83,8.43,20.83l1.58,7Z" style="fill:#ebebeb"></path><polygon points="321.4 89.59 322.11 128.27 308.64 128.27 308.38 89.46 321.4 89.59" style="fill:#e0e0e0"></polygon><polygon points="308.31 92.94 321.36 93.16 336.61 92.94 337.09 89.24 307.94 89.24 308.31 92.94" style="fill:#f5f5f5"></polygon><rect x="283.91" y="127.58" width="141.66" height="6.22" style="fill:#e0e0e0"></rect></g><g id="freepik--Device--inject-15"><path d="M310.46,351.72c-1.2-1.33,1.63-9.1,15.06-9.65s18.81,4.34,18.83,9.65C344.36,354.07,310.46,351.72,310.46,351.72Z" style="fill:#455a64"></path><polygon points="303.83 148.44 288.91 240.71 425.17 240.71 441.59 147.45 303.83 148.44" style="fill:#f5f5f5"></polygon><path d="M302.47,156.83c.06-.32,137.56-.52,137.56-.52l1.56-8.86-137.76,1-1.36,8.4" style="fill:#e0e0e0"></path><path d="M309.59,152.59a1.27,1.27,0,1,1-1.27-1.26A1.26,1.26,0,0,1,309.59,152.59Z" style="fill:#263238"></path><path d="M315.79,152.59a1.26,1.26,0,1,1-1.26-1.26A1.26,1.26,0,0,1,315.79,152.59Z" style="fill:#263238"></path><path d="M322,152.59a1.27,1.27,0,1,1-1.27-1.26A1.26,1.26,0,0,1,322,152.59Z" style="fill:#263238"></path><path d="M337.39,198.28,320.34,218a24.2,24.2,0,0,1-10.61-19.67c0-13.71,12.49-25,27.66-25s27.66,11.28,27.66,25Z" style="fill:#263238"></path><path d="M339.58,201.41a2.37,2.37,0,0,1-.29.39l-.89,1.06-3.38,4c-2.94,3.44-7.12,8.3-12.13,14.15l0-.32a27.7,27.7,0,0,0,12.7,4.72,29.19,29.19,0,0,0,15.1-2.28A27.31,27.31,0,0,0,362,214a25.45,25.45,0,0,0,3.09-6.05,24.77,24.77,0,0,0,1.19-6.19l.22.23-19.5-.33-5.48-.12-1.45-.05a2.73,2.73,0,0,1-.51,0,2.49,2.49,0,0,1,.48,0l1.43,0h5.45l19.58.13h.24l0,.24a24.54,24.54,0,0,1-1.18,6.33,25.69,25.69,0,0,1-3.13,6.18,27.62,27.62,0,0,1-11.57,9.35,29.79,29.79,0,0,1-15.37,2.3,28.16,28.16,0,0,1-12.9-4.86l-.2-.14.16-.19,12.34-14.07,3.45-3.9.92-1A3.16,3.16,0,0,1,339.58,201.41Z" style="fill:#263238"></path><circle cx="349.15" cy="183.43" r="1.55" style="fill:#263238"></circle><path d="M381.49,172.09a8.57,8.57,0,0,1-1.46.1l-4,.08c-3.35,0-8,.08-13.09.08H360.5l.18-.07c-3.21,3.2-6.07,6-8.14,8l-2.45,2.34a5.07,5.07,0,0,1-.94.8,7.17,7.17,0,0,1,.81-.93c.61-.65,1.4-1.47,2.34-2.45,2-2.07,4.82-4.93,8-8.15l.07-.07H363c5.11,0,9.74,0,13.09.07l4,.09A7.42,7.42,0,0,1,381.49,172.09Z" style="fill:#263238"></path><path d="M416.61,191.57a2.84,2.84,0,0,1,.07-.53c.06-.36.14-.85.25-1.48l1-5.59,3.61-20.06.21.25-38.73.05.25-.21h0v.1l0,.12,0,.23-.09.46-.17.93-.34,1.84c-.23,1.22-.45,2.43-.68,3.63q-.66,3.6-1.31,7.08c-.87,4.62-1.7,9-2.47,13.21l-.24-.28,27.9.11,8,.07,2.13,0h.55l.2,0h-.17l-.53,0-2.09,0-7.92.06-28,.11h-.28l.05-.28c.77-4.17,1.58-8.6,2.44-13.23.42-2.31.86-4.67,1.3-7.07.23-1.21.45-2.42.68-3.64.11-.61.22-1.22.34-1.84l.17-.92.08-.46.05-.24,0-.11v-.09h0l.26-.22,38.73.05H422l-.05.25c-1.6,8.37-2.92,15.28-3.84,20.13-.47,2.37-.83,4.23-1.09,5.54l-.29,1.43C416.65,191.42,416.61,191.58,416.61,191.57Z" style="fill:#263238"></path><circle cx="351.58" cy="214.61" r="1.55" style="fill:#263238"></circle><path d="M379.72,214.61c0,.15-6.3.26-14.07.26s-14.07-.11-14.07-.26,6.3-.26,14.07-.26S379.72,214.47,379.72,214.61Z" style="fill:#263238"></path><path d="M416.61,226.69a2.27,2.27,0,0,1,.07-.38c.06-.27.14-.63.25-1.08.23-1,.56-2.33,1-4.07.87-3.54,2.11-8.59,3.64-14.8l.19.24-39.94.06.25-.19h0v.06l0,.08,0,.17-.09.34-.17.66-.33,1.34c-.23.88-.45,1.76-.67,2.64L379.39,217c-.86,3.39-1.69,6.67-2.49,9.8l-.23-.3,28.65.11,8.28.06,2.22,0h.58l.21,0-.18,0h-.56l-2.17,0-8.24.06-28.79.11h-.32l.08-.31c.79-3.13,1.61-6.42,2.46-9.81q.64-2.55,1.31-5.17l.66-2.64.34-1.33.17-.67.08-.34,0-.16,0-.09v-.06h0l.25-.2,39.94.07H422l-.06.24c-1.62,6.24-2.93,11.31-3.85,14.86-.46,1.71-.82,3.06-1.07,4-.12.43-.21.77-.28,1S416.61,226.7,416.61,226.69Z" style="fill:#263238"></path><path d="M413.46,172.44c0,.15-5.93.26-13.25.26s-13.25-.11-13.25-.26,5.93-.26,13.25-.26S413.46,172.3,413.46,172.44Z" style="fill:#263238"></path><path d="M413.15,176.78c0,.15-6,.26-13.32.26s-13.33-.11-13.33-.26,6-.26,13.33-.26S413.15,176.64,413.15,176.78Z" style="fill:#263238"></path><path d="M412.38,181c0,.14-5.76.26-12.86.26s-12.87-.12-12.87-.26,5.76-.26,12.87-.26S412.38,180.82,412.38,181Z" style="fill:#263238"></path><path d="M412.84,214.13c0,.14-5.65.26-12.63.26s-12.63-.12-12.63-.26,5.66-.26,12.63-.26S412.84,214,412.84,214.13Z" style="fill:#263238"></path><path d="M411.29,218.93c0,.15-4.82.26-10.77.26s-10.77-.11-10.77-.26,4.82-.26,10.77-.26S411.29,218.79,411.29,218.93Z" style="fill:#263238"></path><path d="M250.34,319.4c-.48,2.81-13.82,32.33-5.21,32.33h43.28s-4.47-4.2,9.06-32.33Z" style="fill:#455a64"></path><polygon points="222.34 220.87 204.65 324.25 353.86 324.25 372.16 217.24 222.34 220.87" style="fill:#455a64"></polygon><polygon points="227.41 225.91 212.5 318.19 348.75 318.19 365.17 224.93 227.41 225.91" style="fill:#fafafa"></polygon><polygon points="372.16 217.24 374.98 219.14 355.98 327.06 208.59 327.06 204.65 324.25 353.86 324.25 372.16 217.24" style="fill:#263238"></polygon><path d="M226.06,234.31c.05-.33,137.55-.52,137.55-.52l1.56-8.86-137.76,1-1.35,8.4" style="fill:#ebebeb"></path><path d="M327.28,310l0-.26.12-.77q.19-1.1.51-3c.47-2.69,1.13-6.55,1.95-11.34,1.7-9.7,4.07-23.2,6.76-38.52l0-.22h11.26l-.05.31c-4.17,22.59-7.82,42.44-9.93,53.85l0,.12h-.11l-7.84-.08-2,0h-.49l.54,0,2.07,0,7.75-.08-.14.11,9.68-53.89.26.3H336.9l.25-.21c-2.77,15.23-5.2,28.64-7,38.29-.88,4.8-1.6,8.67-2.1,11.37-.25,1.31-.44,2.34-.58,3.08-.07.33-.12.6-.16.8A1.8,1.8,0,0,1,327.28,310Z" style="fill:#263238"></path><path d="M310,310a3.75,3.75,0,0,1,.11-.72c.09-.53.22-1.24.38-2.14.36-1.93.86-4.66,1.49-8,1.31-6.93,3.14-16.57,5.23-27.59l0-.21h11.26l-.06.31c-3.16,15.67-6,29.6-7.76,38.43l0,.13h-.13l-7.83-.09-2,0a5,5,0,0,1-.67,0l.74,0,2.08,0,7.72-.09-.16.13c1.74-8.84,4.48-22.78,7.56-38.47l.25.31H317.43l.25-.2c-2.17,10.92-4.07,20.48-5.44,27.35-.69,3.41-1.24,6.15-1.64,8.08l-.45,2.19c0,.23-.1.42-.13.57Z" style="fill:#263238"></path><path d="M292.65,310a2,2,0,0,1,0-.32l.16-1c.15-.88.36-2.14.64-3.76.58-3.31,1.41-8.08,2.45-14,2.12-12,5.07-28.61,8.41-47.44l0-.21h11.26l-.05.3c-5.22,28.59-9.83,53.5-12.27,66.43l0,.11h-.11l-7.87-.08-2,0-.66,0,.71,0,2.05,0,7.78-.07-.12.1c2.28-13,6.78-37.89,12-66.47l.26.31H304.6l.25-.22c-3.41,18.73-6.43,35.29-8.61,47.2-1.1,5.94-2,10.73-2.6,14.05l-.72,3.81c-.08.42-.14.75-.19,1Z" style="fill:#263238"></path><path d="M275.33,310a3.42,3.42,0,0,1,.06-.5c.07-.39.15-.88.25-1.5.23-1.38.56-3.3,1-5.69.87-4.95,2.08-11.82,3.47-19.76l0-.21h11.25l-.06.31c-2.07,10.8-3.93,20.52-5.25,27.39l0,.15h-.14l-7.8-.1L276,310a5.56,5.56,0,0,1-.69,0l.76,0,2.11,0,7.68-.1-.18.14c1.28-6.87,3.09-16.61,5.09-27.42l.26.31H280.32l.24-.2c-1.48,7.85-2.75,14.64-3.68,19.53-.46,2.4-.84,4.34-1.11,5.73-.13.63-.23,1.15-.31,1.54A4.19,4.19,0,0,1,275.33,310Z" style="fill:#263238"></path><path d="M258,310s0-.07,0-.21,0-.39.09-.65c.1-.61.23-1.45.4-2.53.37-2.25.89-5.47,1.54-9.47,1.36-8.14,3.24-19.46,5.39-32.35l0-.21h11.26l-.06.31c-3.3,18.63-6.21,35.1-8,45.14l0,.13h-.12l-7.82-.09-2.05,0a5.17,5.17,0,0,1-.67,0l.19,0h.54l2.08,0,7.73-.08-.15.12,7.78-45.18.26.31H265.72l.25-.21c-2.23,12.8-4.19,24-5.6,32.11-.72,4-1.29,7.25-1.7,9.52-.2,1.09-.35,2-.47,2.57l-.13.68Z" style="fill:#263238"></path><path d="M240.7,310a1.08,1.08,0,0,1,0-.29c0-.22.08-.51.14-.88.14-.81.33-2,.58-3.44.51-3,1.26-7.39,2.18-12.81,1.9-10.95,4.55-26.19,7.55-43.44l0-.21h11.26l-.05.31c-4.66,25.92-8.78,48.58-11.05,60.79l0,.11h-.11l-7.85-.08-2,0h-.48l.53,0,2.05,0,7.77-.08-.13.11c2.12-12.24,6.14-34.92,10.8-60.83l.25.3H251.43l.25-.21c-3.07,17.16-5.79,32.31-7.74,43.2-1,5.44-1.79,9.81-2.35,12.85-.27,1.5-.49,2.66-.64,3.49-.08.38-.13.68-.18.91S240.7,310,240.7,310Z" style="fill:#263238"></path><path d="M233.17,230.07a1.27,1.27,0,1,1-1.27-1.26A1.27,1.27,0,0,1,233.17,230.07Z" style="fill:#263238"></path><circle cx="238.11" cy="230.07" r="1.26" style="fill:#263238"></circle><path d="M245.58,230.07a1.27,1.27,0,1,1-1.26-1.26A1.27,1.27,0,0,1,245.58,230.07Z" style="fill:#263238"></path><path d="M223.38,310s0-.26.11-.77.21-1.31.37-2.27c.35-2,.84-4.93,1.45-8.52,1.28-7.34,3.05-17.54,5.08-29.18l0-.21h11.26l-.06.31c-3.09,16.66-5.84,31.44-7.55,40.68l0,.13h-.12l-7.83-.09-2,0a5.47,5.47,0,0,1-.68,0l.2,0h.54l2.08,0,7.73-.09-.16.13,7.35-40.71.25.3H230.64l.25-.21c-2.11,11.55-4,21.67-5.28,28.94-.68,3.61-1.22,6.52-1.61,8.56-.18,1-.33,1.76-.44,2.32l-.12.61A1,1,0,0,1,223.38,310Z" style="fill:#263238"></path><polygon points="340.27 269.31 283.19 269.31 286.45 250.15 343.93 250.15 340.27 269.31" style="fill:#263238"></polygon><path d="M283.19,269.31,282.08,276s7.5-6.95,7.38-6.95h-6.22" style="fill:#263238"></path><path d="M335.32,256.81c0,.14-9.51.26-21.23.26s-21.24-.12-21.24-.26,9.51-.26,21.24-.26S335.32,256.67,335.32,256.81Z" style="fill:#fafafa"></path><path d="M334.76,261.44c0,.14-9.51.26-21.23.26s-21.24-.12-21.24-.26,9.51-.26,21.24-.26S334.76,261.29,334.76,261.44Z" style="fill:#fafafa"></path></g><g id="freepik--Desk--inject-15"><rect x="265.5" y="358.35" width="162.62" height="94.89" style="fill:#263238"></rect><rect x="265.5" y="358.35" width="74.08" height="94.89" style="fill:#455a64"></rect><path d="M332,390.58s0-.17,0-.48,0-.79,0-1.38c0-1.23,0-3-.05-5.27,0-4.56-.05-11.13-.1-19.23l.19.19-59.59.07c-.23.24.31-.31.26-.25h0v6.86c0,2.27,0,4.51,0,6.71,0,4.41,0,8.69,0,12.78l-.24-.24,42.71.11,12.39.07,3.32,0,.87,0h.3a1.27,1.27,0,0,1-.27,0h-.84l-3.27,0-12.33.07-42.88.12h-.25v-.25c0-4.09,0-8.37,0-12.78V364.23h0c-.06,0,.49-.5.26-.27L332,364h.19v.18c0,8.15-.08,14.75-.1,19.35,0,2.25,0,4-.05,5.22,0,.57,0,1,0,1.35A3.32,3.32,0,0,1,332,390.58Z" style="fill:#263238"></path><path d="M304.77,377.4s-.06-.22-.18-.59a2.53,2.53,0,0,0-.93-1.27,2.34,2.34,0,0,0-2.21-.29,2.3,2.3,0,0,0,0,4.31,2.4,2.4,0,0,0,2.21-.29,2.53,2.53,0,0,0,.93-1.27c.12-.37.13-.6.18-.6s.08.23,0,.65a2.57,2.57,0,0,1-.91,1.51,2.69,2.69,0,0,1-2.59.45,2.76,2.76,0,0,1,0-5.21,2.72,2.72,0,0,1,2.59.44,2.58,2.58,0,0,1,.91,1.52C304.85,377.18,304.8,377.41,304.77,377.4Z" style="fill:#263238"></path><path d="M332,419.6s0-.17,0-.48,0-.8,0-1.39c0-1.23,0-3-.05-5.26,0-4.57-.05-11.13-.1-19.23l.19.19-59.59.07.26-.26h0v6.85c0,2.27,0,4.5,0,6.71,0,4.41,0,8.68,0,12.78l-.24-.25,42.71.12,12.39.07,3.32,0h.87a1.85,1.85,0,0,1,.3,0h-.27l-.84,0-3.27,0-12.33.07-42.88.12h-.25v-.25c0-4.1,0-8.37,0-12.78V393.26h0l.26-.26,59.59.07h.19v.19c0,8.15-.08,14.75-.1,19.34,0,2.25,0,4-.05,5.23,0,.57,0,1,0,1.34A3.61,3.61,0,0,1,332,419.6Z" style="fill:#263238"></path><path d="M304.77,406.42s-.06-.23-.18-.6a2.53,2.53,0,0,0-.93-1.27,2.4,2.4,0,0,0-2.21-.29,2.3,2.3,0,0,0,0,4.31,2.37,2.37,0,0,0,2.21-.28,2.51,2.51,0,0,0,.93-1.28c.12-.37.13-.59.18-.59s.08.23,0,.64a2.56,2.56,0,0,1-.91,1.52,2.69,2.69,0,0,1-2.59.44,2.76,2.76,0,0,1,0-5.21,2.69,2.69,0,0,1,2.59.45,2.56,2.56,0,0,1,.91,1.52C304.85,406.19,304.8,406.42,304.77,406.42Z" style="fill:#263238"></path><path d="M332,448.61s0-.17,0-.48,0-.79,0-1.38c0-1.23,0-3-.05-5.27,0-4.56-.05-11.13-.1-19.23l.19.19-59.59.07c-.23.24.31-.31.26-.25h0v6.86c0,2.27,0,4.51,0,6.71,0,4.41,0,8.69,0,12.78l-.24-.24,42.71.11,12.39.07,3.32,0,.87,0h.3a1.27,1.27,0,0,1-.27,0h-.84l-3.27,0-12.33.06-42.88.12h-.25v-.25c0-4.09,0-8.37,0-12.78V422.26h0c-.06.05.49-.5.26-.27l59.59.08h.19v.18c0,8.15-.08,14.76-.1,19.35,0,2.25,0,4-.05,5.22,0,.58,0,1,0,1.35A3.32,3.32,0,0,1,332,448.61Z" style="fill:#263238"></path><path d="M304.77,435.43s-.06-.22-.18-.59a2.53,2.53,0,0,0-.93-1.27,2.37,2.37,0,0,0-2.21-.29,2.3,2.3,0,0,0,0,4.31,2.37,2.37,0,0,0,2.21-.29,2.53,2.53,0,0,0,.93-1.27c.12-.37.13-.6.18-.6s.08.23,0,.65a2.61,2.61,0,0,1-.91,1.52,2.72,2.72,0,0,1-2.59.44,2.76,2.76,0,0,1,0-5.21,2.72,2.72,0,0,1,2.59.44,2.58,2.58,0,0,1,.91,1.52C304.85,435.21,304.8,435.44,304.77,435.43Z" style="fill:#263238"></path><rect x="48.51" y="358.35" width="136.79" height="94.89" style="fill:#263238"></rect><rect x="43.26" y="351.73" width="390.75" height="9.02" style="fill:#263238"></rect><rect x="48.51" y="360.75" width="12.12" height="92.49" style="fill:#455a64"></rect></g><g id="freepik--Character--inject-15"><path d="M200.43,209a9.34,9.34,0,0,1-.17-1.15,8.2,8.2,0,0,0-1-2.92,3.41,3.41,0,0,0-1.46-1.4,1.91,1.91,0,0,0-2.09.39,8.09,8.09,0,0,0,0,10.15,1.91,1.91,0,0,0,2.09.4,3.49,3.49,0,0,0,1.46-1.41,8.2,8.2,0,0,0,1-2.92,8.92,8.92,0,0,1,.17-1.14,3.54,3.54,0,0,1,0,1.17,7.56,7.56,0,0,1-.87,3.08,3.84,3.84,0,0,1-1.61,1.61,2.22,2.22,0,0,1-1.31.19,2.75,2.75,0,0,1-1.26-.61,8.4,8.4,0,0,1,0-10.88,2.67,2.67,0,0,1,1.26-.62,2.3,2.3,0,0,1,1.31.19,3.84,3.84,0,0,1,1.61,1.61,7.56,7.56,0,0,1,.87,3.09A3.58,3.58,0,0,1,200.43,209Z" style="fill:#263238"></path><path d="M157.26,189.45l-3,59.92L180,251.79l1.42-14.55s9,2.24,11.8-6.13c1.75-5.35,3.31-47.24,3.31-47.24Z" style="fill:#ffbe9d"></path><path d="M202,190.05c-2.19,5.21-10.45,9.68-10.45,9.68L190.2,213a26.82,26.82,0,0,0-3.69,0c.66-6.23-7.35-5-8.17-.77-.78,4.08,3.87,6.81,3.87,6.81-3.21,4.92-4.51,7.52-9.07,12.13-4.92,5-7.57,5.4-12.66,5.25l-5.61-.26s-2-4.79-3.45-16.1c-.71-5.44-5-12.57-3.75-21.42,3.44-25.13,31.25-20.67,31.25-20.67C189.36,169.85,207.16,177.8,202,190.05Z" style="fill:#263238"></path><path d="M200.43,209.07a31,31,0,0,1-5.76.56,32.7,32.7,0,0,1-5.78,0,31.35,31.35,0,0,1,5.75-.55A33.37,33.37,0,0,1,200.43,209.07Z" style="fill:#263238"></path><path d="M282.43,279.46l-9.35,5.79-3.43,8v-7s2.54-3,4.62-5.19.59-3.71,0-4.46-9.54,9.65-9.54,9.65v6c-4.17-5.13-6.1-3.37-6.74-2.44s6.74,7.89,6.74,7.89v2.12l-36.67,19.72-9.65-24L198.7,305.89l11.77,28.49a14.86,14.86,0,0,0,21.31,7.13L274.93,316l2.87-4.79a12.07,12.07,0,0,0,1.71-5.44L281,284.22C283.62,282.58,282.43,279.46,282.43,279.46Z" style="fill:#ffbe9d"></path><path d="M228.24,319.57a51.3,51.3,0,0,1-3.62,9.78,53.16,53.16,0,0,1,3.62-9.78Z" style="fill:#eb996e"></path><path d="M281,284.22a16.94,16.94,0,0,1-1.7.76,5.37,5.37,0,0,0-2.81,3.2,39.71,39.71,0,0,1-2.72,5.83,40.25,40.25,0,0,1,2.24-6,6.11,6.11,0,0,1,1.36-2.19,6,6,0,0,1,1.77-1.14A4.24,4.24,0,0,1,281,284.22Z" style="fill:#eb996e"></path><path d="M280.86,287.63a1.09,1.09,0,0,0-.79.52c-.29.56-.66,1.44-1,2.38a34.21,34.21,0,0,1-1.32,3.5,8.66,8.66,0,0,1,.83-3.69,12.62,12.62,0,0,1,1.23-2.4,1.07,1.07,0,0,1,.78-.44C280.78,287.5,280.87,287.6,280.86,287.63Z" style="fill:#eb996e"></path><path d="M192.81,302.24,197,316.43l26.59-12c-1-3-5.36-16.21-13.77-37.21A36.14,36.14,0,0,0,182.25,245c-8.7-1.45-18.17-2.58-25.46-2.49a31.61,31.61,0,0,0-30.68,25.3c-2.25,11.15,1.69,18.52-.85,42.92l-.81,61.37,71,2.61Z" style="fill:#263238"></path><path d="M128.56,310.08s-9.87.58-13.75-6.89c0,0,10.63-39.3,14.34-43.93Z" style="fill:#263238"></path><path d="M211.16,271.18a3.07,3.07,0,0,1-.84.46,8.54,8.54,0,0,1-2.71.51,17.87,17.87,0,0,1-4.31-.55c-1.64-.37-3.47-.92-5.52-1.26a23.91,23.91,0,0,0-3.22-.17,20.68,20.68,0,0,0-3.45.57,29.75,29.75,0,0,0-7.17,3c-2.43,1.32-4.9,2.88-7.53,4.42a39.5,39.5,0,0,1-8.61,4,17,17,0,0,1-9.55.15,24.35,24.35,0,0,1-7.81-4.23c-2.23-1.73-4.17-3.55-6-5.21a51.47,51.47,0,0,0-5.3-4.32,20.53,20.53,0,0,0-9-3.82,32.26,32.26,0,0,0-3.62,0,3.65,3.65,0,0,1,.92-.24,12.44,12.44,0,0,1,2.74-.13,19.92,19.92,0,0,1,9.34,3.62,48.09,48.09,0,0,1,5.46,4.29c1.86,1.64,3.82,3.42,6,5.08a23.69,23.69,0,0,0,7.51,4,16.17,16.17,0,0,0,9-.17,39.84,39.84,0,0,0,8.39-3.87c2.61-1.51,5.1-3.07,7.58-4.39a30.24,30.24,0,0,1,7.43-3,21.13,21.13,0,0,1,3.62-.54,25.47,25.47,0,0,1,3.37.26c2.12.4,3.93,1,5.54,1.42a18.53,18.53,0,0,0,4.17.7A11.68,11.68,0,0,0,211.16,271.18Z" style="fill:#263238"></path><path d="M193.28,320.15a12.47,12.47,0,0,0-4.41-1.6,14.81,14.81,0,0,0-5.08.28c-1.9.38-3.95,1.07-6.2,1.63a25,25,0,0,1-11.79.16c-3-.7-4.61-1.65-4.56-1.75s1.79.53,4.71,1a27.59,27.59,0,0,0,11.39-.45c2.19-.55,4.28-1.22,6.27-1.57a14.37,14.37,0,0,1,5.38-.06,8.56,8.56,0,0,1,3.36,1.38C193.05,319.72,193.33,320.11,193.28,320.15Z" style="fill:#263238"></path><path d="M194,356.79s-.27.45-.94,1.08a14.54,14.54,0,0,1-3.22,2.23,12.82,12.82,0,0,1-5.67,1.44,18.81,18.81,0,0,1-7-1.56c-2.33-.91-4.46-1.93-6.47-2.5a15.4,15.4,0,0,0-5.49-.64,8.61,8.61,0,0,0-3.54,1c-.78.43-1.14.78-1.21.71s.24-.49,1-1a7.86,7.86,0,0,1,3.68-1.44,15.19,15.19,0,0,1,5.82.45,63.53,63.53,0,0,1,6.6,2.46,19.06,19.06,0,0,0,6.59,1.57,12.77,12.77,0,0,0,5.35-1.15C192.45,358.11,193.9,356.64,194,356.79Z" style="fill:#263238"></path><g style="opacity:0.30000000000000004"><path d="M117,310.77c9.3,1.9,18.85,0,28.32-.58,5.75-.34,12.12-1,16.66,2.57,3.6,2.8,5,7.51,6.09,11.95,4,16.94,4.69,32.07,5.58,49.44l-46-1Z"></path></g><polygon points="129.15 278.88 131.14 307.56 125.08 307.56 129.15 278.88" style="opacity:0.30000000000000004"></polygon><path d="M142.07,372.06l91.3,3.23a27.22,27.22,0,0,1,26.26,27.64l-.8,51.81H225.35l-2.16-44.67-81.12-2.14Z" style="fill:#263238"></path><rect x="163.71" y="419.43" width="8.98" height="32.87" style="fill:#455a64"></rect><path d="M88.36,315V394.2A18.81,18.81,0,0,0,107.17,413h52.74V315a8.39,8.39,0,0,0-8.39-8.38H96.74A8.38,8.38,0,0,0,88.36,315Z" style="fill:#455a64"></path><path d="M230.89,419.43H102.45a14,14,0,0,1,14-13.94H217a13.94,13.94,0,0,1,13.94,13.94Z" style="fill:#455a64"></path><path d="M159.91,403.64a7.34,7.34,0,0,1-.2,2.33,9.48,9.48,0,0,1-7.51,7.1,13.44,13.44,0,0,1-2.47.17h-2.59l-11.54,0-21,0-6.35-.08-1.73,0a2.31,2.31,0,0,1-.6-.06,3.92,3.92,0,0,1,.6-.05l1.73-.05,6.35-.09,21-.1h14.13a12.45,12.45,0,0,0,2.4-.14A9,9,0,0,0,156,411a9.38,9.38,0,0,0,3.47-5.06C159.89,404.48,159.84,403.63,159.91,403.64Z" style="fill:#263238"></path><path d="M176.07,419.7a58.44,58.44,0,0,1-7.87.26,58.53,58.53,0,0,1-7.88-.26,60.59,60.59,0,0,1,7.88-.26A60.49,60.49,0,0,1,176.07,419.7Z" style="fill:#263238"></path><path d="M215.15,413.7a3.87,3.87,0,0,1-.24-1c-.13-.65-.3-1.59-.5-2.81-.41-2.45-1-6-1.64-10.36-.36-2.18-.65-4.61-1.13-7.14-.13-.63-.25-1.27-.38-1.93s-.38-1.28-.57-1.94c-.1-.32-.19-.66-.29-1s-.25-.65-.38-1c-.27-.66-.51-1.33-.8-2a36.37,36.37,0,0,0-4.78-7.65,34.46,34.46,0,0,0-7.19-6.48,32.11,32.11,0,0,0-8.72-4.2,32.78,32.78,0,0,0-8.89-1.52c-5.82-.13-11.12-.1-15.54-.16s-8-.11-10.48-.17c-1.24,0-2.2-.06-2.86-.1a3.87,3.87,0,0,1-1-.1,3.54,3.54,0,0,1,1-.11l2.86-.1c2.47-.06,6.06-.11,10.48-.16s9.69-.14,15.57-.06a32.87,32.87,0,0,1,9.17,1.51,32.15,32.15,0,0,1,9,4.31,34.46,34.46,0,0,1,7.4,6.69,37,37,0,0,1,4.87,7.91c.29.68.53,1.38.8,2.05.12.34.25.67.38,1s.19.68.29,1c.19.68.37,1.34.55,2s.25,1.33.37,2c.45,2.59.69,5,1,7.18.57,4.39,1,7.95,1.31,10.41.14,1.23.25,2.19.31,2.84A3.64,3.64,0,0,1,215.15,413.7Z" style="fill:#455a64"></path></g><g id="freepik--Plant--inject-15"><path d="M53.07,317.86s-1.62,4.53,1.48,7.81H61S60.43,318.35,53.07,317.86Z" style="fill:#263238"></path><path d="M53.07,317.86s-1.62,4.53,1.48,7.81H61S60.43,318.35,53.07,317.86Z" style="opacity:0.4"></path><path d="M64.06,308.53c-.27-.32-5.79,8.32-2.69,17.14h6.08S69.83,315.41,64.06,308.53Z" style="fill:#263238"></path><path d="M74.83,317.86a7.91,7.91,0,0,0-7.38,7.81h6.07S76.18,321.93,74.83,317.86Z" style="fill:#263238"></path><path d="M54.05,325.33a13.63,13.63,0,0,0-5.46,13.52c1.56,9,11.06,12.88,11.06,12.88H70.18S80.9,347,80.64,337.27,74,325.47,74,325.47Z" style="fill:#455a64"></path><path d="M80.6,336.18a5.07,5.07,0,0,0-.87-1.09,4.73,4.73,0,0,0-3.51-1,12.7,12.7,0,0,0-5.15,2.24A17.94,17.94,0,0,1,68,337.9a7.14,7.14,0,0,1-3.71.37c-2.57-.44-4.62-1.82-6.54-2.74a9.65,9.65,0,0,0-5.4-1.3,5.12,5.12,0,0,0-3.28,1.67,6.34,6.34,0,0,0-.72,1.2,1.41,1.41,0,0,1,.07-.37,3.2,3.2,0,0,1,.49-1,5.15,5.15,0,0,1,3.39-1.9A9.67,9.67,0,0,1,58,335.1c2,.92,4,2.25,6.41,2.65a6.63,6.63,0,0,0,3.46-.33,17.71,17.71,0,0,0,3-1.51,12.73,12.73,0,0,1,5.36-2.19,4.8,4.8,0,0,1,3.69,1.22,3,3,0,0,1,.62.88C80.59,336.05,80.62,336.17,80.6,336.18Z" style="fill:#263238"></path><path d="M80.75,338.53a5.47,5.47,0,0,0-.86-1.08,4.6,4.6,0,0,0-3.48-1,12.57,12.57,0,0,0-5.09,2.23,17.16,17.16,0,0,1-3,1.58,7,7,0,0,1-3.68.37c-2.55-.44-4.58-1.82-6.48-2.74a9.43,9.43,0,0,0-5.33-1.3,5.08,5.08,0,0,0-3.25,1.68,5.88,5.88,0,0,0-.7,1.19s0-.13.06-.37a3.34,3.34,0,0,1,.48-.95,5.12,5.12,0,0,1,3.35-1.91,9.52,9.52,0,0,1,5.61,1.23c1.94.92,4,2.25,6.34,2.65a6.48,6.48,0,0,0,3.42-.33,17,17,0,0,0,2.95-1.51,12.5,12.5,0,0,1,5.31-2.19A4.7,4.7,0,0,1,80,337.3a3,3,0,0,1,.61.87A1.17,1.17,0,0,1,80.75,338.53Z" style="fill:#263238"></path><path d="M53.42,338.47c0-.06.28-.24.65.06a.73.73,0,0,1,.21.8.84.84,0,0,1-1.61-.1.78.78,0,0,1,.23-.77c.36-.3.67-.16.65-.1s-.22.11-.37.35a.41.41,0,0,0,0,.39.45.45,0,0,0,.34.27.43.43,0,0,0,.36-.22.36.36,0,0,0,0-.37C53.66,338.55,53.43,338.54,53.42,338.47Z" style="fill:#263238"></path><path d="M65.35,334.67c0-.06.28-.25.66.06a.75.75,0,0,1,.2.8.86.86,0,0,1-.84.56.88.88,0,0,1-.77-.66.76.76,0,0,1,.24-.77c.36-.3.67-.16.64-.1s-.22.11-.37.35a.44.44,0,0,0,0,.39.45.45,0,0,0,.34.27.42.42,0,0,0,.36-.22.35.35,0,0,0,0-.37C65.59,334.75,65.36,334.74,65.35,334.67Z" style="fill:#263238"></path><path d="M76.92,338.64c0-.06.28-.24.66.06a.75.75,0,0,1,.2.8.86.86,0,0,1-.84.56.88.88,0,0,1-.77-.65.78.78,0,0,1,.24-.78c.36-.3.67-.16.64-.1s-.22.12-.37.35a.42.42,0,0,0,.29.66.42.42,0,0,0,.36-.22.35.35,0,0,0,0-.37C77.16,338.73,76.94,338.71,76.92,338.64Z" style="fill:#263238"></path></g><g id="freepik--Coffee--inject-15"><polygon points="381.32 316.15 384.75 351.73 402.09 351.73 406.24 316.15 381.32 316.15" style="fill:#455a64"></polygon><path d="M381.32,311.55a7.43,7.43,0,0,0-1.63,4.7h28.18a5.26,5.26,0,0,0-1.63-4.7Z" style="fill:#263238"></path><polygon points="384.53 308.29 383.58 311.81 404.85 311.97 403.44 308.25 384.53 308.29" style="fill:#263238"></polygon><path d="M381,325.06C381,325.39,383,343,383,343h21.19l2-17.91Z" style="fill:#263238"></path></g></svg>