<svg xmlns="http://www.w3.org/2000/svg" viewBox="0 0 500 500"><g id="freepik--Floor--inject-17"><ellipse id="freepik--floor--inject-17" cx="249.05" cy="349.92" rx="229.25" ry="124.27" style="fill:#f5f5f5"></ellipse></g><g id="freepik--Shadows--inject-17"><path id="freepik--Shadow--inject-17" d="M209,387.14,140,426.91a6.65,6.65,0,0,1-6,0L65.2,387.14c-1.65-1-1.65-2.51,0-3.46l68.93-39.77a6.65,6.65,0,0,1,6,0L209,383.68C210.61,384.63,210.61,386.18,209,387.14Z" style="fill:#e6e6e6"></path><path d="M340.16,376.61a9.88,9.88,0,0,1-4.94-1.25l-70.34-40.61a6.34,6.34,0,0,1,0-11.31l96.25-55.56a10.29,10.29,0,0,1,9.87,0l70.34,40.61a6.33,6.33,0,0,1,0,11.3L345.1,375.36A9.88,9.88,0,0,1,340.16,376.61Z" style="fill:#e6e6e6"></path></g><g id="freepik--Plants--inject-17"><g id="freepik--plants--inject-17"><path d="M417.1,293.2c.07-7.67-1.34-21.81,5.26-35,4.78-9.56,13.27-18.82,21.09-17.83,7.28.93,7.84,12.13.81,19.74s-13.57,20.73-15.64,37.67l-7.54,10Z" style="fill:#BA68C8"></path><g style="opacity:0.1"><path d="M417.1,293.2c.07-7.67-1.34-21.81,5.26-35,4.78-9.56,13.27-18.82,21.09-17.83,7.28.93,7.84,12.13.81,19.74s-13.57,20.73-15.64,37.67l-7.54,10Z"></path></g><path d="M423.16,299.18a.53.53,0,0,0,.41-.57c-2-21.72,4.16-40.16,17.81-53.31a.53.53,0,0,0-.74-.77c-13.89,13.39-20.16,32.12-18.13,54.18a.53.53,0,0,0,.58.48Z" style="fill:#fff"></path><path d="M428.34,304.31a27,27,0,0,0,13.57,3.42c8.2,0,11.12-4.4,11.12-4.4s-4.34-7-9.22-8.38a45.16,45.16,0,0,1,14.79,3.48s4.9-.7,5.66-8.47c0,0-3.61-4-13.71-4.91,0,0,5.67-2.43,14.54-1.61.67.15,1.86-9.93,2-14.51s-1.67-4.25-5.29-4.62-15.52.93-17.38,3.18-1.94,8.95-1.94,8.95-2.66-3.36-2.69-6.73a11,11,0,0,0-6.9,2.08c-2.24,1.6-3.44,3-3.55,5.9a53.48,53.48,0,0,0,.79,9.64,19.2,19.2,0,0,1-2-11.61s-6.6,4.54-6.93,9S420.2,298,428.34,304.31Z" style="fill:#BA68C8"></path><path d="M428.49,304.83a.56.56,0,0,0,.36-.36c4.31-14.43,25.81-33.82,34.13-36.86a.53.53,0,0,0,.32-.68.51.51,0,0,0-.68-.32c-8.49,3.09-30.4,22.85-34.79,37.55a.54.54,0,0,0,.35.67A.65.65,0,0,0,428.49,304.83Z" style="fill:#fff"></path></g></g><g id="freepik--Lines--inject-17"><path d="M263,377.48a4.89,4.89,0,0,1-2.41-.59l-32.23-18.65a4.3,4.3,0,0,0-3.83,0l-30.33,17.5a.5.5,0,1,1-.5-.86L224,357.37a5.28,5.28,0,0,1,4.83,0L261.09,376a4.3,4.3,0,0,0,3.83,0l42.51-24.54a.5.5,0,1,1,.5.86l-42.51,24.55A5,5,0,0,1,263,377.48Z" style="fill:#BA68C8"></path><path d="M185.84,371.16a.51.51,0,0,1-.44-.25.5.5,0,0,1,.19-.68L224,348a5.22,5.22,0,0,1,4.83,0l32.23,18.6a4.3,4.3,0,0,0,3.83,0l34.39-19.85a.5.5,0,1,1,.5.86l-34.39,19.86a5.28,5.28,0,0,1-4.83,0L228.36,348.9a4.3,4.3,0,0,0-3.83,0l-38.44,22.2A.57.57,0,0,1,185.84,371.16Z" style="fill:#BA68C8"></path><path d="M177.7,366.48a.52.52,0,0,1-.44-.25.51.51,0,0,1,.19-.68L224,338.66a5.22,5.22,0,0,1,4.83,0l32.23,18.6a4.3,4.3,0,0,0,3.83,0l26.6-15.36a.51.51,0,0,1,.68.19.49.49,0,0,1-.18.68l-26.6,15.36a5.28,5.28,0,0,1-4.83,0l-32.23-18.61a4.3,4.3,0,0,0-3.83,0L178,366.41A.47.47,0,0,1,177.7,366.48Z" style="fill:#BA68C8"></path><path d="M169.6,361.78a.5.5,0,0,1-.25-.93L224,329.27a5.28,5.28,0,0,1,4.83,0l32.22,18.61a4.32,4.32,0,0,0,3.84,0l18.14-10.47a.5.5,0,0,1,.5.86l-18.14,10.48a5.3,5.3,0,0,1-4.84,0l-32.22-18.61a4.3,4.3,0,0,0-3.83,0l-54.68,31.58A.54.54,0,0,1,169.6,361.78Z" style="fill:#BA68C8"></path></g><g id="freepik--Device--inject-17"><g id="freepik--Laptop--inject-17"><g id="freepik--laptop--inject-17"><path d="M262.17,325a5.51,5.51,0,0,0,2.58,4.29l72.44,41.83a5.74,5.74,0,0,0,5.17,0l99.11-57.23a4.85,4.85,0,0,0,0-8.58L369,263.5a5.7,5.7,0,0,0-5.18,0l-99.11,57.22A5.53,5.53,0,0,0,262.17,325Z" style="fill:#37474f"></path><path d="M339.77,366.15v5.59a5.29,5.29,0,0,1-2.58-.61l-72.44-41.82a4.85,4.85,0,0,1-.26-8.42c-1.16.83-1.07,2,.26,2.81l72.44,41.83A5.29,5.29,0,0,0,339.77,366.15Z" style="fill:#263238"></path><path d="M259.74,320.81a5.54,5.54,0,0,1-2.42-4.38V230a5.7,5.7,0,0,1,2.58-4.47L359,168.28a4.86,4.86,0,0,1,7.44,4.3V259a5.72,5.72,0,0,1-2.59,4.48l-99.11,57.22A5.57,5.57,0,0,1,259.74,320.81Z" style="fill:#455a64"></path><path d="M264.45,320.87a4.83,4.83,0,0,1-7.13-4.44V230a5.11,5.11,0,0,1,.76-2.54l4.84,2.79h0a5.34,5.34,0,0,0-.75,2.54v86.45C262.17,320.76,263.16,321.44,264.45,320.87Z" style="fill:#263238"></path><path d="M262.17,232.78v86.45c0,1.65,1.15,2.31,2.58,1.49l99.11-57.22a5.72,5.72,0,0,0,2.59-4.48V172.58c0-1.65-1.16-2.32-2.59-1.5l-99.11,57.23A5.7,5.7,0,0,0,262.17,232.78Z" style="fill:#37474f"></path><path d="M264.75,323.7l72.44,41.82a5.68,5.68,0,0,0,5.17,0l99.11-57.22c1.43-.82,1.43-2.16,0-3L369,263.5a5.7,5.7,0,0,0-5.18,0l-99.11,57.22C263.32,321.54,263.32,322.88,264.75,323.7Z" style="fill:#455a64"></path><path d="M266.14,233.1,361.7,178c.86-.5,1.55-.1,1.55.89v74.83a3.43,3.43,0,0,1-1.55,2.69l-95.56,55.15c-.85.5-1.55.1-1.55-.89V235.79A3.46,3.46,0,0,1,266.14,233.1Z" style="fill:#fafafa"></path><path d="M273.16,321.47l92-53.12a2.86,2.86,0,0,1,2.58,0l4.71,2.72a.79.79,0,0,1,0,1.49l-92,53.11a2.88,2.88,0,0,1-2.59,0L273.16,323A.79.79,0,0,1,273.16,321.47Z" style="fill:#BA68C8"></path><path d="M273.16,321.47l92-53.12a2.86,2.86,0,0,1,2.58,0l4.71,2.72a.79.79,0,0,1,0,1.49l-92,53.11a2.88,2.88,0,0,1-2.59,0L273.16,323A.79.79,0,0,1,273.16,321.47Z" style="fill:#263238"></path><path d="M285.29,328.47l92-53.12a2.88,2.88,0,0,1,2.59,0l28.94,16.71a.78.78,0,0,1,0,1.49L316.92,346.6a2.88,2.88,0,0,1-2.59,0l-29-16.64A.78.78,0,0,1,285.29,328.47Z" style="fill:#263238"></path><path d="M367.75,299.25l2.88-1.66c.13-.08.12-.19,0-.27l-3.33-1.92a.5.5,0,0,0-.46,0L364,297.05c-.13.07-.12.19,0,.27l3.33,1.92A.53.53,0,0,0,367.75,299.25Zm-5.68-6.61-2.88,1.66c-.12.07-.12.19,0,.27l3.33,1.92a.5.5,0,0,0,.46,0l2.88-1.66c.12-.07.11-.19,0-.27l-3.33-1.92A.5.5,0,0,0,362.07,292.64ZM352.76,298l-4.87,2.82c-.12.07-.12.19,0,.26l3.33,1.93a.53.53,0,0,0,.46,0l4.87-2.82c.12-.07.12-.19,0-.26L353.22,298A.53.53,0,0,0,352.76,298Zm5.1-2.94L355,296.73c-.12.07-.12.19,0,.27l3.33,1.92a.5.5,0,0,0,.46,0l2.88-1.66c.12-.07.11-.19,0-.27l-3.33-1.92A.5.5,0,0,0,357.86,295.07Zm-11.3,6.53-2.88,1.66c-.12.07-.12.19,0,.26l3.33,1.93a.53.53,0,0,0,.46,0l2.88-1.67c.12-.07.11-.19,0-.26L347,301.6A.5.5,0,0,0,346.56,301.6ZM342.35,304l-2.88,1.66c-.12.07-.12.19,0,.26l3.33,1.93a.53.53,0,0,0,.46,0l2.88-1.67c.12-.07.11-.19,0-.26L342.81,304A.5.5,0,0,0,342.35,304Zm13.1,7.82,2.88-1.67c.12-.07.12-.19,0-.26L355,308a.48.48,0,0,0-.45,0l-2.89,1.66c-.12.07-.11.19,0,.26l3.33,1.93A.53.53,0,0,0,355.45,311.85Zm-4.21,2.43,2.88-1.67c.12-.07.12-.19,0-.26l-3.34-1.92a.45.45,0,0,0-.45,0l-2.89,1.66c-.12.07-.11.19,0,.26l3.33,1.93A.53.53,0,0,0,351.24,314.28ZM347,316.71l2.88-1.67c.12-.07.12-.19,0-.26l-3.34-1.92a.48.48,0,0,0-.45,0l-2.89,1.66c-.12.07-.11.19,0,.26l3.33,1.93A.53.53,0,0,0,347,316.71Zm-4.21,2.43,2.88-1.67c.12-.07.12-.19,0-.26l-3.34-1.92a.48.48,0,0,0-.45,0L339,316.94c-.12.07-.11.19,0,.27l3.33,1.92A.53.53,0,0,0,342.82,319.14Zm20.72-17.46,2.88-1.66c.13-.07.12-.19,0-.27l-3.33-1.92a.5.5,0,0,0-.46,0l-2.88,1.66c-.12.07-.12.19,0,.27l3.33,1.92A.5.5,0,0,0,363.54,301.68Zm-3.88,7.74,6.43-3.71c.12-.08.11-.19,0-.27L358,300.77a.5.5,0,0,0-.46,0l-3.32,1.92c-.12.07-.12.19,0,.26l4.29,2.48c.13.07.14.19,0,.26l-2.66,1.54c-.12.07-.11.19,0,.26l3.33,1.93A.53.53,0,0,0,359.66,309.42Zm-21.52-3-2.88,1.66c-.12.07-.12.19,0,.26l3.33,1.93a.53.53,0,0,0,.46,0l2.88-1.67c.12-.07.11-.19,0-.26l-3.33-1.92A.5.5,0,0,0,338.14,306.46Zm-4.21,2.43-2.88,1.66c-.12.07-.12.19,0,.27l3.33,1.92a.53.53,0,0,0,.46,0l2.88-1.67c.12-.07.11-.18,0-.26l-3.33-1.92A.5.5,0,0,0,333.93,308.89Zm-21,27.25a.5.5,0,0,0,.46,0l2.88-1.66c.12-.07.12-.19,0-.27l-3.33-1.92a.5.5,0,0,0-.46,0L309.55,334c-.13.07-.12.19,0,.27Zm-12.64-7.81L297.37,330c-.12.08-.11.19,0,.27l3.33,1.92a.5.5,0,0,0,.46,0l2.88-1.66c.12-.07.11-.19,0-.27l-3.33-1.92A.53.53,0,0,0,300.25,328.33ZM307,334a.5.5,0,0,0,.46,0l2.88-1.66c.12-.07.11-.19,0-.26L307,330.19a.53.53,0,0,0-.46,0l-2.88,1.67c-.12.07-.12.19,0,.26Zm13.3,3.59,2.88-1.66c.12-.07.11-.19,0-.27l-3.33-1.92a.5.5,0,0,0-.46,0l-2.88,1.66c-.12.07-.12.19,0,.27l3.33,1.92A.5.5,0,0,0,320.33,337.62ZM315.66,340a.5.5,0,0,0,.46,0l2.88-1.66c.12-.07.11-.19,0-.27l-3.33-1.92a.5.5,0,0,0-.46,0l-2.88,1.66c-.12.07-.12.19,0,.27Zm-11.2-14.14-2.88,1.66c-.12.07-.11.19,0,.27l3.33,1.92a.5.5,0,0,0,.46,0l2.88-1.66c.12-.07.11-.19,0-.27l-3.33-1.92A.5.5,0,0,0,304.46,325.9Zm21.05-12.15-2.88,1.66c-.12.07-.12.19,0,.27L326,317.6a.5.5,0,0,0,.46,0l2.88-1.66c.12-.07.11-.19,0-.27L326,313.76A.5.5,0,0,0,325.51,313.75Zm-16.84,9.72-2.88,1.66c-.12.07-.11.19,0,.27l3.33,1.92a.5.5,0,0,0,.46,0l2.88-1.66c.12-.07.11-.19,0-.27l-3.33-1.92A.5.5,0,0,0,308.67,323.47Zm21.05-12.15L326.84,313c-.12.07-.12.19,0,.27l3.33,1.92a.53.53,0,0,0,.46,0l2.88-1.66c.12-.08.11-.19,0-.27l-3.33-1.92A.5.5,0,0,0,329.72,311.32Zm-8.42,4.86-2.88,1.66c-.12.07-.12.19,0,.27l3.33,1.92a.5.5,0,0,0,.46,0l2.88-1.66c.12-.07.11-.19,0-.27l-3.33-1.92A.5.5,0,0,0,321.3,316.18Zm-4.21,2.43-2.88,1.66c-.12.07-.12.19,0,.27l3.33,1.92a.5.5,0,0,0,.46,0l2.88-1.66c.12-.07.11-.19,0-.27l-3.33-1.92A.5.5,0,0,0,317.09,318.61ZM312.88,321,310,322.7c-.12.07-.11.19,0,.27l3.33,1.92a.5.5,0,0,0,.46,0l2.88-1.66c.12-.07.11-.19,0-.27l-3.33-1.92A.5.5,0,0,0,312.88,321Zm21.52,3,2.88-1.66c.12-.07.12-.19,0-.27l-3.33-1.92a.5.5,0,0,0-.46,0l-2.88,1.66c-.13.07-.12.19,0,.27l3.33,1.92A.5.5,0,0,0,334.4,324Zm37-36.73-2.88,1.66c-.13.07-.12.19,0,.27l3.33,1.92a.53.53,0,0,0,.46,0l2.88-1.66c.12-.08.12-.19,0-.27l-3.33-1.92A.5.5,0,0,0,371.38,287.27Zm-5.1,2.94-2.88,1.66c-.12.07-.12.19,0,.27l3.33,1.92a.5.5,0,0,0,.46,0l2.88-1.66c.12-.07.11-.19,0-.27l-3.33-1.92A.5.5,0,0,0,366.28,290.21Zm9.31-5.37-2.88,1.66c-.13.07-.12.19,0,.27l3.33,1.92a.53.53,0,0,0,.46,0l2.88-1.67c.12-.07.12-.18,0-.26l-3.33-1.92A.5.5,0,0,0,375.59,284.84ZM353.8,307.31l2.88-1.67c.12-.07.11-.18,0-.26l-3.33-1.92a.5.5,0,0,0-.46,0L350,305.11c-.12.07-.12.19,0,.27l3.34,1.92A.53.53,0,0,0,353.8,307.31Zm26.46-24.89a.5.5,0,0,0-.46,0l-2.88,1.66c-.13.07-.12.19,0,.26l3.33,1.93a.53.53,0,0,0,.46,0l2.88-1.67c.12-.07.12-.19,0-.26Zm-41.65,39.15,2.88-1.66c.12-.08.12-.19,0-.27l-3.33-1.92a.5.5,0,0,0-.46,0l-2.88,1.66c-.13.07-.12.19,0,.27l3.33,1.92A.53.53,0,0,0,338.61,321.57Zm51.63-29.81,2.88-1.66c.12-.07.11-.19,0-.27l-3.33-1.92a.5.5,0,0,0-.46,0l-2.88,1.66c-.12.07-.11.19,0,.27l3.33,1.92A.5.5,0,0,0,390.24,291.76Zm-9-.31,2.88-1.67c.12-.07.12-.19,0-.26l-3.33-1.93a.53.53,0,0,0-.46,0l-2.88,1.67c-.12.07-.11.19,0,.26l3.33,1.93A.53.53,0,0,0,381.27,291.45Zm3.74-6.29a.53.53,0,0,0-.46,0l-2.88,1.67c-.12.07-.11.19,0,.26L385,289a.5.5,0,0,0,.46,0l2.88-1.66c.12-.07.12-.19,0-.26Zm.89-.51,8.09,4.67a.5.5,0,0,0,.46,0l2.88-1.66c.12-.07.11-.19,0-.27l-8.09-4.67a.53.53,0,0,0-.46,0l-2.88,1.67C385.76,284.46,385.77,284.58,385.9,284.65ZM376.13,290l-2.88,1.66c-.12.07-.11.19,0,.26l3.33,1.93a.53.53,0,0,0,.46,0l2.88-1.67c.12-.07.12-.19,0-.26L376.59,290A.5.5,0,0,0,376.13,290Zm-31.68,18.29L341.57,310c-.12.07-.12.19,0,.27l3.33,1.92a.5.5,0,0,0,.46,0l2.88-1.66c.12-.07.11-.19,0-.27l-3.33-1.92A.5.5,0,0,0,344.45,308.31Zm41.12-14.13a.5.5,0,0,0,.46,0l2.88-1.66c.12-.07.11-.19,0-.27l-3.33-1.92a.5.5,0,0,0-.46,0L382.22,292c-.12.07-.11.19,0,.27Zm-36.91,11.7-2.88,1.66c-.12.07-.12.19,0,.27l3.33,1.92a.53.53,0,0,0,.46,0l2.88-1.66c.12-.08.11-.19,0-.27l-3.33-1.92A.5.5,0,0,0,348.66,305.88ZM317.1,333.71a.5.5,0,0,0,.46,0l2.88-1.66c.12-.07.12-.19,0-.27l-3.33-1.92a.5.5,0,0,0-.46,0l-2.88,1.66c-.13.07-.12.19,0,.27Zm-6.33-6-2.88,1.67c-.12.07-.12.19,0,.26l3.33,1.92a.5.5,0,0,0,.46,0l2.88-1.66c.12-.07.11-.19,0-.26l-3.33-1.93A.53.53,0,0,0,310.77,327.75Zm11,3.54,2.88-1.66c.12-.07.12-.19,0-.27l-3.33-1.92a.5.5,0,0,0-.46,0L318,329.09c-.13.07-.12.19,0,.27l3.33,1.92A.5.5,0,0,0,321.77,331.29Zm4.21-2.43,2.88-1.66c.12-.07.12-.19,0-.27L325.52,325a.5.5,0,0,0-.46,0l-2.88,1.66c-.13.07-.12.19,0,.27l3.33,1.92A.5.5,0,0,0,326,328.86Zm4.21-2.43,2.88-1.66c.12-.07.12-.19,0-.27l-3.33-1.92a.5.5,0,0,0-.46,0l-2.88,1.66c-.13.07-.12.19,0,.27l3.33,1.92A.5.5,0,0,0,330.19,326.43ZM315,325.32,312.1,327c-.12.07-.12.18,0,.26l3.33,1.92a.5.5,0,0,0,.46,0l2.88-1.66c.12-.07.11-.19,0-.27l-3.33-1.92A.53.53,0,0,0,315,325.32Zm4.21-2.43-2.88,1.66c-.12.08-.12.19,0,.27l3.33,1.92a.5.5,0,0,0,.46,0l2.88-1.66c.12-.07.11-.19,0-.27l-3.33-1.92A.53.53,0,0,0,319.19,322.89ZM336,313.17l-2.88,1.66c-.12.07-.12.19,0,.27L336.5,317a.5.5,0,0,0,.46,0l2.88-1.66c.12-.07.11-.19,0-.27l-3.33-1.92A.5.5,0,0,0,336,313.17Zm-4.21,2.43-2.88,1.66c-.12.07-.12.19,0,.27l3.33,1.92a.5.5,0,0,0,.46,0l2.88-1.66c.12-.07.11-.19,0-.27l-3.33-1.92A.5.5,0,0,0,331.82,315.6Zm8.42-4.86-2.88,1.66c-.12.07-.12.19,0,.27l3.33,1.92a.5.5,0,0,0,.46,0l2.88-1.66c.12-.07.11-.19,0-.27l-3.33-1.92A.5.5,0,0,0,340.24,310.74Zm-16.84,9.72-2.88,1.66c-.12.07-.12.19,0,.27l3.33,1.92a.5.5,0,0,0,.46,0l2.88-1.66c.12-.07.11-.19,0-.27l-3.33-1.92A.5.5,0,0,0,323.4,320.46Zm4.21-2.43-2.88,1.66c-.12.07-.12.19,0,.27l3.33,1.92a.5.5,0,0,0,.46,0l2.88-1.66c.12-.07.11-.19,0-.27L328.07,318A.5.5,0,0,0,327.61,318Zm-3.07,17.16,2.88-1.66c.12-.07.11-.19,0-.27l-3.33-1.92a.5.5,0,0,0-.46,0L320.73,333c-.12.07-.12.19,0,.27l3.33,1.92A.5.5,0,0,0,324.54,335.19Zm-24.71-2.5-3.33-1.92a.53.53,0,0,0-.46,0l-2.88,1.67c-.12.07-.11.18,0,.26l3.33,1.92a.5.5,0,0,0,.46,0l2.88-1.66C300,332.89,300,332.77,299.83,332.69Zm6.31,1.86-3.33-1.93a.53.53,0,0,0-.46,0l-4.43,2.56c-.12.07-.12.19,0,.27l3.33,1.92a.5.5,0,0,0,.46,0l4.43-2.56C306.28,334.74,306.27,334.62,306.14,334.55ZM294.72,329l-3.33-1.93a.53.53,0,0,0-.46,0l-3.54,2c-.13.07-.12.19,0,.27l3.33,1.92a.5.5,0,0,0,.46,0l3.55-2.05C294.86,329.17,294.85,329.05,294.72,329Zm2.72-1.57a.53.53,0,0,0,.46,0l2.88-1.67c.12-.07.11-.19,0-.26l-3.33-1.92a.5.5,0,0,0-.46,0l-2.88,1.66c-.12.07-.11.19,0,.26ZM312,336.65l-3.33-1.92a.5.5,0,0,0-.46,0l-5.54,3.2c-.13.07-.12.19,0,.26l3.33,1.93a.53.53,0,0,0,.46,0l5.54-3.2C312.15,336.85,312.14,336.73,312,336.65Zm2.76,3.9-3.33-1.92a.5.5,0,0,0-.46,0l-3.54,2.05c-.13.07-.12.19,0,.26l3.33,1.92a.5.5,0,0,0,.46,0l3.55-2C314.91,340.75,314.9,340.63,314.77,340.55Zm14-31.21a.53.53,0,0,0,.46,0l2.88-1.67c.12-.07.12-.19,0-.26l-3.33-1.93a.53.53,0,0,0-.46,0l-2.88,1.67c-.12.07-.11.19,0,.26Zm-8.42,4.86a.53.53,0,0,0,.46,0l2.88-1.67c.12-.07.12-.19,0-.26l-3.33-1.92a.5.5,0,0,0-.46,0L317,312c-.12.07-.11.19,0,.26ZM301.65,325a.53.53,0,0,0,.46,0l2.88-1.67c.12-.07.11-.19,0-.26l-3.33-1.92a.5.5,0,0,0-.46,0l-2.88,1.66c-.12.07-.11.19,0,.26Zm22.88-13.21a.53.53,0,0,0,.46,0l2.88-1.67c.12-.07.12-.19,0-.26l-3.33-1.93a.5.5,0,0,0-.46,0l-2.88,1.66c-.12.07-.11.19,0,.26Zm-8.42,4.86a.53.53,0,0,0,.46,0l2.88-1.67c.12-.07.12-.19,0-.26l-3.33-1.92a.5.5,0,0,0-.46,0l-2.88,1.66c-.12.07-.11.19,0,.26Zm1,24.23a.5.5,0,0,0-.46,0l-4.43,2.55c-.12.07-.11.19,0,.27l3.33,1.92a.5.5,0,0,0,.46,0l4.43-2.56c.12-.07.12-.19,0-.26Zm-7-20.74a.53.53,0,0,0,.46,0l2.88-1.67c.12-.07.11-.19,0-.26l-3.33-1.93a.53.53,0,0,0-.46,0l-2.88,1.67c-.12.07-.11.19,0,.26Zm-4.21,2.43a.53.53,0,0,0,.46,0l2.88-1.67c.12-.07.11-.19,0-.26l-3.33-1.93a.5.5,0,0,0-.46,0l-2.88,1.66c-.12.07-.11.19,0,.26Zm89.22-26.71a.47.47,0,0,0-.46,0l-7.09,4.09c-.12.07-.12.19,0,.26l3.34,1.93a.51.51,0,0,0,.45,0l7.09-4.1c.13-.07.12-.19,0-.26Zm-9.31,5.37a.5.5,0,0,0-.46,0l-2.88,1.66c-.12.07-.11.19,0,.27l3.33,1.92a.5.5,0,0,0,.46,0l2.88-1.66c.12-.07.11-.19,0-.27Zm-57,31.55,2.88-1.66c.12-.08.11-.19,0-.27l-3.33-1.92a.5.5,0,0,0-.46,0l-2.88,1.66c-.12.07-.12.19,0,.27l3.33,1.92A.53.53,0,0,0,328.75,332.76Zm48.6-26.69a.5.5,0,0,0-.46,0L374,307.72c-.12.07-.11.19,0,.27l3.33,1.92a.5.5,0,0,0,.46,0l2.88-1.66c.12-.07.11-.19,0-.27Zm21.94-12.67a.53.53,0,0,0-.46,0L396,295.06c-.12.07-.12.19,0,.26l3.33,1.93a.53.53,0,0,0,.46,0l2.88-1.67c.13-.07.12-.19,0-.26Zm7.54-.5-8.09-4.67a.5.5,0,0,0-.46,0l-2.88,1.66c-.12.07-.12.19,0,.27l8.08,4.67a.53.53,0,0,0,.46,0l2.88-1.67C407,293.09,407,293,406.83,292.9Zm-45.21,22.25a.53.53,0,0,0-.46,0l-3.54,2.05c-.13.07-.12.19,0,.26l3.33,1.93a.53.53,0,0,0,.46,0l3.55-2.05c.12-.07.11-.19,0-.27ZM372.26,309a.53.53,0,0,0-.46,0l-4.44,2.56c-.12.07-.11.19,0,.27l3.33,1.92a.53.53,0,0,0,.46,0l4.43-2.56c.13-.07.12-.19,0-.27Zm-20.39,11.77a.5.5,0,0,0-.46,0L327.7,334.46c-.12.07-.11.19,0,.26l3.33,1.93a.53.53,0,0,0,.46,0L355.22,323c.12-.07.11-.19,0-.27Zm-25,14.46a.5.5,0,0,0-.46,0l-3.54,2c-.12.07-.12.19,0,.27l3.33,1.92a.5.5,0,0,0,.46,0l3.54-2.05c.12-.07.12-.19,0-.26ZM356.75,318a.5.5,0,0,0-.46,0l-3.55,2c-.12.07-.11.19,0,.27l3.33,1.92a.5.5,0,0,0,.46,0l3.54-2.05c.13-.07.12-.18,0-.26ZM322,338.05a.5.5,0,0,0-.46,0l-3.55,2c-.12.07-.11.19,0,.26l3.33,1.93a.53.53,0,0,0,.46,0l3.55-2.05c.12-.07.11-.19,0-.27Zm44.54-25.71a.5.5,0,0,0-.46,0l-3.55,2c-.12.08-.11.19,0,.27l3.33,1.92a.5.5,0,0,0,.46,0l3.54-2c.12-.08.12-.19,0-.27Zm15.06-8.7a.5.5,0,0,0-.46,0l-2.88,1.66c-.12.07-.11.19,0,.27l3.33,1.92a.5.5,0,0,0,.46,0l2.88-1.66c.12-.07.11-.19,0-.27Zm9.23-6.7,2.88-1.66c.12-.07.11-.19,0-.27l-3.33-1.92a.5.5,0,0,0-.46,0L387,294.74c-.12.07-.12.19,0,.27l3.33,1.92A.5.5,0,0,0,390.79,296.94ZM372,296.82l2.88-1.67c.13-.07.12-.18,0-.26L371.5,293a.5.5,0,0,0-.46,0l-2.88,1.66c-.13.07-.12.19,0,.27l3.33,1.92A.53.53,0,0,0,372,296.82Zm-9.54,16.49,8.42-4.86c.13-.07.12-.19,0-.26l-3.33-1.93a.53.53,0,0,0-.46,0l-8.42,4.87c-.12.07-.12.19,0,.26L362,313.3A.48.48,0,0,0,362.42,313.31Zm23.7-13.95a.5.5,0,0,0,.46,0l2.88-1.66c.12-.07.11-.19,0-.27l-3.33-1.92a.5.5,0,0,0-.46,0l-2.88,1.66c-.12.07-.12.19,0,.27Zm-4.3-2.74L384.7,295c.12-.07.11-.19,0-.27l-3.33-1.92a.53.53,0,0,0-.46,0L378,294.42c-.12.08-.11.19,0,.27l3.33,1.92A.5.5,0,0,0,381.82,296.62Zm-23.6,19.12,2.88-1.66c.12-.07.11-.19,0-.26l-3.33-1.93a.53.53,0,0,0-.46,0l-2.88,1.67c-.12.07-.12.19,0,.26l3.34,1.92A.5.5,0,0,0,358.22,315.74Zm18.59-11a.5.5,0,0,0,.46,0l2.88-1.66c.12-.07.12-.19,0-.27l-3.33-1.92a.53.53,0,0,0-.46,0l-2.88,1.66c-.12.08-.11.19,0,.27ZM337.17,327.9l2.88-1.67c.12-.07.11-.19,0-.26l-3.33-1.92a.5.5,0,0,0-.46,0l-2.88,1.66c-.12.07-.12.19,0,.26l3.33,1.93A.53.53,0,0,0,337.17,327.9Zm4.21-2.43,2.88-1.67c.12-.07.11-.19,0-.26l-3.33-1.93a.5.5,0,0,0-.46,0l-2.88,1.66c-.12.07-.12.19,0,.26l3.33,1.93A.53.53,0,0,0,341.38,325.47ZM333,330.33l2.88-1.67c.12-.07.11-.18,0-.26l-3.33-1.92a.5.5,0,0,0-.46,0l-2.88,1.66c-.12.07-.12.19,0,.27l3.33,1.92A.53.53,0,0,0,333,330.33Zm16.84-9.72,2.88-1.67c.12-.07.11-.19,0-.26l-3.33-1.93a.53.53,0,0,0-.46,0L346,318.41c-.12.07-.12.19,0,.26l3.33,1.93A.53.53,0,0,0,349.8,320.61ZM345.59,323l2.88-1.67c.12-.07.11-.19,0-.26l-3.33-1.93a.5.5,0,0,0-.46,0l-2.88,1.66c-.12.07-.12.19,0,.26l3.33,1.93A.53.53,0,0,0,345.59,323Zm8.42-4.87,2.88-1.66c.12-.07.11-.19,0-.26l-3.33-1.93a.53.53,0,0,0-.46,0L350.2,316c-.12.07-.12.19,0,.26l3.33,1.93A.5.5,0,0,0,354,318.17Zm19.26-35.95a.51.51,0,0,0,.45,0l2.89-1.67c.12-.07.11-.18,0-.26l-.89-.51a.5.5,0,0,0-.46,0l-2.88,1.66c-.12.07-.11.19,0,.27Zm-20.72,13.37a.53.53,0,0,0,.46,0l2.88-1.67c.12-.07.12-.18,0-.26l-3.34-1.92a.48.48,0,0,0-.45,0l-2.89,1.66c-.12.07-.11.19,0,.27Zm8.42-4.86a.53.53,0,0,0,.46,0l2.88-1.67c.12-.07.12-.19,0-.26L361,286.89a.5.5,0,0,0-.46,0l-2.88,1.66c-.12.07-.11.19,0,.26Zm-13.56,7.83a.53.53,0,0,0,.46,0l2.88-1.67c.12-.07.12-.19,0-.26l-3.33-1.93a.53.53,0,0,0-.46,0l-2.88,1.67c-.12.07-.11.19,0,.26Zm9.35-5.4a.53.53,0,0,0,.46,0l2.88-1.67c.12-.07.12-.19,0-.26l-3.34-1.92a.48.48,0,0,0-.45,0L353.41,291c-.12.07-.11.19,0,.26ZM339,303.42a.53.53,0,0,0,.46,0l2.88-1.67c.12-.07.12-.19,0-.26L339,299.58a.5.5,0,0,0-.46,0l-2.88,1.66c-.12.07-.11.19,0,.26ZM343.2,301a.53.53,0,0,0,.46,0l2.88-1.67c.12-.07.12-.19,0-.26l-3.33-1.93a.5.5,0,0,0-.46,0l-2.88,1.66c-.12.07-.11.19,0,.26Zm21.65-13.91a.5.5,0,0,0,.46,0l2.88-1.66c.12-.07.11-.19,0-.27l-.89-.51a.5.5,0,0,0-.46,0l-2.88,1.66c-.12.07-.11.19,0,.27Zm12.63-7.29a.51.51,0,0,0,.45,0l2.89-1.67c.12-.07.11-.19,0-.26l-.89-.51a.5.5,0,0,0-.46,0L376.57,279c-.12.07-.11.19,0,.27Zm7,4a.53.53,0,0,0,.46,0l2.88-1.67c.12-.07.12-.19,0-.26L384.46,280a.48.48,0,0,0-.45,0l-2.88,1.66c-.13.07-.12.19,0,.26ZM395,294.51l2.88-1.66c.12-.08.11-.19,0-.27l-3.33-1.92a.5.5,0,0,0-.46,0l-2.88,1.66c-.12.07-.12.19,0,.27l3.33,1.92A.5.5,0,0,0,395,294.51Zm-25.94-9.86a.51.51,0,0,0,.45,0L372.4,283c.12-.08.11-.19,0-.27l-.89-.51a.5.5,0,0,0-.46,0l-2.88,1.66c-.12.07-.11.19,0,.27Zm-34.28,21.2a.53.53,0,0,0,.46,0l2.88-1.67c.12-.07.12-.19,0-.26L334.77,302a.5.5,0,0,0-.46,0l-2.88,1.66c-.12.07-.11.19,0,.26Z" style="fill:#BA68C8"></path><path d="M367.75,299.25l2.88-1.66c.13-.08.12-.19,0-.27l-3.33-1.92a.5.5,0,0,0-.46,0L364,297.05c-.13.07-.12.19,0,.27l3.33,1.92A.53.53,0,0,0,367.75,299.25Zm-5.68-6.61-2.88,1.66c-.12.07-.12.19,0,.27l3.33,1.92a.5.5,0,0,0,.46,0l2.88-1.66c.12-.07.11-.19,0-.27l-3.33-1.92A.5.5,0,0,0,362.07,292.64ZM352.76,298l-4.87,2.82c-.12.07-.12.19,0,.26l3.33,1.93a.53.53,0,0,0,.46,0l4.87-2.82c.12-.07.12-.19,0-.26L353.22,298A.53.53,0,0,0,352.76,298Zm5.1-2.94L355,296.73c-.12.07-.12.19,0,.27l3.33,1.92a.5.5,0,0,0,.46,0l2.88-1.66c.12-.07.11-.19,0-.27l-3.33-1.92A.5.5,0,0,0,357.86,295.07Zm-11.3,6.53-2.88,1.66c-.12.07-.12.19,0,.26l3.33,1.93a.53.53,0,0,0,.46,0l2.88-1.67c.12-.07.11-.19,0-.26L347,301.6A.5.5,0,0,0,346.56,301.6ZM342.35,304l-2.88,1.66c-.12.07-.12.19,0,.26l3.33,1.93a.53.53,0,0,0,.46,0l2.88-1.67c.12-.07.11-.19,0-.26L342.81,304A.5.5,0,0,0,342.35,304Zm13.1,7.82,2.88-1.67c.12-.07.12-.19,0-.26L355,308a.48.48,0,0,0-.45,0l-2.89,1.66c-.12.07-.11.19,0,.26l3.33,1.93A.53.53,0,0,0,355.45,311.85Zm-4.21,2.43,2.88-1.67c.12-.07.12-.19,0-.26l-3.34-1.92a.45.45,0,0,0-.45,0l-2.89,1.66c-.12.07-.11.19,0,.26l3.33,1.93A.53.53,0,0,0,351.24,314.28ZM347,316.71l2.88-1.67c.12-.07.12-.19,0-.26l-3.34-1.92a.48.48,0,0,0-.45,0l-2.89,1.66c-.12.07-.11.19,0,.26l3.33,1.93A.53.53,0,0,0,347,316.71Zm-4.21,2.43,2.88-1.67c.12-.07.12-.19,0-.26l-3.34-1.92a.48.48,0,0,0-.45,0L339,316.94c-.12.07-.11.19,0,.27l3.33,1.92A.53.53,0,0,0,342.82,319.14Zm20.72-17.46,2.88-1.66c.13-.07.12-.19,0-.27l-3.33-1.92a.5.5,0,0,0-.46,0l-2.88,1.66c-.12.07-.12.19,0,.27l3.33,1.92A.5.5,0,0,0,363.54,301.68Zm-3.88,7.74,6.43-3.71c.12-.08.11-.19,0-.27L358,300.77a.5.5,0,0,0-.46,0l-3.32,1.92c-.12.07-.12.19,0,.26l4.29,2.48c.13.07.14.19,0,.26l-2.66,1.54c-.12.07-.11.19,0,.26l3.33,1.93A.53.53,0,0,0,359.66,309.42Zm-21.52-3-2.88,1.66c-.12.07-.12.19,0,.26l3.33,1.93a.53.53,0,0,0,.46,0l2.88-1.67c.12-.07.11-.19,0-.26l-3.33-1.92A.5.5,0,0,0,338.14,306.46Zm-4.21,2.43-2.88,1.66c-.12.07-.12.19,0,.27l3.33,1.92a.53.53,0,0,0,.46,0l2.88-1.67c.12-.07.11-.18,0-.26l-3.33-1.92A.5.5,0,0,0,333.93,308.89Zm-21,27.25a.5.5,0,0,0,.46,0l2.88-1.66c.12-.07.12-.19,0-.27l-3.33-1.92a.5.5,0,0,0-.46,0L309.55,334c-.13.07-.12.19,0,.27Zm-12.64-7.81L297.37,330c-.12.08-.11.19,0,.27l3.33,1.92a.5.5,0,0,0,.46,0l2.88-1.66c.12-.07.11-.19,0-.27l-3.33-1.92A.53.53,0,0,0,300.25,328.33ZM307,334a.5.5,0,0,0,.46,0l2.88-1.66c.12-.07.11-.19,0-.26L307,330.19a.53.53,0,0,0-.46,0l-2.88,1.67c-.12.07-.12.19,0,.26Zm13.3,3.59,2.88-1.66c.12-.07.11-.19,0-.27l-3.33-1.92a.5.5,0,0,0-.46,0l-2.88,1.66c-.12.07-.12.19,0,.27l3.33,1.92A.5.5,0,0,0,320.33,337.62ZM315.66,340a.5.5,0,0,0,.46,0l2.88-1.66c.12-.07.11-.19,0-.27l-3.33-1.92a.5.5,0,0,0-.46,0l-2.88,1.66c-.12.07-.12.19,0,.27Zm-11.2-14.14-2.88,1.66c-.12.07-.11.19,0,.27l3.33,1.92a.5.5,0,0,0,.46,0l2.88-1.66c.12-.07.11-.19,0-.27l-3.33-1.92A.5.5,0,0,0,304.46,325.9Zm21.05-12.15-2.88,1.66c-.12.07-.12.19,0,.27L326,317.6a.5.5,0,0,0,.46,0l2.88-1.66c.12-.07.11-.19,0-.27L326,313.76A.5.5,0,0,0,325.51,313.75Zm-16.84,9.72-2.88,1.66c-.12.07-.11.19,0,.27l3.33,1.92a.5.5,0,0,0,.46,0l2.88-1.66c.12-.07.11-.19,0-.27l-3.33-1.92A.5.5,0,0,0,308.67,323.47Zm21.05-12.15L326.84,313c-.12.07-.12.19,0,.27l3.33,1.92a.53.53,0,0,0,.46,0l2.88-1.66c.12-.08.11-.19,0-.27l-3.33-1.92A.5.5,0,0,0,329.72,311.32Zm-8.42,4.86-2.88,1.66c-.12.07-.12.19,0,.27l3.33,1.92a.5.5,0,0,0,.46,0l2.88-1.66c.12-.07.11-.19,0-.27l-3.33-1.92A.5.5,0,0,0,321.3,316.18Zm-4.21,2.43-2.88,1.66c-.12.07-.12.19,0,.27l3.33,1.92a.5.5,0,0,0,.46,0l2.88-1.66c.12-.07.11-.19,0-.27l-3.33-1.92A.5.5,0,0,0,317.09,318.61ZM312.88,321,310,322.7c-.12.07-.11.19,0,.27l3.33,1.92a.5.5,0,0,0,.46,0l2.88-1.66c.12-.07.11-.19,0-.27l-3.33-1.92A.5.5,0,0,0,312.88,321Zm21.52,3,2.88-1.66c.12-.07.12-.19,0-.27l-3.33-1.92a.5.5,0,0,0-.46,0l-2.88,1.66c-.13.07-.12.19,0,.27l3.33,1.92A.5.5,0,0,0,334.4,324Zm37-36.73-2.88,1.66c-.13.07-.12.19,0,.27l3.33,1.92a.53.53,0,0,0,.46,0l2.88-1.66c.12-.08.12-.19,0-.27l-3.33-1.92A.5.5,0,0,0,371.38,287.27Zm-5.1,2.94-2.88,1.66c-.12.07-.12.19,0,.27l3.33,1.92a.5.5,0,0,0,.46,0l2.88-1.66c.12-.07.11-.19,0-.27l-3.33-1.92A.5.5,0,0,0,366.28,290.21Zm9.31-5.37-2.88,1.66c-.13.07-.12.19,0,.27l3.33,1.92a.53.53,0,0,0,.46,0l2.88-1.67c.12-.07.12-.18,0-.26l-3.33-1.92A.5.5,0,0,0,375.59,284.84ZM353.8,307.31l2.88-1.67c.12-.07.11-.18,0-.26l-3.33-1.92a.5.5,0,0,0-.46,0L350,305.11c-.12.07-.12.19,0,.27l3.34,1.92A.53.53,0,0,0,353.8,307.31Zm26.46-24.89a.5.5,0,0,0-.46,0l-2.88,1.66c-.13.07-.12.19,0,.26l3.33,1.93a.53.53,0,0,0,.46,0l2.88-1.67c.12-.07.12-.19,0-.26Zm-41.65,39.15,2.88-1.66c.12-.08.12-.19,0-.27l-3.33-1.92a.5.5,0,0,0-.46,0l-2.88,1.66c-.13.07-.12.19,0,.27l3.33,1.92A.53.53,0,0,0,338.61,321.57Zm51.63-29.81,2.88-1.66c.12-.07.11-.19,0-.27l-3.33-1.92a.5.5,0,0,0-.46,0l-2.88,1.66c-.12.07-.11.19,0,.27l3.33,1.92A.5.5,0,0,0,390.24,291.76Zm-9-.31,2.88-1.67c.12-.07.12-.19,0-.26l-3.33-1.93a.53.53,0,0,0-.46,0l-2.88,1.67c-.12.07-.11.19,0,.26l3.33,1.93A.53.53,0,0,0,381.27,291.45Zm3.74-6.29a.53.53,0,0,0-.46,0l-2.88,1.67c-.12.07-.11.19,0,.26L385,289a.5.5,0,0,0,.46,0l2.88-1.66c.12-.07.12-.19,0-.26Zm.89-.51,8.09,4.67a.5.5,0,0,0,.46,0l2.88-1.66c.12-.07.11-.19,0-.27l-8.09-4.67a.53.53,0,0,0-.46,0l-2.88,1.67C385.76,284.46,385.77,284.58,385.9,284.65ZM376.13,290l-2.88,1.66c-.12.07-.11.19,0,.26l3.33,1.93a.53.53,0,0,0,.46,0l2.88-1.67c.12-.07.12-.19,0-.26L376.59,290A.5.5,0,0,0,376.13,290Zm-31.68,18.29L341.57,310c-.12.07-.12.19,0,.27l3.33,1.92a.5.5,0,0,0,.46,0l2.88-1.66c.12-.07.11-.19,0-.27l-3.33-1.92A.5.5,0,0,0,344.45,308.31Zm41.12-14.13a.5.5,0,0,0,.46,0l2.88-1.66c.12-.07.11-.19,0-.27l-3.33-1.92a.5.5,0,0,0-.46,0L382.22,292c-.12.07-.11.19,0,.27Zm-36.91,11.7-2.88,1.66c-.12.07-.12.19,0,.27l3.33,1.92a.53.53,0,0,0,.46,0l2.88-1.66c.12-.08.11-.19,0-.27l-3.33-1.92A.5.5,0,0,0,348.66,305.88ZM317.1,333.71a.5.5,0,0,0,.46,0l2.88-1.66c.12-.07.12-.19,0-.27l-3.33-1.92a.5.5,0,0,0-.46,0l-2.88,1.66c-.13.07-.12.19,0,.27Zm-6.33-6-2.88,1.67c-.12.07-.12.19,0,.26l3.33,1.92a.5.5,0,0,0,.46,0l2.88-1.66c.12-.07.11-.19,0-.26l-3.33-1.93A.53.53,0,0,0,310.77,327.75Zm11,3.54,2.88-1.66c.12-.07.12-.19,0-.27l-3.33-1.92a.5.5,0,0,0-.46,0L318,329.09c-.13.07-.12.19,0,.27l3.33,1.92A.5.5,0,0,0,321.77,331.29Zm4.21-2.43,2.88-1.66c.12-.07.12-.19,0-.27L325.52,325a.5.5,0,0,0-.46,0l-2.88,1.66c-.13.07-.12.19,0,.27l3.33,1.92A.5.5,0,0,0,326,328.86Zm4.21-2.43,2.88-1.66c.12-.07.12-.19,0-.27l-3.33-1.92a.5.5,0,0,0-.46,0l-2.88,1.66c-.13.07-.12.19,0,.27l3.33,1.92A.5.5,0,0,0,330.19,326.43ZM315,325.32,312.1,327c-.12.07-.12.18,0,.26l3.33,1.92a.5.5,0,0,0,.46,0l2.88-1.66c.12-.07.11-.19,0-.27l-3.33-1.92A.53.53,0,0,0,315,325.32Zm4.21-2.43-2.88,1.66c-.12.08-.12.19,0,.27l3.33,1.92a.5.5,0,0,0,.46,0l2.88-1.66c.12-.07.11-.19,0-.27l-3.33-1.92A.53.53,0,0,0,319.19,322.89ZM336,313.17l-2.88,1.66c-.12.07-.12.19,0,.27L336.5,317a.5.5,0,0,0,.46,0l2.88-1.66c.12-.07.11-.19,0-.27l-3.33-1.92A.5.5,0,0,0,336,313.17Zm-4.21,2.43-2.88,1.66c-.12.07-.12.19,0,.27l3.33,1.92a.5.5,0,0,0,.46,0l2.88-1.66c.12-.07.11-.19,0-.27l-3.33-1.92A.5.5,0,0,0,331.82,315.6Zm8.42-4.86-2.88,1.66c-.12.07-.12.19,0,.27l3.33,1.92a.5.5,0,0,0,.46,0l2.88-1.66c.12-.07.11-.19,0-.27l-3.33-1.92A.5.5,0,0,0,340.24,310.74Zm-16.84,9.72-2.88,1.66c-.12.07-.12.19,0,.27l3.33,1.92a.5.5,0,0,0,.46,0l2.88-1.66c.12-.07.11-.19,0-.27l-3.33-1.92A.5.5,0,0,0,323.4,320.46Zm4.21-2.43-2.88,1.66c-.12.07-.12.19,0,.27l3.33,1.92a.5.5,0,0,0,.46,0l2.88-1.66c.12-.07.11-.19,0-.27L328.07,318A.5.5,0,0,0,327.61,318Zm-3.07,17.16,2.88-1.66c.12-.07.11-.19,0-.27l-3.33-1.92a.5.5,0,0,0-.46,0L320.73,333c-.12.07-.12.19,0,.27l3.33,1.92A.5.5,0,0,0,324.54,335.19Zm-24.71-2.5-3.33-1.92a.53.53,0,0,0-.46,0l-2.88,1.67c-.12.07-.11.18,0,.26l3.33,1.92a.5.5,0,0,0,.46,0l2.88-1.66C300,332.89,300,332.77,299.83,332.69Zm6.31,1.86-3.33-1.93a.53.53,0,0,0-.46,0l-4.43,2.56c-.12.07-.12.19,0,.27l3.33,1.92a.5.5,0,0,0,.46,0l4.43-2.56C306.28,334.74,306.27,334.62,306.14,334.55ZM294.72,329l-3.33-1.93a.53.53,0,0,0-.46,0l-3.54,2c-.13.07-.12.19,0,.27l3.33,1.92a.5.5,0,0,0,.46,0l3.55-2.05C294.86,329.17,294.85,329.05,294.72,329Zm2.72-1.57a.53.53,0,0,0,.46,0l2.88-1.67c.12-.07.11-.19,0-.26l-3.33-1.92a.5.5,0,0,0-.46,0l-2.88,1.66c-.12.07-.11.19,0,.26ZM312,336.65l-3.33-1.92a.5.5,0,0,0-.46,0l-5.54,3.2c-.13.07-.12.19,0,.26l3.33,1.93a.53.53,0,0,0,.46,0l5.54-3.2C312.15,336.85,312.14,336.73,312,336.65Zm2.76,3.9-3.33-1.92a.5.5,0,0,0-.46,0l-3.54,2.05c-.13.07-.12.19,0,.26l3.33,1.92a.5.5,0,0,0,.46,0l3.55-2C314.91,340.75,314.9,340.63,314.77,340.55Zm14-31.21a.53.53,0,0,0,.46,0l2.88-1.67c.12-.07.12-.19,0-.26l-3.33-1.93a.53.53,0,0,0-.46,0l-2.88,1.67c-.12.07-.11.19,0,.26Zm-8.42,4.86a.53.53,0,0,0,.46,0l2.88-1.67c.12-.07.12-.19,0-.26l-3.33-1.92a.5.5,0,0,0-.46,0L317,312c-.12.07-.11.19,0,.26ZM301.65,325a.53.53,0,0,0,.46,0l2.88-1.67c.12-.07.11-.19,0-.26l-3.33-1.92a.5.5,0,0,0-.46,0l-2.88,1.66c-.12.07-.11.19,0,.26Zm22.88-13.21a.53.53,0,0,0,.46,0l2.88-1.67c.12-.07.12-.19,0-.26l-3.33-1.93a.5.5,0,0,0-.46,0l-2.88,1.66c-.12.07-.11.19,0,.26Zm-8.42,4.86a.53.53,0,0,0,.46,0l2.88-1.67c.12-.07.12-.19,0-.26l-3.33-1.92a.5.5,0,0,0-.46,0l-2.88,1.66c-.12.07-.11.19,0,.26Zm1,24.23a.5.5,0,0,0-.46,0l-4.43,2.55c-.12.07-.11.19,0,.27l3.33,1.92a.5.5,0,0,0,.46,0l4.43-2.56c.12-.07.12-.19,0-.26Zm-7-20.74a.53.53,0,0,0,.46,0l2.88-1.67c.12-.07.11-.19,0-.26l-3.33-1.93a.53.53,0,0,0-.46,0l-2.88,1.67c-.12.07-.11.19,0,.26Zm-4.21,2.43a.53.53,0,0,0,.46,0l2.88-1.67c.12-.07.11-.19,0-.26l-3.33-1.93a.5.5,0,0,0-.46,0l-2.88,1.66c-.12.07-.11.19,0,.26Zm89.22-26.71a.47.47,0,0,0-.46,0l-7.09,4.09c-.12.07-.12.19,0,.26l3.34,1.93a.51.51,0,0,0,.45,0l7.09-4.1c.13-.07.12-.19,0-.26Zm-9.31,5.37a.5.5,0,0,0-.46,0l-2.88,1.66c-.12.07-.11.19,0,.27l3.33,1.92a.5.5,0,0,0,.46,0l2.88-1.66c.12-.07.11-.19,0-.27Zm-57,31.55,2.88-1.66c.12-.08.11-.19,0-.27l-3.33-1.92a.5.5,0,0,0-.46,0l-2.88,1.66c-.12.07-.12.19,0,.27l3.33,1.92A.53.53,0,0,0,328.75,332.76Zm48.6-26.69a.5.5,0,0,0-.46,0L374,307.72c-.12.07-.11.19,0,.27l3.33,1.92a.5.5,0,0,0,.46,0l2.88-1.66c.12-.07.11-.19,0-.27Zm21.94-12.67a.53.53,0,0,0-.46,0L396,295.06c-.12.07-.12.19,0,.26l3.33,1.93a.53.53,0,0,0,.46,0l2.88-1.67c.13-.07.12-.19,0-.26Zm7.54-.5-8.09-4.67a.5.5,0,0,0-.46,0l-2.88,1.66c-.12.07-.12.19,0,.27l8.08,4.67a.53.53,0,0,0,.46,0l2.88-1.67C407,293.09,407,293,406.83,292.9Zm-45.21,22.25a.53.53,0,0,0-.46,0l-3.54,2.05c-.13.07-.12.19,0,.26l3.33,1.93a.53.53,0,0,0,.46,0l3.55-2.05c.12-.07.11-.19,0-.27ZM372.26,309a.53.53,0,0,0-.46,0l-4.44,2.56c-.12.07-.11.19,0,.27l3.33,1.92a.53.53,0,0,0,.46,0l4.43-2.56c.13-.07.12-.19,0-.27Zm-20.39,11.77a.5.5,0,0,0-.46,0L327.7,334.46c-.12.07-.11.19,0,.26l3.33,1.93a.53.53,0,0,0,.46,0L355.22,323c.12-.07.11-.19,0-.27Zm-25,14.46a.5.5,0,0,0-.46,0l-3.54,2c-.12.07-.12.19,0,.27l3.33,1.92a.5.5,0,0,0,.46,0l3.54-2.05c.12-.07.12-.19,0-.26ZM356.75,318a.5.5,0,0,0-.46,0l-3.55,2c-.12.07-.11.19,0,.27l3.33,1.92a.5.5,0,0,0,.46,0l3.54-2.05c.13-.07.12-.18,0-.26ZM322,338.05a.5.5,0,0,0-.46,0l-3.55,2c-.12.07-.11.19,0,.26l3.33,1.93a.53.53,0,0,0,.46,0l3.55-2.05c.12-.07.11-.19,0-.27Zm44.54-25.71a.5.5,0,0,0-.46,0l-3.55,2c-.12.08-.11.19,0,.27l3.33,1.92a.5.5,0,0,0,.46,0l3.54-2c.12-.08.12-.19,0-.27Zm15.06-8.7a.5.5,0,0,0-.46,0l-2.88,1.66c-.12.07-.11.19,0,.27l3.33,1.92a.5.5,0,0,0,.46,0l2.88-1.66c.12-.07.11-.19,0-.27Zm9.23-6.7,2.88-1.66c.12-.07.11-.19,0-.27l-3.33-1.92a.5.5,0,0,0-.46,0L387,294.74c-.12.07-.12.19,0,.27l3.33,1.92A.5.5,0,0,0,390.79,296.94ZM372,296.82l2.88-1.67c.13-.07.12-.18,0-.26L371.5,293a.5.5,0,0,0-.46,0l-2.88,1.66c-.13.07-.12.19,0,.27l3.33,1.92A.53.53,0,0,0,372,296.82Zm-9.54,16.49,8.42-4.86c.13-.07.12-.19,0-.26l-3.33-1.93a.53.53,0,0,0-.46,0l-8.42,4.87c-.12.07-.12.19,0,.26L362,313.3A.48.48,0,0,0,362.42,313.31Zm23.7-13.95a.5.5,0,0,0,.46,0l2.88-1.66c.12-.07.11-.19,0-.27l-3.33-1.92a.5.5,0,0,0-.46,0l-2.88,1.66c-.12.07-.12.19,0,.27Zm-4.3-2.74L384.7,295c.12-.07.11-.19,0-.27l-3.33-1.92a.53.53,0,0,0-.46,0L378,294.42c-.12.08-.11.19,0,.27l3.33,1.92A.5.5,0,0,0,381.82,296.62Zm-23.6,19.12,2.88-1.66c.12-.07.11-.19,0-.26l-3.33-1.93a.53.53,0,0,0-.46,0l-2.88,1.67c-.12.07-.12.19,0,.26l3.34,1.92A.5.5,0,0,0,358.22,315.74Zm18.59-11a.5.5,0,0,0,.46,0l2.88-1.66c.12-.07.12-.19,0-.27l-3.33-1.92a.53.53,0,0,0-.46,0l-2.88,1.66c-.12.08-.11.19,0,.27ZM337.17,327.9l2.88-1.67c.12-.07.11-.19,0-.26l-3.33-1.92a.5.5,0,0,0-.46,0l-2.88,1.66c-.12.07-.12.19,0,.26l3.33,1.93A.53.53,0,0,0,337.17,327.9Zm4.21-2.43,2.88-1.67c.12-.07.11-.19,0-.26l-3.33-1.93a.5.5,0,0,0-.46,0l-2.88,1.66c-.12.07-.12.19,0,.26l3.33,1.93A.53.53,0,0,0,341.38,325.47ZM333,330.33l2.88-1.67c.12-.07.11-.18,0-.26l-3.33-1.92a.5.5,0,0,0-.46,0l-2.88,1.66c-.12.07-.12.19,0,.27l3.33,1.92A.53.53,0,0,0,333,330.33Zm16.84-9.72,2.88-1.67c.12-.07.11-.19,0-.26l-3.33-1.93a.53.53,0,0,0-.46,0L346,318.41c-.12.07-.12.19,0,.26l3.33,1.93A.53.53,0,0,0,349.8,320.61ZM345.59,323l2.88-1.67c.12-.07.11-.19,0-.26l-3.33-1.93a.5.5,0,0,0-.46,0l-2.88,1.66c-.12.07-.12.19,0,.26l3.33,1.93A.53.53,0,0,0,345.59,323Zm8.42-4.87,2.88-1.66c.12-.07.11-.19,0-.26l-3.33-1.93a.53.53,0,0,0-.46,0L350.2,316c-.12.07-.12.19,0,.26l3.33,1.93A.5.5,0,0,0,354,318.17Zm19.26-35.95a.51.51,0,0,0,.45,0l2.89-1.67c.12-.07.11-.18,0-.26l-.89-.51a.5.5,0,0,0-.46,0l-2.88,1.66c-.12.07-.11.19,0,.27Zm-20.72,13.37a.53.53,0,0,0,.46,0l2.88-1.67c.12-.07.12-.18,0-.26l-3.34-1.92a.48.48,0,0,0-.45,0l-2.89,1.66c-.12.07-.11.19,0,.27Zm8.42-4.86a.53.53,0,0,0,.46,0l2.88-1.67c.12-.07.12-.19,0-.26L361,286.89a.5.5,0,0,0-.46,0l-2.88,1.66c-.12.07-.11.19,0,.26Zm-13.56,7.83a.53.53,0,0,0,.46,0l2.88-1.67c.12-.07.12-.19,0-.26l-3.33-1.93a.53.53,0,0,0-.46,0l-2.88,1.67c-.12.07-.11.19,0,.26Zm9.35-5.4a.53.53,0,0,0,.46,0l2.88-1.67c.12-.07.12-.19,0-.26l-3.34-1.92a.48.48,0,0,0-.45,0L353.41,291c-.12.07-.11.19,0,.26ZM339,303.42a.53.53,0,0,0,.46,0l2.88-1.67c.12-.07.12-.19,0-.26L339,299.58a.5.5,0,0,0-.46,0l-2.88,1.66c-.12.07-.11.19,0,.26ZM343.2,301a.53.53,0,0,0,.46,0l2.88-1.67c.12-.07.12-.19,0-.26l-3.33-1.93a.5.5,0,0,0-.46,0l-2.88,1.66c-.12.07-.11.19,0,.26Zm21.65-13.91a.5.5,0,0,0,.46,0l2.88-1.66c.12-.07.11-.19,0-.27l-.89-.51a.5.5,0,0,0-.46,0l-2.88,1.66c-.12.07-.11.19,0,.27Zm12.63-7.29a.51.51,0,0,0,.45,0l2.89-1.67c.12-.07.11-.19,0-.26l-.89-.51a.5.5,0,0,0-.46,0L376.57,279c-.12.07-.11.19,0,.27Zm7,4a.53.53,0,0,0,.46,0l2.88-1.67c.12-.07.12-.19,0-.26L384.46,280a.48.48,0,0,0-.45,0l-2.88,1.66c-.13.07-.12.19,0,.26ZM395,294.51l2.88-1.66c.12-.08.11-.19,0-.27l-3.33-1.92a.5.5,0,0,0-.46,0l-2.88,1.66c-.12.07-.12.19,0,.27l3.33,1.92A.5.5,0,0,0,395,294.51Zm-25.94-9.86a.51.51,0,0,0,.45,0L372.4,283c.12-.08.11-.19,0-.27l-.89-.51a.5.5,0,0,0-.46,0l-2.88,1.66c-.12.07-.11.19,0,.27Zm-34.28,21.2a.53.53,0,0,0,.46,0l2.88-1.67c.12-.07.12-.19,0-.26L334.77,302a.5.5,0,0,0-.46,0l-2.88,1.66c-.12.07-.11.19,0,.26Z" style="fill:#455a64"></path><path d="M353.45,331.12l28.43-16.41a3.39,3.39,0,0,1,3.1,0l16.3,9.41a1,1,0,0,1,0,1.79l-28.43,16.41a3.45,3.45,0,0,1-3.1,0l-16.3-9.41C352.59,332.41,352.59,331.61,353.45,331.12Z" style="fill:#BA68C8"></path><path d="M353.45,331.12l28.43-16.41a3.39,3.39,0,0,1,3.1,0l16.3,9.41a1,1,0,0,1,0,1.79l-28.43,16.41a3.45,3.45,0,0,1-3.1,0l-16.3-9.41C352.59,332.41,352.59,331.61,353.45,331.12Z" style="fill:#263238"></path><path d="M259.74,320.81a4.48,4.48,0,0,0,.8.34,3.85,3.85,0,0,1-.8-.34,1.25,1.25,0,0,1-.24-.16A2,2,0,0,0,259.74,320.81Z" style="fill:#BA68C8"></path><path d="M264.27,321.05s0,0,0,0,0,0,0,0Z" style="fill:#BA68C8"></path></g><g id="freepik--Window--inject-17"><path d="M268.38,301.86c0,1.21.86,1.71,1.91,1.1L358,252.34a4.21,4.21,0,0,0,1.91-3.31V190l-91.5,52.82Z" style="fill:#BA68C8"></path><g style="opacity:0.75"><path d="M268.38,301.86c0,1.21.86,1.71,1.91,1.1L358,252.34a4.21,4.21,0,0,0,1.91-3.31V190l-91.5,52.82Z" style="fill:#fff"></path></g><path d="M268.38,238.83a4.25,4.25,0,0,1,1.91-3.32L358,184.89c1.06-.61,1.91-.11,1.91,1.11v4l-91.5,52.82Z" style="fill:#BA68C8"></path><path d="M349.12,192.07a2,2,0,0,0-.9,1.56c0,.57.4.8.9.51a2,2,0,0,0,.89-1.55C350,192,349.61,191.79,349.12,192.07Z" style="fill:#37474f"></path><path d="M352.26,190.26a2,2,0,0,0-.9,1.56c0,.57.4.8.9.52a2,2,0,0,0,.89-1.56C353.15,190.21,352.75,190,352.26,190.26Z" style="fill:#37474f"></path><path d="M355.4,188.46a2,2,0,0,0-.9,1.55c0,.57.4.8.9.52a2,2,0,0,0,.89-1.56C356.29,188.4,355.89,188.17,355.4,188.46Z" style="fill:#37474f"></path></g><g id="freepik--www--inject-17"><path d="M298,249.39c.18-.11.33-.11.42,0a.81.81,0,0,1,.21.34l1.37,5.7,1.38-7.29a2.8,2.8,0,0,1,.2-.57,1.06,1.06,0,0,1,.43-.48l2.31-1.33a.23.23,0,0,1,.31,0,.53.53,0,0,1,.13.41,1.06,1.06,0,0,1,0,.24l-3,15a2.64,2.64,0,0,1-.2.6,1,1,0,0,1-.41.47L299,263.66c-.19.11-.33.11-.41,0a1.12,1.12,0,0,1-.21-.37l-1.32-5.25-1.32,6.77a4.82,4.82,0,0,1-.2.61.92.92,0,0,1-.41.46l-2.12,1.23c-.19.1-.32.11-.42,0a.8.8,0,0,1-.19-.38l-3-11.54a1.5,1.5,0,0,1,0-.22,1.39,1.39,0,0,1,.13-.56.82.82,0,0,1,.32-.38l2.3-1.33c.19-.11.33-.12.43,0a.75.75,0,0,1,.21.34l1.37,5.7,1.38-7.29a2.36,2.36,0,0,1,.2-.58,1,1,0,0,1,.43-.47Z" style="fill:#455a64"></path><path d="M315,239.56c.18-.11.32-.12.42,0a.75.75,0,0,1,.21.34l1.37,5.7,1.38-7.29a2.87,2.87,0,0,1,.2-.58,1,1,0,0,1,.43-.47l2.31-1.33a.24.24,0,0,1,.31,0,.55.55,0,0,1,.13.41,1.1,1.1,0,0,1,0,.25l-2.95,14.95a2.35,2.35,0,0,1-.2.6,1,1,0,0,1-.41.48l-2.12,1.22c-.19.11-.33.11-.41,0a1.23,1.23,0,0,1-.21-.37l-1.32-5.25L312.81,255a5.41,5.41,0,0,1-.2.61,1,1,0,0,1-.41.46l-2.12,1.23c-.19.1-.32.1-.42,0a.8.8,0,0,1-.19-.38l-3-11.54a1.64,1.64,0,0,1,0-.22,1.39,1.39,0,0,1,.13-.56.91.91,0,0,1,.32-.39l2.3-1.33c.19-.1.33-.11.43,0a.75.75,0,0,1,.21.34l1.37,5.7,1.38-7.29a2.23,2.23,0,0,1,.2-.58,1,1,0,0,1,.43-.47Z" style="fill:#455a64"></path><path d="M332,229.73c.19-.11.33-.12.43,0a.75.75,0,0,1,.21.34l1.37,5.7,1.38-7.29a2.36,2.36,0,0,1,.2-.58,1,1,0,0,1,.43-.47l2.3-1.33a.25.25,0,0,1,.32,0,.55.55,0,0,1,.13.41,1,1,0,0,1,0,.24l-2.95,15a2.82,2.82,0,0,1-.2.6.92.92,0,0,1-.42.47L333.09,244c-.18.1-.32.11-.41,0a1.25,1.25,0,0,1-.2-.36l-1.32-5.25-1.32,6.77a4.69,4.69,0,0,1-.2.6,1,1,0,0,1-.41.47l-2.12,1.22c-.19.11-.33.11-.42,0a.92.92,0,0,1-.2-.38l-2.95-11.54a1.64,1.64,0,0,1,0-.22,1.31,1.31,0,0,1,.13-.57.82.82,0,0,1,.32-.38l2.3-1.33c.19-.1.33-.11.43,0a.7.7,0,0,1,.2.34l1.38,5.71,1.38-7.29a2.23,2.23,0,0,1,.2-.58,1.06,1.06,0,0,1,.43-.48Z" style="fill:#455a64"></path></g></g></g><g id="freepik--Server--inject-17"><g id="freepik--server--inject-17"><polygon points="202.08 365.97 137.08 403.5 72.09 365.97 137.08 328.45 202.08 365.97" style="fill:#BA68C8"></polygon><polygon points="202.08 365.97 137.08 403.5 72.09 365.97 137.08 328.45 202.08 365.97" style="opacity:0.1"></polygon><polygon points="137.09 403.49 137.08 398.81 76.15 363.63 72.09 365.97 137.09 403.49" style="opacity:0.1"></polygon><path d="M137.09,403.49v17.3a8.88,8.88,0,0,0,4.33-1h0l28.16-16.26,29.9-17.27a5.73,5.73,0,0,0,2.6-4.5V366Z" style="fill:#BA68C8"></path><path d="M137.09,403.49v17.3a8.88,8.88,0,0,0,4.33-1h0l28.16-16.26,29.9-17.27a5.73,5.73,0,0,0,2.6-4.5V366Z" style="fill:#fff;opacity:0.65"></path><path d="M195.85,374.27l-32.23,18.6a4.78,4.78,0,0,0-2.17,3.75V401c0,1.39,1,1.94,2.17,1.25l32.23-18.6A4.8,4.8,0,0,0,198,379.9v-4.38C198,374.14,197,373.58,195.85,374.27Z" style="fill:#BA68C8"></path><path d="M195.73,378v2.12a1,1,0,0,1-.43.75l-.49.28c-.24.14-.43,0-.43-.25v-2.12a1,1,0,0,1,.43-.75l.49-.28C195.53,377.59,195.73,377.7,195.73,378Z" style="fill:#fafafa"></path><path d="M193.54,379.24v2.12a.93.93,0,0,1-.43.75l-.49.28c-.24.14-.43,0-.43-.25V380a1,1,0,0,1,.43-.75l.49-.28C193.35,378.85,193.54,379,193.54,379.24Z" style="fill:#fafafa"></path><path d="M191.35,380.5v2.12a.93.93,0,0,1-.43.75l-.49.29c-.24.13-.43,0-.43-.25v-2.13a1,1,0,0,1,.43-.75l.49-.28C191.16,380.11,191.35,380.22,191.35,380.5Z" style="fill:#fafafa"></path><path d="M189.16,381.76v2.13a1,1,0,0,1-.43.75l-.49.28c-.24.14-.43,0-.43-.25v-2.13a1,1,0,0,1,.43-.75l.49-.28C189,381.37,189.16,381.48,189.16,381.76Z" style="fill:#455a64"></path><path d="M187,383v2.13a1,1,0,0,1-.44.75l-.48.28c-.24.14-.44,0-.44-.25V383.8a1,1,0,0,1,.44-.75l.48-.28A.27.27,0,0,1,187,383Z" style="fill:#455a64"></path><path d="M184.79,384.28v2.13a1,1,0,0,1-.44.75l-.48.28c-.24.14-.44,0-.44-.25v-2.12a.94.94,0,0,1,.44-.75l.48-.29C184.59,383.9,184.79,384,184.79,384.28Z" style="fill:#fafafa"></path><path d="M182.6,385.55v2.12a1,1,0,0,1-.43.75l-.49.28c-.24.14-.43,0-.43-.25v-2.12a1,1,0,0,1,.43-.75l.49-.28C182.4,385.16,182.6,385.27,182.6,385.55Z" style="fill:#fafafa"></path><path d="M180.41,386.81v2.12a1,1,0,0,1-.43.75l-.49.28c-.24.14-.43,0-.43-.25v-2.12a1,1,0,0,1,.43-.75l.49-.28C180.22,386.42,180.41,386.53,180.41,386.81Z" style="fill:#fafafa"></path><path d="M178.22,388.07v2.12a.93.93,0,0,1-.43.75l-.49.29c-.24.13-.43,0-.43-.25v-2.13a1,1,0,0,1,.43-.75l.49-.28C178,387.68,178.22,387.79,178.22,388.07Z" style="fill:#fafafa"></path><path d="M176,389.33v2.13a1,1,0,0,1-.43.75l-.49.28c-.24.13-.43,0-.43-.25v-2.13a1,1,0,0,1,.43-.75l.49-.28C175.84,388.94,176,389.05,176,389.33Z" style="fill:#fafafa"></path><path d="M173.85,390.59v2.13a1,1,0,0,1-.44.75l-.49.28c-.23.14-.43,0-.43-.25v-2.13a1,1,0,0,1,.43-.75l.49-.28A.27.27,0,0,1,173.85,390.59Z" style="fill:#fafafa"></path><path d="M171.66,391.85V394a1,1,0,0,1-.44.75l-.48.28c-.24.14-.44,0-.44-.25v-2.13a1,1,0,0,1,.44-.75l.48-.28C171.46,391.47,171.66,391.58,171.66,391.85Z" style="fill:#fafafa"></path><path d="M169.47,393.11v2.13a1,1,0,0,1-.43.75l-.49.28c-.24.14-.43,0-.43-.25V393.9a.93.93,0,0,1,.43-.75l.49-.29A.27.27,0,0,1,169.47,393.11Z" style="fill:#455a64"></path><path d="M167.28,394.38v2.12a1,1,0,0,1-.43.75l-.49.28c-.24.14-.43,0-.43-.25v-2.12a1,1,0,0,1,.43-.75l.49-.28C167.09,394,167.28,394.1,167.28,394.38Z" style="fill:#fafafa"></path><path d="M165.09,395.64v2.12a.93.93,0,0,1-.43.75l-.49.28c-.24.14-.43,0-.43-.25v-2.12a1,1,0,0,1,.43-.75l.49-.28C164.9,395.25,165.09,395.36,165.09,395.64Z" style="fill:#fafafa"></path><path d="M72.09,366v15.76a5.76,5.76,0,0,0,2.6,4.5l25.84,14.92,32.23,18.61a8.86,8.86,0,0,0,4.33,1v-17.3Z" style="fill:#BA68C8"></path><path d="M72.09,366v15.76a5.76,5.76,0,0,0,2.6,4.5l25.84,14.92,32.23,18.61a8.86,8.86,0,0,0,4.33,1v-17.3Z" style="fill:#fff;opacity:0.5"></path><g style="opacity:0.75"><path d="M82.37,376.63l16,9.23a4.78,4.78,0,0,1,2.17,3.75V394c0,1.38-1,1.94-2.17,1.25l-16-9.23a4.8,4.8,0,0,1-2.16-3.75v-4.38C80.21,376.5,81.18,375.94,82.37,376.63Z" style="fill:#fff"></path></g><path d="M84.43,381.57l1-.57h0a1.34,1.34,0,0,1,1.33.14,4.18,4.18,0,0,1,1.88,3.26,1.3,1.3,0,0,1-.55,1.21h0l-.93.52-.16-.27a1.82,1.82,0,0,1-.54-.21,4.17,4.17,0,0,1-1.89-3.26,2.25,2.25,0,0,1,.06-.48Z" style="fill:#BA68C8"></path><path d="M84.43,381.57l1-.57h0a1.34,1.34,0,0,1,1.33.14,4.18,4.18,0,0,1,1.88,3.26,1.3,1.3,0,0,1-.55,1.21h0l-.93.52-.16-.27a1.82,1.82,0,0,1-.54-.21,4.17,4.17,0,0,1-1.89-3.26,2.25,2.25,0,0,1,.06-.48Z" style="opacity:0.2"></path><path d="M85.8,381.68a4.16,4.16,0,0,1,1.88,3.26c0,1.2-.84,1.68-1.88,1.08a4.16,4.16,0,0,1-1.88-3.26C83.92,381.56,84.76,381.08,85.8,381.68Z" style="fill:#BA68C8"></path><path d="M92.6,386.28l1-.57h0a1.32,1.32,0,0,1,1.32.13,4.17,4.17,0,0,1,1.89,3.26,1.33,1.33,0,0,1-.55,1.22h0l-.93.53-.17-.28a1.77,1.77,0,0,1-.53-.21,4.17,4.17,0,0,1-1.89-3.26,2.33,2.33,0,0,1,.06-.48Z" style="fill:#BA68C8"></path><path d="M92.6,386.28l1-.57h0a1.32,1.32,0,0,1,1.32.13,4.17,4.17,0,0,1,1.89,3.26,1.33,1.33,0,0,1-.55,1.22h0l-.93.53-.17-.28a1.77,1.77,0,0,1-.53-.21,4.17,4.17,0,0,1-1.89-3.26,2.33,2.33,0,0,1,.06-.48Z" style="opacity:0.2"></path><path d="M94,386.39a4.16,4.16,0,0,1,1.88,3.26c0,1.2-.84,1.69-1.88,1.09a4.16,4.16,0,0,1-1.88-3.26C92.09,386.28,92.93,385.79,94,386.39Z" style="fill:#BA68C8"></path><g style="opacity:0.75"><path d="M82.37,376.63l16,9.23a4.78,4.78,0,0,1,2.17,3.75V394c0,1.38-1,1.94-2.17,1.25l-16-9.23a4.8,4.8,0,0,1-2.16-3.75v-4.38C80.21,376.5,81.18,375.94,82.37,376.63Z" style="fill:#fff"></path></g><path d="M84.43,381.57l1-.57h0a1.34,1.34,0,0,1,1.33.14,4.18,4.18,0,0,1,1.88,3.26,1.3,1.3,0,0,1-.55,1.21h0l-.93.52-.16-.27a1.82,1.82,0,0,1-.54-.21,4.17,4.17,0,0,1-1.89-3.26,2.25,2.25,0,0,1,.06-.48Z" style="fill:#BA68C8"></path><path d="M84.43,381.57l1-.57h0a1.34,1.34,0,0,1,1.33.14,4.18,4.18,0,0,1,1.88,3.26,1.3,1.3,0,0,1-.55,1.21h0l-.93.52-.16-.27a1.82,1.82,0,0,1-.54-.21,4.17,4.17,0,0,1-1.89-3.26,2.25,2.25,0,0,1,.06-.48Z" style="opacity:0.2"></path><path d="M85.8,381.68a4.16,4.16,0,0,1,1.88,3.26c0,1.2-.84,1.68-1.88,1.08a4.16,4.16,0,0,1-1.88-3.26C83.92,381.56,84.76,381.08,85.8,381.68Z" style="fill:#BA68C8"></path><path d="M92.6,386.28l1-.57h0a1.32,1.32,0,0,1,1.32.13,4.17,4.17,0,0,1,1.89,3.26,1.33,1.33,0,0,1-.55,1.22h0l-.93.53-.17-.28a1.77,1.77,0,0,1-.53-.21,4.17,4.17,0,0,1-1.89-3.26,2.33,2.33,0,0,1,.06-.48Z" style="fill:#BA68C8"></path><path d="M92.6,386.28l1-.57h0a1.32,1.32,0,0,1,1.32.13,4.17,4.17,0,0,1,1.89,3.26,1.33,1.33,0,0,1-.55,1.22h0l-.93.53-.17-.28a1.77,1.77,0,0,1-.53-.21,4.17,4.17,0,0,1-1.89-3.26,2.33,2.33,0,0,1,.06-.48Z" style="opacity:0.2"></path><path d="M94,386.39a4.16,4.16,0,0,1,1.88,3.26c0,1.2-.84,1.69-1.88,1.09a4.16,4.16,0,0,1-1.88-3.26C92.09,386.28,92.93,385.79,94,386.39Z" style="fill:#BA68C8"></path><path d="M155.69,400.89l-1-.57h0a1.32,1.32,0,0,0-1.32.14,4.16,4.16,0,0,0-1.88,3.26,1.35,1.35,0,0,0,.54,1.22h0l.92.53.17-.28a1.93,1.93,0,0,0,.54-.21,4.16,4.16,0,0,0,1.88-3.26,2.25,2.25,0,0,0-.06-.48Z" style="fill:#BA68C8"></path><path d="M155.69,400.89l-1-.57h0a1.32,1.32,0,0,0-1.32.14,4.16,4.16,0,0,0-1.88,3.26,1.35,1.35,0,0,0,.54,1.22h0l.92.53.17-.28a1.93,1.93,0,0,0,.54-.21,4.16,4.16,0,0,0,1.88-3.26,2.25,2.25,0,0,0-.06-.48Z" style="opacity:0.4"></path><path d="M154.32,401a4.16,4.16,0,0,0-1.88,3.26c0,1.2.84,1.68,1.88,1.08a4.16,4.16,0,0,0,1.88-3.26C156.2,400.88,155.36,400.4,154.32,401Z" style="fill:#BA68C8"></path><path d="M154.32,401a4.16,4.16,0,0,0-1.88,3.26c0,1.2.84,1.68,1.88,1.08a4.16,4.16,0,0,0,1.88-3.26C156.2,400.88,155.36,400.4,154.32,401Z" style="opacity:0.2"></path><path d="M147.52,405.6l-1-.57h0a1.34,1.34,0,0,0-1.32.13,4.16,4.16,0,0,0-1.88,3.26,1.33,1.33,0,0,0,.55,1.22h0l.92.53.17-.28a1.93,1.93,0,0,0,.54-.21,4.16,4.16,0,0,0,1.88-3.26,1.8,1.8,0,0,0-.06-.48Z" style="fill:#BA68C8"></path><path d="M147.52,405.6l-1-.57h0a1.34,1.34,0,0,0-1.32.13,4.16,4.16,0,0,0-1.88,3.26,1.33,1.33,0,0,0,.55,1.22h0l.92.53.17-.28a1.93,1.93,0,0,0,.54-.21,4.16,4.16,0,0,0,1.88-3.26,1.8,1.8,0,0,0-.06-.48Z" style="opacity:0.4"></path><path d="M146.15,405.71a4.16,4.16,0,0,0-1.88,3.26c0,1.2.84,1.69,1.88,1.09A4.16,4.16,0,0,0,148,406.8C148,405.6,147.19,405.11,146.15,405.71Z" style="fill:#BA68C8"></path><path d="M146.15,405.71a4.16,4.16,0,0,0-1.88,3.26c0,1.2.84,1.69,1.88,1.09A4.16,4.16,0,0,0,148,406.8C148,405.6,147.19,405.11,146.15,405.71Z" style="opacity:0.2"></path><polygon points="202.08 337.83 137.08 375.35 72.09 337.83 137.08 300.31 202.08 337.83" style="fill:#BA68C8"></polygon><polygon points="202.08 337.83 137.08 375.35 72.09 337.83 137.08 300.31 202.08 337.83" style="opacity:0.1"></polygon><polygon points="137.08 375.35 137.08 370.66 76.15 335.49 72.09 337.83 137.08 375.35" style="opacity:0.1"></polygon><polygon points="202.07 356.59 137.08 394.12 137.08 375.35 202.08 337.83 202.07 356.59" style="fill:#BA68C8"></polygon><polygon points="202.07 356.59 137.08 394.12 137.08 375.35 202.08 337.83 202.07 356.59" style="fill:#fff;opacity:0.65"></polygon><path d="M195.85,346.13l-32.23,18.61a4.78,4.78,0,0,0-2.17,3.75v4.38c0,1.38,1,1.94,2.17,1.25l32.23-18.61a4.8,4.8,0,0,0,2.16-3.75v-4.38C198,346,197,345.44,195.85,346.13Z" style="fill:#BA68C8"></path><path d="M195.73,349.84V352a1,1,0,0,1-.43.75l-.49.29c-.24.13-.43,0-.43-.25v-2.13a1,1,0,0,1,.43-.75l.49-.28C195.53,349.45,195.73,349.56,195.73,349.84Z" style="fill:#fafafa"></path><path d="M193.54,351.1v2.13a1,1,0,0,1-.43.75l-.49.28c-.24.14-.43,0-.43-.25v-2.13a1,1,0,0,1,.43-.75l.49-.28C193.35,350.71,193.54,350.82,193.54,351.1Z" style="fill:#455a64"></path><path d="M191.35,352.36v2.13a1,1,0,0,1-.43.75l-.49.28c-.24.14-.43,0-.43-.25v-2.13a1,1,0,0,1,.43-.75l.49-.28C191.16,352,191.35,352.09,191.35,352.36Z" style="fill:#fafafa"></path><path d="M189.16,353.62v2.13a1,1,0,0,1-.43.75l-.49.28c-.24.14-.43,0-.43-.25v-2.12a.93.93,0,0,1,.43-.75l.49-.29C189,353.24,189.16,353.35,189.16,353.62Z" style="fill:#455a64"></path><path d="M187,354.89V357a1,1,0,0,1-.44.75l-.48.28c-.24.14-.44,0-.44-.25v-2.12a1,1,0,0,1,.44-.75l.48-.28C186.78,354.5,187,354.61,187,354.89Z" style="fill:#455a64"></path><path d="M184.79,356.15v2.12a1,1,0,0,1-.44.75l-.48.28c-.24.14-.44,0-.44-.25v-2.12a1,1,0,0,1,.44-.75l.48-.28C184.59,355.76,184.79,355.87,184.79,356.15Z" style="fill:#fafafa"></path><path d="M182.6,357.41v2.12a1,1,0,0,1-.43.75l-.49.29c-.24.13-.43,0-.43-.25v-2.13a1,1,0,0,1,.43-.75l.49-.28C182.4,357,182.6,357.13,182.6,357.41Z" style="fill:#fafafa"></path><path d="M180.41,358.67v2.13a1,1,0,0,1-.43.75l-.49.28c-.24.13-.43,0-.43-.25v-2.13a1,1,0,0,1,.43-.75l.49-.28C180.22,358.28,180.41,358.39,180.41,358.67Z" style="fill:#fafafa"></path><path d="M178.22,359.93v2.13a1,1,0,0,1-.43.75l-.49.28c-.24.14-.43,0-.43-.25v-2.13a1,1,0,0,1,.43-.75l.49-.28C178,359.54,178.22,359.66,178.22,359.93Z" style="fill:#455a64"></path><path d="M176,361.19v2.13a1,1,0,0,1-.43.75l-.49.28c-.24.14-.43,0-.43-.25V362a1,1,0,0,1,.43-.75l.49-.28C175.84,360.81,176,360.92,176,361.19Z" style="fill:#fafafa"></path><path d="M173.85,362.45v2.13a1,1,0,0,1-.44.75l-.49.28c-.23.14-.43,0-.43-.25v-2.12a1,1,0,0,1,.43-.75l.49-.29C173.65,362.07,173.85,362.18,173.85,362.45Z" style="fill:#455a64"></path><path d="M171.66,363.72v2.12a1,1,0,0,1-.44.75l-.48.28c-.24.14-.44,0-.44-.25V364.5a1,1,0,0,1,.44-.75l.48-.28C171.46,363.33,171.66,363.44,171.66,363.72Z" style="fill:#fafafa"></path><path d="M169.47,365v2.12a1,1,0,0,1-.43.75l-.49.28c-.24.14-.43,0-.43-.25v-2.12a1,1,0,0,1,.43-.75l.49-.28C169.27,364.59,169.47,364.7,169.47,365Z" style="fill:#455a64"></path><path d="M167.28,366.24v2.12a.93.93,0,0,1-.43.75l-.49.29c-.24.13-.43,0-.43-.25V367a1,1,0,0,1,.43-.75l.49-.28C167.09,365.85,167.28,366,167.28,366.24Z" style="fill:#fafafa"></path><path d="M165.09,367.5v2.13a1,1,0,0,1-.43.75l-.49.28c-.24.14-.43,0-.43-.25v-2.13a1,1,0,0,1,.43-.75l.49-.28C164.9,367.11,165.09,367.22,165.09,367.5Z" style="fill:#fafafa"></path><polygon points="137.08 394.12 72.09 356.59 72.09 337.83 137.08 375.35 137.08 394.12" style="fill:#BA68C8"></polygon><polygon points="137.08 394.12 72.09 356.59 72.09 337.83 137.08 375.35 137.08 394.12" style="fill:#fff;opacity:0.5"></polygon><g style="opacity:0.75"><path d="M82.37,348.47l16,9.22a4.78,4.78,0,0,1,2.17,3.75v4.38c0,1.38-1,1.94-2.17,1.25l-16-9.22a4.8,4.8,0,0,1-2.16-3.75v-4.38C80.21,348.33,81.18,347.78,82.37,348.47Z" style="fill:#fff"></path></g><path d="M84.43,353.41l1-.58h0a1.36,1.36,0,0,1,1.33.13,4.18,4.18,0,0,1,1.88,3.26,1.33,1.33,0,0,1-.55,1.22h0l-.93.53-.16-.28a1.82,1.82,0,0,1-.54-.21,4.17,4.17,0,0,1-1.89-3.26,2.42,2.42,0,0,1,.06-.48Z" style="fill:#BA68C8"></path><path d="M84.43,353.41l1-.58h0a1.36,1.36,0,0,1,1.33.13,4.18,4.18,0,0,1,1.88,3.26,1.33,1.33,0,0,1-.55,1.22h0l-.93.53-.16-.28a1.82,1.82,0,0,1-.54-.21,4.17,4.17,0,0,1-1.89-3.26,2.42,2.42,0,0,1,.06-.48Z" style="opacity:0.2"></path><path d="M85.8,353.51a4.16,4.16,0,0,1,1.88,3.26c0,1.2-.84,1.69-1.88,1.09a4.16,4.16,0,0,1-1.88-3.26C83.92,353.4,84.76,352.91,85.8,353.51Z" style="fill:#BA68C8"></path><path d="M92.6,358.12l1-.57h0a1.32,1.32,0,0,1,1.32.14,4.17,4.17,0,0,1,1.89,3.26,1.33,1.33,0,0,1-.55,1.22h0l-.93.53-.17-.28a1.77,1.77,0,0,1-.53-.21,4.17,4.17,0,0,1-1.89-3.26,2.25,2.25,0,0,1,.06-.48Z" style="fill:#BA68C8"></path><path d="M92.6,358.12l1-.57h0a1.32,1.32,0,0,1,1.32.14,4.17,4.17,0,0,1,1.89,3.26,1.33,1.33,0,0,1-.55,1.22h0l-.93.53-.17-.28a1.77,1.77,0,0,1-.53-.21,4.17,4.17,0,0,1-1.89-3.26,2.25,2.25,0,0,1,.06-.48Z" style="opacity:0.2"></path><path d="M94,358.23a4.16,4.16,0,0,1,1.88,3.26c0,1.2-.84,1.68-1.88,1.08a4.16,4.16,0,0,1-1.88-3.26C92.09,358.11,92.93,357.63,94,358.23Z" style="fill:#BA68C8"></path><polygon points="193.95 365.97 193.95 361.28 137.08 394.12 137.08 398.81 193.95 365.97" style="fill:#455a64"></polygon><polygon points="76.15 358.94 76.15 363.63 137.08 398.81 137.08 394.12 76.15 358.94" style="fill:#BA68C8"></polygon><polygon points="76.15 358.94 76.15 363.63 137.08 398.81 137.08 394.12 76.15 358.94" style="fill:#37474f"></polygon><path d="M155.69,372.75l-1-.57h0a1.32,1.32,0,0,0-1.32.14,4.16,4.16,0,0,0-1.88,3.26,1.32,1.32,0,0,0,.54,1.21h0l.92.53.17-.27a2.3,2.3,0,0,0,.54-.21,4.16,4.16,0,0,0,1.88-3.26,2.25,2.25,0,0,0-.06-.48Z" style="fill:#BA68C8"></path><path d="M155.69,372.75l-1-.57h0a1.32,1.32,0,0,0-1.32.14,4.16,4.16,0,0,0-1.88,3.26,1.32,1.32,0,0,0,.54,1.21h0l.92.53.17-.27a2.3,2.3,0,0,0,.54-.21,4.16,4.16,0,0,0,1.88-3.26,2.25,2.25,0,0,0-.06-.48Z" style="opacity:0.4"></path><path d="M154.32,372.86a4.14,4.14,0,0,0-1.88,3.25c0,1.21.84,1.69,1.88,1.09a4.16,4.16,0,0,0,1.88-3.26C156.2,372.74,155.36,372.26,154.32,372.86Z" style="fill:#BA68C8"></path><path d="M154.32,372.86a4.14,4.14,0,0,0-1.88,3.25c0,1.21.84,1.69,1.88,1.09a4.16,4.16,0,0,0,1.88-3.26C156.2,372.74,155.36,372.26,154.32,372.86Z" style="opacity:0.2"></path><path d="M147.52,377.46l-1-.57h0a1.29,1.29,0,0,0-1.32.13,4.16,4.16,0,0,0-1.88,3.26,1.33,1.33,0,0,0,.55,1.22h0l.92.53.17-.28a1.93,1.93,0,0,0,.54-.21,4.16,4.16,0,0,0,1.88-3.26,1.8,1.8,0,0,0-.06-.48Z" style="fill:#BA68C8"></path><path d="M147.52,377.46l-1-.57h0a1.29,1.29,0,0,0-1.32.13,4.16,4.16,0,0,0-1.88,3.26,1.33,1.33,0,0,0,.55,1.22h0l.92.53.17-.28a1.93,1.93,0,0,0,.54-.21,4.16,4.16,0,0,0,1.88-3.26,1.8,1.8,0,0,0-.06-.48Z" style="opacity:0.4"></path><path d="M146.15,377.57a4.16,4.16,0,0,0-1.88,3.26c0,1.2.84,1.69,1.88,1.09a4.16,4.16,0,0,0,1.88-3.26C148,377.46,147.19,377,146.15,377.57Z" style="fill:#BA68C8"></path><path d="M146.15,377.57a4.16,4.16,0,0,0-1.88,3.26c0,1.2.84,1.69,1.88,1.09a4.16,4.16,0,0,0,1.88-3.26C148,377.46,147.19,377,146.15,377.57Z" style="opacity:0.2"></path><polygon points="202.08 309.69 137.08 347.21 72.09 309.69 137.08 272.16 202.08 309.69" style="fill:#BA68C8"></polygon><polygon points="202.08 309.69 137.08 347.21 72.09 309.69 137.08 272.16 202.08 309.69" style="opacity:0.1"></polygon><polygon points="137.08 347.21 137.08 342.52 76.15 307.34 72.09 309.69 137.08 347.21" style="opacity:0.1"></polygon><polygon points="202.07 328.45 137.08 365.97 137.08 347.21 202.08 309.69 202.07 328.45" style="fill:#BA68C8"></polygon><polygon points="202.07 328.45 137.08 365.97 137.08 347.21 202.08 309.69 202.07 328.45" style="fill:#fff;opacity:0.65"></polygon><path d="M195.85,318l-32.23,18.61a4.78,4.78,0,0,0-2.17,3.75v4.38c0,1.38,1,1.94,2.17,1.25l32.23-18.61a4.8,4.8,0,0,0,2.16-3.75v-4.38C198,317.83,197,317.27,195.85,318Z" style="fill:#BA68C8"></path><path d="M195.73,321.67v2.13a1,1,0,0,1-.43.75l-.49.28c-.24.13-.43,0-.43-.25v-2.13a1,1,0,0,1,.43-.75l.49-.28C195.53,321.28,195.73,321.39,195.73,321.67Z" style="fill:#fafafa"></path><path d="M193.54,322.93v2.13a1,1,0,0,1-.43.75l-.49.28c-.24.14-.43,0-.43-.25v-2.13a1,1,0,0,1,.43-.75l.49-.28C193.35,322.54,193.54,322.66,193.54,322.93Z" style="fill:#fafafa"></path><path d="M191.35,324.19v2.13a1,1,0,0,1-.43.75l-.49.28c-.24.14-.43,0-.43-.25V325a1,1,0,0,1,.43-.75l.49-.28C191.16,323.81,191.35,323.92,191.35,324.19Z" style="fill:#fafafa"></path><path d="M189.16,325.45v2.13a1,1,0,0,1-.43.75l-.49.28c-.24.14-.43,0-.43-.25v-2.12a.93.93,0,0,1,.43-.75l.49-.29C189,325.07,189.16,325.18,189.16,325.45Z" style="fill:#fafafa"></path><path d="M187,326.72v2.12a1,1,0,0,1-.44.75l-.48.28c-.24.14-.44,0-.44-.25V327.5a1,1,0,0,1,.44-.75l.48-.28C186.78,326.33,187,326.44,187,326.72Z" style="fill:#455a64"></path><path d="M184.79,328v2.12a.94.94,0,0,1-.44.75l-.48.28c-.24.14-.44,0-.44-.25v-2.12a1,1,0,0,1,.44-.75l.48-.28C184.59,327.59,184.79,327.7,184.79,328Z" style="fill:#455a64"></path><path d="M182.6,329.24v2.12a1,1,0,0,1-.43.75l-.49.29c-.24.13-.43,0-.43-.25V330a1,1,0,0,1,.43-.75l.49-.28C182.4,328.85,182.6,329,182.6,329.24Z" style="fill:#fafafa"></path><path d="M180.41,330.5v2.13a1,1,0,0,1-.43.75l-.49.28c-.24.14-.43,0-.43-.25v-2.13a1,1,0,0,1,.43-.75l.49-.28C180.22,330.11,180.41,330.22,180.41,330.5Z" style="fill:#fafafa"></path><path d="M178.22,331.76v2.13a1,1,0,0,1-.43.75l-.49.28c-.24.14-.43,0-.43-.25v-2.13a1,1,0,0,1,.43-.75l.49-.28C178,331.37,178.22,331.49,178.22,331.76Z" style="fill:#fafafa"></path><path d="M176,333v2.13a1,1,0,0,1-.43.75l-.49.28c-.24.14-.43,0-.43-.25v-2.12a.93.93,0,0,1,.43-.75l.49-.29C175.84,332.64,176,332.75,176,333Z" style="fill:#455a64"></path><path d="M173.85,334.29v2.12a1,1,0,0,1-.44.75l-.49.28c-.23.14-.43,0-.43-.25v-2.12a1,1,0,0,1,.43-.75l.49-.28C173.65,333.9,173.85,334,173.85,334.29Z" style="fill:#fafafa"></path><path d="M171.66,335.55v2.12a1,1,0,0,1-.44.75l-.48.28c-.24.14-.44,0-.44-.25v-2.12a1,1,0,0,1,.44-.75l.48-.28C171.46,335.16,171.66,335.27,171.66,335.55Z" style="fill:#fafafa"></path><path d="M169.47,336.81v2.12a1,1,0,0,1-.43.75l-.49.29c-.24.13-.43,0-.43-.25v-2.13a1,1,0,0,1,.43-.75l.49-.28C169.27,336.42,169.47,336.53,169.47,336.81Z" style="fill:#455a64"></path><path d="M167.28,338.07v2.13a1,1,0,0,1-.43.75l-.49.28c-.24.13-.43,0-.43-.25v-2.13a1,1,0,0,1,.43-.75l.49-.28C167.09,337.68,167.28,337.79,167.28,338.07Z" style="fill:#fafafa"></path><path d="M165.09,339.33v2.13a1,1,0,0,1-.43.75l-.49.28c-.24.14-.43,0-.43-.25v-2.13a1,1,0,0,1,.43-.75l.49-.28C164.9,338.94,165.09,339.06,165.09,339.33Z" style="fill:#455a64"></path><polygon points="137.08 365.97 72.09 328.45 72.09 309.69 137.08 347.21 137.08 365.97" style="fill:#BA68C8"></polygon><polygon points="137.08 365.97 72.09 328.45 72.09 309.69 137.08 347.21 137.08 365.97" style="fill:#fff;opacity:0.5"></polygon><g style="opacity:0.75"><path d="M82.37,320.32l16,9.23a4.76,4.76,0,0,1,2.17,3.75v4.38c0,1.38-1,1.94-2.17,1.25l-16-9.23A4.8,4.8,0,0,1,80.21,326v-4.38C80.21,320.19,81.18,319.63,82.37,320.32Z" style="fill:#fff"></path></g><path d="M84.43,325.26l1-.57h0a1.34,1.34,0,0,1,1.33.14,4.18,4.18,0,0,1,1.88,3.26,1.3,1.3,0,0,1-.55,1.21h0l-.93.52-.16-.27a1.82,1.82,0,0,1-.54-.21,4.17,4.17,0,0,1-1.89-3.26,2.25,2.25,0,0,1,.06-.48Z" style="fill:#BA68C8"></path><path d="M84.43,325.26l1-.57h0a1.34,1.34,0,0,1,1.33.14,4.18,4.18,0,0,1,1.88,3.26,1.3,1.3,0,0,1-.55,1.21h0l-.93.52-.16-.27a1.82,1.82,0,0,1-.54-.21,4.17,4.17,0,0,1-1.89-3.26,2.25,2.25,0,0,1,.06-.48Z" style="opacity:0.2"></path><path d="M85.8,325.37a4.16,4.16,0,0,1,1.88,3.26c0,1.2-.84,1.68-1.88,1.08a4.16,4.16,0,0,1-1.88-3.26C83.92,325.25,84.76,324.77,85.8,325.37Z" style="fill:#BA68C8"></path><path d="M92.6,330l1-.57h0a1.32,1.32,0,0,1,1.32.13,4.17,4.17,0,0,1,1.89,3.26,1.33,1.33,0,0,1-.55,1.22h0l-.93.53-.17-.28a1.77,1.77,0,0,1-.53-.21,4.17,4.17,0,0,1-1.89-3.26,2.33,2.33,0,0,1,.06-.48Z" style="fill:#BA68C8"></path><path d="M92.6,330l1-.57h0a1.32,1.32,0,0,1,1.32.13,4.17,4.17,0,0,1,1.89,3.26,1.33,1.33,0,0,1-.55,1.22h0l-.93.53-.17-.28a1.77,1.77,0,0,1-.53-.21,4.17,4.17,0,0,1-1.89-3.26,2.33,2.33,0,0,1,.06-.48Z" style="opacity:0.2"></path><path d="M94,330.08a4.16,4.16,0,0,1,1.88,3.26c0,1.2-.84,1.69-1.88,1.09a4.16,4.16,0,0,1-1.88-3.26C92.09,330,92.93,329.48,94,330.08Z" style="fill:#BA68C8"></path><polygon points="193.95 337.83 193.95 333.14 137.08 365.97 137.08 370.66 193.95 337.83" style="fill:#455a64"></polygon><polygon points="76.15 330.79 76.15 335.49 137.08 370.66 137.08 365.97 76.15 330.79" style="fill:#37474f"></polygon><path d="M155.69,344.61l-1-.58h0a1.34,1.34,0,0,0-1.32.13,4.16,4.16,0,0,0-1.88,3.26,1.35,1.35,0,0,0,.54,1.22h0l.92.53.17-.28a1.93,1.93,0,0,0,.54-.21,4.16,4.16,0,0,0,1.88-3.26,2.33,2.33,0,0,0-.06-.48Z" style="fill:#BA68C8"></path><path d="M155.69,344.61l-1-.58h0a1.34,1.34,0,0,0-1.32.13,4.16,4.16,0,0,0-1.88,3.26,1.35,1.35,0,0,0,.54,1.22h0l.92.53.17-.28a1.93,1.93,0,0,0,.54-.21,4.16,4.16,0,0,0,1.88-3.26,2.33,2.33,0,0,0-.06-.48Z" style="opacity:0.4"></path><path d="M154.32,344.71a4.16,4.16,0,0,0-1.88,3.26c0,1.2.84,1.69,1.88,1.09a4.16,4.16,0,0,0,1.88-3.26C156.2,344.6,155.36,344.11,154.32,344.71Z" style="fill:#BA68C8"></path><path d="M154.32,344.71a4.16,4.16,0,0,0-1.88,3.26c0,1.2.84,1.69,1.88,1.09a4.16,4.16,0,0,0,1.88-3.26C156.2,344.6,155.36,344.11,154.32,344.71Z" style="opacity:0.2"></path><path d="M147.52,349.32l-1-.57h0a1.32,1.32,0,0,0-1.32.14,4.16,4.16,0,0,0-1.88,3.26,1.33,1.33,0,0,0,.55,1.22h0l.92.53.17-.28a1.93,1.93,0,0,0,.54-.21,4.16,4.16,0,0,0,1.88-3.26,1.75,1.75,0,0,0-.06-.48Z" style="fill:#BA68C8"></path><path d="M147.52,349.32l-1-.57h0a1.32,1.32,0,0,0-1.32.14,4.16,4.16,0,0,0-1.88,3.26,1.33,1.33,0,0,0,.55,1.22h0l.92.53.17-.28a1.93,1.93,0,0,0,.54-.21,4.16,4.16,0,0,0,1.88-3.26,1.75,1.75,0,0,0-.06-.48Z" style="opacity:0.4"></path><path d="M146.15,349.43a4.16,4.16,0,0,0-1.88,3.26c0,1.2.84,1.68,1.88,1.08a4.16,4.16,0,0,0,1.88-3.26C148,349.31,147.19,348.83,146.15,349.43Z" style="fill:#BA68C8"></path><path d="M146.15,349.43a4.16,4.16,0,0,0-1.88,3.26c0,1.2.84,1.68,1.88,1.08a4.16,4.16,0,0,0,1.88-3.26C148,349.31,147.19,348.83,146.15,349.43Z" style="opacity:0.2"></path><polygon points="202.08 281.55 137.08 319.07 72.09 281.55 137.08 244.02 202.08 281.55" style="fill:#BA68C8"></polygon><polygon points="202.08 281.55 137.08 319.07 72.09 281.55 137.08 244.02 202.08 281.55" style="fill:#fff;opacity:0.15"></polygon><polygon points="202.08 281.55 137.08 319.07 72.09 281.55 137.08 244.02 202.08 281.55" style="opacity:0.1"></polygon><polygon points="137.08 314.39 137.08 319.07 72.09 281.55 76.15 279.21 137.08 314.39" style="opacity:0.1"></polygon><polygon points="202.07 300.31 137.08 337.83 137.08 319.07 202.08 281.55 202.07 300.31" style="fill:#BA68C8"></polygon><polygon points="202.07 300.31 137.08 337.83 137.08 319.07 202.08 281.55 202.07 300.31" style="fill:#fff;opacity:0.65"></polygon><path d="M195.85,289.84l-32.23,18.61a4.78,4.78,0,0,0-2.17,3.75v4.38c0,1.38,1,1.94,2.17,1.25l32.23-18.61a4.8,4.8,0,0,0,2.16-3.75v-4.38C198,289.71,197,289.15,195.85,289.84Z" style="fill:#BA68C8"></path><path d="M195.73,293.55v2.12a1,1,0,0,1-.43.75l-.49.29c-.24.13-.43,0-.43-.25v-2.13a1,1,0,0,1,.43-.75l.49-.28C195.53,293.16,195.73,293.27,195.73,293.55Z" style="fill:#fafafa"></path><path d="M193.54,294.81v2.13a1,1,0,0,1-.43.75l-.49.28c-.24.14-.43,0-.43-.25v-2.13a1,1,0,0,1,.43-.75l.49-.28C193.35,294.42,193.54,294.53,193.54,294.81Z" style="fill:#455a64"></path><path d="M191.35,296.07v2.13a1,1,0,0,1-.43.75l-.49.28c-.24.14-.43,0-.43-.25v-2.13a1,1,0,0,1,.43-.75l.49-.28C191.16,295.68,191.35,295.8,191.35,296.07Z" style="fill:#fafafa"></path><path d="M189.16,297.33v2.13a1,1,0,0,1-.43.75l-.49.28c-.24.14-.43,0-.43-.25v-2.12a.93.93,0,0,1,.43-.75l.49-.29C189,297,189.16,297.06,189.16,297.33Z" style="fill:#fafafa"></path><path d="M187,298.6v2.12a1,1,0,0,1-.44.75l-.48.28c-.24.14-.44,0-.44-.25v-2.12a.94.94,0,0,1,.44-.75l.48-.28C186.78,298.21,187,298.32,187,298.6Z" style="fill:#fafafa"></path><path d="M184.79,299.86V302a1,1,0,0,1-.44.75l-.48.28c-.24.14-.44,0-.44-.25v-2.12a1,1,0,0,1,.44-.75l.48-.28C184.59,299.47,184.79,299.58,184.79,299.86Z" style="fill:#455a64"></path><path d="M182.6,301.12v2.12a1,1,0,0,1-.43.75l-.49.28c-.24.14-.43,0-.43-.25V301.9a1,1,0,0,1,.43-.75l.49-.28C182.4,300.73,182.6,300.84,182.6,301.12Z" style="fill:#455a64"></path><path d="M180.41,302.38v2.13a1,1,0,0,1-.43.75l-.49.28c-.24.13-.43,0-.43-.25v-2.13a1,1,0,0,1,.43-.75l.49-.28C180.22,302,180.41,302.1,180.41,302.38Z" style="fill:#fafafa"></path><path d="M178.22,303.64v2.13a1,1,0,0,1-.43.75l-.49.28c-.24.14-.43,0-.43-.25v-2.13a1,1,0,0,1,.43-.75l.49-.28C178,303.25,178.22,303.37,178.22,303.64Z" style="fill:#455a64"></path><path d="M176,304.9V307a1,1,0,0,1-.43.75l-.49.28c-.24.14-.43,0-.43-.25v-2.13a1,1,0,0,1,.43-.75l.49-.28C175.84,304.52,176,304.63,176,304.9Z" style="fill:#fafafa"></path><path d="M173.85,306.16v2.13a1,1,0,0,1-.44.75l-.49.28c-.23.14-.43,0-.43-.25V307a1,1,0,0,1,.43-.75l.49-.29C173.65,305.78,173.85,305.89,173.85,306.16Z" style="fill:#fafafa"></path><path d="M171.66,307.43v2.12a1,1,0,0,1-.44.75l-.48.28c-.24.14-.44,0-.44-.25v-2.12a1,1,0,0,1,.44-.75l.48-.28C171.46,307,171.66,307.15,171.66,307.43Z" style="fill:#fafafa"></path><path d="M169.47,308.69v2.12a1,1,0,0,1-.43.75l-.49.28c-.24.14-.43,0-.43-.25v-2.12a1,1,0,0,1,.43-.75l.49-.28C169.27,308.3,169.47,308.41,169.47,308.69Z" style="fill:#455a64"></path><path d="M167.28,310v2.12a.93.93,0,0,1-.43.75l-.49.29c-.24.13-.43,0-.43-.25v-2.13a1,1,0,0,1,.43-.75l.49-.28C167.09,309.56,167.28,309.67,167.28,310Z" style="fill:#fafafa"></path><path d="M165.09,311.21v2.13a1,1,0,0,1-.43.75l-.49.28c-.24.14-.43,0-.43-.25V312a1,1,0,0,1,.43-.75l.49-.28C164.9,310.82,165.09,310.93,165.09,311.21Z" style="fill:#fafafa"></path><polygon points="137.08 337.83 72.09 300.31 72.09 281.55 137.08 319.07 137.08 337.83" style="fill:#BA68C8"></polygon><polygon points="137.08 337.83 72.09 300.31 72.09 281.55 137.08 319.07 137.08 337.83" style="fill:#fff;opacity:0.5"></polygon><g style="opacity:0.75"><path d="M82.37,292.21l16,9.22a4.78,4.78,0,0,1,2.17,3.75v4.39c0,1.38-1,1.94-2.17,1.25l-16-9.23a4.8,4.8,0,0,1-2.16-3.75v-4.38C80.21,292.08,81.18,291.52,82.37,292.21Z" style="fill:#fff"></path></g><path d="M84.43,297.15l1-.57h0a1.34,1.34,0,0,1,1.33.14A4.18,4.18,0,0,1,88.64,300a1.3,1.3,0,0,1-.55,1.21h0l-.93.53-.16-.27a2.15,2.15,0,0,1-.54-.21A4.17,4.17,0,0,1,84.57,298a2.43,2.43,0,0,1,.06-.49Z" style="fill:#BA68C8"></path><path d="M84.43,297.15l1-.57h0a1.34,1.34,0,0,1,1.33.14A4.18,4.18,0,0,1,88.64,300a1.3,1.3,0,0,1-.55,1.21h0l-.93.53-.16-.27a2.15,2.15,0,0,1-.54-.21A4.17,4.17,0,0,1,84.57,298a2.43,2.43,0,0,1,.06-.49Z" style="opacity:0.2"></path><path d="M85.8,297.26a4.14,4.14,0,0,1,1.88,3.25c0,1.2-.84,1.69-1.88,1.09a4.16,4.16,0,0,1-1.88-3.26C83.92,297.14,84.76,296.66,85.8,297.26Z" style="fill:#BA68C8"></path><path d="M92.6,301.86l1-.57h0a1.29,1.29,0,0,1,1.32.13,4.17,4.17,0,0,1,1.89,3.26,1.33,1.33,0,0,1-.55,1.22h0l-.93.53-.17-.28a1.77,1.77,0,0,1-.53-.21,4.17,4.17,0,0,1-1.89-3.26,2.25,2.25,0,0,1,.06-.48Z" style="fill:#BA68C8"></path><path d="M92.6,301.86l1-.57h0a1.29,1.29,0,0,1,1.32.13,4.17,4.17,0,0,1,1.89,3.26,1.33,1.33,0,0,1-.55,1.22h0l-.93.53-.17-.28a1.77,1.77,0,0,1-.53-.21,4.17,4.17,0,0,1-1.89-3.26,2.25,2.25,0,0,1,.06-.48Z" style="opacity:0.2"></path><path d="M94,302a4.16,4.16,0,0,1,1.88,3.26c0,1.2-.84,1.69-1.88,1.09a4.16,4.16,0,0,1-1.88-3.26C92.09,301.86,92.93,301.37,94,302Z" style="fill:#BA68C8"></path><polygon points="193.95 309.69 193.95 305 137.08 337.83 137.08 342.52 193.95 309.69" style="fill:#455a64"></polygon><polygon points="76.15 302.65 76.15 307.34 137.08 342.52 137.08 337.83 76.15 302.65" style="fill:#37474f"></polygon><path d="M155.69,316.46l-1-.57h0a1.29,1.29,0,0,0-1.32.13,4.16,4.16,0,0,0-1.88,3.26,1.35,1.35,0,0,0,.54,1.22h0l.92.53.17-.28a1.93,1.93,0,0,0,.54-.21,4.16,4.16,0,0,0,1.88-3.26,2.33,2.33,0,0,0-.06-.48Z" style="fill:#BA68C8"></path><path d="M155.69,316.46l-1-.57h0a1.29,1.29,0,0,0-1.32.13,4.16,4.16,0,0,0-1.88,3.26,1.35,1.35,0,0,0,.54,1.22h0l.92.53.17-.28a1.93,1.93,0,0,0,.54-.21,4.16,4.16,0,0,0,1.88-3.26,2.33,2.33,0,0,0-.06-.48Z" style="opacity:0.4"></path><path d="M154.32,316.57a4.16,4.16,0,0,0-1.88,3.26c0,1.2.84,1.69,1.88,1.09a4.16,4.16,0,0,0,1.88-3.26C156.2,316.46,155.36,316,154.32,316.57Z" style="fill:#BA68C8"></path><path d="M154.32,316.57a4.16,4.16,0,0,0-1.88,3.26c0,1.2.84,1.69,1.88,1.09a4.16,4.16,0,0,0,1.88-3.26C156.2,316.46,155.36,316,154.32,316.57Z" style="opacity:0.2"></path><path d="M147.52,321.18l-1-.58h0a1.32,1.32,0,0,0-1.32.14,4.16,4.16,0,0,0-1.88,3.26,1.31,1.31,0,0,0,.55,1.21h0l.92.53.17-.28a1.93,1.93,0,0,0,.54-.21,4.14,4.14,0,0,0,1.88-3.26,1.86,1.86,0,0,0-.06-.48Z" style="fill:#BA68C8"></path><path d="M147.52,321.18l-1-.58h0a1.32,1.32,0,0,0-1.32.14,4.16,4.16,0,0,0-1.88,3.26,1.31,1.31,0,0,0,.55,1.21h0l.92.53.17-.28a1.93,1.93,0,0,0,.54-.21,4.14,4.14,0,0,0,1.88-3.26,1.86,1.86,0,0,0-.06-.48Z" style="opacity:0.4"></path><path d="M146.15,321.28a4.16,4.16,0,0,0-1.88,3.26c0,1.2.84,1.69,1.88,1.09a4.16,4.16,0,0,0,1.88-3.26C148,321.17,147.19,320.68,146.15,321.28Z" style="fill:#BA68C8"></path><path d="M146.15,321.28a4.16,4.16,0,0,0-1.88,3.26c0,1.2.84,1.69,1.88,1.09a4.16,4.16,0,0,0,1.88-3.26C148,321.17,147.19,320.68,146.15,321.28Z" style="opacity:0.2"></path><path d="M74.69,251.91l59.83-34.52a5.74,5.74,0,0,1,5.2,0l59.76,34.52a5.76,5.76,0,0,1,2.6,4.5v15.76L137,309.7h0L72.09,272.17V256.41A5.77,5.77,0,0,1,74.69,251.91Z" style="fill:#BA68C8"></path><path d="M74.69,251.91l59.83-34.52a5.74,5.74,0,0,1,5.2,0l59.76,34.52a5.76,5.76,0,0,1,2.6,4.5v15.76L137,309.7h0L72.09,272.17V256.41A5.77,5.77,0,0,1,74.69,251.91Z" style="fill:#fff;opacity:0.5"></path><g style="opacity:0.75"><path d="M82.37,264l16,9.23a4.78,4.78,0,0,1,2.17,3.75v4.38c0,1.38-1,1.94-2.17,1.25l-16-9.23a4.8,4.8,0,0,1-2.16-3.75v-4.38C80.21,263.91,81.18,263.35,82.37,264Z" style="fill:#fff"></path></g><path d="M84.43,269l1-.57h0a1.34,1.34,0,0,1,1.33.14,4.18,4.18,0,0,1,1.88,3.26,1.33,1.33,0,0,1-.55,1.22h0l-.93.53-.16-.28a1.82,1.82,0,0,1-.54-.21,4.17,4.17,0,0,1-1.89-3.26,2.25,2.25,0,0,1,.06-.48Z" style="fill:#BA68C8"></path><path d="M84.43,269l1-.57h0a1.34,1.34,0,0,1,1.33.14,4.18,4.18,0,0,1,1.88,3.26,1.33,1.33,0,0,1-.55,1.22h0l-.93.53-.16-.28a1.82,1.82,0,0,1-.54-.21,4.17,4.17,0,0,1-1.89-3.26,2.25,2.25,0,0,1,.06-.48Z" style="opacity:0.2"></path><path d="M85.8,269.09a4.16,4.16,0,0,1,1.88,3.26c0,1.2-.84,1.68-1.88,1.08a4.16,4.16,0,0,1-1.88-3.26C83.92,269,84.76,268.49,85.8,269.09Z" style="fill:#BA68C8"></path><path d="M92.6,273.7l1-.58h0a1.34,1.34,0,0,1,1.32.13,4.17,4.17,0,0,1,1.89,3.26,1.33,1.33,0,0,1-.55,1.22h0l-.93.53-.17-.28a1.77,1.77,0,0,1-.53-.21,4.17,4.17,0,0,1-1.89-3.26,2.42,2.42,0,0,1,.06-.48Z" style="fill:#BA68C8"></path><path d="M92.6,273.7l1-.58h0a1.34,1.34,0,0,1,1.32.13,4.17,4.17,0,0,1,1.89,3.26,1.33,1.33,0,0,1-.55,1.22h0l-.93.53-.17-.28a1.77,1.77,0,0,1-.53-.21,4.17,4.17,0,0,1-1.89-3.26,2.42,2.42,0,0,1,.06-.48Z" style="opacity:0.2"></path><path d="M94,273.8a4.16,4.16,0,0,1,1.88,3.26c0,1.2-.84,1.69-1.88,1.09a4.16,4.16,0,0,1-1.88-3.26C92.09,273.69,92.93,273.2,94,273.8Z" style="fill:#BA68C8"></path><path d="M137.05,290.05v19.64l65-37.52V256.41a5.81,5.81,0,0,0-2.13-4.17c.95.83.79,1.94-.47,2.67l-59.83,34.52A5.31,5.31,0,0,1,137.05,290.05Z" style="fill:#BA68C8"></path><path d="M137.05,290.05v19.64l65-37.52V256.41a5.81,5.81,0,0,0-2.13-4.17c.95.83.79,1.94-.47,2.67l-59.83,34.52A5.31,5.31,0,0,1,137.05,290.05Z" style="fill:#fff;opacity:0.65"></path><path d="M195.85,261.69,163.62,280.3a4.78,4.78,0,0,0-2.17,3.75v4.38c0,1.38,1,1.94,2.17,1.25l32.23-18.6a4.8,4.8,0,0,0,2.16-3.75v-4.39C198,261.56,197,261,195.85,261.69Z" style="fill:#BA68C8"></path><path d="M195.73,265.4v2.13a1,1,0,0,1-.43.75l-.49.28c-.24.14-.43,0-.43-.25v-2.12a.93.93,0,0,1,.43-.75l.49-.29A.27.27,0,0,1,195.73,265.4Z" style="fill:#455a64"></path><path d="M193.54,266.67v2.12a1,1,0,0,1-.43.75l-.49.28c-.24.14-.43,0-.43-.25v-2.12a1,1,0,0,1,.43-.75l.49-.28C193.35,266.28,193.54,266.39,193.54,266.67Z" style="fill:#fafafa"></path><path d="M191.35,267.93v2.12a1,1,0,0,1-.43.75l-.49.28c-.24.14-.43,0-.43-.25v-2.12a1,1,0,0,1,.43-.75l.49-.28C191.16,267.54,191.35,267.65,191.35,267.93Z" style="fill:#455a64"></path><path d="M189.16,269.19v2.12a.93.93,0,0,1-.43.75l-.49.29c-.24.13-.43,0-.43-.25V270a1,1,0,0,1,.43-.75l.49-.28C189,268.8,189.16,268.91,189.16,269.19Z" style="fill:#455a64"></path><path d="M187,270.45v2.13a1,1,0,0,1-.44.75l-.48.28a.27.27,0,0,1-.44-.25v-2.13a1,1,0,0,1,.44-.75l.48-.28C186.78,270.06,187,270.17,187,270.45Z" style="fill:#455a64"></path><path d="M184.79,271.71v2.13a1,1,0,0,1-.44.75l-.48.28a.27.27,0,0,1-.44-.25v-2.13a1,1,0,0,1,.44-.75l.48-.28A.27.27,0,0,1,184.79,271.71Z" style="fill:#fafafa"></path><path d="M182.6,273v2.13a1,1,0,0,1-.43.75l-.49.28c-.24.14-.43,0-.43-.25v-2.12a.93.93,0,0,1,.43-.75l.49-.29A.27.27,0,0,1,182.6,273Z" style="fill:#fafafa"></path><path d="M180.41,274.24v2.12a1,1,0,0,1-.43.75l-.49.28c-.24.14-.43,0-.43-.25V275a.93.93,0,0,1,.43-.75L180,274C180.22,273.85,180.41,274,180.41,274.24Z" style="fill:#455a64"></path><path d="M178.22,275.5v2.12a1,1,0,0,1-.43.75l-.49.28c-.24.14-.43,0-.43-.25v-2.12a1,1,0,0,1,.43-.75l.49-.28C178,275.11,178.22,275.22,178.22,275.5Z" style="fill:#fafafa"></path><path d="M176,276.76v2.12a.93.93,0,0,1-.43.75l-.49.28c-.24.14-.43,0-.43-.25v-2.12a1,1,0,0,1,.43-.75l.49-.28C175.84,276.37,176,276.48,176,276.76Z" style="fill:#455a64"></path><path d="M173.85,278v2.13a1,1,0,0,1-.44.75l-.49.28a.27.27,0,0,1-.43-.25V278.8a1,1,0,0,1,.43-.75l.49-.28C173.65,277.63,173.85,277.74,173.85,278Z" style="fill:#455a64"></path><path d="M171.66,279.28v2.13a1,1,0,0,1-.44.75l-.48.28a.27.27,0,0,1-.44-.25v-2.13a1,1,0,0,1,.44-.75l.48-.28A.27.27,0,0,1,171.66,279.28Z" style="fill:#455a64"></path><path d="M169.47,280.54v2.13a1,1,0,0,1-.43.75l-.49.28c-.24.14-.43,0-.43-.25v-2.13a1,1,0,0,1,.43-.75l.49-.28C169.27,280.15,169.47,280.27,169.47,280.54Z" style="fill:#fafafa"></path><path d="M167.28,281.8v2.13a1,1,0,0,1-.43.75l-.49.28c-.24.14-.43,0-.43-.25v-2.12a.93.93,0,0,1,.43-.75l.49-.29C167.09,281.42,167.28,281.53,167.28,281.8Z" style="fill:#455a64"></path><path d="M165.09,283.07v2.12a1,1,0,0,1-.43.75l-.49.28c-.24.14-.43,0-.43-.25v-2.12a1,1,0,0,1,.43-.75l.49-.28C164.9,282.68,165.09,282.79,165.09,283.07Z" style="fill:#455a64"></path><path d="M199.48,254.91l-59.84,34.52a5.72,5.72,0,0,1-5.19,0L74.69,254.91c-1.44-.83-1.44-2.17,0-3l59.83-34.52a5.74,5.74,0,0,1,5.2,0l59.76,34.52C200.91,252.74,200.91,254.08,199.48,254.91Z" style="fill:#BA68C8"></path><path d="M199.48,254.91l-59.84,34.52a5.72,5.72,0,0,1-5.19,0L74.69,254.91c-1.44-.83-1.44-2.17,0-3l59.83-34.52a5.74,5.74,0,0,1,5.2,0l59.76,34.52C200.91,252.74,200.91,254.08,199.48,254.91Z" style="fill:#fff;opacity:0.85"></path><polygon points="193.95 281.55 193.95 276.86 137.08 309.7 137.08 314.39 193.95 281.55" style="fill:#455a64"></polygon><polygon points="76.15 274.52 76.15 279.21 137.08 314.39 137.08 309.7 76.15 274.52" style="fill:#37474f"></polygon><path d="M155.69,288.33l-1-.57h0a1.32,1.32,0,0,0-1.32.14,4.16,4.16,0,0,0-1.88,3.26,1.32,1.32,0,0,0,.54,1.21h0l.92.53.17-.27a2.3,2.3,0,0,0,.54-.21,4.16,4.16,0,0,0,1.88-3.26,2.25,2.25,0,0,0-.06-.48Z" style="fill:#BA68C8"></path><path d="M155.69,288.33l-1-.57h0a1.32,1.32,0,0,0-1.32.14,4.16,4.16,0,0,0-1.88,3.26,1.32,1.32,0,0,0,.54,1.21h0l.92.53.17-.27a2.3,2.3,0,0,0,.54-.21,4.16,4.16,0,0,0,1.88-3.26,2.25,2.25,0,0,0-.06-.48Z" style="opacity:0.4"></path><path d="M154.32,288.44a4.14,4.14,0,0,0-1.88,3.25c0,1.21.84,1.69,1.88,1.09a4.16,4.16,0,0,0,1.88-3.26C156.2,288.32,155.36,287.84,154.32,288.44Z" style="fill:#BA68C8"></path><path d="M154.32,288.44a4.14,4.14,0,0,0-1.88,3.25c0,1.21.84,1.69,1.88,1.09a4.16,4.16,0,0,0,1.88-3.26C156.2,288.32,155.36,287.84,154.32,288.44Z" style="opacity:0.2"></path><path d="M147.52,293l-1-.57h0a1.29,1.29,0,0,0-1.32.13,4.16,4.16,0,0,0-1.88,3.26,1.33,1.33,0,0,0,.55,1.22h0l.92.53.17-.28a1.93,1.93,0,0,0,.54-.21,4.16,4.16,0,0,0,1.88-3.26,1.8,1.8,0,0,0-.06-.48Z" style="fill:#BA68C8"></path><path d="M147.52,293l-1-.57h0a1.29,1.29,0,0,0-1.32.13,4.16,4.16,0,0,0-1.88,3.26,1.33,1.33,0,0,0,.55,1.22h0l.92.53.17-.28a1.93,1.93,0,0,0,.54-.21,4.16,4.16,0,0,0,1.88-3.26,1.8,1.8,0,0,0-.06-.48Z" style="opacity:0.4"></path><path d="M146.15,293.15a4.16,4.16,0,0,0-1.88,3.26c0,1.2.84,1.69,1.88,1.09a4.16,4.16,0,0,0,1.88-3.26C148,293,147.19,292.55,146.15,293.15Z" style="fill:#BA68C8"></path><path d="M146.15,293.15a4.16,4.16,0,0,0-1.88,3.26c0,1.2.84,1.69,1.88,1.09a4.16,4.16,0,0,0,1.88-3.26C148,293,147.19,292.55,146.15,293.15Z" style="opacity:0.2"></path></g></g><g id="freepik--speech-bubble--inject-17"><path d="M312,163.78l-4.64-8.72,3.73-10.78v-6.59l-11.42,6.59v6.6l4.91,8.5a.66.66,0,0,0,.34.3h0Z" style="fill:#BA68C8"></path><path d="M312,163.78l-4.64-8.72,3.73-10.78v-6.59l-11.42,6.59v6.6l4.91,8.5a.66.66,0,0,0,.34.3h0Z" style="opacity:0.2"></path><path d="M339.27,85.27a7.57,7.57,0,0,0-3.42-5.93l-2.79-1.61a7.58,7.58,0,0,0-6.85,0l-42.76,24.73a7.57,7.57,0,0,0-3.42,5.93v47.05a7.58,7.58,0,0,0,3.42,5.93l2.79,1.61a7.58,7.58,0,0,0,6.85,0L306.84,155l4.9,8.49a.74.74,0,0,0,1.33-.13l5.18-14.95,17.6-10.19a7.58,7.58,0,0,0,3.42-5.93Z" style="fill:#BA68C8"></path><path d="M280,155.44a7.58,7.58,0,0,0,3.42,5.93l2.79,1.61a7.68,7.68,0,0,0,6.27.27c-1.62.61-2.84-.3-2.84-2.25V114a7,7,0,0,1,1-3.37L281,105a7,7,0,0,0-1,3.37Z" style="opacity:0.2"></path><path d="M339.16,84.3c-.4-1.46-1.73-1.92-3.31-1L293.09,108a6.75,6.75,0,0,0-2.41,2.55L281,105a6.93,6.93,0,0,1,2.42-2.55L326.2,77.73a7.67,7.67,0,0,1,6.86,0l2.79,1.62A7.53,7.53,0,0,1,339.16,84.3Z" style="fill:#fff;opacity:0.5"></path><polygon points="329.51 116.58 314.52 103.59 299.52 133.89 307.28 129.41 307.28 145.25 321.75 136.89 321.75 121.06 329.51 116.58" style="fill:#fff"></polygon></g><g id="freepik--Cloud--inject-17"><path d="M137.64,184.61a.27.27,0,0,0-.16-.23.91.91,0,0,0-.79,0,.29.29,0,0,0-.17.23h0v6.71h0a.27.27,0,0,0,.17.23.85.85,0,0,0,.79,0,.26.26,0,0,0,.16-.23h0v-6.71Z" style="fill:#BA68C8"></path><path d="M137.64,193.43a.26.26,0,0,0-.16-.23.85.85,0,0,0-.79,0,.27.27,0,0,0-.17.23h0v3.19h0a.29.29,0,0,0,.17.23.85.85,0,0,0,.79,0,.27.27,0,0,0,.16-.23h0v-3.19Z" style="fill:#BA68C8"></path><path d="M137.64,198.72a.29.29,0,0,0-.16-.23.91.91,0,0,0-.79,0,.3.3,0,0,0-.17.23h0v3.2h0a.3.3,0,0,0,.17.23.91.91,0,0,0,.79,0,.29.29,0,0,0,.16-.23h0v-3.2Z" style="fill:#BA68C8"></path><path d="M137.64,204a.29.29,0,0,0-.16-.23.91.91,0,0,0-.79,0,.3.3,0,0,0-.17.23h0v3.2h0a.27.27,0,0,0,.17.22.85.85,0,0,0,.79,0,.26.26,0,0,0,.16-.22h0V204Z" style="fill:#BA68C8"></path><path d="M137.64,209.32a.27.27,0,0,0-.16-.23.85.85,0,0,0-.79,0,.29.29,0,0,0-.17.23h0v3.19h0a.27.27,0,0,0,.17.23.85.85,0,0,0,.79,0,.26.26,0,0,0,.16-.23h0v-3.19Z" style="fill:#BA68C8"></path><path d="M137.64,214.62a.26.26,0,0,0-.16-.23.85.85,0,0,0-.79,0,.27.27,0,0,0-.17.23h0v3.19h0a.29.29,0,0,0,.17.23.91.91,0,0,0,.79,0,.27.27,0,0,0,.16-.23h0v-3.19Z" style="fill:#BA68C8"></path><path d="M137.64,219.91a.29.29,0,0,0-.16-.23.91.91,0,0,0-.79,0,.3.3,0,0,0-.17.23h0v3.2h0a.3.3,0,0,0,.17.23.91.91,0,0,0,.79,0,.29.29,0,0,0,.16-.23h0v-3.2Z" style="fill:#BA68C8"></path><path d="M137.64,225.21a.29.29,0,0,0-.16-.23.91.91,0,0,0-.79,0,.3.3,0,0,0-.17.23h0v3.19h0a.27.27,0,0,0,.17.23.85.85,0,0,0,.79,0,.26.26,0,0,0,.16-.23h0v-3.19Z" style="fill:#BA68C8"></path><path d="M137.64,230.51a.27.27,0,0,0-.16-.23.85.85,0,0,0-.79,0,.29.29,0,0,0-.17.23h0v3.19h0a.27.27,0,0,0,.17.23.85.85,0,0,0,.79,0,.26.26,0,0,0,.16-.23h0v-3.19Z" style="fill:#BA68C8"></path><path d="M137.64,235.81a.26.26,0,0,0-.16-.23.85.85,0,0,0-.79,0,.27.27,0,0,0-.17.23h0V239h0a.29.29,0,0,0,.17.23.91.91,0,0,0,.79,0,.27.27,0,0,0,.16-.23h0v-3.19Z" style="fill:#BA68C8"></path><path d="M137.64,241.1a.29.29,0,0,0-.16-.23.91.91,0,0,0-.79,0,.3.3,0,0,0-.17.23h0v3.2h0a.3.3,0,0,0,.17.23.91.91,0,0,0,.79,0,.29.29,0,0,0,.16-.23h0v-3.2Z" style="fill:#BA68C8"></path><path d="M137.64,246.4a.27.27,0,0,0-.16-.23.91.91,0,0,0-.79,0,.29.29,0,0,0-.17.23h0v3.19h0a.27.27,0,0,0,.17.23.85.85,0,0,0,.79,0,.26.26,0,0,0,.16-.23h0V246.4Z" style="fill:#BA68C8"></path><path d="M137.64,251.7a.27.27,0,0,0-.16-.23.85.85,0,0,0-.79,0,.29.29,0,0,0-.17.23h0v3.19h0a.27.27,0,0,0,.17.23.85.85,0,0,0,.79,0,.26.26,0,0,0,.16-.23h0V251.7Z" style="fill:#BA68C8"></path><path d="M140.65,177.41A1.77,1.77,0,0,0,139.6,176a5.53,5.53,0,0,0-5,0,1.76,1.76,0,0,0-1,1.45h0v9.38h0a1.76,1.76,0,0,0,1,1.46,5.59,5.59,0,0,0,5,0,1.77,1.77,0,0,0,1.05-1.46h0v-9.38Z" style="fill:#455a64"></path><path d="M142.83,168a2.83,2.83,0,0,0-1.69-2.34,8.94,8.94,0,0,0-8.12,0,2.84,2.84,0,0,0-1.68,2.34h0v9.22h0a2.77,2.77,0,0,0,1.66,2.51,9,9,0,0,0,8.12,0,2.74,2.74,0,0,0,1.66-2.51h0V168Z" style="fill:#37474f"></path><path d="M158,172.8a.3.3,0,0,0-.17-.23.91.91,0,0,0-.79,0,.29.29,0,0,0-.16.23h0v6.71h0a.26.26,0,0,0,.16.23.85.85,0,0,0,.79,0,.27.27,0,0,0,.17-.23h0V172.8Z" style="fill:#BA68C8"></path><path d="M158,181.62a.27.27,0,0,0-.17-.23.85.85,0,0,0-.79,0,.26.26,0,0,0-.16.23h0v3.19h0a.26.26,0,0,0,.16.23.85.85,0,0,0,.79,0,.27.27,0,0,0,.17-.23h0v-3.19Z" style="fill:#BA68C8"></path><path d="M158,186.92a.27.27,0,0,0-.17-.23.85.85,0,0,0-.79,0,.26.26,0,0,0-.16.23h0v3.19h0a.27.27,0,0,0,.16.23.91.91,0,0,0,.79,0,.29.29,0,0,0,.17-.23h0v-3.19Z" style="fill:#BA68C8"></path><path d="M158,192.21a.3.3,0,0,0-.17-.23.91.91,0,0,0-.79,0,.29.29,0,0,0-.16.23h0v3.2h0a.29.29,0,0,0,.16.23.91.91,0,0,0,.79,0,.3.3,0,0,0,.17-.23h0v-3.2Z" style="fill:#BA68C8"></path><path d="M158,197.51a.29.29,0,0,0-.17-.23.91.91,0,0,0-.79,0,.27.27,0,0,0-.16.23h0v3.19h0a.26.26,0,0,0,.16.23.85.85,0,0,0,.79,0,.27.27,0,0,0,.17-.23h0v-3.19Z" style="fill:#BA68C8"></path><path d="M158,202.81a.27.27,0,0,0-.17-.23.85.85,0,0,0-.79,0,.26.26,0,0,0-.16.23h0V206h0a.27.27,0,0,0,.16.23.85.85,0,0,0,.79,0A.29.29,0,0,0,158,206h0v-3.19Z" style="fill:#BA68C8"></path><path d="M158,208.1a.27.27,0,0,0-.17-.22.85.85,0,0,0-.79,0,.26.26,0,0,0-.16.22h0v3.2h0a.27.27,0,0,0,.16.23.91.91,0,0,0,.79,0,.29.29,0,0,0,.17-.23h0v-3.2Z" style="fill:#BA68C8"></path><path d="M158,213.4a.3.3,0,0,0-.17-.23.91.91,0,0,0-.79,0,.29.29,0,0,0-.16.23h0v3.2h0a.29.29,0,0,0,.16.23.91.91,0,0,0,.79,0,.3.3,0,0,0,.17-.23h0v-3.2Z" style="fill:#BA68C8"></path><path d="M158,218.7a.29.29,0,0,0-.17-.23.91.91,0,0,0-.79,0,.27.27,0,0,0-.16.23h0v3.19h0a.26.26,0,0,0,.16.23.85.85,0,0,0,.79,0,.27.27,0,0,0,.17-.23h0V218.7Z" style="fill:#BA68C8"></path><path d="M158,224a.27.27,0,0,0-.17-.23.85.85,0,0,0-.79,0,.26.26,0,0,0-.16.23h0v3.19h0a.27.27,0,0,0,.16.23.85.85,0,0,0,.79,0,.29.29,0,0,0,.17-.23h0V224Z" style="fill:#BA68C8"></path><path d="M158,229.29a.27.27,0,0,0-.17-.22.85.85,0,0,0-.79,0,.26.26,0,0,0-.16.22h0v3.2h0a.29.29,0,0,0,.16.23.91.91,0,0,0,.79,0,.3.3,0,0,0,.17-.23h0v-3.2Z" style="fill:#BA68C8"></path><path d="M158,234.59a.3.3,0,0,0-.17-.23.91.91,0,0,0-.79,0,.29.29,0,0,0-.16.23h0v3.2h0a.29.29,0,0,0,.16.23.91.91,0,0,0,.79,0,.3.3,0,0,0,.17-.23h0v-3.2Z" style="fill:#BA68C8"></path><path d="M158,239.89a.29.29,0,0,0-.17-.23.85.85,0,0,0-.79,0,.27.27,0,0,0-.16.23h0v3.19h0a.26.26,0,0,0,.16.23.85.85,0,0,0,.79,0,.27.27,0,0,0,.17-.23h0v-3.19Z" style="fill:#BA68C8"></path><path d="M161,165.6a1.78,1.78,0,0,0-1-1.45,5.59,5.59,0,0,0-5,0,1.77,1.77,0,0,0-1.05,1.45h0V175h0a1.77,1.77,0,0,0,1.05,1.45,5.59,5.59,0,0,0,5,0,1.78,1.78,0,0,0,1-1.45h0V165.6Z" style="fill:#455a64"></path><path d="M163.13,156.22a2.86,2.86,0,0,0-1.68-2.34,9,9,0,0,0-8.13,0,2.86,2.86,0,0,0-1.68,2.34h0v9.22h0a2.73,2.73,0,0,0,1.65,2.51,9,9,0,0,0,8.13,0,2.73,2.73,0,0,0,1.65-2.51h0v-9.22Z" style="fill:#37474f"></path><path d="M117.33,196.16a.27.27,0,0,0-.17-.23.85.85,0,0,0-.79,0,.26.26,0,0,0-.16.23h0v6.71h0a.29.29,0,0,0,.16.23.91.91,0,0,0,.79,0,.3.3,0,0,0,.17-.23h0v-6.71Z" style="fill:#BA68C8"></path><path d="M116.21,208.16h0a.26.26,0,0,0,.16.23.85.85,0,0,0,.79,0,.27.27,0,0,0,.17-.23h0V205h0a.29.29,0,0,0-.17-.23.91.91,0,0,0-.79,0,.27.27,0,0,0-.16.23h0" style="fill:#BA68C8"></path><path d="M117.33,210.27a.29.29,0,0,0-.17-.23.85.85,0,0,0-.79,0,.27.27,0,0,0-.16.23h0v3.19h0a.26.26,0,0,0,.16.23.85.85,0,0,0,.79,0,.27.27,0,0,0,.17-.23h0v-3.19Z" style="fill:#BA68C8"></path><path d="M117.33,215.57h0a.27.27,0,0,0-.17-.23.85.85,0,0,0-.79,0,.26.26,0,0,0-.16.23h0v3.19h0a.27.27,0,0,0,.16.23.91.91,0,0,0,.79,0,.29.29,0,0,0,.17-.23h0" style="fill:#BA68C8"></path><path d="M117.33,220.86a.3.3,0,0,0-.17-.23.91.91,0,0,0-.79,0,.29.29,0,0,0-.16.23h0v3.2h0a.29.29,0,0,0,.16.23.91.91,0,0,0,.79,0,.3.3,0,0,0,.17-.23h0v-3.2Z" style="fill:#BA68C8"></path><path d="M117.33,226.16h0a.29.29,0,0,0-.17-.23.91.91,0,0,0-.79,0,.27.27,0,0,0-.16.23h0v3.19h0a.26.26,0,0,0,.16.23.85.85,0,0,0,.79,0,.27.27,0,0,0,.17-.23h0" style="fill:#BA68C8"></path><path d="M117.33,231.46a.29.29,0,0,0-.17-.23.85.85,0,0,0-.79,0,.27.27,0,0,0-.16.23h0v3.19h0a.27.27,0,0,0,.16.23.85.85,0,0,0,.79,0,.29.29,0,0,0,.17-.23h0v-3.19Z" style="fill:#BA68C8"></path><path d="M117.33,236.76h0a.27.27,0,0,0-.17-.23.85.85,0,0,0-.79,0,.26.26,0,0,0-.16.23h0V240h0a.27.27,0,0,0,.16.23.91.91,0,0,0,.79,0,.29.29,0,0,0,.17-.23h0" style="fill:#BA68C8"></path><path d="M117.33,242.05a.3.3,0,0,0-.17-.23.91.91,0,0,0-.79,0,.29.29,0,0,0-.16.23h0v3.2h0a.29.29,0,0,0,.16.23.91.91,0,0,0,.79,0,.3.3,0,0,0,.17-.23h0v-3.2Z" style="fill:#BA68C8"></path><path d="M117.33,247.35h0a.29.29,0,0,0-.17-.23.91.91,0,0,0-.79,0,.27.27,0,0,0-.16.23h0v3.19h0a.26.26,0,0,0,.16.23.85.85,0,0,0,.79,0,.27.27,0,0,0,.17-.23h0" style="fill:#BA68C8"></path><path d="M117.33,252.65a.27.27,0,0,0-.17-.23.85.85,0,0,0-.79,0,.26.26,0,0,0-.16.23h0v3.19h0a.27.27,0,0,0,.16.23.85.85,0,0,0,.79,0,.29.29,0,0,0,.17-.23h0v-3.19Z" style="fill:#BA68C8"></path><path d="M117.33,258h0a.27.27,0,0,0-.17-.23.85.85,0,0,0-.79,0,.26.26,0,0,0-.16.23h0v3.19h0a.27.27,0,0,0,.16.23.91.91,0,0,0,.79,0,.29.29,0,0,0,.17-.23h0" style="fill:#BA68C8"></path><path d="M117.33,263.24a.3.3,0,0,0-.17-.23.91.91,0,0,0-.79,0,.29.29,0,0,0-.16.23h0v3.2h0a.29.29,0,0,0,.16.23.91.91,0,0,0,.79,0,.3.3,0,0,0,.17-.23h0v-3.2Z" style="fill:#BA68C8"></path><path d="M120.33,189a1.78,1.78,0,0,0-1-1.46,5.59,5.59,0,0,0-5,0,1.77,1.77,0,0,0-1,1.46h0v9.38h0a1.76,1.76,0,0,0,1,1.45,5.53,5.53,0,0,0,5,0,1.76,1.76,0,0,0,1-1.45h0V189Z" style="fill:#455a64"></path><path d="M122.51,179.58a2.86,2.86,0,0,0-1.68-2.35,9,9,0,0,0-8.13,0,2.86,2.86,0,0,0-1.68,2.35h0v9.22h0a2.73,2.73,0,0,0,1.65,2.5,9,9,0,0,0,8.13,0,2.73,2.73,0,0,0,1.65-2.5h0v-9.22Z" style="fill:#37474f"></path><g id="freepik--cloud--inject-17"><path d="M215.38,92.3v0l-.46-.26-.28-.16L204.59,86c0-.23,0-.47,0-.7,0-12.37-4.16-21-10.72-24.67h0L174.54,49.48v0c-5.32-3.06-12.26-2.78-19.85,1.6a45.51,45.51,0,0,0-9.57,7.6,19.94,19.94,0,0,0-4.19-3.32h0L122.23,44.61v0c-6.85-4.54-16-4.45-26.1,1.38C75,58.24,57.77,91.06,57.77,119.31a59.7,59.7,0,0,0,.71,9.35l-2.64,1.53C42.36,138,31.43,158.85,31.43,176.82h0c0,9.92,3.34,17,8.59,20h0L59.6,208.17h0c4.25,2.43,9.75,2.24,15.77-1.23l35.49-20.49,94.55-54.59c8.09-4.67,14.65-17.2,14.65-28h0C220.06,98.23,218.25,94.21,215.38,92.3Z" style="fill:#BA68C8;opacity:0.8"></path><path d="M215.38,92.3v0l-.46-.26-.28-.16L204.59,86c0-.23,0-.47,0-.7,0-12.37-4.16-21-10.72-24.67h0L174.54,49.48v0c-5.32-3.06-12.26-2.78-19.85,1.6a45.51,45.51,0,0,0-9.57,7.6,19.94,19.94,0,0,0-4.19-3.32h0L122.23,44.61v0c-6.85-4.54-16-4.45-26.1,1.38C75,58.24,57.77,91.06,57.77,119.31a59.7,59.7,0,0,0,.71,9.35l-2.64,1.53C42.36,138,31.43,158.85,31.43,176.82h0c0,9.92,3.34,17,8.59,20h0L59.6,208.17h0c4.25,2.43,9.75,2.24,15.77-1.23l35.49-20.49,94.55-54.59c8.09-4.67,14.65-17.2,14.65-28h0C220.06,98.23,218.25,94.21,215.38,92.3Z" style="fill:#fff;opacity:0.2"></path><path d="M193.9,60.66h0c-5.29-2.95-12.16-2.61-19.65,1.72a46.11,46.11,0,0,0-10,8.07L146.44,60.14l-1.74-1,.43-.44a45.78,45.78,0,0,1,9.57-7.59c7.59-4.38,14.53-4.66,19.85-1.6v0Z" style="fill:#fff;opacity:0.35000000000000003"></path><path d="M145.13,58.69c.46.46.89.94,1.31,1.45l-1.74-1Z" style="fill:#fff;opacity:0.8"></path><path d="M140.47,55.1h0c-6.68-3.72-15.34-3.29-24.8,2.17s-18.4,15.34-25.13,27L71,73c6.73-11.68,15.51-21.47,25.12-27,10.09-5.82,19.26-5.91,26.11-1.37v0Z" style="fill:#fff;opacity:0.35000000000000003"></path><path d="M78,139.94l-2.65,1.52c-9.13,5.27-17.1,16.57-21.27,28.9L34.56,159.08c3.33-9.83,9.07-19,15.89-25l8-5.44Z" style="fill:#fff;opacity:0.35000000000000003"></path><path d="M205.41,92.81l-1.4.81a61.47,61.47,0,0,0,.59-8.28c0-22.36-13.6-32.64-30.37-23-7.77,4.49-14.87,12.49-20.24,22-.76-26.92-17.62-39.06-38.32-27.1-21.19,12.23-38.37,45-38.37,73.29a59.73,59.73,0,0,0,.71,9.36l-2.64,1.52C61.89,149.25,51,170.12,51,188.1h0c0,18,10.93,26.62,24.41,18.84l35.49-20.49h0l94.55-54.59c8.09-4.67,14.65-17.2,14.65-28h0C220.06,93.1,213.5,88.14,205.41,92.81Z" style="fill:#BA68C8"></path><path d="M205.41,92.81l-1.4.81a61.47,61.47,0,0,0,.59-8.28c0-22.36-13.6-32.64-30.37-23-7.77,4.49-14.87,12.49-20.24,22-.76-26.92-17.62-39.06-38.32-27.1-21.19,12.23-38.37,45-38.37,73.29a59.73,59.73,0,0,0,.71,9.36l-2.64,1.52C61.89,149.25,51,170.12,51,188.1h0c0,18,10.93,26.62,24.41,18.84l35.49-20.49h0l94.55-54.59c8.09-4.67,14.65-17.2,14.65-28h0C220.06,93.1,213.5,88.14,205.41,92.81Z" style="fill:#fff;opacity:0.7000000000000001"></path><path d="M65.86,204.81c-6,0-9.9-6.56-9.9-16.71,0-16.08,10-35.45,21.91-42.31l2.64-1.52A5,5,0,0,0,83,139.16h0a54.82,54.82,0,0,1-.65-8.58c0-26.61,16.09-57.55,35.86-69,4.52-2.61,8.81-3.94,12.73-3.94,10.7,0,17.64,10.29,18.1,26.85h0a5,5,0,0,0,9.35,2.32h0c5.15-9.11,11.68-16.26,18.39-20.14a19.48,19.48,0,0,1,9.56-3c8.08,0,13.31,8.48,13.31,21.6a56,56,0,0,1-.54,7.6h0a5,5,0,0,0,7.45,5l1.4-.81a7,7,0,0,1,3.32-1.09c2.64,0,3.83,3.93,3.83,7.83,0,9-5.57,19.85-12.15,23.65l-130,75.08a14.31,14.31,0,0,1-7,2.2Z" style="fill:#fff;opacity:0.7000000000000001"></path></g></g></svg>