<svg xmlns="http://www.w3.org/2000/svg" viewBox="0 0 500 500"><g id="freepik--Floor--inject-7"><ellipse id="freepik--floor--inject-7" cx="250" cy="342.94" rx="230.29" ry="132.96" style="fill:#f5f5f5"></ellipse></g><g id="freepik--Shadows--inject-7"><path id="freepik--Shadow--inject-7" d="M451.5,324.25,320.66,399.82a4.47,4.47,0,0,1-4.06,0l-218.19-126a1.24,1.24,0,0,1,0-2.35l130.84-75.57a4.47,4.47,0,0,1,4.06,0l218.19,126A1.24,1.24,0,0,1,451.5,324.25Z" style="fill:#e6e6e6"></path><ellipse id="freepik--shadow--inject-7" cx="166.81" cy="399.06" rx="81.41" ry="47" style="fill:#e6e6e6"></ellipse><ellipse id="freepik--shadow--inject-7" cx="249.45" cy="354.22" rx="58.96" ry="34.04" style="fill:#e6e6e6"></ellipse></g><g id="freepik--Plants--inject-7"><g id="freepik--plants--inject-7"><path d="M421.42,291s2-16.37,10.33-29,19.57-20.45,30-21.16,18.8,9,7.55,15.47-31.2,13-40.6,37.61Z" style="fill:#BA68C8"></path><g style="opacity:0.30000000000000004"><path d="M421.42,291s2-16.37,10.33-29,19.57-20.45,30-21.16,18.8,9,7.55,15.47-31.2,13-40.6,37.61Z"></path></g><path d="M424.53,286.73l-.11,0a.56.56,0,0,1-.3-.73c11.32-27,32.44-38.16,42-40.26a.56.56,0,1,1,.24,1.1c-9.39,2-30.09,13-41.23,39.59A.56.56,0,0,1,424.53,286.73Z" style="fill:#fff"></path><path d="M482.39,278.73c-.89,2-3.09,3.06-5.13,3.88s-4.27,1.71-5.37,3.61c-2.23,3.84,1.42,9.25-1,13a6.9,6.9,0,0,1-4.71,2.72,44.34,44.34,0,0,1-4.61.41,17.65,17.65,0,0,1-2.2-.17,10,10,0,0,0-6.36.68c-3.06,1.72-4,5.57-5.85,8.55a14.51,14.51,0,0,1-10.29,6.45c-2.43.32-4.72,1-6.43-1.26a12,12,0,0,1-1.6-3.7l-4.85-16c-.63-2.07-1.23-4.4-.2-6.3.74-1.38,2.19-2.2,3.5-3.06a29.45,29.45,0,0,0,6.85-6.33c1.85-2.36,2.73-5.18,4.41-7.53,3.24-4.51,9.05-7.64,14.65-6.7,3.22.54,6.37,2.35,9.69,2.2s6.4-1,9.7-.78,7,1.7,8.93,4.66A6.09,6.09,0,0,1,482.39,278.73Z" style="fill:#BA68C8"></path><g style="opacity:0.1"><path d="M482.39,278.73c-.89,2-3.09,3.06-5.13,3.88s-4.27,1.71-5.37,3.61c-2.23,3.84,1.42,9.25-1,13a6.9,6.9,0,0,1-4.71,2.72,44.34,44.34,0,0,1-4.61.41,17.65,17.65,0,0,1-2.2-.17,10,10,0,0,0-6.36.68c-3.06,1.72-4,5.57-5.85,8.55a14.51,14.51,0,0,1-10.29,6.45c-2.43.32-4.72,1-6.43-1.26a12,12,0,0,1-1.6-3.7l-4.85-16c-.63-2.07-1.23-4.4-.2-6.3.74-1.38,2.19-2.2,3.5-3.06a29.45,29.45,0,0,0,6.85-6.33c1.85-2.36,2.73-5.18,4.41-7.53,3.24-4.51,9.05-7.64,14.65-6.7,3.22.54,6.37,2.35,9.69,2.2s6.4-1,9.7-.78,7,1.7,8.93,4.66A6.09,6.09,0,0,1,482.39,278.73Z"></path></g><path d="M430.2,307.41h0a.5.5,0,0,1-.35-.61c8-30.1,39.76-34.45,47.18-33.91a.5.5,0,0,1-.07,1c-7.26-.53-38.29,3.72-46.15,33.18A.5.5,0,0,1,430.2,307.41Z" style="fill:#fff"></path><path d="M465.45,292.16a.55.55,0,0,1-.26-.14,26.38,26.38,0,0,0-21.59-6.09.49.49,0,0,1-.56-.41.51.51,0,0,1,.42-.57,27.39,27.39,0,0,1,22.43,6.37.5.5,0,0,1-.44.84Z" style="fill:#fff"></path></g></g><g id="freepik--Desk--inject-7"><g id="freepik--desk--inject-7"><g id="freepik--Table--inject-7"><path d="M328.63,290.22v86.14a2.5,2.5,0,0,1-1.11,1.94l-2.38,1.37a2.5,2.5,0,0,1-2.23,0l-2.38-1.37a2.5,2.5,0,0,1-1.11-1.94V290.22c0-.71.5-1,1.11-.64l2.38,1.37a2.5,2.5,0,0,0,2.23,0l2.38-1.37C328.13,289.22,328.63,289.51,328.63,290.22Z" style="fill:#37474f"></path><path d="M322.91,379.67l-2.38-1.37a2.5,2.5,0,0,1-1.11-1.94V290.22c0-.71.5-1,1.11-.64l2.38,1.37a2.47,2.47,0,0,1,1.11,1.93V379C324,379.73,323.52,380,322.91,379.67Z" style="fill:#455a64"></path><path d="M429.91,231.72v86.13a2.47,2.47,0,0,1-1.12,1.94l-2.37,1.37a2.46,2.46,0,0,1-2.24,0l-2.37-1.37a2.47,2.47,0,0,1-1.12-1.94V231.72c0-.72.5-1,1.12-.65l2.37,1.37a2.46,2.46,0,0,0,2.24,0l2.37-1.37C429.41,230.71,429.91,231,429.91,231.72Z" style="fill:#37474f"></path><path d="M424.18,321.16l-2.37-1.37a2.47,2.47,0,0,1-1.12-1.94V231.72c0-.72.5-1,1.12-.65l2.37,1.37a2.47,2.47,0,0,1,1.12,1.94v86.14C425.3,321.23,424.8,321.52,424.18,321.16Z" style="fill:#455a64"></path><path d="M152.65,188.56V274.7a2.47,2.47,0,0,1-1.11,1.93L149.16,278a2.44,2.44,0,0,1-2.23,0l-2.38-1.37a2.45,2.45,0,0,1-1.12-1.93V188.56c0-.71.5-1,1.12-.65l2.38,1.37a2.44,2.44,0,0,0,2.23,0l2.38-1.37C152.15,187.56,152.65,187.85,152.65,188.56Z" style="fill:#37474f"></path><path d="M146.93,278l-2.38-1.37a2.45,2.45,0,0,1-1.12-1.93V188.56c0-.71.5-1,1.12-.65l2.38,1.37a2.5,2.5,0,0,1,1.11,1.94v86.14C148,278.07,147.54,278.36,146.93,278Z" style="fill:#455a64"></path><g id="freepik--desk--inject-7"><path d="M452,239.59v-.81a4.46,4.46,0,0,0-2-3.52l-218.18-126a4.49,4.49,0,0,0-4.07,0L117.79,172.74a4.51,4.51,0,0,0-2,3.52v.81a4.51,4.51,0,0,0,2,3.53L336,306.56a4.47,4.47,0,0,0,4.06,0l109.87-63.45A4.49,4.49,0,0,0,452,239.59Z" style="fill:#37474f"></path><path d="M338,301.55v5.51a4.29,4.29,0,0,0,2-.49l109.87-63.46a4.47,4.47,0,0,0,2-3.52v-.81a4.52,4.52,0,0,0-1.65-3.26c.73.63.61,1.51-.38,2.09L340,301.06A4.07,4.07,0,0,1,338,301.55Z" style="fill:#BA68C8"></path><path d="M338,301.55v5.51a4.29,4.29,0,0,0,2-.49l109.87-63.46a4.47,4.47,0,0,0,2-3.52v-.81a4.52,4.52,0,0,0-1.65-3.26c.73.63.61,1.51-.38,2.09L340,301.06A4.07,4.07,0,0,1,338,301.55Z" style="fill:#263238"></path><path d="M449.91,237.6,340,301.06a4.47,4.47,0,0,1-4.06,0l-218.19-126a1.24,1.24,0,0,1,0-2.35l109.87-63.45a4.49,4.49,0,0,1,4.07,0l218.18,126A1.23,1.23,0,0,1,449.91,237.6Z" style="fill:#455a64"></path></g></g><g id="freepik--Keyboard--inject-7"><path id="freepik--shadow--inject-7" d="M280.88,194.13l-20.71,12a2.56,2.56,0,0,1-2.32,0l-61.18-35.28a.71.71,0,0,1,0-1.34l20.71-12a2.56,2.56,0,0,1,2.32,0l61.18,35.27A.71.71,0,0,1,280.88,194.13Z" style="opacity:0.15"></path><g id="freepik--keyboard--inject-7"><path d="M197.92,167.38a.83.83,0,0,1,.48-.67l19.46-11.23a2.56,2.56,0,0,1,2.32,0l59.37,34.33a.83.83,0,0,1,.48.67v2a.8.8,0,0,1-.48.67L260.1,204.42a2.56,2.56,0,0,1-2.32,0L198.4,170.15a.87.87,0,0,1-.48-.67Z" style="fill:#ebebeb"></path><path d="M260.1,202.33l19.45-11.18c.64-.37.64-1,0-1.34l-59.37-34.33a2.56,2.56,0,0,0-2.32,0L198.4,166.71a.71.71,0,0,0,0,1.34l59.38,34.28A2.56,2.56,0,0,0,260.1,202.33Z" style="fill:#fff"></path><path d="M259,202.61v2.08a2.25,2.25,0,0,0,1.09-.26l19.44-11.23a.82.82,0,0,0,.49-.67v-2.05a.82.82,0,0,1-.49.67L260.1,202.34A2.37,2.37,0,0,1,259,202.61Z" style="fill:#e0e0e0"></path><path d="M201.53,167.53v0l1.93-1.11,2.61,1.5-1.94,1.15-2.61-1.5Zm3-1.74v0l1.93-1.11,2.05,1.18L206.59,167l-2.05-1.18Zm.64,3.85v0l1.93-1.12,2,1.19-1.94,1.15-2-1.19Zm2.38-5.59s0,0,0,0l1.92-1.11,3.32,1.91L210.87,166l-3.31-1.91Zm.07,3.53a0,0,0,0,1,0,0l1.93-1.11,1.63.94-1.94,1.15-1.63-.94Zm.63,3.84,0,0,1.92-1.11,2.06,1.18-1.94,1.15-2-1.18Zm2-2.3a0,0,0,0,1,0,0l1.93-1.11,1.62.94-1.93,1.15-1.63-.94Zm.27-6.81v0l1.93-1.11,2.61,1.5-1.94,1.15-2.61-1.5Zm.78,10.9s0,0,0,0l1.92-1.11,14.83,8.56-1.94,1.15-14.82-8.56Zm.56-6.65v0l1.93-1.11,1.63.94-1.94,1.15-1.63-.94Zm1.05,4.1s0,0,0,0l1.92-1.11,1.63.94-1.94,1.15-1.62-.94Zm.63-10.09s0,0,0,0l1.92-1.12,1.63.95-1.93,1.15-1.63-.94Zm.63,3.85s0,0,0,0l1.93-1.11,1.63.94-1.94,1.15-1.63-.94Zm.35,3.68,0,0,1.92-1.11,1.63.94-1.94,1.15-1.62-.94Zm1.06,4.1a0,0,0,0,1,0,0l1.93-1.11,1.63.94-1.94,1.15-1.63-.94Zm.62-10.09a0,0,0,0,1,0,0l1.92-1.12,1.63.95-1.94,1.15-1.62-.94Zm.64,3.85s0,0,0,0l1.93-1.11,1.63.94-1.94,1.15-1.63-.94Zm.35,3.68,0,0,1.92-1.11,1.63.94-1.94,1.15-1.63-.94Zm0-11.18s0,0,0,0l1.92-1.11,2,1.19-1.94,1.15-2-1.19Zm1.06,15.27v0l1.93-1.11,1.63.94-1.94,1.15-1.63-.94Zm.62-10.08a0,0,0,0,1,0,0l1.93-1.12,1.63,1-1.94,1.14-1.63-.93Zm.63,3.85,0,0,1.92-1.11,1.63.94-1.94,1.15-1.62-.94Zm.36,3.68a0,0,0,0,1,0,0l1.93-1.11,1.63.94-1.94,1.15-1.63-.94Zm1.06,4.09s0,0,0,0l1.92-1.11,1.63.94-1.93,1.15-1.63-.94Zm.52-14.36v0l1.93-1.11,1.63.94-1.94,1.15-1.63-.94Zm.09,4.28,0,0,1.92-1.12,1.63.95-1.93,1.15-1.63-.94Zm.64,3.85s0,0,0,0l1.93-1.11,1.63.94L223.85,170l-1.63-.94Zm.35,3.68,0,0,1.92-1.11,1.63.94-1.93,1.15-1.63-.94Zm1.06,4.1s0,0,0,0l1.92-1.11,1.63.94-1.94,1.15-1.62-.94Zm.53-14.37v0l1.93-1.11,1.63.94-1.94,1.15-1.63-.94Zm.09,4.28a0,0,0,0,1,0,0l1.92-1.12,1.63.95-1.94,1.15-1.62-.94Zm.64,3.85s0,0,0,0l1.93-1.11,1.63.94-1.94,1.15-1.63-.94Zm.35,3.68,0,0,1.92-1.11,1.63.94-1.94,1.15-1.62-.94Zm1.06,4.09v0l1.93-1.11,1.63.94-1.94,1.15-1.63-.94Zm.53-14.36s0,0,0,0l1.92-1.11,1.63.94L228.46,165l-1.63-.94Zm.09,4.28a0,0,0,0,1,0,0l1.93-1.12,1.63,1-1.94,1.14-1.63-.94Zm.3,14.09s0,0,0,0l1.92-1.11,2,1.18-1.93,1.15-2.05-1.18Zm.34-10.24a0,0,0,0,1,0,0l1.92-1.11,1.63.94-1.93,1.15-1.63-.94Zm.35,3.68a0,0,0,0,1,0,0l1.93-1.11,1.63.94-1.94,1.15-1.63-.94Zm1.06,4.09v0l1.93-1.11,1.62.94-1.93,1.15-1.63-.94Zm.52-14.36,0,0,1.92-1.11,1.63.94-1.94,1.15-1.62-.94Zm.1,4.28v0l1.93-1.11,1.63,1-1.94,1.14-1.63-.94Zm.63,3.85,0,0,1.92-1.11,1.63.94-1.94,1.15-1.62-.94Zm.08,10.49s0,0,0,0l1.92-1.11,2,1.18-1.93,1.15-2.05-1.18Zm.28-6.81v0l1.93-1.11,1.63.94-1.94,1.15-1.63-.94Zm1,4.09a0,0,0,0,1,0,0l1.92-1.11,1.63.94-1.94,1.15-1.62-.94Zm.62-10.08a0,0,0,0,1,0,0l1.92-1.12,1.63.94-1.94,1.15-1.62-.94Zm.64,3.85s0,0,0,0l1.93-1.11,1.63.94-1.94,1.15-1.63-.94Zm.35,3.68,0,0,1.92-1.11,1.63.94-1.94,1.15-1.62-.94Zm.08-11.14a0,0,0,0,1,0,0l1.93-1.12,1.63,1L235,168.7l-1.63-.94Zm.07,18.19s0,0,0,0l1.93-1.11,2,1.19-1.94,1.15-2.05-1.19Zm.91-3v0l1.93-1.11,1.63.94-1.94,1.15L234.3,183Zm.62-10.08,0,0,1.92-1.11,1.63.94-1.94,1.15-1.63-.94Zm.64,3.85s0,0,0,0l1.92-1.11,1.64.94-1.94,1.15-1.63-.94Zm.35,3.68v0l1.93-1.11,1.63.94-1.94,1.15-1.63-.94Zm.08-11.14v0l1.93-1.12,1.63,1-1.94,1.15L236,169.3Zm.49,18.43a0,0,0,0,1,0,0l1.93-1.11,2.61,1.5-1.94,1.15-2.61-1.5Zm.49-3.2v0l1.93-1.11,5.14,3-1.94,1.15-5.14-3Zm.62-10.08s0,0,0,0l1.93-1.11,1.63.94-1.94,1.15-1.63-.94Zm.63,3.85s0,0,0,0l1.92-1.11,1.63.94-1.94,1.15-1.62-.94Zm.36,3.68a0,0,0,0,1,0,0l1.93-1.11,1.63.94-1.94,1.15-1.63-.94Zm.07-11.14,0,0,1.92-1.12,1.63.95-1.94,1.14-1.62-.93Zm1.6,5.15,0,0,1.92-1.11,1.63.94-1.94,1.15-1.62-.94Zm.44,14.17v0l1.93-1.11,1.63.94-1.94,1.15-1.63-.94Zm.2-10.32a0,0,0,0,1,0,0l1.93-1.11,1.63.94-1.94,1.15-1.63-.94Zm.35,3.68a0,0,0,0,1,0,0l1.92-1.11,1.49.86a1.29,1.29,0,0,0,1,0l2.52-1.46,1.91,1.1-4.95,2.89-3.87-2.23Zm.08-11.14a0,0,0,0,1,0,0l1.93-1.12,1.63.95L243,173.31l-1.63-.94Zm1.6,5.15s0,0,0,0l1.93-1.11,1.63.94-1.94,1.15-1.62-.94Zm.44,14.17a0,0,0,0,1,0,0l1.93-1.11,1.63.94L245,192.64l-1.63-.94Zm.2-10.32a0,0,0,0,1,0,0l1.93-1.11,1.63.94-1.94,1.15-1.63-.94Zm1.59-6.79v0l1.93-1.12,1.63.95-1.94,1.14-1.63-.94Zm.44,4.48s0,0,0,0l1.93-1.11,1.63.94L247.22,180l-1.63-.94Zm.43,14.17,0,0,1.92-1.11,1.63.94-1.94,1.15-1.62-.94Zm.35-3.28v0l1.93-1.11,1.63.94L248,190.9l-1.63-.94Zm1.45-13.83s0,0,0,0l1.92-1.12,1.63.94-1.93,1.15-1.63-.93Zm.44,4.48a0,0,0,0,1,0,0l1.92-1.11,2.9,1.67-1.94,1.15-2.89-1.67Zm1,14.5s0,0,0,0l1.92-1.11,4.3,2.48-1.94,1.15-4.29-2.48Zm.48-10.17,0,0,1.92-1.11,1.63.94-1.93,1.15-1.63-.94Zm.75-7.27a0,0,0,0,1,0,0l1.92-1.12,1.63.94-1.94,1.15-1.62-.94Zm1.79,15.7a0,0,0,0,1,0,0l1.93-1.11,1.63.94-1.94,1.15-1.63-.94Zm.13-6.89a0,0,0,0,1,0,0l1.93-1.11,1.63.94L254,187.42l-1.63-.94Zm.35-3.28a0,0,0,0,1,0,0l1.93-1.11,1.63.94-1.94,1.15-1.63-.94Zm.4-4v0l1.93-1.12,1.63.94-1.94,1.15-1.63-.94Zm1.44,19a0,0,0,0,1,0,0l1.93-1.11,1.63.94-1.94,1.15-1.63-.94Zm.34-3.28s0,0,0,0l1.92-1.11,1.63.94-1.94,1.15-1.62-.94Zm.14-6.89v0l1.93-1.11,1.63.94L256.7,189l-1.63-.94Zm.21,3.61s0,0,0,0l1.92-1.11,1.63.94-1.94,1.15-1.63-.94Zm.14-6.89s0,0,0,0l1.92-1.11,1.63.94-1.93,1.15-1.63-.94Zm1-3.65v0l1.92-1.12,1.64.94L258,182l-1.63-.94Zm.84,18.64s0,0,0,0l4.94-2.85,1.63.94-4.95,2.89-1.63-.94Zm.35-3.28s0,0,0,0l1.92-1.11,1.63.94-1.94,1.15-1.63-.94Zm.35-3.28a0,0,0,0,1,0,0l1.93-1.11,1.63.94-1.94,1.15-1.63-.94Zm.13-6.89a0,0,0,0,1,0,0l1.92-1.11,1.63.94-1.94,1.15-1.62-.94Zm.22,3.61s0,0,0,0l1.93-1.11,1.62.94-1.93,1.15-1.63-.94Zm.77-7.26a0,0,0,0,1,0,0l1.92-1.12,1.63.94-1.94,1.15-1.62-.94Zm1.55,12.08a0,0,0,0,1,0,0l1.92-1.11,1.63.94-1.93,1.15-1.63-.94Zm.34-3.28s0,0,0,0l1.92-1.11,1.63.94-1.94,1.15-1.62-.94Zm.35-3.28a0,0,0,0,1,0,0l1.93-1.11,1.63.94-1.94,1.15-1.63-.94Zm.43-4a0,0,0,0,1,0,0l1.93-1.12,1.63.94-1.94,1.15-1.63-.94Zm1.54,12.08s0,0,0,0l4.94-2.85,1.63.94-4.95,2.89-1.63-.94Zm.35-3.28a0,0,0,0,1,0,0l1.93-1.11,1.63.94-1.94,1.15-1.63-.94Zm.35-3.28a0,0,0,0,1,0,0l1.93-1.11,1.63.94-1.94,1.15-1.63-.94Zm1.76-4.1s0,0,0,0l.81-.48,1.63.94-.83.52-1.62-.94Zm.9,5.64s0,0,0,0l1.92-1.11,1.63.94-1.94,1.15-1.62-.94Zm1.77-4.1a0,0,0,0,1,0,0l.82-.48,1.63.94-.84.52-1.62-.94Zm.9,5.64a0,0,0,0,1,0,0l1.93-1.11,1.63.94-1.94,1.15-1.62-.94Zm1.77-4.1a0,0,0,0,1,0,0l.82-.48,1.63.94-.84.52-1.62-.94Zm2.66,1.54s0,0,0,0l.82-.48,1.63.94-.84.52-1.62-.94Z" style="fill:#455a64"></path></g></g><g id="freepik--PC--inject-7"><polygon id="freepik--shadow--inject-7" points="363.7 213.03 384.65 200.93 279.88 140.44 258.93 152.54 363.7 213.03" style="opacity:0.15"></polygon><g id="freepik--Monitor--inject-7"><path d="M304.37,193.33l-15-8.65a3.91,3.91,0,0,1-2.31-3.22c0-1.17,0-2.08,0-2.08l14.08-8a3.31,3.31,0,0,0,1.49-2.58V150.37l26.12,15.09v18.45a3.31,3.31,0,0,1-1.49,2.58l-11.76,6.84A12.35,12.35,0,0,1,304.37,193.33Z" style="fill:#e6e6e6"></path><path d="M322.51,187.17v2.08l4.79-2.76a3.31,3.31,0,0,0,1.49-2.58V165.47l-5-2.88c-.1,1.27-.21,2.57-.32,3.85l3.49,2v14.41a3.3,3.3,0,0,1-1.48,2.58Z" style="fill:#e0e0e0"></path><path d="M327,182.87a3.28,3.28,0,0,1-1.49,2.58l-9.95,5.8a12.35,12.35,0,0,1-11.17,0l-15-8.65c-3.08-1.78-3.08-4.66,0-6.44l10-5.81a3.28,3.28,0,0,0,1.48-2.58V153.36L327,168.46Z" style="fill:#f5f5f5"></path><path d="M296.33,172.1h0l3-1.75a3.28,3.28,0,0,0,1.48-2.58V153.36L327,168.46v14.41a3.28,3.28,0,0,1-1.49,2.58l-3,1.72Z" style="fill:#ebebeb"></path><path d="M287.09,179.38v2.08c0,1.17.78,2.33,2.32,3.22l15,8.65a11.13,11.13,0,0,0,5.33,1.32v-2.07a11.13,11.13,0,0,1-5.33-1.32l-15-8.66A3.92,3.92,0,0,1,287.09,179.38Z" style="fill:#ebebeb"></path><path d="M368.94,202.77a4,4,0,0,1-3.61-.07L264.28,144.36a4.11,4.11,0,0,1-1.86-3.22V52.69a3.5,3.5,0,0,1,5.35-3.09l101.05,58.34a4.11,4.11,0,0,1,1.86,3.22v88.45A4,4,0,0,1,368.94,202.77Z" style="fill:#455a64"></path><path d="M365.33,202.7,264.28,144.36a4.11,4.11,0,0,1-1.86-3.22V52.69c0-1.19.83-1.67,1.86-1.07L365.33,110a4.15,4.15,0,0,1,1.86,3.23v88.44C367.19,202.81,366.36,203.29,365.33,202.7Z" style="fill:#BA68C8"></path><path d="M365.33,202.7,264.28,144.36a4.11,4.11,0,0,1-1.86-3.22V52.69c0-1.19.83-1.67,1.86-1.07L365.33,110a4.15,4.15,0,0,1,1.86,3.23v88.44C367.19,202.81,366.36,203.29,365.33,202.7Z" style="fill:#37474f"></path><path d="M365.6,203.07a3.48,3.48,0,0,0,5.08-3.24v-9.94l-3.49,2v9.94C367.19,202.94,366.5,203.43,365.6,203.07Z" style="fill:#e0e0e0"></path><path d="M367.19,191.9v9.95c0,1.19-.83,1.67-1.86,1.08L264.28,144.59a4.12,4.12,0,0,1-1.86-3.23v-9.94Z" style="fill:#fff"></path><path d="M363.7,184.34v-70a2.47,2.47,0,0,0-1.12-1.94L267,57.24c-.62-.36-1.12-.07-1.12.64v70a2.47,2.47,0,0,0,1.12,1.94L362.58,185C363.2,185.34,363.7,185.05,363.7,184.34Z" style="fill:#BA68C8"></path><path d="M363.7,184.34v-70a2.47,2.47,0,0,0-1.12-1.94L267,57.24c-.62-.36-1.12-.07-1.12.64v70a2.47,2.47,0,0,0,1.12,1.94L362.58,185C363.2,185.34,363.7,185.05,363.7,184.34Z" style="fill:#fff;opacity:0.5"></path><path d="M358.05,113.76,273,64.64c-.61-.36-1.11-.07-1.11.64v62a2.48,2.48,0,0,0,1.11,1.93l85.08,49.12c.61.35,1.11.06,1.11-.65V115.69A2.47,2.47,0,0,0,358.05,113.76Z" style="fill:#455a64"></path><path d="M281.78,79.83v39a.23.23,0,0,1-.37.21l-6.24-3.6a.82.82,0,0,1-.37-.65V75.8c0-.24.16-.33.37-.21l6.24,3.6A.84.84,0,0,1,281.78,79.83Z" style="fill:#263238"></path><path d="M280.91,80.75l-2.06-1.19a.17.17,0,0,0-.28.16V82.1a.64.64,0,0,0,.28.49l2.06,1.19c.16.08.28,0,.28-.17V81.24A.61.61,0,0,0,280.91,80.75Z" style="fill:#37474f"></path><path d="M277.73,78.91l-2.06-1.19c-.16-.09-.28,0-.28.16v2.38a.61.61,0,0,0,.28.49l2.06,1.19a.17.17,0,0,0,.28-.16V79.4A.64.64,0,0,0,277.73,78.91Z" style="fill:#37474f"></path><path d="M280.91,84.36l-2.06-1.19c-.15-.09-.28,0-.28.16v2.38a.64.64,0,0,0,.28.49l2.06,1.19c.16.08.28,0,.28-.17V84.84A.61.61,0,0,0,280.91,84.36Z" style="fill:#37474f"></path><path d="M277.73,82.52l-2.06-1.19c-.16-.09-.28,0-.28.16v2.38a.61.61,0,0,0,.28.49l2.06,1.19a.17.17,0,0,0,.28-.16V83A.64.64,0,0,0,277.73,82.52Z" style="fill:#37474f"></path><path d="M280.91,88l-2.06-1.19c-.15-.09-.28,0-.28.16v2.38a.61.61,0,0,0,.28.48L280.91,91c.16.09.28,0,.28-.16V88.45A.61.61,0,0,0,280.91,88Z" style="fill:#37474f"></path><path d="M277.73,86.13l-2.06-1.19c-.16-.09-.28,0-.28.16v2.38a.61.61,0,0,0,.28.49l2.06,1.19A.18.18,0,0,0,278,89V86.61A.64.64,0,0,0,277.73,86.13Z" style="fill:#37474f"></path><path d="M280.91,91.58l-2.06-1.19c-.15-.09-.28,0-.28.16v2.38a.61.61,0,0,0,.28.48l2.06,1.19c.16.09.28,0,.28-.16V92.06A.61.61,0,0,0,280.91,91.58Z" style="fill:#37474f"></path><path d="M277.73,89.74l-2.06-1.19c-.16-.09-.28,0-.28.16v2.38a.61.61,0,0,0,.28.49l2.06,1.18c.15.09.28,0,.28-.16V90.22A.64.64,0,0,0,277.73,89.74Z" style="fill:#37474f"></path><path d="M280.91,95.19,278.85,94c-.15-.09-.28,0-.28.16v2.38a.62.62,0,0,0,.28.48l2.06,1.19c.16.09.28,0,.28-.16V95.67A.6.6,0,0,0,280.91,95.19Z" style="fill:#37474f"></path><path d="M277.73,93.35l-2.06-1.19c-.16-.09-.28,0-.28.16V94.7a.58.58,0,0,0,.28.48l2.06,1.19c.15.09.28,0,.28-.16V93.83A.64.64,0,0,0,277.73,93.35Z" style="fill:#37474f"></path><path d="M280.91,98.8l-2.06-1.19c-.15-.09-.28,0-.28.16v2.38a.62.62,0,0,0,.28.48l2.06,1.19c.16.09.28,0,.28-.16V99.28A.6.6,0,0,0,280.91,98.8Z" style="fill:#37474f"></path><path d="M277.73,97l-2.06-1.19c-.16-.09-.28,0-.28.16v2.38a.6.6,0,0,0,.28.48l2.06,1.19c.15.09.28,0,.28-.16V97.44A.64.64,0,0,0,277.73,97Z" style="fill:#37474f"></path><path d="M280.91,102.41l-2.06-1.19c-.15-.09-.28,0-.28.16v2.38a.62.62,0,0,0,.28.48l2.06,1.19c.16.09.28,0,.28-.16v-2.38A.6.6,0,0,0,280.91,102.41Z" style="fill:#37474f"></path><path d="M277.73,100.57l-2.06-1.19c-.16-.09-.28,0-.28.16v2.38a.6.6,0,0,0,.28.48l2.06,1.19c.15.09.28,0,.28-.16v-2.38A.62.62,0,0,0,277.73,100.57Z" style="fill:#37474f"></path><path d="M280.91,106l-2.06-1.19c-.15-.09-.28,0-.28.16v2.38a.62.62,0,0,0,.28.48l2.06,1.19c.16.09.28,0,.28-.16V106.5A.6.6,0,0,0,280.91,106Z" style="fill:#37474f"></path><path d="M277.73,104.18,275.67,103c-.16-.09-.28,0-.28.16v2.38a.6.6,0,0,0,.28.48l2.06,1.19c.15.09.28,0,.28-.16v-2.38A.62.62,0,0,0,277.73,104.18Z" style="fill:#37474f"></path><path d="M280.78,110.54l-3.08-1.77c-.23-.14-.41,0-.41.24v3.55a.93.93,0,0,0,.41.72l3.08,1.77c.23.13.41,0,.41-.24v-3.55A.92.92,0,0,0,280.78,110.54Z" style="fill:#e0e0e0"></path><path d="M276,111.14l2.52,1.46a.28.28,0,0,1,.09.17v2.91l-2.52-1.46a.31.31,0,0,1-.09-.17v-2.91m-.42-.93c-.13,0-.23.11-.23.3v3.55a.93.93,0,0,0,.42.72l3.07,1.77a.38.38,0,0,0,.19.06c.14,0,.23-.11.23-.3v-3.55a.94.94,0,0,0-.42-.72l-3.07-1.77a.38.38,0,0,0-.19-.06Z" style="fill:#455a64"></path><path d="M346.42,120.2l-55.36-32c-1.17-.67-2.11-.13-2.11,1.22v41a4.68,4.68,0,0,0,2.11,3.67l55.36,31.93c1.17.68,2.12.13,2.12-1.22v-41A4.68,4.68,0,0,0,346.42,120.2Z" style="fill:#37474f"></path><path d="M294.13,96.54a.17.17,0,0,1-.16-.17v-.64a.17.17,0,0,1,.08-.14.15.15,0,0,1,.16,0l.55.32a.16.16,0,0,1,.06.22.16.16,0,0,1-.22.06l-.31-.18v.36A.17.17,0,0,1,294.13,96.54Z" style="fill:#BA68C8"></path><path d="M313.1,106.85a.11.11,0,0,1-.08,0l-1.15-.66a.15.15,0,0,1-.06-.22.16.16,0,0,1,.22-.06l1.15.67a.16.16,0,0,1,.06.22A.17.17,0,0,1,313.1,106.85Zm-2.3-1.33-.08,0-1.15-.67a.15.15,0,0,1-.06-.22.16.16,0,0,1,.22-.06l1.15.67a.17.17,0,0,1,.06.22A.17.17,0,0,1,310.8,105.52Zm-2.31-1.33-.08,0-1.15-.67a.17.17,0,0,1-.06-.22.17.17,0,0,1,.22-.06l1.16.67a.16.16,0,0,1-.09.3Zm-2.3-1.33-.08,0-1.15-.67a.16.16,0,0,1-.06-.22.17.17,0,0,1,.22-.06l1.15.67a.15.15,0,0,1,.06.22A.16.16,0,0,1,306.19,102.86Zm-2.3-1.33-.08,0-1.15-.67a.16.16,0,1,1,.16-.27l1.15.66a.16.16,0,0,1-.08.3Zm-2.3-1.33-.08,0-1.15-.67a.16.16,0,0,1-.06-.22.16.16,0,0,1,.22-.05l1.15.66a.16.16,0,0,1,.06.22A.17.17,0,0,1,301.59,100.2Zm-2.3-1.33-.08,0-1.15-.66A.16.16,0,0,1,298,98a.15.15,0,0,1,.22-.06l1.15.66a.16.16,0,0,1-.08.3ZM297,97.54a.11.11,0,0,1-.08,0l-1.16-.66a.16.16,0,0,1,.17-.28l1.15.66a.18.18,0,0,1,.06.22A.19.19,0,0,1,297,97.54Z" style="fill:#BA68C8"></path><path d="M314.8,108.47a.16.16,0,0,1-.16-.16v-.55l-.47-.27a.16.16,0,0,1-.06-.22.16.16,0,0,1,.22-.06l.56.32a.16.16,0,0,1,.08.14v.64A.17.17,0,0,1,314.8,108.47Z" style="fill:#BA68C8"></path><path d="M314.8,139.44a.16.16,0,0,1-.16-.16V138a.16.16,0,0,1,.16-.16.17.17,0,0,1,.17.16v1.29A.17.17,0,0,1,314.8,139.44Zm0-2.58a.16.16,0,0,1-.16-.16v-1.29a.16.16,0,0,1,.16-.16.17.17,0,0,1,.17.16v1.29A.17.17,0,0,1,314.8,136.86Zm0-2.58a.16.16,0,0,1-.16-.16v-1.29a.16.16,0,0,1,.16-.16.17.17,0,0,1,.17.16v1.29A.17.17,0,0,1,314.8,134.28Zm0-2.58a.16.16,0,0,1-.16-.16v-1.29a.16.16,0,0,1,.16-.16.17.17,0,0,1,.17.16v1.29A.17.17,0,0,1,314.8,131.7Zm0-2.58a.16.16,0,0,1-.16-.16v-1.29a.16.16,0,0,1,.16-.16.17.17,0,0,1,.17.16V129A.17.17,0,0,1,314.8,129.12Zm0-2.58a.16.16,0,0,1-.16-.16v-1.29a.16.16,0,0,1,.16-.16.17.17,0,0,1,.17.16v1.29A.17.17,0,0,1,314.8,126.54Zm0-2.58a.16.16,0,0,1-.16-.16v-1.29a.16.16,0,0,1,.16-.16.17.17,0,0,1,.17.16v1.29A.17.17,0,0,1,314.8,124Zm0-2.58a.16.16,0,0,1-.16-.16v-1.29a.16.16,0,0,1,.16-.16.17.17,0,0,1,.17.16v1.29A.17.17,0,0,1,314.8,121.38Zm0-2.58a.16.16,0,0,1-.16-.16v-1.29a.16.16,0,0,1,.16-.16.17.17,0,0,1,.17.16v1.29A.17.17,0,0,1,314.8,118.8Zm0-2.58a.17.17,0,0,1-.16-.16v-1.29a.17.17,0,1,1,.33,0v1.29A.17.17,0,0,1,314.8,116.22Zm0-2.59a.16.16,0,0,1-.16-.16v-1.29a.17.17,0,0,1,.16-.16.17.17,0,0,1,.17.16v1.29A.17.17,0,0,1,314.8,113.63Zm0-2.58a.16.16,0,0,1-.16-.16V109.6a.16.16,0,0,1,.16-.16.17.17,0,0,1,.17.16v1.29A.17.17,0,0,1,314.8,111.05Z" style="fill:#BA68C8"></path><path d="M314.8,141.38l-.08,0-.55-.33a.16.16,0,1,1,.16-.27l.31.18v-.37a.16.16,0,0,1,.16-.16.17.17,0,0,1,.17.16v.65a.17.17,0,0,1-.08.14Z" style="fill:#BA68C8"></path><path d="M313.1,140.39l-.08,0-1.15-.66a.16.16,0,0,1-.06-.22.15.15,0,0,1,.22-.06l1.15.66a.16.16,0,0,1-.08.3Zm-2.3-1.33-.09,0-1.15-.66a.16.16,0,0,1-.05-.22.15.15,0,0,1,.22-.06l1.15.66a.16.16,0,0,1,.05.22A.16.16,0,0,1,310.8,139.06Zm-2.31-1.33a.13.13,0,0,1-.08,0l-1.15-.66a.18.18,0,0,1-.06-.22.16.16,0,0,1,.22-.06l1.15.66a.16.16,0,0,1,.06.22A.16.16,0,0,1,308.49,137.73Zm-2.3-1.33a.12.12,0,0,1-.08,0l-1.15-.66a.16.16,0,0,1-.06-.22.17.17,0,0,1,.22-.06l1.15.66a.17.17,0,0,1,.06.22A.14.14,0,0,1,306.19,136.4Zm-2.3-1.33a.12.12,0,0,1-.08,0l-1.15-.66a.16.16,0,0,1-.06-.22.16.16,0,0,1,.22-.06l1.15.66a.17.17,0,0,1,.06.22A.14.14,0,0,1,303.89,135.07Zm-2.3-1.32-.08,0-1.15-.67a.16.16,0,1,1,.16-.28l1.15.67a.16.16,0,0,1,.06.22A.17.17,0,0,1,301.59,133.75Zm-2.3-1.33-.08,0-1.15-.67a.15.15,0,0,1-.06-.22.16.16,0,0,1,.22-.06l1.15.67a.17.17,0,0,1,.06.22A.17.17,0,0,1,299.29,132.42ZM297,131.09l-.08,0-1.15-.67a.16.16,0,0,1-.05-.22.16.16,0,0,1,.22-.06l1.15.67a.16.16,0,0,1-.09.3Z" style="fill:#BA68C8"></path><path d="M294.68,129.76l-.08,0-.55-.32a.16.16,0,0,1-.08-.14v-.64a.16.16,0,0,1,.32,0v.55l.47.27a.15.15,0,0,1,.06.22A.16.16,0,0,1,294.68,129.76Z" style="fill:#BA68C8"></path><path d="M294.13,127.51a.16.16,0,0,1-.16-.16v-1.3a.16.16,0,0,1,.32,0v1.3A.16.16,0,0,1,294.13,127.51Zm0-2.59a.16.16,0,0,1-.16-.16v-1.29a.16.16,0,0,1,.32,0v1.29A.16.16,0,0,1,294.13,124.92Zm0-2.58a.16.16,0,0,1-.16-.16v-1.29a.16.16,0,0,1,.32,0v1.29A.16.16,0,0,1,294.13,122.34Zm0-2.58a.16.16,0,0,1-.16-.16v-1.29a.16.16,0,0,1,.32,0v1.29A.16.16,0,0,1,294.13,119.76Zm0-2.58A.16.16,0,0,1,294,117v-1.29a.16.16,0,1,1,.32,0V117A.16.16,0,0,1,294.13,117.18Zm0-2.58a.16.16,0,0,1-.16-.16v-1.29a.16.16,0,1,1,.32,0v1.29A.16.16,0,0,1,294.13,114.6Zm0-2.58a.16.16,0,0,1-.16-.16v-1.29a.16.16,0,0,1,.32,0v1.29A.16.16,0,0,1,294.13,112Zm0-2.58a.16.16,0,0,1-.16-.16V108a.16.16,0,0,1,.32,0v1.29A.16.16,0,0,1,294.13,109.44Zm0-2.58a.16.16,0,0,1-.16-.16v-1.29a.16.16,0,0,1,.32,0v1.29A.16.16,0,0,1,294.13,106.86Zm0-2.58a.16.16,0,0,1-.16-.16v-1.29a.16.16,0,0,1,.32,0v1.29A.16.16,0,0,1,294.13,104.28Zm0-2.58a.16.16,0,0,1-.16-.16v-1.29a.16.16,0,0,1,.32,0v1.29A.16.16,0,0,1,294.13,101.7Zm0-2.58A.16.16,0,0,1,294,99V97.67a.16.16,0,1,1,.32,0V99A.16.16,0,0,1,294.13,99.12Z" style="fill:#BA68C8"></path><path d="M294.39,96.48a.15.15,0,0,1-.14-.1L294,95.8a.15.15,0,0,1,.08-.21.15.15,0,0,1,.21.08l.27.58a.15.15,0,0,1-.08.21Z" style="fill:#BA68C8"></path><path d="M314,139.59a.15.15,0,0,1-.14-.09l-.55-1.2a.16.16,0,0,1,.3-.13l.54,1.2a.16.16,0,0,1-.08.21Zm-1.08-2.39a.16.16,0,0,1-.15-.1l-.55-1.19a.17.17,0,1,1,.3-.14l.54,1.2a.15.15,0,0,1-.08.21Zm-1.09-2.4a.16.16,0,0,1-.15-.09l-.54-1.2a.16.16,0,0,1,.08-.21.16.16,0,0,1,.21.08l.54,1.2a.16.16,0,0,1-.08.21Zm-1.09-2.39a.18.18,0,0,1-.15-.1l-.54-1.19a.16.16,0,1,1,.29-.14l.54,1.2a.15.15,0,0,1-.08.21Zm-1.09-2.4a.16.16,0,0,1-.15-.09l-.54-1.2a.16.16,0,0,1,.08-.21.16.16,0,0,1,.21.08l.54,1.2a.15.15,0,0,1-.07.21Zm-1.09-2.39a.18.18,0,0,1-.15-.1l-.54-1.19a.17.17,0,0,1,.08-.22.17.17,0,0,1,.21.08l.55,1.2a.16.16,0,0,1-.08.21Zm-1.09-2.4a.14.14,0,0,1-.14-.09l-.55-1.2a.16.16,0,0,1,.08-.21.15.15,0,0,1,.21.08l.55,1.2a.17.17,0,0,1-.08.21Zm-1.09-2.39a.15.15,0,0,1-.14-.1l-.55-1.2a.16.16,0,0,1,.08-.21.15.15,0,0,1,.21.08l.55,1.2a.15.15,0,0,1-.08.21Zm-1.09-2.4a.14.14,0,0,1-.14-.09l-.55-1.2a.16.16,0,0,1,.08-.21.15.15,0,0,1,.21.08l.55,1.19a.16.16,0,0,1-.08.22ZM304.19,118a.16.16,0,0,1-.14-.1l-.55-1.2a.17.17,0,0,1,.08-.21.17.17,0,0,1,.22.08l.54,1.2a.16.16,0,0,1-.08.21Zm-1.08-2.4a.16.16,0,0,1-.15-.09l-.55-1.2a.16.16,0,0,1,.08-.21.16.16,0,0,1,.22.08l.54,1.19a.17.17,0,0,1-.08.22ZM302,113.25a.18.18,0,0,1-.15-.1l-.54-1.2a.15.15,0,0,1,.08-.21.16.16,0,0,1,.21.08l.54,1.2a.16.16,0,0,1-.08.21Zm-1.09-2.4a.16.16,0,0,1-.15-.09l-.54-1.2a.15.15,0,0,1,.08-.21.15.15,0,0,1,.21.08l.54,1.19a.17.17,0,0,1-.08.22Zm-1.09-2.4a.16.16,0,0,1-.15-.09l-.54-1.2a.16.16,0,0,1,.29-.13l.54,1.2a.15.15,0,0,1-.08.21Zm-1.09-2.39a.19.19,0,0,1-.15-.09l-.54-1.2a.17.17,0,0,1,.08-.22.17.17,0,0,1,.21.08l.55,1.2a.18.18,0,0,1-.08.22Zm-1.09-2.4a.16.16,0,0,1-.15-.09l-.54-1.2a.16.16,0,0,1,.29-.13l.55,1.2a.17.17,0,0,1-.08.21Zm-1.09-2.39a.15.15,0,0,1-.14-.1l-.55-1.19a.17.17,0,0,1,.08-.22.16.16,0,0,1,.21.08l.55,1.2a.16.16,0,0,1-.08.21Zm-1.09-2.4a.14.14,0,0,1-.14-.09l-.55-1.2a.16.16,0,0,1,.08-.21.15.15,0,0,1,.21.08l.55,1.2a.16.16,0,0,1-.08.21Z" style="fill:#BA68C8"></path><path d="M314.8,141.38a.16.16,0,0,1-.14-.1l-.27-.58a.16.16,0,0,1,.08-.21.15.15,0,0,1,.21.08l.27.58a.15.15,0,0,1-.08.21Z" style="fill:#BA68C8"></path><path d="M314.36,108.3a.17.17,0,0,1-.11-.28l.44-.46a.16.16,0,0,1,.23,0,.17.17,0,0,1,0,.23l-.44.47A.18.18,0,0,1,314.36,108.3Z" style="fill:#BA68C8"></path><path d="M295.43,128.07a.15.15,0,0,1-.11,0,.17.17,0,0,1,0-.23l.86-.9a.16.16,0,0,1,.22,0,.16.16,0,0,1,0,.23l-.86.9A.17.17,0,0,1,295.43,128.07Zm1.72-1.79a.16.16,0,0,1-.11,0,.16.16,0,0,1,0-.22l.86-.9a.15.15,0,0,1,.22,0,.16.16,0,0,1,0,.23l-.86.9A.18.18,0,0,1,297.15,126.28Zm1.72-1.8a.16.16,0,0,1-.11,0,.16.16,0,0,1,0-.22l.86-.9a.16.16,0,0,1,.23,0,.17.17,0,0,1,0,.23l-.86.9A.17.17,0,0,1,298.87,124.48Zm1.72-1.8a.15.15,0,0,1-.11,0,.17.17,0,0,1,0-.23l.86-.9a.15.15,0,0,1,.23,0,.16.16,0,0,1,0,.22l-.86.9A.17.17,0,0,1,300.59,122.68Zm1.73-1.8a.17.17,0,0,1-.12,0,.17.17,0,0,1,0-.23l.86-.9a.17.17,0,0,1,.23,0,.16.16,0,0,1,0,.22l-.86.9A.13.13,0,0,1,302.32,120.88Zm1.72-1.8a.19.19,0,0,1-.12,0,.17.17,0,0,1,0-.23l.86-.9a.16.16,0,0,1,.23.23l-.86.89A.13.13,0,0,1,304,119.08Zm1.72-1.79a.17.17,0,0,1-.12-.28l.86-.9a.16.16,0,1,1,.23.23l-.86.9A.16.16,0,0,1,305.76,117.29Zm1.72-1.8a.16.16,0,0,1-.11,0,.15.15,0,0,1,0-.22l.86-.9a.16.16,0,0,1,.23,0,.17.17,0,0,1,0,.23l-.86.9A.16.16,0,0,1,307.48,115.49Zm1.72-1.8a.13.13,0,0,1-.11,0,.15.15,0,0,1,0-.22l.86-.9a.16.16,0,1,1,.23.22l-.86.9A.16.16,0,0,1,309.2,113.69Zm1.72-1.8a.15.15,0,0,1-.11,0,.16.16,0,0,1,0-.23l.86-.9a.16.16,0,0,1,.23,0,.15.15,0,0,1,0,.22l-.85.9A.21.21,0,0,1,310.92,111.89Zm1.72-1.8a.15.15,0,0,1-.11,0,.16.16,0,0,1,0-.23l.86-.9a.17.17,0,0,1,.23,0,.15.15,0,0,1,0,.22l-.86.9A.16.16,0,0,1,312.64,110.09Z" style="fill:#BA68C8"></path><path d="M294.13,129.44a.16.16,0,0,1-.11-.05.15.15,0,0,1,0-.22l.45-.47a.16.16,0,0,1,.22,0,.15.15,0,0,1,0,.22l-.45.47A.16.16,0,0,1,294.13,129.44Z" style="fill:#BA68C8"></path><path d="M304.47,135.41a.16.16,0,0,1-.16-.16v-.65a.16.16,0,1,1,.32,0v.65A.16.16,0,0,1,304.47,135.41Z" style="fill:#BA68C8"></path><path d="M304.47,133.57a.16.16,0,0,1-.16-.16v-1.19a.16.16,0,1,1,.32,0v1.19A.16.16,0,0,1,304.47,133.57Zm0-2.38a.16.16,0,0,1-.16-.16v-1.19a.16.16,0,1,1,.32,0V131A.16.16,0,0,1,304.47,131.19Zm0-2.38a.16.16,0,0,1-.16-.16v-1.19a.16.16,0,1,1,.32,0v1.19A.16.16,0,0,1,304.47,128.81Zm0-2.38a.17.17,0,0,1-.16-.17v-1.19a.16.16,0,1,1,.32,0v1.19A.17.17,0,0,1,304.47,126.43Zm0-2.39a.16.16,0,0,1-.16-.16v-1.19a.16.16,0,1,1,.32,0v1.19A.16.16,0,0,1,304.47,124Zm0-2.38a.16.16,0,0,1-.16-.16v-1.19a.16.16,0,1,1,.32,0v1.19A.16.16,0,0,1,304.47,121.66Z" style="fill:#BA68C8"></path><path d="M304.47,119.28a.16.16,0,0,1-.16-.16v-.65a.17.17,0,0,1,.08-.14.22.22,0,0,1,.16,0l.55.33a.15.15,0,0,1,.06.22.16.16,0,0,1-.22.05l-.31-.18v.37A.16.16,0,0,1,304.47,119.28Z" style="fill:#BA68C8"></path><path d="M313.21,123.68a.11.11,0,0,1-.08,0l-1-.59a.15.15,0,0,1-.06-.22.16.16,0,0,1,.22-.06l1,.59a.17.17,0,0,1,.06.22A.16.16,0,0,1,313.21,123.68Zm-2-1.18-.08,0-1-.59a.16.16,0,0,1-.06-.22.16.16,0,0,1,.22-.06l1,.59a.15.15,0,0,1,.06.22A.16.16,0,0,1,311.16,122.5Zm-2-1.18-.08,0-1-.59a.18.18,0,0,1-.06-.22.17.17,0,0,1,.22-.06l1,.59a.17.17,0,0,1,.06.22A.17.17,0,0,1,309.12,121.32Zm-2.05-1.18-.08,0-1-.59a.16.16,0,0,1-.06-.22.15.15,0,0,1,.22-.06l1,.59a.16.16,0,0,1,.06.22A.17.17,0,0,1,307.07,120.14Z" style="fill:#BA68C8"></path><path d="M314.79,124.59a.12.12,0,0,1-.08,0l-.56-.32a.17.17,0,0,1-.06-.22.18.18,0,0,1,.22-.06l.56.33a.15.15,0,0,1,.06.21A.14.14,0,0,1,314.79,124.59Z" style="fill:#BA68C8"></path><path d="M304.47,102.41a.16.16,0,0,1-.16-.16v-.65a.16.16,0,1,1,.32,0v.65A.16.16,0,0,1,304.47,102.41Z" style="fill:#BA68C8"></path><path d="M304.47,116.7a.16.16,0,0,1-.16-.16v-1.19a.16.16,0,1,1,.32,0v1.19A.16.16,0,0,1,304.47,116.7Zm0-2.38a.16.16,0,0,1-.16-.16V113a.16.16,0,1,1,.32,0v1.19A.16.16,0,0,1,304.47,114.32Zm0-2.38a.16.16,0,0,1-.16-.16v-1.19a.16.16,0,1,1,.32,0v1.19A.16.16,0,0,1,304.47,111.94Zm0-2.39a.16.16,0,0,1-.16-.16V108.2a.16.16,0,1,1,.32,0v1.19A.16.16,0,0,1,304.47,109.55Zm0-2.38a.16.16,0,0,1-.16-.16v-1.19a.16.16,0,1,1,.32,0V107A.16.16,0,0,1,304.47,107.17Zm0-2.38a.16.16,0,0,1-.16-.16v-1.19a.16.16,0,1,1,.32,0v1.19A.16.16,0,0,1,304.47,104.79Z" style="fill:#BA68C8"></path><path d="M304.47,118.54l-.08,0-.56-.33a.16.16,0,1,1,.16-.27l.32.18v-.37a.16.16,0,0,1,.32,0v.65a.17.17,0,0,1-.08.14Z" style="fill:#BA68C8"></path><path d="M302.89,117.62a.11.11,0,0,1-.08,0l-1-.59a.17.17,0,0,1-.06-.22.18.18,0,0,1,.22-.06l1,.59a.18.18,0,0,1,.06.22A.15.15,0,0,1,302.89,117.62Zm-2.05-1.18a.11.11,0,0,1-.08,0l-1-.59a.15.15,0,0,1-.06-.22.16.16,0,0,1,.22-.06l1,.59a.17.17,0,0,1,.06.22A.16.16,0,0,1,300.84,116.44Zm-2-1.18-.08,0-1-.59a.16.16,0,0,1-.06-.22.16.16,0,0,1,.22-.06l1,.59a.15.15,0,0,1,.06.22A.16.16,0,0,1,298.79,115.26Zm-2-1.18-.08,0-1-.59a.18.18,0,0,1-.06-.22.17.17,0,0,1,.22-.06l1,.59a.17.17,0,0,1,.06.22A.17.17,0,0,1,296.75,114.08Z" style="fill:#BA68C8"></path><path d="M294.7,112.9l-.08,0-.56-.32a.18.18,0,0,1-.06-.22.16.16,0,0,1,.22-.06l.56.32a.16.16,0,0,1,.06.22A.17.17,0,0,1,294.7,112.9Z" style="fill:#BA68C8"></path><path d="M307.92,136.44a7.16,7.16,0,0,1-3.57-1.06c-5.75-3.33-10.44-13.6-10.44-22.9,0-5.47,1.66-9.7,4.44-11.3,1.81-1.05,3.95-.93,6.17.36,5.76,3.32,10.44,13.6,10.44,22.9,0,5.47-1.65,9.69-4.43,11.3A5.16,5.16,0,0,1,307.92,136.44Zm-7-35.63a4.82,4.82,0,0,0-2.45.66c-2.67,1.54-4.26,5.66-4.26,11,0,9.19,4.61,19.33,10.27,22.6,2.12,1.23,4.13,1.35,5.84.37,2.67-1.55,4.27-5.66,4.27-11,0-9.2-4.61-19.34-10.28-22.61A6.78,6.78,0,0,0,301,100.81Z" style="fill:#BA68C8"></path><polygon points="320.12 143.64 337.58 153.72 320.12 115.16 320.12 143.64" style="fill:#BA68C8"></polygon><path d="M271.86,65.27c0-.7.5-1,1.11-.63l85.08,49.12a2.47,2.47,0,0,1,1.11,1.93v4.76L271.86,70Z" style="fill:#37474f"></path><path d="M314.81,165.47a3.85,3.85,0,0,1,1.74,3c0,1.11-.78,1.57-1.74,1a3.85,3.85,0,0,1-1.75-3C313.06,165.36,313.84,164.91,314.81,165.47Z" style="fill:#455a64"></path><path d="M366.64,111.34a3.88,3.88,0,0,1,.55,1.84v78.73l3.49-2V111.16a3.83,3.83,0,0,0-.55-1.84Z" style="fill:#263238"></path></g></g><g id="freepik--Tablet--inject-7"><path id="freepik--shadow--inject-7" d="M323.12,242l-53.91-31.13a2,2,0,0,0-1.82,0l-32.48,18.75a.56.56,0,0,0,0,1.06l53.91,31.12a2,2,0,0,0,1.83,0l32.47-18.75A.55.55,0,0,0,323.12,242Z" style="opacity:0.15"></path><g id="freepik--tablet--inject-7"><path d="M322.23,238.65l-52.42-30.27a2,2,0,0,0-1.78,0l-31.57,18.23a2,2,0,0,0-.89,1.54v.36a2,2,0,0,0,.89,1.54l52.42,30.26a1.93,1.93,0,0,0,1.78,0l31.57-18.23a2,2,0,0,0,.89-1.54v-.35A2,2,0,0,0,322.23,238.65Z" style="fill:#BA68C8"></path><path d="M322.23,238.65l-52.42-30.27a2,2,0,0,0-1.78,0l-31.57,18.23c-.5.29-.5.74,0,1l52.42,30.26a1.93,1.93,0,0,0,1.78,0l31.57-18.23A.54.54,0,0,0,322.23,238.65Z" style="fill:#BA68C8"></path><g style="opacity:0.2"><path d="M322.23,238.65l-52.42-30.27a2,2,0,0,0-1.78,0l-31.57,18.23c-.5.29-.5.74,0,1l52.42,30.26a1.93,1.93,0,0,0,1.78,0l31.57-18.23A.54.54,0,0,0,322.23,238.65Z"></path></g><path d="M278.32,218.13a2,2,0,0,0-1.78,0c-3.91,2.22-19.36,11.17-23.24,13.42a.54.54,0,0,0,0,1c5.11,3,30.67,17.69,35.75,20.64a2,2,0,0,0,1.78,0l23.24-13.41c.49-.29.49-.75,0-1Z" style="fill:#37474f"></path><path d="M261.87,219.7c1.56.9,1.56,2.36,0,3.26a6.25,6.25,0,0,1-5.65,0c-1.56-.9-1.56-2.36,0-3.26A6.19,6.19,0,0,1,261.87,219.7Z" style="fill:#37474f"></path><path d="M253.09,223.09l2.53,1.48c.74.42.87,1,.29,1.37a2.68,2.68,0,0,1-2.37-.17L251,224.29c-.74-.43-.87-1-.29-1.37A2.67,2.67,0,0,1,253.09,223.09Z" style="fill:#37474f"></path><path d="M250.13,224.8l2.53,1.48c.74.43.87,1,.29,1.37a2.65,2.65,0,0,1-2.37-.17L248,226c-.74-.43-.87-1-.29-1.38A2.71,2.71,0,0,1,250.13,224.8Z" style="fill:#37474f"></path><path d="M247.16,226.52,249.7,228c.74.42.87,1,.29,1.37a2.65,2.65,0,0,1-2.37-.17l-2.54-1.48c-.74-.42-.87-1-.29-1.37A2.65,2.65,0,0,1,247.16,226.52Z" style="fill:#37474f"></path><path d="M270.11,213.3l2.53,1.48c.74.42.87,1,.3,1.37a2.67,2.67,0,0,1-2.38-.17L268,214.5c-.73-.42-.86-1-.29-1.37A2.7,2.7,0,0,1,270.11,213.3Z" style="fill:#37474f"></path><path d="M267.15,215l2.53,1.48c.74.42.87,1,.29,1.37a2.68,2.68,0,0,1-2.37-.17l-2.54-1.48c-.73-.42-.87-1-.29-1.37A2.67,2.67,0,0,1,267.15,215Z" style="fill:#37474f"></path><path d="M264.19,216.73l2.53,1.48c.74.43.87,1,.29,1.37a2.65,2.65,0,0,1-2.37-.16l-2.54-1.48c-.74-.43-.87-1-.29-1.37A2.67,2.67,0,0,1,264.19,216.73Z" style="fill:#37474f"></path><g style="opacity:0.30000000000000004"><path d="M289.77,258.12v2.4a2,2,0,0,0,.89-.2l31.57-18.24a1.94,1.94,0,0,0,.9-1.54v-.35a2,2,0,0,0-.73-1.43c.32.28.26.66-.17.92L290.66,257.9A1.73,1.73,0,0,1,289.77,258.12Z"></path></g><g style="opacity:0.5"><path d="M235.56,228.15v.36a2,2,0,0,0,.9,1.54l52.41,30.27a1.87,1.87,0,0,0,.9.2v-2.4a1.77,1.77,0,0,1-.9-.22l-52.41-30.26c-.43-.25-.49-.63-.17-.92A2,2,0,0,0,235.56,228.15Z"></path></g></g></g><g id="freepik--Pencil--inject-7"><path id="freepik--shadow--inject-7" d="M269.19,172A3.1,3.1,0,0,1,267,173.3a1.11,1.11,0,0,1-.78-.14l-21.34-12.5-1.92-2.25a.24.24,0,0,1,.24-.38l4.28,1.13,21.64,12.5A.28.28,0,0,1,269.19,172Z" style="opacity:0.15"></path><path d="M248.37,157.52l-4.43-.86a.13.13,0,0,0-.13.22l3,3.41Z" style="fill:#ffa8a7"></path><path d="M243.81,156.88a.13.13,0,0,1,.13-.22l.87.17h0a.75.75,0,0,0-.36.7v.08Z" style="fill:#263238"></path><path d="M263.35,169.77l-.36-.21-.44-.25-15.73-9a2,2,0,0,1,.12-1.47,2.07,2.07,0,0,1,1.43-1.29l15.72,9,.84.48C264.37,166.74,262.79,169.48,263.35,169.77Z" style="fill:#BA68C8"></path><path d="M262,169l-.8-.47c-.24-.12-.11-.71.17-1.32.37-.8,1.1-1.59,1.42-1.42l.59.34.22.13c-.32-.17-1.05.61-1.42,1.42-.27.58-.4,1.15-.2,1.3h0Z" style="fill:#ebebeb"></path><path d="M261.76,168.86c-.55-.29,1-3,1.59-2.74l.82.47c-.56-.3-2.15,2.44-1.59,2.73Z" style="fill:#BA68C8"></path><path d="M263.35,169.77l-.8-.46c-.55-.29,1-2.94,1.54-2.77l0,0,.81.46C264.37,166.74,262.79,169.48,263.35,169.77Z" style="fill:#ebebeb"></path><path d="M243.79,156.73l.15-.07,3.22,1.76L263.79,168c0-.05.06-.05.08,0-.48.74-.83,1.67-.52,1.83l-.36-.21-.44-.25-15.73-9h0l-3-3.41A.14.14,0,0,1,243.79,156.73Z" style="opacity:0.15"></path><path d="M266.75,171.71l-3.4-1.94c-.24-.13-.11-.71.17-1.31.36-.81,1.09-1.6,1.41-1.44h0l3.41,2c.68.39.05,1.86-.7,2.51A.8.8,0,0,1,266.75,171.71Z" style="fill:#f28f8f"></path><path d="M266.54,170.66a2.46,2.46,0,0,1,1.39-1.68.55.55,0,0,1,.51.07c.51.47-.09,1.82-.8,2.44a.81.81,0,0,1-.88.23C266.51,171.57,266.41,171.18,266.54,170.66Z" style="opacity:0.1"></path></g><g id="freepik--Mouse--inject-7"><path d="M313.53,222l6.52,3.76a7.17,7.17,0,0,0,7.2-.38L338,217.49c1.92-1.4,1.81-3.5-.24-4.69l-3.28-1.89a8.86,8.86,0,0,0-7.56-.23l-13.28,7.2C311.53,218.94,311.47,220.77,313.53,222Z" style="opacity:0.15"></path><path d="M338.19,214.07l-7.45,5.82-5.49,4.3a4.68,4.68,0,0,1-1.75.42,4.82,4.82,0,0,1-2.61-.55l-5.84-3.37h0l0,0a4.12,4.12,0,0,1-1.18-5.9l.17-.24a7.77,7.77,0,0,1,4.7-3l3-.59c4.78-1,8.71-1.44,9.17-1.13l7.32,4.23Z" style="fill:#fff"></path><path d="M334,217.33l.41-.33-6.56-3.79,5.74-1.78-.58-.33-5.74,1.77-3.92-2.26-.74.14Z" style="fill:#455a64"></path><path d="M325.89,223.84l0,0h0l5.22-3.77,7.06-5.1v-.8a.09.09,0,0,0,0-.06l0,0c-.53-.18-3.59.74-7.29,2.21l-2.45,1a7.74,7.74,0,0,0-4.91,7.24v.13a4.68,4.68,0,0,0,1.75-.42Z" style="fill:#e6e6e6"></path></g><g id="freepik--Palettes--inject-7"><path id="freepik--shadow--inject-7" d="M347,227.76a1,1,0,0,1,.71-.46l50.87-7.87h.2a1,1,0,0,1,.92.51l2.2,4.74,2.72,2.72a.77.77,0,0,1,.17.27l1.51.87a.75.75,0,0,1,0,1.34l-37.24,21.5a1.19,1.19,0,0,1-.58.15,1.25,1.25,0,0,1-.59-.15l-7.71-4.45a.78.78,0,0,1-.41-.67.75.75,0,0,1,.41-.67l9.06-5.24-10.6,3.54a1.23,1.23,0,0,1-.39.06,1.09,1.09,0,0,1-.77-.29L352,238.2a.76.76,0,0,1-.2-.7.84.84,0,0,1,.58-.59l12-4L351,235l-.2,0a1,1,0,0,1-.93-.52L347,228.41A.71.71,0,0,1,347,227.76Z" style="opacity:0.15"></path><g id="freepik--Palette--inject-7"><path d="M360.37,244a.21.21,0,0,1,.12-.17l37.24-21.5a.68.68,0,0,1,.59,0l7.71,4.45a.21.21,0,0,1,.12.17v1.16a.21.21,0,0,1-.12.17l-37.24,21.5a.68.68,0,0,1-.59,0l-7.71-4.45a.21.21,0,0,1-.12-.17Z" style="fill:#f0f0f0"></path><path d="M368.5,248.69v1.15a.54.54,0,0,0,.29-.07L406,228.27a.19.19,0,0,0,.12-.17V227c0,.07,0,.11-.12.16l-37.24,21.5A.62.62,0,0,1,368.5,248.69Z" style="fill:#e0e0e0"></path><path d="M397.73,222.32l-37.24,21.5a.18.18,0,0,0,0,.34l7.71,4.45a.62.62,0,0,0,.59,0L406,227.11c.16-.09.16-.24,0-.34l-7.71-4.45A.68.68,0,0,0,397.73,222.32Z" style="fill:#fafafa"></path><polygon points="398.02 224.28 402.63 226.94 398.02 229.61 393.41 226.94 398.02 224.28" style="fill:#f28f8f"></polygon><polygon points="398.02 224.28 402.63 226.94 398.02 229.61 393.41 226.94 398.02 224.28" style="fill:#f0f0f0;opacity:0.9"></polygon><polygon points="386.21 231.1 390.82 233.76 386.21 236.43 381.6 233.76 386.21 231.1" style="fill:#f28f8f"></polygon><polygon points="386.21 231.1 390.82 233.76 386.21 236.43 381.6 233.76 386.21 231.1" style="fill:#f0f0f0;opacity:0.6000000000000001"></polygon><polygon points="380.31 234.51 384.92 237.17 380.31 239.84 375.69 237.17 380.31 234.51" style="fill:#f28f8f"></polygon><polygon points="380.31 234.51 384.92 237.17 380.31 239.84 375.69 237.17 380.31 234.51" style="fill:#f0f0f0;opacity:0.5"></polygon><polygon points="374.4 237.92 379.01 240.58 374.4 243.24 369.79 240.58 374.4 237.92" style="fill:#f28f8f"></polygon><polygon points="374.4 237.92 379.01 240.58 374.4 243.24 369.79 240.58 374.4 237.92" style="fill:#f0f0f0;opacity:0.4"></polygon><polygon points="368.5 241.33 373.11 243.99 368.5 246.65 363.88 243.99 368.5 241.33" style="fill:#f28f8f"></polygon><polygon points="392.12 227.69 396.73 230.35 392.12 233.02 387.5 230.35 392.12 227.69" style="fill:#f28f8f"></polygon><polygon points="392.12 227.69 396.73 230.35 392.12 233.02 387.5 230.35 392.12 227.69" style="fill:#f0f0f0;opacity:0.8"></polygon><path d="M397.56,223.65a1,1,0,0,0,.93,0,.28.28,0,0,0,0-.54,1,1,0,0,0-.93,0A.28.28,0,0,0,397.56,223.65Z" style="fill:#263238"></path></g><g id="freepik--palette--inject-7"><path d="M352.4,235.41c0-.08.07-.16.21-.21l45.6-15.2a.59.59,0,0,1,.57.09l5.46,5.45a.15.15,0,0,1,.05.13v1.14c0,.09-.07.17-.21.22l-45.6,15.2a.59.59,0,0,1-.57-.09l-5.46-5.45a.21.21,0,0,1-.05-.13Z" style="fill:#f0f0f0"></path><path d="M358.15,241.09v1.16a.62.62,0,0,0,.33,0l45.6-15.2c.14-.05.22-.13.21-.22v-1.14c0,.08-.08.16-.21.2l-45.6,15.21A.62.62,0,0,1,358.15,241.09Z" style="fill:#e0e0e0"></path><path d="M398.21,220l-45.6,15.2c-.2.07-.27.22-.16.33l5.46,5.46a.61.61,0,0,0,.57.08l45.6-15.2c.2-.06.27-.21.16-.33l-5.46-5.45A.59.59,0,0,0,398.21,220Z" style="fill:#fafafa"></path><polygon points="397.62 221.94 400.88 225.2 395.23 227.08 391.97 223.82 397.62 221.94" style="fill:#BA68C8"></polygon><polygon points="383.16 226.76 386.42 230.02 380.77 231.9 377.51 228.64 383.16 226.76" style="fill:#BA68C8"></polygon><polygon points="383.16 226.76 386.42 230.02 380.77 231.9 377.51 228.64 383.16 226.76" style="opacity:0.25"></polygon><polygon points="375.92 229.17 379.19 232.43 373.54 234.31 370.27 231.05 375.92 229.17" style="fill:#BA68C8"></polygon><polygon points="375.92 229.17 379.19 232.43 373.54 234.31 370.27 231.05 375.92 229.17" style="opacity:0.35000000000000003"></polygon><polygon points="368.69 231.58 371.95 234.84 366.3 236.73 363.04 233.47 368.69 231.58" style="fill:#BA68C8"></polygon><polygon points="368.69 231.58 371.95 234.84 366.3 236.73 363.04 233.47 368.69 231.58" style="opacity:0.35000000000000003"></polygon><polygon points="361.46 233.99 364.72 237.25 359.07 239.14 355.81 235.88 361.46 233.99" style="fill:#BA68C8"></polygon><polygon points="361.46 233.99 364.72 237.25 359.07 239.14 355.81 235.88 361.46 233.99" style="opacity:0.5"></polygon><polygon points="390.39 224.35 393.65 227.61 388 229.49 384.74 226.23 390.39 224.35" style="fill:#BA68C8"></polygon><polygon points="390.39 224.35 393.65 227.61 388 229.49 384.74 226.23 390.39 224.35" style="opacity:0.15"></polygon><path d="M397.45,221.26a.93.93,0,0,0,.9.14c.32-.1.43-.34.25-.52a1,1,0,0,0-.91-.14C397.38,220.85,397.27,221.08,397.45,221.26Z" style="fill:#263238"></path></g><g id="freepik--palette--inject-7"><path d="M347.51,225.84c0-.1.12-.2.31-.23l50.87-7.86a.49.49,0,0,1,.51.17L402,224a.13.13,0,0,1,0,.06v1.16c0,.1-.12.2-.3.23l-50.87,7.87a.51.51,0,0,1-.51-.17l-2.83-6.08a.2.2,0,0,1,0-.07Z" style="fill:#f0f0f0"></path><path d="M350.61,232.16v1.14a.52.52,0,0,0,.25,0l50.87-7.86c.18,0,.31-.13.31-.23v-1.16c0,.1-.13.2-.31.23l-50.87,7.87Z" style="fill:#e0e0e0"></path><path d="M398.69,217.75l-50.87,7.86c-.22,0-.36.17-.3.3l2.83,6.08a.49.49,0,0,0,.51.17l50.87-7.87c.22,0,.35-.16.29-.29l-2.82-6.08A.49.49,0,0,0,398.69,217.75Z" style="fill:#fafafa"></path><polygon points="397.25 219.53 398.93 223.17 392.63 224.14 390.94 220.5 397.25 219.53" style="fill:#BA68C8"></polygon><polygon points="397.25 219.53 398.93 223.17 392.63 224.14 390.94 220.5 397.25 219.53" style="fill:#fff;opacity:0.9"></polygon><polygon points="381.11 222.02 382.8 225.66 376.5 226.64 374.81 223 381.11 222.02" style="fill:#BA68C8"></polygon><polygon points="381.11 222.02 382.8 225.66 376.5 226.64 374.81 223 381.11 222.02" style="fill:#fff;opacity:0.75"></polygon><polygon points="373.05 223.27 374.73 226.91 368.43 227.88 366.75 224.25 373.05 223.27" style="fill:#BA68C8"></polygon><polygon points="373.05 223.27 374.73 226.91 368.43 227.88 366.75 224.25 373.05 223.27" style="fill:#fff;opacity:0.7000000000000001"></polygon><polygon points="364.98 224.52 366.67 228.16 360.37 229.13 358.68 225.49 364.98 224.52" style="fill:#BA68C8"></polygon><polygon points="364.98 224.52 366.67 228.16 360.37 229.13 358.68 225.49 364.98 224.52" style="fill:#fff;opacity:0.6000000000000001"></polygon><polygon points="356.91 225.77 358.6 229.41 352.3 230.38 350.61 226.74 356.91 225.77" style="fill:#BA68C8"></polygon><polygon points="389.18 220.78 390.87 224.41 384.56 225.39 382.88 221.75 389.18 220.78" style="fill:#BA68C8"></polygon><polygon points="389.18 220.78 390.87 224.41 384.56 225.39 382.88 221.75 389.18 220.78" style="fill:#fff;opacity:0.8"></polygon><path d="M397.38,218.85a.82.82,0,0,0,.81.27c.36-.05.57-.26.47-.47a.81.81,0,0,0-.81-.27C397.5,218.44,397.29,218.65,397.38,218.85Z" style="fill:#263238"></path></g></g><g id="freepik--Coffe--inject-7"><g style="opacity:0.15"><path d="M329.86,276.5c4.47-2,11.59-2,15.91,0s4.32,5.23,0,7.22-11.44,2-15.91,0S325.4,278.5,329.86,276.5Z"></path></g><path d="M326.9,253.2l21.72,0L347,278.81h0c-.1.93-1,1.85-2.63,2.56a19.19,19.19,0,0,1-13,0c-1.71-.71-2.61-1.63-2.72-2.56h0Z" style="fill:#fafafa"></path><path d="M348.62,253.23l-.33,5.19a9.06,9.06,0,0,1-1.82,1c-4.69,1.95-12.44,1.95-17.3,0-.21-.08-.38-.17-.57-.26a10.05,10.05,0,0,1-1.37-.77l-.33-5.16Z" style="fill:#e0e0e0"></path><path d="M326.51,254.07v-3.6h2.33c.31-.16.65-.32,1-.47,4.47-1.79,11.59-1.79,15.91,0,.36.15.68.31,1,.47H349v3.6h0c0,1.17-1.08,2.34-3.24,3.24-4.32,1.78-11.44,1.78-15.91,0C327.63,256.41,326.51,255.24,326.51,254.07Z" style="fill:#BA68C8"></path><g style="opacity:0.2"><path d="M326.51,254.07v-3.6h2.33c.31-.16.65-.32,1-.47,4.47-1.79,11.59-1.79,15.91,0,.36.15.68.31,1,.47H349v3.6h0c0,1.17-1.08,2.34-3.24,3.24-4.32,1.78-11.44,1.78-15.91,0C327.63,256.41,326.51,255.24,326.51,254.07Z"></path></g><path d="M329.86,247.23c4.47-1.78,11.59-1.78,15.91,0s4.32,4.69,0,6.48-11.44,1.79-15.91,0S325.4,249,329.86,247.23Z" style="fill:#BA68C8"></path><path d="M329.39,249.46h0l.9-2.4h15l.9,2.4h0c.33.93-.45,1.91-2.36,2.63a20,20,0,0,1-12,0C329.85,251.37,329,250.39,329.39,249.46Z" style="fill:#BA68C8"></path><path d="M329.39,249.46h0l.9-2.4h15l.9,2.4h0c.33.93-.45,1.91-2.36,2.63a20,20,0,0,1-12,0C329.85,251.37,329,250.39,329.39,249.46Z" style="opacity:0.2"></path><path d="M332.48,245.38a17.87,17.87,0,0,1,10.64,0c2.89,1.09,2.89,2.85,0,3.94a17.87,17.87,0,0,1-10.64,0C329.49,248.23,329.49,246.47,332.48,245.38Z" style="fill:#BA68C8"></path><g style="opacity:0.30000000000000004"><path d="M332.48,245.38a17.87,17.87,0,0,1,10.64,0c2.89,1.09,2.89,2.85,0,3.94a17.87,17.87,0,0,1-10.64,0C329.49,248.23,329.49,246.47,332.48,245.38Z" style="fill:#fff"></path></g><path d="M331.28,247.35c0,.05.08.19.33.38a5.28,5.28,0,0,0,1.22.62,15.69,15.69,0,0,0,5,.75,14.67,14.67,0,0,0,4.92-.75,4.48,4.48,0,0,0,1.18-.62c.24-.2.31-.34.31-.38s-.26-.53-1.49-1a14.93,14.93,0,0,0-4.92-.75,15.4,15.4,0,0,0-5,.76C331.59,246.81,331.28,247.26,331.28,247.35Z" style="fill:#BA68C8"></path><g style="opacity:0.2"><path d="M331.28,247.35c0,.05.08.19.33.38a5.28,5.28,0,0,0,1.22.62,15.69,15.69,0,0,0,5,.75,14.67,14.67,0,0,0,4.92-.75,4.48,4.48,0,0,0,1.18-.62c.24-.2.31-.34.31-.38s-.26-.53-1.49-1a14.93,14.93,0,0,0-4.92-.75,15.4,15.4,0,0,0-5,.76C331.59,246.81,331.28,247.26,331.28,247.35Z"></path></g><path d="M331.61,247.73a5.28,5.28,0,0,0,1.22.62,15.69,15.69,0,0,0,5,.75,14.67,14.67,0,0,0,4.92-.75,4.48,4.48,0,0,0,1.18-.62,4.16,4.16,0,0,0-1.18-.63,14.93,14.93,0,0,0-4.92-.75,15.4,15.4,0,0,0-5,.76A4.58,4.58,0,0,0,331.61,247.73Z" style="fill:#BA68C8"></path><path d="M334.6,247.79a1.55,1.55,0,0,0-1.18-.22c-.22.12,0,.42.39.67a1.52,1.52,0,0,0,1.18.23C335.21,248.34,335,248,334.6,247.79Z"></path><path d="M347.66,273c0,.95-1,1.9-2.85,2.62a23.07,23.07,0,0,1-14,0c-2-.72-2.94-1.67-2.94-2.62l-.61-9.25c0,1,1,2,3.13,2.78a24.44,24.44,0,0,0,14.85,0c2-.77,3-1.78,3-2.78Z" style="fill:#ffbda7"></path><path d="M334.39,273.5a14.82,14.82,0,0,1-.83-1.58,4.7,4.7,0,0,0-2.42-2.13.32.32,0,0,0-.38.14,3.63,3.63,0,0,0,4.52,4.57c.06,0,.08-.15,0-.18A3.22,3.22,0,0,1,334.39,273.5Z" style="fill:#b16668"></path><path d="M331.72,269.5a5,5,0,0,1,1.53.94,4.59,4.59,0,0,1,1.1,1.51,4.52,4.52,0,0,0,1.39,1.84.3.3,0,0,0,.42-.06,3.19,3.19,0,0,0-.75-3.9,3.29,3.29,0,0,0-3.73-.86A.3.3,0,0,0,331.72,269.5Z" style="fill:#b16668"></path></g><g id="freepik--Lamp--inject-7"><path d="M223.81,127.71c-6.58,3.8-6.58,10,0,13.76s17.25,3.8,23.84,0,6.58-10,0-13.76S230.39,123.91,223.81,127.71Z" style="opacity:0.15"></path><path d="M250.78,130.1a9.51,9.51,0,0,0-4-4c-6.09-3.51-16-3.51-22,0a9.54,9.54,0,0,0-4,4h-.52v2.32h0c0,2.3,1.52,4.6,4.56,6.36,6.08,3.51,15.95,3.51,22,0,3-1.76,4.56-4.06,4.56-6.36h0V130.1Z" style="fill:#BA68C8"></path><path d="M250.78,130.1a9.51,9.51,0,0,0-4-4c-6.09-3.51-16-3.51-22,0a9.54,9.54,0,0,0-4,4h-.52v2.32h0c0,2.3,1.52,4.6,4.56,6.36,6.08,3.51,15.95,3.51,22,0,3-1.76,4.56-4.06,4.56-6.36h0V130.1Z" style="opacity:0.5"></path><path d="M224.71,136.46c-6.09-3.51-6.09-9.21,0-12.72s15.95-3.51,22,0,6.08,9.21,0,12.72S230.79,140,224.71,136.46Z" style="fill:#BA68C8"></path><path d="M224.71,136.46c-6.09-3.51-6.09-9.21,0-12.72s15.95-3.51,22,0,6.08,9.21,0,12.72S230.79,140,224.71,136.46Z" style="opacity:0.2"></path><path d="M239.11,128.71l-2.92-1c12.5-35.64-16.7-47-17.94-47.5l1.08-2.9C219.66,77.41,252.63,90.17,239.11,128.71Z" style="fill:#BA68C8"></path><path d="M241.74,130.1a6,6,0,0,0-12,0h0a3,3,0,0,0,1.76,2.46,9.43,9.43,0,0,0,8.5,0,3,3,0,0,0,1.76-2.46Z" style="fill:#37474f"></path><path d="M239.73,129.74c-.42,2.5-5.55,3.74-7.63,3.12a9.49,9.49,0,0,0,7.88-.3,3,3,0,0,0,1.76-2.46,6,6,0,0,0-6-6C237.19,124.09,240.16,127.23,239.73,129.74Z" style="fill:#263238"></path><path d="M219,78.1l-1-1.2,3.66-3.18a.79.79,0,0,1,1.12.08h0a.79.79,0,0,1-.08,1.12Z"></path><path d="M221.24,80.12c.87-1.1.11-3.12-.9-4.28s-2.9-2.19-4.11-1.47-3.6,2.46-3.6,2.46l5.67,6.52S220.36,81.22,221.24,80.12Z" style="fill:#37474f"></path><path d="M218.46,74.45c1.28,1.48,1.81,4.28-2,6.84l1.79,2.06s2.06-2.13,2.94-3.23.11-3.12-.9-4.28A5.72,5.72,0,0,0,218.46,74.45Z" style="fill:#263238"></path><path d="M209.37,106.05c4.88-4.24,12.8-20.32,7.12-26.85s-22.71-.89-27.58,3.35" style="fill:#BA68C8"></path><path d="M209.37,106.05c4.88-4.24,12.8-20.32,7.12-26.85s-22.71-.89-27.58,3.35" style="opacity:0.2"></path><path d="M187.86,89.52c-1.76-6.54,1.86-9.69,8.09-7s12.71,10.09,14.47,16.62-1.86,9.69-8.09,7S189.62,96.05,187.86,89.52Z" style="fill:#BA68C8"></path><path d="M187.86,89.52c-1.76-6.54,1.86-9.69,8.09-7s12.71,10.09,14.47,16.62-1.86,9.69-8.09,7S189.62,96.05,187.86,89.52Z" style="opacity:0.5"></path><path d="M208.17,94.78l.32-.31a31.13,31.13,0,0,0-8.34-9.53l-.32.26a6.35,6.35,0,1,0,8.34,9.58Z" style="fill:#BA68C8"></path><path d="M208.17,94.78l.32-.31a31.13,31.13,0,0,0-8.34-9.53l-.32.26a6.35,6.35,0,1,0,8.34,9.58Z" style="fill:#fff;opacity:0.7000000000000001"></path></g><g id="freepik--Image--inject-7"><path d="M336.75,72.85l47.77,27.59a2.45,2.45,0,0,1,1.12,1.93v45.52a2.45,2.45,0,0,1-1.12,1.93l-.71.41a2.44,2.44,0,0,1-2.23,0L333.8,122.64a2.47,2.47,0,0,1-1.11-1.93V75.19a2.46,2.46,0,0,1,1.12-1.93l.71-.41A2.44,2.44,0,0,1,336.75,72.85Z" style="fill:#e0e0e0"></path><path d="M332.73,74.86c.14-.46.57-.61,1.08-.31l47.77,27.59a2.26,2.26,0,0,1,.79.83l2.94-1.7a2.26,2.26,0,0,0-.79-.83L336.75,72.85a2.52,2.52,0,0,0-2.24,0l-.7.41A2.43,2.43,0,0,0,332.73,74.86Z" style="fill:#fff"></path><path d="M333.81,74.55l47.77,27.59a2.45,2.45,0,0,1,1.12,1.93v45.52c0,.71-.5,1-1.12.64L333.8,122.64a2.47,2.47,0,0,1-1.11-1.93V75.19C332.69,74.48,333.19,74.19,333.81,74.55Z" style="fill:#f5f5f5"></path><polygon points="379.75 104.48 335.63 79 335.63 119.79 379.75 145.27 379.75 104.48" style="fill:#BA68C8"></polygon><polygon points="379.75 104.48 335.63 79 335.63 119.79 379.75 145.27 379.75 104.48" style="fill:#fff;opacity:0.75"></polygon><polygon points="379.75 131.67 367.21 110.01 350.03 122.82 354.21 118.19 345.1 106.12 335.63 112.13 335.63 119.79 379.75 145.27 379.75 131.67" style="fill:#BA68C8"></polygon><path d="M348.89,93.89a6.52,6.52,0,0,1,2.94,5.1c0,1.88-1.32,2.64-2.94,1.7a6.5,6.5,0,0,1-2.95-5.1C345.94,93.71,347.26,93,348.89,93.89Z" style="fill:#BA68C8"></path></g></g></g><g id="freepik--pen-tool--inject-7"><g id="freepik--pen-tool--inject-7"><path d="M423.66,157.71a5.55,5.55,0,0,1,2.32,4.43c0,1.52-.83,2.3-1.91,1.93v32.26l11.76-24.67a2.12,2.12,0,0,0,0-1.51,75.19,75.19,0,0,1-5.91-22.54,1.77,1.77,0,0,0-.79-1.24l-11-6.34a.49.49,0,0,0-.8.41c-.73,6.87-2.84,12-5.69,15.39a1.72,1.72,0,0,0-.3,1.42c1.66,5.37,11.18,36.35,11.88,38.61V163.6a5.74,5.74,0,0,1-1.91-4.14C421.35,157.75,422.38,157,423.66,157.71Z" style="fill:#BA68C8"></path><path d="M406,160.35,417.88,199l.81-.47v.94l5.38-3.1,11.76-24.67a2.12,2.12,0,0,0,0-1.51,75.19,75.19,0,0,1-5.91-22.54,1.77,1.77,0,0,0-.79-1.24l-11-6.34a1.57,1.57,0,0,0-1.43,0l-3.95,2.28a1.85,1.85,0,0,0-.8,1.23c-.73,6.88-2.84,12-5.68,15.4A1.67,1.67,0,0,0,406,160.35Z" style="fill:#BA68C8"></path><path d="M416,162.57a5.74,5.74,0,0,0,1.91,4.14V199l.81-.47V167.18c1.08.37,1.91-.42,1.91-1.94a5.57,5.57,0,0,0-2.32-4.43C417,160.08,416,160.86,416,162.57Z" style="opacity:0.2"></path><path d="M406,160.35,417.88,199V166.71a5.74,5.74,0,0,1-1.91-4.14c0-1.71,1-2.49,2.31-1.76a5.57,5.57,0,0,1,2.32,4.43c0,1.52-.83,2.31-1.91,1.94v32.25l11.75-24.66a2.07,2.07,0,0,0,0-1.51,75.25,75.25,0,0,1-5.91-22.55,1.79,1.79,0,0,0-.79-1.24l-11-6.34a.5.5,0,0,0-.8.41c-.73,6.88-2.84,12-5.68,15.4A1.67,1.67,0,0,0,406,160.35Z" style="fill:#BA68C8"></path><path d="M424.34,150.08a1.59,1.59,0,0,1,.22.63,75.25,75.25,0,0,0,5.91,22.55,2,2,0,0,1,.13.83L436,171a2,2,0,0,0-.13-.83,75.26,75.26,0,0,1-5.91-22.54,1.63,1.63,0,0,0-.22-.64Z" style="opacity:0.1"></path><path d="M412,143.43a.48.48,0,0,1,.77-.3l11,6.35a1.65,1.65,0,0,1,.57.6l5.38-3.11a1.81,1.81,0,0,0-.56-.6l-11-6.34a1.57,1.57,0,0,0-1.43,0l-3.95,2.28A1.8,1.8,0,0,0,412,143.43Z" style="opacity:0.30000000000000004"></path><path d="M432.36,136.52l-17.39-10a1.59,1.59,0,0,0-1.44,0l-3.95,2.28a1.59,1.59,0,0,0-.71,1.24v7.66a1.57,1.57,0,0,0,.71,1.24L427,149a1.57,1.57,0,0,0,1.43,0l3.95-2.28a1.6,1.6,0,0,0,.72-1.24v-7.67A1.61,1.61,0,0,0,432.36,136.52Z" style="fill:#BA68C8"></path><path d="M408.87,129.88c.05-.37.35-.5.72-.29l17.39,10a1.42,1.42,0,0,1,.5.53l5.39-3.1a1.56,1.56,0,0,0-.51-.54l-17.39-10a1.59,1.59,0,0,0-1.44,0l-3.94,2.28A1.6,1.6,0,0,0,408.87,129.88Z" style="fill:#fff;opacity:0.5"></path><path d="M427.09,149h.06l.05,0,.07,0,.08,0h.06l.13,0a1.5,1.5,0,0,0,.87-.16l3.95-2.28a1.6,1.6,0,0,0,.72-1.24v-7.67a1.45,1.45,0,0,0-.21-.7l-5.39,3.1a1.4,1.4,0,0,1,.22.71v7.66c0,.33-.17.52-.4.52l-.1,0A.23.23,0,0,1,427.09,149Z" style="opacity:0.2"></path><path d="M418.69,199.43l5.38-3.1,11.75-24.67A2,2,0,0,0,436,171l-5.38,3.11a1.79,1.79,0,0,1-.16.68Z" style="opacity:0.2"></path><path d="M417.88,166.71V199l.81-.47V167.18c1.08.37,1.91-.41,1.91-1.93v-.11Z" style="opacity:0.15"></path><path d="M393,157.43c0-.87.62-1.23,1.38-.79a3.05,3.05,0,0,1,1.37,2.38c0,.71-.41,1.07-1,.95.77,16.2,12.11,35.3,25.95,43.28,6.87,4,13.32,4.62,18.14,1.84,4.56-2.64,7.18-8.05,7.46-15.33a3.11,3.11,0,0,1-1-2.08c0-.88.62-1.23,1.37-.8a3.05,3.05,0,0,1,1.38,2.38c0,.75-.45,1.12-1.05.93-.37,7.34-3.11,12.82-7.81,15.53a13.88,13.88,0,0,1-7,1.8,24.23,24.23,0,0,1-11.88-3.63c-14.15-8.17-25.73-27.81-26.33-44.33A3,3,0,0,1,393,157.43Z" style="fill:#455a64"></path><path d="M394.39,186.94a3,3,0,0,1,1.31,1.92l49.74,28.72c.18-.54.69-.71,1.3-.36a3.05,3.05,0,0,1,1.38,2.38c0,.88-.62,1.24-1.38.8a3.07,3.07,0,0,1-1.33-2L395.7,189.71c-.16.57-.68.76-1.31.4a3,3,0,0,1-1.38-2.38C393,186.85,393.63,186.5,394.39,186.94Z" style="fill:#455a64"></path><path d="M444.83,188.45a1.95,1.95,0,1,0,1.95-1.95A1.95,1.95,0,0,0,444.83,188.45Z" style="fill:#455a64"></path><path d="M444.9,218.77a2,2,0,1,0,2-2A2,2,0,0,0,444.9,218.77Z" style="fill:#455a64"></path><path d="M392.32,188.57a2,2,0,1,0,2-1.95A2,2,0,0,0,392.32,188.57Z" style="fill:#455a64"></path><path d="M392.5,158.19a2,2,0,1,0,2-2A2,2,0,0,0,392.5,158.19Z" style="fill:#455a64"></path></g></g><g id="freepik--Character--inject-7"><g id="freepik--character--inject-7"><g id="freepik--Legs--inject-7"><path d="M207.57,328.28c-1.24,1.77-.8,5.75-1,7.42s-.17,3.32-.33,4.95c-.19,1.85-.36,3.39.62,5.11a8.62,8.62,0,0,0,6.4,3.89,19.19,19.19,0,0,0,7.66-.86,68,68,0,0,1,7.51-2c6.4-1,12.72.85,19.07-1.11a45,45,0,0,0,4.36-1.67,31.53,31.53,0,0,0,3.8-1.82c3-1.83,7.32-5.72,6.9-9.55-.37-3.43-2.53-5.74-6.55-5.56-5.18.22-10.31,1.4-15.49,1.28a66.77,66.77,0,0,1-9.8-.8c-3.58-.63-6.78-1.49-7.18-3.47-.63-3.13-7.55.1-10.32,1.45-.89.43-1.72,1-2.61,1.41a13.46,13.46,0,0,1-2.06.51A1.91,1.91,0,0,0,207.57,328.28Z" style="fill:#263238"></path><path d="M205,317.47l17.66-5.58s.21,9.27,1.06,11.5,3.45,3.58,7,4.21a66.77,66.77,0,0,0,9.8.8,41.8,41.8,0,0,0,4.19-.14h0c4.61-.48,9.51,3.45,2.85,6.62-6,2.85-14.43,2.43-21,2.8s-17.44-2.86-19.09-7.74h0Z" style="fill:#ffa8a7"></path><path d="M218.14,253.41c4,16.28,4.88,65.67,4.88,65.67S214,323.91,205.69,321L191,263.84Z" style="fill:#37474f"></path><path d="M246.84,351.21c-1.23,1.78-.8,5.76-1,7.42s-.17,3.33-.34,4.95c-.18,1.86-.36,3.4.63,5.11a8.58,8.58,0,0,0,6.4,3.9,19.42,19.42,0,0,0,7.66-.86,69.51,69.51,0,0,1,7.5-2c6.41-1,12.73.86,19.08-1.1,1.48-.46,2.92-1.07,4.35-1.67a28.88,28.88,0,0,0,3.8-1.83c3-1.83,7.32-5.71,6.91-9.55-.38-3.42-2.53-5.73-6.56-5.56-5.18.23-10.3,1.4-15.48,1.28a67,67,0,0,1-9.81-.79c-3.58-.63-6.78-1.49-7.18-3.47-.63-3.14-7.54.09-10.32,1.45-.88.43-1.72,1-2.6,1.41a14.87,14.87,0,0,1-2.07.51A2,2,0,0,0,246.84,351.21Z" style="fill:#263238"></path><path d="M243.89,336.63l15.48-5.54,3.45,16c.4,2,3.6,2.84,7.18,3.47a67,67,0,0,0,9.81.79,39.1,39.1,0,0,0,4.19-.13h0c4.62-.47,9.52,3.46,2.85,6.63-6,2.84-14.43,2.43-21,2.8s-20.11-.72-19.08-7.74h0Z" style="fill:#ffa8a7"></path><path d="M252,268c6.83,9.67,9.71,73.34,9.71,73.34s-8.19,8.53-16,5.5l-19.6-55.48Z" style="fill:#455a64"></path><path d="M227.05,293.9s14.33-5.31,17.72-9.15c0,0-7.35,10.56-16.33,12.87Z" style="opacity:0.15"></path></g><path d="M170,436.66a1.62,1.62,0,0,0,1.62-1.63V330.69a1.62,1.62,0,1,0-3.24,0V435A1.62,1.62,0,0,0,170,436.66Z" style="fill:#455a64"></path><path d="M105.39,398.68a1.63,1.63,0,0,0,1.51-1l32-81a1.62,1.62,0,1,0-3-1.19l-32,81a1.63,1.63,0,0,0,1.51,2.22Z" style="fill:#455a64"></path><path d="M109.23,389a1.61,1.61,0,0,0,1.18-.51l59.54-63,59.43,62.73a1.62,1.62,0,1,0,2.36-2.23l-60.61-64a1.66,1.66,0,0,0-1.18-.51h0a1.64,1.64,0,0,0-1.18.51l-60.72,64.25a1.62,1.62,0,0,0,1.18,2.74Z" style="fill:#455a64"></path><path d="M234.51,398.68a1.52,1.52,0,0,0,.59-.12,1.62,1.62,0,0,0,.92-2.1l-32-81a1.62,1.62,0,0,0-3,1.19l32,81A1.62,1.62,0,0,0,234.51,398.68Z" style="fill:#455a64"></path><path d="M235.29,294.9c1.16-6.54-4.17-11.65-14.2-18.42A236.54,236.54,0,0,0,192,260.15c-8.39-3.85-17-3.5-27.72,2-14.93,7.67-59.85,34.91-59.85,34.91S171.61,335,184.53,333.3s45.22-22.7,47.78-30.1S235.29,294.9,235.29,294.9Z" style="fill:#BA68C8"></path><g style="opacity:0.4"><path d="M235.29,294.9c1.16-6.54-4.17-11.65-14.2-18.42A236.54,236.54,0,0,0,192,260.15c-8.39-3.85-17-3.5-27.72,2-14.93,7.67-59.85,34.91-59.85,34.91S171.61,335,184.53,333.3s45.22-22.7,47.78-30.1S235.29,294.9,235.29,294.9Z"></path></g><path d="M178.05,325.33c9.64,8.72,19.72,1.21,35.66-9.14,18-11.7,21.58-21.29,21.58-21.29s0,7.18-1.35,10.55-4.26,7.18-17.27,16.15-22.44,13.46-31.19,15.13l-6.9-1" style="fill:#BA68C8"></path><path d="M213.71,316.19c18-11.7,21.58-21.29,21.58-21.29s0,7.18-1.35,10.55-4.26,7.18-17.27,16.15-22.44,13.46-31.19,15.13l-6.9-1-.53-10.44C187.69,334.05,197.77,326.54,213.71,316.19Z" style="opacity:0.5"></path><path d="M107.59,386.45l-4.23,11.16a1.43,1.43,0,0,0,0,.29.67.67,0,0,0,0,.2,1.25,1.25,0,0,0,.63.7,2.8,2.8,0,0,0,2.58,0,1.12,1.12,0,0,0,.5-.52s0,0,0,0l0-.15L111,387.64Z" style="fill:#BA68C8"></path><path d="M232.3,386.45l4.23,11.16a1,1,0,0,1,0,.29.67.67,0,0,1,0,.2,1.31,1.31,0,0,1-.64.7,2.78,2.78,0,0,1-2.57,0,1.07,1.07,0,0,1-.5-.52s0,0,0,0l0-.15-3.92-10.47Z" style="fill:#BA68C8"></path><path d="M168.08,427v9.23a.92.92,0,0,0,.54.76,2.88,2.88,0,0,0,2.65,0,.91.91,0,0,0,.55-.76V427A3.94,3.94,0,0,0,168.08,427Z" style="fill:#BA68C8"></path><g id="freepik--character--inject-7"><g id="freepik--character--inject-7"><path d="M124.83,273.93s42-18,50.58-22.26,24.13-10.6,32.26-8.49c5.49,1.43,8.64,3.38,10.58,10.61.37,1.35,2.12,14.21,2.12,14.21s-23.37,11-44,15.12S124.83,273.93,124.83,273.93Z" style="fill:#37474f"></path><path d="M124.83,273.93c-5.2,21.87,8.43,34.13,16.6,38.85,7.17,4.14,25.92,14.14,45.9,6.09,13.34-5.38,49.33-29.12,49.33-29.12,3.89-6.32,18.83-8.38,17.72-13.44-.27-1.27-.38-2.63-.75-4-1.82-6.88-8.31-16.48-22.79-13.16-8.89,2-25.49,8-40.2,12.63-3.36,1.05-8.25-3.52-11-2.53-6.46,2.37-8.1,13.4-8.1,13.4Z" style="fill:#455a64"></path></g><polygon points="173.85 178.01 171.43 200.34 151.8 198.82 153.72 174.04 173.85 178.01" style="fill:#ffa8a7"></polygon><path d="M130.07,263.63c2.14-4.63,4.1-10.21,9.76-19.21-8-25.59-9.17-33.34-8.81-45,.2-6.25,9-16.73,16.6-15.43,2,.34,3.41.43,5.27.78.23,5.13,10.24,6.62,19.85,3.38a80.13,80.13,0,0,1,8.6,2.1c3.5,1.3,18.8,17.71,19.93,29.37.91,9.48-8.77,17.34-8.77,17.34.53,10,.2,23.6,0,41.74,0,0-3,1.09-7.72-1-4.87,7.77-18.36,20.23-33.17,18.57-25.61-2.87-24.86-21.71-24.86-21.71S128.58,266.84,130.07,263.63Z" style="fill:#BA68C8"></path><g style="opacity:0.7000000000000001"><path d="M130.07,263.63c2.14-4.63,4.1-10.21,9.76-19.21-8-25.59-9.17-33.34-8.81-45,.2-6.25,9-16.73,16.6-15.43,2,.34,3.41.43,5.27.78.23,5.13,10.24,6.62,19.85,3.38a80.13,80.13,0,0,1,8.6,2.1c3.5,1.3,18.8,17.71,19.93,29.37.91,9.48-8.77,17.34-8.77,17.34.53,10,.2,23.6,0,41.74,0,0-3,1.09-7.72-1-4.87,7.77-18.36,20.23-33.17,18.57-25.61-2.87-24.86-21.71-24.86-21.71S128.58,266.84,130.07,263.63Z"></path></g><g id="freepik--head--inject-7"><path d="M188.93,151.62s5.56,8.91,4.78,9.81-4.49,1.8-4.49,1.8Z" style="fill:#f28f8f"></path><path d="M175.84,130.61c4.37,2.4,11.9,6.83,13.43,23.18,1.57,16.78-2.31,22.49-4.65,24.62-1.58,1.44-9.54,1.77-13.64.37-5.14-1.75-16.23-7.6-21.26-16.37-5.92-10.32-6.84-23.9.45-29C160.43,126.2,172.15,128.58,175.84,130.61Z" style="fill:#ffa8a7"></path><path d="M173.7,179.4a21.53,21.53,0,0,0,10-.5h0a21.67,21.67,0,0,1-9.78-2.25Z" style="fill:#f28f8f"></path></g><path d="M193.37,128.85A8.15,8.15,0,0,0,185,124.3a8.93,8.93,0,0,0-4.95-9.77,11.67,11.67,0,0,0-6.87-.55,34.85,34.85,0,0,0-6.62,2.23c-4.9,2-9.77,4.12-14.71,6.07a43.71,43.71,0,0,0-7.09,3.27,20.79,20.79,0,0,0-9.3,12.08,26.75,26.75,0,0,0-.78,9.3,38.48,38.48,0,0,0,3.11,11.68,45.13,45.13,0,0,0,6.43,10,71.62,71.62,0,0,0,9.2,9c5.87,2.81,12.74.91,12.74.91a47.29,47.29,0,0,0,8.8-12.8,7.32,7.32,0,0,1-3.5.3,8.35,8.35,0,0,1-4.43-2.24c-4-3.62-4.25-10.5,1-12.07s7.06,5.64,7.06,5.64c3.32-1.43,2.36-5.63,2.76-8a16.59,16.59,0,0,0,7.73-9.37,28,28,0,0,1,1.84,4.34c2-1.71,4.06-3.38,5.38-5.69A10.73,10.73,0,0,0,193.37,128.85Z" style="fill:#BA68C8"></path><path d="M193.37,128.85A8.15,8.15,0,0,0,185,124.3a8.93,8.93,0,0,0-4.95-9.77,11.67,11.67,0,0,0-6.87-.55,34.85,34.85,0,0,0-6.62,2.23c-4.9,2-9.77,4.12-14.71,6.07a43.71,43.71,0,0,0-7.09,3.27,20.79,20.79,0,0,0-9.3,12.08,26.75,26.75,0,0,0-.78,9.3,38.48,38.48,0,0,0,3.11,11.68,45.13,45.13,0,0,0,6.43,10,71.62,71.62,0,0,0,9.2,9c5.87,2.81,12.74.91,12.74.91a47.29,47.29,0,0,0,8.8-12.8,7.32,7.32,0,0,1-3.5.3,8.35,8.35,0,0,1-4.43-2.24c-4-3.62-4.25-10.5,1-12.07s7.06,5.64,7.06,5.64c3.32-1.43,2.36-5.63,2.76-8a16.59,16.59,0,0,0,7.73-9.37,28,28,0,0,1,1.84,4.34c2-1.71,4.06-3.38,5.38-5.69A10.73,10.73,0,0,0,193.37,128.85Z" style="opacity:0.4"></path></g><path d="M178.58,335.77c-5.49-.27-9.79-4.3-22.84-9.74-24.11-10-42.18-18.08-49.07-30.71s-11.77-49.06-10-64.85a20.37,20.37,0,0,1,1.18-5.23l-1.7-.25,4.39-3.73h0c4.51-3.68,11.84-.4,17.36,2.6,15.78,8.59,28.12,16.93,37.88,47.06,7.34,22.67,12.18,43.34,22.31,54.4" style="fill:#BA68C8"></path><path d="M97.81,225.24l-1.7-.25,4.39-3.73h0c4.51-3.68,11.84-.4,17.36,2.6,15.78,8.59,28.12,16.93,37.88,47.06,7.34,22.67,12.18,43.34,22.31,54.4l.53,10.44c-5.49-.27-9.79-4.3-22.84-9.74-24.11-10-42.18-18.08-49.07-30.71s-11.77-49.06-10-64.85A20.37,20.37,0,0,1,97.81,225.24Z" style="opacity:0.30000000000000004"></path><path d="M113.29,227.75c15.78,8.59,28.12,16.93,37.87,47.06s15.1,56.75,34.32,61.92c0,0-8.69,3.45-35.33-7.81-8.48-3.59-18.76-10.13-25.52-13.92-13.24-7.43-21.26-13.52-22.53-15.79-7-12.57-11.77-49.07-10-64.86S105.38,223.45,113.29,227.75Z" style="fill:#BA68C8"></path><g id="freepik--Arm--inject-7"><path d="M271.68,237.83a.24.24,0,0,0,.27-.1l1.2-2a.24.24,0,0,0-.41-.25l-1.2,2a.23.23,0,0,0,.08.32Z" style="fill:#263238"></path><path d="M277.37,233.45l-4.16,3.21a.81.81,0,0,1-1.27-.85l1.36-5.11Z" style="fill:#BA68C8"></path><g style="opacity:0.2"><path d="M277.37,233.45l-4.16,3.21a.81.81,0,0,1-1.27-.85l1.36-5.11Z"></path></g><path d="M290.07,205.44a1.26,1.26,0,0,1,1.39-.32c1.5.39,3.46,2.15,2.61,3.22l-16.7,25.11a3.19,3.19,0,0,1-2.88-.8,3.12,3.12,0,0,1-1.19-2Z" style="fill:#BA68C8"></path><path d="M290.07,205.44a1.26,1.26,0,0,1,1.39-.32c1.5.39,3.46,2.15,2.61,3.22l-16.7,25.11a3.19,3.19,0,0,1-2.88-.8,3.12,3.12,0,0,1-1.19-2Z" style="fill:#BA68C8"></path><path d="M291.46,205.12a1.26,1.26,0,0,0-1.39.32c-.25.38.12,1.45,1.26,2.24,1.39.95,2.49,1,2.81.55C294.79,207.15,292.91,205.5,291.46,205.12Z" style="fill:#BA68C8"></path><path d="M291.46,205.12a1.26,1.26,0,0,0-1.39.32c-.25.38.12,1.45,1.26,2.24,1.39.95,2.49,1,2.81.55C294.79,207.15,292.91,205.5,291.46,205.12Z" style="opacity:0.2"></path><path d="M292.82,203.87a1,1,0,1,1,1.74,1.13l-1.33,2h0a.5.5,0,0,1-.49.19,1.59,1.59,0,0,1-1.23-.8.49.49,0,0,1,0-.52h0Z" style="fill:#37474f"></path><path d="M283.45,224.31s-1,1.58-1.89,2.84c-.71,1-1.1,1.5-1.61,1.62a4.34,4.34,0,0,1-4.06-2l1.31-2a11.4,11.4,0,0,0-4,.12,8.71,8.71,0,0,0-5.44,4.93c-2,4.56-1.62,5.27-7.28,5.68s-35.57.9-35.57.9h0c-3.56-4.13-16.68-19.36-21.74-25.39-5.88-7-17-22.39-21.81-20.83s-9.3,16.21-2.8,27.5c5.76,10,25.73,27.74,33.88,34.93.87.8,1.66,1.49,2.38,2.09l.14.13h0c5,4.07,7.16,3.57,13.14,2.42,7.14-1.37,40.85-8.21,47.6-11.2s12.87-11.1,12.85-15.21S283.45,224.31,283.45,224.31Z" style="fill:#ffa8a7"></path></g></g></g><g id="freepik--Icons--inject-7"><g id="freepik--ai-icon--inject-7"><path d="M75.23,47.88a8.29,8.29,0,0,0-3.75-6.49h0a8.24,8.24,0,0,0-7.49,0L35.51,57.7a8.28,8.28,0,0,0-3.75,6.49V94.93a8.31,8.31,0,0,0,3.75,6.5h0a8.3,8.3,0,0,0,7.49,0L71.83,84.86c3.37-1.92,3.4-3.84,3.4-6.24Z" style="fill:#37474f"></path><path d="M31.76,94.93a8.31,8.31,0,0,0,3.75,6.5h0a8.34,8.34,0,0,0,6.85.31c-1.76.67-3.1-.34-3.1-2.48V68.51a7.73,7.73,0,0,1,1.09-3.69L32.86,60.5a7.63,7.63,0,0,0-1.1,3.69Z" style="fill:#263238"></path><path d="M75.11,46.82c-.44-1.59-1.89-2.1-3.62-1.1L43,62a7.52,7.52,0,0,0-2.64,2.8l-7.49-4.31a7.52,7.52,0,0,1,2.64-2.8L64,41.4a8.32,8.32,0,0,1,7.5,0h0A8.27,8.27,0,0,1,75.11,46.82Z" style="fill:#455a64"></path><path d="M67.57,55.55a5,5,0,0,1-2.07,4.16c-1.22.7-2-.16-2-1.81a4.82,4.82,0,0,1,2-4.17C66.77,53,67.54,53.85,67.57,55.55Z" style="fill:#BA68C8"></path><polygon points="67.44 60.93 67.09 80.17 63.07 82.49 63.43 63.24 67.44 60.93" style="fill:#BA68C8"></polygon><path d="M56.48,60l-5,2.92L46.21,92.21l4-2.31,1.23-7.43,4.87-2.82,1.32,6,4.14-2.39ZM52,77.7s1.54-10,1.79-11.67l0,0c.25,1.43,1.93,9.52,1.93,9.52Z" style="fill:#BA68C8"></path></g><g id="freepik--ps-icon--inject-7"><path d="M173.51,48.57a8.28,8.28,0,0,0-3.75-6.49h0a8.32,8.32,0,0,0-7.5,0l-28.47,16.3a8.31,8.31,0,0,0-3.75,6.5V95.62a8.28,8.28,0,0,0,3.75,6.49h0a8.26,8.26,0,0,0,7.5,0l28.83-16.55c3.37-1.92,3.4-3.85,3.4-6.24Z" style="fill:#37474f"></path><path d="M130,95.62a8.28,8.28,0,0,0,3.75,6.49h0a8.36,8.36,0,0,0,6.86.32c-1.76.67-3.11-.34-3.11-2.48V69.2a7.6,7.6,0,0,1,1.1-3.69l-7.49-4.33a7.67,7.67,0,0,0-1.1,3.7Z" style="fill:#263238"></path><path d="M173.38,47.5c-.43-1.59-1.88-2.09-3.62-1.1L141.28,62.71a7.44,7.44,0,0,0-2.64,2.8l-7.49-4.32a7.6,7.6,0,0,1,2.64-2.8l28.47-16.31a8.39,8.39,0,0,1,7.5,0h0A8.25,8.25,0,0,1,173.38,47.5Z" style="fill:#455a64"></path><path d="M167.28,74.54a10.31,10.31,0,0,1-5.16,8.91,5.62,5.62,0,0,1-3.84.94l.66-4.46a4.33,4.33,0,0,0,3.18-.46A2.76,2.76,0,0,0,163.7,77c0-.93-.36-1.16-1.74-1.09-2.47.16-3.42-1.36-3.39-3.55a10.51,10.51,0,0,1,4.84-8.79,5.4,5.4,0,0,1,3.36-.89L166.12,67a3.64,3.64,0,0,0-2.58.44,2.66,2.66,0,0,0-1.41,2.31c0,.86.46,1,1.91,1C166.31,70.64,167.25,71.86,167.28,74.54Z" style="fill:#BA68C8;fill-rule:evenodd"></path><path d="M155.81,63.19c-1.09-.72-2.72-.45-5,.87a36.06,36.06,0,0,0-5,3.42V92.39l3.67-2.11v-9a8.68,8.68,0,0,0,1.27-.63,13.29,13.29,0,0,0,5.32-5.73A15.74,15.74,0,0,0,157.57,68C157.57,65.55,156.87,63.85,155.81,63.19ZM150.7,76.25a5,5,0,0,1-1.23.57V69.37A7.42,7.42,0,0,1,151,68.26c1.86-1.07,2.9-.29,2.91,2A6.76,6.76,0,0,1,150.7,76.25Z" style="fill:#BA68C8;fill-rule:evenodd"></path></g><g id="freepik--sketch-icon--inject-7"><path d="M113.77,102.15A8.28,8.28,0,0,0,110,95.66h0a8.32,8.32,0,0,0-7.5,0L74.05,112a8.28,8.28,0,0,0-3.75,6.49V149.2a8.28,8.28,0,0,0,3.75,6.49h0a8.32,8.32,0,0,0,7.5,0l28.83-16.56c3.37-1.92,3.4-3.85,3.4-6.24Z" style="fill:#37474f"></path><path d="M70.3,149.2a8.28,8.28,0,0,0,3.75,6.49h0a8.4,8.4,0,0,0,6.86.31c-1.76.67-3.11-.34-3.11-2.48V122.78a7.63,7.63,0,0,1,1.1-3.69l-7.49-4.32a7.6,7.6,0,0,0-1.1,3.69Z" style="fill:#263238"></path><path d="M113.64,101.09c-.43-1.59-1.88-2.1-3.62-1.11L81.54,116.29a7.44,7.44,0,0,0-2.64,2.8l-7.49-4.32A7.49,7.49,0,0,1,74.05,112l28.47-16.31a8.32,8.32,0,0,1,7.5,0h0A8.25,8.25,0,0,1,113.64,101.09Z" style="fill:#455a64"></path><polygon points="88.94 120.57 88.94 126.52 93.9 116.47 88.94 120.57" style="fill:#BA68C8"></polygon><polygon points="102.22 112.76 96.7 114.57 102.22 119.38 102.22 112.76" style="fill:#BA68C8"></polygon><polygon points="101.81 120.53 95.76 115.25 89.7 127.53 90.15 127.27 95.29 124.3 101.81 120.53" style="fill:#BA68C8"></polygon><polygon points="84.97 131.57 93.42 140.08 88.14 129.74 84.97 131.57" style="fill:#BA68C8"></polygon><polygon points="98.95 134.41 105.84 119.52 103.26 121.01 98.95 134.41" style="fill:#BA68C8"></polygon><polygon points="95.46 141.57 101.79 121.86 89.12 129.18 95.46 141.57" style="fill:#BA68C8"></polygon><polygon points="87.8 123.33 85.16 130.15 87.75 128.65 87.8 128.63 87.8 123.33" style="fill:#BA68C8"></polygon><polygon points="103.47 119.58 106.29 117.95 103.35 113.77 103.35 119.65 103.47 119.58" style="fill:#BA68C8"></polygon></g></g></svg>