<svg xmlns="http://www.w3.org/2000/svg" viewBox="0 0 500 500"><g id="freepik--background-complete--inject-82"><rect x="46.11" y="334.62" width="26.48" height="11.19" style="fill:#ebebeb"></rect><rect x="31.34" y="348.73" width="26.48" height="11.19" style="fill:#ebebeb"></rect><rect x="258.21" y="150.47" width="26.48" height="11.19" style="fill:#ebebeb"></rect><rect x="243.44" y="164.58" width="26.48" height="11.19" style="fill:#ebebeb"></rect><rect x="228.73" y="150.47" width="26.48" height="11.19" style="fill:#ebebeb"></rect><rect x="442.18" y="348.73" width="26.48" height="11.19" style="fill:#ebebeb"></rect><rect x="427.41" y="33.33" width="26.48" height="11.19" style="fill:#ebebeb"></rect><rect x="442.18" y="47.44" width="26.48" height="11.19" style="fill:#ebebeb"></rect><rect x="46.11" y="33.33" width="26.48" height="11.19" style="fill:#ebebeb"></rect><path d="M446.27,158.52a29,29,0,0,1-43.19-18.29,29,29,0,1,1,43.19,18.29Z" style="fill:#ebebeb"></path><path d="M440.18,130.47a8.83,8.83,0,1,1-8.72-8.93A8.84,8.84,0,0,1,440.18,130.47Z" style="fill:#fff"></path><path d="M446.31,154.88l0,3.64a29,29,0,0,1-30.49-.38l0-3.62a15.25,15.25,0,0,1,30.49.36Z" style="fill:#fff"></path><path d="M72.46,307.2a21.62,21.62,0,1,1,9.93-23.41A21.56,21.56,0,0,1,72.46,307.2Z" style="fill:#ebebeb"></path><path d="M67.92,286.27a6.58,6.58,0,1,1-6.5-6.66A6.59,6.59,0,0,1,67.92,286.27Z" style="fill:#fff"></path><path d="M72.49,304.48l0,2.72a21.6,21.6,0,0,1-22.74-.28l0-2.71a11.37,11.37,0,0,1,22.74.27Z" style="fill:#fff"></path><path d="M420.49,78.11V390.89c0,8.84-6.62,16-14.79,16h-146c-8.18,0-14.8-7.15-14.8-16V78.11c0-18,6.62-18.88,14.8-18.88H289c1.69,0,3.08,1.93,3.08,4.32v1c0,5.61,3.07,5.63,6.84,5.63h67.62c3.8,0,6.85,0,6.85-5.63v-1c0-2.39,1.37-4.32,3.1-4.32H405.7C413.87,59.23,420.49,61.62,420.49,78.11Z" style="fill:#ebebeb"></path><path d="M341.93,62.93H323.48a1.14,1.14,0,0,1-1.14-1.14h0a1.14,1.14,0,0,1,1.14-1.14h18.45a1.14,1.14,0,0,1,1.14,1.14h0A1.14,1.14,0,0,1,341.93,62.93Z" style="fill:#fff"></path><g id="freepik--u5Zjqx--inject-82"><path d="M284.36,66l-.28.28a1.21,1.21,0,0,0-.16.16,3.85,3.85,0,0,0-5.45,0l-.15-.16L278,66h0l0,0,.36-.31a4,4,0,0,1,.82-.53,4.32,4.32,0,0,1,1.1-.37l.55-.07h.48l.37,0a4.29,4.29,0,0,1,1,.24,3.51,3.51,0,0,1,.68.32,4.18,4.18,0,0,1,.65.45l.3.27Z" style="fill:#fff"></path><path d="M279.37,67.3l-.45-.44a3.22,3.22,0,0,1,4.55,0l-.45.44a2.6,2.6,0,0,0-3.65,0Z" style="fill:#fff"></path><path d="M282.57,67.75c-.14.15-.29.29-.44.44a1.31,1.31,0,0,0-.94-.38,1.27,1.27,0,0,0-.93.39l-.45-.45A1.94,1.94,0,0,1,282.57,67.75Z" style="fill:#fff"></path><path d="M281.6,68.6a.41.41,0,1,1-.41-.4A.4.4,0,0,1,281.6,68.6Z" style="fill:#fff"></path></g><path d="M256.81,66.83A1.17,1.17,0,1,1,258,68,1.16,1.16,0,0,1,256.81,66.83Z" style="fill:#fff"></path><path d="M260.47,66.83A1.17,1.17,0,1,1,261.64,68,1.17,1.17,0,0,1,260.47,66.83Z" style="fill:#fff"></path><path d="M264.14,66.83A1.17,1.17,0,1,1,265.3,68,1.16,1.16,0,0,1,264.14,66.83Z" style="fill:#fff"></path><path d="M267.8,66.83A1.17,1.17,0,1,1,269,68,1.17,1.17,0,0,1,267.8,66.83Z" style="fill:#fff"></path><path d="M271.47,66.83A1.17,1.17,0,1,1,272.63,68,1.16,1.16,0,0,1,271.47,66.83Z" style="fill:#fff"></path><path d="M407.76,69.37h-9.48V65h9.48Zm-9-.48h8.5V65.46h-8.5Z" style="fill:#fff"></path><rect x="399.07" y="65.73" width="6.11" height="2.9" style="fill:#fff"></rect><rect x="407.76" y="66" width="0.84" height="2.35" style="fill:#fff"></rect><circle cx="332.7" cy="365.27" r="14.87" style="fill:#fff"></circle><path d="M332.7,385.15a19.89,19.89,0,1,1,19.89-19.88A19.9,19.9,0,0,1,332.7,385.15Zm0-37.77a17.89,17.89,0,1,0,17.89,17.89A17.91,17.91,0,0,0,332.7,347.38Z" style="fill:#fff"></path><rect x="256.69" y="104.05" width="152.03" height="205.57" style="fill:#fff"></rect><rect x="306.87" y="104.05" width="1" height="205.57" style="fill:#ebebeb"></rect><rect x="357.55" y="104.05" width="1" height="205.57" style="fill:#ebebeb"></rect><rect x="256.69" y="166.95" width="152.03" height="1" style="fill:#ebebeb"></rect><rect x="256.69" y="240.6" width="152.03" height="1" style="fill:#ebebeb"></rect><circle cx="270.32" cy="365.27" r="8.31" transform="translate(-147.44 544.08) rotate(-76.67)" style="fill:#fff"></circle><rect x="366.06" y="358.5" width="14.7" height="2.18" style="fill:#fff"></rect><rect x="366.06" y="364.18" width="14.7" height="2.18" style="fill:#fff"></rect><rect x="366.06" y="369.85" width="14.7" height="2.18" style="fill:#fff"></rect><rect x="369.03" y="357.4" width="1" height="4.38" style="fill:#fff"></rect><rect x="376.84" y="363.08" width="1" height="4.38" style="fill:#fff"></rect><rect x="372.91" y="368.75" width="1" height="4.38" style="fill:#fff"></rect><path d="M403.91,365.27h-1a7.37,7.37,0,0,0-7.36-7.37,7.29,7.29,0,0,0-5.9,3l-.81-.6a8.37,8.37,0,0,1,15.07,5Z" style="fill:#fff"></path><polygon points="391.77 359.84 389.42 360.32 388.93 357.98 388.14 359.18 388.63 361.53 390.98 361.04 391.77 359.84" style="fill:#fff"></polygon><path d="M395.55,373.63a8.38,8.38,0,0,1-8.37-8.36h1a7.37,7.37,0,0,0,13.43,4.19l.82.57A8.4,8.4,0,0,1,395.55,373.63Z" style="fill:#fff"></path><polygon points="399.53 370.56 401.86 369.99 402.43 372.31 403.17 371.08 402.6 368.76 400.27 369.33 399.53 370.56" style="fill:#fff"></polygon></g><g id="freepik--Shadow--inject-82"><ellipse cx="242.57" cy="448.32" rx="207.57" ry="22.83" style="fill:#ebebeb"></ellipse></g><g id="freepik--Floor--inject-82"><polygon points="27.88 407.49 83.41 407.25 138.94 407.16 250 406.99 361.06 407.16 416.59 407.25 472.12 407.49 416.59 407.74 361.06 407.82 250 407.99 138.94 407.82 83.41 407.74 27.88 407.49" style="fill:#263238"></polygon></g><g id="freepik--Plant--inject-82"><path d="M415.93,248.13S438.31,245,433.08,218C433.08,218,408.07,223.59,415.93,248.13Z" style="fill:#278DFF"></path><path d="M415.93,248.13S438.31,245,433.08,218C433.08,218,408.07,223.59,415.93,248.13Z" style="opacity:0.1"></path><path d="M417.06,242.49c.44-1.37.95-2.71,1.52-4,0-.17.05-.34.06-.51l.09-1.11c.07-.81.12-1.62.16-2.42.1-1.62.2-3.23.23-4.85a.07.07,0,1,1,.13,0c0,1.62,0,3.24,0,4.85,0,.81-.08,1.62-.13,2.43,0,.17,0,.35,0,.53a48.23,48.23,0,0,1,4.49-7.67c.77-1.08,1.58-2.11,2.45-3.11s1.83-2,2.73-3c.06-.07.16,0,.1.1a40.18,40.18,0,0,0-4.32,5.73c-.68,1-1.32,2.09-1.93,3.16l.21-.08.8-.32c.6-.23,1.21-.47,1.82-.69l3.61-1.34c.07,0,.12.1,0,.12-1.19.48-2.36,1-3.54,1.49l-1.73.74-.88.37a3.16,3.16,0,0,1-.59.2c-.45.82-.9,1.63-1.31,2.46a58,58,0,0,0-2.74,6.45c0,.15-.1.31-.16.46a12.38,12.38,0,0,1,1.84-.88l2.31-1.06c1.57-.72,3.13-1.45,4.64-2.3.07,0,.14.08.06.12-1.54.84-3,1.73-4.58,2.57-.77.42-1.55.82-2.34,1.21a7.22,7.22,0,0,1-2.1.84,26.52,26.52,0,0,0-1.47,6.35c-.25,3-.22,6.13-.29,9.2,0,.05-.08.05-.08,0-.22-2.77-.35-5.58-.36-8.37A24.23,24.23,0,0,1,417.06,242.49Z" style="fill:#263238"></path><path d="M420.51,226.6a27.07,27.07,0,0,1,.22,4.76,0,0,0,1,1-.07,0c-.09-1.58-.1-3.15-.29-4.73C420.36,226.55,420.5,226.51,420.51,226.6Z" style="fill:#263238"></path><path d="M426.91,228a17,17,0,0,0,2.87-1.41.07.07,0,1,1,.07.12,11.13,11.13,0,0,1-2.91,1.39A.05.05,0,0,1,426.91,228Z" style="fill:#263238"></path><path d="M415.21,291c0-2.47.07-4.94.1-7.42,0-8.21.11-16.43.26-24.64q.18-9.78.45-19.56a.11.11,0,0,1,.06-.09l0-5.34s.05-.07.11-.07.1,0,.1.07c0,1.79,0,3.57,0,5.35,0,0,.05,0,.05.08.33,11.61.62,23.22.69,34.83,0,2.36,0,4.72,0,7.08q.12,11.35.09,22.7c0,1.21,0,2.41,0,3.62,0,6.92-.07,13.85-.07,20.77,0,.38-.41.56-.85.58s-1-.18-1-.61c0-7.63,0-15.27,0-22.91Q415.17,298.26,415.21,291Z" style="fill:#263238"></path><path d="M424.56,283.52s10.77-8,21-2.59,11.82,26.17,11.82,26.17-15,2.15-24.46-6.85C423.81,291.58,424.56,283.52,424.56,283.52Z" style="fill:#278DFF"></path><path d="M421.63,284a12.79,12.79,0,0,1,6.23-.81,8.43,8.43,0,0,1,1.32-.13l1.52-.12,3.14-.22c2.12-.16,4.25-.29,6.37-.5.08,0,.1.13,0,.14-2.1.26-4.19.56-6.29.77-1.08.11-2.17.23-3.25.3l-.79.08q.48.11,1,.24a25.09,25.09,0,0,1,4.88,2c.84.15,1.69.39,2.52.58,1.33.32,2.66.66,4,1,2.62.68,5.2,1.45,7.8,2.21.08,0,0,.15,0,.13-2.59-.64-5.2-1.22-7.8-1.84l-3.78-.9-1-.23a31.46,31.46,0,0,1,7.65,6.65,41.75,41.75,0,0,1,5.32,8.39c0,.08-.07.15-.12.07a40.71,40.71,0,0,0-6.43-8.44c0,.14.09.28.14.43.2.63.4,1.26.59,1.9.4,1.27.81,2.53,1.19,3.81,0,.08-.11.11-.14,0-.45-1.23-.88-2.47-1.32-3.7l-.63-1.82-.33-.95-.1-.28a38,38,0,0,0-3.82-3.26,29.75,29.75,0,0,0-5.72-3.28c0,.19.08.38.11.56.11.49.22,1,.32,1.47.21,1,.41,2,.61,3.06.4,2.09.65,4.2,1.05,6.28a.07.07,0,0,1-.14,0c-.48-2.09-1.1-4.15-1.57-6.26-.23-1.05-.47-2.1-.69-3.15l-.3-1.48c-.05-.27-.12-.54-.15-.82l-.58-.24a16.94,16.94,0,0,0-9-1.23,8.81,8.81,0,0,0-6.48,5.19c-.1.24-.47.09-.42-.15A8.36,8.36,0,0,1,421.63,284Z" style="fill:#263238"></path><path d="M438.11,292.88c.3,1.37.61,2.73.91,4.1a30,30,0,0,1,.75,4c0,.05-.07.05-.09,0a30.6,30.6,0,0,1-.91-4c-.27-1.35-.53-2.7-.79-4C438,292.83,438.09,292.8,438.11,292.88Z" style="fill:#263238"></path><path d="M448.52,296.35c1.37.7,2.7,1.49,4.14,2.06.09,0,0,.17-.06.12a42.05,42.05,0,0,1-4.11-2.13S448.49,296.33,448.52,296.35Z" style="fill:#263238"></path><path d="M422.14,268.87s13.16.84,19.28-7.84S446.17,240,446.17,240s-13.82,1.68-19.31,7.91S422.14,268.87,422.14,268.87Z" style="fill:#278DFF"></path><path d="M416,281.85c.46-1.41,1-2.8,1.56-4.18s1.05-2.64,1.63-3.94a83,83,0,0,1,4-7.75c.93-1.6,1.92-3.16,2.95-4.69,0-.23.06-.46.1-.7l.18-1.22c.13-.83.28-1.66.42-2.49.3-1.82.68-3.63,1-5.45,0-.08.15-.08.14,0-.26,1.79-.44,3.6-.7,5.4-.12.88-.24,1.76-.37,2.64l-.15,1a92.92,92.92,0,0,1,6.51-8.44c.32-.37.64-.72,1-1.08,0-.1.08-.2.12-.3.1-.25.2-.5.29-.75l.57-1.57c.37-1,.7-2.07,1-3.13,0-.09.15,0,.13,0-.27,1.08-.55,2.16-.86,3.22-.15.52-.32,1-.5,1.53a2.77,2.77,0,0,0-.1.26c1.68-1.84,3.44-3.6,5.21-5.35.06-.06.16,0,.09.1a95.54,95.54,0,0,0-9.32,11.42c.32-.1.65-.18,1-.25,1-.19,2-.34,3.06-.47,2.15-.27,4.28-.54,6.42-.88a.07.07,0,0,1,0,.14c-2,.4-4.06.86-6.08,1.32-1,.22-1.92.41-2.88.6a18.45,18.45,0,0,0-2.31.66c-.21.3-.43.6-.64.91-1,1.4-1.89,2.84-2.8,4.28l1.34-.26c1-.2,2-.38,3.06-.55,2-.33,4-.68,6-1.13a.07.07,0,0,1,0,.13c-2,.47-4,1-6,1.56-1,.25-1.94.49-2.91.7l-1.46.32a3.41,3.41,0,0,1-.6.1q-2.88,4.68-5.39,9.57c-.74,1.43-1.44,2.87-2.13,4.33s-1.3,3-1.95,4.54C416.34,282.31,415.86,282.18,416,281.85Z" style="fill:#263238"></path><path d="M429.43,251.61c.25-1.26.52-2.51.8-3.76,0-.08.15,0,.13,0-.25,1.23-.49,2.47-.71,3.71a35.28,35.28,0,0,1-.75,3.68s0,0,0,0A26.67,26.67,0,0,1,429.43,251.61Z" style="fill:#263238"></path><path d="M437.11,251.24c.61-.3,1.26-.55,1.89-.79l1-.39.51-.21a2.09,2.09,0,0,0,.55-.24c.1-.08.17.1.07.11a2.83,2.83,0,0,0-.57.23l-.49.23-1,.43a17.86,17.86,0,0,1-1.95.76C437.08,251.4,437,251.28,437.11,251.24Z" style="fill:#263238"></path><path d="M408.67,258.52s-8-14.88-20.08-17.18-19.53,10.16-19.53,10.16,8.83,11.29,19.95,13.26S408.67,258.52,408.67,258.52Z" style="fill:#278DFF"></path><path d="M380.47,248a32.88,32.88,0,0,1,9.5.11l-.54-.29-2.69-1.38c-1.86-1-3.74-2-5.69-2.78a.07.07,0,1,1,.06-.13c1.9.89,3.86,1.63,5.76,2.5.95.44,1.89.89,2.81,1.38.6.32,1.26.62,1.85,1a33.49,33.49,0,0,1,7.7,2.56l-1.51-1.65c-1.13-1.24-2.24-2.54-3.48-3.66-.07-.06,0-.16.09-.1,1.27,1.16,2.61,2.22,3.84,3.42.6.58,1.17,1.18,1.72,1.8.28.31.56.63.82,1A31.95,31.95,0,0,1,417,273.68c0,.09-.11.13-.13.05a36.63,36.63,0,0,0-8.91-15.07,35,35,0,0,0-16.23-9.4,35.52,35.52,0,0,0-11.2-1A.12.12,0,0,1,380.47,248Z" style="fill:#263238"></path><path d="M369.06,251.5s8.83,11.29,20,13.26c8.48,1.5,15.45-2.92,18.29-5.1l.61-1s-5.74-4.84-16.59-7.63S369.06,251.5,369.06,251.5Z" style="opacity:0.1"></path><path d="M387.51,242.7a29.79,29.79,0,0,1,2.69,1.78,17.5,17.5,0,0,1,2.33,2.14c.07.07,0,.16-.1.1-.8-.7-1.61-1.4-2.45-2.06a24.26,24.26,0,0,0-2.55-1.84C387.36,242.77,387.43,242.66,387.51,242.7Z" style="fill:#263238"></path><path d="M380.86,245.22l1.35.54,1.35.56c.1,0,.05.19-.05.15l-1.35-.54-1.34-.58C380.74,245.32,380.78,245.19,380.86,245.22Z" style="fill:#263238"></path><path d="M410.26,277.24S408.13,292,397,297.16s-24.62,0-24.62,0S377.73,265.23,410.26,277.24Z" style="fill:#278DFF"></path><path d="M380.05,287.56c1-.11,2.05-.29,3.06-.47l1.49-.28.78-.16c.3-.28.59-.56.9-.83a45,45,0,0,1,6.79-4.92,37.05,37.05,0,0,1,4.06-2.09h-.21l-3.65.16c-2.44.11-4.87.16-7.3.32-.09,0-.09-.13,0-.14,2.44-.16,4.87-.43,7.31-.64l3.55-.32,1.83-.16.47-.05c.63-.23,1.27-.46,1.91-.66a17.29,17.29,0,0,1,9.4-.51c2.79.71,5.58,2.54,6.3,5.48,0,.11-.13.18-.17.07-1-2.46-3.77-3.69-6.24-4.21a14.85,14.85,0,0,0-5-.09,12.77,12.77,0,0,1-.56,2.23c-.31,1-.61,2.08-.93,3.11-.63,2.07-1.32,4.13-1.93,6.2a.07.07,0,1,1-.13,0c.51-2.07.95-4.16,1.44-6.23.25-1,.51-2,.76-3a16.76,16.76,0,0,1,.56-2.1,25.13,25.13,0,0,0-2.88.68,41.5,41.5,0,0,0-5,1.84c-.16,1.05-.4,2.09-.64,3.13-.3,1.3-.64,2.59-1.05,3.87a.07.07,0,0,1-.13,0c0-.08,0-.16,0-.24h0c.25-1.21.52-2.41.77-3.62.21-1,.4-1.95.61-2.92-1.38.62-2.74,1.3-4.05,2.05,0,.3-.1.61-.14.88-.08.51-.17,1-.27,1.52-.2,1.14-.43,2.27-.7,3.39a54.46,54.46,0,0,1-1.91,6.42.1.1,0,0,1,0,.09l-.07.07c0,.06-.12,0-.11-.07.51-2.18,1.1-4.35,1.58-6.55.24-1.09.48-2.19.7-3.29.11-.55.21-1.1.32-1.65,0-.16.05-.33.07-.5a48.49,48.49,0,0,0-4.32,2.89,47.22,47.22,0,0,0-6.61,6c-.08.09-.24,0-.16-.13a38.59,38.59,0,0,1,2.64-3.22c.56-.6,1.14-1.18,1.73-1.75l-.18,0-1.57.23c-1,.14-2.05.24-3.08.36C380,287.71,380,287.57,380.05,287.56Z" style="fill:#263238"></path><path d="M387.85,292.57h0c0-.13,0-.26.07-.39s.11-.32.13-.48h0c.23-1,.43-2,.6-3,0-.07.13-.05.12,0a11.86,11.86,0,0,1-.84,3.85,0,0,0,0,1-.08,0Z" style="fill:#263238"></path><path d="M397.14,292.33a.07.07,0,0,1,.07-.06c.31-1.31.61-2.62.88-3.93l.42-2.08c.07-.37.14-.75.2-1.12a3.47,3.47,0,0,1,.24-1,.07.07,0,0,1,.13,0,6.72,6.72,0,0,1-.28,2c-.14.72-.28,1.44-.44,2.16-.32,1.45-.68,2.9-1.09,4.34a.08.08,0,0,1-.15,0Z" style="fill:#263238"></path><path d="M381.07,283.31c2-.27,4.05-.57,6.08-.81.09,0,.12.12,0,.13-2,.3-4.05.55-6.08.82C381,283.46,381,283.32,381.07,283.31Z" style="fill:#263238"></path><path d="M415.94,242.63s6.79-29.79-25.21-41.84C390.73,200.79,381.86,240,415.94,242.63Z" style="fill:#278DFF"></path><path d="M409,225.74l-.35-.21c-.6-.33-1.2-.68-1.81-1l-3.71-2.08c-2.44-1.37-4.85-2.79-7.31-4.12a.07.07,0,0,1,.07-.12c2.46,1.34,5,2.59,7.45,3.9l3.67,1.94,1.5.8c-1.07-2-2.21-4-3.47-5.93-1.67-2.55-3.5-5-5.41-7.36a.11.11,0,0,1,.16-.15,50.56,50.56,0,0,1,7.4,9.08c0-.11,0-.22,0-.32,0-.74-.06-1.48-.07-2.22,0-1.45.05-2.91,0-4.36,0-.09.13-.09.13,0,.06,1.43.24,2.86.32,4.29,0,.71.07,1.43.09,2.14,0,.39.05.83,0,1.25.66,1.05,1.3,2.11,1.89,3.19a56,56,0,0,1,2.87,6q0-1.11.12-2.22c.09-1.63.29-3.26.36-4.89,0-.09.14-.08.14,0,0,1.64,0,3.27,0,4.9,0,.82-.05,1.63-.11,2.44,0,.3,0,.61-.05.91a53.56,53.56,0,0,1,2.41,8.19,87.61,87.61,0,0,1,1.2,9s0,0,0,0a48,48,0,0,0-1.7-8c-.39-1.4-.81-2.8-1.26-4.19-1.33-.63-2.61-1.41-3.89-2.12l-4-2.2c-2.67-1.46-5.34-3-8.09-4.25-.08,0,0-.15.07-.11,2.79,1.26,5.6,2.46,8.34,3.84,1.37.68,2.71,1.42,4,2.17,1.11.62,2.25,1.25,3.31,2-.31-.93-.63-1.85-1-2.76C411.35,230.59,410.26,228.13,409,225.74Z" style="fill:#263238"></path><path d="M411.73,218.93c0-.09.15-.09.14,0-.12,1.7-.17,3.4-.35,5.09,0,.1-.16.1-.15,0C411.43,222.32,411.61,220.63,411.73,218.93Z" style="fill:#263238"></path><path d="M396.39,224.62c2,.8,4,1.57,6,2.4,0,0,0,.12,0,.09-2-.75-4-1.58-6-2.36C396.27,224.71,396.31,224.58,396.39,224.62Z" style="fill:#263238"></path><path d="M393.35,210.88a52.77,52.77,0,0,1,5.69,3.05.08.08,0,0,1-.09.14c-1.86-1.08-3.75-2.12-5.68-3.08C393.19,211,393.27,210.84,393.35,210.88Z" style="fill:#263238"></path><rect x="393.83" y="307.05" width="46.16" height="48.66" transform="translate(833.82 662.76) rotate(180)" style="fill:#37474f"></rect><rect x="440.8" y="324.27" width="2.36" height="83.34" style="fill:#263238"></rect><rect x="390.9" y="324.27" width="2.36" height="83.34" style="fill:#263238"></rect><rect x="414.6" y="324.27" width="2.36" height="83.34" style="fill:#263238"></rect><rect x="392.08" y="352.59" width="49.9" height="6.74" transform="translate(834.07 711.92) rotate(180)" style="fill:#263238"></rect></g><g id="freepik--Device--inject-82"><path d="M331.58,58.78H168.4a16.66,16.66,0,0,0-16.5,16.81V411.48a16.66,16.66,0,0,0,16.5,16.81H331.58a16.68,16.68,0,0,0,16.52-16.81V75.59A16.67,16.67,0,0,0,331.58,58.78Zm6.19,342.32c0,8.84-6.62,16-14.78,16H177c-8.18,0-14.8-7.15-14.8-16V88.32c0-18,6.62-18.89,14.8-18.89h29.25c1.7,0,3.09,1.93,3.09,4.33v1c0,5.61,3.07,5.63,6.83,5.63H283.8c3.8,0,6.85,0,6.85-5.63v-1c0-2.4,1.37-4.33,3.1-4.33H323c8.16,0,14.78,2.4,14.78,18.89Z" style="fill:#263238"></path><path d="M337.78,88.6V401.37c0,8.84-6.62,16-14.78,16H177c-8.18,0-14.8-7.15-14.8-16V88.6c0-18,6.62-18.89,14.8-18.89h29.25c1.7,0,3.09,1.93,3.09,4.32v1c0,5.6,3.07,5.62,6.83,5.62h67.62c3.8,0,6.85,0,6.85-5.62V74c0-2.39,1.37-4.32,3.1-4.32H323C331.16,69.71,337.78,72.1,337.78,88.6Z" style="fill:#fff"></path><path d="M259.22,73.41H240.77a1.14,1.14,0,0,1-1.14-1.14h0a1.14,1.14,0,0,1,1.14-1.14h18.45a1.14,1.14,0,0,1,1.14,1.14h0A1.14,1.14,0,0,1,259.22,73.41Z" style="fill:#fff"></path><g id="freepik--u5zjqx--inject-82"><path d="M201.21,76.46l-.28.28-.16.16a3.85,3.85,0,0,0-5.45,0l-.15-.16a3.7,3.7,0,0,1-.28-.28h0l0,0,.36-.31a4.42,4.42,0,0,1,.82-.53,4.32,4.32,0,0,1,1.1-.37l.55-.07h.47l.38,0a4.29,4.29,0,0,1,1,.24,4.66,4.66,0,0,1,1.33.77l.3.27Z" style="fill:#a6a6a6"></path><path d="M196.22,77.79l-.45-.45a3.23,3.23,0,0,1,1.82-.91,3.19,3.19,0,0,1,2.73.91l-.45.44A2.55,2.55,0,0,0,198,77,2.49,2.49,0,0,0,196.22,77.79Z" style="fill:#a6a6a6"></path><path d="M199.42,78.23l-.44.45a1.32,1.32,0,0,0-1.87,0l-.45-.44A2,2,0,0,1,199.42,78.23Z" style="fill:#a6a6a6"></path><path d="M198.44,79.08a.4.4,0,1,1-.4-.4A.4.4,0,0,1,198.44,79.08Z" style="fill:#a6a6a6"></path></g><path d="M173.66,77.31a1.17,1.17,0,1,1,1.16,1.17A1.16,1.16,0,0,1,173.66,77.31Z" style="fill:#a6a6a6"></path><path d="M177.32,77.31a1.17,1.17,0,1,1,1.17,1.17A1.17,1.17,0,0,1,177.32,77.31Z" style="fill:#a6a6a6"></path><path d="M181,77.31a1.17,1.17,0,1,1,1.16,1.17A1.16,1.16,0,0,1,181,77.31Z" style="fill:#a6a6a6"></path><path d="M184.65,77.31a1.17,1.17,0,1,1,1.17,1.17A1.16,1.16,0,0,1,184.65,77.31Z" style="fill:#a6a6a6"></path><path d="M188.32,77.31a1.17,1.17,0,0,1,2.33,0,1.17,1.17,0,1,1-2.33,0Z" style="fill:#a6a6a6"></path><path d="M324.61,79.85h-9.48V75.46h9.48Zm-9-.48h8.5V76h-8.5Z" style="fill:#a6a6a6"></path><rect x="315.92" y="76.21" width="6.11" height="2.9" style="fill:#a6a6a6"></rect><rect x="324.61" y="76.48" width="0.84" height="2.35" style="fill:#a6a6a6"></rect><rect x="174.32" y="269.91" width="42.36" height="42.36" style="fill:#278DFF"></rect><path d="M210.74,282.67c0-4.15-2.61-6.83-6.72-6.87q-8.53-.09-17.07,0a6.4,6.4,0,0,0-6.69,6.72c0,2.84,0,5.68,0,8.52s0,5.56,0,8.34c0,4.24,2.62,6.95,6.82,7,5.62.06,11.26.07,16.88,0,4.12,0,6.76-2.75,6.78-6.85C210.77,293.91,210.76,288.28,210.74,282.67ZM208,299.57c0,2.62-1.44,4.08-4.07,4.09q-8.44.06-16.88,0c-2.64,0-4.06-1.46-4.08-4.07q0-8.52,0-17c0-2.6,1.47-4.1,4.06-4.11q8.44-.06,16.89,0c2.6,0,4.05,1.5,4.08,4.09,0,2.84,0,5.68,0,8.52S208.05,296.73,208,299.57Z" style="fill:#fff"></path><path d="M195.52,283.09a8,8,0,1,0,7.91,8.08A8,8,0,0,0,195.52,283.09Zm-.1,13.27a5.37,5.37,0,0,1-5.22-5.25,5.31,5.31,0,0,1,10.61,0A5.38,5.38,0,0,1,195.42,296.36Z" style="fill:#fff"></path><path d="M205.85,282.9a1.65,1.65,0,0,1-1.9,1.65,1.67,1.67,0,0,1-1.73-2,1.76,1.76,0,0,1,1.92-1.69A1.78,1.78,0,0,1,205.85,282.9Z" style="fill:#fff"></path><rect x="174.32" y="160.91" width="42.36" height="42.36" style="fill:#263238"></rect><path d="M208.61,184.65a2.08,2.08,0,0,1-1-1.92c0-.21,0-.43,0-.64s0-.43,0-.64a2.06,2.06,0,0,1,1-1.91l2.31-1.34-4.34-7.51-2.3,1.33a2.07,2.07,0,0,1-2.17-.08,11.27,11.27,0,0,0-1.12-.65,2.06,2.06,0,0,1-1.14-1.83V166.8h-8.68v2.66a2.06,2.06,0,0,1-1.14,1.83,11.27,11.27,0,0,0-1.12.65,2.07,2.07,0,0,1-2.17.08l-2.3-1.33-4.34,7.51,2.32,1.34a2.06,2.06,0,0,1,1,1.91c0,.21,0,.43,0,.64s0,.43,0,.64a2.05,2.05,0,0,1-1,1.91L180.09,186l4.34,7.51,2.3-1.33a2.05,2.05,0,0,1,2.16.08c.36.23.74.45,1.13.65a2.06,2.06,0,0,1,1.14,1.83v2.66h8.68v-2.66a2.06,2.06,0,0,1,1.14-1.83c.39-.2.77-.42,1.13-.65a2.05,2.05,0,0,1,2.16-.08l2.3,1.33,4.34-7.51ZM195.5,189.2a7.11,7.11,0,1,1,7.11-7.11A7.11,7.11,0,0,1,195.5,189.2Z" style="fill:#fff"></path><path d="M200.44,182.09a4.94,4.94,0,1,1-4.94-4.94A4.94,4.94,0,0,1,200.44,182.09Z" style="fill:#fff"></path><rect x="174.32" y="106.4" width="42.36" height="42.36" style="fill:#278DFF"></rect><path d="M202.52,120.59a7,7,0,1,1-7-7A7,7,0,0,1,202.52,120.59Z" style="fill:#fff"></path><path d="M193.7,128.19h3.61a9.64,9.64,0,0,1,9.64,9.64v3.77a0,0,0,0,1,0,0H184.06a0,0,0,0,1,0,0v-3.77A9.64,9.64,0,0,1,193.7,128.19Z" style="fill:#fff"></path><rect x="174.32" y="215.42" width="42.36" height="42.36" style="fill:#455a64"></rect><rect x="182.31" y="229.52" width="26.37" height="18.08" style="fill:#fff"></rect><polygon points="191.66 225.6 183.84 225.6 182.31 228.91 193.18 228.91 191.66 225.6" style="fill:#fff"></polygon><rect x="283.33" y="215.42" width="42.34" height="42.34" style="fill:#278DFF"></rect><circle cx="304.5" cy="236.59" r="15.54" style="fill:#455a64"></circle><circle cx="305.21" cy="236.93" r="14.83" transform="translate(-57.2 370.91) rotate(-58.11)" style="fill:#263238"></circle><circle cx="305.21" cy="236.93" r="13.89" style="fill:#fff"></circle><rect x="305.08" y="224.05" width="0.27" height="2.11" style="fill:#c7c7c7"></rect><rect x="299.16" y="225.63" width="0.27" height="2.11" transform="translate(-73.25 180.02) rotate(-30)" style="fill:#c7c7c7"></rect><rect x="294.83" y="229.96" width="0.27" height="2.11" transform="matrix(0.5, -0.87, 0.87, 0.5, -52.59, 370.93)" style="fill:#c7c7c7"></rect><rect x="292.33" y="236.8" width="2.11" height="0.27" style="fill:#c7c7c7"></rect><rect x="293.91" y="242.72" width="2.11" height="0.27" transform="translate(-81.9 179.98) rotate(-29.99)" style="fill:#c7c7c7"></rect><rect x="298.24" y="247.05" width="2.11" height="0.27" transform="translate(-64.26 383.22) rotate(-60.07)" style="fill:#c7c7c7"></rect><rect x="305.08" y="247.71" width="0.27" height="2.11" style="fill:#c7c7c7"></rect><rect x="310.99" y="246.13" width="0.27" height="2.11" transform="translate(-81.91 188.69) rotate(-30)" style="fill:#c7c7c7"></rect><rect x="315.33" y="241.8" width="0.27" height="2.11" transform="translate(-52.6 394.59) rotate(-59.99)" style="fill:#c7c7c7"></rect><rect x="315.99" y="236.8" width="2.11" height="0.27" style="fill:#c7c7c7"></rect><rect x="314.41" y="230.88" width="2.11" height="0.27" transform="translate(-73.24 188.64) rotate(-29.99)" style="fill:#c7c7c7"></rect><rect x="310.08" y="226.55" width="2.11" height="0.27" transform="translate(-40.67 382.97) rotate(-60.03)" style="fill:#c7c7c7"></rect><polygon points="305.41 225 305.87 237.87 304.55 237.85 305.06 225 305.41 225" style="fill:#278DFF"></polygon><polygon points="313.43 232.44 304.77 237.97 304.14 236.81 313.26 232.13 313.43 232.44" style="fill:#a6a6a6"></polygon><path d="M305.66,236.93a.45.45,0,1,1-.45-.45A.45.45,0,0,1,305.66,236.93Z" style="fill:#c7c7c7"></path><rect x="228.81" y="160.91" width="42.36" height="42.36" style="fill:#278DFF"></rect><path d="M265.37,195.42H234.61V168.76h30.76Zm-28.76-2h26.76V170.76H236.61Z" style="fill:#fff"></path><polygon points="235.61 194.42 243.96 186.43 251.52 194.42 235.61 194.42" style="fill:#fff"></polygon><polygon points="246.33 194.42 256.24 181.9 264.37 194.42 246.33 194.42" style="fill:#fff"></polygon><path d="M246.52,181.16a3,3,0,1,1-3-3A2.95,2.95,0,0,1,246.52,181.16Z" style="fill:#fff"></path><rect x="174.32" y="323.82" width="42.36" height="42.36" style="fill:#455a64"></rect><path d="M182.16,353.67a12.11,12.11,0,0,0,7.78-2.4c-3.22-1-4.5-2-5-3.79l2.16-.11a5.93,5.93,0,0,1-4.23-5.47l2.23.59c-2.34-2.93-2.81-5.21-1.42-7.33a16.1,16.1,0,0,0,11.42,5.71c0-.36,0-.64,0-.91a5.25,5.25,0,0,1,3.06-5.28,5.31,5.31,0,0,1,6.06.73,1.11,1.11,0,0,0,1.23.25l2.69-1a5.49,5.49,0,0,1-2.12,2.72l.06.16,2.67-.69.11.11c-.69.69-1.35,1.42-2.08,2.07a1.43,1.43,0,0,0-.58,1.19A15.61,15.61,0,0,1,192,355.88a15.79,15.79,0,0,1-9.27-1.89Z" style="fill:#fff"></path><rect x="283.32" y="323.82" width="42.36" height="42.36" style="fill:#455a64"></rect><path d="M316.05,334.63H293a3.58,3.58,0,0,0-3.58,3.58v13.58a3.57,3.57,0,0,0,3.58,3.57h23.1a3.57,3.57,0,0,0,3.58-3.57V338.21A3.58,3.58,0,0,0,316.05,334.63Zm-16.51,14.86v-9l11.33,4.5Z" style="fill:#fff"></path><rect x="228.82" y="323.82" width="42.36" height="42.36" style="fill:#278DFF"></rect><ellipse cx="250" cy="344.11" rx="13.86" ry="12.01" style="fill:#fff"></ellipse><polygon points="239.96 350.91 237.47 357.89 246.28 355.15 239.96 350.91" style="fill:#fff"></polygon><rect x="283.32" y="160.91" width="42.36" height="42.36" style="fill:#455a64"></rect><path d="M299.7,196a4.53,4.53,0,1,1-4.52-4.53A4.53,4.53,0,0,1,299.7,196Z" style="fill:#fff"></path><rect x="296.24" y="173.22" width="3.46" height="22.75" style="fill:#fff"></rect><path d="M314.35,189.43a4.53,4.53,0,1,1-4.53-4.52A4.53,4.53,0,0,1,314.35,189.43Z" style="fill:#fff"></path><rect x="310.89" y="166.63" width="3.46" height="22.75" style="fill:#fff"></rect><polygon points="314.35 166.68 296.24 176.26 296.24 173.22 314.35 163.64 314.35 166.68" style="fill:#fff"></polygon><polygon points="314.35 172.41 296.24 181.99 296.24 178.95 314.35 169.37 314.35 172.41" style="fill:#fff"></polygon><rect x="228.81" y="106.4" width="42.36" height="42.36" style="fill:#455a64"></rect><path d="M274.52,152.11H225.46V103.05h49.06Zm-48.06-1h47.06V104.05H226.46Z" style="fill:#455a64"></path><rect x="234.55" y="119.96" width="30.87" height="18.87" style="fill:#fff"></rect><polygon points="257.66 119.96 242.32 119.96 243.84 116.33 256.14 116.33 257.66 119.96" style="fill:#fff"></polygon><path d="M257.15,129.39a7.16,7.16,0,1,1-7.16-7.16A7.15,7.15,0,0,1,257.15,129.39Z" style="fill:#455a64"></path><path d="M255.55,129.39a5.56,5.56,0,1,1-5.56-5.56A5.56,5.56,0,0,1,255.55,129.39Z" style="fill:#fff"></path><rect x="260.64" y="121.56" width="2.97" height="1.71" style="fill:#455a64"></rect><rect x="235.59" y="118.56" width="2.94" height="0.85" style="fill:#fff"></rect><rect x="283.32" y="106.4" width="42.36" height="42.36" style="fill:#278DFF"></rect><rect x="289.41" y="118.01" width="30.18" height="19.14" style="fill:#fff"></rect><path d="M319.59,118c-1.22,1.17-2.46,2.28-3.69,3.43s-2.48,2.25-3.72,3.36l-3.92,3.44a1.14,1.14,0,0,1-.11.11l-3.48,3-.17.14-.17-.14-3.47-3-.12-.11q-2-1.71-3.92-3.45c-1.24-1.1-2.48-2.23-3.72-3.35s-2.47-2.26-3.69-3.43c1.3,1,2.57,2,3.85,3.07s2.56,2.09,3.83,3.15,2.83,2.36,4.24,3.56h0l3.17,2.69,3.17-2.69h0q2.11-1.8,4.24-3.57,1.9-1.57,3.82-3.14C317,120.06,318.29,119,319.59,118Z" style="fill:#278DFF"></path><path d="M301.37,128.23l0,0c-.15.14-.31.27-.47.4-.76.64-1.53,1.26-2.32,1.85-1,.73-2,1.44-2.93,2.13s-2,1.37-3,2-2.05,1.29-3.12,1.88c.92-.81,1.87-1.55,2.83-2.28s1.95-1.44,2.93-2.14,2-1.37,3-2c.81-.52,1.63-1,2.48-1.51.19-.12.39-.22.59-.33Z" style="fill:#278DFF"></path><path d="M319.52,136.54c-1.07-.59-2.1-1.23-3.12-1.88s-2-1.33-3-2-2-1.4-2.93-2.13c-.79-.59-1.56-1.2-2.31-1.84-.17-.14-.33-.27-.48-.41l0,0,0,0c.2.12.4.22.59.34.85.48,1.67,1,2.48,1.51,1,.65,2,1.33,3,2s2,1.4,2.93,2.14S318.6,135.73,319.52,136.54Z" style="fill:#278DFF"></path><rect x="228.81" y="215.42" width="42.36" height="42.36" style="fill:#263238"></rect><path d="M263.07,233.13a7,7,0,1,1-7-7A7,7,0,0,1,263.07,233.13Z" style="fill:#278DFF"></path><path d="M256.64,223.52c0,.88-.24,1.59-.53,1.59s-.52-.71-.52-1.59.23-1.58.52-1.58S256.64,222.65,256.64,223.52Z" style="fill:#278DFF"></path><path d="M251.76,224.55c.44.76.59,1.49.34,1.63s-.81-.35-1.24-1.11-.59-1.49-.34-1.63S251.33,223.79,251.76,224.55Z" style="fill:#278DFF"></path><path d="M248.06,227.87c.75.44,1.25,1,1.11,1.25s-.88.1-1.64-.34-1.25-1-1.11-1.25S247.3,227.44,248.06,227.87Z" style="fill:#278DFF"></path><ellipse cx="246.51" cy="233.13" rx="1.58" ry="0.52" style="fill:#278DFF"></ellipse><path d="M247.53,237.48c.76-.44,1.49-.59,1.64-.34s-.36.81-1.11,1.24-1.49.59-1.64.34S246.78,237.91,247.53,237.48Z" style="fill:#278DFF"></path><path d="M250.86,241.18c.43-.75,1-1.25,1.24-1.1s.1.87-.34,1.63-1,1.25-1.24,1.11S250.42,241.94,250.86,241.18Z" style="fill:#278DFF"></path><ellipse cx="256.11" cy="242.73" rx="0.52" ry="1.58" style="fill:#278DFF"></ellipse><path d="M260.46,241.71c-.44-.76-.59-1.49-.34-1.63s.81.35,1.25,1.1.59,1.49.34,1.64S260.9,242.47,260.46,241.71Z" style="fill:#278DFF"></path><path d="M264.17,238.38c-.76-.43-1.26-1-1.11-1.24s.87-.1,1.63.34,1.26,1,1.11,1.24S264.93,238.82,264.17,238.38Z" style="fill:#278DFF"></path><ellipse cx="265.72" cy="233.13" rx="1.58" ry="0.52" style="fill:#278DFF"></ellipse><path d="M264.69,228.78c-.76.44-1.49.59-1.63.34s.35-.81,1.11-1.25,1.49-.59,1.63-.34S265.45,228.34,264.69,228.78Z" style="fill:#278DFF"></path><path d="M261.37,225.07c-.44.76-1,1.26-1.25,1.11s-.1-.87.34-1.63,1-1.25,1.25-1.11S261.81,224.32,261.37,225.07Z" style="fill:#278DFF"></path><path d="M265.19,247.07a4.2,4.2,0,0,1-3.87,4.18H237.6a4.92,4.92,0,0,1-.46-9.82,8.29,8.29,0,0,1,16.07-2.6,4.92,4.92,0,0,1,7.11,4.1,3.82,3.82,0,0,1,.68-.06A4.19,4.19,0,0,1,265.19,247.07Z" style="fill:#fff"></path><path d="M238.31,397.93a2.56,2.56,0,1,1-2.55-2.56A2.55,2.55,0,0,1,238.31,397.93Z" style="fill:#dbdbdb"></path><circle cx="250" cy="397.93" r="3.87" style="fill:#278DFF"></circle><path d="M266.8,397.93a2.56,2.56,0,1,1-2.56-2.56A2.56,2.56,0,0,1,266.8,397.93Z" style="fill:#dbdbdb"></path><rect x="228.82" y="269.91" width="42.36" height="42.36" style="fill:#37474f"></rect><path d="M243.7,295.67h-5.65v-6.49h5.54c0-.49.06-.88.06-1.26,0-1.7,0-3.42.13-5.11.35-3.72,2.64-6.35,6.32-6.86a53.67,53.67,0,0,1,7.07-.05v5.9c-.86,0-1.71,0-2.56,0a12.2,12.2,0,0,0-2.27.15,2.13,2.13,0,0,0-1.8,2.06c-.07,1.65,0,3.31,0,5.11H257c-.27,2.12-.5,4.09-.81,6.05,0,.19-.52.43-.8.44-1.55,0-3.11,0-4.79,0v16.64H243.7Z" style="fill:#fff"></path><path d="M275.26,272.31a6.38,6.38,0,1,1-6.38-6.37A6.38,6.38,0,0,1,275.26,272.31Z" style="fill:#278DFF"></path><path d="M271.24,275.3a.54.54,0,0,1-.55.55h-3.6a.56.56,0,0,1-.39-1l3-2.71a1.26,1.26,0,0,0,.42-1,1.34,1.34,0,0,0-.33-.88,1.3,1.3,0,0,0-1-.42,1.32,1.32,0,0,0-.88.33l-.32.29a.56.56,0,0,1-.74-.83l.31-.29a2.39,2.39,0,0,1,1.63-.62,2.47,2.47,0,0,1,1.8.79,2.44,2.44,0,0,1-.18,3.43l-1.91,1.73h2.16A.55.55,0,0,1,271.24,275.3Z" style="fill:#fff"></path><rect x="283.32" y="269.91" width="42.36" height="42.36" style="fill:#263238"></rect><path d="M290.42,305.06c.6-2.17,1.14-4.19,1.74-6.19a2.22,2.22,0,0,0-.17-1.78,14,14,0,1,1,26.58-5.78,14.08,14.08,0,0,1-13.22,13.45,15,15,0,0,1-6.92-1.3,2.24,2.24,0,0,0-1.33-.11C294.93,303.87,292.77,304.45,290.42,305.06Zm3.39-3.29c1.38-.35,2.54-.69,3.73-.94a2,2,0,0,1,1.23.16,12.45,12.45,0,0,0,5.63,1.47c7.19.12,13-6.55,11.62-13.56a10.9,10.9,0,0,0-8.74-9.12,11.08,11.08,0,0,0-12.11,4.53c-2.92,4-3,8.28-.61,12.62a2.22,2.22,0,0,1,.17,1.37C294.5,299.42,294.15,300.52,293.81,301.77Z" style="fill:#fff"></path><path d="M298.43,285.36c.95-1.28,2.22-1,2.89.38.26.55.32.74.57,1.37a1.69,1.69,0,0,1-.39,2.2.88.88,0,0,0-.1,1.35,9.81,9.81,0,0,0,4.23,3.58.94.94,0,0,0,1.29-.28c1.22-1.47,1.24-1.45,3-.64l.6.29a1.62,1.62,0,0,1,.45,2.89,3.91,3.91,0,0,1-3.91.95,14.22,14.22,0,0,1-8.48-6.45,5.36,5.36,0,0,1-1.06-3.16A4.59,4.59,0,0,1,298.43,285.36Z" style="fill:#fff"></path></g><g id="freepik--Character--inject-82"><path d="M102.14,124.18c-3.64,9.22-9.56,19.68-8.63,29.92.74,8,5.68,14.94,11.43,20.27,12.65,11.72,33.23,19.73,48.76,8.52,6.19-4.49,11.13-16.56,5.76-23.44-2.76-3.52-6.81-5.51-10.45-8a18.11,18.11,0,0,1-8.37-13.29c-1.49-11.25,1.88-18,4.53-28.67a7.88,7.88,0,0,0-.66-6.32,14,14,0,0,0-5-5.54,14,14,0,0,0-5.95-3.21c-4.77-1.09-10.64,1.64-15.11,3.06s-7.14,3.67-9,8.1C106.94,111.76,104.59,118,102.14,124.18Z" style="fill:#263238"></path><path d="M99.47,128.2c3.87-8.24,7.91-16.39,11.89-24.58,0-.05.11,0,.08,0-3.08,6.83-6.06,13.7-9.24,20.49s-6.76,13.29-9.28,20.19c-5.64,15.5,8.22,27.36,21.75,31.15.62.17.28,1.13-.34.94C102.56,172.72,90,164,90.82,150.06,91.27,142.47,96.3,134.94,99.47,128.2Z" style="fill:#263238"></path><path d="M144.7,108.45a.13.13,0,1,1,.25.09c-2.55,8.71-6.34,18.64-4,27.79A23.09,23.09,0,0,0,148.05,148c2.77,2.42,6.15,3.7,9.29,5.52,12.29,7.11,6.32,24.94-5.64,28.59-.25.08-.39-.35-.14-.44,8.58-3.05,14.15-12.05,11.11-21.1-2.43-7.26-11.53-8.34-16.48-13.51C135.94,136.3,140.16,120.82,144.7,108.45Z" style="fill:#263238"></path><path d="M189.09,450.76c-2.31.74-68.29-.11-70.78-1.74-1-.6-1.51-64.87-1.51-64.87l44.14.45-1.67,43s25.11,11.62,27.66,13.7S191.41,450,189.09,450.76Z" style="fill:#d3766a"></path><path d="M169.27,432.1c-.18-.05-.27-.1-.28-.15Z" style="fill:#278DFF"></path><path d="M189.09,450.76c-2.31.74-68.29-.11-70.78-1.74-.33-.21-.61-8-.84-18,9.66,3.42,48.41,11.44,56.4,10.82,7.19-.56.68-6.35-1.17-7.88,6.43,3.08,13,6.35,14.23,7.36C189.46,443.36,191.41,450,189.09,450.76Z" style="fill:#263238"></path><path d="M103.26,194.09s9.91,111.49,11.52,120c.37,1.94.61,12.48.76,26,.34,29.56.14,82.86.14,82.86h46.51s-1.38-92.36-3.44-109.35-15.22-119.53-15.22-119.53Z" style="fill:#455a64"></path><path d="M160.08,414.87c-7.25-.15-5.17-.21-12.43-.28-3.55,0-26.89-.24-30.21.31-.07,0-.07.14,0,.15,3.32.55,26.66.34,30.21.31,7.26-.07,5.18-.13,12.43-.28A.11.11,0,0,0,160.08,414.87Z" style="fill:#263238"></path><path d="M124.51,362.07l-.15-20.24c0-6.53,0-13.07-.35-19.6C123.38,309,120.7,296,118.8,283s-3.5-26.2-4.94-39.33c-1.62-14.73-3-29.49-4.56-44.24,0-.1-.17-.09-.16,0,2.19,26.33,4.64,52.65,8.28,78.82q1.36,9.77,3,19.49c1.09,6.57,2.17,13.13,2.69,19.77s.59,13,.65,19.53q.1,10.11.2,20.23c.15,15,.29,38,.44,53a.23.23,0,0,0,.45,0C124.72,396.86,124.61,375.43,124.51,362.07Z" style="fill:#263238"></path><path d="M93.45,194.09s19.72,111.49,21.33,120c.37,1.94.61,12.48.76,26v0l22.16-146.06Z" style="fill:#263238"></path><path d="M133.41,458.17c-2.38.53-68-6.5-70.31-8.35-.9-.69,4.56-64.73,4.56-64.73l43.91,4.57-5.69,42.65s23.91,13.92,26.26,16.23S135.78,457.65,133.41,458.17Z" style="fill:#d3766a"></path><path d="M115.41,437.74c-.16-.07-.25-.13-.25-.18Z" style="fill:#278DFF"></path><path d="M133.41,458.17c-2.38.53-68-6.5-70.31-8.35-.32-.25.17-8.58.94-19.19,10.27,4.56,46.58,15.81,54.43,16,5.43.11,3.41-3.5,1.36-6,5.71,3.45,11.24,6.89,12.31,8C134.46,450.84,135.78,457.65,133.41,458.17Z" style="fill:#263238"></path><path d="M109,425.48l-46.47-2s12.68-102,12.92-108.23c.35-9.32,4.82-47.77,8.57-78.91,0,0-7.12-16.85,6.2-42.32h53.4s-3.58,24.23-9.71,39.6A70.69,70.69,0,0,0,122,239.07s-5.32,69.42-5.52,78.07C116.08,334.26,109,425.48,109,425.48Z" style="fill:#455a64"></path><path d="M107.71,417c-7.24-.46-5.16-.43-12.41-.81-3.55-.18-26.86-1.38-30.2-1-.07,0-.07.14,0,.15,3.29.69,26.62,1.48,30.17,1.59,7.25.24,5.17.09,12.43.25A.11.11,0,0,0,107.71,417Z" style="fill:#263238"></path><path d="M135.89,232.59a88.21,88.21,0,0,0-13.9,6.48.15.15,0,0,0,.13.28c4.68-2,9.45-3.93,14-6.2A.31.31,0,0,0,135.89,232.59Z" style="fill:#263238"></path><path d="M137.38,200.47c0-.17-.3-.2-.3,0,0,5.56-.32,10.45-.78,15.65-.22,2.41-2.16,15.74-6.34,14.77-.7-.17-1.06-.86-1.17-1.91a16.84,16.84,0,0,1,.55-4.09c.47-2.79.84-5.59,1.08-8.41a76.16,76.16,0,0,0-.17-15.76.14.14,0,0,0-.27,0,144.1,144.1,0,0,1-1.27,21.77c-.53,3.46-2.27,8.68,1.35,9.22s6.09-8.2,6.54-10.59A80.53,80.53,0,0,0,137.38,200.47Z" style="fill:#263238"></path><path d="M130.07,231.21a21,21,0,0,0-.94,2.77,6.1,6.1,0,0,0-.39,2.27c0,.14.21.16.28.06a7.85,7.85,0,0,0,1-2.21c.31-.85.65-1.7.94-2.57A.46.46,0,0,0,130.07,231.21Z" style="fill:#263238"></path><path d="M71.08,408.77l2.74-26.65,2.84-26.64,5.82-53.27,6-53.24.76-6.65.36-3.31.09-.82a2.88,2.88,0,0,0-.13-.74l-.44-1.61A41.61,41.61,0,0,1,88,229.2a47.25,47.25,0,0,1-.07-6.73,62.79,62.79,0,0,1,2.35-13.2,95.09,95.09,0,0,1,4.68-12.55,93.08,93.08,0,0,0-4.44,12.62,62.47,62.47,0,0,0-2.1,13.16,47.61,47.61,0,0,0,.14,6.65,41.18,41.18,0,0,0,1.23,6.52l.46,1.62a3.2,3.2,0,0,1,.15.9l-.07.85L90,242.39l-.69,6.66-5.78,53.27-6.06,53.24L74.3,382.17Z" style="fill:#263238"></path><path d="M124.48,144.45c6.39,8.46,23.71,32.79,36.18,32,10.67-.72,32.05-8.89,36.6-10.62,3.54-1.34-7.44-25.41-12.44-23.61-7.95,2.84-16,9.41-24.36,10.57-3.43.48-11-6.85-30.09-15C123,134.6,120,138.53,124.48,144.45Z" style="fill:#d3766a"></path><path d="M197.54,134c4.15-.77,8.85-2,13.22-1.24s7.09,7.11,6.83,8.76-3.51,11.71-7.89,11-.5-8.19-.52-9.13,0-2.12-.85-2.16S192,145.77,192,145.77Z" style="fill:#d3766a"></path><path d="M197.72,134.6c.25,0,12.69-2.76,17.06-2s7.09,7.1,6.83,8.76-3.51,11.71-7.89,11-.5-8.2-.52-9.13,0-2.12-.85-2.17S196,145.66,196,145.66Z" style="fill:#d3766a"></path><path d="M212.32,151.61a5.24,5.24,0,0,1-.32-2.7,9.15,9.15,0,0,1,.59-2.77,15.29,15.29,0,0,0,.91-2.32,5,5,0,0,0-.25-2.41c-.24-.66-.92-.55-1.5-.45a22.39,22.39,0,0,0-2.55.71c-.9.28-1.79.59-2.69.89a21.17,21.17,0,0,0-2.76,1c-.06,0,0,.14,0,.12a21.88,21.88,0,0,0,2.37-.65c.89-.26,1.79-.51,2.68-.75s1.67-.5,2.51-.71a2.53,2.53,0,0,1,1.21-.17c.32.13.35,1,.39,1.25a4.16,4.16,0,0,1-.52,2.34,12.21,12.21,0,0,0-.83,2.33,6.66,6.66,0,0,0-.17,2.31,8.77,8.77,0,0,0,.75,2C212.22,151.77,212.37,151.7,212.32,151.61Z" style="fill:#263238"></path><path d="M182.06,143.92s13.84-9.16,16.71-11c5.75-3.61,28.43-9,31.45-8.85s3.14,6.41-12.32,10.48c-8.14,2.15-10.18,6.3-10.41,8.75s1.37,7.31,5.46,7.84,7.66-5,11.5-5.09.31,6.4-2.95,9.95a25.25,25.25,0,0,1-12.29,6.84c-3.73.77-15.36,3.77-15.36,3.77Z" style="fill:#d3766a"></path><path d="M218.45,149.1c-1.72,1-3.69,2.22-5.72,2s-3.25-1.81-3.95-3.66a7.81,7.81,0,0,1-.19-5.8,9.56,9.56,0,0,1,3.5-4.13,23.59,23.59,0,0,1,6.09-2.82c.09,0,0-.17-.06-.14-2,.55-8.21,2-10.17,7a7.94,7.94,0,0,0,.24,5.91c.65,1.77,1.72,3.53,3.67,4,2.37.57,4.75-1.06,6.7-2.25C218.65,149.12,218.54,149.05,218.45,149.1Z" style="fill:#263238"></path><path d="M179.47,143.65,189.59,172s-22.75,7.25-32.9,5.2S131.11,154.07,124.34,145s-.59-11.42,10.92-5.76,23.87,12.91,24.92,12.91S179.47,143.65,179.47,143.65Z" style="fill:#278DFF"></path><path d="M134.3,149.76a.86.86,0,1,1-.86-.85A.85.85,0,0,1,134.3,149.76Zm12.75-.85a.86.86,0,1,0,.86.85A.85.85,0,0,0,147.05,148.91Zm27.21,0a.86.86,0,1,0,.86.85A.85.85,0,0,0,174.26,148.91Zm-47.62-10.09a.86.86,0,0,0,0,1.72.86.86,0,0,0,0-1.72Zm20.41,30.44a.86.86,0,1,0,.86.86A.86.86,0,0,0,147.05,169.26Zm13.6,0a.86.86,0,1,0,.86.86A.87.87,0,0,0,160.65,169.26Zm13.61,0a.86.86,0,1,0,.86.86A.86.86,0,0,0,174.26,169.26Zm13.6,0a.86.86,0,1,0,.86.86A.87.87,0,0,0,187.86,169.26Zm-47.61-10.08a.86.86,0,1,0,.85.86A.85.85,0,0,0,140.25,159.18Zm13.6,0a.86.86,0,1,0,.86.86A.86.86,0,0,0,153.85,159.18Zm13.61,0a.86.86,0,1,0,.85.86A.85.85,0,0,0,167.46,159.18Zm13.6,0a.86.86,0,1,0,.86.86A.86.86,0,0,0,181.06,159.18Z" style="fill:#fff"></path><path d="M174.51,146.72a31.38,31.38,0,0,0,.92,3.42c.32,1.13.62,2.27,1,3.4q1,3.27,2.09,6.49a135.1,135.1,0,0,0,4.92,12.77.08.08,0,0,0,.15-.06c-1.4-4.41-3-8.75-4.51-13.13-.74-2.15-1.47-4.31-2.2-6.46-.37-1.08-.76-2.15-1.12-3.23a32.53,32.53,0,0,0-1.11-3.24C174.59,146.62,174.51,146.66,174.51,146.72Z" style="fill:#263238"></path><path d="M169.11,176.91l-.16,0-.91.13-.44.06-1,.12-.63.07-1,.1h-.08l-.93.07c-.64,0-1.26.08-1.87.1h-.1a26.19,26.19,0,0,1-4.26-.19c-.34,0-.67-.1-1-.16-10.14-2.05-25.58-23.17-32.35-32.26a21.63,21.63,0,0,1-1.75-2.71c-.13-.23-.23-.44-.33-.65a10.67,10.67,0,0,1-.42-1.07,2.07,2.07,0,0,1-.1-.33,2.81,2.81,0,0,1-.08-.31,1.77,1.77,0,0,1-.06-.3c0-.1,0-.2,0-.29s0-.19,0-.28h0a2.41,2.41,0,0,1,1-2.24Z" style="opacity:0.1"></path><path d="M145.43,201.88l-61.1,1.55s15.64-49.92,28.23-63.37c5.73-6.13,11.33-5.19,16.08-1.25,1.18,1,15.87,19.62,17.11,26.11,1.1,5.74-3.57,12.11-3.57,12.11Z" style="fill:#278DFF"></path><path d="M142.53,157.08c-.88-1.33-1.79-2.66-2.72-3.94-.15-.46-.34-.9-.51-1.35a16.91,16.91,0,0,0-1-1.9,14.42,14.42,0,0,0,.71,2l.24.54q-1.41-1.91-2.91-3.74c1.84,2.94,3.84,5.77,5.69,8.68a39.82,39.82,0,0,1,2.58,4.47,12,12,0,0,1,.63,1.53,12.45,12.45,0,0,1-.37,8.09,27.35,27.35,0,0,1-1.56,4.07.09.09,0,0,0,.15.08,40.09,40.09,0,0,0,1.87-4.11,13.89,13.89,0,0,0,.88-4.28C146.5,163.06,144.39,160.29,142.53,157.08Z" style="fill:#263238"></path><path d="M107.09,149.76a.85.85,0,0,1-.86.86.82.82,0,0,1-.63-.29c.25-.48.51-.94.77-1.4A.84.84,0,0,1,107.09,149.76Zm12.75-.85a.86.86,0,1,0,.86.85A.85.85,0,0,0,119.84,148.91Zm13.6,0a.86.86,0,1,0,.86.85A.85.85,0,0,0,133.44,148.91ZM113.6,139c-.35.31-.69.66-1,1l-.16.18s0,0,0,0a.82.82,0,0,0,.64.29.86.86,0,0,0,.86-.86A.87.87,0,0,0,113.6,139Zm13-.21a.86.86,0,0,0,0,1.72.86.86,0,0,0,0-1.72Zm-20.41,30.44a.86.86,0,1,0,.86.86A.86.86,0,0,0,106.23,169.26Zm13.61,0a.86.86,0,1,0,.86.86A.86.86,0,0,0,119.84,169.26Zm13.6,0a.86.86,0,1,0,.86.86A.86.86,0,0,0,133.44,169.26ZM113,159.18a.86.86,0,1,0,0,1.72.86.86,0,1,0,0-1.72Zm13.6,0a.86.86,0,1,0,.86.86A.86.86,0,0,0,126.64,159.18Zm13.61,0a.86.86,0,1,0,.85.86A.85.85,0,0,0,140.25,159.18ZM92.63,189.62a.86.86,0,1,0,.86.86A.86.86,0,0,0,92.63,189.62Zm13.6,0a.86.86,0,1,0,.86.86A.85.85,0,0,0,106.23,189.62Zm13.61,0a.86.86,0,1,0,0,1.72.86.86,0,1,0,0-1.72Zm13.6,0a.86.86,0,1,0,.86.86A.85.85,0,0,0,133.44,189.62Zm-34-10.08a.86.86,0,1,0,.86.85A.86.86,0,0,0,99.43,179.54Zm13.61,0a.86.86,0,1,0,.86.85A.85.85,0,0,0,113,179.54Zm13.6,0a.86.86,0,1,0,.86.85A.86.86,0,0,0,126.64,179.54Zm13.61,0a.86.86,0,1,0,.85.85A.85.85,0,0,0,140.25,179.54ZM85.83,199.89a.76.76,0,0,0-.39.1c-.14.42-.26.8-.37,1.15a.83.83,0,0,0,.76.47.86.86,0,0,0,0-1.72Zm13.6,0a.86.86,0,0,0,0,1.72.86.86,0,0,0,0-1.72Zm13.61,0a.86.86,0,1,0,.86.86A.86.86,0,0,0,113,199.89Zm13.6,0a.86.86,0,1,0,0,1.72.86.86,0,0,0,0-1.72Zm13.61,0a.86.86,0,1,0,.85.86A.86.86,0,0,0,140.25,199.89Z" style="fill:#fff"></path><path d="M110.37,141.16C86,158.86,61,200.4,70.07,206.4c8.25,5.48,37.29,7.19,49.47,6.57,3.58-.19,2.52-27.92-1.31-27.73-4.62.23-17.19-.33-17.64-.45-1-.25,15-28,20.41-38.81C128.57,131,119.51,134.51,110.37,141.16Z" style="fill:#d3766a"></path><path d="M116.2,185.41s10.79-.95,17.87-1.24c4-.17,10.75.16,13.71,1.37,4.43,1.81,21.78,12.19,19.35,16.45-2.2,3.86-16-7-16-7s14.86,9.69,11.36,13.85-17.43-10.13-17.43-10.13,15,10.29,10.76,14c-3.24,2.81-16.6-9.42-16.6-9.42s12.88,8.94,9.67,12c-3.54,3.35-16.58-7.16-16.58-7.16-9.45,6.33-16.54,5.48-21.51,4.28C109.63,212.13,116.2,185.41,116.2,185.41Z" style="fill:#d3766a"></path><path d="M146.23,191.36c1.79,1.07,3.61,2.15,5.29,3.37s3.33,2.52,4.89,3.9a35.57,35.57,0,0,1,5.58,6c-3.17-3.68-9.14-8.18-10.82-9.4s-3.3-2.54-5-3.77C146.14,191.39,146.19,191.33,146.23,191.36Z" style="fill:#263238"></path><path d="M141.68,197.36c2.23,1.47,4.49,2.85,6.64,4.42s4.05,3.23,6.09,4.94c.15.13,0,.17-.13,0-2.1-1.62-4.17-3-6.29-4.56s-4.18-3.28-6.35-4.79C141.61,197.39,141.65,197.34,141.68,197.36Z" style="fill:#263238"></path><path d="M136.85,201.81a59.46,59.46,0,0,1,9.64,7.54c.15.13,0,.17-.18,0-3.15-2.57-5.61-4.6-9.53-7.46C136.72,201.89,136.78,201.77,136.85,201.81Z" style="fill:#263238"></path><path d="M101.8,184.13c-1.18-1.45,15.11-27.36,20.5-39.53s-.62-12.56-11.84-4c-12,9.14-33.12,30.37-41.53,54.7-2.63,7.6-5.25,12.89,12.89,15.91a209.6,209.6,0,0,0,31.89,3.06l1.34-29.32S102.14,184.55,101.8,184.13Z" style="fill:#278DFF"></path><path d="M107.09,149.76a.86.86,0,1,1-.86-.85A.85.85,0,0,1,107.09,149.76Zm12.75-.85a.85.85,0,0,0-.86.85.83.83,0,0,0,.44.75c.27-.52.53-1,.78-1.52A.86.86,0,0,0,119.84,148.91ZM113,138.82a.86.86,0,1,0,.86.86A.86.86,0,0,0,113,138.82ZM92.63,169.26a.86.86,0,1,0,.86.86A.87.87,0,0,0,92.63,169.26Zm13.6,0a.86.86,0,1,0,.86.86A.86.86,0,0,0,106.23,169.26Zm-6.8-10.08a.86.86,0,1,0,.86.86A.86.86,0,0,0,99.43,159.18Zm13.61,0a.86.86,0,1,0,0,1.72.86.86,0,1,0,0-1.72ZM79,189.62a.86.86,0,1,0,.86.86A.85.85,0,0,0,79,189.62Zm13.61,0a.86.86,0,1,0,.86.86A.86.86,0,0,0,92.63,189.62Zm13.6,0a.86.86,0,1,0,.86.86A.85.85,0,0,0,106.23,189.62Zm-20.4-10.08a.86.86,0,1,0,.86.85A.85.85,0,0,0,85.83,179.54Zm13.6,0a.86.86,0,1,0,.86.85A.86.86,0,0,0,99.43,179.54ZM79,210a.84.84,0,0,0-.78.52c.52.12,1.07.23,1.64.34A.86.86,0,0,0,79,210Zm13.61,0a.86.86,0,1,0,.86.86A.87.87,0,0,0,92.63,210Zm13.6,0a.86.86,0,1,0,.86.86A.86.86,0,0,0,106.23,210Zm-34-10.08a.86.86,0,1,0,0,1.72.86.86,0,0,0,0-1.72Zm13.61,0a.86.86,0,1,0,.86.86A.86.86,0,0,0,85.83,199.89Zm13.6,0a.86.86,0,0,0,0,1.72.86.86,0,0,0,0-1.72Zm13.61,0a.86.86,0,1,0,.86.86A.86.86,0,0,0,113,199.89Z" style="fill:#fff"></path><path d="M107.37,212.83c-.22-11.74,1.32-24.11,1.44-26.28a.08.08,0,1,1,.16,0c-.23,2.12-.46,16.45-1.42,26.28C107.54,213,107.37,212.94,107.37,212.83Z" style="fill:#263238"></path><path d="M87.64,183.82a24.56,24.56,0,0,1,3.54-.08c1.09,0,2.19,0,3.29,0h1.42l-.13,0-1.79-.6c-.6-.21-1.19-.46-1.8-.62-.1,0-.06-.19,0-.16.6.2,1.22.31,1.83.46l1.9.49c.55.14,1.1.32,1.65.49,1.06,0,2.11,0,3.17.09.82-1.95,1.91-3.83,2.89-5.69s2.09-3.89,3.18-5.82,2.17-3.75,3.31-5.6c.58-.92,3.79-6.64,4.76-8.11.06-.09.18,0,.13.09-.69,1.54-4,7.42-4.47,8.38-.37.7-.74,1.39-1.1,2.09l.1-.1,1.55-1.42c1-1,2.07-1.95,3-3,.08-.09.21,0,.14.13-.91,1.11-1.8,2.25-2.75,3.34-.47.54-1,1.07-1.47,1.58a10.08,10.08,0,0,1-1.58,1.41h0c-.31.57-.6,1.15-.91,1.72-1,1.91-2,3.82-3,5.74-.93,1.75-1.78,3.58-2.79,5.29,2.16.11,4.32.25,6.48.38l3.31.22c1.17.08,2.38.31,3.56.31.1,0,.11.17,0,.16-1.16-.08-2.37.06-3.54.05s-2.2,0-3.29,0c-2.33,0-4.65-.05-7-.12s-4.58-.23-6.86-.38L91,184.25a23,23,0,0,1-3.33-.32A.06.06,0,0,1,87.64,183.82Z" style="fill:#263238"></path><path d="M122.56,134.09c-5.14.73-4.29,8.26-2.2,12.28s7.41,8.22,8.63,8,2.38-7.23,2.38-7.23,4,4.31,5,3.76c.64-.34-.79-5.74-1.51-7.8S130.43,133,122.56,134.09Z" style="fill:#fff"></path><path d="M120.65,138.88c.27,1.07,5.53,8,10.45,7.65,1.6-.11,1.4-8.87,1.4-8.87l.14-.65,1.86-9.11-10.77-6.64-1.56-.87s-.34,2.52-.74,5.67c0,.15,0,.29-.06.45s-.05.34-.07.51c-.07.47-.13,1-.19,1.43s-.08.72-.12,1.1-.07.76-.11,1.14A58.68,58.68,0,0,0,120.65,138.88Z" style="fill:#d3766a"></path><path d="M121.43,126.06A18.62,18.62,0,0,0,132.64,137l1.86-9.11-10.77-6.64-1.56-.87S121.83,122.91,121.43,126.06Z" style="fill:#263238"></path><path d="M147.85,113.21c2.59,16.1-6.77,19.47-10.24,20-3.15.5-14,1.81-18.18-13.93s2.43-22,9.58-23.57S145.27,97.11,147.85,113.21Z" style="fill:#d3766a"></path><path d="M145.13,110.8c-.38,0-.74,0-1.12-.08a1.85,1.85,0,0,1-1.13-.3.59.59,0,0,1-.1-.7,1.45,1.45,0,0,1,1.36-.53,2.06,2.06,0,0,1,1.42.56A.62.62,0,0,1,145.13,110.8Z" style="fill:#263238"></path><path d="M134.44,113.9a10.38,10.38,0,0,0,1.06-.39,1.8,1.8,0,0,0,1-.59.58.58,0,0,0-.1-.7,1.44,1.44,0,0,0-1.45-.14,2.08,2.08,0,0,0-1.21.92A.62.62,0,0,0,134.44,113.9Z" style="fill:#263238"></path><path d="M137.16,115.9s-.08.07-.07.11c.21,1.09.27,2.38-.66,2.9,0,0,0,.07,0,.06C137.63,118.6,137.53,116.9,137.16,115.9Z" style="fill:#263238"></path><path d="M136,114.91c-1.78.16-1.35,3.71.31,3.57S137.49,114.79,136,114.91Z" style="fill:#263238"></path><path d="M135.32,115.19c-.29.24-.55.63-.92.71s-.8-.23-1.13-.56c0,0-.06,0-.05,0,.07.68.42,1.35,1.16,1.36s1.08-.65,1.17-1.35C135.57,115.27,135.43,115.09,135.32,115.19Z" style="fill:#263238"></path><path d="M143.26,114.92s.09,0,.09.09c.09,1.11.38,2.36,1.42,2.61,0,0,0,.07,0,.06C143.53,117.65,143.17,116,143.26,114.92Z" style="fill:#263238"></path><path d="M144.11,113.66c1.76-.34,2.3,3.2.68,3.52S142.64,113.94,144.11,113.66Z" style="fill:#263238"></path><path d="M144.89,113.78c.3.14.63.44,1,.41s.62-.46.81-.87c0,0,.05,0,.06,0,.13.68,0,1.42-.62,1.65s-1.1-.31-1.37-1C144.69,113.92,144.76,113.72,144.89,113.78Z" style="fill:#263238"></path><path d="M138.14,125c.28.24.57.58,1,.58a2.81,2.81,0,0,0,1.17-.37,0,0,0,0,1,.05.06,1.52,1.52,0,0,1-1.36.71A1.2,1.2,0,0,1,138,125C138,125,138.09,124.93,138.14,125Z" style="fill:#263238"></path><path d="M142.15,122.6a4.55,4.55,0,0,1-1.5,1.73,2,2,0,0,1-1.2.31c-.92,0-1.11-.85-1.08-1.58a5.11,5.11,0,0,1,.18-1.13A5.85,5.85,0,0,0,142.15,122.6Z" style="fill:#263238"></path><path d="M140.65,124.33a2,2,0,0,1-1.2.31c-.92,0-1.11-.85-1.08-1.58A2.12,2.12,0,0,1,140.65,124.33Z" style="fill:#ff9bbc"></path><path d="M142.2,120.37s.45,1.61.56,2.39c0,.07-.18.13-.44.18h0a3.72,3.72,0,0,1-3.76-.9c-.07-.07,0-.16.1-.12a5.63,5.63,0,0,0,3.49.51c0-.22-.86-2.74-.73-2.76a6.5,6.5,0,0,1,1.81.16c-.83-3.39-2.21-6.61-3-10,0-.12.15-.18.2-.08a56,56,0,0,1,3.67,10.64C144.21,120.83,142.53,120.46,142.2,120.37Z" style="fill:#263238"></path><path d="M137.12,98.5a7.07,7.07,0,0,1-.19,4.18c-1.71,3.61-6.06,2.68-7.54,4.11s-.9,4.11-2.16,5.45c-1.74,1.85-4.12,1.14-4.4,2.39s-1.11,5.22-2.69,5.72-9-25.87,11.83-25.09c0,0,2.85-1.17,7.27,1,4.89,2.44,7,10.47,7,10.47s-.1-.11-.81-.74c-1-.88-1.4-1.7-2.13-2.27-1.16-.89-1.79-.55-3-1.43A13.57,13.57,0,0,1,137.12,98.5Z" style="fill:#263238"></path><path d="M136.8,97.35a14,14,0,0,1,.62,3.18,5.86,5.86,0,0,1-.44,3.09,4.33,4.33,0,0,1-2.38,1.86c-1,.36-2.07.47-3.14.9a3.28,3.28,0,0,0-1.39,1.05,4.42,4.42,0,0,0-.6,1.59,5.73,5.73,0,0,1-1.15,2.88,3.62,3.62,0,0,1-2.78,1.18c-1.05,0-2.2-.29-3.22.17,1.05-.38,2.12,0,3.21.08a3.92,3.92,0,0,0,3.08-1.16,5.75,5.75,0,0,0,1.31-3,4,4,0,0,1,.55-1.42,2.82,2.82,0,0,1,1.19-.86c1-.41,2.06-.54,3.11-.94a5.29,5.29,0,0,0,1.47-.81,3.42,3.42,0,0,0,1.1-1.31,6.2,6.2,0,0,0,.33-3.29A13.76,13.76,0,0,0,136.8,97.35Z" style="fill:#263238"></path><path d="M137.2,98.3a11.36,11.36,0,0,0,1,2.86,5.28,5.28,0,0,0,2.09,2.28,7.54,7.54,0,0,0,1.43.56,2.42,2.42,0,0,1,1.13.75,7.65,7.65,0,0,0,.9,1.22,3.4,3.4,0,0,0,1.32.77,3.84,3.84,0,0,1-1.13-.94,7.49,7.49,0,0,1-.76-1.27,2.59,2.59,0,0,0-1.29-1,8.83,8.83,0,0,1-1.35-.55,5.49,5.49,0,0,1-2-2A22.15,22.15,0,0,1,137.2,98.3Z" style="fill:#263238"></path><path d="M120.35,125.24a3.94,3.94,0,0,0,.77.14,2.43,2.43,0,0,0,.77,0,2.27,2.27,0,0,0,.91-.37,2.68,2.68,0,0,0,.58-.52,3.14,3.14,0,0,0,.55-1l-1.21-4.28s-3.93-4.82-6.13-3.38S117.57,124.43,120.35,125.24Z" style="fill:#d3766a"></path><path d="M117.55,117.86a0,0,0,0,0,0,.07c1.95.63,3.08,2.32,3.91,4.09a1.52,1.52,0,0,0-2.3-.25c-.05,0,0,.11.06.1a1.68,1.68,0,0,1,1.9.45,7.89,7.89,0,0,1,1,1.44c.11.17.4,0,.33-.14l0,0C122.29,121.16,120.16,117.91,117.55,117.86Z" style="fill:#263238"></path><path d="M120.53,124.54a.75.75,0,0,0,1.45-.41.75.75,0,1,0-1.45.41Z" style="fill:#fff"></path><path d="M118.89,123.51a.54.54,0,0,0,.66.37.53.53,0,0,0-.28-1A.55.55,0,0,0,118.89,123.51Z" style="fill:#fff"></path></g></svg>