<svg xmlns="http://www.w3.org/2000/svg" xmlns:xlink="http://www.w3.org/1999/xlink" viewBox="0 0 500 500"><defs><clipPath id="freepik--clip-path--inject-17"><rect x="153.48" y="123.38" width="254.29" height="155.78" style="fill:#fff;stroke:#263238;stroke-linecap:round;stroke-linejoin:round;stroke-width:0.7708149999999999px"></rect></clipPath></defs><g id="freepik--background-simple--inject-17"><path d="M390.5,96.38c-24.24-20-55.06-29.84-90.52-18.72-35,11-55.83,43.44-87,60.72-33.1,18.38-73.54,16.5-108.72,29.74-24.86,9.37-43.1,29.55-49.27,55.49C43,274.33,65.8,329.32,111.5,355c28.5,16,63.08,18.9,94.11,9,23.83-7.62,45.2-21.6,69-29.64,41.29-13.95,87.33-8.28,127.28-27.34,42.28-20.18,51.27-63.06,45.61-104.09C442.33,165.6,421.94,122.37,390.5,96.38Z" style="fill:#C6EC42"></path><path d="M390.5,96.38c-24.24-20-55.06-29.84-90.52-18.72-35,11-55.83,43.44-87,60.72-33.1,18.38-73.54,16.5-108.72,29.74-24.86,9.37-43.1,29.55-49.27,55.49C43,274.33,65.8,329.32,111.5,355c28.5,16,63.08,18.9,94.11,9,23.83-7.62,45.2-21.6,69-29.64,41.29-13.95,87.33-8.28,127.28-27.34,42.28-20.18,51.27-63.06,45.61-104.09C442.33,165.6,421.94,122.37,390.5,96.38Z" style="fill:#fff;opacity:0.7000000000000001"></path></g><g id="freepik--Gears--inject-17"><path d="M199.53,302.93a20.48,20.48,0,0,0-3.62-3.12l1-5.95-9.32-3L185,296.37a20.23,20.23,0,0,0-9.28,2l-4.65-3.86-7.22,6.6,3.44,5a20,20,0,0,0-2.86,9.06l-5.68,2.09,2.11,9.55,6-.49a20.26,20.26,0,0,0,6.42,7l-1,5.95,9.33,3,2.59-5.47a20.25,20.25,0,0,0,9.28-2l4.64,3.86,7.22-6.6-3.44-5a20.14,20.14,0,0,0,2.87-9.06l5.67-2.09-2.11-9.55-6,.48A20.29,20.29,0,0,0,199.53,302.93Zm-5.93,19.79a10.89,10.89,0,1,1,.51-11.46A10.78,10.78,0,0,1,193.6,322.72Z" style="fill:#C6EC42"></path><path d="M233.8,312.17a13,13,0,0,0-2.3-2l.65-3.79-5.93-1.87L224.57,308a12.87,12.87,0,0,0-5.91,1.3l-2.95-2.46-4.59,4.2,2.18,3.16a12.94,12.94,0,0,0-1.82,5.77l-3.61,1.33,1.34,6.08,3.83-.31a13.08,13.08,0,0,0,4.08,4.46l-.65,3.79,5.93,1.87,1.65-3.47a12.87,12.87,0,0,0,5.91-1.3l2.95,2.46,4.59-4.2-2.18-3.17a12.86,12.86,0,0,0,1.82-5.76l3.61-1.33-1.34-6.08-3.83.31A12.65,12.65,0,0,0,233.8,312.17ZM229.89,325a6.92,6.92,0,1,1,.35-7.68A6.93,6.93,0,0,1,229.89,325Z" style="fill:#C6EC42"></path><path d="M338.75,83.45a12.72,12.72,0,0,0-2.24-1.93l.63-3.68L331.38,76l-1.6,3.38a12.4,12.4,0,0,0-5.73,1.26l-2.87-2.39-4.46,4.08,2.12,3.07a12.53,12.53,0,0,0-1.77,5.6l-3.5,1.29,1.3,5.9,3.72-.3a12.46,12.46,0,0,0,4,4.33l-.63,3.68,5.76,1.82,1.6-3.37a12.54,12.54,0,0,0,5.74-1.26l2.87,2.38,4.45-4.07-2.12-3.08A12.41,12.41,0,0,0,342,92.75l3.51-1.3-1.3-5.9-3.73.31A12.36,12.36,0,0,0,338.75,83.45Zm-3.66,12.23a6.73,6.73,0,1,1,.31-7.08A6.66,6.66,0,0,1,335.09,95.68Z" style="fill:#C6EC42"></path><g style="opacity:0.3"><path d="M199.53,302.93a20.48,20.48,0,0,0-3.62-3.12l1-5.95-9.32-3L185,296.37a20.23,20.23,0,0,0-9.28,2l-4.65-3.86-7.22,6.6,3.44,5a20,20,0,0,0-2.86,9.06l-5.68,2.09,2.11,9.55,6-.49a20.26,20.26,0,0,0,6.42,7l-1,5.95,9.33,3,2.59-5.47a20.25,20.25,0,0,0,9.28-2l4.64,3.86,7.22-6.6-3.44-5a20.14,20.14,0,0,0,2.87-9.06l5.67-2.09-2.11-9.55-6,.48A20.29,20.29,0,0,0,199.53,302.93Zm-5.93,19.79a10.89,10.89,0,1,1,.51-11.46A10.78,10.78,0,0,1,193.6,322.72Z" style="fill:#fff"></path><path d="M233.8,312.17a13,13,0,0,0-2.3-2l.65-3.79-5.93-1.87L224.57,308a12.87,12.87,0,0,0-5.91,1.3l-2.95-2.46-4.59,4.2,2.18,3.16a12.94,12.94,0,0,0-1.82,5.77l-3.61,1.33,1.34,6.08,3.83-.31a13.08,13.08,0,0,0,4.08,4.46l-.65,3.79,5.93,1.87,1.65-3.47a12.87,12.87,0,0,0,5.91-1.3l2.95,2.46,4.59-4.2-2.18-3.17a12.86,12.86,0,0,0,1.82-5.76l3.61-1.33-1.34-6.08-3.83.31A12.65,12.65,0,0,0,233.8,312.17ZM229.89,325a6.92,6.92,0,1,1,.35-7.68A6.93,6.93,0,0,1,229.89,325Z" style="fill:#fff"></path></g><path d="M338.75,83.45a12.72,12.72,0,0,0-2.24-1.93l.63-3.68L331.38,76l-1.6,3.38a12.4,12.4,0,0,0-5.73,1.26l-2.87-2.39-4.46,4.08,2.12,3.07a12.53,12.53,0,0,0-1.77,5.6l-3.5,1.29,1.3,5.9,3.72-.3a12.46,12.46,0,0,0,4,4.33l-.63,3.68,5.76,1.82,1.6-3.37a12.54,12.54,0,0,0,5.74-1.26l2.87,2.38,4.45-4.07-2.12-3.08A12.41,12.41,0,0,0,342,92.75l3.51-1.3-1.3-5.9-3.73.31A12.36,12.36,0,0,0,338.75,83.45Zm-3.66,12.23a6.73,6.73,0,1,1,.31-7.08A6.66,6.66,0,0,1,335.09,95.68Z" style="fill:#fff;opacity:0.3"></path><path d="M128.31,118.83a6.84,6.84,0,0,0-1.23-1.06l.35-2-3.17-1-.89,1.86a6.83,6.83,0,0,0-3.15.7L118.64,116l-2.46,2.25,1.17,1.69a6.79,6.79,0,0,0-1,3.08l-1.93.71.72,3.25,2-.17a7.11,7.11,0,0,0,1,1.32,6.57,6.57,0,0,0,1.24,1.07l-.35,2,3.17,1,.88-1.86a6.81,6.81,0,0,0,3.15-.7l1.58,1.32,2.46-2.25L129.12,127a6.83,6.83,0,0,0,1-3.08l1.93-.71-.71-3.25-2.05.17A7.05,7.05,0,0,0,128.31,118.83Zm-2,6.73a3.69,3.69,0,0,1-6.28-.28,3.65,3.65,0,0,1,.17-3.89,3.7,3.7,0,1,1,6.11,4.17Z" style="fill:#C6EC42"></path><path d="M128.31,118.83a6.84,6.84,0,0,0-1.23-1.06l.35-2-3.17-1-.89,1.86a6.83,6.83,0,0,0-3.15.7L118.64,116l-2.46,2.25,1.17,1.69a6.79,6.79,0,0,0-1,3.08l-1.93.71.72,3.25,2-.17a7.11,7.11,0,0,0,1,1.32,6.57,6.57,0,0,0,1.24,1.07l-.35,2,3.17,1,.88-1.86a6.81,6.81,0,0,0,3.15-.7l1.58,1.32,2.46-2.25L129.12,127a6.83,6.83,0,0,0,1-3.08l1.93-.71-.71-3.25-2.05.17A7.05,7.05,0,0,0,128.31,118.83Zm-2,6.73a3.69,3.69,0,0,1-6.28-.28,3.65,3.65,0,0,1,.17-3.89,3.7,3.7,0,1,1,6.11,4.17Z" style="fill:#fff;opacity:0.7000000000000001"></path></g><g id="freepik--Plant--inject-17"><path d="M134.57,388.43s-7.25,1.45-19.82,9.18-17.39,15-17.39,15" style="fill:none;stroke:#fff;stroke-miterlimit:10;stroke-width:0.729px"></path><polyline points="116.2 390.36 113.79 398.09 126.35 396.16" style="fill:none;stroke:#fff;stroke-miterlimit:10;stroke-width:0.729px"></polyline><polyline points="115 403.41 107.5 403.17 109.92 397.61" style="fill:none;stroke:#fff;stroke-miterlimit:10;stroke-width:0.729px"></polyline><polyline points="110.16 408.97 100.25 409.69 101.95 401.24" style="fill:none;stroke:#fff;stroke-miterlimit:10;stroke-width:0.729px"></polyline><line x1="128.04" y1="390.36" x2="130.7" y2="386.25" style="fill:none;stroke:#fff;stroke-miterlimit:10;stroke-width:0.729px"></line><path d="M74,395.6s4.55,1,12.44,6.65,10.93,10.86,10.93,10.86" style="fill:none;stroke:#fff;stroke-miterlimit:10;stroke-width:0.729px"></path><polyline points="85.5 397 87.02 402.61 79.13 401.2" style="fill:none;stroke:#fff;stroke-miterlimit:10;stroke-width:0.729px"></polyline><polyline points="86.26 406.46 90.97 406.28 89.45 402.25" style="fill:none;stroke:#fff;stroke-miterlimit:10;stroke-width:0.729px"></polyline><polyline points="89.3 410.48 95.52 411.01 94.46 404.88" style="fill:none;stroke:#fff;stroke-miterlimit:10;stroke-width:0.729px"></polyline><line x1="78.07" y1="397" x2="76.4" y2="394.03" style="fill:none;stroke:#fff;stroke-miterlimit:10;stroke-width:0.729px"></line><path d="M134,342.05s1.25-2.57,1.3-2.74c.67-2,.79-6.26-1.11-7.66a2.81,2.81,0,0,0-4.05,1c-.85,1.44-.49,3.46.11,4.91C131,339.23,134,342,134,342.05Z" style="fill:#C6EC42"></path><path d="M137.6,386.51s-.46-4.15-2.77-5.54-12,10.61-13.83,8.77c-.72-.72-1-2.22-1.15-3.78a3.66,3.66,0,0,0,.65,0c1.58-.06,3.56-.57,4.52-1.94a2.79,2.79,0,0,0-.81-4.07c-1.61-.9-4.28,0-6.12,1.18a1.76,1.76,0,0,0-.78-.19,1,1,0,0,0-.37.08c.23-.4.45-.8.68-1.22s.5-1,.75-1.45.47-1,.71-1.53c.54-1.2,1-2.44,1.48-3.7.78.46,3.58,2.06,5.15,2.24s3.6,0,4.75-1.23a2.78,2.78,0,0,0-.18-4.15c-1.86-1.45-5.92-.18-7.66,1-.11.07-1.27,1.06-1.89,1.62.27-.76.54-1.52.79-2.3.71-2.24,1.37-4.54,2-6.83.2-.7.41-1.4.62-2.09.27.16,3.56,2.14,5.32,2.34,1.56.18,3.61,0,4.76-1.23a2.81,2.81,0,0,0-.18-4.16c-1.87-1.45-5.93-.17-7.67,1-.13.09-1.79,1.52-2.19,1.91.45-1.54.92-3.06,1.45-4.55a48.45,48.45,0,0,1,2.48-5.88c.13.08,3.55,2.15,5.35,2.36,1.56.18,3.61,0,4.76-1.23a2.81,2.81,0,0,0-.18-4.16c-1.87-1.44-5.93-.17-7.67,1-.14.09-1.92,1.63-2.22,1.93l.15-.34a36.52,36.52,0,0,1,3.51-5.34c.72-.94,1.46-1.79,2.2-2.6.6.45,3.35,2.48,5,2.85s3.58.37,4.86-.7a2.8,2.8,0,0,0,.27-4.15c-1.69-1.65-5.87-.83-7.73.16-.1,0-1.07.72-1.77,1.21.34-.37.69-.75,1-1.09,1.24-1.28,2.46-2.37,3.55-3.33.62-.55,1.19-1,1.73-1.47.82.14,4.12.65,5.68.25s3.36-1.33,4-2.87a2.79,2.79,0,0,0-1.66-3.81c-2.26-.67-5.59,2-6.79,3.71-.1.15-1.45,2.68-1.41,2.69h0c-.53.41-1.09.86-1.69,1.37-1.11.94-2.36,2-3.63,3.27a50.28,50.28,0,0,0-3.93,4.26,36.76,36.76,0,0,0-3.67,5.33l0,.07c.14-.68.46-2.58.47-2.73.12-2.11-.89-6.24-3.1-7.09a2.8,2.8,0,0,0-3.65,2c-.43,1.61.45,3.47,1.41,4.71,1.08,1.41,4.49,3.21,4.76,3.35a49.1,49.1,0,0,0-2.7,6c-.46,1.2-.88,2.42-1.28,3.65.1-.59.19-1.11.19-1.19.12-2.1-.89-6.24-3.1-7.09a2.8,2.8,0,0,0-3.65,2c-.43,1.6.45,3.46,1.41,4.7s3.84,2.86,4.61,3.27c-.15.48-.31.95-.45,1.42-.72,2.28-1.42,4.55-2.17,6.76-.27.78-.56,1.54-.85,2.3.09-.52.16-1,.16-1,.12-2.11-.89-6.24-3.09-7.09a2.78,2.78,0,0,0-1.19-.17,9.1,9.1,0,0,0,.84-3.55c0-7.38-9.83,7.59-11.5,3.94s11.41-18.7,9.55-24-13.94,19.23-13.94,19.23-1.73-8.65-4.92-7.76,1.13,20.06-2.16,20.13-9.11-7.18-11.65-4.25,11.2,21.47,8,22.36-9.08-3.49-9.52-.2c-.11.9,1,3,2.64,5.48a2.72,2.72,0,0,1-.48,1.11c-1.16,1.34-7.24-7.35-8.69-6.35s-1.74,4-1.74,4-10.72-3-9.27-.34,11.88,2.68,12.75,4.68-8.4.67-5.51,3.35,12.46,1,13.62,2.67-5.5,2.34-3.19,3.68,11,.66,8.4,1.33-8.4,2.68-4.34,3.68c3.45.85,11.1,2.19,12.76.09a2.52,2.52,0,0,0,.91.14c3.67,2.06,14.49.4,19.58-.69,6.46-1.39-2.77-4.15-6.92-5.08s9.69,0,13.38-1.84-6.92-2.77-5.08-5.07,17.07,0,21.68-3.69-10.15-1.85-8.76-4.62,18-2.76,20.29-6.45S137.6,386.51,137.6,386.51Zm-24.38-18.22a7.65,7.65,0,0,0,1.34,2.62c.93,1.21,3.57,2.7,4.48,3.19-.32.77-.64,1.54-1,2.27-.25.49-.45,1-.72,1.47s-.52,1-.78,1.43c-.53.9-1.07,1.82-1.6,2.68-.37.6-.73,1.16-1.1,1.73.28-.77.78-2.29.81-2.43.43-2.06.06-6.3-2-7.47a2.8,2.8,0,0,0-3.91,1.42c-.67,1.52-.09,3.49.68,4.86a7.65,7.65,0,0,0,1.34,1.63c-2.42.66-7.13,4.2-7.72,1.63S109.07,374.42,113.22,368.29Z" style="fill:#C6EC42"></path><g style="opacity:0.5"><path d="M134,342.05s1.25-2.57,1.3-2.74c.67-2,.79-6.26-1.11-7.66a2.81,2.81,0,0,0-4.05,1c-.85,1.44-.49,3.46.11,4.91C131,339.23,134,342,134,342.05Z" style="fill:#fff"></path><path d="M137.6,386.51s-.46-4.15-2.77-5.54-12,10.61-13.83,8.77c-.72-.72-1-2.22-1.15-3.78a3.66,3.66,0,0,0,.65,0c1.58-.06,3.56-.57,4.52-1.94a2.79,2.79,0,0,0-.81-4.07c-1.61-.9-4.28,0-6.12,1.18a1.76,1.76,0,0,0-.78-.19,1,1,0,0,0-.37.08c.23-.4.45-.8.68-1.22s.5-1,.75-1.45.47-1,.71-1.53c.54-1.2,1-2.44,1.48-3.7.78.46,3.58,2.06,5.15,2.24s3.6,0,4.75-1.23a2.78,2.78,0,0,0-.18-4.15c-1.86-1.45-5.92-.18-7.66,1-.11.07-1.27,1.06-1.89,1.62.27-.76.54-1.52.79-2.3.71-2.24,1.37-4.54,2-6.83.2-.7.41-1.4.62-2.09.27.16,3.56,2.14,5.32,2.34,1.56.18,3.61,0,4.76-1.23a2.81,2.81,0,0,0-.18-4.16c-1.87-1.45-5.93-.17-7.67,1-.13.09-1.79,1.52-2.19,1.91.45-1.54.92-3.06,1.45-4.55a48.45,48.45,0,0,1,2.48-5.88c.13.08,3.55,2.15,5.35,2.36,1.56.18,3.61,0,4.76-1.23a2.81,2.81,0,0,0-.18-4.16c-1.87-1.44-5.93-.17-7.67,1-.14.09-1.92,1.63-2.22,1.93l.15-.34a36.52,36.52,0,0,1,3.51-5.34c.72-.94,1.46-1.79,2.2-2.6.6.45,3.35,2.48,5,2.85s3.58.37,4.86-.7a2.8,2.8,0,0,0,.27-4.15c-1.69-1.65-5.87-.83-7.73.16-.1,0-1.07.72-1.77,1.21.34-.37.69-.75,1-1.09,1.24-1.28,2.46-2.37,3.55-3.33.62-.55,1.19-1,1.73-1.47.82.14,4.12.65,5.68.25s3.36-1.33,4-2.87a2.79,2.79,0,0,0-1.66-3.81c-2.26-.67-5.59,2-6.79,3.71-.1.15-1.45,2.68-1.41,2.69h0c-.53.41-1.09.86-1.69,1.37-1.11.94-2.36,2-3.63,3.27a50.28,50.28,0,0,0-3.93,4.26,36.76,36.76,0,0,0-3.67,5.33l0,.07c.14-.68.46-2.58.47-2.73.12-2.11-.89-6.24-3.1-7.09a2.8,2.8,0,0,0-3.65,2c-.43,1.61.45,3.47,1.41,4.71,1.08,1.41,4.49,3.21,4.76,3.35a49.1,49.1,0,0,0-2.7,6c-.46,1.2-.88,2.42-1.28,3.65.1-.59.19-1.11.19-1.19.12-2.1-.89-6.24-3.1-7.09a2.8,2.8,0,0,0-3.65,2c-.43,1.6.45,3.46,1.41,4.7s3.84,2.86,4.61,3.27c-.15.48-.31.95-.45,1.42-.72,2.28-1.42,4.55-2.17,6.76-.27.78-.56,1.54-.85,2.3.09-.52.16-1,.16-1,.12-2.11-.89-6.24-3.09-7.09a2.78,2.78,0,0,0-1.19-.17,9.1,9.1,0,0,0,.84-3.55c0-7.38-9.83,7.59-11.5,3.94s11.41-18.7,9.55-24-13.94,19.23-13.94,19.23-1.73-8.65-4.92-7.76,1.13,20.06-2.16,20.13-9.11-7.18-11.65-4.25,11.2,21.47,8,22.36-9.08-3.49-9.52-.2c-.11.9,1,3,2.64,5.48a2.72,2.72,0,0,1-.48,1.11c-1.16,1.34-7.24-7.35-8.69-6.35s-1.74,4-1.74,4-10.72-3-9.27-.34,11.88,2.68,12.75,4.68-8.4.67-5.51,3.35,12.46,1,13.62,2.67-5.5,2.34-3.19,3.68,11,.66,8.4,1.33-8.4,2.68-4.34,3.68c3.45.85,11.1,2.19,12.76.09a2.52,2.52,0,0,0,.91.14c3.67,2.06,14.49.4,19.58-.69,6.46-1.39-2.77-4.15-6.92-5.08s9.69,0,13.38-1.84-6.92-2.77-5.08-5.07,17.07,0,21.68-3.69-10.15-1.85-8.76-4.62,18-2.76,20.29-6.45S137.6,386.51,137.6,386.51Zm-24.38-18.22a7.65,7.65,0,0,0,1.34,2.62c.93,1.21,3.57,2.7,4.48,3.19-.32.77-.64,1.54-1,2.27-.25.49-.45,1-.72,1.47s-.52,1-.78,1.43c-.53.9-1.07,1.82-1.6,2.68-.37.6-.73,1.16-1.1,1.73.28-.77.78-2.29.81-2.43.43-2.06.06-6.3-2-7.47a2.8,2.8,0,0,0-3.91,1.42c-.67,1.52-.09,3.49.68,4.86a7.65,7.65,0,0,0,1.34,1.63c-2.42.66-7.13,4.2-7.72,1.63S109.07,374.42,113.22,368.29Z" style="fill:#fff"></path></g><path d="M102.87,358.63s-4.27,7.82-6.45,25.9,1.23,28.75,1.23,28.75" style="fill:none;stroke:#fff;stroke-miterlimit:10;stroke-width:0.729px"></path><polyline points="90.33 376.94 96.14 385.83 104.11 372.77" style="fill:none;stroke:#fff;stroke-miterlimit:10;stroke-width:0.729px"></polyline><polyline points="102.39 389.34 96.25 395.92 92.61 388.91" style="fill:none;stroke:#fff;stroke-miterlimit:10;stroke-width:0.729px"></polyline><polyline points="104.13 398.54 97.05 408.14 89.95 399.28" style="fill:none;stroke:#fff;stroke-miterlimit:10;stroke-width:0.729px"></polyline><line x1="99.66" y1="366.21" x2="97.65" y2="360.24" style="fill:none;stroke:#fff;stroke-miterlimit:10;stroke-width:0.729px"></line></g><g id="freepik--Window--inject-17"><rect x="148.02" y="113.46" width="265.19" height="171.2" rx="4.56" style="fill:#263238"></rect><rect x="153.48" y="123.38" width="254.29" height="155.78" style="fill:#fff"></rect><g style="clip-path:url(#freepik--clip-path--inject-17)"><rect x="153.48" y="123.38" width="254.29" height="155.78" style="opacity:0.32"></rect></g><rect x="153.48" y="123.38" width="254.29" height="155.78" style="fill:none;stroke:#263238;stroke-linecap:round;stroke-linejoin:round;stroke-width:0.7708149999999999px"></rect><polygon points="207.44 123.38 207.44 118.08 153.48 118.08 153.48 123.38 153.48 132.85 153.48 135.77 407.76 135.77 407.76 123.38 207.44 123.38" style="fill:#fff;stroke:#263238;stroke-linecap:round;stroke-linejoin:round;stroke-width:0.7708149999999999px"></polygon><line x1="390.48" y1="126.1" x2="390.48" y2="133.58" style="fill:none;stroke:#263238;stroke-linecap:round;stroke-linejoin:round;stroke-width:0.7708149999999999px"></line><line x1="395.47" y1="126.38" x2="402.27" y2="126.38" style="fill:none;stroke:#263238;stroke-linecap:round;stroke-linejoin:round;stroke-width:0.7708149999999999px"></line><line x1="395.47" y1="129.84" x2="402.27" y2="129.84" style="fill:none;stroke:#263238;stroke-linecap:round;stroke-linejoin:round;stroke-width:0.7708149999999999px"></line><line x1="395.47" y1="133.31" x2="402.27" y2="133.31" style="fill:none;stroke:#263238;stroke-linecap:round;stroke-linejoin:round;stroke-width:0.7708149999999999px"></line><path d="M204.62,121l.9-.9a.22.22,0,0,0,0-.32.21.21,0,0,0-.31,0l-.91.9-.9-.9a.23.23,0,0,0-.32.32l.91.9-.91.9a.22.22,0,0,0,0,.32.22.22,0,0,0,.32,0l.9-.9.91.9a.2.2,0,0,0,.16.07.19.19,0,0,0,.15-.07.22.22,0,0,0,0-.32Z" style="fill:#263238"></path><path d="M270.65,131.81H165.82a2.11,2.11,0,0,1-2.12-2.11h0a2.12,2.12,0,0,1,2.12-2.12H270.65a2.11,2.11,0,0,1,2.11,2.12h0A2.1,2.1,0,0,1,270.65,131.81Z" style="fill:#C6EC42;stroke:#263238;stroke-linecap:round;stroke-linejoin:round;stroke-width:0.7708149999999999px"></path><path d="M270.65,127.58h-6.14v4.23h6.14a2.12,2.12,0,0,0,0-4.23Z" style="fill:#fff;stroke:#263238;stroke-linecap:round;stroke-linejoin:round;stroke-width:0.7708149999999999px"></path></g><g id="freepik--robot-2--inject-17"><path d="M414.22,427.18c0,3.14-19.09,5.68-42.63,5.68S329,430.32,329,427.18s19.09-5.69,42.64-5.69S414.22,424,414.22,427.18Z" style="fill:#C6EC42"></path><path d="M414.22,427.18c0,3.14-19.09,5.68-42.63,5.68S329,430.32,329,427.18s19.09-5.69,42.64-5.69S414.22,424,414.22,427.18Z" style="fill:#fff;opacity:0.5"></path><polyline points="440.59 239.55 440.59 211.95 446.98 211.95 446.98 239.55" style="fill:#fff"></polyline><polygon points="447.46 239.55 446.5 239.55 446.5 212.43 441.07 212.43 441.07 239.55 440.11 239.55 440.11 211.47 447.46 211.47 447.46 239.55" style="fill:#263238"></polygon><polygon points="445.67 239.55 445.19 239.55 445.19 212.19 442.38 212.19 442.38 239.55 441.9 239.55 441.9 211.71 445.67 211.71 445.67 239.55" style="fill:#263238"></polygon><rect x="440.53" y="214.32" width="6.52" height="0.96" style="fill:#263238"></rect><rect x="440.53" y="217.53" width="6.52" height="0.96" style="fill:#263238"></rect><rect x="440.53" y="220.74" width="6.52" height="0.96" style="fill:#263238"></rect><rect x="440.53" y="222.99" width="6.52" height="2.88" style="fill:#263238"></rect><rect x="440.53" y="227.16" width="6.52" height="0.96" style="fill:#263238"></rect><rect x="440.53" y="230.37" width="6.52" height="0.96" style="fill:#263238"></rect><rect x="440.53" y="233.59" width="6.52" height="0.96" style="fill:#263238"></rect><rect x="440.53" y="236.8" width="6.52" height="0.96" style="fill:#263238"></rect><polyline points="440.59 267.61 440.59 240 446.98 240 446.98 267.61" style="fill:#fff"></polyline><polygon points="447.46 267.61 446.5 267.61 446.5 240.49 441.07 240.49 441.07 267.61 440.11 267.61 440.11 239.53 447.46 239.53 447.46 267.61" style="fill:#263238"></polygon><polygon points="445.67 267.61 445.19 267.61 445.19 240.25 442.38 240.25 442.38 267.61 441.9 267.61 441.9 239.77 445.67 239.77 445.67 267.61" style="fill:#263238"></polygon><rect x="440.53" y="242.38" width="6.52" height="0.96" style="fill:#263238"></rect><rect x="440.53" y="245.59" width="6.52" height="0.96" style="fill:#263238"></rect><rect x="440.53" y="248.8" width="6.52" height="0.96" style="fill:#263238"></rect><rect x="440.53" y="251.05" width="6.52" height="2.88" style="fill:#263238"></rect><rect x="440.53" y="255.22" width="6.52" height="0.96" style="fill:#263238"></rect><rect x="440.53" y="258.43" width="6.52" height="0.96" style="fill:#263238"></rect><rect x="440.53" y="261.65" width="6.52" height="0.96" style="fill:#263238"></rect><rect x="440.53" y="264.86" width="6.52" height="0.96" style="fill:#263238"></rect><polyline points="440.59 295.67 440.59 268.06 446.98 268.06 446.98 295.67" style="fill:#fff"></polyline><polygon points="447.46 295.67 446.5 295.67 446.5 268.55 441.07 268.55 441.07 295.67 440.11 295.67 440.11 267.58 447.46 267.58 447.46 295.67" style="fill:#263238"></polygon><polygon points="445.67 295.67 445.19 295.67 445.19 268.31 442.38 268.31 442.38 295.67 441.9 295.67 441.9 267.82 445.67 267.82 445.67 295.67" style="fill:#263238"></polygon><rect x="440.53" y="270.44" width="6.52" height="0.96" style="fill:#263238"></rect><rect x="440.53" y="273.65" width="6.52" height="0.96" style="fill:#263238"></rect><rect x="440.53" y="276.86" width="6.52" height="0.96" style="fill:#263238"></rect><rect x="440.53" y="279.11" width="6.52" height="2.88" style="fill:#263238"></rect><rect x="440.53" y="283.28" width="6.52" height="0.96" style="fill:#263238"></rect><rect x="440.53" y="286.49" width="6.52" height="0.96" style="fill:#263238"></rect><rect x="440.53" y="289.7" width="6.52" height="0.96" style="fill:#263238"></rect><rect x="440.53" y="292.92" width="6.52" height="0.96" style="fill:#263238"></rect><polyline points="440.59 323.73 440.59 296.12 446.98 296.12 446.98 323.73" style="fill:#fff"></polyline><polygon points="447.46 323.73 446.5 323.73 446.5 296.6 441.07 296.6 441.07 323.73 440.11 323.73 440.11 295.64 447.46 295.64 447.46 323.73" style="fill:#263238"></polygon><polygon points="445.67 323.73 445.19 323.73 445.19 296.36 442.38 296.36 442.38 323.73 441.9 323.73 441.9 295.88 445.67 295.88 445.67 323.73" style="fill:#263238"></polygon><rect x="440.53" y="298.49" width="6.52" height="0.96" style="fill:#263238"></rect><rect x="440.53" y="301.71" width="6.52" height="0.96" style="fill:#263238"></rect><rect x="440.53" y="304.92" width="6.52" height="0.96" style="fill:#263238"></rect><rect x="440.53" y="307.17" width="6.52" height="2.88" style="fill:#263238"></rect><rect x="440.53" y="311.34" width="6.52" height="0.96" style="fill:#263238"></rect><rect x="440.53" y="314.55" width="6.52" height="0.96" style="fill:#263238"></rect><rect x="440.53" y="317.76" width="6.52" height="0.96" style="fill:#263238"></rect><rect x="440.53" y="320.98" width="6.52" height="0.96" style="fill:#263238"></rect><polyline points="440.59 351.79 440.59 324.18 446.98 324.18 446.98 351.79" style="fill:#fff"></polyline><polygon points="447.46 351.79 446.5 351.79 446.5 324.66 441.07 324.66 441.07 351.79 440.11 351.79 440.11 323.7 447.46 323.7 447.46 351.79" style="fill:#263238"></polygon><polygon points="445.67 351.79 445.19 351.79 445.19 324.42 442.38 324.42 442.38 351.79 441.9 351.79 441.9 323.94 445.67 323.94 445.67 351.79" style="fill:#263238"></polygon><rect x="440.53" y="326.55" width="6.52" height="0.96" style="fill:#263238"></rect><rect x="440.53" y="329.77" width="6.52" height="0.96" style="fill:#263238"></rect><rect x="440.53" y="332.98" width="6.52" height="0.96" style="fill:#263238"></rect><rect x="440.53" y="335.23" width="6.52" height="2.88" style="fill:#263238"></rect><rect x="440.53" y="339.4" width="6.52" height="0.96" style="fill:#263238"></rect><rect x="440.53" y="342.61" width="6.52" height="0.96" style="fill:#263238"></rect><rect x="440.53" y="345.82" width="6.52" height="0.96" style="fill:#263238"></rect><rect x="440.53" y="349.04" width="6.52" height="0.96" style="fill:#263238"></rect><polyline points="440.59 379.85 440.59 352.24 446.98 352.24 446.98 379.85" style="fill:#fff"></polyline><polygon points="447.46 379.85 446.5 379.85 446.5 352.72 441.07 352.72 441.07 379.85 440.11 379.85 440.11 351.76 447.46 351.76 447.46 379.85" style="fill:#263238"></polygon><polygon points="445.67 379.85 445.19 379.85 445.19 352.48 442.38 352.48 442.38 379.85 441.9 379.85 441.9 352 445.67 352 445.67 379.85" style="fill:#263238"></polygon><rect x="440.53" y="354.61" width="6.52" height="0.96" style="fill:#263238"></rect><rect x="440.53" y="357.83" width="6.52" height="0.96" style="fill:#263238"></rect><rect x="440.53" y="361.04" width="6.52" height="0.96" style="fill:#263238"></rect><rect x="440.53" y="363.29" width="6.52" height="2.88" style="fill:#263238"></rect><rect x="440.53" y="367.46" width="6.52" height="0.96" style="fill:#263238"></rect><rect x="440.53" y="370.67" width="6.52" height="0.96" style="fill:#263238"></rect><rect x="440.53" y="373.88" width="6.52" height="0.96" style="fill:#263238"></rect><rect x="440.53" y="377.09" width="6.52" height="0.96" style="fill:#263238"></rect><path d="M425.16,391.12l3.43.42c.45,0,.89.07,1.33.08a11.55,11.55,0,0,0,1.32-.09,10.8,10.8,0,0,0,4.89-1.91,11.15,11.15,0,0,0,3.39-4c.2-.39.33-.82.51-1.22s.26-.85.33-1.28a9.74,9.74,0,0,0,.18-1.32c0-.44.06-.85,0-1.48H447c0,.52,0,1.27-.07,2a16.54,16.54,0,0,1-.28,2.1c-.13.7-.36,1.37-.55,2.05s-.49,1.34-.81,2a17.61,17.61,0,0,1-5.41,6.43,17.34,17.34,0,0,1-7.83,3.05,18.71,18.71,0,0,1-2.12.14c-.7,0-1.41-.08-2.1-.13l-3.43-.42" style="fill:#fff"></path><path d="M429.94,398.49c-.59,0-1.14-.05-1.7-.09l-.47,0-3.45-.42.12-.95,3.88.45c.53,0,1.06.08,1.6.09l.66,0a8.75,8.75,0,0,0,1.37-.1,16.75,16.75,0,0,0,7.63-3,17.05,17.05,0,0,0,5.26-6.24,13.44,13.44,0,0,0,.56-1.34l.24-.6c0-.15.1-.35.16-.55.14-.49.27-.94.36-1.41,0-.19.06-.41.1-.62a8.62,8.62,0,0,0,.17-1.4c0-.52.06-1,.07-1.48h-5.43c0,.26,0,.48,0,.69l0,.33a4,4,0,0,1-.11.9c0,.15-.05.3-.07.45a6.28,6.28,0,0,1-.21.83c0,.17-.09.34-.13.51s-.16.4-.23.56a7.43,7.43,0,0,1-.33.77A11.09,11.09,0,0,1,431.3,392a4.73,4.73,0,0,1-.85.06c-.16,0-.32,0-.48,0l-.87-.05-.54,0-3.46-.42.12-1,3.42.42.54,0c.25,0,.5,0,.75,0s.32,0,.5,0a3.3,3.3,0,0,0,.72-.05,10.52,10.52,0,0,0,4.71-1.83,10.65,10.65,0,0,0,3.23-3.85,6.46,6.46,0,0,0,.29-.67c.07-.18.13-.36.21-.53s.07-.28.12-.47a5.53,5.53,0,0,0,.18-.7c0-.14.05-.32.08-.49a3.93,3.93,0,0,0,.09-.73l0-.38c0-.31,0-.65,0-1.1v-.49h7.35v.47c0,.55,0,1.33-.07,2a9.84,9.84,0,0,1-.19,1.53c0,.2-.07.41-.1.61-.1.53-.24,1-.38,1.51-.06.2-.12.4-.17.6l-.25.64c-.18.47-.37.95-.6,1.41a18,18,0,0,1-5.55,6.6,17.72,17.72,0,0,1-8.06,3.15,10.67,10.67,0,0,1-1.49.11Z" style="fill:#263238"></path><path d="M429.93,396.7c-.48,0-.95,0-1.4-.07l-.55,0-3.44-.42.06-.48,3.42.42.54,0c.45,0,.91.07,1.36.07l.64,0a8.41,8.41,0,0,0,1.24-.1,15.24,15.24,0,0,0,11.86-8.49,11,11,0,0,0,.5-1.18l.24-.59c0-.18.1-.38.16-.58a10.22,10.22,0,0,0,.31-1.24c0-.2.07-.4.11-.61a7.87,7.87,0,0,0,.15-1.26V382c0-.51.06-1,.06-1.49h-2.82c0,.39,0,.73,0,1.06l0,.31a5.69,5.69,0,0,1-.12,1c0,.17-.06.34-.08.51a8.23,8.23,0,0,1-.24.95c-.05.18-.11.36-.15.55l-.23.56a7.67,7.67,0,0,1-.38.89,13,13,0,0,1-3.94,4.7,12.82,12.82,0,0,1-5.72,2.22,6.14,6.14,0,0,1-1,.08l-.55,0c-.35,0-.67,0-1,0s-.37,0-.56,0l-3.44-.43.06-.47,3.43.42.55,0c.31,0,.63.05.94.05l.56,0a5.33,5.33,0,0,0,.91-.07,12.24,12.24,0,0,0,5.51-2.14,12.44,12.44,0,0,0,3.79-4.52,9.1,9.1,0,0,0,.37-.85l.21-.54c0-.16.09-.35.15-.54a7.07,7.07,0,0,0,.22-.88c0-.17.06-.35.09-.53a5,5,0,0,0,.11-.93l0-.33c0-.39.05-.79,0-1.26v-.25h3.78v.24c0,.52,0,1.15-.05,1.76v.11a7.55,7.55,0,0,1-.16,1.33c0,.2-.07.4-.1.6a13,13,0,0,1-.33,1.3c-.06.19-.12.39-.17.59s-.16.42-.24.61a11.75,11.75,0,0,1-.52,1.22,15.73,15.73,0,0,1-12.22,8.76,9.48,9.48,0,0,1-1.3.1Z" style="fill:#263238"></path><rect x="443.12" y="379.88" width="0.96" height="6.51" transform="translate(-4.25 761.3) rotate(-81)" style="fill:#263238"></rect><rect x="442.25" y="382.97" width="0.96" height="6.51" transform="translate(-82.98 648.54) rotate(-67.62)" style="fill:#263238"></rect><rect x="440.7" y="385.77" width="0.96" height="6.51" transform="translate(-132.23 520.13) rotate(-54.28)" style="fill:#263238"></rect><rect x="437.59" y="388.15" width="2.88" height="6.52" transform="translate(-149.11 385.04) rotate(-41.1)" style="fill:#263238"></rect><polygon points="437.48 396.31 434.43 390.55 435.28 390.11 438.33 395.86 437.48 396.31" style="fill:#263238"></polygon><rect x="432.92" y="391.11" width="0.96" height="6.52" transform="translate(-85.2 121.57) rotate(-14.55)" style="fill:#263238"></rect><rect x="429.74" y="391.55" width="0.96" height="6.52" transform="translate(-8.03 8.93) rotate(-1.18)" style="fill:#263238"></rect><rect x="423.77" y="394.09" width="6.52" height="0.96" transform="translate(-16.37 770.65) rotate(-83.04)" style="fill:#263238"></rect><polyline points="397.31 387.7 424.71 391.06 423.93 397.41 396.53 394.04" style="fill:#fff"></polyline><polygon points="424.35 397.94 396.47 394.52 396.59 393.56 423.51 396.87 424.17 391.48 397.25 388.17 397.37 387.22 425.24 390.65 424.35 397.94" style="fill:#263238"></polygon><polygon points="424.32 396.14 396.69 392.74 396.75 392.27 423.91 395.61 424.25 392.81 397.09 389.47 397.15 389 424.79 392.39 424.32 396.14" style="fill:#263238"></polygon><rect x="418.23" y="393.41" width="6.52" height="0.96" transform="translate(-20.6 764.52) rotate(-83.04)" style="fill:#263238"></rect><rect x="415.04" y="393.02" width="6.52" height="0.96" transform="translate(-22.98 761.05) rotate(-83.04)" style="fill:#263238"></rect><rect x="411.85" y="392.63" width="6.52" height="0.96" transform="translate(-25.39 757.55) rotate(-83.04)" style="fill:#263238"></rect><rect x="408.67" y="391.28" width="6.52" height="2.88" transform="translate(-28.01 753.78) rotate(-83.01)" style="fill:#263238"></rect><rect x="405.48" y="391.85" width="6.52" height="0.96" transform="translate(-30.21 750.53) rotate(-83.04)" style="fill:#263238"></rect><rect x="402.29" y="391.45" width="6.52" height="0.96" transform="translate(-32.67 746.97) rotate(-83.04)" style="fill:#263238"></rect><rect x="399.1" y="391.06" width="6.52" height="0.96" transform="translate(-35.04 743.51) rotate(-83.04)" style="fill:#263238"></rect><rect x="395.92" y="390.67" width="6.52" height="0.96" transform="translate(-37.45 740) rotate(-83.04)" style="fill:#263238"></rect><polyline points="283.49 291.65 283.49 261.19 289.88 261.19 289.88 291.65" style="fill:#fff"></polyline><polygon points="290.36 291.65 289.4 291.65 289.4 261.67 283.97 261.67 283.97 291.65 283.01 291.65 283.01 260.71 290.36 260.71 290.36 291.65" style="fill:#263238"></polygon><polygon points="288.57 291.65 288.09 291.65 288.09 261.43 285.27 261.43 285.27 291.65 284.79 291.65 284.79 260.95 288.57 260.95 288.57 291.65" style="fill:#263238"></polygon><rect x="283.43" y="263.86" width="6.52" height="0.96" style="fill:#263238"></rect><rect x="283.43" y="267.4" width="6.52" height="0.96" style="fill:#263238"></rect><rect x="283.43" y="270.95" width="6.52" height="0.96" style="fill:#263238"></rect><rect x="283.43" y="273.53" width="6.52" height="2.88" style="fill:#263238"></rect><rect x="283.43" y="278.04" width="6.52" height="0.96" style="fill:#263238"></rect><rect x="283.43" y="281.58" width="6.52" height="0.96" style="fill:#263238"></rect><rect x="283.43" y="285.12" width="6.52" height="0.96" style="fill:#263238"></rect><rect x="283.43" y="288.67" width="6.52" height="0.96" style="fill:#263238"></rect><polyline points="283.49 322.62 283.49 292.16 289.88 292.16 289.88 322.62" style="fill:#fff"></polyline><polygon points="290.36 322.62 289.4 322.62 289.4 292.64 283.97 292.64 283.97 322.62 283.01 322.62 283.01 291.68 290.36 291.68 290.36 322.62" style="fill:#263238"></polygon><polygon points="288.57 322.62 288.09 322.62 288.09 292.4 285.27 292.4 285.27 322.62 284.79 322.62 284.79 291.92 288.57 291.92 288.57 322.62" style="fill:#263238"></polygon><rect x="283.43" y="294.82" width="6.52" height="0.96" style="fill:#263238"></rect><rect x="283.43" y="298.37" width="6.52" height="0.96" style="fill:#263238"></rect><rect x="283.43" y="301.91" width="6.52" height="0.96" style="fill:#263238"></rect><rect x="283.43" y="304.5" width="6.52" height="2.88" style="fill:#263238"></rect><rect x="283.43" y="309" width="6.52" height="0.96" style="fill:#263238"></rect><rect x="283.43" y="312.54" width="6.52" height="0.96" style="fill:#263238"></rect><rect x="283.43" y="316.09" width="6.52" height="0.96" style="fill:#263238"></rect><rect x="283.43" y="319.63" width="6.52" height="0.96" style="fill:#263238"></rect><polyline points="283.49 353.58 283.49 323.12 289.88 323.12 289.88 353.58" style="fill:#fff"></polyline><polygon points="290.36 353.58 289.4 353.58 289.4 323.6 283.97 323.6 283.97 353.58 283.01 353.58 283.01 322.64 290.36 322.64 290.36 353.58" style="fill:#263238"></polygon><polygon points="288.57 353.58 288.09 353.58 288.09 323.36 285.27 323.36 285.27 353.58 284.79 353.58 284.79 322.88 288.57 322.88 288.57 353.58" style="fill:#263238"></polygon><rect x="283.43" y="325.79" width="6.52" height="0.96" style="fill:#263238"></rect><rect x="283.43" y="329.33" width="6.52" height="0.96" style="fill:#263238"></rect><rect x="283.43" y="332.88" width="6.52" height="0.96" style="fill:#263238"></rect><rect x="283.43" y="335.46" width="6.52" height="2.88" style="fill:#263238"></rect><rect x="283.43" y="339.96" width="6.52" height="0.96" style="fill:#263238"></rect><rect x="283.43" y="343.51" width="6.52" height="0.96" style="fill:#263238"></rect><rect x="283.43" y="347.05" width="6.52" height="0.96" style="fill:#263238"></rect><rect x="283.43" y="350.6" width="6.52" height="0.96" style="fill:#263238"></rect><path d="M283.79,385.1l-.18-1.14c0-.39-.05-.77-.08-1.16s0-.8,0-1.11v-27.6h6.39v27.6c0,.33,0,.52,0,.79s0,.5,0,.75l.12.73" style="fill:#fff"></path><path d="M283.32,385.17l-.18-1.14c0-.29-.05-.57-.07-.84l0-.72c0-.28,0-.56,0-.78V353.61h7.35v28.08c0,.19,0,.33,0,.47s0,.19,0,.3v.31c0,.14,0,.27,0,.41l.12.71-.95.15-.12-.73c0-.19,0-.35,0-.5v-.3c0-.11,0-.19,0-.28s0-.32,0-.54V354.57H284v27.12c0,.21,0,.47,0,.73l0,.72c0,.26,0,.51.06.76l.18,1.12Z" style="fill:#263238"></path><path d="M285.08,384.86l-.17-1c0-.26,0-.5-.05-.74l0-.34c0-.69,0-1.3,0-1.89v-27h3.78v26.89c0,.59,0,1.26,0,1.8,0,.11,0,.22,0,.34s0,.33,0,.5l.14.82-.48.08-.13-.84a5.09,5.09,0,0,1,0-.54c0-.11,0-.22,0-.32,0-.56,0-1.24,0-1.84V354.33h-2.82v26.53c0,.57,0,1.17.05,1.85l0,.35c0,.23,0,.46,0,.69l.17,1Z" style="fill:#263238"></path><rect x="283.43" y="356.75" width="6.52" height="0.96" style="fill:#263238"></rect><rect x="283.43" y="360.3" width="6.52" height="0.96" style="fill:#263238"></rect><rect x="283.43" y="363.84" width="6.52" height="0.96" style="fill:#263238"></rect><rect x="283.43" y="366.43" width="6.52" height="2.88" style="fill:#263238"></rect><rect x="283.43" y="370.93" width="6.52" height="0.96" style="fill:#263238"></rect><rect x="283.43" y="374.47" width="6.52" height="0.96" style="fill:#263238"></rect><rect x="283.43" y="378.02" width="6.52" height="0.96" style="fill:#263238"></rect><rect x="283.44" y="381.56" width="6.52" height="0.96" transform="translate(-4.44 3.37) rotate(-0.67)" style="fill:#263238"></rect><path d="M312.14,398.85l-7.57.86-.94.11-1.15.08a16.2,16.2,0,0,1-2.31,0,22.1,22.1,0,0,1-2.29-.31c-.75-.19-1.5-.37-2.23-.62A18.13,18.13,0,0,1,283.9,385.7l6.24-1.34a11.76,11.76,0,0,0,7.6,8.55c.47.16,1,.27,1.44.4a14.41,14.41,0,0,0,1.47.19,9.39,9.39,0,0,0,1.5,0l.75,0,1-.11,7.56-.86" style="fill:#fff"></path><path d="M301.65,400.41c-.43,0-.86,0-1.29,0h-.21a12.15,12.15,0,0,1-1.62-.2l-.72-.12-.25-.06c-.68-.17-1.39-.34-2.07-.58a18.59,18.59,0,0,1-12.06-13.6l-.1-.47,7.18-1.54.1.46a11.39,11.39,0,0,0,2.58,5.05,11.27,11.27,0,0,0,4.72,3.15,9.92,9.92,0,0,0,1,.29l.42.1.54.08a3.9,3.9,0,0,0,.81.1l.34,0a6.73,6.73,0,0,0,1.1,0l.79-.05,8.48-1,.11,1-9.3,1a7.21,7.21,0,0,1-1.23,0l-.31,0h0a5.13,5.13,0,0,1-1-.11l-.54-.09-.48-.11c-.36-.1-.72-.19-1.07-.31a12.18,12.18,0,0,1-7.79-8.44l-5.32,1.15a17.63,17.63,0,0,0,11.34,12.42,19.4,19.4,0,0,0,2,.56l.21.05.69.11a11.61,11.61,0,0,0,1.5.19h.23a13.64,13.64,0,0,0,2,0l2.08-.18,7.57-.87.1,1-8.51,1-1.17.08C302.23,400.4,301.94,400.41,301.65,400.41Z" style="fill:#263238"></path><path d="M301.64,398.63c-.38,0-.76,0-1.13,0l-.23,0a9.79,9.79,0,0,1-1.43-.17l-.69-.11-.28-.07c-.59-.15-1.21-.3-1.8-.51a16.77,16.77,0,0,1-10.91-12.28l-.05-.24,3.7-.79.05.23a13,13,0,0,0,8.45,9.51c.4.14.82.25,1.23.35l.37.1.61.09a7.35,7.35,0,0,0,1,.13h.32a7.49,7.49,0,0,0,1.34,0l.86-.05,8.5-1,.06.47-8.51,1-.87.05a8.18,8.18,0,0,1-1.4,0l-.31,0a6.38,6.38,0,0,1-1.08-.12c-.21,0-.41-.08-.61-.1l-.41-.1c-.42-.11-.85-.22-1.27-.37a13.52,13.52,0,0,1-5.67-3.79,13.75,13.75,0,0,1-3-5.83l-2.75.59a16.49,16.49,0,0,0,3.68,7.12,16.68,16.68,0,0,0,6.86,4.58c.57.2,1.17.35,1.76.5l.25.06.68.11a8.11,8.11,0,0,0,1.37.16l.23,0a12.69,12.69,0,0,0,1.85,0l1.06-.06,8.5-1,.05.48-8.51,1-1.06.07A6.79,6.79,0,0,1,301.64,398.63Z" style="fill:#263238"></path><rect x="284.75" y="387.53" width="6.51" height="0.96" transform="translate(-134.41 153.36) rotate(-24.36)" style="fill:#263238"></rect><rect x="286.59" y="390.54" width="6.52" height="0.96" transform="translate(-179.52 262.16) rotate(-38.1)" style="fill:#263238"></rect><rect x="289.09" y="393.04" width="6.51" height="0.96" transform="translate(-197.66 378.64) rotate(-51.65)" style="fill:#263238"></rect><rect x="292.09" y="393.94" width="6.52" height="2.88" transform="translate(-187.36 498.1) rotate(-65.25)" style="fill:#263238"></rect><rect x="295.46" y="395.98" width="6.52" height="0.96" transform="translate(-147.13 614.71) rotate(-79.09)" style="fill:#263238"></rect><rect x="301.76" y="393.45" width="0.96" height="6.52" transform="translate(-18.43 14.74) rotate(-2.71)" style="fill:#263238"></rect><rect x="305.29" y="393.1" width="0.96" height="6.52" transform="translate(-43.11 37.36) rotate(-6.53)" style="fill:#263238"></rect><rect x="308.81" y="392.7" width="0.96" height="6.52" transform="translate(-43.04 37.76) rotate(-6.53)" style="fill:#263238"></rect><polyline points="342.9 395.32 312.64 398.79 311.92 392.44 342.18 388.97" style="fill:#fff"></polyline><polygon points="312.22 399.32 311.38 392.02 342.12 388.5 342.23 389.45 312.45 392.86 313.06 398.26 342.85 394.85 342.96 395.8 312.22 399.32" style="fill:#263238"></polygon><polygon points="312.26 397.52 311.82 393.77 342.32 390.27 342.38 390.75 312.36 394.19 312.68 396.99 342.7 393.55 342.75 394.02 312.26 397.52" style="fill:#263238"></polygon><rect x="314.92" y="392" width="0.96" height="6.52" transform="translate(-42.92 38.45) rotate(-6.53)" style="fill:#263238"></rect><rect x="318.44" y="391.59" width="0.96" height="6.52" transform="translate(-42.9 38.9) rotate(-6.54)" style="fill:#263238"></rect><rect x="321.97" y="391.19" width="0.96" height="6.52" transform="translate(-42.79 39.25) rotate(-6.53)" style="fill:#263238"></rect><rect x="324.53" y="390.79" width="2.88" height="6.52" transform="translate(-42.72 39.65) rotate(-6.53)" style="fill:#263238"></rect><rect x="329.01" y="390.38" width="0.96" height="6.52" transform="translate(-42.65 40.04) rotate(-6.53)" style="fill:#263238"></rect><rect x="332.53" y="389.98" width="0.96" height="6.52" transform="translate(-42.58 40.44) rotate(-6.53)" style="fill:#263238"></rect><rect x="336.05" y="389.58" width="0.96" height="6.52" transform="translate(-42.51 40.84) rotate(-6.53)" style="fill:#263238"></rect><rect x="339.57" y="389.17" width="0.96" height="6.52" transform="translate(-42.49 41.29) rotate(-6.54)" style="fill:#263238"></rect><circle cx="371.64" cy="416.78" r="9.92" style="fill:#263238;stroke:#263238;stroke-miterlimit:10"></circle><path d="M377.08,416.78a5.44,5.44,0,1,0-5.44,5.44A5.45,5.45,0,0,0,377.08,416.78Z" style="fill:#fff;stroke:#263238;stroke-miterlimit:10"></path><path d="M388.46,360.93H354.81a13.57,13.57,0,0,1-13.57-13.58h0a13.57,13.57,0,0,1,13.57-13.57h33.65A13.58,13.58,0,0,1,402,347.35h0A13.58,13.58,0,0,1,388.46,360.93Z" style="fill:#C6EC42;stroke:#263238;stroke-miterlimit:10"></path><rect x="336.62" y="383.67" width="7.16" height="16.3" rx="3.03" transform="matrix(0.96, -0.27, 0.27, 0.96, -92.09, 104.8)" style="fill:#C6EC42;stroke:#263238;stroke-miterlimit:10"></rect><rect x="399.1" y="383.67" width="7.16" height="16.3" rx="3.03" transform="translate(686.42 876.76) rotate(-164.55)" style="fill:#C6EC42;stroke:#263238;stroke-miterlimit:10"></rect><path d="M390,411.29H353.3a5.46,5.46,0,0,1-5.38-3.6l-8.65-29.31a3,3,0,0,1,3.16-2.72h58.42a3,3,0,0,1,3.15,2.72l-8.64,29.31A5.48,5.48,0,0,1,390,411.29Z" style="fill:#C6EC42;stroke:#263238;stroke-miterlimit:10"></path><path d="M385.76,419.36H357.51a4.37,4.37,0,0,1-4.15-3.54l-6.66-28.74a2.55,2.55,0,0,1,2.43-2.66h45a2.55,2.55,0,0,1,2.43,2.66l-6.66,28.74A4.39,4.39,0,0,1,385.76,419.36Z" style="fill:#fff;stroke:#263238;stroke-miterlimit:10"></path><path d="M383.33,415H359.94a3.48,3.48,0,0,1-3.43-2.3l-.75-14.1a1.44,1.44,0,0,1,1.54-1.33H386a1.45,1.45,0,0,1,1.55,1.33l-.75,14.1A3.49,3.49,0,0,1,383.33,415Z" style="fill:#C6EC42;stroke:#263238;stroke-miterlimit:10"></path><rect x="352.24" y="360.8" width="38.79" height="4.48" style="fill:#263238"></rect><rect x="352.24" y="366.13" width="38.79" height="4.48" style="fill:#263238"></rect><rect x="352.24" y="371.45" width="38.79" height="4.48" style="fill:#263238"></rect><path d="M373.89,317a2.24,2.24,0,1,0-2.72,2.18v14.45h1V319.16A2.23,2.23,0,0,0,373.89,317Z" style="fill:#263238"></path><path d="M384.14,343.45a3.89,3.89,0,0,0-3.77,2.93H362.51a3.91,3.91,0,1,0,0,1.95h17.86a3.9,3.9,0,1,0,3.77-4.88Z" style="fill:#263238"></path><circle cx="354.03" cy="390.91" r="4.07" style="fill:#C6EC42;stroke:#263238;stroke-miterlimit:10"></circle><circle cx="352.84" cy="340.58" r="2.85" style="fill:#fff"></circle><circle cx="357.72" cy="337.59" r="0.95" style="fill:#fff"></circle><polygon points="282.75 255.94 276.74 255.94 278.37 227.43 281.11 227.43 282.75 255.94" style="fill:#263238;stroke:#263238;stroke-miterlimit:10"></polygon><rect x="276.55" y="242.74" width="6.39" height="17.03" rx="1.19" style="fill:#fff;stroke:#263238;stroke-miterlimit:10"></rect><polygon points="439.03 215.42 439.03 221.44 410.52 219.8 410.52 217.06 439.03 215.42" style="fill:#263238;stroke:#263238;stroke-miterlimit:10"></polygon><rect x="431.16" y="209.91" width="6.39" height="17.03" rx="1.19" transform="translate(215.93 652.78) rotate(-90)" style="fill:#fff;stroke:#263238;stroke-miterlimit:10"></rect><rect x="252.97" y="152.23" width="167.46" height="100.29" style="fill:#fff;stroke:#263238;stroke-miterlimit:10"></rect><line x1="252.97" y1="152.23" x2="420.43" y2="252.52" style="fill:none;stroke:#263238;stroke-miterlimit:10"></line><line x1="420.43" y1="152.23" x2="252.97" y2="252.52" style="fill:none;stroke:#263238;stroke-miterlimit:10"></line><polygon points="296.76 255.94 290.75 255.94 292.39 227.43 295.12 227.43 296.76 255.94" style="fill:#263238;stroke:#263238;stroke-miterlimit:10"></polygon><rect x="290.56" y="242.74" width="6.39" height="17.03" rx="1.19" style="fill:#fff;stroke:#263238;stroke-miterlimit:10"></rect><circle cx="286.68" cy="260.69" r="8.94" transform="translate(-63.5 426.57) rotate(-67.63)" style="fill:#fff;stroke:#263238;stroke-miterlimit:10"></circle><path d="M291.85,260.69a5.17,5.17,0,1,0-5.17,5.17A5.16,5.16,0,0,0,291.85,260.69Z" style="fill:#263238"></path><polygon points="439.03 201.41 439.03 207.42 410.52 205.78 410.52 203.05 439.03 201.41" style="fill:#263238;stroke:#263238;stroke-miterlimit:10"></polygon><rect x="431.16" y="195.9" width="6.39" height="17.03" rx="1.19" transform="translate(229.94 638.77) rotate(-90)" style="fill:#fff;stroke:#263238;stroke-miterlimit:10"></rect><circle cx="443.78" cy="211.49" r="8.94" transform="translate(77.82 539.73) rotate(-67.37)" style="fill:#fff;stroke:#263238;stroke-miterlimit:10"></circle><path d="M443.78,206.32a5.17,5.17,0,1,0,5.18,5.17A5.17,5.17,0,0,0,443.78,206.32Z" style="fill:#263238"></path></g><g id="freepik--robot-1--inject-17"><path d="M159.84,427.18c0,3.14-19.08,5.68-42.63,5.68s-42.63-2.54-42.63-5.68,19.09-5.69,42.63-5.69S159.84,424,159.84,427.18Z" style="fill:#C6EC42"></path><path d="M159.84,427.18c0,3.14-19.08,5.68-42.63,5.68s-42.63-2.54-42.63-5.68,19.09-5.69,42.63-5.69S159.84,424,159.84,427.18Z" style="fill:#fff;opacity:0.5"></path><polyline points="113.7 272.85 113.7 241.06 120.09 241.06 120.09 272.85" style="fill:#fff"></polyline><polygon points="120.57 272.85 119.61 272.85 119.61 241.54 114.18 241.54 114.18 272.85 113.22 272.85 113.22 240.58 120.57 240.58 120.57 272.85" style="fill:#263238"></polygon><polygon points="118.79 272.85 118.31 272.85 118.31 241.3 115.49 241.3 115.49 272.85 115.01 272.85 115.01 240.82 118.79 240.82 118.79 272.85" style="fill:#263238"></polygon><rect x="113.64" y="243.87" width="6.52" height="0.96" style="fill:#263238"></rect><rect x="113.64" y="247.56" width="6.52" height="0.96" style="fill:#263238"></rect><rect x="113.64" y="251.26" width="6.52" height="0.96" style="fill:#263238"></rect><rect x="113.64" y="254" width="6.52" height="2.88" style="fill:#263238"></rect><rect x="113.64" y="258.66" width="6.52" height="0.96" style="fill:#263238"></rect><rect x="113.64" y="262.36" width="6.52" height="0.96" style="fill:#263238"></rect><rect x="113.64" y="266.06" width="6.52" height="0.96" style="fill:#263238"></rect><rect x="113.64" y="269.76" width="6.52" height="0.96" style="fill:#263238"></rect><polyline points="113.7 305.17 113.7 273.38 120.09 273.38 120.09 305.17" style="fill:#fff"></polyline><polygon points="120.57 305.17 119.61 305.17 119.61 273.86 114.18 273.86 114.18 305.17 113.22 305.17 113.22 272.9 120.57 272.9 120.57 305.17" style="fill:#263238"></polygon><polygon points="118.79 305.17 118.31 305.17 118.31 273.62 115.49 273.62 115.49 305.17 115.01 305.17 115.01 273.14 118.79 273.14 118.79 305.17" style="fill:#263238"></polygon><rect x="113.64" y="276.18" width="6.52" height="0.96" style="fill:#263238"></rect><rect x="113.64" y="279.88" width="6.52" height="0.96" style="fill:#263238"></rect><rect x="113.64" y="283.58" width="6.52" height="0.96" style="fill:#263238"></rect><rect x="113.64" y="286.32" width="6.52" height="2.88" style="fill:#263238"></rect><rect x="113.64" y="290.97" width="6.52" height="0.96" style="fill:#263238"></rect><rect x="113.64" y="294.67" width="6.52" height="0.96" style="fill:#263238"></rect><rect x="113.64" y="298.37" width="6.52" height="0.96" style="fill:#263238"></rect><rect x="113.64" y="302.07" width="6.52" height="0.96" style="fill:#263238"></rect><polyline points="113.7 337.48 113.7 305.69 120.09 305.69 120.09 337.48" style="fill:#fff"></polyline><polygon points="120.57 337.48 119.61 337.48 119.61 306.17 114.18 306.17 114.18 337.48 113.22 337.48 113.22 305.21 120.57 305.21 120.57 337.48" style="fill:#263238"></polygon><polygon points="118.79 337.48 118.31 337.48 118.31 305.93 115.49 305.93 115.49 337.48 115.01 337.48 115.01 305.45 118.79 305.45 118.79 337.48" style="fill:#263238"></polygon><rect x="113.64" y="308.49" width="6.52" height="0.96" style="fill:#263238"></rect><rect x="113.64" y="312.19" width="6.52" height="0.96" style="fill:#263238"></rect><rect x="113.64" y="315.89" width="6.52" height="0.96" style="fill:#263238"></rect><rect x="113.64" y="318.63" width="6.52" height="2.88" style="fill:#263238"></rect><rect x="113.64" y="323.29" width="6.52" height="0.96" style="fill:#263238"></rect><rect x="113.64" y="326.99" width="6.52" height="0.96" style="fill:#263238"></rect><rect x="113.64" y="330.69" width="6.52" height="0.96" style="fill:#263238"></rect><rect x="113.64" y="334.39" width="6.52" height="0.96" style="fill:#263238"></rect><polyline points="113.7 369.8 113.7 338.01 120.09 338.01 120.09 369.8" style="fill:#fff"></polyline><polygon points="120.57 369.8 119.61 369.8 119.61 338.49 114.18 338.49 114.18 369.8 113.22 369.8 113.22 337.53 120.57 337.53 120.57 369.8" style="fill:#263238"></polygon><polygon points="118.79 369.8 118.31 369.8 118.31 338.25 115.49 338.25 115.49 369.8 115.01 369.8 115.01 337.77 118.79 337.77 118.79 369.8" style="fill:#263238"></polygon><rect x="113.64" y="340.81" width="6.52" height="0.96" style="fill:#263238"></rect><rect x="113.64" y="344.51" width="6.52" height="0.96" style="fill:#263238"></rect><rect x="113.64" y="348.21" width="6.52" height="0.96" style="fill:#263238"></rect><rect x="113.64" y="350.95" width="6.52" height="2.88" style="fill:#263238"></rect><rect x="113.64" y="355.6" width="6.52" height="0.96" style="fill:#263238"></rect><rect x="113.64" y="359.3" width="6.52" height="0.96" style="fill:#263238"></rect><rect x="113.64" y="363" width="6.52" height="0.96" style="fill:#263238"></rect><rect x="113.64" y="366.7" width="6.52" height="0.96" style="fill:#263238"></rect><polyline points="113.7 402.11 113.7 370.32 120.09 370.32 120.09 402.11" style="fill:#fff"></polyline><polygon points="120.57 402.11 119.61 402.11 119.61 370.8 114.18 370.8 114.18 402.11 113.22 402.11 113.22 369.84 120.57 369.84 120.57 402.11" style="fill:#263238"></polygon><polygon points="118.79 402.11 118.31 402.11 118.31 370.56 115.49 370.56 115.49 402.11 115.01 402.11 115.01 370.08 118.79 370.08 118.79 402.11" style="fill:#263238"></polygon><rect x="113.64" y="373.12" width="6.52" height="0.96" style="fill:#263238"></rect><rect x="113.64" y="376.82" width="6.52" height="0.96" style="fill:#263238"></rect><rect x="113.64" y="380.52" width="6.52" height="0.96" style="fill:#263238"></rect><rect x="113.64" y="383.26" width="6.52" height="2.88" style="fill:#263238"></rect><rect x="113.64" y="387.92" width="6.52" height="0.96" style="fill:#263238"></rect><rect x="113.64" y="391.62" width="6.52" height="0.96" style="fill:#263238"></rect><rect x="113.64" y="395.32" width="6.52" height="0.96" style="fill:#263238"></rect><rect x="113.64" y="399.01" width="6.52" height="0.96" style="fill:#263238"></rect><circle cx="116.9" cy="416.78" r="9.92" style="fill:#263238;stroke:#263238;stroke-miterlimit:10"></circle><path d="M122.34,416.78a5.44,5.44,0,1,0-5.44,5.44A5.45,5.45,0,0,0,122.34,416.78Z" style="fill:#fff;stroke:#263238;stroke-miterlimit:10"></path><path d="M167.4,200.17v7c0,.32,0,.77-.05,1.16a19,19,0,0,1-.82,4.71,19.67,19.67,0,0,1-2,4.34,19,19,0,0,1-16,8.94l0-6.39A12.54,12.54,0,0,0,159.09,214a12.11,12.11,0,0,0,1.34-2.87A13.16,13.16,0,0,0,161,208c0-.28,0-.49,0-.83v-7" style="fill:#fff"></path><path d="M148.6,226.78H148l0-7.35h.56a12.06,12.06,0,0,0,10.14-5.71,12.18,12.18,0,0,0,1.3-2.78,12.9,12.9,0,0,0,.51-3c0-.12,0-.22,0-.33s0-.3,0-.49v-7h1v7c0,.22,0,.39,0,.55a2.83,2.83,0,0,0,0,.3,12.29,12.29,0,0,1-2,6.24,13,13,0,0,1-10.55,6.14l0,5.43a18.5,18.5,0,0,0,15.15-8.7,19,19,0,0,0,2-4.25,18.25,18.25,0,0,0,.79-4.57l0-.37c0-.27,0-.55,0-.77v-7h1v7c0,.23,0,.53,0,.82l0,.36a18.71,18.71,0,0,1-.84,4.82,19.54,19.54,0,0,1-18.39,13.63Z" style="fill:#263238"></path><path d="M148.58,225h-.34v-3.78h.33a13.87,13.87,0,0,0,11.64-6.54,14.25,14.25,0,0,0,1.48-3.18,14.83,14.83,0,0,0,.6-3.44c0-.56,0-1.19,0-1.9v-6h.47v6c0,.72,0,1.36,0,1.93a13.68,13.68,0,0,1-2.14,6.84,14.34,14.34,0,0,1-11.9,6.77v2.82a17.31,17.31,0,0,0,16.11-12,17.92,17.92,0,0,0,.74-4.25c.05-.74.05-1.38,0-2v-6h.48v6c0,.63,0,1.29,0,2a17,17,0,0,1-2.64,8.43A17.67,17.67,0,0,1,148.58,225Z" style="fill:#263238"></path><rect x="151.26" y="219.49" width="0.96" height="6.52" transform="translate(-43.38 36.82) rotate(-12.12)" style="fill:#263238"></rect><rect x="154.76" y="218.29" width="0.96" height="6.52" transform="translate(-80.69 89.19) rotate(-25.69)" style="fill:#263238"></rect><rect x="157.89" y="216.32" width="0.96" height="6.52" transform="translate(-103.06 149.23) rotate(-39.14)" style="fill:#263238"></rect><rect x="159.5" y="213.65" width="2.88" height="6.52" transform="translate(-109.12 212.72) rotate(-52.54)" style="fill:#263238"></rect><rect x="162.36" y="210.48" width="0.96" height="6.52" transform="translate(-98.63 275.65) rotate(-66.02)" style="fill:#263238"></rect><rect x="163.45" y="206.94" width="0.96" height="6.52" transform="translate(-72.44 333.43) rotate(-79.59)" style="fill:#263238"></rect><rect x="160.94" y="206.02" width="6.52" height="0.96" style="fill:#263238"></rect><rect x="160.94" y="202.31" width="6.52" height="0.96" style="fill:#263238"></rect><polyline points="167.4 167.74 167.4 199.64 161.01 199.64 161.01 167.74" style="fill:#fff"></polyline><polygon points="167.88 200.12 160.53 200.12 160.53 167.74 161.49 167.74 161.49 199.16 166.92 199.16 166.92 167.74 167.88 167.74 167.88 200.12" style="fill:#263238"></polygon><polygon points="166.09 199.88 162.31 199.88 162.31 167.74 162.79 167.74 162.79 199.4 165.61 199.4 165.61 167.74 166.09 167.74 166.09 199.88" style="fill:#263238"></polygon><rect x="160.94" y="195.87" width="6.52" height="0.96" style="fill:#263238"></rect><rect x="160.94" y="192.15" width="6.52" height="0.96" style="fill:#263238"></rect><rect x="160.94" y="188.44" width="6.52" height="0.96" style="fill:#263238"></rect><rect x="160.94" y="183.77" width="6.52" height="2.88" style="fill:#263238"></rect><rect x="160.94" y="181.02" width="6.52" height="0.96" style="fill:#263238"></rect><rect x="160.94" y="177.31" width="6.52" height="0.96" style="fill:#263238"></rect><rect x="160.94" y="173.6" width="6.52" height="0.96" style="fill:#263238"></rect><rect x="160.94" y="169.89" width="6.52" height="0.96" style="fill:#263238"></rect><polyline points="167.4 135.31 167.4 167.21 161.01 167.21 161.01 135.31" style="fill:#fff"></polyline><polygon points="167.88 167.69 160.53 167.69 160.53 135.31 161.49 135.31 161.49 166.73 166.92 166.73 166.92 135.31 167.88 135.31 167.88 167.69" style="fill:#263238"></polygon><polygon points="166.09 167.45 162.31 167.45 162.31 135.31 162.79 135.31 162.79 166.97 165.61 166.97 165.61 135.31 166.09 135.31 166.09 167.45" style="fill:#263238"></polygon><rect x="160.94" y="163.44" width="6.52" height="0.96" style="fill:#263238"></rect><rect x="160.94" y="159.73" width="6.52" height="0.96" style="fill:#263238"></rect><rect x="160.94" y="156.02" width="6.52" height="0.96" style="fill:#263238"></rect><rect x="160.94" y="151.34" width="6.52" height="2.88" style="fill:#263238"></rect><rect x="160.94" y="148.59" width="6.52" height="0.96" style="fill:#263238"></rect><rect x="160.94" y="144.88" width="6.52" height="0.96" style="fill:#263238"></rect><rect x="160.94" y="141.17" width="6.52" height="0.96" style="fill:#263238"></rect><rect x="160.94" y="137.46" width="6.52" height="0.96" style="fill:#263238"></rect><path d="M174.61,112.13a7.84,7.84,0,0,0-5.12,2,6.86,6.86,0,0,0-1.61,2.13,5.32,5.32,0,0,0-.38,1.17,2.38,2.38,0,0,0-.07.59l0,.29v16.43H161V118.32l0-.7a7.9,7.9,0,0,1,.18-1.38,11,11,0,0,1,.85-2.62,13.16,13.16,0,0,1,3.13-4.2,14.24,14.24,0,0,1,9.4-3.68" style="fill:#fff"></path><path d="M167.88,135.26h-7.35l0-17.66a10,10,0,0,1,.19-1.46,11.22,11.22,0,0,1,.89-2.72,13.49,13.49,0,0,1,3.24-4.36,14.77,14.77,0,0,1,9.72-3.8v1a13.78,13.78,0,0,0-9.08,3.56,12.35,12.35,0,0,0-3,4,10.73,10.73,0,0,0-.82,2.5,7.54,7.54,0,0,0-.17,1.32l0,1.2v15.47h5.43L167,118a3,3,0,0,1,.08-.65,5.22,5.22,0,0,1,.42-1.27,7.15,7.15,0,0,1,1.72-2.29,8.44,8.44,0,0,1,5.42-2.16h0v1a7.41,7.41,0,0,0-4.8,1.91,6.26,6.26,0,0,0-1.49,2,4,4,0,0,0-.34,1,2,2,0,0,0-.07.5l0,.79Z" style="fill:#263238"></path><path d="M166.09,135h-3.77V118.33l0-.62a7.81,7.81,0,0,1,.16-1.22,9.67,9.67,0,0,1,.76-2.32,11.66,11.66,0,0,1,2.82-3.78,12.93,12.93,0,0,1,8.52-3.35v.48a12.43,12.43,0,0,0-8.2,3.23,11.25,11.25,0,0,0-2.71,3.62,9.13,9.13,0,0,0-.71,2.21,6.25,6.25,0,0,0-.16,1.15l0,1.11v15.71h2.82V118.84a7.34,7.34,0,0,1,2.14-5.46,9.57,9.57,0,0,1,6.82-3h0v.48a9.32,9.32,0,0,0-6.51,2.88,6.89,6.89,0,0,0-2,5.12Z" style="fill:#263238"></path><rect x="160.94" y="131.01" width="6.52" height="0.96" style="fill:#263238"></rect><rect x="160.94" y="127.3" width="6.52" height="0.96" style="fill:#263238"></rect><rect x="160.94" y="123.59" width="6.52" height="0.96" style="fill:#263238"></rect><rect x="160.94" y="118.92" width="6.52" height="2.88" style="fill:#263238"></rect><rect x="163.92" y="113.4" width="0.96" height="6.52" transform="translate(14.83 251.8) rotate(-77.46)" style="fill:#263238"></rect><rect x="165.48" y="110.06" width="0.96" height="6.52" transform="translate(-23.95 179.03) rotate(-53.41)" style="fill:#263238"></rect><rect x="168.17" y="107.53" width="0.96" height="6.52" transform="translate(-33.13 111.7) rotate(-33.56)" style="fill:#263238"></rect><rect x="171.54" y="106.02" width="0.96" height="6.51" transform="translate(-22.05 47.08) rotate(-14.66)" style="fill:#263238"></rect><polyline points="173.65 105.74 174.59 105.74 174.59 112.13 173.65 112.13" style="fill:#fff"></polyline><polygon points="175.07 112.61 173.65 112.61 173.65 111.65 174.12 111.65 174.12 106.22 173.65 106.22 173.65 105.26 175.07 105.26 175.07 112.61" style="fill:#263238"></polygon><polygon points="174.84 110.82 173.65 110.82 173.65 110.34 174.35 110.34 174.35 107.52 173.65 107.52 173.65 107.04 174.84 107.04 174.84 110.82" style="fill:#263238"></polygon><rect x="174.02" y="105.68" width="0.96" height="6.52" style="fill:#263238"></rect><rect x="173.91" y="105.68" width="0.96" height="6.52" style="fill:#263238"></rect><rect x="173.8" y="105.68" width="0.96" height="6.52" style="fill:#263238"></rect><rect x="172.73" y="105.68" width="2.88" height="6.52" style="fill:#263238"></rect><rect x="173.58" y="105.68" width="0.96" height="6.52" style="fill:#263238"></rect><rect x="173.47" y="105.68" width="0.96" height="6.52" style="fill:#263238"></rect><rect x="173.36" y="105.68" width="0.96" height="6.52" style="fill:#263238"></rect><rect x="173.25" y="105.68" width="0.96" height="6.52" style="fill:#263238"></rect><path d="M181,139.94V117.43a3.07,3.07,0,0,0,0-.38,3.81,3.81,0,0,0-.95-2.35,8.26,8.26,0,0,0-5.88-2.55l.3-6.39A15.76,15.76,0,0,1,180,107a12.93,12.93,0,0,1,4.9,3.57,10.59,10.59,0,0,1,1.7,2.8,10.26,10.26,0,0,1,.72,3.25c0,.25,0,.6,0,.77v22.51" style="fill:#fff"></path><path d="M187.84,139.94h-1V117.43c0-.13,0-.36,0-.56v-.18a9.72,9.72,0,0,0-.69-3.11,10.08,10.08,0,0,0-1.61-2.66,12.42,12.42,0,0,0-4.73-3.44,15.3,15.3,0,0,0-4.94-1.21l-.26,5.43a8.61,8.61,0,0,1,5.75,2.69,4.3,4.3,0,0,1,1.06,2.64v.1a2,2,0,0,1,0,.31v22.5h-1V117.43c0-.1,0-.15,0-.19s0-.1,0-.17a3.24,3.24,0,0,0-.84-2.06,7.85,7.85,0,0,0-5.52-2.38l-.49,0,.35-7.35.48,0a16.26,16.26,0,0,1,5.75,1.32,13.36,13.36,0,0,1,5.08,3.7,11.23,11.23,0,0,1,1.77,2.92,10.81,10.81,0,0,1,.76,3.43v.16c0,.23,0,.49,0,.63Z" style="fill:#263238"></path><path d="M186.05,139.94h-.48V117.87c0-.33,0-.66,0-1.09a8.53,8.53,0,0,0-.59-2.7,8.82,8.82,0,0,0-1.42-2.32,11.13,11.13,0,0,0-4.23-3.08,14,14,0,0,0-4.73-1.12l-.13,2.81a10,10,0,0,1,6.92,3.18,6.58,6.58,0,0,1,1,1.58,5.8,5.8,0,0,1,.4,1.83c0,.24,0,.62,0,1.05v21.93h-.48V118a7.84,7.84,0,0,0,0-1,5.62,5.62,0,0,0-.36-1.68,5.88,5.88,0,0,0-.89-1.44,9.53,9.53,0,0,0-6.82-3h-.24l.17-3.77h.24a14.44,14.44,0,0,1,5.14,1.17,11.71,11.71,0,0,1,4.41,3.2,9.56,9.56,0,0,1,1.49,2.46,8.85,8.85,0,0,1,.63,2.85c0,.44,0,.79,0,1.12v22.07Z" style="fill:#263238"></path><rect x="174.74" y="109.2" width="6.52" height="0.96" transform="translate(15.16 240.81) rotate(-70.49)" style="fill:#263238"></rect><rect x="178.42" y="111.36" width="6.52" height="0.96" transform="translate(-23.63 169.84) rotate(-47.39)" style="fill:#263238"></rect><rect x="180.66" y="114.95" width="6.51" height="0.96" transform="matrix(0.97, -0.26, 0.26, 0.97, -23.61, 51.53)" style="fill:#263238"></rect><rect x="180.91" y="118.27" width="6.52" height="2.88" style="fill:#263238"></rect><rect x="180.91" y="123.53" width="6.52" height="0.96" style="fill:#263238"></rect><rect x="180.91" y="127.83" width="6.52" height="0.96" style="fill:#263238"></rect><rect x="180.91" y="132.13" width="6.52" height="0.96" style="fill:#263238"></rect><rect x="180.91" y="136.42" width="6.52" height="0.96" style="fill:#263238"></rect><path d="M112.62,394.94h8.06a5.09,5.09,0,0,1,5.09,5.09v11.2a0,0,0,0,1,0,0H107.52a0,0,0,0,1,0,0V400A5.09,5.09,0,0,1,112.62,394.94Z" style="fill:#C6EC42;stroke:#263238;stroke-miterlimit:10"></path><polygon points="144.03 264.39 144.03 270.4 172.54 268.76 172.54 266.03 144.03 264.39" style="fill:#263238;stroke:#263238;stroke-miterlimit:10"></polygon><rect x="145.51" y="258.88" width="6.39" height="17.03" rx="1.19" transform="translate(-118.69 416.1) rotate(-90)" style="fill:#fff;stroke:#263238;stroke-miterlimit:10"></rect><polygon points="180.27 145.76 174.25 145.76 175.89 174.27 178.63 174.27 180.27 145.76" style="fill:#263238;stroke:#263238;stroke-miterlimit:10"></polygon><rect x="174.07" y="141.92" width="6.39" height="17.03" rx="1.19" style="fill:#fff;stroke:#263238;stroke-miterlimit:10"></rect><rect x="170.63" y="164.96" width="73.62" height="109.45" style="fill:#fff;stroke:#263238;stroke-miterlimit:10"></rect><line x1="176.96" y1="183.05" x2="238.98" y2="183.05" style="fill:none;stroke:#263238;stroke-miterlimit:10"></line><line x1="176.96" y1="192.13" x2="238.98" y2="192.13" style="fill:none;stroke:#263238;stroke-miterlimit:10"></line><line x1="176.96" y1="201.2" x2="238.98" y2="201.2" style="fill:none;stroke:#263238;stroke-miterlimit:10"></line><line x1="176.96" y1="210.28" x2="238.98" y2="210.28" style="fill:none;stroke:#263238;stroke-miterlimit:10"></line><line x1="176.96" y1="219.36" x2="238.98" y2="219.36" style="fill:none;stroke:#263238;stroke-miterlimit:10"></line><line x1="176.96" y1="228.43" x2="238.98" y2="228.43" style="fill:none;stroke:#263238;stroke-miterlimit:10"></line><line x1="176.96" y1="237.51" x2="238.98" y2="237.51" style="fill:none;stroke:#263238;stroke-miterlimit:10"></line><line x1="176.96" y1="246.59" x2="238.98" y2="246.59" style="fill:none;stroke:#263238;stroke-miterlimit:10"></line><line x1="176.96" y1="255.66" x2="238.98" y2="255.66" style="fill:none;stroke:#263238;stroke-miterlimit:10"></line><polygon points="144.03 250.38 144.03 256.39 172.54 254.75 172.54 252.01 144.03 250.38" style="fill:#263238;stroke:#263238;stroke-miterlimit:10"></polygon><rect x="145.51" y="244.87" width="6.39" height="17.03" rx="1.19" transform="translate(-104.68 402.09) rotate(-90)" style="fill:#fff;stroke:#263238;stroke-miterlimit:10"></rect><path d="M65.92,243.06a21.89,21.89,0,0,1,6-14.11,21.38,21.38,0,0,1,3-2.59l.79-.56.7-.46,1.39-.93,5.57-3.71L86.86,226l-5.57,3.71-1.39.93-.7.46-.57.41a14.35,14.35,0,0,0-2.08,1.82,15.5,15.5,0,0,0-4.25,10" style="fill:#fff"></path><path d="M72.78,243.36l-1,0A16.07,16.07,0,0,1,76.21,233a15.1,15.1,0,0,1,2.14-1.88l1.28-.88,6.57-4.38-3-4.52-8,5.4a20.54,20.54,0,0,0-2.87,2.51,21.46,21.46,0,0,0-5.87,13.81l-1,0a22.41,22.41,0,0,1,6.14-14.43,21.29,21.29,0,0,1,3-2.63l2.9-2,6-4,4.08,6.12-8.62,5.77a14.29,14.29,0,0,0-2,1.76A15.12,15.12,0,0,0,72.78,243.36Z" style="fill:#263238"></path><path d="M71,243.28l-.48,0a17.32,17.32,0,0,1,4.74-11.14,17,17,0,0,1,2.32-2l1.33-.91,6.76-4.51-1.56-2.34-8.19,5.49a18.81,18.81,0,0,0-2.7,2.37,20.19,20.19,0,0,0-5.52,13l-.48,0a20.65,20.65,0,0,1,5.65-13.27,19.24,19.24,0,0,1,2.77-2.43l1.44-1,7.16-4.77,2.1,3.15-8.48,5.67a16,16,0,0,0-2.25,2A16.84,16.84,0,0,0,71,243.28Z" style="fill:#263238"></path><rect x="82.31" y="221.64" width="0.96" height="6.51" transform="translate(-110.79 83.63) rotate(-33.67)" style="fill:#263238"></rect><rect x="79.72" y="223.36" width="0.96" height="6.52" transform="translate(-112.18 82.47) rotate(-33.67)" style="fill:#263238"></rect><rect x="77.13" y="225.09" width="0.96" height="6.52" transform="translate(-113.57 81.32) rotate(-33.67)" style="fill:#263238"></rect><rect x="73.71" y="227" width="2.88" height="6.52" transform="translate(-135.79 111.22) rotate(-42.49)" style="fill:#263238"></rect><rect x="72.56" y="229.28" width="0.96" height="6.52" transform="translate(-155.26 147.16) rotate(-52.06)" style="fill:#263238"></rect><rect x="70.85" y="231.89" width="0.96" height="6.52" transform="translate(-169.45 186.12) rotate(-61.62)" style="fill:#263238"></rect><rect x="69.61" y="234.74" width="0.96" height="6.52" transform="translate(-177.79 227.54) rotate(-71.17)" style="fill:#263238"></rect><rect x="68.86" y="237.76" width="0.96" height="6.52" transform="translate(-179.69 270.68) rotate(-80.74)" style="fill:#263238"></rect><path d="M84.36,265.6A21.88,21.88,0,0,1,71,258.06a22.1,22.1,0,0,1-5.1-14.48l6.39.13A15.67,15.67,0,0,0,75.9,254a15.37,15.37,0,0,0,9.45,5.33" style="fill:#fff"></path><path d="M84.29,266.07a22.31,22.31,0,0,1-18.87-22.5v-.48l7.35.15v.48a15,15,0,0,0,12.65,15.09l-.15.95a15.94,15.94,0,0,1-13.46-15.58l-5.43-.11a21.62,21.62,0,0,0,5,13.68,21.34,21.34,0,0,0,13.06,7.37Z" style="fill:#263238"></path><path d="M84.56,264.31A20.56,20.56,0,0,1,72,257.21a20.78,20.78,0,0,1-4.79-13.6v-.24l3.78.07v.24a17.06,17.06,0,0,0,3.9,11.11,16.78,16.78,0,0,0,10.25,5.78l-.07.48a17.22,17.22,0,0,1-10.54-6,17.55,17.55,0,0,1-4-11.18l-2.82,0a20.37,20.37,0,0,0,4.69,13.05,20.06,20.06,0,0,0,12.26,6.92Z" style="fill:#263238"></path><rect x="66" y="245.92" width="6.52" height="0.96" transform="matrix(0.99, -0.13, 0.13, 0.99, -30.71, 10.78)" style="fill:#263238"></rect><rect x="66.64" y="248.97" width="6.52" height="0.96" transform="translate(-69.34 30.99) rotate(-16.86)" style="fill:#263238"></rect><rect x="67.8" y="251.85" width="6.52" height="0.96" transform="translate(-105.18 58.27) rotate(-26.52)" style="fill:#263238"></rect><rect x="69.42" y="253.55" width="6.52" height="2.88" transform="translate(-136.25 91.74) rotate(-36.09)" style="fill:#263238"></rect><rect x="71.44" y="256.87" width="6.52" height="0.96" transform="translate(-161.51 130.8) rotate(-45.63)" style="fill:#263238"></rect><rect x="73.84" y="258.85" width="6.51" height="0.96" transform="translate(-179.7 174.18) rotate(-55.1)" style="fill:#263238"></rect><rect x="76.53" y="260.4" width="6.51" height="0.96" transform="translate(-190.15 221.46) rotate(-64.68)" style="fill:#263238"></rect><rect x="79.45" y="261.49" width="6.52" height="0.96" transform="translate(-191.86 271.02) rotate(-74.37)" style="fill:#263238"></rect><path d="M112.06,265.88H87.79l-1,0a14.26,14.26,0,0,1-1.95-.17l.84-6.33a10.55,10.55,0,0,0,1.38.11l.7,0h24.27" style="fill:#fff"></path><path d="M112.06,266.36l-25.68-.06a12.7,12.7,0,0,1-1.6-.15l-.44-.09,1-7.3.51.11a5.34,5.34,0,0,0,.92.08l1.09.06h24.24v1l-25.37-.06-.57,0-.71,5.39c.33,0,.67.05,1,.07l1.38.06h24.25Z" style="fill:#263238"></path><path d="M112.06,264.58H87.79l-1.34-.07a9.74,9.74,0,0,1-1.42-.13l-.22-.05.49-3.75.26.06a7.47,7.47,0,0,0,1.08.1l.4,0,.76,0h24.26v.48H87.79l-.78,0-.39,0c-.3,0-.6,0-.91-.07l-.37,2.79a10.34,10.34,0,0,0,1.13.09l1.33.07h24.26Z" style="fill:#263238"></path><rect x="87.57" y="259.43" width="0.96" height="6.52" style="fill:#263238"></rect><rect x="90.68" y="259.43" width="0.96" height="6.52" style="fill:#263238"></rect><rect x="93.8" y="259.43" width="0.96" height="6.52" style="fill:#263238"></rect><rect x="95.95" y="259.43" width="2.88" height="6.52" style="fill:#263238"></rect><rect x="100.03" y="259.43" width="0.96" height="6.52" style="fill:#263238"></rect><rect x="103.14" y="259.43" width="0.96" height="6.52" style="fill:#263238"></rect><rect x="106.26" y="259.43" width="0.96" height="6.52" style="fill:#263238"></rect><rect x="109.37" y="259.43" width="0.96" height="6.52" style="fill:#263238"></rect><polyline points="139.27 265.88 112.5 265.88 112.5 259.49 139.27 259.49" style="fill:#fff"></polyline><polygon points="139.27 266.36 112.02 266.36 112.02 259.01 139.27 259.01 139.27 259.97 112.98 259.97 112.98 265.4 139.27 265.4 139.27 266.36" style="fill:#263238"></polygon><polygon points="139.27 264.58 112.26 264.58 112.26 260.8 139.27 260.8 139.27 261.28 112.74 261.28 112.74 264.1 139.27 264.1 139.27 264.58" style="fill:#263238"></polygon><rect x="114.78" y="259.43" width="0.96" height="6.52" style="fill:#263238"></rect><rect x="117.9" y="259.43" width="0.96" height="6.52" style="fill:#263238"></rect><rect x="121.01" y="259.43" width="0.96" height="6.52" style="fill:#263238"></rect><rect x="123.17" y="259.43" width="2.88" height="6.52" style="fill:#263238"></rect><rect x="127.25" y="259.43" width="0.96" height="6.52" style="fill:#263238"></rect><rect x="130.36" y="259.43" width="0.96" height="6.52" style="fill:#263238"></rect><rect x="133.48" y="259.43" width="0.96" height="6.52" style="fill:#263238"></rect><rect x="136.59" y="259.43" width="0.96" height="6.52" style="fill:#263238"></rect><circle cx="139.27" cy="260.46" r="8.94" transform="translate(-140.17 356.08) rotate(-80.76)" style="fill:#fff;stroke:#263238;stroke-miterlimit:10"></circle><path d="M139.27,255.29a5.17,5.17,0,1,1-5.17,5.17A5.16,5.16,0,0,1,139.27,255.29Z" style="fill:#263238"></path><polygon points="194.28 145.76 188.27 145.76 189.91 174.27 192.64 174.27 194.28 145.76" style="fill:#263238;stroke:#263238;stroke-miterlimit:10"></polygon><rect x="188.08" y="141.92" width="6.39" height="17.03" rx="1.19" style="fill:#fff;stroke:#263238;stroke-miterlimit:10"></rect><circle cx="184.2" cy="141" r="8.94" style="fill:#fff;stroke:#263238;stroke-miterlimit:10"></circle><path d="M189.37,141a5.17,5.17,0,1,1-5.17-5.17A5.17,5.17,0,0,1,189.37,141Z" style="fill:#263238"></path><path d="M133.73,192.23H100.07A13.57,13.57,0,0,1,86.5,178.65h0a13.57,13.57,0,0,1,13.57-13.58h33.66a13.58,13.58,0,0,1,13.57,13.58h0A13.58,13.58,0,0,1,133.73,192.23Z" style="fill:#C6EC42;stroke:#263238;stroke-miterlimit:10"></path><rect x="81.88" y="214.96" width="7.16" height="16.3" rx="3.03" transform="translate(-56.35 30.83) rotate(-15.45)" style="fill:#C6EC42;stroke:#263238;stroke-miterlimit:10"></rect><rect x="144.36" y="214.96" width="7.16" height="16.3" rx="3.03" transform="translate(231.1 477.57) rotate(-164.55)" style="fill:#C6EC42;stroke:#263238;stroke-miterlimit:10"></rect><path d="M135.23,242.59H98.56A5.47,5.47,0,0,1,93.18,239l-8.65-29.3A3,3,0,0,1,87.69,207h58.42a3,3,0,0,1,3.16,2.72L140.62,239A5.49,5.49,0,0,1,135.23,242.59Z" style="fill:#C6EC42;stroke:#263238;stroke-miterlimit:10"></path><path d="M131,250.65H102.77a4.36,4.36,0,0,1-4.15-3.53L92,218.38a2.55,2.55,0,0,1,2.43-2.66h45a2.55,2.55,0,0,1,2.43,2.66l-6.66,28.74A4.37,4.37,0,0,1,131,250.65Z" style="fill:#fff;stroke:#263238;stroke-miterlimit:10"></path><path d="M128.59,246.29H105.2a3.49,3.49,0,0,1-3.43-2.3l-.75-14.1a1.45,1.45,0,0,1,1.55-1.34h28.66a1.45,1.45,0,0,1,1.55,1.34L132,244A3.49,3.49,0,0,1,128.59,246.29Z" style="fill:#C6EC42;stroke:#263238;stroke-miterlimit:10"></path><rect x="97.51" y="192.1" width="38.79" height="4.48" style="fill:#263238"></rect><rect x="97.51" y="197.42" width="38.79" height="4.48" style="fill:#263238"></rect><rect x="97.51" y="202.74" width="38.79" height="4.48" style="fill:#263238"></rect><path d="M119.15,148.27a2.24,2.24,0,1,0-2.72,2.18V164.9h1V150.45A2.23,2.23,0,0,0,119.15,148.27Z" style="fill:#263238"></path><path d="M129.4,174.74a3.9,3.9,0,0,0-3.77,2.93H107.77a3.91,3.91,0,1,0,0,2h17.86a3.9,3.9,0,1,0,3.77-4.89Z" style="fill:#263238"></path><circle cx="99.29" cy="222.2" r="4.07" style="fill:#C6EC42;stroke:#263238;stroke-miterlimit:10"></circle><path d="M101,171.88A2.85,2.85,0,1,1,98.1,169,2.86,2.86,0,0,1,101,171.88Z" style="fill:#fff"></path><path d="M103.93,168.89a1,1,0,1,1-1-.95A.95.95,0,0,1,103.93,168.89Z" style="fill:#fff"></path></g></svg>