<svg xmlns="http://www.w3.org/2000/svg" viewBox="0 0 750 500"><g id="freepik--background-complete--inject-15"><path d="M613.12,279.59a30.77,30.77,0,0,1-5.61,5.89l1.46,7.4-11.4,5.06-4.51-6.05a30.68,30.68,0,0,1-8.13.2l-4.2,6.27-11.65-4.49,1.09-7.46a30.77,30.77,0,0,1-5.89-5.61l-7.4,1.46-5.06-11.41,6-4.5a30.75,30.75,0,0,1-.2-8.14L551.4,254l4.49-11.65,7.46,1.09a30.77,30.77,0,0,1,5.61-5.89l-1.46-7.4,11.41-5.06,4.51,6a30.67,30.67,0,0,1,8.13-.21l4.2-6.26,11.64,4.49-1.09,7.46a30.48,30.48,0,0,1,5.89,5.61l7.4-1.46,5.06,11.4-6,4.51a30.33,30.33,0,0,1,.21,8.14l6.26,4.19-4.49,11.65-7.46-1.09Zm-12.6-12.72a13.39,13.39,0,1,0-17.3,7.67A13.39,13.39,0,0,0,600.52,266.87Z" style="fill:none"></path><path d="M600.52,266.87a10.1,10.1,0,0,1-1.44,3,13.25,13.25,0,0,1-7.24,5.3,13.5,13.5,0,0,1-6.29.37,13.71,13.71,0,0,1-6.53-3.11,12.88,12.88,0,0,1-2.58-3,12.63,12.63,0,0,1-1.67-3.76,13.62,13.62,0,0,1,5.85-15.18,12.68,12.68,0,0,1,3.77-1.67,12.89,12.89,0,0,1,3.92-.48,13.58,13.58,0,0,1,11.34,6.57,13.36,13.36,0,0,1,1.81,8.78,10.2,10.2,0,0,1-.94,3.19,31.71,31.71,0,0,0,.64-3.22,13.34,13.34,0,0,0-2-8.47,13.06,13.06,0,0,0-10.9-6.14,12.94,12.94,0,0,0-7.27,2.07,13,13,0,0,0-5.53,14.35,12,12,0,0,0,1.57,3.57,12.43,12.43,0,0,0,2.43,2.85,13.21,13.21,0,0,0,6.18,3,13,13,0,0,0,6-.27,13.33,13.33,0,0,0,7.15-4.95A30.94,30.94,0,0,0,600.52,266.87Z" style="fill:#e0e0e0"></path><path d="M613.12,279.59a2.41,2.41,0,0,1,.47,0l1.42.17,5.59.75-.13.08L624.89,269l.07.23L618.68,265l-.11-.07v-.14a30.24,30.24,0,0,0-.23-8.07l0-.15.12-.09,6-4.52-.09.33-5.09-11.4.34.18-7.4,1.47-.19,0-.12-.15a30.31,30.31,0,0,0-5.83-5.54l-.17-.12,0-.2c.34-2.31.71-4.86,1.08-7.46l.22.37L595.62,225l.42-.14-4.19,6.27-.12.18-.22,0a29.93,29.93,0,0,0-8,.21l-.22,0-.13-.18c-1.42-1.89-3-4-4.51-6l.45.12-11.4,5.07.22-.42c.46,2.33,1,4.85,1.46,7.4l0,.22-.18.15a30.35,30.35,0,0,0-5.53,5.81h0c-.16.07.37-.15-.36.16h-.23l-.24,0-.47-.07-.93-.13-1.87-.28-3.72-.54.41-.24c-1.52,3.93-3,7.82-4.49,11.64l-.14-.45,6.26,4.2.19.13,0,.22a30.41,30.41,0,0,0,.2,8l0,.22-.18.13L552,271.15l.12-.45q2.58,5.85,5.05,11.41l-.4-.2,7.41-1.45.2,0,.13.16a30.25,30.25,0,0,0,5.82,5.56l.16.12,0,.2q-.56,3.82-1.1,7.45l-.2-.34,11.63,4.51-.35.11,4.22-6.25.09-.14.17,0a30.3,30.3,0,0,0,8.06-.18l.15,0,.09.12,4.49,6.06-.28-.07,11.43-5-.1.19c-.56-3-1-5.39-1.41-7.41v-.07l0-.05a31.51,31.51,0,0,0,4.4-4.24l1-1.17a3,3,0,0,1,.32-.38,3.32,3.32,0,0,1-.27.42c-.2.27-.49.68-.92,1.21a29.25,29.25,0,0,1-4.34,4.35l0-.12c.41,2,.91,4.44,1.51,7.39l0,.14-.13,0c-3.21,1.45-7,3.14-11.38,5.11l-.17.08-.11-.15-4.52-6,.24.1a30.84,30.84,0,0,1-8.2.23l.26-.12c-1.34,2-2.72,4.06-4.19,6.27l-.13.2-.22-.09L569,294.17l-.24-.09,0-.26,1.08-7.46.13.32a31.31,31.31,0,0,1-6-5.67l.34.13L557,282.6l-.28.06-.11-.26L551.49,271l-.12-.27.23-.17,6-4.51-.15.35a31,31,0,0,1-.21-8.23l.17.36-6.27-4.2-.25-.17.11-.28q2.21-5.74,4.48-11.65l.11-.28.31,0,3.72.54,1.87.28.94.13.47.07.23,0h.23c-.73.31-.2.09-.37.15h0a31,31,0,0,1,5.67-6l-.13.37-1.46-7.4-.06-.3.28-.12,11.41-5,.27-.13.18.24,4.5,6.06-.35-.15a31.33,31.33,0,0,1,8.23-.2l-.35.16,4.21-6.26.16-.23.26.1,11.64,4.5.26.1,0,.27c-.38,2.6-.76,5.15-1.1,7.46l-.14-.32a30.79,30.79,0,0,1,6,5.68l-.31-.11,7.4-1.45.24,0,.1.22,5,11.41.09.2-.18.13-6.06,4.49.1-.24a30.7,30.7,0,0,1,.18,8.2l-.1-.21,6.25,4.22.13.09-.06.14-4.55,11.62,0,.09h-.1l-5.52-.87-1.43-.24Z" style="fill:#e0e0e0"></path><path d="M530.78,179.23a43,43,0,0,1-7.93,8.33L524.91,198l-16.12,7.16-6.37-8.55a43.33,43.33,0,0,1-11.5.29L485,205.77l-16.46-6.34,1.54-10.55a43,43,0,0,1-8.33-7.94L451.27,183l-7.16-16.13,8.55-6.37a43.32,43.32,0,0,1-.29-11.5l-8.85-5.93,6.34-16.47,10.55,1.54a43.87,43.87,0,0,1,7.93-8.33l-2.06-10.46,16.13-7.15,6.37,8.55a43.32,43.32,0,0,1,11.5-.29l5.93-8.85L522.68,108l-1.54,10.55a43.26,43.26,0,0,1,8.33,7.93l10.46-2.06,7.15,16.12-8.55,6.38a43.25,43.25,0,0,1,.29,11.49l8.85,5.94-6.34,16.46-10.55-1.54Zm-17.81-18A18.93,18.93,0,1,0,488.5,172.1,18.93,18.93,0,0,0,513,161.25Z" style="fill:#e0e0e0;fill-rule:evenodd"></path><path d="M612.53,202a24,24,0,0,1-4.39,4.61l1.14,5.79-8.93,4-3.52-4.73a24.23,24.23,0,0,1-6.37.16l-3.29,4.9-9.11-3.51.85-5.84a24,24,0,0,1-4.61-4.39l-5.79,1.14-4-8.93,4.73-3.53a24.14,24.14,0,0,1-.16-6.36l-4.9-3.29,3.51-9.11,5.84.85a24,24,0,0,1,4.39-4.61l-1.14-5.8,8.93-4,3.53,4.74a24.14,24.14,0,0,1,6.36-.16l3.29-4.9L608,162.5l-.85,5.84a24,24,0,0,1,4.61,4.39l5.8-1.14,4,8.93-4.74,3.53a23.72,23.72,0,0,1,.16,6.36l4.9,3.29-3.51,9.11-5.84-.85Zm-9.86-10a10.48,10.48,0,1,0-13.55,6A10.47,10.47,0,0,0,602.67,192Z" style="fill:#e0e0e0;fill-rule:evenodd"></path><rect x="146.07" y="79.71" width="97.85" height="64.33" style="fill:#e0e0e0"></rect><rect x="149.47" y="82.34" width="90.99" height="58.83" style="fill:#fafafa"></rect><rect x="180.13" y="103.79" width="29.68" height="16.19" style="fill:#e0e0e0"></rect><rect x="64.77" y="119.66" width="59.28" height="38.97" style="fill:#e0e0e0"></rect><rect x="66.83" y="121.25" width="55.12" height="35.64" style="fill:#fafafa"></rect><rect x="85.4" y="134.24" width="17.98" height="9.81" style="fill:#e0e0e0"></rect><rect x="645.71" y="198.4" width="1.82" height="16.29" style="fill:#e0e0e0"></rect><rect x="705.72" y="198.4" width="1.82" height="16.29" style="fill:#e0e0e0"></rect><rect x="638.99" y="191.85" width="76.31" height="6.55" style="fill:#ebebeb"></rect><rect x="689.71" y="142.81" width="10.52" height="49.04" style="fill:#f5f5f5"></rect><path d="M697.26,180.08a2.09,2.09,0,1,1-2.08-2.08A2.09,2.09,0,0,1,697.26,180.08Z" style="fill:#e0e0e0"></path><rect x="693.48" y="155.8" width="3.22" height="20.04" style="fill:#e0e0e0"></rect><rect x="679.02" y="142.81" width="10.52" height="49.04" style="fill:#ebebeb"></rect><path d="M686.57,180.08a2.08,2.08,0,1,1-2.08-2.08A2.09,2.09,0,0,1,686.57,180.08Z" style="fill:#fafafa"></path><rect x="682.79" y="155.8" width="3.22" height="20.04" style="fill:#fafafa"></rect><rect x="668.84" y="142.81" width="10.52" height="49.04" style="fill:#e0e0e0"></rect><path d="M676.4,180.08a2.09,2.09,0,1,1-2.09-2.08A2.1,2.1,0,0,1,676.4,180.08Z" style="fill:#fafafa"></path><rect x="672.61" y="155.8" width="3.22" height="20.04" style="fill:#fafafa"></rect><polygon points="655.83 191.1 668.47 147.96 664.11 146.05 651.15 189.54 655.83 191.1" style="fill:#e0e0e0"></polygon><path d="M408.6,107.46a20.2,20.2,0,0,1,3.87,3.8l4.95-.9,3.27,7.65L416.61,121a20.13,20.13,0,0,1,.06,5.43l4.14,2.86-3.1,7.72-5-.8a20,20,0,0,1-3.8,3.88l.91,4.95-7.66,3.27-2.95-4.08a20.55,20.55,0,0,1-5.43.06L391,148.39l-7.73-3.11.8-5a20.26,20.26,0,0,1-3.88-3.8l-4.95.9-3.27-7.65,4.08-3a20.55,20.55,0,0,1-.06-5.43l-4.13-2.86,3.1-7.72,5,.8a20.26,20.26,0,0,1,3.8-3.88l-.9-5,7.65-3.27,2.95,4.08a20.55,20.55,0,0,1,5.43-.06l2.86-4.14,7.72,3.11-.79,5ZM400,115.75a8.93,8.93,0,1,0,5,11.61A8.93,8.93,0,0,0,400,115.75Z" style="fill:none"></path><path d="M400,115.75a6.57,6.57,0,0,1,2,1,8.86,8.86,0,0,1,3.47,4.88,9,9,0,0,1,.19,4.19,9.25,9.25,0,0,1-2.14,4.33,9.33,9.33,0,0,1-4.55,2.78,9.11,9.11,0,0,1-10.07-4,8.78,8.78,0,0,1-1.08-2.53,9.14,9.14,0,0,1,1.17-7.22,9,9,0,0,1,8.92-4,6.78,6.78,0,0,1,2.11.66c0,.06-.74-.28-2.14-.46a8.92,8.92,0,0,0-5.67,1.24,8.63,8.63,0,0,0-2.86,2.82,8.73,8.73,0,0,0-1.34,4.39,8.49,8.49,0,0,0,.29,2.48,8.07,8.07,0,0,0,1,2.38,8.65,8.65,0,0,0,9.52,3.83,8.19,8.19,0,0,0,2.39-1,8.11,8.11,0,0,0,1.93-1.6,8.73,8.73,0,0,0,1.95-8.11,8.87,8.87,0,0,0-3.24-4.81A19.81,19.81,0,0,0,400,115.75Z" style="fill:#e0e0e0"></path><path d="M408.6,107.46a1.22,1.22,0,0,1,0-.31c0-.23.07-.54.13-.94.13-.87.31-2.11.55-3.73l.05.09-7.74-3.06.16,0-2.85,4.15-.05.07h-.09a20.31,20.31,0,0,0-5.38.08h-.1l-.06-.08-3-4.07.22.06L382.86,103l.12-.23c.28,1.54.59,3.22.91,5l0,.13-.1.08a20.15,20.15,0,0,0-3.75,3.84l-.08.11-.13,0-5-.79.25-.14L372,118.62l-.09-.28,4.14,2.85.12.09,0,.14a20.55,20.55,0,0,0,.07,5.36l0,.15-.12.09-4.08,3,.09-.3c1,2.42,2.14,5,3.27,7.65l-.28-.15,4.95-.9.15,0,.09.12a20.06,20.06,0,0,0,3.83,3.75h0c.05.11-.1-.24.1.25h0v.14l0,.16-.05.31-.1.62-.2,1.25c-.13.83-.26,1.65-.4,2.47l-.15-.27,7.72,3.1-.3.09q1.44-2.09,2.86-4.13l.08-.13.16,0a20.45,20.45,0,0,0,5.36-.05l.15,0,.08.13,2.95,4.07-.29-.08,7.65-3.26-.14.26c-.3-1.68-.6-3.33-.89-4.95l0-.14.11-.08a20,20,0,0,0,3.76-3.83l.08-.11.14,0,5,.8-.23.13c1.1-2.71,2.13-5.28,3.12-7.72l.07.24-4.13-2.87-.09-.06v-.11a20.52,20.52,0,0,0,0-5.38l0-.11.08-.06,4.09-2.93-.05.18-3.23-7.67.12.07-4.95.87h-.05l0,0a20.64,20.64,0,0,0-2.79-3l-.77-.66a1.31,1.31,0,0,1-.25-.22l.28.19c.18.13.45.33.79.62a19.66,19.66,0,0,1,2.87,2.94l-.08,0,4.94-.94h.09l0,.08,3.3,7.64.05.11-.1.08-4.07,3,.07-.16a20.7,20.7,0,0,1,.08,5.47l-.08-.17,4.14,2.85.13.08-.06.15c-1,2.44-2,5-3.09,7.73l-.06.16-.17,0-5-.79.21-.08a20.33,20.33,0,0,1-3.84,3.92l.09-.22c.3,1.62.6,3.27.91,5l0,.18-.17.08-7.65,3.27-.18.08-.12-.16L399,144.34l.24.1a20.65,20.65,0,0,1-5.5.06l.24-.11q-1.41,2.06-2.86,4.14l-.11.17-.19-.08-7.72-3.1-.19-.07,0-.21c.13-.82.26-1.64.4-2.47l.2-1.25.1-.62.05-.31,0-.16v-.14h0c.19.49.05.13.09.24h0a20.72,20.72,0,0,1-3.92-3.84l.25.09-4.95.9-.2,0-.08-.19c-1.13-2.63-2.23-5.23-3.27-7.65l-.08-.19.17-.12,4.08-2.94-.1.23a20.67,20.67,0,0,1-.06-5.49l.1.23-4.13-2.86-.16-.11.07-.18,3.12-7.72.07-.17.18,0,5,.81-.21.08a21,21,0,0,1,3.84-3.91l-.08.21c-.31-1.73-.61-3.42-.89-5l0-.16.15-.07,7.66-3.25.14,0,.08.12,2.94,4.08-.16-.07a20.92,20.92,0,0,1,5.47,0l-.14.06,2.87-4.12.06-.09.1,0,7.7,3.15.07,0,0,.06c-.27,1.59-.48,2.82-.63,3.68-.07.4-.13.71-.17,1S408.6,107.46,408.6,107.46Z" style="fill:#e0e0e0"></path></g><g id="freepik--Floor--inject-15"><path d="M725.54,431.1c0,.14-156.95.26-350.52.26s-350.56-.12-350.56-.26,156.92-.26,350.56-.26S725.54,431,725.54,431.1Z" style="fill:#263238"></path></g><g id="freepik--Box--inject-15"><rect x="663.14" y="362.56" width="60.33" height="60.33" style="fill:#263238"></rect><rect x="657.76" y="360.3" width="61.62" height="63.82" style="fill:#455a64"></rect><rect x="653.23" y="359" width="63.82" height="63.82" style="fill:#263238"></rect><rect x="648.44" y="357.71" width="62.96" height="63.59" transform="translate(1.43 -2.49) rotate(0.21)" style="fill:#E0371F"></rect><g style="opacity:0.30000000000000004"><polygon points="653.23 415.76 670.76 383.1 684.93 404.07 693.63 392.99 706.42 415.95 653.23 415.76"></polygon></g><g style="opacity:0.30000000000000004"><path d="M691.1,376.81a4.53,4.53,0,1,1-4.52-4.75A4.63,4.63,0,0,1,691.1,376.81Z"></path></g><g style="opacity:0.30000000000000004"><path d="M706.42,416.13a1.33,1.33,0,0,1,0-.26c0-.19,0-.43,0-.74,0-.68,0-1.63,0-2.86,0-2.52,0-6.17,0-10.8,0-9.29,0-22.52,0-38.4l.25.27-53.19-.15c-.07.07.57-.59.3-.3h0v3.59c0,1.2,0,2.4,0,3.59,0,2.38,0,4.75,0,7.08q0,7,0,13.71c-.05,8.9-.09,17.32-.12,25.07l-.26-.28,38.46.28,10.84.11,2.88.05.75,0h.26l-.23,0h-.72l-2.83,0-10.79,0H653v-.27c0-7.75,0-16.17.07-25.08,0-4.45,0-9,0-13.7q0-3.51,0-7.08c0-1.19,0-2.39,0-3.59v-3.61l.31-.32,53.18.24h.26v.27c-.11,15.95-.21,29.24-.27,38.57-.05,4.6-.08,8.23-.11,10.74,0,1.21,0,2.14,0,2.81,0,.3,0,.53,0,.71A1.66,1.66,0,0,1,706.42,416.13Z"></path></g><path d="M644.37,386.94v44.39h86.36V386.94Zm35.77,10.33H663.5a2.53,2.53,0,1,1,0-5.06h16.64a2.53,2.53,0,0,1,0,5.06Z" style="fill:#455a64"></path><rect x="702.62" y="386.94" width="28.11" height="44.39" style="fill:#263238"></rect></g><g id="freepik--Device--inject-15"><path d="M161.57,168.37H542.14a6.74,6.74,0,0,1,6.74,6.74V415.06a14.57,14.57,0,0,1-14.57,14.57H168.38a14.57,14.57,0,0,1-14.57-14.57V176.12A7.75,7.75,0,0,1,161.57,168.37Z" style="fill:#263238"></path><path d="M137.29,410.3h428a0,0,0,0,1,0,0v9.14a13.72,13.72,0,0,1-13.72,13.72H151a13.72,13.72,0,0,1-13.72-13.72V410.3A0,0,0,0,1,137.29,410.3Z" style="fill:#263238"></path><rect x="164.42" y="178.75" width="372.75" height="220.62" style="fill:#455a64"></rect><polygon points="312.4 410.3 317.71 418.75 392.45 418.75 397.38 410.3 312.4 410.3" style="fill:#455a64"></polygon><rect x="153.88" y="410.22" width="395.07" height="1.26" style="fill:#455a64"></rect><rect x="200.5" y="184.15" width="354.29" height="209.25" style="fill:#e0e0e0"></rect><path d="M216.32,284a39.8,39.8,0,0,1,7.52,7.37l9.61-1.75,6.34,14.86-7.91,5.72a40,40,0,0,1,.12,10.54l8,5.55-6,15-9.64-1.55a39.21,39.21,0,0,1-7.37,7.52l1.76,9.61-14.86,6.34-5.73-7.91a39.46,39.46,0,0,1-10.53.11l-5.55,8-15-6,1.55-9.64a39.56,39.56,0,0,1-7.53-7.37l-9.6,1.75-6.34-14.85,7.91-5.73A39.88,39.88,0,0,1,153,311l-8-5.55,6-15L160.6,292a39.56,39.56,0,0,1,7.37-7.53l-1.76-9.6,14.86-6.34,5.72,7.91a40,40,0,0,1,10.54-.12l5.55-8,15,6L216.32,284Zm-16.7,16.08a17.33,17.33,0,1,0,9.62,22.54A17.33,17.33,0,0,0,199.62,300.07Z" style="fill:#E0371F;fill-rule:evenodd"></path><g style="opacity:0.3"><path d="M216.32,284a39.8,39.8,0,0,1,7.52,7.37l9.61-1.75,6.34,14.86-7.91,5.72a40,40,0,0,1,.12,10.54l8,5.55-6,15-9.64-1.55a39.21,39.21,0,0,1-7.37,7.52l1.76,9.61-14.86,6.34-5.73-7.91a39.46,39.46,0,0,1-10.53.11l-5.55,8-15-6,1.55-9.64a39.56,39.56,0,0,1-7.53-7.37l-9.6,1.75-6.34-14.85,7.91-5.73A39.88,39.88,0,0,1,153,311l-8-5.55,6-15L160.6,292a39.56,39.56,0,0,1,7.37-7.53l-1.76-9.6,14.86-6.34,5.72,7.91a40,40,0,0,1,10.54-.12l5.55-8,15,6L216.32,284Zm-16.7,16.08a17.33,17.33,0,1,0,9.62,22.54A17.33,17.33,0,0,0,199.62,300.07Z" style="fill-rule:evenodd"></path></g><path d="M214,217.14a21.74,21.74,0,0,1,4.16,4.08l5.32-1,3.51,8.23-4.38,3.16a21.86,21.86,0,0,1,.07,5.83l4.44,3.08-3.33,8.3-5.34-.86a22.09,22.09,0,0,1-4.08,4.17l1,5.31L207.16,261,204,256.6a21.86,21.86,0,0,1-5.83.07l-3.08,4.44-8.3-3.33.86-5.34a22.09,22.09,0,0,1-4.17-4.08l-5.31,1-3.52-8.22,4.39-3.17a21.86,21.86,0,0,1-.07-5.83L174.52,229l3.33-8.3,5.34.86a21.74,21.74,0,0,1,4.08-4.16l-1-5.32,8.22-3.51,3.17,4.38a21.86,21.86,0,0,1,5.83-.07l3.08-4.44,8.29,3.33-.85,5.34Zm-9.25,8.9a9.6,9.6,0,1,0,5.33,12.48A9.59,9.59,0,0,0,204.79,226Z" style="fill:#E0371F;fill-rule:evenodd"></path><g style="opacity:0.2"><path d="M214,217.14a21.74,21.74,0,0,1,4.16,4.08l5.32-1,3.51,8.23-4.38,3.16a21.86,21.86,0,0,1,.07,5.83l4.44,3.08-3.33,8.3-5.34-.86a22.09,22.09,0,0,1-4.08,4.17l1,5.31L207.16,261,204,256.6a21.86,21.86,0,0,1-5.83.07l-3.08,4.44-8.3-3.33.86-5.34a22.09,22.09,0,0,1-4.17-4.08l-5.31,1-3.52-8.22,4.39-3.17a21.86,21.86,0,0,1-.07-5.83L174.52,229l3.33-8.3,5.34.86a21.74,21.74,0,0,1,4.08-4.16l-1-5.32,8.22-3.51,3.17,4.38a21.86,21.86,0,0,1,5.83-.07l3.08-4.44,8.29,3.33-.85,5.34Zm-9.25,8.9a9.6,9.6,0,1,0,5.33,12.48A9.59,9.59,0,0,0,204.79,226Z" style="fill:#fff;fill-rule:evenodd"></path></g><rect x="211.24" y="187.09" width="361.6" height="209.25" style="fill:#fff"></rect><path d="M572.84,396.33c0-1.62-.08-80.84-.2-209.24l.2.2-361.57.06h0l.26-.26c0,74,0,144.81,0,209.24l-.24-.24,361.6.24-361.6.24H211v-.24c0-64.43,0-135.19,0-209.24v-.26h.29l361.57,0h.2v.21C572.92,315.49,572.84,394.72,572.84,396.33Z" style="fill:#263238"></path><path d="M573.05,200.92c0,.14-81,.26-181,.26s-181-.12-181-.26,81-.26,181-.26S573.05,200.77,573.05,200.92Z" style="fill:#263238"></path><path d="M223,192.38a2.34,2.34,0,1,1-2.33-2.33A2.33,2.33,0,0,1,223,192.38Z" style="fill:#263238"></path><circle cx="227.78" cy="192.38" r="2.34" style="fill:#263238"></circle><path d="M237.24,192.38a2.34,2.34,0,1,1-2.34-2.33A2.34,2.34,0,0,1,237.24,192.38Z" style="fill:#263238"></path><rect x="234.9" y="305.67" width="74.57" height="72.15" style="fill:#E0371F"></rect><g style="opacity:0.30000000000000004"><polygon points="240.69 371.64 261.31 334.52 278.19 358.25 288.44 345.65 303.69 371.64 240.69 371.64"></polygon></g><g style="opacity:0.30000000000000004"><path d="M285.37,327.3a5.37,5.37,0,1,1-5.36-5.37A5.36,5.36,0,0,1,285.37,327.3Z"></path></g><g style="opacity:0.30000000000000004"><path d="M303.69,371.85s0-.11,0-.3,0-.49,0-.84c0-.77,0-1.85,0-3.25,0-2.86,0-7-.08-12.25,0-10.54-.09-25.54-.15-43.56l.3.3-63,.05.35-.34h0v16.18q0,8,0,15.55c0,10.1,0,19.66,0,28.44l-.31-.3,45.56.15,12.85.08,3.41,0,.88,0a1.09,1.09,0,0,1,.31,0h-.27l-.85,0-3.35,0-12.78.08-45.76.15h-.3v-.32c0-8.78,0-18.34,0-28.44q0-7.57,0-15.55V311.67h0c-.32.31.43-.45.36-.37l63,0H304v.31c-.07,18.1-.12,33.17-.16,43.75,0,5.23-.06,9.34-.08,12.19,0,1.37,0,2.43,0,3.18,0,.34,0,.61,0,.81A1.39,1.39,0,0,1,303.69,371.85Z"></path></g><path d="M475.08,379.39a6.07,6.07,0,0,1,2.5-.26l-.27.26h0v-.49c0-.15,0-.3,0-.47s0-.57.05-.79c.05-.45.11-.73.19-.73s.13.28.18.73c0,.22,0,.49.06.79v1h0l-.26.26A6.27,6.27,0,0,1,475.08,379.39Z" style="fill:#263238"></path><path d="M464.37,379.39a7,7,0,0,1,2.68-.26,6.91,6.91,0,0,1,2.67.26,7.14,7.14,0,0,1-2.67.26A7.22,7.22,0,0,1,464.37,379.39Z" style="fill:#263238"></path><path d="M453.67,379.39a13.89,13.89,0,0,1,5.35,0,13.89,13.89,0,0,1-5.35,0Z" style="fill:#263238"></path><path d="M443,379.39a6.91,6.91,0,0,1,2.67-.26,7,7,0,0,1,2.68.26,7.22,7.22,0,0,1-2.68.26A7.14,7.14,0,0,1,443,379.39Z" style="fill:#263238"></path><path d="M432.26,379.39a7,7,0,0,1,2.68-.26,6.91,6.91,0,0,1,2.67.26,7.14,7.14,0,0,1-2.67.26A7.22,7.22,0,0,1,432.26,379.39Z" style="fill:#263238"></path><path d="M421.56,379.39a13.89,13.89,0,0,1,5.35,0,13.89,13.89,0,0,1-5.35,0Z" style="fill:#263238"></path><path d="M410.86,379.39a6.91,6.91,0,0,1,2.67-.26,7,7,0,0,1,2.68.26,7.22,7.22,0,0,1-2.68.26A7.14,7.14,0,0,1,410.86,379.39Z" style="fill:#263238"></path><path d="M403,376.89a6,6,0,0,1,.27,2.5l-.26-.26h.5l.47,0,.79.05c.45.05.73.11.73.19s-.28.13-.73.18l-.79.06h-1c-.12-.12.25.26-.27-.26A6.31,6.31,0,0,1,403,376.89Z" style="fill:#263238"></path><path d="M403,366.56a12.46,12.46,0,0,1,0,5.16,12.93,12.93,0,0,1,0-5.16Z" style="fill:#263238"></path><path d="M403,356.23a12.46,12.46,0,0,1,0,5.16,12.93,12.93,0,0,1,0-5.16Z" style="fill:#263238"></path><path d="M403,345.9a12.46,12.46,0,0,1,0,5.16,12.93,12.93,0,0,1,0-5.16Z" style="fill:#263238"></path><path d="M403,335.57a12.46,12.46,0,0,1,0,5.16,12.93,12.93,0,0,1,0-5.16Z" style="fill:#263238"></path><path d="M403,325.24a12.46,12.46,0,0,1,0,5.16,12.93,12.93,0,0,1,0-5.16Z" style="fill:#263238"></path><path d="M403,314.91a12.46,12.46,0,0,1,0,5.16,12.93,12.93,0,0,1,0-5.16Z" style="fill:#263238"></path><path d="M405.5,307.24a6.27,6.27,0,0,1-2.5.26c.52-.52.15-.14.27-.26h0v.47l0,.47c0,.3,0,.57-.05.8-.05.45-.11.73-.19.73s-.13-.28-.18-.73c0-.23,0-.5-.06-.8v-.94h0L403,307A6.27,6.27,0,0,1,405.5,307.24Z" style="fill:#263238"></path><path d="M416.21,307.24a7.22,7.22,0,0,1-2.68.26,7.14,7.14,0,0,1-2.67-.26,7.14,7.14,0,0,1,2.67-.26A7.22,7.22,0,0,1,416.21,307.24Z" style="fill:#263238"></path><path d="M426.91,307.24a13.89,13.89,0,0,1-5.35,0,13.89,13.89,0,0,1,5.35,0Z" style="fill:#263238"></path><path d="M437.61,307.24a7.14,7.14,0,0,1-2.67.26,7.22,7.22,0,0,1-2.68-.26,7.22,7.22,0,0,1,2.68-.26A7.14,7.14,0,0,1,437.61,307.24Z" style="fill:#263238"></path><path d="M448.32,307.24a7.22,7.22,0,0,1-2.68.26,7.14,7.14,0,0,1-2.67-.26,7.14,7.14,0,0,1,2.67-.26A7.22,7.22,0,0,1,448.32,307.24Z" style="fill:#263238"></path><path d="M459,307.24a13.89,13.89,0,0,1-5.35,0,13.89,13.89,0,0,1,5.35,0Z" style="fill:#263238"></path><path d="M469.72,307.24a7.14,7.14,0,0,1-2.67.26,7.22,7.22,0,0,1-2.68-.26,7.22,7.22,0,0,1,2.68-.26A7.14,7.14,0,0,1,469.72,307.24Z" style="fill:#263238"></path><path d="M477.58,309.74a6,6,0,0,1-.27-2.5l.26.26h-.5l-.47,0c-.3,0-.57,0-.79-.06-.45,0-.73-.11-.73-.18s.28-.14.73-.18c.22,0,.49-.05.79-.06h1c.12.12-.25-.26.27.26A6.31,6.31,0,0,1,477.58,309.74Z" style="fill:#263238"></path><path d="M477.58,320.07a12.46,12.46,0,0,1,0-5.16,12.93,12.93,0,0,1,0,5.16Z" style="fill:#263238"></path><path d="M477.58,330.4a12.46,12.46,0,0,1,0-5.16,12.93,12.93,0,0,1,0,5.16Z" style="fill:#263238"></path><path d="M477.58,340.73a12.46,12.46,0,0,1,0-5.16,12.93,12.93,0,0,1,0,5.16Z" style="fill:#263238"></path><path d="M477.58,351.06a12.46,12.46,0,0,1,0-5.16,12.93,12.93,0,0,1,0,5.16Z" style="fill:#263238"></path><path d="M477.58,361.39a12.46,12.46,0,0,1,0-5.16,12.93,12.93,0,0,1,0,5.16Z" style="fill:#263238"></path><path d="M477.58,371.72a12.46,12.46,0,0,1,0-5.16,12.93,12.93,0,0,1,0,5.16Z" style="fill:#263238"></path><rect x="319.81" y="319.4" width="50.48" height="2.54" style="fill:#263238"></rect><path d="M387.83,330.29c0,.14-15.16.26-33.85.26s-33.86-.12-33.86-.26S335.28,330,354,330,387.83,330.15,387.83,330.29Z" style="fill:#263238"></path><path d="M387.83,337.37c0,.14-15.16.26-33.85.26s-33.86-.12-33.86-.26,15.16-.26,33.86-.26S387.83,337.22,387.83,337.37Z" style="fill:#263238"></path><path d="M387.83,344.45c0,.14-15.16.26-33.85.26s-33.86-.12-33.86-.26,15.16-.26,33.86-.26S387.83,344.3,387.83,344.45Z" style="fill:#263238"></path><path d="M387.83,351.53c0,.14-15.16.26-33.85.26s-33.86-.12-33.86-.26,15.16-.26,33.86-.26S387.83,351.38,387.83,351.53Z" style="fill:#263238"></path><path d="M387.83,358.61c0,.14-15.16.26-33.85.26s-33.86-.12-33.86-.26,15.16-.26,33.86-.26S387.83,358.46,387.83,358.61Z" style="fill:#263238"></path><path d="M354.89,365.11c0,.14-7.78.26-17.38.26s-17.39-.12-17.39-.26,7.78-.26,17.39-.26S354.89,365,354.89,365.11Z" style="fill:#263238"></path><rect x="486.05" y="319.4" width="50.48" height="2.54" style="fill:#263238"></rect><path d="M554.07,330.29c0,.14-15.16.26-33.86.26s-33.85-.12-33.85-.26,15.15-.26,33.85-.26S554.07,330.15,554.07,330.29Z" style="fill:#263238"></path><path d="M554.07,337.37c0,.14-15.16.26-33.86.26s-33.85-.12-33.85-.26,15.15-.26,33.85-.26S554.07,337.22,554.07,337.37Z" style="fill:#263238"></path><path d="M554.07,344.45c0,.14-15.16.26-33.86.26s-33.85-.12-33.85-.26,15.15-.26,33.85-.26S554.07,344.3,554.07,344.45Z" style="fill:#263238"></path><path d="M554.07,351.53c0,.14-15.16.26-33.86.26s-33.85-.12-33.85-.26,15.15-.26,33.85-.26S554.07,351.38,554.07,351.53Z" style="fill:#263238"></path><path d="M554.07,358.61c0,.14-15.16.26-33.86.26s-33.85-.12-33.85-.26,15.15-.26,33.85-.26S554.07,358.46,554.07,358.61Z" style="fill:#263238"></path><path d="M521.13,365.11c0,.14-7.79.26-17.39.26s-17.38-.12-17.38-.26,7.78-.26,17.38-.26S521.13,365,521.13,365.11Z" style="fill:#263238"></path><path d="M537.07,292.16a12.15,12.15,0,0,1,5,0,12.15,12.15,0,0,1-5,0Z" style="fill:#e0e0e0"></path><path d="M527.07,292.16a12.15,12.15,0,0,1,5,0,12.15,12.15,0,0,1-5,0Z" style="fill:#e0e0e0"></path><path d="M517.07,292.16a12.15,12.15,0,0,1,5,0,12.15,12.15,0,0,1-5,0Z" style="fill:#e0e0e0"></path><path d="M507.07,292.16a12.15,12.15,0,0,1,5,0,12.15,12.15,0,0,1-5,0Z" style="fill:#e0e0e0"></path><path d="M497.07,292.16a12.15,12.15,0,0,1,5,0,12.15,12.15,0,0,1-5,0Z" style="fill:#e0e0e0"></path><path d="M487.07,292.16a12.15,12.15,0,0,1,5,0,12.15,12.15,0,0,1-5,0Z" style="fill:#e0e0e0"></path><path d="M477.07,292.16a12.15,12.15,0,0,1,5,0,12.15,12.15,0,0,1-5,0Z" style="fill:#e0e0e0"></path><path d="M467.07,292.16a12.15,12.15,0,0,1,5,0,12.15,12.15,0,0,1-5,0Z" style="fill:#e0e0e0"></path><path d="M457.07,292.16a12.15,12.15,0,0,1,5,0,12.15,12.15,0,0,1-5,0Z" style="fill:#e0e0e0"></path><path d="M447.07,292.16a12.15,12.15,0,0,1,5,0,12.15,12.15,0,0,1-5,0Z" style="fill:#e0e0e0"></path><path d="M437.07,292.16a12.15,12.15,0,0,1,5,0,12.15,12.15,0,0,1-5,0Z" style="fill:#e0e0e0"></path><path d="M427.07,292.16a12.15,12.15,0,0,1,5,0,12.15,12.15,0,0,1-5,0Z" style="fill:#e0e0e0"></path><path d="M417.07,292.16a12.15,12.15,0,0,1,5,0,12.15,12.15,0,0,1-5,0Z" style="fill:#e0e0e0"></path><path d="M407.07,292.16a12.15,12.15,0,0,1,5,0,12.15,12.15,0,0,1-5,0Z" style="fill:#e0e0e0"></path><path d="M397.07,292.16a12.15,12.15,0,0,1,5,0,12.15,12.15,0,0,1-5,0Z" style="fill:#e0e0e0"></path><path d="M387.07,292.16a12.15,12.15,0,0,1,5,0,12.15,12.15,0,0,1-5,0Z" style="fill:#e0e0e0"></path><path d="M377.07,292.16a12.15,12.15,0,0,1,5,0,12.15,12.15,0,0,1-5,0Z" style="fill:#e0e0e0"></path><path d="M367.07,292.16a12.15,12.15,0,0,1,5,0,12.15,12.15,0,0,1-5,0Z" style="fill:#e0e0e0"></path><path d="M357.07,292.16a12.15,12.15,0,0,1,5,0,12.15,12.15,0,0,1-5,0Z" style="fill:#e0e0e0"></path><path d="M347.07,292.16a12.15,12.15,0,0,1,5,0,12.15,12.15,0,0,1-5,0Z" style="fill:#e0e0e0"></path><path d="M337.07,292.16a12.15,12.15,0,0,1,5,0,12.15,12.15,0,0,1-5,0Z" style="fill:#e0e0e0"></path><path d="M327.07,292.16a12.15,12.15,0,0,1,5,0,12.15,12.15,0,0,1-5,0Z" style="fill:#e0e0e0"></path><path d="M317.07,292.16a12.15,12.15,0,0,1,5,0,12.15,12.15,0,0,1-5,0Z" style="fill:#e0e0e0"></path><path d="M307.07,292.16a12.15,12.15,0,0,1,5,0,12.15,12.15,0,0,1-5,0Z" style="fill:#e0e0e0"></path><path d="M297.07,292.16a12.15,12.15,0,0,1,5,0,12.15,12.15,0,0,1-5,0Z" style="fill:#e0e0e0"></path><path d="M287.07,292.16a12.15,12.15,0,0,1,5,0,12.15,12.15,0,0,1-5,0Z" style="fill:#e0e0e0"></path><path d="M277.07,292.16a12.15,12.15,0,0,1,5,0,12.15,12.15,0,0,1-5,0Z" style="fill:#e0e0e0"></path><path d="M267.07,292.16a12.15,12.15,0,0,1,5,0,12.15,12.15,0,0,1-5,0Z" style="fill:#e0e0e0"></path><path d="M257.07,292.16a12.15,12.15,0,0,1,5,0,12.15,12.15,0,0,1-5,0Z" style="fill:#e0e0e0"></path><path d="M247.07,292.16a12.15,12.15,0,0,1,5,0,12.15,12.15,0,0,1-5,0Z" style="fill:#e0e0e0"></path><path d="M237.07,292.16a12.15,12.15,0,0,1,5,0,12.15,12.15,0,0,1-5,0Z" style="fill:#e0e0e0"></path><path d="M230.78,288.45A6.31,6.31,0,0,1,231,291c0,.44,0,.86,0,1.21l-.22-.23c.77.05,1.29.13,1.29.23s-.52.18-1.29.23h-.22v-.24c0-.35,0-.77,0-1.21A6.11,6.11,0,0,1,230.78,288.45Z" style="fill:#e0e0e0"></path><path d="M230.78,278.45a12.15,12.15,0,0,1,0,5,12.15,12.15,0,0,1,0-5Z" style="fill:#e0e0e0"></path><path d="M230.78,268.45a12.15,12.15,0,0,1,0,5,12.15,12.15,0,0,1,0-5Z" style="fill:#e0e0e0"></path><path d="M230.78,258.45a12.15,12.15,0,0,1,0,5,12.15,12.15,0,0,1,0-5Z" style="fill:#e0e0e0"></path><path d="M230.78,248.45a12.15,12.15,0,0,1,0,5,12.15,12.15,0,0,1,0-5Z" style="fill:#e0e0e0"></path><path d="M230.78,238.45a12.15,12.15,0,0,1,0,5,12.15,12.15,0,0,1,0-5Z" style="fill:#e0e0e0"></path><path d="M230.78,228.45a12.15,12.15,0,0,1,0,5,12.15,12.15,0,0,1,0-5Z" style="fill:#e0e0e0"></path><path d="M237.11,224.79a6,6,0,0,1-2.49.26,6.14,6.14,0,0,1-2.51-.26,6.35,6.35,0,0,1,2.51-.26A6.24,6.24,0,0,1,237.11,224.79Z" style="fill:#e0e0e0"></path><path d="M247.11,224.79a6,6,0,0,1-2.49.26,6.14,6.14,0,0,1-2.51-.26,6.35,6.35,0,0,1,2.51-.26A6.24,6.24,0,0,1,247.11,224.79Z" style="fill:#e0e0e0"></path><path d="M257.11,224.79a6,6,0,0,1-2.49.26,6.14,6.14,0,0,1-2.51-.26,6.35,6.35,0,0,1,2.51-.26A6.24,6.24,0,0,1,257.11,224.79Z" style="fill:#e0e0e0"></path><path d="M267.11,224.79a6,6,0,0,1-2.49.26,6.14,6.14,0,0,1-2.51-.26,6.35,6.35,0,0,1,2.51-.26A6.24,6.24,0,0,1,267.11,224.79Z" style="fill:#e0e0e0"></path><path d="M277.11,224.79a6,6,0,0,1-2.49.26,6.14,6.14,0,0,1-2.51-.26,6.35,6.35,0,0,1,2.51-.26A6.24,6.24,0,0,1,277.11,224.79Z" style="fill:#e0e0e0"></path><path d="M287.11,224.79a6,6,0,0,1-2.49.26,6.14,6.14,0,0,1-2.51-.26,6.35,6.35,0,0,1,2.51-.26A6.24,6.24,0,0,1,287.11,224.79Z" style="fill:#e0e0e0"></path><path d="M297.11,224.79a6,6,0,0,1-2.49.26,6.14,6.14,0,0,1-2.51-.26,6.35,6.35,0,0,1,2.51-.26A6.24,6.24,0,0,1,297.11,224.79Z" style="fill:#e0e0e0"></path><path d="M307.11,224.79a6,6,0,0,1-2.49.26,6.14,6.14,0,0,1-2.51-.26,6.35,6.35,0,0,1,2.51-.26A6.24,6.24,0,0,1,307.11,224.79Z" style="fill:#e0e0e0"></path><path d="M317.11,224.79a6,6,0,0,1-2.49.26,6.14,6.14,0,0,1-2.51-.26,6.35,6.35,0,0,1,2.51-.26A6.24,6.24,0,0,1,317.11,224.79Z" style="fill:#e0e0e0"></path><path d="M327.11,224.79a6,6,0,0,1-2.49.26,6.14,6.14,0,0,1-2.51-.26,6.35,6.35,0,0,1,2.51-.26A6.24,6.24,0,0,1,327.11,224.79Z" style="fill:#e0e0e0"></path><path d="M337.11,224.79a6,6,0,0,1-2.49.26,6.14,6.14,0,0,1-2.51-.26,6.35,6.35,0,0,1,2.51-.26A6.24,6.24,0,0,1,337.11,224.79Z" style="fill:#e0e0e0"></path><path d="M347.11,224.79a6,6,0,0,1-2.49.26,6.14,6.14,0,0,1-2.51-.26,6.35,6.35,0,0,1,2.51-.26A6.24,6.24,0,0,1,347.11,224.79Z" style="fill:#e0e0e0"></path><path d="M357.11,224.79a6,6,0,0,1-2.49.26,6.14,6.14,0,0,1-2.51-.26,6.35,6.35,0,0,1,2.51-.26A6.24,6.24,0,0,1,357.11,224.79Z" style="fill:#e0e0e0"></path><path d="M367.11,224.79a6,6,0,0,1-2.49.26,6.14,6.14,0,0,1-2.51-.26,6.35,6.35,0,0,1,2.51-.26A6.24,6.24,0,0,1,367.11,224.79Z" style="fill:#e0e0e0"></path><path d="M377.11,224.79a6,6,0,0,1-2.49.26,6.14,6.14,0,0,1-2.51-.26,6.35,6.35,0,0,1,2.51-.26A6.24,6.24,0,0,1,377.11,224.79Z" style="fill:#e0e0e0"></path><path d="M387.11,224.79a6,6,0,0,1-2.49.26,6.14,6.14,0,0,1-2.51-.26,6.35,6.35,0,0,1,2.51-.26A6.24,6.24,0,0,1,387.11,224.79Z" style="fill:#e0e0e0"></path><path d="M397.11,224.79a6,6,0,0,1-2.49.26,6.14,6.14,0,0,1-2.51-.26,6.35,6.35,0,0,1,2.51-.26A6.24,6.24,0,0,1,397.11,224.79Z" style="fill:#e0e0e0"></path><path d="M407.11,224.79a6,6,0,0,1-2.49.26,6.14,6.14,0,0,1-2.51-.26,6.35,6.35,0,0,1,2.51-.26A6.24,6.24,0,0,1,407.11,224.79Z" style="fill:#e0e0e0"></path><path d="M417.11,224.79a6,6,0,0,1-2.49.26,6.14,6.14,0,0,1-2.51-.26,6.35,6.35,0,0,1,2.51-.26A6.24,6.24,0,0,1,417.11,224.79Z" style="fill:#e0e0e0"></path><path d="M427.11,224.79a6,6,0,0,1-2.49.26,6.14,6.14,0,0,1-2.51-.26,6.35,6.35,0,0,1,2.51-.26A6.24,6.24,0,0,1,427.11,224.79Z" style="fill:#e0e0e0"></path><path d="M437.11,224.79a6,6,0,0,1-2.49.26,6.14,6.14,0,0,1-2.51-.26,6.35,6.35,0,0,1,2.51-.26A6.24,6.24,0,0,1,437.11,224.79Z" style="fill:#e0e0e0"></path><path d="M447.11,224.79a6,6,0,0,1-2.49.26,6.14,6.14,0,0,1-2.51-.26,6.35,6.35,0,0,1,2.51-.26A6.24,6.24,0,0,1,447.11,224.79Z" style="fill:#e0e0e0"></path><path d="M457.11,224.79a6,6,0,0,1-2.49.26,6.14,6.14,0,0,1-2.51-.26,6.35,6.35,0,0,1,2.51-.26A6.24,6.24,0,0,1,457.11,224.79Z" style="fill:#e0e0e0"></path><path d="M467.11,224.79a6,6,0,0,1-2.49.26,6.14,6.14,0,0,1-2.51-.26,6.35,6.35,0,0,1,2.51-.26A6.24,6.24,0,0,1,467.11,224.79Z" style="fill:#e0e0e0"></path><path d="M477.11,224.79a6,6,0,0,1-2.49.26,6.14,6.14,0,0,1-2.51-.26,6.35,6.35,0,0,1,2.51-.26A6.24,6.24,0,0,1,477.11,224.79Z" style="fill:#e0e0e0"></path><path d="M487.11,224.79a6,6,0,0,1-2.49.26,6.14,6.14,0,0,1-2.51-.26,6.35,6.35,0,0,1,2.51-.26A6.24,6.24,0,0,1,487.11,224.79Z" style="fill:#e0e0e0"></path><path d="M497.11,224.79a6,6,0,0,1-2.49.26,6.14,6.14,0,0,1-2.51-.26,6.35,6.35,0,0,1,2.51-.26A6.24,6.24,0,0,1,497.11,224.79Z" style="fill:#e0e0e0"></path><path d="M507.11,224.79a6,6,0,0,1-2.49.26,6.14,6.14,0,0,1-2.51-.26,6.35,6.35,0,0,1,2.51-.26A6.24,6.24,0,0,1,507.11,224.79Z" style="fill:#e0e0e0"></path><path d="M517.11,224.79a6,6,0,0,1-2.49.26,6.14,6.14,0,0,1-2.51-.26,6.35,6.35,0,0,1,2.51-.26A6.24,6.24,0,0,1,517.11,224.79Z" style="fill:#e0e0e0"></path><path d="M527.11,224.79a6,6,0,0,1-2.49.26,6.14,6.14,0,0,1-2.51-.26,6.35,6.35,0,0,1,2.51-.26A6.24,6.24,0,0,1,527.11,224.79Z" style="fill:#e0e0e0"></path><path d="M537.11,224.79a6,6,0,0,1-2.49.26,6.14,6.14,0,0,1-2.51-.26,6.35,6.35,0,0,1,2.51-.26A6.24,6.24,0,0,1,537.11,224.79Z" style="fill:#e0e0e0"></path><path d="M542.07,229.84a12.15,12.15,0,0,1,0-5,12.15,12.15,0,0,1,0,5Z" style="fill:#e0e0e0"></path><path d="M542.07,239.84a12.15,12.15,0,0,1,0-5,12.15,12.15,0,0,1,0,5Z" style="fill:#e0e0e0"></path><path d="M542.07,249.84a12.15,12.15,0,0,1,0-5,12.15,12.15,0,0,1,0,5Z" style="fill:#e0e0e0"></path><path d="M542.07,259.84a12.15,12.15,0,0,1,0-5,12.15,12.15,0,0,1,0,5Z" style="fill:#e0e0e0"></path><path d="M542.07,269.84a12.15,12.15,0,0,1,0-5,12.15,12.15,0,0,1,0,5Z" style="fill:#e0e0e0"></path><path d="M542.07,279.84a12.15,12.15,0,0,1,0-5,12.15,12.15,0,0,1,0,5Z" style="fill:#e0e0e0"></path><path d="M542.07,289.84a12.15,12.15,0,0,1,0-5,12.15,12.15,0,0,1,0,5Z" style="fill:#e0e0e0"></path><rect x="235.3" y="221.74" width="314.33" height="66.06" style="fill:#E0371F"></rect><rect x="345.2" y="248.73" width="94.54" height="9.75" style="fill:#fff"></rect><path d="M439.76,258.5H345.17v-9.8h94.59Zm-94.54-.05h94.49v-9.7H345.22Z" style="fill:#263238"></path><path d="M471.22,267.14c0,.14-35.26.26-78.75.26s-78.76-.12-78.76-.26,35.26-.26,78.76-.26S471.22,267,471.22,267.14Z" style="fill:#fafafa"></path><path d="M289.86,287.3a3.69,3.69,0,0,0,1.18-.57,7.86,7.86,0,0,0,1.24-1,6.45,6.45,0,0,0,1.29-1.74,2.71,2.71,0,0,0,.28-1.28,4.84,4.84,0,0,0-.39-1.39,14.34,14.34,0,0,1-.54-1.44,4,4,0,0,1-.11-1.63,12,12,0,0,0,.27-3.71,11.06,11.06,0,0,0-1.86-3.73,8.82,8.82,0,0,1-1.77-4.1c-.16-1.56.23-3.22,0-5s-1.21-3.31-1.86-5a6.87,6.87,0,0,1-.54-2.66c0-.92.15-1.87.15-2.85a18.48,18.48,0,0,0-1.31-5.79c-.32-.95-.64-1.92-1-2.9a14.72,14.72,0,0,1-.79-3,27.18,27.18,0,0,1-.2-3.15,10,10,0,0,0-.14-1.62,14.88,14.88,0,0,0-.54-1.55,19.79,19.79,0,0,0-1.49-2.94c-.58-.94-1.21-1.85-1.78-2.8l-.1-.16-.11-.19-.14.17a7.41,7.41,0,0,0-1.42,3,11.8,11.8,0,0,0-.22,3.29,35.64,35.64,0,0,0,1.26,6.28,16.85,16.85,0,0,1,.63,6c-.12,1-.37,2-.53,2.94a6.83,6.83,0,0,0,.06,3c.59,1.95,2.33,3.09,2.87,4.8a6.21,6.21,0,0,1,.24,2.6c-.08.87-.24,1.73-.38,2.57a14.46,14.46,0,0,0-.25,2.53,6.88,6.88,0,0,0,.47,2.4c.56,1.51,1.41,2.8,1.9,4.15a10.61,10.61,0,0,1,.57,4c0,1.3-.18,2.53-.23,3.68a15.88,15.88,0,0,0,0,1.68,8.12,8.12,0,0,0,.25,1.54,9.62,9.62,0,0,0,1.1,2.48,6.91,6.91,0,0,0,2.69,2.58,3,3,0,0,0,.52.21,1.46,1.46,0,0,0,.39.11l.33.06a5.53,5.53,0,0,1-1.22-.44,6.87,6.87,0,0,1-2.6-2.58,9.27,9.27,0,0,1-1.07-2.46,7.12,7.12,0,0,1-.23-1.51,15.64,15.64,0,0,1,0-1.66c.06-1.14.21-2.37.25-3.69a10.71,10.71,0,0,0-.56-4.12c-.5-1.38-1.34-2.67-1.88-4.15a6.52,6.52,0,0,1-.44-2.33,13.29,13.29,0,0,1,.25-2.48c.14-.84.31-1.69.39-2.58a6.48,6.48,0,0,0-.25-2.72c-.58-1.81-2.33-3-2.85-4.79a6.42,6.42,0,0,1,0-2.83c.15-1,.4-1.93.53-2.94a17.19,17.19,0,0,0-.63-6.15,34.78,34.78,0,0,1-1.24-6.22,11.12,11.12,0,0,1,.21-3.2,7.08,7.08,0,0,1,1.36-2.91h-.25l.1.16c.57,1,1.21,1.87,1.78,2.8a20.13,20.13,0,0,1,1.47,2.89c.19.5.39,1,.53,1.5a10.18,10.18,0,0,1,.13,1.57,28,28,0,0,0,.2,3.18,15,15,0,0,0,.81,3l1,2.91a18.05,18.05,0,0,1,1.31,5.69c0,1-.15,1.9-.15,2.85a7.27,7.27,0,0,0,.57,2.75c.67,1.71,1.63,3.24,1.86,4.93s-.15,3.33,0,4.94a9,9,0,0,0,1.82,4.2,10.65,10.65,0,0,1,1.84,3.65,11.59,11.59,0,0,1-.24,3.65,4.32,4.32,0,0,0,.13,1.69,13.06,13.06,0,0,0,.56,1.46,5,5,0,0,1,.39,1.34,2.65,2.65,0,0,1-.25,1.22,6.61,6.61,0,0,1-1.26,1.73,8.05,8.05,0,0,1-1.21,1,6.79,6.79,0,0,1-.84.49Z" style="fill:#fff"></path><path d="M280.1,230.15a.69.69,0,0,0,0,.15l.09.44c.07.38.2.94.33,1.65s.07,1.62.15,2.67a32.09,32.09,0,0,0,.38,3.54c.2,1.3.49,2.71.82,4.22a18.1,18.1,0,0,1,.56,4.86c0,.86-.11,1.75-.07,2.67a11.57,11.57,0,0,0,.52,2.77,53,53,0,0,1,1.47,5.65c.77,3.94,1.49,7.69,2.15,11.1s1.22,6.49,1.7,9.08l1.17,6.12.33,1.66.1.43c0,.09,0,.14,0,.14s0-.05,0-.15l-.07-.43c-.06-.41-.16-1-.27-1.67-.26-1.48-.63-3.57-1.08-6.14s-1-5.67-1.63-9.09-1.37-7.17-2.13-11.11a52.94,52.94,0,0,0-1.48-5.68,10.64,10.64,0,0,1-.51-2.69c-.05-.9,0-1.78.05-2.65a17.94,17.94,0,0,0-.59-4.92c-.34-1.51-.65-2.91-.86-4.21a34.85,34.85,0,0,1-.42-3.51c-.1-1-.05-1.94-.2-2.68s-.3-1.27-.39-1.65l-.12-.42C280.13,230.2,280.11,230.15,280.1,230.15Z" style="fill:#fff"></path><path d="M290.57,286.84a4.62,4.62,0,0,1-1.52.59,9.13,9.13,0,0,1-4.67-.05,3.36,3.36,0,0,1-1.4-.86,6.35,6.35,0,0,1-.92-1.54,17,17,0,0,0-.84-1.72,5.33,5.33,0,0,0-1.37-1.48c-1.1-.88-2.62-1.52-3.59-2.94a13.38,13.38,0,0,1-1.78-4.89,11,11,0,0,0-2.2-5.08c-1.27-1.47-3.1-2.54-4.48-4.25s-1.95-3.95-2.91-6a8.61,8.61,0,0,0-1.94-2.74c-.83-.78-1.81-1.45-2.71-2.29-1.8-1.7-2.91-4-4.1-6.17-.59-1.11-1.19-2.22-1.8-3.35a18.4,18.4,0,0,0-2-3.25,35.75,35.75,0,0,0-2.67-2.87,10.13,10.13,0,0,1-1.35-1.54,18.38,18.38,0,0,1-.93-1.82,22.91,22.91,0,0,1-1.37-3.88c-.36-1.33-.64-2.68-1-4l-.05-.16-.1-.36.37,0a11.25,11.25,0,0,1,7.17,4,44.79,44.79,0,0,1,4.59,6.52,21,21,0,0,0,4.91,5.72c1,.73,2.08,1.33,3.1,2a8.36,8.36,0,0,1,2.63,2.63c1.24,2.23.77,4.78,1.88,6.7a7.87,7.87,0,0,0,2.14,2.42c.85.67,1.77,1.25,2.65,1.84a17.12,17.12,0,0,1,2.49,2,8.81,8.81,0,0,1,1.77,2.51c.86,1.82,1.3,3.68,2.11,5.27a13.11,13.11,0,0,0,3.18,3.95c1.21,1.08,2.44,2,3.53,3a11.24,11.24,0,0,1,2.69,3,12.39,12.39,0,0,1,1.27,3.14,8.56,8.56,0,0,1,0,4.64,4.44,4.44,0,0,1-.49,1.11,3,3,0,0,1-.23.35,8.81,8.81,0,0,0,.62-1.49,8.66,8.66,0,0,0-.12-4.56,11.8,11.8,0,0,0-1.3-3.06,10.93,10.93,0,0,0-2.66-2.91c-1.09-.93-2.33-1.84-3.56-2.93a13.56,13.56,0,0,1-3.29-4c-.84-1.64-1.29-3.51-2.14-5.26a10.54,10.54,0,0,0-4.14-4.3c-.88-.59-1.8-1.17-2.68-1.86a8.33,8.33,0,0,1-2.28-2.54c-1.18-2.11-.72-4.68-1.89-6.68a7.77,7.77,0,0,0-2.48-2.46c-1-.69-2.09-1.29-3.12-2a21.24,21.24,0,0,1-5-5.85,44,44,0,0,0-4.54-6.44,10.75,10.75,0,0,0-6.83-3.79l.27-.34.05.17c.38,1.35.66,2.7,1,4a23.33,23.33,0,0,0,1.34,3.79,18.1,18.1,0,0,0,.89,1.76,10.22,10.22,0,0,0,1.28,1.46,35.49,35.49,0,0,1,2.71,2.91,18.72,18.72,0,0,1,2.06,3.33c.61,1.13,1.2,2.25,1.8,3.35a22.76,22.76,0,0,0,4,6.06c.86.81,1.84,1.48,2.71,2.3a9.17,9.17,0,0,1,2,2.88c1,2.08,1.53,4.26,2.83,5.9s3.13,2.71,4.45,4.25a11.13,11.13,0,0,1,2.25,5.26,13.3,13.3,0,0,0,1.7,4.78c.89,1.34,2.36,2,3.49,2.9a5.45,5.45,0,0,1,1.43,1.57,16.4,16.4,0,0,1,.84,1.76,5.82,5.82,0,0,0,.86,1.49,3.09,3.09,0,0,0,1.3.81,9.12,9.12,0,0,0,4.58.14A8.54,8.54,0,0,0,290.57,286.84Z" style="fill:#fafafa"></path><path d="M247.34,229.14l.09.16.29.47c.27.4.63,1,1.16,1.76s1.39,1.49,2.25,2.46,1.83,2.09,2.81,3.39,2,2.78,3.07,4.37a22,22,0,0,0,3.93,4.73c.81.72,1.67,1.42,2.45,2.23a13.66,13.66,0,0,1,2,2.77,69,69,0,0,0,3.85,6.19l8.21,11.43,6.8,9.26,4.61,6.22,1.26,1.68.34.44.12.14s0-.06-.1-.16l-.31-.45-1.22-1.72-4.52-6.28-6.75-9.3-8.19-11.43a68.6,68.6,0,0,1-3.84-6.17,14.1,14.1,0,0,0-2-2.82c-.8-.83-1.67-1.53-2.47-2.24a22.16,22.16,0,0,1-3.91-4.66c-1.08-1.59-2.1-3.07-3.1-4.36a43.56,43.56,0,0,0-2.86-3.37c-.88-1-1.74-1.69-2.29-2.42s-.92-1.33-1.19-1.73l-.32-.44A.63.63,0,0,0,247.34,229.14Z" style="fill:#fff"></path><path d="M281.29,287.8a5.69,5.69,0,0,1-.19-.69,5.58,5.58,0,0,0-.8-1.84,6.83,6.83,0,0,0-2.46-2,25.11,25.11,0,0,1-3.79-2.06,17,17,0,0,1-1.89-1.67c-.31-.32-.62-.61-.93-1a6.19,6.19,0,0,1-.78-1.2c-.86-1.73-1-3.81-2.09-5.55a11.82,11.82,0,0,0-4.9-4.09c-2-1.06-4.23-1.94-6.33-3.24a13.75,13.75,0,0,1-2.83-2.31,12.59,12.59,0,0,1-2-3,45.44,45.44,0,0,1-2.17-6.27,21.78,21.78,0,0,0-2.32-5.43,14.82,14.82,0,0,0-3.46-3.76,15.69,15.69,0,0,0-6.74-3c-1.74-.32-2.74-.25-2.74-.31a3.13,3.13,0,0,1,.72,0,6.92,6.92,0,0,1,.87,0,9.61,9.61,0,0,1,1.18.13,15.55,15.55,0,0,1,10.54,6.76,22.41,22.41,0,0,1,2.41,5.51,48.27,48.27,0,0,0,2.17,6.2,12,12,0,0,0,1.87,2.84,13.45,13.45,0,0,0,2.73,2.22c2,1.26,4.25,2.15,6.29,3.23a12.26,12.26,0,0,1,5.07,4.29c1.15,1.88,1.26,4,2.07,5.61a7.3,7.3,0,0,0,1.61,2.08,17.31,17.31,0,0,0,1.82,1.66A27.73,27.73,0,0,0,278,283a6.67,6.67,0,0,1,2.48,2.13,5.33,5.33,0,0,1,.75,1.93c0,.23.06.41.07.53S281.3,287.8,281.29,287.8Z" style="fill:#263238"></path><path d="M275.09,287.8s-.16-.06-.44-.21l-1.2-.69c-1-.6-2.51-1.52-4.31-2.7a138.06,138.06,0,0,1-13.41-10.07,145.17,145.17,0,0,1-12.1-11.62c-1.45-1.58-2.6-2.88-3.37-3.8l-.88-1.07c-.2-.25-.3-.38-.28-.39s.13.1.36.32l.95,1c.81.88,2,2.14,3.49,3.68,3,3.09,7.2,7.24,12.17,11.48a166.31,166.31,0,0,0,13.28,10.17c1.76,1.21,3.21,2.17,4.21,2.83l1.15.77A2.18,2.18,0,0,1,275.09,287.8Z" style="fill:#263238"></path><path d="M300.43,249s.22-.14.67-.13a2.61,2.61,0,0,1,1.7.72,2.64,2.64,0,0,1,.72,1.1,2.36,2.36,0,0,1,0,1.53,2.83,2.83,0,0,1-2.72,1.94,2.79,2.79,0,0,1-2.45-2.26,2.29,2.29,0,0,1,.2-1.52,2.68,2.68,0,0,1,.9-1,2.6,2.6,0,0,1,1.8-.41c.44.08.64.24.62.26s-.23,0-.64-.06a2.59,2.59,0,0,0-1.57.52,2,2,0,0,0-.84,2.09,2.34,2.34,0,0,0,2,1.84,2.38,2.38,0,0,0,2.23-1.57,2.12,2.12,0,0,0-.52-2.22,2.66,2.66,0,0,0-1.46-.78C300.68,249,300.44,249.05,300.43,249Z" style="fill:#fafafa"></path><path d="M299.17,270.51c0-.05.25-.22.61,0a.81.81,0,1,1-1.2,1.08.81.81,0,0,1-.05-.75c.19-.4.53-.39.52-.33s-.14.19-.16.44.12.54.46.45.34-.4.18-.62S299.18,270.59,299.17,270.51Z" style="fill:#fafafa"></path><path d="M270.57,237.14c0,.08-.19.18-.26.47a.46.46,0,0,0,.48.64.46.46,0,0,0,.38-.7c-.12-.28-.34-.35-.33-.43s.33-.14.64.23a.9.9,0,0,1,.17.8.92.92,0,0,1-.82.62.93.93,0,0,1-.91-.49.92.92,0,0,1,.05-.82C270.22,237.05,270.57,237.08,270.57,237.14Z" style="fill:#fafafa"></path><path d="M480.06,230.77a2,2,0,0,0-.81.75,4.27,4.27,0,0,0-.25,3.16,26,26,0,0,0,1.91,4.91c.88,1.88,1.92,4,3.27,6.32l0,0h0a2.11,2.11,0,0,1,.08.75,1,1,0,0,1-.38.73,2.73,2.73,0,0,1-1.52.21,12,12,0,0,0-1.47,0,1.84,1.84,0,0,0-1.27.52,1.71,1.71,0,0,0-.27,1.37,3.07,3.07,0,0,0,.75,1.33,15.73,15.73,0,0,0,2.68,2c1,.67,1.95,1.34,3,2L487.3,256l.78.54a1.35,1.35,0,0,1,.68.86.62.62,0,0,1-.3.62,1.38,1.38,0,0,1-.54.18l-1,.14a15.86,15.86,0,0,0-1.92.37,6.21,6.21,0,0,0-1.78.74,1.55,1.55,0,0,0-.81,1.49,3.13,3.13,0,0,0,1,1.64A10.72,10.72,0,0,0,485,263.9a27.22,27.22,0,0,0,3.75,2.1,4.83,4.83,0,0,1,1,.54.9.9,0,0,1,.37.62.6.6,0,0,1,0,.19.44.44,0,0,1-.06.23.64.64,0,0,1-.38.25,14.14,14.14,0,0,1-2.29.17,12.36,12.36,0,0,0-2.21.24c-.69.16-1.45.48-1.56,1.09a2.3,2.3,0,0,0,.88,1.8,9.63,9.63,0,0,0,1.8,1.4,19.86,19.86,0,0,0,4.27,1.93,33.22,33.22,0,0,0,4.67,1.17c.79.17,1.61.21,2.42.31l2.46.25h0l-.24.11,1.48-2a20.79,20.79,0,0,0,1.42-2,33.94,33.94,0,0,0,2.29-4.23,19.7,19.7,0,0,0,1.45-4.46,9.81,9.81,0,0,0,.19-2.28,2.29,2.29,0,0,0-.74-1.86c-.53-.33-1.27,0-1.85.42a11.57,11.57,0,0,0-1.67,1.47,13.25,13.25,0,0,1-1.67,1.57.58.58,0,0,1-.45.11.57.57,0,0,1-.21-.1l-.14-.13a1,1,0,0,1-.21-.7,5.52,5.52,0,0,1,.3-1.12,26.3,26.3,0,0,0,1-4.18,11,11,0,0,0,.11-2.06,3.22,3.22,0,0,0-.57-1.82,1.53,1.53,0,0,0-1.65-.4,6.06,6.06,0,0,0-1.75.82,17.51,17.51,0,0,0-1.56,1.16l-.76.62a1.49,1.49,0,0,1-.5.28.62.62,0,0,1-.65-.2,1.28,1.28,0,0,1-.18-1.08l.13-.94c.09-.62.17-1.24.26-1.85.17-1.21.33-2.4.5-3.56a15.75,15.75,0,0,0,.29-3.36,3.07,3.07,0,0,0-.47-1.45,1.72,1.72,0,0,0-1.19-.72,1.86,1.86,0,0,0-1.25.59,11.39,11.39,0,0,0-1,1.07c-.34.35-.59.81-1.18,1a1,1,0,0,1-.79-.21,2.17,2.17,0,0,1-.49-.56v0a70.22,70.22,0,0,0-2.46-6.67,26.65,26.65,0,0,0-2.31-4.72,4.4,4.4,0,0,0-2.47-2,1.84,1.84,0,0,0-1.1.08.62.62,0,0,1,.26-.13,1.88,1.88,0,0,1,.85,0,4.38,4.38,0,0,1,2.59,2,26.09,26.09,0,0,1,2.41,4.73,67.84,67.84,0,0,1,2.53,6.67v0c.21.34.59.69.95.61s.67-.53,1-.88a10.59,10.59,0,0,1,1-1.11,2.2,2.2,0,0,1,1.49-.69,2.07,2.07,0,0,1,1.48.87,3.41,3.41,0,0,1,.55,1.63,16.07,16.07,0,0,1-.28,3.45c-.16,1.16-.32,2.35-.48,3.56-.08.61-.16,1.22-.25,1.84l-.13.94a1.56,1.56,0,0,0,0,.42.62.62,0,0,0,.11.33c.08.14.3.06.55-.14l.74-.62A17.71,17.71,0,0,1,497,253a6.38,6.38,0,0,1,1.88-.89,2,2,0,0,1,2.11.55,3.58,3.58,0,0,1,.69,2.09,12,12,0,0,1-.1,2.16,26.8,26.8,0,0,1-1,4.26,5.57,5.57,0,0,0-.27,1,.43.43,0,0,0,.09.34l.07.06,0,0h0s.07-.11-.06.11l0,0s0,0,0,0v-.06h0s0,0,.08-.05a15.58,15.58,0,0,0,1.58-1.5,12.84,12.84,0,0,1,1.73-1.54,4,4,0,0,1,1.09-.55,1.6,1.6,0,0,1,1.31.12,1.84,1.84,0,0,1,.78,1.05,5.1,5.1,0,0,1,.2,1.21,9.65,9.65,0,0,1-.18,2.4,20.78,20.78,0,0,1-1.49,4.58,33.9,33.9,0,0,1-2.33,4.31,23.48,23.48,0,0,1-1.42,2l-1.49,2-.09.12-.14,0h0l-2.47-.25c-.82-.1-1.64-.14-2.45-.32a32.87,32.87,0,0,1-4.74-1.19,20.16,20.16,0,0,1-4.38-2,9.71,9.71,0,0,1-1.9-1.48,5.12,5.12,0,0,1-.75-1,1.88,1.88,0,0,1-.26-1.28,1.6,1.6,0,0,1,.8-1.05,3.93,3.93,0,0,1,1.15-.43,12.92,12.92,0,0,1,2.3-.24,16.31,16.31,0,0,0,2.17-.15l.09,0s0,0,0,0l.05,0,0,0,0,0s-.23-.06-.12,0h0v-.05a.14.14,0,0,0,0-.09.39.39,0,0,0-.19-.29,4.93,4.93,0,0,0-.92-.48,26.72,26.72,0,0,1-3.81-2.15,11.47,11.47,0,0,1-1.66-1.38A3.58,3.58,0,0,1,482,261a2,2,0,0,1,1-1.92,6.24,6.24,0,0,1,1.92-.79,15.53,15.53,0,0,1,2-.38l1-.14c.32,0,.52-.15.48-.3a.63.63,0,0,0-.16-.3,2,2,0,0,0-.34-.27l-.77-.54c-.52-.35-1-.71-1.53-1.06l-3-2a16.15,16.15,0,0,1-2.73-2.13,3.21,3.21,0,0,1-.83-1.51,2.08,2.08,0,0,1,.35-1.67,2.21,2.21,0,0,1,1.51-.64,11.19,11.19,0,0,1,1.53,0,2.58,2.58,0,0,0,1.31-.14c.31-.21.3-.72.19-1.11l0,0a66.27,66.27,0,0,1-3.23-6.38,25.12,25.12,0,0,1-1.86-5,4.27,4.27,0,0,1,.35-3.24,1.72,1.72,0,0,1,.61-.59C480,230.78,480.06,230.76,480.06,230.77Z" style="fill:#fafafa"></path><path d="M482.33,235.91a.69.69,0,0,1,.05.1l.14.31c.13.27.3.67.53,1.17l1.9,4.35c1.63,3.67,3.88,8.72,6.35,14.31s4.73,10.65,6.31,14.33c.79,1.83,1.42,3.32,1.86,4.36.22.51.38.91.5,1.19l.12.31,0,.11-.05-.1-.14-.3-.52-1.18-1.91-4.35c-1.61-3.67-3.86-8.72-6.35-14.31s-4.73-10.65-6.31-14.33L483,237.52c-.21-.51-.38-.91-.5-1.19l-.12-.31A.82.82,0,0,1,482.33,235.91Z" style="fill:#fafafa"></path><path d="M491.86,245.18a11.18,11.18,0,0,1-.29,1.08c-.2.7-.46,1.6-.75,2.59s-.56,1.93-.78,2.59c-.11.33-.2.59-.27.77a1.18,1.18,0,0,1-.13.28s.11-.42.29-1.08l.74-2.6c.29-1,.57-1.93.79-2.59.11-.32.21-.59.28-.77S491.85,245.17,491.86,245.18Z" style="fill:#fafafa"></path><path d="M489.26,252.54c0,.05-1.9-.55-4.2-1.33s-4.16-1.45-4.15-1.5,1.9.56,4.2,1.34S489.27,252.5,489.26,252.54Z" style="fill:#fafafa"></path><path d="M494.12,262.19l-.31,0H493c-.7,0-1.68,0-2.76-.13s-2-.23-2.74-.34l-.82-.15a1.1,1.1,0,0,1-.3-.08,9.54,9.54,0,0,1,1.14.12c.7.08,1.67.2,2.74.29s2,.14,2.75.17S494.12,262.17,494.12,262.19Z" style="fill:#fafafa"></path><path d="M497.94,256a6.83,6.83,0,0,1-.52.92c-.34.56-.82,1.32-1.36,2.16s-1,1.6-1.39,2.14a6.48,6.48,0,0,1-.62.86,8.48,8.48,0,0,1,.52-.92c.34-.56.82-1.33,1.36-2.17s1-1.59,1.39-2.13A7.84,7.84,0,0,1,497.94,256Z" style="fill:#fafafa"></path><path d="M503.31,264a1.33,1.33,0,0,1-.17.32l-.52.84c-.45.71-1.07,1.68-1.77,2.75s-1.34,2-1.81,2.73l-.56.81a1.81,1.81,0,0,1-.22.29,1.33,1.33,0,0,1,.17-.32l.52-.85c.44-.7,1.07-1.68,1.77-2.75s1.33-2,1.8-2.72l.56-.81A1.57,1.57,0,0,1,503.31,264Z" style="fill:#fafafa"></path><path d="M498.33,271.53h-.39l-1.07,0c-.89-.05-2.13-.13-3.49-.29s-2.58-.34-3.46-.49l-1.05-.2a1.81,1.81,0,0,1-.38-.1,2.63,2.63,0,0,1,.39,0l1.05.15c.89.12,2.11.29,3.47.44s2.59.26,3.48.34l1.06.09A1.83,1.83,0,0,1,498.33,271.53Z" style="fill:#fafafa"></path><path d="M539.55,273.62l1.63-1.44,3.2-2.84,5.3-4.69v-.54L544.11,269l-3.22,2.84-1.63,1.44a2.83,2.83,0,0,0-1.21,2,1.14,1.14,0,0,0,.69,1.07,2.89,2.89,0,0,0,1.17.22l2.25.05a42.73,42.73,0,0,1,4.51.32,18.38,18.38,0,0,1,3,.66v-.47a17.83,17.83,0,0,0-2.95-.63,39.13,39.13,0,0,0-4.56-.32l-2.24-.05c-.71,0-1.49-.21-1.45-.85a1.89,1.89,0,0,1,.34-.9A4.24,4.24,0,0,1,539.55,273.62Z" style="fill:#263238"></path><path d="M497.46,287.63a10.12,10.12,0,0,1,.13-1.09,3.38,3.38,0,0,1,1.17-2.13,2.82,2.82,0,0,1,2.32-.46,8.11,8.11,0,0,1,2.39.88,27.66,27.66,0,0,1,4.09,2.8h.8l-.33-.25a28.24,28.24,0,0,0-4.33-3,8.78,8.78,0,0,0-2.54-.93,3.35,3.35,0,0,0-2.71.56,3.88,3.88,0,0,0-1.36,2.43,9.43,9.43,0,0,0-.14,1.19Z" style="fill:#263238"></path><path d="M545.22,247.84h0a4.63,4.63,0,0,0,0,1.66,2.1,2.1,0,0,0,1,1.41,3.09,3.09,0,0,0,1.71.24c.56,0,1.12-.13,1.68-.21l.09,0v-.34l-.14,0c-.56.09-1.11.17-1.66.22a2.75,2.75,0,0,1-1.52-.2c-.89-.51-1-1.75-.83-2.71,1.67-3.86,3-7.52,4.15-10.91v-.82c-1.22,3.59-2.64,7.5-4.45,11.63Z" style="fill:#263238"></path><path d="M538.45,228.58a163.35,163.35,0,0,0-3.9,15.95c-.42.87-1.18,1.86-2.2,1.78a2.68,2.68,0,0,1-1.38-.68c-.42-.34-.84-.72-1.25-1.1a27.92,27.92,0,0,0-2.66-2.25,7.33,7.33,0,0,0-1.58-.87,3.42,3.42,0,0,0-1.85-.23,4.51,4.51,0,0,0-3,2.27,7.5,7.5,0,0,0-.78,3.76c0,2.62,1,5.14,1.6,7.75s1.38,5.27,2.09,8l1.09,4.14c.18.7.36,1.4.55,2.1a4.41,4.41,0,0,1,.19,1,1.78,1.78,0,0,1-.23.93c-.32.55-1.1.3-1.68-.11l-1.88-1.2a38.6,38.6,0,0,0-4-2.28,14.77,14.77,0,0,0-4.45-1.48,5.29,5.29,0,0,0-2.43.2,3.72,3.72,0,0,0-1.95,1.52,8,8,0,0,0-.94,4.77,25.11,25.11,0,0,0,.83,4.85,60.57,60.57,0,0,0,3.41,9.4c.11.27.24.53.36.79H513c-.15-.33-.32-.65-.45-1a61.45,61.45,0,0,1-3.4-9.32,24.62,24.62,0,0,1-.82-4.75,7.51,7.51,0,0,1,.86-4.49,3.83,3.83,0,0,1,3.93-1.53,14.32,14.32,0,0,1,4.31,1.44,38.76,38.76,0,0,1,3.93,2.24l1.9,1.21a2.91,2.91,0,0,0,1.09.47,1.13,1.13,0,0,0,1.18-.5,2.81,2.81,0,0,0,.08-2.3c-.18-.71-.37-1.41-.55-2.11-.37-1.39-.73-2.78-1.09-4.14-.73-2.73-1.43-5.4-2.12-8s-1.56-5.11-1.59-7.65a7.07,7.07,0,0,1,.71-3.57,4.17,4.17,0,0,1,2.69-2.09,4.51,4.51,0,0,1,3.17,1,25.41,25.41,0,0,1,2.63,2.21c.42.38.84.76,1.28,1.11a3,3,0,0,0,1.55.75,2.07,2.07,0,0,0,1.59-.64,4.87,4.87,0,0,0,.94-1.36h0v0a161.06,161.06,0,0,1,3.83-15.95c.75-2.59,1.44-5,2.19-7.08h-.22C539.91,223.67,539.21,226,538.45,228.58Z" style="fill:#263238"></path><path d="M527.78,287.63c1.38-4.56,2.84-9.41,4.35-14.44.91-3.05,1.81-6,2.67-8.9l.55-.27c.39-.21.95-.53,1.64-.94,1.36-.82,3.21-2,5.24-3.35l5.2-3.4a22,22,0,0,0,2.13-1.45,2.1,2.1,0,0,0-.63.29c-.4.21-.95.53-1.64.93-1.37.81-3.24,2-5.27,3.32l-5.17,3.44c-1,.68-1.76,1.15-2,1.35,3-9.87,5.62-18.69,7.68-25.52l3.19-10.44c.36-1.22.65-2.18.85-2.85.09-.31.16-.55.22-.74l.06-.26a1.1,1.1,0,0,0-.1.25c-.06.18-.14.42-.25.73-.22.67-.53,1.61-.92,2.82-.79,2.48-1.91,6-3.3,10.41-2.76,8.8-6.46,21-10.49,34.47l-4.29,14.34c-.33-.32-.8-.77-1.39-1.32-1.17-1.11-2.8-2.66-4.53-4.43s-3.25-3.41-4.34-4.61a21.7,21.7,0,0,0-1.81-1.91,2.63,2.63,0,0,0,.4.58c.27.36.68.88,1.21,1.5,1,1.25,2.54,2.93,4.28,4.7s3.39,3.3,4.62,4.37c.61.53,1.12,1,1.47,1.24l0,0,0,.06Z" style="fill:#263238"></path><path d="M534,263.83c.09-.05-2.15-4-5-8.82s-5.23-8.69-5.32-8.64,2.15,4,5,8.82S533.87,263.88,534,263.83Z" style="fill:#263238"></path><path d="M541.5,283.53c-1.45.4-3.44,1-5.64,1.63s-4.17,1.28-5.6,1.74c-1,.34-1.8.6-2.12.73h.36c.41-.09,1-.26,1.84-.48,1.44-.4,3.44-1,5.63-1.63s4.17-1.28,5.6-1.74a14.34,14.34,0,0,0,2.29-.83A18.05,18.05,0,0,0,541.5,283.53Z" style="fill:#263238"></path></g><g id="freepik--character-2--inject-15"><path d="M687.48,428.71l-8.68.58L677.61,413l12.7-1,.14,1c.57,4.46,2.61,22.76,1.92,25.82C691.59,442.3,687.48,428.71,687.48,428.71Z" style="fill:#E0371F"></path><g style="opacity:0.4"><path d="M689.73,435.33s1.75,4.74,2.5,4.08-.6-19.22-1.92-27.36l-.36.05,1.77,21.64S689.7,434.38,689.73,435.33Z" style="fill:#fff"></path></g><path d="M689.92,411.85a1.47,1.47,0,0,1,.05.28c0,.24.07.5.11.8.09.8.2,1.78.34,2.94.27,2.49.6,5.94.89,9.75s.46,7.26.56,9.77c0,1.16.06,2.15.09,3,0,.3,0,.56,0,.81a1.23,1.23,0,0,1,0,.28l0-.28c0-.24,0-.51,0-.81,0-.8-.09-1.79-.15-3-.14-2.5-.34-5.95-.62-9.76s-.59-7.25-.83-9.74c-.11-1.17-.2-2.15-.28-3,0-.29,0-.56-.07-.8A1.48,1.48,0,0,1,689.92,411.85Z" style="fill:#263238"></path><path d="M692,433.72a6.7,6.7,0,0,0-1.37.66,6.78,6.78,0,0,0-1.06,1.09,2.19,2.19,0,0,1,1-1.25A2.15,2.15,0,0,1,692,433.72Z" style="fill:#263238"></path><path d="M689.19,429.1s-.23.3-.59.56-.67.44-.7.4.23-.29.58-.56S689.15,429.06,689.19,429.1Z" style="fill:#263238"></path><path d="M688.39,427.84c.05,0-.11.3-.34.6s-.45.51-.49.48.11-.31.34-.6S688.35,427.8,688.39,427.84Z" style="fill:#263238"></path><path d="M686.8,427.12a2,2,0,0,1,.17.84c0,.47,0,.85,0,.85a2,2,0,0,1-.17-.84C686.73,427.5,686.74,427.12,686.8,427.12Z" style="fill:#263238"></path><path d="M685.69,426.91a1.63,1.63,0,0,1,.35.93,1.67,1.67,0,0,1-.06,1,4.6,4.6,0,0,1-.14-.95A6.43,6.43,0,0,1,685.69,426.91Z" style="fill:#263238"></path><path d="M687.81,429.76a3,3,0,0,1,.07,1,6.61,6.61,0,0,1-.17,1.13,2.64,2.64,0,0,1-.21.66.54.54,0,0,1-.31.28.41.41,0,0,1-.43-.13,1.92,1.92,0,0,1,.39-2.41,2,2,0,0,1,.67-.39.75.75,0,0,1,.28-.05,3.16,3.16,0,0,0-.85.54,1.94,1.94,0,0,0-.52.94,1.64,1.64,0,0,0,.18,1.24c.13.16.32.08.42-.12a3,3,0,0,0,.21-.6,7.87,7.87,0,0,0,.2-1.1C687.8,430.16,687.78,429.76,687.81,429.76Z" style="fill:#263238"></path><path d="M687.88,430a1,1,0,0,1-.72.18,1.81,1.81,0,0,1-.78-.23,1.06,1.06,0,0,1-.6-.83.42.42,0,0,1,.46-.36,1.29,1.29,0,0,1,.48.14,3.38,3.38,0,0,1,.67.45c.34.3.49.55.47.57s-.21-.2-.56-.46a3.59,3.59,0,0,0-.66-.39c-.23-.13-.63-.2-.66.07s.27.51.49.65a1.8,1.8,0,0,0,.7.25A3.05,3.05,0,0,0,687.88,430Z" style="fill:#263238"></path><path d="M685.49,412.51s0,.47.13,1.2a5.3,5.3,0,0,0,1.28,2.54,5.17,5.17,0,0,0,2.43,1.46c.72.2,1.19.19,1.18.23a1.14,1.14,0,0,1-.32,0,4.33,4.33,0,0,1-.89-.11,5.07,5.07,0,0,1-2.55-1.47,5,5,0,0,1-1.26-2.65,4.4,4.4,0,0,1,0-.9A1.19,1.19,0,0,1,685.49,412.51Z" style="fill:#263238"></path><path d="M678.85,414.69a27.17,27.17,0,0,1,3.33-.39,29.44,29.44,0,0,1,3.35-.19,27.17,27.17,0,0,1-3.33.39A29.53,29.53,0,0,1,678.85,414.69Z" style="fill:#263238"></path><path d="M689.17,420.12a8.81,8.81,0,0,1,.41,2.35,9.1,9.1,0,0,1,0,2.4c-.06,0-.07-1.07-.18-2.38S689.12,420.13,689.17,420.12Z" style="fill:#263238"></path><path d="M688.94,416.93s.23.07.48.16.47.14.47.19-.25.11-.54,0S688.9,417,688.94,416.93Z" style="fill:#263238"></path><path d="M687.35,415.84s.22.05.4.21.3.31.27.35-.22,0-.4-.2S687.32,415.88,687.35,415.84Z" style="fill:#263238"></path><path d="M686.54,414.17c.06,0,.07.23.18.46s.24.39.2.44-.26-.07-.39-.36S686.49,414.16,686.54,414.17Z" style="fill:#263238"></path><path d="M686.13,413s.14.07.2.2.08.25,0,.28-.14-.07-.2-.2S686.08,413,686.13,413Z" style="fill:#263238"></path><g style="opacity:0.30000000000000004"><polygon points="685.06 412.56 685.98 428.82 684.02 428.94 684.02 412.51 685.06 412.56"></polygon></g><path d="M615.48,369.54s-9.71,59.88,3.62,61.75,66-.56,66-.56l-.72-20.06-45.9-3.34,3.71-37.14Z" style="fill:#263238"></path><path d="M648.31,427.16l-8.68.57-1.19-16.26,12.7-1,.14,1c.57,4.47,2.61,22.76,1.92,25.83C652.42,440.75,648.31,427.16,648.31,427.16Z" style="fill:#E0371F"></path><g style="opacity:0.4"><path d="M650.56,433.78s1.75,4.74,2.5,4.08-.6-19.23-1.92-27.36l-.36.05,1.77,21.64S650.53,432.83,650.56,433.78Z" style="fill:#fff"></path></g><path d="M650.75,410.29a1.75,1.75,0,0,1,0,.28c0,.24.07.5.11.8.09.8.2,1.79.34,2.95.27,2.49.6,5.93.89,9.74s.46,7.27.56,9.77c0,1.17.06,2.16.09,3,0,.3,0,.57,0,.81a1.16,1.16,0,0,1,0,.28l0-.28c0-.24,0-.5,0-.8,0-.81-.09-1.8-.15-3-.14-2.5-.34-5.95-.62-9.76s-.59-7.26-.83-9.75c-.11-1.16-.2-2.15-.28-2.95,0-.3-.05-.56-.07-.8A1.6,1.6,0,0,1,650.75,410.29Z" style="fill:#263238"></path><path d="M652.8,432.17a6.34,6.34,0,0,0-1.37.65,7.28,7.28,0,0,0-1.06,1.09,2.64,2.64,0,0,1,2.43-1.74Z" style="fill:#263238"></path><path d="M650,427.55s-.23.29-.59.56-.67.44-.7.39.23-.29.58-.55S650,427.5,650,427.55Z" style="fill:#263238"></path><path d="M649.22,426.28s-.11.3-.34.6-.45.52-.49.48.11-.3.34-.6S649.18,426.25,649.22,426.28Z" style="fill:#263238"></path><path d="M647.63,425.56a2,2,0,0,1,.17.84,1.82,1.82,0,0,1,0,.86,2,2,0,0,1-.17-.84A1.82,1.82,0,0,1,647.63,425.56Z" style="fill:#263238"></path><path d="M646.52,425.36a1.54,1.54,0,0,1,.35.92,1.7,1.7,0,0,1-.06,1,5,5,0,0,1-.14-1A6.4,6.4,0,0,1,646.52,425.36Z" style="fill:#263238"></path><path d="M648.64,428.2a3.15,3.15,0,0,1,.07,1.05,6.75,6.75,0,0,1-.17,1.13,2.58,2.58,0,0,1-.21.65.59.59,0,0,1-.31.29.43.43,0,0,1-.43-.13,1.92,1.92,0,0,1,.39-2.41,1.72,1.72,0,0,1,.67-.39.55.55,0,0,1,.28-.05,2.86,2.86,0,0,0-.85.54,2,2,0,0,0-.52.93,1.63,1.63,0,0,0,.18,1.24c.13.16.32.08.42-.11a3.14,3.14,0,0,0,.21-.61,6.54,6.54,0,0,0,.2-1.09C648.63,428.6,648.61,428.2,648.64,428.2Z" style="fill:#263238"></path><path d="M648.71,428.47a1,1,0,0,1-.72.17,1.68,1.68,0,0,1-.78-.23,1,1,0,0,1-.6-.83.42.42,0,0,1,.46-.35,1,1,0,0,1,.48.14,3,3,0,0,1,.67.45,1.59,1.59,0,0,1,.47.56,6.69,6.69,0,0,1-.56-.46,3.59,3.59,0,0,0-.66-.39c-.23-.12-.63-.19-.66.07s.27.51.49.66a1.63,1.63,0,0,0,.7.24A4.76,4.76,0,0,0,648.71,428.47Z" style="fill:#263238"></path><path d="M646.32,411s0,.47.13,1.2a5.3,5.3,0,0,0,1.28,2.54,5.2,5.2,0,0,0,2.43,1.47,11.27,11.27,0,0,0,1.18.22s-.11,0-.32,0a4.41,4.41,0,0,1-.89-.11,5.14,5.14,0,0,1-2.55-1.47,5,5,0,0,1-1.26-2.66,4.28,4.28,0,0,1-.05-.89A1.35,1.35,0,0,1,646.32,411Z" style="fill:#263238"></path><path d="M639.68,413.13a31.33,31.33,0,0,1,3.33-.38,29.44,29.44,0,0,1,3.35-.19A29.73,29.73,0,0,1,643,413,28,28,0,0,1,639.68,413.13Z" style="fill:#263238"></path><path d="M650,418.56a8.94,8.94,0,0,1,.41,2.36,9,9,0,0,1,0,2.39c-.06,0-.07-1.07-.18-2.37S650,418.57,650,418.56Z" style="fill:#263238"></path><path d="M649.77,415.38c0-.05.23.07.48.16s.47.13.47.19-.25.1-.54,0S649.73,415.42,649.77,415.38Z" style="fill:#263238"></path><path d="M648.18,414.29c0-.05.22,0,.4.2s.3.32.27.36-.22-.05-.4-.21S648.15,414.33,648.18,414.29Z" style="fill:#263238"></path><path d="M647.37,412.62c.06,0,.07.22.18.45s.24.4.2.44-.26-.07-.39-.36S647.32,412.6,647.37,412.62Z" style="fill:#263238"></path><path d="M647,411.42s.14.06.2.19.08.26,0,.28-.14-.06-.2-.19S646.91,411.44,647,411.42Z" style="fill:#263238"></path><g style="opacity:0.30000000000000004"><polygon points="645.89 411.01 646.81 427.27 644.85 427.39 644.85 410.95 645.89 411.01"></polygon></g><path d="M568.23,420.09c1,10.47,18.6,11.62,33.44,11.65,20.29.05,43.05.14,43.05.14l.06-21.8-49.73,1h0s43.88-24,48.86-31.76a16.8,16.8,0,0,0,1.47-15.59l-36.93,4.93-27.74,25.25c-6.7,6.2-8.72,7.39-11.26,12.5C567.44,410.5,567.72,414.81,568.23,420.09Z" style="fill:#263238"></path><path d="M584.63,415.64a39.74,39.74,0,0,0,5.4-2.12,41.89,41.89,0,0,0,5.24-2.51,78.49,78.49,0,0,0-10.64,4.63Z" style="fill:#455a64"></path><path d="M588.08,410.29a34.52,34.52,0,0,0,7.69.25,18.66,18.66,0,0,0-3.84-.33A18.38,18.38,0,0,0,588.08,410.29Z" style="fill:#455a64"></path><path d="M642,381.51a3.42,3.42,0,0,1-.44.37l-1.33,1c-1.16.83-2.86,2-5,3.41C631,389.09,625.1,392.9,618.51,397s-12.6,7.8-17,10.41c-2.19,1.31-4,2.36-5.21,3.06-.62.35-1.1.62-1.44.79l-.12.06h-.06l0,0s0-.06,0-.06h0l0,0,.15-.09c.09-.05.14-.07.14-.06l23.18-14.49c6.59-4.13,12.54-7.89,16.83-10.64l5.07-3.27,1.38-.89C641.82,381.59,642,381.49,642,381.51Z" style="fill:#455a64"></path><path d="M644.72,431.88a1.65,1.65,0,0,1,0-.41c0-.32,0-.72-.06-1.21,0-1.11-.07-2.64-.12-4.54-.08-4-.19-9.45-.31-15.89l.25.24-13.89.35-25.42.52-7.71.09h-2.09a3.56,3.56,0,0,1-.74,0,3.81,3.81,0,0,1,.73-.07l2.1-.1,7.69-.26,25.42-.67,13.89-.31h.25v.24c.05,6.44.09,11.93.12,15.88,0,1.9,0,3.43,0,4.55,0,.49,0,.89,0,1.2A1.24,1.24,0,0,1,644.72,431.88Z" style="fill:#455a64"></path><path d="M523.61,333l-2.93.33c-2.68.07-4.18.22-5-.4-1.11-.82.14-1.92.14-1.92s-2-.42-2-1.61c0-.82.92-1,.92-1s-1.78-.45-2.2-1.12c-.58-.9.56-1.57.56-1.57-2.5-1.13-2.46-2.57-1.95-2.78a6.84,6.84,0,0,1,2.43.4c1.58.24,5.89,1,4.07-1.11s-2.44-4.4-2.18-5.14a.87.87,0,0,1,1.64.2,10.3,10.3,0,0,0,1.4,2.43,6.86,6.86,0,0,0,1.61,1.57c.73.5,1.36.9,1.91,1.22l2.91,2.18Z" style="fill:#ffbe9d"></path><rect x="517.42" y="314.52" width="74.57" height="72.15" transform="translate(-12.72 20.99) rotate(-2.14)" style="fill:#E0371F"></rect><g style="opacity:0.30000000000000004"><polygon points="524.35 381.64 543.57 343.77 561.32 366.86 571.09 353.88 587.31 379.29 524.35 381.64"></polygon></g><g style="opacity:0.30000000000000004"><path d="M567.34,335.66a5.36,5.36,0,1,1-5.56-5.16A5.36,5.36,0,0,1,567.34,335.66Z"></path></g><g style="opacity:0.30000000000000004"><path d="M587.32,379.49a1.36,1.36,0,0,1,0-.3c0-.21,0-.49,0-.84,0-.76-.09-1.84-.16-3.24-.12-2.86-.3-7-.53-12.24-.44-10.53-1-25.52-1.79-43.52l.32.29-63,2.41c-.08.07.64-.7.34-.36h0v.49l0,.51,0,1,.08,2,.15,4.07q.15,4,.3,8c.2,5.3.39,10.49.57,15.54.37,10.1.71,19.64,1,28.42l-.32-.29L569.87,380l12.84-.4,3.41-.09.89,0h.31l-.28,0-.85.05-3.34.16-12.77.56-45.71,1.86-.31,0,0-.31c-.33-8.78-.7-18.33-1.09-28.43q-.3-7.57-.59-15.53-.15-4-.31-8l-.15-4.07-.08-2.05,0-1,0-.52v-.5c-.31.33.41-.46.35-.37L585.05,319h.31v.3c.61,18.09,1.12,33.15,1.48,43.73.16,5.22.29,9.34.38,12.18,0,1.37.06,2.44.08,3.19,0,.34,0,.6,0,.81Z"></path></g><path d="M511.63,324.68a.49.49,0,0,1-.13-.68,1,1,0,0,1,.64-.4,4.79,4.79,0,0,1,3.1.64,10.85,10.85,0,0,1,2.73,1.61c.22.21.45.5.36.79a.75.75,0,0,1-.57.41,2.28,2.28,0,0,1-1.66-.23,4.45,4.45,0,0,1,2.08,1.17,1,1,0,0,1,.36.75.75.75,0,0,1-.76.57,2.18,2.18,0,0,1-1-.32,3.47,3.47,0,0,1,1.89.94.8.8,0,0,1,.3.51c0,.41-.44.68-.84.69a7.18,7.18,0,0,0-1.22-.06,2.54,2.54,0,0,1,2.12,1.08c.18.25.3.63.07.85a.73.73,0,0,1-.56.15h-.88a4,4,0,0,1-1.39-.16,1.47,1.47,0,0,1-1-.93.91.91,0,0,1,.61-1.11,2.71,2.71,0,0,1-1.52-1,1.09,1.09,0,0,1,.46-1.57c-.5-.63-1.67-.56-2-1.31a1.67,1.67,0,0,1,.44-1.49,2.5,2.5,0,0,1-1.79-1.05" style="fill:#ffbe9d"></path><path d="M513.1,325.61a7.1,7.1,0,0,0,1.41.73,14.24,14.24,0,0,0,1.63.58,9.42,9.42,0,0,0,1,.22,1.75,1.75,0,0,0,.6,0,.76.76,0,0,0,.54-.42,1,1,0,0,0-.35-1.17,4.3,4.3,0,0,0-.9-.53l-1.53-.77a6.64,6.64,0,0,0-1.46-.62,7.71,7.71,0,0,0,1.34.85l1.49.83a5.22,5.22,0,0,1,.83.5.7.7,0,0,1,.26.76c-.11.23-.46.28-.78.24s-.66-.12-1-.19c-.62-.16-1.17-.34-1.62-.5A7.7,7.7,0,0,0,513.1,325.61Z" style="fill:#eb996e"></path><path d="M514.38,328.2a3.85,3.85,0,0,0,1.08.46l1.21.41.72.24a1.4,1.4,0,0,0,.89,0,.67.67,0,0,0,.39-.37.64.64,0,0,0,0-.51,1.52,1.52,0,0,0-.54-.64,6,6,0,0,0-1.09-.69,2.66,2.66,0,0,0-1.13-.37,8.14,8.14,0,0,0,1,.6,7.45,7.45,0,0,1,1,.72,1.27,1.27,0,0,1,.42.49.33.33,0,0,1-.19.44c-.38.13-1-.15-1.39-.25l-1.22-.33A3.75,3.75,0,0,0,514.38,328.2Z" style="fill:#eb996e"></path><path d="M515.53,330.57a2.46,2.46,0,0,0,1.19.57,5.21,5.21,0,0,0,1.43.21A1.19,1.19,0,0,0,519,331a.77.77,0,0,0,.24-.51.79.79,0,0,0-.19-.54,2.31,2.31,0,0,0-.81-.52c-.26-.13-.52-.25-.77-.35-.49-.21-.94-.38-1.32-.51a4.29,4.29,0,0,0-1.27-.32,5.49,5.49,0,0,0,1.18.56l1.28.57.74.36a2.56,2.56,0,0,1,.69.44.4.4,0,0,1,0,.57.89.89,0,0,1-.64.24,6.09,6.09,0,0,1-1.36-.13C516,330.73,515.55,330.52,515.53,330.57Z" style="fill:#eb996e"></path><path d="M518.81,333.27s.08.05.22,0a.62.62,0,0,0,.36-.47,1,1,0,0,0-.26-.83,2,2,0,0,0-.84-.54,7,7,0,0,0-2.36-.7,10.39,10.39,0,0,0,2.2,1,2.22,2.22,0,0,1,.76.45.75.75,0,0,1,.25.57C519.11,333.14,518.79,333.23,518.81,333.27Z" style="fill:#eb996e"></path><path d="M584.53,318.2s14.62-14.41,27.69,3.54c8.23,11.28,25.18,28.46,31.19,36.07,1.35,1.7,3.45,4.29,2,5.89-4.51,4.87-16.79,15.78-39.52,7.64l-20.94-29.52c-3.69-5.14-1.36-11.43-.16-18.61Z" style="fill:#455a64"></path><g style="opacity:0.2"><polygon points="608.42 335.65 601.21 364.88 594.9 356.09 608.42 335.65"></polygon></g><path d="M626,373.85a8.71,8.71,0,0,1-1-1.06c-.65-.7-1.56-1.74-2.66-3-2.22-2.59-5.21-6.22-8.39-10.34S608,351.47,606,348.67c-1-1.4-1.75-2.54-2.26-3.34a8.6,8.6,0,0,1-.77-1.27,8,8,0,0,1,.93,1.15c.63.84,1.43,1.94,2.4,3.25,2,2.74,4.82,6.52,8,10.63s6.12,7.78,8.26,10.43l2.53,3.14A8,8,0,0,1,626,373.85Z" style="fill:#263238"></path><path d="M628.67,366.15a11.84,11.84,0,0,1-5.36,3,11.64,11.64,0,0,1-6.13.38,30.6,30.6,0,0,0,6-.88A32.1,32.1,0,0,0,628.67,366.15Z" style="fill:#263238"></path><path d="M629,362.37a6.4,6.4,0,0,1-1.53,1.47,19.44,19.44,0,0,1-4.41,2.57,18.9,18.9,0,0,1-4.93,1.32,6.42,6.42,0,0,1-2.11.06,27.36,27.36,0,0,0,13-5.42Z" style="fill:#263238"></path><path d="M608.79,332.58s0-.57-.22-1.57a11,11,0,0,0-1.55-3.94,10.37,10.37,0,0,0-4.7-4,10.82,10.82,0,0,0-7.51-.26,11.4,11.4,0,0,0-3.46,1.94,17.33,17.33,0,0,0-2.66,2.61,45.45,45.45,0,0,0-3.61,5.26c-1,1.55-1.73,2.81-2.31,3.65-.28.43-.52.75-.67,1a1.33,1.33,0,0,1-.27.32,11.11,11.11,0,0,1,.78-1.39l2.17-3.73a40.56,40.56,0,0,1,3.56-5.37,14.55,14.55,0,0,1,6.31-4.73,11.08,11.08,0,0,1,7.85.31,10.77,10.77,0,0,1,6.26,8.37,8.18,8.18,0,0,1,.07,1.18A1.2,1.2,0,0,1,608.79,332.58Z" style="fill:#263238"></path><path d="M596.22,314.71a12.45,12.45,0,0,1-1.55,1.93l-3.95,4.45c-1.55,1.74-2.93,3.32-3.91,4.49a15.56,15.56,0,0,1-1.63,1.85,9.43,9.43,0,0,1,1.34-2.08c.91-1.23,2.26-2.86,3.81-4.6s3-3.27,4.07-4.36A11.18,11.18,0,0,1,596.22,314.71Z" style="fill:#263238"></path><path d="M563.94,297.16a8.13,8.13,0,0,1-5.26-3.36,6.61,6.61,0,0,1-.67-6.11,5.62,5.62,0,0,1,5-3.45c1.88,0,3.81,1,5.55.27s2.67-2.66,4.42-2.61c1,0,1.82.76,2.8.94,1.25.23,2.46-.46,3.72-.68a5.12,5.12,0,0,1,4.78,1.84c1.19,1.5,1.41,3.52,1.72,5.41s.85,3.93,2.4,5.06" style="fill:#263238"></path><path d="M596.7,314.41l-12.57-27.88-1.16-.19c-7.81-1.27-11.7-2.31-16.62,3.9h0a10.7,10.7,0,0,0-1,10.41c1.79,4,4.21,9.3,5.93,12.38,3.05,5.49,9,3.37,9,3.37l6.06,9.43Z" style="fill:#ffbe9d"></path><path d="M569,303a.91.91,0,1,0-1.16.56A.91.91,0,0,0,569,303Z" style="fill:#263238"></path><path d="M566.74,302.45c.14.05.46-.66,1.22-1.08s1.52-.32,1.55-.46-.16-.19-.5-.24a2,2,0,0,0-1.31.25,2.09,2.09,0,0,0-.9,1C566.66,302.21,566.68,302.43,566.74,302.45Z" style="fill:#263238"></path><path d="M575.63,298.51a.91.91,0,1,0,1.25-.33A.92.92,0,0,0,575.63,298.51Z" style="fill:#263238"></path><path d="M575.06,298.68c.14.05.46-.66,1.22-1.08s1.52-.31,1.55-.46-.16-.19-.5-.24a2.12,2.12,0,0,0-2.21,1.23C575,298.44,575,298.66,575.06,298.68Z" style="fill:#263238"></path><path d="M575.71,306.74a4.27,4.27,0,0,0-1.37.41c-.21.08-.39.12-.47,0a1.17,1.17,0,0,1-.16-.65c-.08-.6-.15-1.22-.24-1.87a23.27,23.27,0,0,0-.89-4.77,24.62,24.62,0,0,0,.41,4.84c.09.64.18,1.26.27,1.87a1.42,1.42,0,0,0,.34.88.55.55,0,0,0,.51.13,1.63,1.63,0,0,0,.36-.13A4.19,4.19,0,0,0,575.71,306.74Z" style="fill:#263238"></path><path d="M580.3,316.32a14.64,14.64,0,0,0,6.1-5.93s.44,4.89-5.34,7.37Z" style="fill:#eb996e"></path><path d="M568.58,299.54c0,.44-.42.81-.91,1a1.27,1.27,0,0,1-1.36-.1c-.29-.32,0-1.05.78-1.36S568.58,299.11,568.58,299.54Z" style="fill:#263238"></path><path d="M576.54,295.73c-.08.43-.62.7-1.15.95s-1.1.45-1.48.22c-.18-.12-.24-.39-.11-.73a1.85,1.85,0,0,1,1-.92,1.77,1.77,0,0,1,1.32-.09C576.41,295.29,576.57,295.52,576.54,295.73Z" style="fill:#263238"></path><path d="M578.85,305c.13-.06.47,1,0,2.11s-1.47,1.59-1.52,1.46.63-.69,1-1.67S578.7,305,578.85,305Z" style="fill:#263238"></path><path d="M563.94,296.79a7.81,7.81,0,0,0,6.45-3.42c.91-1.4,1.41-3.27,2.94-3.94s3,.12,4.5.6,3.45.52,4.17-.85a13.76,13.76,0,0,0,4.5,7.5,3,3,0,0,0,1.36.76,1.2,1.2,0,0,0,1.32-.62,1.78,1.78,0,0,0-.31-1.46c-1.44-2.68-2.62-5.76-4.06-8.44a6.25,6.25,0,0,0-2.34-2.25,6.72,6.72,0,0,0-3.75-.65,31.46,31.46,0,0,0-7.57.79,10.61,10.61,0,0,0-6.21,4.14c-1.39,2.13-2.65,5.34-1.14,7.39" style="fill:#263238"></path><path d="M586,294.36c.06-.09,3.42-3,5.28.91,1.61,3.38-2.3,4.71-2.37,4.61S586,294.36,586,294.36Z" style="fill:#ffbe9d"></path><path d="M589.3,297.66s.08,0,.19,0a.62.62,0,0,0,.42-.23,1.6,1.6,0,0,0-.09-1.6,2.11,2.11,0,0,0-.62-.7.74.74,0,0,0-.66-.18.34.34,0,0,0-.24.35c0,.11.07.16.06.18s-.1,0-.15-.16a.44.44,0,0,1,0-.28.55.55,0,0,1,.26-.26.91.91,0,0,1,.87.16,2.12,2.12,0,0,1,.71.77,1.67,1.67,0,0,1,0,1.84.69.69,0,0,1-.56.21C589.35,297.73,589.29,297.67,589.3,297.66Z" style="fill:#eb996e"></path><path d="M589.25,330.05s-15,20.72-18.52,21.53-40.7,7.55-40.7,7.55l-5,.13a7.38,7.38,0,0,1-2.05-1.46,11.38,11.38,0,0,1-2-2.43,1,1,0,0,0-1.83.07c-.17.87.91,3.3,3.3,5.3s-4.54,2.51-6.32,2.52c-.4,1.58,2.65,1.71,2.61,2.65a1.59,1.59,0,0,0-1.77,1.78c0,.62,1.34.84,2.24.92a1,1,0,0,1,.94.93c0,.17,0,.36,0,.56.1,1.76,3.19,1.46,3.19,1.46s2.72-.17,3.45-.35a34.2,34.2,0,0,1,3.65-.17v.08l3.85-.13h0c11.49-.42,45-1.95,48.9-5.46,4.66-4.25,18.73-25.86,18.73-25.86Z" style="fill:#ffbe9d"></path><path d="M578.67,365.16s.1.17.4.35a2.47,2.47,0,0,0,3.27-.81,2.54,2.54,0,0,0,.13-2.64,2,2,0,0,0-1.11-.92,1.79,1.79,0,0,0-1.35.1,1.45,1.45,0,0,0-.57,2,1.2,1.2,0,0,0,1.4.42c.33-.14.41-.36.39-.36s-.14.13-.45.2a1,1,0,0,1-1.08-.42,1.12,1.12,0,0,1,.49-1.53,1.43,1.43,0,0,1,1-.06,1.68,1.68,0,0,1,.87.74,2.23,2.23,0,0,1-1.65,3.24A3.06,3.06,0,0,1,578.67,365.16Z" style="fill:#eb996e"></path><path d="M557.72,369.84s-.25-.07-.57-.41a4.08,4.08,0,0,1-.87-1.73,5.24,5.24,0,0,1,0-2.86,11.6,11.6,0,0,1,1.54-3.12,19.83,19.83,0,0,0,1.66-2.93,7.71,7.71,0,0,0,.55-2.65c0-1.56-.19-2.54-.09-2.55a1.74,1.74,0,0,1,.22.66,8.88,8.88,0,0,1,.23,1.9,7.19,7.19,0,0,1-.47,2.81,16.91,16.91,0,0,1-1.66,3,12.68,12.68,0,0,0-1.52,3,5.18,5.18,0,0,0-.13,2.65A4.87,4.87,0,0,0,557.72,369.84Z" style="fill:#263238"></path><path d="M560.59,369.58a1.71,1.71,0,0,0,0-.66,2.88,2.88,0,0,0-.73-1.63,3,3,0,0,1-.39-.53,2.61,2.61,0,0,1-.22-.72,3.89,3.89,0,0,1,.1-1.58,8.6,8.6,0,0,1,1.76-3,9.55,9.55,0,0,0,1.73-2.86,8.22,8.22,0,0,0,.48-2.68,18.75,18.75,0,0,0-.3-2.54s.16.2.31.64a7,7,0,0,1,.36,1.89,8,8,0,0,1-.4,2.85,9.28,9.28,0,0,1-1.77,3,8.82,8.82,0,0,0-1.71,2.86,2.58,2.58,0,0,0,.34,2.48,2.56,2.56,0,0,1,.53,1,3.46,3.46,0,0,1,.11.84C560.83,369.38,560.62,369.63,560.59,369.58Z" style="fill:#263238"></path><path d="M551.77,354.87s.27.08.59.44a4.06,4.06,0,0,1,.84,1.82c.2.83.21,1.84.43,2.87a3.82,3.82,0,0,0,.62,1.47c.32.42.85.71,1.27.46a4.81,4.81,0,0,0,1.1-1.31,5.38,5.38,0,0,0,.74-1.45,2.64,2.64,0,0,0,.07-1.41,7.34,7.34,0,0,0-.46-1.23c-.35-.73-.69-1.33-.85-1.77a1.61,1.61,0,0,1-.2-.7s.15.22.38.62.59.95,1,1.68a7.25,7.25,0,0,1,.54,1.28,2.93,2.93,0,0,1,0,1.66,5.57,5.57,0,0,1-.78,1.61l-.52.75a2.47,2.47,0,0,1-.75.72,1.29,1.29,0,0,1-1.13.05,2.11,2.11,0,0,1-.79-.65,4,4,0,0,1-.69-1.68c-.21-1.12-.17-2.1-.32-2.89A4.36,4.36,0,0,0,551.77,354.87Z" style="fill:#263238"></path><path d="M554.83,359.59c-.11.09-.43-.14-.53-.58s.06-.78.2-.75.22.31.3.63S555,359.5,554.83,359.59Z" style="fill:#263238"></path><path d="M559.48,369.06c-.15,0-.25-1.14-1.44-1.92a.88.88,0,0,1-.32-.62.6.6,0,0,1,.45-.6,1.71,1.71,0,0,1,.92.16c.46.21.64.47.59.52s-.29-.08-.71-.17a1.76,1.76,0,0,0-.68,0c-.08,0-.11.18.1.37a3.12,3.12,0,0,1,.73.72,2.47,2.47,0,0,1,.38.79C559.62,368.75,559.55,369.06,559.48,369.06Z" style="fill:#263238"></path><path d="M557,364c0-.08.3-.18.76-.39a5.12,5.12,0,0,0,1.59-1c.48-.48.34-1.23,0-1.33s-.64.1-.69.07,0-.12.09-.25a.8.8,0,0,1,.7-.18,1,1,0,0,1,.72.81,1.47,1.47,0,0,1-.39,1.23,3.9,3.9,0,0,1-1.87,1C557.37,364,557,364,557,364Z" style="fill:#263238"></path><path d="M561.88,360.57c0,.06-.35.15-.73-.22a1.36,1.36,0,0,1-.36-.8,1.56,1.56,0,0,1,.33-1,2.42,2.42,0,0,1,1.54-.9c.44-.09.71-.08.73,0s-.23.19-.62.36a2.86,2.86,0,0,0-1.23.86,1.07,1.07,0,0,0-.1,1.27C561.63,360.43,561.89,360.49,561.88,360.57Z" style="fill:#263238"></path><path d="M561.19,353c.07,0,.19.18.48.45a3,3,0,0,1,.5.57,1.11,1.11,0,0,1,.06,1.09.8.8,0,0,1-.53.37,1,1,0,0,1-.55-.08,1.15,1.15,0,0,1-.59-.61c-.17-.42-.16-.67-.1-.7s.2.22.42.52a.9.9,0,0,0,.44.35.39.39,0,0,0,.47-.12.7.7,0,0,0,0-.59,5.5,5.5,0,0,0-.36-.57C561.13,353.28,561.12,353,561.19,353Z" style="fill:#263238"></path><path d="M554.59,359.28c0,.05,0,.17-.1.23a.39.39,0,0,1-.5-.24.39.39,0,0,1,.23-.51c.15,0,.23,0,.22.11a1.34,1.34,0,0,0,0,.19l0,.05h-.05s.05,0,0,0a.13.13,0,0,0,0,.06C554.48,359.19,554.54,359.23,554.59,359.28Z" style="fill:#263238"></path><path d="M553.2,357.45s-.09-.08-.07-.25a.83.83,0,0,1,.42-.57,1.89,1.89,0,0,1,1-.22,1.69,1.69,0,0,0,.37-.05s0,0,0,0,0,0-.1-.11a5.29,5.29,0,0,0-2.46-1c0-.07.3-.21.85-.2a3,3,0,0,1,2,.79.65.65,0,0,1,.25.34.49.49,0,0,1-.2.53,1.38,1.38,0,0,1-.67.11,2.07,2.07,0,0,0-.79.06C553.3,357.11,553.27,357.44,553.2,357.45Z" style="fill:#263238"></path><path d="M557.12,360.07c-.07,0,0-.25-.27-.5a2.87,2.87,0,0,0-.49-.39,1.64,1.64,0,0,1-.64-.7.88.88,0,0,1,.24-1,1.21,1.21,0,0,1,.75-.3c.43,0,.66.1.66.16s-.26.11-.6.21-.75.41-.57.77.75.65,1,1.09S557.18,360.12,557.12,360.07Z" style="fill:#263238"></path><path d="M556.5,355.37c0,.06-.11.19-.39.25a1.63,1.63,0,0,1-1.07-.2c-.73-.43-1-1-.95-1.09s.61.3,1.2.63S556.44,355.24,556.5,355.37Z" style="fill:#263238"></path><path d="M577.73,368a1.8,1.8,0,0,0-.56-.66,1.93,1.93,0,0,0-.93-.33,9.56,9.56,0,0,0-1.39,0,6.79,6.79,0,0,1-3.63-.9c-1.27-.71-2.25-1.95-3.53-2.79a3.54,3.54,0,0,0-2-.62,3.64,3.64,0,0,0-1.89.66,4.59,4.59,0,0,0-1.85,2.88,7.79,7.79,0,0,0-.08,2.41,4.86,4.86,0,0,1,.09.9,2.37,2.37,0,0,1-.29-.87,6.79,6.79,0,0,1-.08-2.51,4.89,4.89,0,0,1,1.93-3.2,4.11,4.11,0,0,1,2.15-.78,4,4,0,0,1,2.34.69c1.39.92,2.34,2.15,3.49,2.82a6.63,6.63,0,0,0,3.38.94,8.33,8.33,0,0,1,1.44.05,2.15,2.15,0,0,1,1,.46C577.78,367.6,577.75,368,577.73,368Z" style="fill:#263238"></path><path d="M571.76,368.71c0,.06-.49.21-1.37.13a2.26,2.26,0,0,1-1.39-.7,5.36,5.36,0,0,0-1.21-1.17,1.33,1.33,0,0,0-1.42-.06.91.91,0,0,0-.44,1,2.4,2.4,0,0,1,0,1c-.08.25-.22.33-.24.31s0-.14,0-.35a3.16,3.16,0,0,0-.21-.91,1.52,1.52,0,0,1,0-.77,1.39,1.39,0,0,1,.55-.72,1.79,1.79,0,0,1,1.95,0,5.15,5.15,0,0,1,1.3,1.3,2,2,0,0,0,1.11.67A8.49,8.49,0,0,1,571.76,368.71Z" style="fill:#263238"></path><path d="M563,364.22a1.34,1.34,0,0,0-.12.93,1.87,1.87,0,0,0,.57.87,3.52,3.52,0,0,1,.9,1.22,1.46,1.46,0,0,1,.06.88,1,1,0,0,1-.56.67,1.39,1.39,0,0,1-1.31-.12c-.6-.42-.77-.81-.74-.85s.37.25.91.52a1,1,0,0,0,.93,0c.28-.14.37-.53.22-.95a3.68,3.68,0,0,0-.77-1.06,2.1,2.1,0,0,1-.57-1.13,1.12,1.12,0,0,1,.2-.85C562.84,364.21,563,364.19,563,364.22Z" style="fill:#263238"></path><path d="M568,366.54c-.08,0-.08-.34-.12-.84s-.26-1.2-.87-1.32-.9.59-.83,1,.14.8.06.83-.26-.23-.42-.77a1.46,1.46,0,0,1,.09-1,1.07,1.07,0,0,1,1.2-.58,1.39,1.39,0,0,1,1,.85,2.11,2.11,0,0,1,.14,1C568.2,366.24,568.07,366.54,568,366.54Z" style="fill:#263238"></path><path d="M574.36,367.33c0,.08-.29.09-.71.23a6.53,6.53,0,0,1-1.79.51,1.6,1.6,0,0,1-1.09-.39,1,1,0,0,1-.32-.92.78.78,0,0,1,.35-.54c.14-.07.23-.05.24,0s-.23.21-.22.6.41.76,1,.74,1.23-.3,1.72-.34S574.37,367.27,574.36,367.33Z" style="fill:#263238"></path><path d="M606.4,336.36l-14.27,24.48-16.44-13.62s4.81-7.87,9.65-15a10,10,0,0,1,15.26-1.54Z" style="fill:#455a64"></path><path d="M592.89,359.54a21.13,21.13,0,0,1-2.45-1.94c-1.49-1.23-3.57-2.9-5.89-4.7s-4.45-3.43-5.95-4.65a17.15,17.15,0,0,1-2.35-2.06,19.81,19.81,0,0,1,2.58,1.77c1.56,1.14,3.7,2.72,6,4.53s4.38,3.52,5.81,4.83A16.16,16.16,0,0,1,592.89,359.54Z" style="fill:#263238"></path></g><g id="freepik--character-1--inject-15"><path d="M98.06,426.63l0-7.85-14.72-.18-.18,11.49.91.07c4.06.27,20.64,1.11,23.37.32C110.53,429.6,98.06,426.63,98.06,426.63Z" style="fill:#E0371F"></path><g style="opacity:0.4"><path d="M88.54,430a5.07,5.07,0,0,0-1.84-3.16,4.9,4.9,0,0,0-3.42-1.11l-.06,4.11Z"></path></g><g style="opacity:0.4"><path d="M104.15,428.3s4.36,1.32,3.81,2-17.35.5-24.75-.24l0-.33,19.59.42S103.29,428.32,104.15,428.3Z"></path></g><path d="M83,429.75l.26,0,.72.05,2.67.15c2.26.11,5.38.22,8.83.27s6.57,0,8.83,0l2.68-.08.72,0,.26,0-.26,0H107l-2.68,0c-2.26,0-5.38,0-8.83,0s-6.56-.14-8.82-.21l-2.67-.1-.73,0Z" style="fill:#263238"></path><path d="M102.82,430.41a5.34,5.34,0,0,1,.51-1.27,6.2,6.2,0,0,1,.93-1,2,2,0,0,0-1.08.92A1.93,1.93,0,0,0,102.82,430.41Z" style="fill:#263238"></path><path d="M98.5,428.15s.26-.23.48-.56.36-.63.32-.66-.25.23-.47.56S98.46,428.12,98.5,428.15Z" style="fill:#263238"></path><path d="M97.32,427.5s.27-.11.52-.34.44-.43.41-.47-.27.12-.52.34S97.29,427.47,97.32,427.5Z" style="fill:#263238"></path><path d="M96.59,426.1a1.68,1.68,0,0,0,.76.11,1.71,1.71,0,0,0,.77-.07,1.68,1.68,0,0,0-.76-.11A1.89,1.89,0,0,0,96.59,426.1Z" style="fill:#263238"></path><path d="M96.34,425.12a1.42,1.42,0,0,0,.85.26,1.55,1.55,0,0,0,.89-.1,4.15,4.15,0,0,0-.87-.08A5.61,5.61,0,0,0,96.34,425.12Z" style="fill:#263238"></path><path d="M99,426.87a2.76,2.76,0,0,0,1,0,5.61,5.61,0,0,0,1-.21,3,3,0,0,0,.58-.23.5.5,0,0,0,.24-.29.37.37,0,0,0-.14-.38,1.73,1.73,0,0,0-2.15.48,1.69,1.69,0,0,0-.31.62.58.58,0,0,0,0,.26,2.6,2.6,0,0,1,.44-.8,1.7,1.7,0,0,1,.81-.52,1.48,1.48,0,0,1,1.13.1c.15.11.09.28-.08.38a2.7,2.7,0,0,1-.53.22,5.76,5.76,0,0,1-1,.24C99.38,426.85,99,426.84,99,426.87Z" style="fill:#263238"></path><path d="M99.26,426.92a.87.87,0,0,0,.12-.65,1.53,1.53,0,0,0-.25-.7.94.94,0,0,0-.78-.49.38.38,0,0,0-.3.43,1.1,1.1,0,0,0,.16.43,2.83,2.83,0,0,0,.44.58c.29.29.52.4.54.38s-.19-.17-.45-.47a3.51,3.51,0,0,1-.39-.57c-.12-.2-.21-.56,0-.6s.48.22.62.41a1.68,1.68,0,0,1,.26.61A3.66,3.66,0,0,1,99.26,426.92Z" style="fill:#263238"></path><path d="M83.36,425.73a10.46,10.46,0,0,1,1.08,0,4.63,4.63,0,0,1,3.82,3.12c.21.63.23,1.06.26,1.05a.81.81,0,0,0,0-.29,5,5,0,0,0-.15-.8,4.51,4.51,0,0,0-3.92-3.21,5.08,5.08,0,0,0-.81,0A.82.82,0,0,0,83.36,425.73Z" style="fill:#263238"></path><path d="M85,419.63a24.11,24.11,0,0,0-.17,3,29.7,29.7,0,0,0,0,3,24.38,24.38,0,0,0,.17-3A26.38,26.38,0,0,0,85,419.63Z" style="fill:#263238"></path><path d="M90.41,428.63a9.08,9.08,0,0,0,2.15.24,7.89,7.89,0,0,0,2.15-.15c0-.05-1,0-2.15,0S90.42,428.58,90.41,428.63Z" style="fill:#263238"></path><path d="M87.53,428.59s.07.2.17.42.15.42.2.42.08-.23,0-.49S87.56,428.55,87.53,428.59Z" style="fill:#263238"></path><path d="M86.46,427.22s.06.19.21.35.3.25.33.22,0-.19-.2-.35S86.49,427.19,86.46,427.22Z" style="fill:#263238"></path><path d="M84.91,426.58c0,.05.21.05.42.13s.37.2.41.17-.08-.24-.35-.34S84.9,426.54,84.91,426.58Z" style="fill:#263238"></path><path d="M83.81,426.28s.06.12.19.17.23.05.25,0-.07-.12-.19-.17S83.83,426.23,83.81,426.28Z" style="fill:#263238"></path><path d="M53.74,427.5l1.19-7.76L40.4,417.43l-1.85,11.34.89.2c4,.86,20.27,4.09,23.07,3.71C65.65,432.24,53.74,427.5,53.74,427.5Z" style="fill:#E0371F"></path><g style="opacity:0.4"><path d="M43.83,429.5a5.1,5.1,0,0,0-1.36-3.4,4.93,4.93,0,0,0-3.23-1.59l-.65,4.06Z"></path></g><g style="opacity:0.4"><path d="M59.53,430S63.66,432,63,432.6s-17.24-2-24.45-3.83l.07-.32,19.32,3.25S58.68,429.94,59.53,430Z"></path></g><path d="M38.39,428.41l.25.06.71.16,2.62.54c2.22.43,5.29,1,8.7,1.54s6.5,1,8.74,1.25l2.66.31.72.07a.74.74,0,0,0,.26,0l-.25,0-.72-.11-2.65-.37c-2.24-.31-5.33-.75-8.73-1.3S44.22,429.45,42,429l-2.64-.48-.71-.12A.84.84,0,0,0,38.39,428.41Z" style="fill:#263238"></path><path d="M57.9,431.93a6.7,6.7,0,0,1,.7-1.19,5.8,5.8,0,0,1,1.06-.86,2,2,0,0,0-1.2.75A2,2,0,0,0,57.9,431.93Z" style="fill:#263238"></path><path d="M54,429.07s.29-.19.55-.49.45-.57.41-.6-.28.19-.54.49S53.93,429,54,429.07Z" style="fill:#263238"></path><path d="M52.89,428.26s.28-.08.56-.26.5-.37.47-.41-.28.07-.56.26S52.86,428.22,52.89,428.26Z" style="fill:#263238"></path><path d="M52.36,426.77a1.86,1.86,0,0,0,.74.22,1.75,1.75,0,0,0,.78,0,3.33,3.33,0,0,0-1.52-.26Z" style="fill:#263238"></path><path d="M52.26,425.76a1.49,1.49,0,0,0,.81.38,1.43,1.43,0,0,0,.89,0,5.1,5.1,0,0,0-.85-.19A4.33,4.33,0,0,0,52.26,425.76Z" style="fill:#263238"></path><path d="M54.66,427.88a2.66,2.66,0,0,0,.93.14,5.43,5.43,0,0,0,1-.06,2.53,2.53,0,0,0,.61-.14.54.54,0,0,0,.28-.26.35.35,0,0,0-.09-.39,1.71,1.71,0,0,0-2.19.16,1.78,1.78,0,0,0-.41.58c-.06.15-.07.24-.06.24a2.69,2.69,0,0,1,.55-.72,1.67,1.67,0,0,1,.88-.4,1.48,1.48,0,0,1,1.1.26c.13.13.05.3-.13.37a3.53,3.53,0,0,1-.56.14,8.36,8.36,0,0,1-1,.1C55,427.91,54.66,427.85,54.66,427.88Z" style="fill:#263238"></path><path d="M54.89,428a.89.89,0,0,0,.21-.63,1.53,1.53,0,0,0-.14-.72,1,1,0,0,0-.7-.6.38.38,0,0,0-.36.39,1,1,0,0,0,.09.44,2.83,2.83,0,0,0,.35.63c.25.34.46.48.48.47s-.16-.2-.37-.54a2.75,2.75,0,0,1-.3-.62c-.1-.22-.13-.59.11-.59s.44.28.55.49a1.57,1.57,0,0,1,.17.65A3.19,3.19,0,0,1,54.89,428Z" style="fill:#263238"></path><path d="M39.32,424.48s.43,0,1.07.21a4.6,4.6,0,0,1,3.32,3.64,9.5,9.5,0,0,1,.11,1.08s0-.1,0-.29a4,4,0,0,0,0-.81,4.5,4.5,0,0,0-1.13-2.4,4.43,4.43,0,0,0-2.29-1.34,3.55,3.55,0,0,0-.8-.11A1,1,0,0,0,39.32,424.48Z" style="fill:#263238"></path><path d="M41.79,418.67s-.31,1.32-.6,3a25.23,25.23,0,0,0-.42,3,27.25,27.25,0,0,0,.6-3A25.53,25.53,0,0,0,41.79,418.67Z" style="fill:#263238"></path><path d="M45.89,428.37a8.58,8.58,0,0,0,2.08.55,8.86,8.86,0,0,0,2.16.17s-1-.15-2.13-.35S45.9,428.32,45.89,428.37Z" style="fill:#263238"></path><path d="M43,427.91s.05.22.11.45.08.43.13.44.11-.22,0-.49S43.08,427.88,43,427.91Z" style="fill:#263238"></path><path d="M42.18,426.41s0,.19.16.37.26.29.3.26,0-.19-.16-.37S42.22,426.38,42.18,426.41Z" style="fill:#263238"></path><path d="M40.74,425.55c0,.05.2.08.4.19s.34.25.38.22-.05-.25-.3-.38S40.73,425.5,40.74,425.55Z" style="fill:#263238"></path><path d="M39.69,425.09s.05.13.16.2.23.08.25,0,0-.13-.16-.2S39.72,425.05,39.69,425.09Z" style="fill:#263238"></path><polyline points="106.38 287.54 99.44 424.46 81.41 424.46 83.64 302.31 56.91 426.25 38.08 423.95 61.95 285.02" style="fill:#263238"></polyline><path d="M158.57,255s7-3.59,8.23-5.22,1.74-7.38,1.74-7.38l-11.93,4.46Z" style="fill:#ffbe9d"></path><path d="M106.5,240c.41.14,8.12,17.34,14.31,17.42S158.57,255,158.57,255l-2-8.14-30.28-1-9.92-13.43Z" style="fill:#ffbe9d"></path><path d="M75.56,187.36l2.51,29.17,14.61-1.17c.09-1.7,0-8.3,0-8.3s6.08-.95,6.15-7c0-2.95-.38-9-.82-14.55a11.25,11.25,0,0,0-11.87-10.32h0A11.24,11.24,0,0,0,75.56,187.36Z" style="fill:#ffbe9d"></path><path d="M92.66,207a14.15,14.15,0,0,1-7.92-2.25s1.87,4.37,7.94,3.83Z" style="fill:#eb996e"></path><path d="M96.49,189.53a.88.88,0,0,1-.84.88.83.83,0,0,1-.89-.79.85.85,0,0,1,.83-.87A.83.83,0,0,1,96.49,189.53Z" style="fill:#263238"></path><path d="M96.68,188.55c-.11.12-.77-.37-1.7-.37s-1.62.47-1.72.36.06-.26.36-.47a2.34,2.34,0,0,1,1.37-.43,2.25,2.25,0,0,1,1.35.44C96.63,188.3,96.73,188.5,96.68,188.55Z" style="fill:#263238"></path><path d="M87.34,189.75a.86.86,0,0,1-.84.87.82.82,0,0,1-.89-.78.86.86,0,0,1,.83-.87A.83.83,0,0,1,87.34,189.75Z" style="fill:#263238"></path><path d="M87.5,188.73c-.11.11-.77-.38-1.7-.37s-1.62.47-1.72.35.06-.25.35-.47a2.33,2.33,0,0,1,1.38-.42,2.25,2.25,0,0,1,1.35.43C87.45,188.47,87.55,188.68,87.5,188.73Z" style="fill:#263238"></path><path d="M90.89,195.65a6.29,6.29,0,0,1,1.51-.27c.24,0,.47-.07.51-.23a1.32,1.32,0,0,0-.16-.71L92,192.62a29.86,29.86,0,0,1-1.58-4.75,32.3,32.3,0,0,1,2,4.61c.24.64.46,1.25.68,1.83a1.4,1.4,0,0,1,.12.94.61.61,0,0,1-.39.35,1.63,1.63,0,0,1-.41.05A5.62,5.62,0,0,1,90.89,195.65Z" style="fill:#263238"></path><path d="M88.14,196.3c.15,0,.15,1,1,1.72s1.94.61,2,.75-.24.2-.69.21a2.52,2.52,0,0,1-1.64-.56A2.23,2.23,0,0,1,88,197C88,196.55,88.07,196.29,88.14,196.3Z" style="fill:#263238"></path><path d="M87.74,185.07c-.1.25-1,.13-2.12.26s-2,.43-2.13.21.09-.35.45-.6a3.52,3.52,0,0,1,1.57-.55,3.47,3.47,0,0,1,1.66.2C87.57,184.75,87.78,185,87.74,185.07Z" style="fill:#263238"></path><path d="M96.33,185.85c-.16.21-.81,0-1.58,0s-1.43.14-1.58-.08,0-.32.32-.52a2.27,2.27,0,0,1,1.29-.35,2.19,2.19,0,0,1,1.26.43C96.32,185.53,96.41,185.75,96.33,185.85Z" style="fill:#263238"></path><path d="M77.61,191.92c-.11,0-4.18-1.23-4,2.92s4.28,3.17,4.28,3S77.61,191.92,77.61,191.92Z" style="fill:#ffbe9d"></path><path d="M76.52,196.35s-.07.06-.19.12a.73.73,0,0,1-.54,0,1.83,1.83,0,0,1-.88-1.58,2.55,2.55,0,0,1,.17-1,.84.84,0,0,1,.53-.57.36.36,0,0,1,.43.18c.06.12,0,.2.06.21s.09-.07.05-.24a.45.45,0,0,0-.17-.26.56.56,0,0,0-.41-.09,1,1,0,0,0-.73.67,2.43,2.43,0,0,0-.22,1.16,1.88,1.88,0,0,0,1.12,1.76.75.75,0,0,0,.65-.13C76.52,196.46,76.54,196.36,76.52,196.35Z" style="fill:#eb996e"></path><path d="M75.29,191.78a2.17,2.17,0,0,1,2,1c.27.59.33,1.26.6,1.86a1.48,1.48,0,0,0,1.52,1,1.3,1.3,0,0,0,.86-1,3.36,3.36,0,0,0,0-1.34c-.24-1.94-.65-3.87-.73-5.82a10,10,0,0,1,1.23-5.65,5.47,5.47,0,0,1,4.86-2.73c1.29.1,2.48.78,3.76,1a5.11,5.11,0,0,0,4.22-1.41c.14-.14.78-.57.78-.57a2.36,2.36,0,0,0-.43-1.28c-2.55-2.36-7.13-3-10.5-2.17a12.15,12.15,0,0,0-8,6.37c-1.44,3.15-1,7.53-.22,10.72" style="fill:#263238"></path><path d="M75.21,197.73c.05.06-.11.27,0,.6a.56.56,0,0,0,.32.39.67.67,0,0,0,.6,0,.86.86,0,0,0,.28-1.1c-.15-.33-.37-.48-.33-.55s.33,0,.64.35a1.21,1.21,0,0,1-.32,1.75,1.11,1.11,0,0,1-1.1,0,.93.93,0,0,1-.46-.77C74.83,197.83,75.19,197.67,75.21,197.73Z" style="fill:#455a64"></path><path d="M60.92,288.09h46.17c.12-4.87-.07-44.25-.07-44.25l2.44,4.59,12.72-11.34-11.11-15a22,22,0,0,0-14.72-8.7c-1.72-.24-3-.35-3.89-.46a25,25,0,0,1-15.08,0h0a20.47,20.47,0,0,0-6.24,1.2,25.7,25.7,0,0,0-10,6.45h0l-13.3,22.36L64,253.06l2.33-7Z" style="fill:#E0371F"></path><path d="M68.1,232.64a8.58,8.58,0,0,1,0,2.23c-.06,1.37-.22,3.27-.46,5.35s-.53,4-.78,5.32a8.46,8.46,0,0,1-.54,2.17,10.89,10.89,0,0,1,.18-2.22c.18-1.57.39-3.35.63-5.33s.43-3.75.61-5.32A10.85,10.85,0,0,1,68.1,232.64Z" style="fill:#263238"></path><path d="M107.09,251a24.28,24.28,0,0,1-.3-3.24c-.13-2-.31-4.75-.56-7.8s-.52-5.8-.72-7.79a20,20,0,0,1-.23-3.24,21,21,0,0,1,.6,3.19c.29,2,.62,4.74.87,7.8s.37,5.82.41,7.83A18.17,18.17,0,0,1,107.09,251Z" style="fill:#263238"></path><path d="M77.05,214.44a39.66,39.66,0,0,0-5.15,2.16,24.85,24.85,0,0,0-9.6,9.16,68,68,0,0,0-3.46,6.58c-1,2.07-1.9,3.93-2.75,5.45a34.06,34.06,0,0,1-2.22,3.47,8,8,0,0,1-1,1.16,9.54,9.54,0,0,1,.81-1.27c.52-.82,1.26-2,2.06-3.54s1.68-3.4,2.64-5.48a63.63,63.63,0,0,1,3.46-6.64,25,25,0,0,1,4.79-5.78,24.28,24.28,0,0,1,5.08-3.43,22.51,22.51,0,0,1,3.84-1.52c.47-.14.84-.22,1.09-.27S77.05,214.42,77.05,214.44Z" style="fill:#fafafa"></path><path d="M76.22,213.49a20.35,20.35,0,0,0-5.4,1.76,21.68,21.68,0,0,0-5,3.58,32.18,32.18,0,0,0-4.76,5.87c-2.9,4.53-4.94,9-6.76,12.07-.89,1.54-1.67,2.75-2.25,3.56a7.58,7.58,0,0,1-1,1.21,9.25,9.25,0,0,1,.78-1.32c.53-.84,1.26-2.07,2.1-3.63s1.8-3.43,2.88-5.52,2.28-4.37,3.76-6.66a31.43,31.43,0,0,1,4.87-5.93,20.85,20.85,0,0,1,5.16-3.56,15.55,15.55,0,0,1,4-1.3,10.36,10.36,0,0,1,1.14-.14C76.08,213.47,76.22,213.47,76.22,213.49Z" style="fill:#fafafa"></path><path d="M120.59,236.92a8,8,0,0,1-1.15-1,31.42,31.42,0,0,1-2.71-3.13c-1.06-1.39-2.23-3.11-3.51-5a60.08,60.08,0,0,0-4.4-6A21.25,21.25,0,0,0,103.2,217a26.23,26.23,0,0,0-5.57-2.36c-1.66-.51-3-.81-4-1a9.71,9.71,0,0,1-1.47-.36,7.56,7.56,0,0,1,1.51.16,34.31,34.31,0,0,1,4,.86,25.05,25.05,0,0,1,5.71,2.3,20.82,20.82,0,0,1,5.77,4.86,54.41,54.41,0,0,1,4.41,6.09c1.26,1.93,2.39,3.67,3.41,5.07a40.93,40.93,0,0,0,2.56,3.21A7.93,7.93,0,0,1,120.59,236.92Z" style="fill:#fafafa"></path><path d="M96.57,236.06c-.14.06-.43-.39-.52-1s.06-1.15.2-1.14.23.49.32,1.06S96.7,236,96.57,236.06Z" style="fill:#fafafa"></path><path d="M98,235.86c-.14,0-.34-.41-.46-1s-.09-1.05,0-1.08.35.41.46,1S98.15,235.83,98,235.86Z" style="fill:#fafafa"></path><path d="M99.66,236.27c-.14,0-.33-.59-.42-1.37s0-1.41.11-1.42.32.59.41,1.37S99.8,236.26,99.66,236.27Z" style="fill:#fafafa"></path><path d="M101.1,237.23a6.24,6.24,0,0,1-2.49.26,6.24,6.24,0,0,1-2.49-.26,6,6,0,0,1,2.49-.26A6,6,0,0,1,101.1,237.23Z" style="fill:#fafafa"></path><path d="M158.1,242.4l18-6.07.71,2.31s-7,11.11-15.25,13.39Z" style="fill:#455a64"></path><path d="M104.52,274.68s27.83-19.53,29.5-20.12,13.61-.61,16.6-.29,11.56-.56,11.56-.56l-8.84-24.5,18.77-4.81-1-3.34S156,212,147.3,214.58s-12.81,14-14.63,16.87-5.74,13-24.38,24.88l-11,7.36Z" style="fill:#455a64"></path><path d="M134.53,235.23s0,.1.12.28l.32.77,1.25,2.88,4.55,10.43.18-.25a26.12,26.12,0,0,0-3.2,0,8.83,8.83,0,0,0-3.39.7c-2.07,1.17-4.11,2.59-6.28,4.05-4.32,2.93-9,6.2-13.85,9.64a4.18,4.18,0,0,1-2,1,3.38,3.38,0,0,1-3.76-4.1,3.47,3.47,0,0,1,1.06-1.78c.55-.43,1.19-.86,1.77-1.28l3.48-2.49,12-8.61a10.19,10.19,0,0,0,2.15-2.15c.58-.75,1.09-1.49,1.56-2.18.93-1.4,1.68-2.63,2.28-3.65s1-1.82,1.33-2.36c.13-.26.24-.46.33-.63a1,1,0,0,0,.09-.22l-.13.2-.37.6-1.41,2.32c-.62,1-1.39,2.22-2.34,3.59-.47.68-1,1.41-1.58,2.15a9.84,9.84,0,0,1-2.11,2.06l-12.09,8.53L111,257.15c-.6.43-1.19.82-1.81,1.31a3.84,3.84,0,0,0,3.07,6.69,4.76,4.76,0,0,0,2.24-1.06c4.86-3.44,9.51-6.72,13.82-9.67,2.15-1.46,4.21-2.9,6.21-4a8.88,8.88,0,0,1,3.24-.69,27.34,27.34,0,0,1,3.14,0l.3,0-.13-.26c-2-4.39-3.65-8-4.81-10.47-.55-1.19-1-2.13-1.3-2.81-.13-.29-.24-.53-.33-.71Z" style="fill:#263238"></path><path d="M62.3,297h0A8.2,8.2,0,0,0,74,299.06l37.13-29-6.59-11.23L64.42,285.72A8.21,8.21,0,0,0,62.3,297Z" style="fill:#455a64"></path><polygon points="143.83 233.66 147.18 244.1 153.3 244.13 149.5 233.69 143.83 233.66" style="fill:#263238"></polygon><path d="M153.69,241.81c0-.27-2-.49-4.51-.5s-4.5.19-4.51.45,2,.48,4.51.5S153.69,242.07,153.69,241.81Z" style="fill:#263238"></path><path d="M152.52,238.47c0-.26-2-.48-4.5-.49s-4.51.18-4.51.45,2,.48,4.5.49S152.52,238.73,152.52,238.47Z" style="fill:#263238"></path><path d="M151.8,235.29c0-.26-2-.48-4.5-.5s-4.51.19-4.51.45,2,.49,4.5.5S151.8,235.55,151.8,235.29Z" style="fill:#263238"></path><path d="M158,241.23a23.12,23.12,0,0,0,1.49,5.43,29.22,29.22,0,0,0,2.23,5.18,39.13,39.13,0,0,0-1.78-5.34C158.88,243.59,158.13,241.19,158,241.23Z" style="fill:#263238"></path><path d="M97.16,274.22c3-.58,5.17-2.18,5.45-3a1,1,0,0,0-1.57-1,11.54,11.54,0,0,1-2.91,1.16,7.05,7.05,0,0,1-2.5.28c-1-.06-1.81-.15-2.51-.24l-4-.09L60.38,258.84l2.48-6.5L49.7,244.06S45,252.12,43.26,259.7c-2.08,9.24,29.56,17.77,41.24,19.9h0l2.34,2.3c2.31,1.92,3.52,3.08,4.67,3.11,1.55,0,1.21-1.78,1.21-1.78s2,1,2.84-.06a1.31,1.31,0,0,0-.11-1.53s1.87.83,2.7.54c1.14-.4.6-1.77.6-1.77,3,.72,3.93-.56,3.62-1.1S100,278,100,278C98.41,277.12,94.1,274.81,97.16,274.22Z" style="fill:#ffbe9d"></path><path d="M158.1,215.3a3.88,3.88,0,0,1,1.07.19,25.65,25.65,0,0,1,2.85.93,78.7,78.7,0,0,1,9.22,4.42l.09,0,0,.1c.32,1.08.65,2.2,1,3.34l.07.26-.26.07-.78.2c-5,1.27-9.47,2.4-12.73,3.19l-3.88.91a7.39,7.39,0,0,1-1.44.26,8.61,8.61,0,0,1,1.39-.46l3.83-1.07c3.25-.88,7.73-2.06,12.7-3.33l.78-.2-.18.32-1-3.34.12.15a99.44,99.44,0,0,0-9.1-4.56c-1.16-.5-2.11-.84-2.77-1.07A6.32,6.32,0,0,1,158.1,215.3Z" style="fill:#263238"></path><path d="M162.2,251.84a8.45,8.45,0,0,1,1.36-.77c.46-.23,1-.54,1.61-.91s1.31-.79,2.06-1.29a32.12,32.12,0,0,0,4.87-4.05,22.75,22.75,0,0,0,4.49-6.27v.17c-.06-.2-.12-.42-.19-.64-.18-.57-.35-1.14-.51-1.68l.33.17c-5.06,1.7-9.58,3.19-12.83,4.24L159.53,242a9.57,9.57,0,0,1-1.43.38,7.46,7.46,0,0,1,1.36-.56l3.8-1.37c3.23-1.14,7.73-2.68,12.78-4.39l.25-.09.08.26c.17.54.34,1.11.52,1.68.06.22.13.44.19.64l0,.09,0,.08a22.63,22.63,0,0,1-4.63,6.42,30.36,30.36,0,0,1-5,4c-.77.49-1.48.92-2.12,1.24a17,17,0,0,1-1.66.83A9.28,9.28,0,0,1,162.2,251.84Z" style="fill:#263238"></path></g></svg>