<svg width="900" height="600" viewBox="0 0 900 600" fill="none" xmlns="http://www.w3.org/2000/svg"><path fill="transparent" d="M0 0h900v600H0z"/><circle cx="464.244" cy="258" r="200" fill="url(#a)"/><path d="M600.542 477.611c9.833-3.322 18.355-10.398 23.331-19.473 1.406-2.503 2.554-5.379 2.176-8.224-.096-.58-.243-1.266-.765-1.537-.469-.27-1.103-.122-1.631.028-16.424 4.431-33.787 11.898-51.026 11.11-.789-.012-1.577-.076-2.265.229-.847.355-1.385 1.136-1.765 1.972-1.304 2.715-2.434 7.852-2.007 10.908.523 3.637 4.039 4.164 7.13 4.947 8.802 2.238 18.046 3.009 26.822.04z" fill="#F8AE9D"/><path d="M602.059 457.228c1.324-.559 2.699-1.116 4.12-1.147 1.42-.031 2.987.729 3.439 2.103.301.951.023 1.946-.359 2.835-1.034 2.298-2.85 4.164-4.769 5.817-7.352 6.2-16.77 9.949-26.403 10.539-4.264.25-8.729-.133-12.485-2.136 1.875-2.286 1.504-5.552 1.706-8.441.602-8.459 7.811-5.246 13.596-5.264 7.26-.152 14.487-1.568 21.155-4.306z" fill="#F8AE9D"/><path d="m382.015 394.666-.329.941c-2.311 6.697-4.099 13.612-4.838 20.701-1.355 13.023 1.201 28.261 10.998 37.718 13.061 12.611 34.016 14.559 51.049 11.557a43.112 43.112 0 0 0 19.115-8.492c5.551 5.028 11.516 10.535 16.48 16.133a125.487 125.487 0 0 0 28.246-14.086c20.787 9.519 41.99 15.942 64.376 20.595a86.875 86.875 0 0 0 5.35-19.799c.174-1.102-13.778-10.518-15.388-11.857-4.829-4.07-14.891-13.374-14.891-13.374s12.681-10.8 18.228-15.869a264.163 264.163 0 0 0 16.871-16.574c4.438-4.771 8.774-9.807 11.494-15.761 2.72-5.901 3.72-12.881 1.446-19.016-7.178-19.095-36.153-12.383-49.612-5.803-11.127 5.458-20.872 13.41-30.251 21.472-3.783 3.203-7.515 6.512-11.193 9.77-2.9-2.99-6.102-6.877-8.841-10.022-2.946-3.411-6.316-6.617-10.388-8.625-4.279-2.169-8.228-1.861-12.794-2.509-2.047-.294-4.036-.902-6.029-1.248-5.979-1.09-12.308.076-17.562 3.151-4.988 2.922-9.037 6.385-14.892 7.505-6.646 1.267-14.366.518-21.032-.372-5.983-.827-12.063-2.181-18.024-1.01-2.479.488-3.426 3.945-4.245 5.931-1.095 2.876-2.245 5.857-3.344 8.943zm52.812-220.249s-16.092-2.56-20.414 25.848c-4.801 31.582-17.623 26.387-37.984 52.031-11.901 14.984.623 41.447 26.071 40.922 25.449-.511 48.432-7.869 63.07-4.721 14.639 3.148 15.443-34.346.999-45.914-14.443-11.568 16.352-44.787-2.413-59.58-18.766-14.793-29.329-8.586-29.329-8.586z" fill="#31446C"/><path d="M338.638 299.684c-1.467-3.016-1.379-6.519-.849-9.789 2.294-14.033 12.128-25.759 23.4-34.352 11.309-8.615 24.254-14.766 36.152-22.486 3.088-2.011 6.183-4.176 9.729-5.263 3.545-1.086 7.666-.969 10.593 1.317 2.067 1.604 3.262 4.084 3.957 6.566 1.524 5.432.94 11.184.01 16.694-1.162 6.95-2.867 13.828-5.668 20.216-2.245 5.153-5.899 10.456-11.391 11.465-1.59 6.158-4.862 11.93-9.451 16.346-5.249 5.063-11.904 8.374-18.811 10.686-6.364 2.135-13.324 3.529-19.725 1.536-3.799-1.16-7.146-3.394-10.418-5.672-2.92-1.941-5.95-4.065-7.528-7.264zm57.513-9.358 3.756-5.964c-.8.083-1.556.238-2.319.548-2.063.893-3.305 4.142-1.437 5.416z" fill="#31446C"/><path d="M465.763 199.399c.195 1.055.23 2.16.159 3.421a70.284 70.284 0 0 1-4.692 21.492c-1.64 4.077-3.647 8.096-6.485 11.472-1.179 1.402-2.513 2.696-4.256 3.196-1.796.498-4.059.569-5.84.121-1.571 6.498-.916 18.762 4.694 23.37 1.714 1.394 3.752 2.266 5.792 3.033 3.973 1.533 8.111 2.701 12.252 3.605 4.718 1.018 9.86 1.78 13.173 5.249.415.427.826 1.012.66 1.588-.111.366-.378.625-.696.831-2.61 2.116-5.835 3.277-9.06 4.385-5.657 1.913-11.466 3.507-17.373 4.575-6.17 1.116-12.542 1.65-18.79.977-4.831-.547-9.598-1.777-13.983-3.947-4.593-2.279-9.298-4.138-14.051-6.314-4.022-1.849-7.987-3.961-12.341-4.711 2.058-3.913 6.352-6.109 10.628-7.149 4.275-.986 8.746-1.076 13.072-1.905 1.424-.294 2.849-.64 4.072-1.516 3.35-2.421 2.433-7.799 2.486-11.322l.17-11.147c-.498-5.319-2.692-9.77-4.617-14.638-2.937-7.46-3.544-15.937-.956-23.576 2.587-7.587 8.472-14.177 16.034-16.849 7.561-2.673 16.637-1.168 22.442 4.39 3.68 3.58 6.682 6.781 7.506 11.369z" fill="#F8AE9D"/><path d="M442.51 175.696c7.536-.841 14.404 2.849 19.495 8.57 4.284 4.796 6.802 11.126 6.674 17.486-.018.908-.12 1.898-.632 2.714-1.361 1.956-4.322 1.236-6.535.365-3.608-1.394-6.294-3.431-9.565-5.149s-7.242-1.467-10.17-3.839c-2.763-2.286-12.252-7.103-12.509-10.826-.322-4.551 8.016-8.268 11.501-9.025.499-.155 1.079-.226 1.741-.296z" fill="#31446C"/><path d="M420.799 185.998c-6.372 4.11-9.363 11.31-9.695 18.961-.29 6.423 1.759 12.92 5.876 17.77.588.692 1.292 1.395 2.205 1.704 2.291.656 4.13-1.773 5.296-3.847 1.915-3.36 2.71-6.636 4.16-10.034 1.45-3.398 4.687-5.713 5.457-9.401.697-3.519 5.008-13.248 2.854-16.296-2.626-3.731-11.437-1.344-14.616.272-.485.195-.979.506-1.537.871z" fill="#31446C"/><path d="M477.483 272.733c1.006-.458 2.211-.124 2.881.78 7.519 10.528 10.421 23.72 12.963 36.434 2.883 14.454 5.45 28.956 7.912 43.456.147.739.24 1.529-.086 2.208-.326.679-1.067 1.036-1.756 1.341-4.344 2.09-8.74 4.127-13.085 6.217a144.364 144.364 0 0 1-10.064-33.339c-2.79 7.058-7.827 13.187-14.251 17.192 4.787 6.857 10.679 20.568 16.426 26.599.879.96 6.319-.536 7.534-.938.756 2.168-2.785-.147-2.766 2.062-3.268.476-7.445-1.481-10.805-1.9-4.042-.482-8.144-.492-12.2-.08-6.743.739-13.297 2.848-19.288 6.018a68.786 68.786 0 0 0-8.549 5.392c-2.341 1.753-8.136 5.872-8.136 5.872-.426.31-2.417-.141-2.889-.254a52.972 52.972 0 0 0-4.147-.536 98.404 98.404 0 0 1-10.392-1.368c-6.871-1.261-13.626-3.204-20.107-5.88-.623-.483 1.603-5.077 1.722-5.969-.118.839-12.883-.196-14.141-.425-5.034-1.024-10.127-1.574-15.159-2.65 2.253-20.267 8.441-39.842 14.521-59.262 2.378-7.642 4.808-15.284 8.178-22.49 3.588-7.677 8.22-14.865 13.787-21.249.16-.155.424-.256.634-.201 2.672.672 18.965 4.864 27.071 7.88 4.13 1.588 8.316 3.019 12.554 4.45 1.675.552 3.402 1.104 5.138 1.078 1.158-.035 2.318-.281 3.427-.527 11.293-2.51 22.589-5.231 33.073-9.911z" fill="#dfa1ac"/><path d="M403.977 313.113c-.465 2.885-1.088 5.821-1.71 8.704a153.44 153.44 0 0 1-5.815 19.266c-1.205 3.137-2.461 6.221-3.875 9.302a178.574 178.574 0 0 1-2.173 4.543c-.379.73-.759 1.514-1.139 2.244-.325.626-.702 1.199-1.026 1.773 2.263-.071 13.429.573 15.74.766" stroke="#fff" stroke-width="1.376" stroke-miterlimit="10" stroke-linecap="round"/><path d="M404.342 361.977a65.02 65.02 0 0 1-.856 4.405l-1.014 4.402c-.334 1.257-1.094 2.823-1.114 4.138.004-.263 8.956-1.021 9.799-1.113 9.322-.911 18.692-1.452 28.01-2.047 6.054-.381 11.995-.238 18.042-.199 1.788.027 3.895-.151 4.863-1.609.808-1.25.149-2.838.797-3.985.419.111 5.292 1.343 5.241 1.237.193 1.107.579 3.427 1.728 3.97a3.55 3.55 0 0 0 1.258.23c.631.009 1.264-.086 1.896-.182a.397.397 0 0 0 .265-.101c.107-.104.004-.263-.099-.422a12.537 12.537 0 0 1-2.152-7.185c-1.51-1.023-3.017-2.203-4.313-3.485-1.035-1.067-1.803-2.446-2.946-3.358-1.194-1.017-2.361-.404-3.681-.056-1.53.345-3.062.743-4.541 1.194-2.906.902-5.816 2.015-8.263 3.819-.85.618-1.649 1.289-2.653 1.59-.952.301-2.003.285-3.002.27-6.151-.146-12.3-.45-18.391-1.121-6.248-.674-10.509-.581-18.695-1.809-.001.052-.008.525-.179 1.417z" fill="#F8AE9D"/><path d="M472.082 312.528c1.47 6.358 2.531 12.777 3.249 19.327" stroke="#fff" stroke-width="1.376" stroke-miterlimit="10" stroke-linecap="round"/><path d="m596.107 302.041-18.053 80.509-137.078-2.083c.072-4.732 3.97-8.565 8.755-8.492l32.757.498 16.325-74.066c.51-2.411 2.692-4.114 5.11-4.077l87.179 1.324c3.312.103 5.738 3.138 5.005 6.387z" fill="#31446C"/><path d="M417.036 498.753c.634-3.672 2.427-7.431 4.107-10.719 6.937-13.464 19.335-22.952 32.688-29.481 1.377-.663 2.755-1.326 4.182-1.83-.107.156-.215.312-.323.521l-.001.052h-.053c.16-.103.266-.207.426-.31 5.395 4.868 11.152 10.215 16.067 15.602-3.249 2.633-7.962 4.77-10.303 6.522-5.531 4.071-10.856 8.408-16.594 12.213-7.705 5.195-15.914 8.962-25.09 10.611-3.533.63-5.384 1.285-5.343-1.449.059-.42.121-.997.237-1.732z" fill="#F8AE9D"/><path d="M425.984 488.16c3.574-6.73 9.121-11.853 15.186-16.389 4.256-3.196 8.77-6.072 13.074-9.005 1.222-.823 3.623-3.048 5.69-4.121 4.306 3.905 8.714 8.021 12.699 12.289-13.165 8.005-24.894 18.45-39.338 24.121-1.322.506-2.698 1.011-4.118 1.042-1.42.031-2.937-.57-3.76-1.74-1.288-1.807-.461-4.267.567-6.197z" fill="#F8AE9D"/><path d="M679.612 470.422c-.965-.476-1.572-1.523-1.49-2.567a2.724 2.724 0 0 1 1.946-2.418c.3-.087.618-.118.931-.152 1.874-.213 3.752-.391 5.595-.83a2.955 2.955 0 0 1 2.34.395c.957.611 1.382 1.507 1.264 2.612-.122 1.109-.771 1.869-1.818 2.265a2.8 2.8 0 0 1-.61.155c-2.151.318-4.299.67-6.471.832-.594.045-1.156-.027-1.687-.292zm8.668 7.664c-.402.83-1.089 1.388-1.946 1.603-2.108.523-4.238 1.008-6.418 1.094-1.99.076-3.317-1.791-2.665-3.647.374-1.062 1.194-1.664 2.291-1.779 1.414-.147 2.787-.46 4.183-.688.444-.073.857-.228 1.28-.365a2.71 2.71 0 0 1 2.921.837c.699.823.836 1.969.354 2.945zm6.16-5.557c.355-.723.928-1.185 1.693-1.414a35.944 35.944 0 0 1 3.505-.856 5.96 5.96 0 0 0 1.554-.504 2.912 2.912 0 0 1 3.996 1.487c.625 1.509-.124 3.165-1.71 3.759a4.059 4.059 0 0 1-.678.199c-1.752.308-3.487.701-5.217 1.111-1.073.252-2.027.005-2.774-.842-.728-.831-.861-1.943-.369-2.94zm3.032 7.329c1.154.61 1.608 1.541 1.624 2.693.015 1.138-.503 2.016-1.505 2.573a4.675 4.675 0 0 1-1.17.447c-1.428.344-2.848.698-4.275 1.042-.91.216-1.78.116-2.532-.484-.826-.663-1.18-1.544-.988-2.585.2-1.096.879-1.835 1.949-2.161a38.746 38.746 0 0 1 2.514-.648c.638-.147 1.235-.329 1.796-.725.831-.597 1.761-.552 2.587-.152zm16.975 2.992c-.284.581-.71 1.038-1.301 1.314a5.716 5.716 0 0 1-1.026.381c-1.194.296-2.377.625-3.56.953-1.793.496-3.434-.653-3.53-2.43-.061-1.115.565-2.117 1.659-2.621.813-.376 1.678-.594 2.543-.799.463-.11.891-.257 1.304-.504 1.118-.67 2.377-.507 3.326.382.899.844 1.138 2.193.585 3.324zm-50.51-14.434c.315-.578.739-.991 1.301-1.248a3.716 3.716 0 0 1 1.205-.344c1.117-.105 2.24-.247 3.363-.296 2.035-.087 3.42 1.717 2.778 3.618-.335.997-1.081 1.583-2.104 1.787-.329.066-.676.063-1.013.105-.907.105-1.822.147-2.729.291-1.072.174-1.964-.226-2.589-1.118-.634-.889-.646-1.848-.212-2.795zm31.664-10.952c1.067.548 1.63 1.526 1.548 2.609-.09 1.165-.703 1.943-1.776 2.366a2.315 2.315 0 0 1-.76.178 66 66 0 0 1-2.981.086 2.611 2.611 0 0 1-1.546-.51c-.92-.671-1.332-1.765-1.064-2.84.276-1.091 1.136-1.93 2.241-2.035 1.091-.104 2.195-.104 3.292-.127.399-.011.778.113 1.046.273z" fill="#E1E4E5"/><path d="M167.604 242.253s-7.547-28.952 4.105-42.032c12.515-14.069 21.866-.186 12.023 19.628-6.75 13.603-16.128 22.404-16.128 22.404zm-4.854 32.07s-26.086-14.722-27.32-32.144c-1.338-18.717 15.182-15.753 22.541 5.061 5.023 14.272 4.779 27.083 4.779 27.083zm.041 19.025s28.293-10.117 32.586-27.058c4.623-18.219-12.188-18.073-23.09 1.182-7.461 13.205-9.496 25.876-9.496 25.876zm1.398 13.754s-29.923-2.407-38.385-17.657c-9.102-16.409 7.177-20.629 22.619-4.865 10.582 10.79 15.766 22.522 15.766 22.522z" fill="#dfa1ac"/><path d="M173.554 216.481c-5.836 18.142-10.261 36.782-11.68 55.799-1.39 18.72.221 37.496 3.906 55.864.959 4.819 2.069 9.62 3.275 14.372l1.818-.942c-3.173-12.652-5.618-25.5-6.774-38.513-1.619-18.088-.551-36.298 2.945-54.115 2.122-10.784 5.041-21.396 8.403-31.855.395-1.23-1.507-1.817-1.893-.61z" fill="#31446C"/><path d="M86.678 302.322s-14.129-26.373-5.87-41.821c8.863-16.614 21.211-5.312 16.291 16.259-3.37 14.806-10.42 25.562-10.42 25.562zm2.806 32.314s-28.813-8.191-34.1-24.837c-5.691-17.881 11.063-18.876 23.1-.369 8.23 12.695 11 25.206 11 25.206zm4.504 18.484s25.129-16.473 25.328-33.948c.219-18.796-16.088-14.709-22.168 6.566-4.155 14.588-3.16 27.382-3.16 27.382zm4.585 13.042s-29.653 4.681-41.456-8.158c-12.698-13.815 2.137-21.737 20.846-10.036 12.818 8.006 20.61 18.194 20.61 18.194z" fill="#dfa1ac"/><path d="M86.416 275.874c-1.417 19.004-1.345 38.162 1.737 56.981 3.04 18.524 9.013 36.398 16.904 53.388a282.235 282.235 0 0 0 6.555 13.203l1.547-1.342c-6.053-11.555-11.445-23.471-15.621-35.849-5.818-17.203-9.052-35.156-9.834-53.296-.467-10.98-.12-21.981.695-32.936.095-1.289-1.891-1.413-1.983-.149z" fill="#31446C"/><path d="M788.722 341.44s-4.546-22.164 4.774-31.577c10.011-10.127 16.52.729 8.298 15.301-5.64 10.003-13.072 16.276-13.072 16.276zm-4.942 24.025s-19.114-12.157-19.352-25.362c-.265-14.188 12.093-11.292 16.821 4.72 3.225 10.978 2.531 20.642 2.531 20.642zm-.726 14.37s21.768-6.515 25.685-19.137c4.217-13.574-8.484-14.133-17.484-.026-6.16 9.675-8.201 19.163-8.201 19.163zm.507 10.441s-22.501-3.009-28.284-14.862c-6.22-12.754 6.242-15.293 17.275-2.774 7.562 8.57 11.009 17.636 11.009 17.636z" fill="#dfa1ac"/><path d="M794.242 322.215c-5.13 13.468-9.214 27.368-11.042 41.673-1.796 14.081-1.327 28.325.725 42.342a213.31 213.31 0 0 0 1.9 10.984l1.411-.639c-1.893-9.681-3.228-19.481-3.582-29.354-.502-13.724 1.029-27.433 4.379-40.749 2.032-8.059 4.659-15.956 7.614-23.721.347-.914-1.066-1.432-1.405-.536z" fill="#31446C"/><path d="M733.267 271.272s-4.546-22.164 4.774-31.577c10.011-10.127 16.52.729 8.297 15.301-5.639 10.003-13.071 16.276-13.071 16.276zm-4.943 24.025s-19.113-12.156-19.351-25.362c-.265-14.188 12.092-11.292 16.82 4.72 3.225 10.978 2.531 20.642 2.531 20.642zm-.726 14.37s21.769-6.514 25.686-19.137c4.216-13.574-8.485-14.133-17.484-.026-6.161 9.675-8.202 19.163-8.202 19.163zm.508 10.441s-22.501-3.009-28.284-14.862c-6.22-12.754 6.241-15.293 17.275-2.774 7.561 8.57 11.009 17.636 11.009 17.636z" fill="#dfa1ac"/><path d="M738.786 252.047c-5.129 13.468-9.213 27.368-11.042 41.673-1.795 14.081-1.326 28.325.725 42.342.532 3.678 1.18 7.348 1.901 10.984l1.411-.639c-1.893-9.681-3.228-19.481-3.582-29.354-.503-13.724 1.029-27.433 4.378-40.749 2.033-8.059 4.659-15.956 7.615-23.721.347-.914-1.066-1.432-1.406-.536z" fill="#31446C"/><path d="M507.586 507.769c-.964-.476-1.571-1.523-1.49-2.566a2.726 2.726 0 0 1 1.947-2.419c.299-.086.618-.118.93-.152 1.875-.212 3.752-.391 5.596-.829a2.955 2.955 0 0 1 2.34.395c.956.61 1.382 1.507 1.263 2.611-.121 1.11-.77 1.869-1.817 2.266a2.936 2.936 0 0 1-.61.155c-2.151.317-4.299.669-6.471.831-.594.045-1.157-.026-1.688-.292zm8.669 7.664c-.402.831-1.089 1.388-1.946 1.603-2.109.523-4.238 1.009-6.418 1.095-1.99.076-3.318-1.792-2.665-3.648.374-1.062 1.194-1.664 2.291-1.779 1.414-.147 2.787-.459 4.183-.688.444-.073.857-.228 1.28-.365a2.71 2.71 0 0 1 2.921.837c.699.823.836 1.97.354 2.945zm6.16-5.556c.355-.723.928-1.186 1.693-1.414a35.732 35.732 0 0 1 3.505-.857 5.949 5.949 0 0 0 1.554-.504 2.912 2.912 0 0 1 3.996 1.487c.625 1.509-.124 3.165-1.71 3.759a4.062 4.062 0 0 1-.678.2c-1.751.307-3.487.701-5.217 1.11-1.073.252-2.027.005-2.774-.842-.728-.831-.861-1.943-.369-2.939zm3.031 7.328c1.154.61 1.609 1.541 1.624 2.693.016 1.138-.503 2.016-1.505 2.573a4.675 4.675 0 0 1-1.17.447c-1.427.344-2.847.699-4.275 1.043-.91.215-1.78.115-2.532-.485-.825-.663-1.18-1.544-.988-2.585.2-1.096.879-1.835 1.949-2.16.828-.25 1.667-.455 2.514-.649.639-.147 1.236-.328 1.796-.725.831-.597 1.762-.552 2.587-.152zm16.977 2.992c-.285.581-.711 1.038-1.302 1.314a5.688 5.688 0 0 1-1.026.381c-1.194.297-2.377.625-3.56.953-1.793.497-3.434-.653-3.53-2.43-.061-1.115.566-2.116 1.659-2.621.813-.375 1.678-.593 2.543-.798.463-.111.891-.258 1.304-.505 1.118-.67 2.377-.506 3.326.382.899.845 1.138 2.194.586 3.324zm-50.511-14.433c.315-.579.739-.991 1.301-1.249a3.716 3.716 0 0 1 1.205-.344c1.117-.105 2.24-.246 3.362-.296 2.035-.086 3.421 1.718 2.778 3.619-.334.996-1.081 1.582-2.103 1.787-.329.065-.676.063-1.013.105-.907.105-1.822.146-2.729.291-1.073.173-1.964-.227-2.589-1.118-.634-.889-.647-1.849-.212-2.795zm31.663-10.952c1.068.547 1.63 1.525 1.548 2.608-.089 1.165-.702 1.943-1.775 2.366a2.342 2.342 0 0 1-.76.179c-.996.047-1.988.083-2.982.086a2.61 2.61 0 0 1-1.545-.511c-.92-.671-1.333-1.764-1.064-2.84.276-1.091 1.136-1.929 2.24-2.034 1.091-.105 2.196-.105 3.292-.128.4-.01.778.113 1.046.274zm-180.092-4.019c-.964-.476-1.571-1.523-1.49-2.566a2.726 2.726 0 0 1 1.947-2.419c.299-.086.618-.118.93-.152 1.875-.212 3.752-.391 5.596-.829a2.948 2.948 0 0 1 2.339.395c.957.61 1.383 1.507 1.264 2.611-.121 1.109-.771 1.869-1.817 2.266a2.936 2.936 0 0 1-.61.155c-2.151.317-4.299.669-6.471.831-.594.045-1.157-.026-1.688-.292zm8.669 7.664c-.402.831-1.089 1.388-1.946 1.603-2.109.523-4.238 1.009-6.418 1.095-1.99.075-3.318-1.792-2.665-3.648.374-1.062 1.194-1.664 2.291-1.779 1.414-.147 2.787-.459 4.183-.688.444-.073.857-.228 1.28-.365a2.71 2.71 0 0 1 2.921.837c.699.823.836 1.97.354 2.945zm6.16-5.557c.355-.722.928-1.185 1.693-1.414a36.014 36.014 0 0 1 3.505-.856 5.949 5.949 0 0 0 1.554-.504 2.912 2.912 0 0 1 3.996 1.487c.625 1.509-.124 3.165-1.71 3.759a4.062 4.062 0 0 1-.678.2c-1.751.307-3.487.701-5.217 1.11-1.073.252-2.027.005-2.774-.842-.728-.831-.861-1.943-.369-2.94zm3.031 7.329c1.154.61 1.609 1.541 1.624 2.693.016 1.138-.503 2.016-1.505 2.573a4.675 4.675 0 0 1-1.17.447c-1.427.344-2.847.698-4.275 1.043-.91.215-1.78.115-2.532-.485-.825-.663-1.18-1.544-.988-2.585.2-1.096.879-1.835 1.949-2.16.828-.25 1.667-.455 2.514-.649.639-.147 1.236-.328 1.796-.725.831-.597 1.762-.552 2.587-.152zm16.976 2.992c-.284.581-.71 1.038-1.301 1.314a5.716 5.716 0 0 1-1.026.381c-1.194.297-2.377.625-3.56.953-1.793.497-3.434-.653-3.53-2.43-.061-1.115.565-2.116 1.659-2.621.813-.376 1.678-.594 2.543-.798.463-.111.891-.258 1.304-.505 1.118-.67 2.377-.507 3.326.382.899.845 1.138 2.193.585 3.324zm-50.51-14.433c.315-.579.739-.991 1.301-1.249a3.716 3.716 0 0 1 1.205-.344c1.117-.105 2.24-.246 3.362-.296 2.035-.086 3.421 1.718 2.778 3.618-.334.997-1.081 1.583-2.103 1.788-.329.065-.676.063-1.013.105-.907.105-1.822.146-2.729.291-1.073.173-1.964-.227-2.589-1.118-.634-.889-.647-1.849-.212-2.795zm31.663-10.952c1.068.547 1.63 1.525 1.548 2.608-.089 1.165-.702 1.943-1.775 2.366a2.342 2.342 0 0 1-.76.179c-.996.047-1.988.083-2.982.086-.56.002-1.08-.18-1.545-.511-.92-.671-1.333-1.765-1.064-2.84.276-1.091 1.136-1.929 2.24-2.034 1.091-.105 2.196-.105 3.292-.128.4-.01.778.113 1.046.274zm-124.636-20.995c-.965-.477-1.572-1.523-1.49-2.567a2.724 2.724 0 0 1 1.946-2.418c.3-.087.618-.118.931-.152 1.875-.213 3.752-.391 5.595-.83a2.955 2.955 0 0 1 2.34.395c.957.611 1.383 1.507 1.264 2.612-.121 1.109-.771 1.869-1.818 2.265a2.786 2.786 0 0 1-.61.155c-2.15.318-4.298.67-6.47.832-.594.044-1.157-.027-1.688-.292zm8.669 7.664c-.403.83-1.089 1.388-1.946 1.603-2.109.522-4.239 1.008-6.419 1.094-1.99.076-3.317-1.791-2.664-3.647.373-1.062 1.194-1.664 2.29-1.779 1.415-.147 2.787-.46 4.183-.688.445-.074.858-.229 1.281-.365a2.711 2.711 0 0 1 2.921.837c.699.823.835 1.969.354 2.945zm6.159-5.557c.355-.723.929-1.185 1.694-1.414a35.873 35.873 0 0 1 3.505-.856 5.998 5.998 0 0 0 1.554-.504 2.912 2.912 0 0 1 3.996 1.486c.625 1.51-.125 3.166-1.71 3.759a3.98 3.98 0 0 1-.679.2c-1.751.307-3.486.701-5.216 1.111-1.073.252-2.028.004-2.774-.842-.728-.831-.862-1.944-.37-2.94zm3.032 7.329c1.154.61 1.608 1.541 1.624 2.692.015 1.139-.503 2.017-1.505 2.574a4.69 4.69 0 0 1-1.17.447c-1.428.344-2.848.698-4.276 1.042-.909.215-1.78.115-2.531-.484-.826-.663-1.18-1.544-.988-2.585.2-1.096.879-1.835 1.949-2.161a39.553 39.553 0 0 1 2.513-.649c.639-.147 1.236-.328 1.796-.725.831-.596 1.762-.551 2.588-.151zm16.976 2.991c-.284.581-.71 1.039-1.302 1.315a5.706 5.706 0 0 1-1.025.381c-1.194.296-2.377.625-3.561.953-1.793.496-3.433-.653-3.53-2.43-.06-1.115.566-2.117 1.66-2.621.812-.376 1.678-.594 2.543-.799.462-.11.891-.257 1.304-.504 1.117-.67 2.377-.507 3.326.382.899.844 1.137 2.193.585 3.323zm-50.511-14.433c.316-.578.739-.991 1.302-1.248a3.71 3.71 0 0 1 1.204-.344c1.118-.105 2.24-.247 3.363-.296 2.035-.087 3.42 1.717 2.778 3.618-.334.996-1.081 1.583-2.104 1.787-.329.066-.676.063-1.012.105-.907.105-1.822.147-2.729.291-1.073.173-1.964-.226-2.59-1.118-.633-.889-.646-1.848-.212-2.795zm31.664-10.952c1.067.547 1.63 1.526 1.548 2.609-.09 1.165-.703 1.943-1.776 2.366a2.31 2.31 0 0 1-.759.178c-.997.047-1.988.084-2.982.086a2.611 2.611 0 0 1-1.546-.51c-.92-.671-1.332-1.765-1.064-2.84.277-1.091 1.137-1.93 2.241-2.035 1.091-.104 2.195-.104 3.292-.127.399-.011.778.113 1.046.273zm-125.768 60.491c-.965-.476-1.572-1.523-1.49-2.566a2.726 2.726 0 0 1 1.946-2.419c.3-.086.618-.118.931-.152 1.875-.212 3.752-.391 5.595-.829a2.955 2.955 0 0 1 2.34.395c.957.61 1.383 1.507 1.264 2.611-.121 1.11-.771 1.869-1.817 2.266a2.936 2.936 0 0 1-.61.155c-2.151.317-4.299.669-6.471.831-.594.045-1.157-.026-1.688-.292zm8.669 7.664c-.403.831-1.089 1.388-1.946 1.603-2.109.523-4.239 1.009-6.418 1.095-1.991.076-3.318-1.792-2.665-3.648.373-1.062 1.194-1.664 2.29-1.779 1.415-.147 2.787-.459 4.184-.688.444-.073.857-.228 1.28-.365a2.71 2.71 0 0 1 2.921.837c.699.823.835 1.97.354 2.945zm6.159-5.556c.355-.723.929-1.186 1.694-1.415a35.873 35.873 0 0 1 3.505-.856 5.96 5.96 0 0 0 1.554-.504 2.912 2.912 0 0 1 3.996 1.487c.625 1.509-.125 3.165-1.71 3.759a4.045 4.045 0 0 1-.679.2c-1.751.307-3.486.701-5.216 1.11-1.073.252-2.027.005-2.774-.842-.728-.831-.862-1.943-.37-2.939zm3.032 7.328c1.154.61 1.608 1.541 1.624 2.693.015 1.138-.503 2.016-1.505 2.573a4.675 4.675 0 0 1-1.17.447c-1.428.344-2.848.699-4.275 1.043-.91.215-1.78.115-2.532-.485-.826-.663-1.18-1.544-.988-2.585.2-1.096.879-1.835 1.949-2.16.828-.25 1.667-.455 2.514-.649.639-.147 1.235-.328 1.796-.725.831-.597 1.761-.552 2.587-.152zm16.976 2.992c-.284.581-.71 1.038-1.302 1.314a5.706 5.706 0 0 1-1.025.381c-1.194.297-2.377.625-3.56.953-1.794.497-3.434-.653-3.531-2.43-.06-1.115.566-2.116 1.66-2.621.813-.376 1.678-.593 2.543-.798.463-.111.891-.258 1.304-.505 1.118-.67 2.377-.507 3.326.382.899.845 1.138 2.194.585 3.324zm-50.511-14.433c.316-.579.739-.991 1.302-1.249a3.717 3.717 0 0 1 1.204-.344c1.118-.105 2.24-.246 3.363-.296 2.035-.086 3.42 1.718 2.778 3.619-.334.996-1.081 1.582-2.104 1.787-.328.065-.675.063-1.012.105-.907.105-1.822.146-2.729.291-1.073.173-1.964-.227-2.59-1.118-.633-.889-.646-1.849-.212-2.795zm31.664-10.952c1.067.547 1.63 1.525 1.548 2.608-.09 1.165-.703 1.943-1.775 2.366-.24.097-.505.168-.76.179-.997.047-1.988.083-2.982.086-.56.002-1.08-.18-1.546-.511-.92-.671-1.332-1.765-1.064-2.84.277-1.091 1.137-1.929 2.241-2.034 1.091-.105 2.195-.105 3.292-.128.399-.01.778.113 1.046.274zm627.973 25.406c-.965-.476-1.572-1.523-1.49-2.567a2.725 2.725 0 0 1 1.947-2.418c.299-.087.617-.118.93-.152 1.875-.213 3.752-.391 5.595-.829a2.95 2.95 0 0 1 2.34.395c.957.61 1.383 1.507 1.264 2.611-.121 1.109-.771 1.869-1.817 2.266a2.936 2.936 0 0 1-.61.155c-2.151.317-4.299.669-6.471.831-.594.045-1.157-.026-1.688-.292zm8.669 7.664c-.402.831-1.089 1.388-1.946 1.603-2.109.523-4.239 1.009-6.418 1.095-1.991.076-3.318-1.792-2.665-3.648.374-1.062 1.194-1.664 2.29-1.779 1.415-.147 2.787-.459 4.184-.688.444-.073.857-.228 1.28-.365a2.71 2.71 0 0 1 2.921.837c.699.823.836 1.97.354 2.945zm6.159-5.557c.355-.722.929-1.185 1.694-1.414a35.873 35.873 0 0 1 3.505-.856 5.96 5.96 0 0 0 1.554-.504 2.912 2.912 0 0 1 3.996 1.487c.625 1.509-.125 3.165-1.71 3.759a4.073 4.073 0 0 1-.679.2c-1.751.307-3.486.701-5.216 1.11-1.073.252-2.027.005-2.774-.842-.728-.831-.862-1.943-.37-2.94zm3.032 7.329c1.154.61 1.609 1.541 1.624 2.693.016 1.138-.502 2.016-1.504 2.573a4.69 4.69 0 0 1-1.17.447c-1.428.344-2.848.699-4.276 1.043-.909.215-1.78.115-2.531-.485-.826-.663-1.181-1.544-.988-2.585.2-1.096.878-1.835 1.949-2.16a38.25 38.25 0 0 1 2.513-.649c.639-.147 1.236-.328 1.796-.725.831-.597 1.762-.552 2.587-.152zm16.976 2.992c-.284.581-.71 1.038-1.302 1.314a5.706 5.706 0 0 1-1.025.381c-1.194.297-2.377.625-3.56.953-1.794.497-3.434-.653-3.531-2.43-.06-1.115.566-2.116 1.66-2.621.813-.376 1.678-.594 2.543-.798.462-.111.891-.258 1.304-.505 1.118-.67 2.377-.507 3.326.382.899.845 1.138 2.194.585 3.324zm-50.51-14.433c.315-.579.739-.991 1.301-1.249a3.716 3.716 0 0 1 1.205-.344c1.117-.105 2.24-.246 3.363-.296 2.035-.086 3.42 1.718 2.778 3.619-.335.996-1.081 1.582-2.104 1.787-.329.065-.676.063-1.013.105-.907.105-1.822.146-2.729.291-1.073.173-1.964-.227-2.589-1.118-.634-.889-.646-1.849-.212-2.795zm31.664-10.952c1.067.547 1.629 1.525 1.547 2.608-.089 1.165-.702 1.943-1.775 2.366a2.342 2.342 0 0 1-.76.179c-.996.047-1.988.083-2.981.086a2.619 2.619 0 0 1-1.546-.511c-.92-.671-1.333-1.765-1.064-2.84.276-1.091 1.136-1.929 2.24-2.034 1.092-.105 2.196-.105 3.292-.128.4-.01.778.113 1.047.274z" fill="#E1E4E5"/><path d="M224.752 280.762s-12.172-46.694 6.62-67.788c20.183-22.692 35.266-.301 19.39 31.655-10.887 21.938-26.01 36.133-26.01 36.133zm-7.828 51.722s-42.072-23.745-44.062-51.842c-2.158-30.186 24.485-25.406 36.353 8.163 8.101 23.018 7.709 43.679 7.709 43.679zm.067 30.684s45.63-16.318 52.554-43.64c7.456-29.384-19.657-29.148-37.239 1.907-12.033 21.297-15.315 41.733-15.315 41.733zm2.254 22.181s-48.26-3.882-61.907-28.477c-14.68-26.464 11.575-33.27 36.48-7.847 17.066 17.402 25.427 36.324 25.427 36.324z" fill="#dfa1ac"/><path d="M234.348 239.197c-9.412 29.26-16.548 59.322-18.837 89.992-2.243 30.191.356 60.474 6.3 90.096 1.545 7.773 3.336 15.516 5.281 23.179l2.932-1.518c-5.118-20.406-9.061-41.127-10.925-62.114-2.611-29.172-.889-58.542 4.75-87.276 3.422-17.392 8.13-34.506 13.552-51.374.636-1.986-2.43-2.931-3.053-.985z" fill="#31446C"/><path d="M300.579 307.923s-12.172-46.693 6.62-67.787c20.183-22.692 35.266-.301 19.39 31.655-10.886 21.938-26.01 36.132-26.01 36.132zm-7.828 51.722s-42.072-23.744-44.062-51.841c-2.158-30.186 24.486-25.406 36.353 8.163 8.101 23.018 7.709 43.678 7.709 43.678zm.067 30.684s45.63-16.317 52.554-43.64c7.456-29.383-19.656-29.147-37.239 1.908-12.033 21.297-15.315 41.732-15.315 41.732zm2.254 22.182s-48.26-3.882-61.907-28.477c-14.68-26.464 11.575-33.27 36.48-7.847 17.066 17.402 25.427 36.324 25.427 36.324z" fill="#dfa1ac"/><path d="M310.175 266.359c-9.411 29.259-16.548 59.322-18.836 89.992-2.243 30.191.356 60.473 6.299 90.096 1.546 7.773 3.336 15.515 5.282 23.179l2.932-1.519c-5.118-20.405-9.062-41.127-10.925-62.113-2.611-29.172-.889-58.542 4.749-87.277 3.423-17.391 8.131-34.506 13.553-51.374.636-1.985-2.43-2.93-3.054-.984z" fill="#31446C"/><path d="M738.003 381.457s-7.547-28.951 4.105-42.031c12.514-14.07 21.866-.187 12.022 19.628-6.75 13.602-16.127 22.403-16.127 22.403zm-4.854 32.071s-26.087-14.723-27.32-32.145c-1.338-18.716 15.182-15.752 22.54 5.062 5.023 14.272 4.78 27.083 4.78 27.083zm.042 19.025s28.292-10.118 32.586-27.059c4.623-18.219-12.188-18.072-23.09 1.183-7.461 13.205-9.496 25.876-9.496 25.876zm1.397 13.753s-29.923-2.407-38.385-17.657c-9.102-16.408 7.177-20.629 22.619-4.865 10.582 10.79 15.766 22.522 15.766 22.522z" fill="#dfa1ac"/><path d="M743.953 355.686c-5.835 18.142-10.26 36.782-11.679 55.799-1.391 18.72.221 37.496 3.906 55.863.958 4.82 2.068 9.621 3.274 14.372l1.818-.941c-3.173-12.653-5.618-25.501-6.774-38.513-1.619-18.088-.551-36.299 2.945-54.116 2.123-10.783 5.041-21.395 8.404-31.854.394-1.231-1.507-1.817-1.894-.61z" fill="#31446C"/><path d="M807.039 409.751s-7.547-28.952 4.105-42.032c12.514-14.069 21.866-.186 12.023 19.628-6.751 13.603-16.128 22.404-16.128 22.404zm-4.854 32.07s-26.086-14.722-27.32-32.144c-1.338-18.717 15.182-15.753 22.541 5.061 5.023 14.272 4.779 27.083 4.779 27.083zm.042 19.025s28.293-10.117 32.586-27.058c4.623-18.219-12.188-18.073-23.09 1.182-7.461 13.205-9.496 25.876-9.496 25.876zm1.397 13.754s-29.923-2.407-38.385-17.657c-9.102-16.409 7.178-20.629 22.619-4.865 10.582 10.79 15.766 22.522 15.766 22.522z" fill="#dfa1ac"/><path d="M812.989 383.979c-5.835 18.142-10.26 36.782-11.679 55.799-1.391 18.72.221 37.496 3.906 55.864a282.2 282.2 0 0 0 3.274 14.372l1.819-.942c-3.174-12.652-5.619-25.5-6.775-38.513-1.619-18.088-.551-36.298 2.945-54.115 2.123-10.784 5.042-21.396 8.404-31.854.394-1.231-1.507-1.818-1.894-.611z" fill="#31446C"/><path d="M673.095 305.813s-9.971-38.248 5.423-55.527c16.532-18.588 28.887-.247 15.883 25.93-8.918 17.97-21.306 29.597-21.306 29.597zm-6.413 42.368s-34.463-19.449-36.093-42.465c-1.767-24.727 20.057-20.812 29.779 6.686 6.636 18.855 6.314 35.779 6.314 35.779zm.055 25.135s37.377-13.367 43.049-35.748c6.108-24.069-16.101-23.875-30.504 1.562-9.857 17.446-12.545 34.186-12.545 34.186zm1.846 18.169s-39.531-3.18-50.71-23.327c-12.025-21.677 9.482-27.252 29.882-6.427 13.979 14.255 20.828 29.754 20.828 29.754z" fill="#dfa1ac"/><path d="M680.955 271.767c-7.709 23.967-13.555 48.592-15.43 73.715-1.837 24.731.292 49.537 5.16 73.802 1.266 6.367 2.733 12.709 4.327 18.986l2.401-1.243c-4.192-16.715-7.422-33.689-8.949-50.88-2.139-23.896-.728-47.954 3.891-71.492 2.804-14.246 6.66-28.265 11.101-42.082.521-1.626-1.99-2.401-2.501-.806z" fill="#31446C"/><path d="M135.804 375.873s-21.085-33.433-11.647-54.562c10.128-22.722 27.457-8.983 22.99 19.903-3.057 19.826-11.343 34.659-11.343 34.659zm6.719 42.321s-38.735-8.1-47.258-29.542c-9.172-23.03 12.813-25.908 30.405-2.645 12.034 15.96 16.853 32.187 16.853 32.187zm7.665 23.937s31.574-24.058 30.202-47.106c-1.469-24.788-22.576-17.878-28.599 10.727-4.111 19.611-1.603 36.379-1.603 36.379zm7.261 16.757s-38.638 8.941-55.393-6.874c-18.025-17.018.783-28.845 26.532-15.175 17.64 9.352 28.861 22.049 28.861 22.049z" fill="#dfa1ac"/><path d="M132.985 341.044c-.089 25.177 1.797 50.417 7.619 74.927 5.738 24.126 15.279 47.122 27.267 68.774 3.135 5.684 6.453 11.285 9.873 16.785l1.912-1.913c-9.057-14.661-17.276-29.859-23.936-45.78-9.276-22.126-15.217-45.482-17.943-69.313-1.642-14.426-2.212-28.955-2.163-43.469.003-1.707-2.625-1.685-2.629-.011z" fill="#31446C"/><path d="M315.277 488.632c.258-.782.8-1.41 1.212-2.103 3.057-5.214 5.677-10.629 7.682-16.343 1.221-3.473 2.426-6.954 3.242-10.548.72-3.159 1.343-6.334 1.666-9.566.17-1.676.332-3.344.388-5.028.033-.903.186-1.805.114-2.708-.138-1.644-.089-3.304-.526-4.915-.081-.299-.162-.605-.283-.887-.687-1.652-2.232-1.982-3.542-.781-.63.58-1.083 1.289-1.504 2.022-1.948 3.393-3.566 6.947-4.997 10.581-2.199 5.576-4.18 11.233-6.024 16.931-.331 1.031-.655 2.071-1.124 3.094 0-.556-.081-1.128.017-1.668.153-.782.105-1.555.153-2.329.299-4.803.259-9.614.138-14.424-.049-1.918-.227-3.852-.453-5.77-.154-1.298-.267-2.603-.445-3.893-.526-3.731-1.043-7.47-2.442-11.007-.275-.701-.639-1.362-1.172-1.902-1.076-1.104-2.41-1.024-3.388.185-.946 1.169-1.407 2.571-1.812 3.981-.501 1.773-.76 3.586-.994 5.415-.396 3.095-.485 6.205-.598 9.324-.073 2.119-.154 4.247-.089 6.366.072 2.369.064 4.747.194 7.116.129 2.369.21 4.73.331 7.099 0 .065-.016.121-.04.266-.324-.524-.364-1.064-.485-1.563-1.496-6.294-3.413-12.459-5.944-18.414-1.568-3.682-3.307-7.285-5.708-10.524-.97-1.314-2.005-2.571-3.437-3.409-.76-.443-1.56-.79-2.49-.548-.97.25-1.536.911-1.876 1.805-.485 1.282-.606 2.619-.493 3.957.178 2.111.469 4.207.881 6.286.752 3.803 1.868 7.502 3.234 11.128 2.523 6.713 5.418 13.289 8.191 19.913.122.282.316.548.251.886.097.016.146.073.146.161 0 .025-.057.049-.089.073-.025-.081-.041-.153-.065-.234-.534-.37-.784-.967-1.132-1.466-1.9-2.716-3.857-5.383-6.008-7.906-2.094-2.45-4.269-4.827-7.043-6.551-.986-.613-1.997-1.177-3.218-1.169-1.382.008-2.32.629-2.757 1.958-.283.863-.356 1.733-.251 2.66.356 3.062 1.634 5.745 3.259 8.284 2.264 3.529 4.884 6.785 7.69 9.904 2.813 3.126 5.999 5.834 9.29 8.429 2.919 2.305 5.79 4.674 8.676 7.011a32.908 32.908 0 0 0 2.402 1.797c.833.564 1.722.701 2.676.435 3.801-1.08 7.536-2.297 11.038-4.166 2.741-1.467 5.288-3.208 7.689-5.182 2.305-1.886 4.52-3.86 6.55-6.036 1.787-1.926 3.469-3.94 4.69-6.285.388-.742.566-1.515.485-2.345-.081-.838-.72-1.548-1.561-1.628-.711-.065-1.431-.057-2.135.169-1.884.605-3.468 1.725-4.972 2.95-3.34 2.731-6.655 5.487-9.825 8.413-.938.87-1.916 1.7-2.878 2.546-.122.105-.243.201-.405.218-.04.145-.097.266-.258.314a.15.15 0 0 1-.033.064c-.008.008-.032.008-.048.008.032-.024.065-.04.097-.064-.041-.153.016-.282.162-.387zm-133.428 17.132c.177-.541.547-.976.829-1.456 2.092-3.609 3.884-7.358 5.256-11.314.836-2.404 1.66-4.814 2.219-7.303.492-2.187.918-4.385 1.14-6.622.116-1.16.226-2.315.265-3.481.022-.625.127-1.25.078-1.875-.095-1.138-.061-2.287-.36-3.403-.055-.206-.111-.418-.194-.613-.47-1.144-1.527-1.373-2.423-.542-.431.402-.741.893-1.029 1.401-1.333 2.348-2.44 4.809-3.419 7.325-1.505 3.86-2.86 7.777-4.122 11.721-.227.714-.448 1.434-.769 2.142 0-.384-.055-.781.011-1.154.105-.542.072-1.077.105-1.613.205-3.325.178-6.655.095-9.986a44.337 44.337 0 0 0-.31-3.994c-.105-.899-.183-1.802-.305-2.695-.359-2.583-.713-5.172-1.67-7.621-.188-.485-.437-.943-.803-1.317-.735-.764-1.648-.708-2.318.129-.647.809-.962 1.779-1.239 2.756-.343 1.227-.52 2.482-.68 3.749-.272 2.142-.332 4.296-.41 6.455-.05 1.467-.105 2.94-.061 4.407.05 1.64.045 3.286.133 4.926.089 1.64.144 3.275.227 4.915 0 .045-.011.084-.028.184-.221-.362-.249-.736-.332-1.082-1.023-4.357-2.334-8.625-4.066-12.748-1.073-2.549-2.263-5.043-3.906-7.286-.664-.909-1.372-1.78-2.351-2.36-.52-.307-1.068-.547-1.704-.379-.664.173-1.051.63-1.284 1.249-.332.888-.415 1.814-.337 2.74a39.61 39.61 0 0 0 .603 4.351c.514 2.634 1.278 5.194 2.213 7.705 1.726 4.647 3.707 9.199 5.604 13.785.083.196.216.38.172.614.066.011.099.05.099.112 0 .016-.038.033-.061.05-.016-.056-.027-.106-.044-.162-.365-.257-.537-.669-.774-1.015-1.301-1.88-2.639-3.727-4.111-5.473-1.433-1.696-2.921-3.342-4.819-4.536-.675-.424-1.366-.814-2.202-.809-.946.006-1.588.435-1.886 1.356a4.286 4.286 0 0 0-.172 1.841c.244 2.12 1.118 3.978 2.23 5.735 1.549 2.444 3.341 4.697 5.261 6.857 1.925 2.164 4.105 4.039 6.357 5.835 1.997 1.596 3.961 3.236 5.936 4.854.531.435 1.074.859 1.643 1.244a2.09 2.09 0 0 0 1.832.301c2.6-.747 5.156-1.59 7.551-2.884a32.232 32.232 0 0 0 5.262-3.587c1.577-1.306 3.092-2.673 4.481-4.179 1.223-1.333 2.373-2.728 3.209-4.352a2.868 2.868 0 0 0 .332-1.623c-.056-.58-.493-1.071-1.068-1.127-.487-.045-.979-.039-1.461.117-1.289.419-2.373 1.194-3.402 2.042-2.285 1.891-4.553 3.799-6.722 5.824-.642.603-1.311 1.178-1.969 1.763-.083.073-.166.14-.277.151-.028.1-.066.184-.177.218-.006.016-.011.033-.022.044-.006.006-.022.006-.033.006.022-.017.044-.028.066-.045-.028-.106.011-.195.111-.268zm565.871-10.185c.177-.542.548-.977.83-1.457 2.091-3.609 3.884-7.358 5.256-11.314.835-2.404 1.66-4.814 2.218-7.302.493-2.187.919-4.386 1.14-6.623.116-1.16.227-2.315.266-3.481.022-.625.127-1.25.077-1.874-.094-1.139-.061-2.288-.36-3.404-.055-.206-.11-.418-.193-.613-.47-1.144-1.527-1.373-2.423-.541-.432.401-.742.892-1.029 1.4-1.334 2.349-2.44 4.809-3.419 7.325-1.505 3.861-2.861 7.777-4.122 11.721-.227.714-.448 1.434-.769 2.143 0-.385-.055-.781.011-1.155.105-.541.072-1.077.105-1.612.205-3.326.177-6.656.094-9.987-.033-1.328-.155-2.666-.31-3.994-.105-.898-.182-1.802-.304-2.695-.36-2.583-.714-5.172-1.671-7.621-.188-.485-.437-.943-.802-1.316-.736-.765-1.649-.709-2.318.128-.647.809-.963 1.78-1.239 2.756-.343 1.227-.52 2.483-.681 3.749-.271 2.142-.332 4.296-.409 6.455-.05 1.467-.105 2.94-.061 4.407.05 1.64.044 3.286.133 4.926.088 1.641.144 3.275.227 4.915 0 .045-.012.084-.028.185-.221-.363-.249-.737-.332-1.083-1.024-4.357-2.335-8.625-4.066-12.748-1.074-2.549-2.263-5.043-3.906-7.286-.664-.909-1.372-1.779-2.352-2.36-.52-.306-1.067-.546-1.704-.379-.664.173-1.051.63-1.283 1.25-.332.887-.415 1.813-.338 2.739.122 1.462.321 2.912.603 4.352.515 2.633 1.278 5.193 2.213 7.704 1.726 4.647 3.707 9.2 5.605 13.786.083.195.215.379.171.613.067.011.1.05.1.112 0 .017-.039.033-.061.05-.017-.056-.028-.106-.044-.162-.365-.256-.537-.669-.775-1.015-1.3-1.88-2.639-3.727-4.11-5.473-1.433-1.696-2.922-3.342-4.819-4.536-.675-.424-1.367-.814-2.202-.809-.946.006-1.588.435-1.887 1.356a4.301 4.301 0 0 0-.171 1.841c.243 2.12 1.117 3.978 2.229 5.735 1.549 2.444 3.342 4.698 5.262 6.857 1.925 2.164 4.105 4.039 6.357 5.835 1.997 1.596 3.961 3.236 5.936 4.854a22.34 22.34 0 0 0 1.643 1.244c.57.391 1.178.485 1.831.301 2.6-.747 5.156-1.59 7.552-2.884a32.098 32.098 0 0 0 5.261-3.587c1.577-1.306 3.093-2.673 4.482-4.179 1.222-1.333 2.373-2.728 3.208-4.351a2.856 2.856 0 0 0 .332-1.624c-.055-.58-.492-1.071-1.067-1.127-.487-.044-.98-.039-1.461.117-1.289.419-2.373 1.194-3.402 2.042-2.285 1.891-4.554 3.799-6.722 5.825-.642.602-1.311 1.177-1.97 1.763-.083.072-.166.139-.276.15-.028.101-.067.184-.178.218a.107.107 0 0 1-.022.044c-.005.006-.022.006-.033.006.022-.017.044-.028.067-.045-.028-.106.011-.195.11-.267z" fill="#dfa1ac"/><defs><linearGradient id="a" x1="472.773" y1="682.263" x2="460.439" y2="-377.132" gradientUnits="userSpaceOnUse"><stop stop-color="#fff"/><stop offset="1" stop-color="#EEE"/></linearGradient></defs></svg>