<svg id="Layer_1" data-name="Layer 1" xmlns="http://www.w3.org/2000/svg" viewBox="0 0 200 200"><title>Covid-19 - Medical Icons Pack - Scene 1</title><rect x="65.81" y="36.55" width="56.13" height="128.31" rx="8.44" transform="translate(104.55 -36.55) rotate(47.44)" fill="#fff"/><rect x="65.81" y="36.55" width="56.13" height="128.31" rx="8.44" transform="translate(-43.39 90.03) rotate(-42.56)" fill="#fff"/><rect x="80.23" y="35.14" width="56.13" height="128.31" rx="8.44" transform="translate(-38.63 99.42) rotate(-42.56)" fill="#4FDDD1"/><path d="M53.87,100.71l38,40-19,18s-9,8-17-3-22.52-26.06-22.52-26.06S28,123.12,38,113.92A162.08,162.08,0,0,1,53.87,100.71Z" fill="#04283c" stroke="#04283c" stroke-miterlimit="10" stroke-width="2"/><path d="M130.17,140.58l-9.39,8.62a5.33,5.33,0,0,1-7.53-.32l-5-5.39" fill="none" stroke="#04283c" stroke-linecap="round" stroke-linejoin="round" stroke-width="6"/><path d="M76.55,140.58l-9.39,8.62a5.33,5.33,0,0,1-7.53-.32l-5-5.39" fill="none" stroke="#fff" stroke-linecap="round" stroke-linejoin="round" stroke-width="6"/><path d="M133,64l-8.64-9.37a5.33,5.33,0,0,0-7.53-.3l-5.38,5" fill="none" stroke="#04283c" stroke-linecap="round" stroke-linejoin="round" stroke-width="6"/><path d="M57.79,60.85l-9.61,8.38a5.34,5.34,0,0,0-.51,7.52l4.81,5.52" fill="none" stroke="#04283c" stroke-linecap="round" stroke-linejoin="round" stroke-width="6"/><rect x="65.81" y="36.55" width="56.13" height="128.31" rx="8.44" transform="translate(104.55 -36.55) rotate(47.44)" stroke-width="6" stroke="#04283c" stroke-linecap="round" stroke-linejoin="round" fill="none"/><rect x="65.81" y="36.55" width="56.13" height="128.31" rx="8.44" transform="translate(-43.39 90.03) rotate(-42.56)" stroke-width="6" stroke="#04283c" stroke-linecap="round" stroke-linejoin="round" fill="none"/><circle cx="76.55" cy="102.69" r="3.8" fill="#04283c" stroke="#04283c" stroke-miterlimit="10" stroke-width="2"/><circle cx="96.94" cy="83.72" r="3.8" fill="#04283c" stroke="#04283c" stroke-miterlimit="10" stroke-width="2"/><circle cx="92.07" cy="119.38" r="3.8" fill="#04283c" stroke="#04283c" stroke-miterlimit="10" stroke-width="2"/><circle cx="112.47" cy="100.41" r="3.8" fill="#04283c" stroke="#04283c" stroke-miterlimit="10" stroke-width="2"/></svg>