<svg class="animated" id="freepik_stories-happy-student" xmlns="http://www.w3.org/2000/svg" viewBox="0 0 500 500" version="1.1" xmlns:xlink="http://www.w3.org/1999/xlink" xmlns:svgjs="http://svgjs.com/svgjs"><style>svg#freepik_stories-happy-student:not(.animated) .animable {opacity: 0;}svg#freepik_stories-happy-student.animated #freepik--Floor--inject-400 {animation: 1.5s Infinite  linear floating;animation-delay: 0s;}svg#freepik_stories-happy-student.animated #freepik--character-3--inject-400 {animation: 1s 1 forwards cubic-bezier(.36,-0.01,.5,1.38) slideUp;animation-delay: 0s;}svg#freepik_stories-happy-student.animated #freepik--character-2--inject-400 {animation: 1s 1 forwards cubic-bezier(.36,-0.01,.5,1.38) slideUp;animation-delay: 0s;}svg#freepik_stories-happy-student.animated #freepik--character-1--inject-400 {animation: 1s 1 forwards cubic-bezier(.36,-0.01,.5,1.38) slideUp;animation-delay: 0s;}            @keyframes floating {                0% {                    opacity: 1;                    transform: translateY(0px);                }                50% {                    transform: translateY(-10px);                }                100% {                    opacity: 1;                    transform: translateY(0px);                }            }                    @keyframes slideUp {                0% {                    opacity: 0;                    transform: translateY(30px);                }                100% {                    opacity: 1;                    transform: inherit;                }            }        </style><g id="freepik--background-complete--inject-400" class="animable" style="transform-origin: 244.625px 265.674px;"><path d="M381.17,466.86c-1.44-1.23-4.65-5.14-2.17-9.69.91-1.66,2.83-2.49,4.57-3.22a18.27,18.27,0,0,0,5-2.6c2.72-2.31,3.47-6.16,5.28-9.25,2.07-3.54,5.94-6.2,10-6,4.68.21,8.59,4,10.36,8.39s1.83,9.21,1.87,13.91c0,2.61-.1,5.54-2,7.3s-4.42,1.64-6.8,1.57l-25.59-.79" style="fill: rgb(245, 245, 245); transform-origin: 397.084px 451.696px;" id="el3nepxvwlm5p" class="animable"></path><path d="M430.11,396.5H362.82l12.12,72.27a8.08,8.08,0,0,0,5.74,6.44l.24.06c.2.05.39.12.6.16a8.7,8.7,0,0,0,1.37.16v.06l.33,0h30a9,9,0,0,0,1.65-.16,8.1,8.1,0,0,0,6.8-7.06l5.85-49.8.26-2h0l2.31-19.72Zm-12.7,46.1h-6.9l.69-21h8Zm2.46-21h6.62l-2.47,21h-5.94Zm-19.72,44.23-.42-18.23h9.94l-.6,18.23ZM389.4,447.63h9.66l.42,18.23h-8.67Zm.74,18.23H382l-2.85-18.23h9.54ZM389,442.6l-1.63-21h11.08l.48,21Zm10.6,0-.48-21h11.41l-.7,21Zm-.6-26-.44-19.43h12.78l-.65,19.43Zm-.67,0H387l-1.5-19.43H397.9Zm-12,0h-12c-.43-2.69-.83-5.23-1.2-7.51-1.25-7.85-1.72-10.81-2-11.92h13.69Zm.39,5,1.63,21H378.4c-.34-2.13-.68-4.28-1-6.43-.78-4.95-1.56-9.9-2.3-14.54Zm-9,21h-6.49l-3.52-21h6.71C375.44,428.11,376.58,435.32,377.72,442.6Zm.79,5c1,6.31,2,12.53,2.86,18.23h-6.24l-3.06-18.23Zm31.22,18.23.61-18.23H417l-1.55,18.23Zm1.64-49.26.65-19.43h9.27l-1.66,19.43Zm-40.89-19.43c.27,1.41,1.49,9.05,3.14,19.43h-6.75l-3.26-19.43Zm50.82,68.69h-5.2l1.55-18.23h5.78Zm5.78-49.26H420.3L422,397.17h7.4Z" style="fill: rgb(224, 224, 224); transform-origin: 396.465px 436.075px;" id="ela665wjoybbb" class="animable"></path><rect x="324.31" y="59.66" width="127.16" height="200.96" style="fill: rgb(224, 224, 224); transform-origin: 387.89px 160.14px;" id="elt8vmqv9g6nr" class="animable"></rect><rect x="327.74" y="63.44" width="119.87" height="193.88" style="fill: rgb(245, 245, 245); transform-origin: 387.675px 160.38px;" id="elcr8xvacn1su" class="animable"></rect><rect x="387.68" y="74.73" width="47.8" height="74.17" style="fill: rgb(255, 255, 255); transform-origin: 411.58px 111.815px;" id="elzn6ijkd6aup" class="animable"></rect><path d="M414.12,81.29a1.79,1.79,0,1,1-1.79-1.79A1.79,1.79,0,0,1,414.12,81.29Z" style="fill: rgb(224, 224, 224); transform-origin: 412.33px 81.29px;" id="ell25v2f5ml5" class="animable"></path><rect x="339.5" y="169.54" width="47.8" height="74.17" style="fill: rgb(255, 255, 255); transform-origin: 363.4px 206.625px;" id="el54sckgychzs" class="animable"></rect><path d="M366,176.1a1.79,1.79,0,1,1-1.79-1.78A1.79,1.79,0,0,1,366,176.1Z" style="fill: rgb(224, 224, 224); transform-origin: 364.21px 176.11px;" id="elbgtiem5arg" class="animable"></path><rect x="338.86" y="74.73" width="40.82" height="57.92" style="fill: rgb(255, 255, 255); transform-origin: 359.27px 103.69px;" id="elocq2wgv6qyr" class="animable"></rect><path d="M360.75,80a1.48,1.48,0,1,1-1.48-1.48A1.48,1.48,0,0,1,360.75,80Z" style="fill: rgb(224, 224, 224); transform-origin: 359.27px 80px;" id="elucvxxrwjhc" class="animable"></path><g id="elw03k6bfn7kb"><rect x="394.61" y="172.95" width="43.94" height="24.34" style="fill: rgb(255, 255, 255); transform-origin: 416.58px 185.12px; transform: rotate(-6.44deg);" class="animable"></rect></g><path d="M417.25,177.61a1.52,1.52,0,1,1-1.51-1.51A1.52,1.52,0,0,1,417.25,177.61Z" style="fill: rgb(224, 224, 224); transform-origin: 415.73px 177.62px;" id="el95ihju46wc" class="animable"></path><path d="M380.93,186.46c0,.2-7.51.36-16.77.36s-16.76-.16-16.76-.36,7.5-.35,16.76-.35S380.93,186.27,380.93,186.46Z" style="fill: rgb(224, 224, 224); transform-origin: 364.165px 186.465px;" id="elbf4t5m96875" class="animable"></path><path d="M380.93,191.77c0,.2-7.51.36-16.77.36s-16.76-.16-16.76-.36,7.5-.36,16.76-.36S380.93,191.57,380.93,191.77Z" style="fill: rgb(224, 224, 224); transform-origin: 364.165px 191.77px;" id="elaawitvjfoag" class="animable"></path><path d="M380.93,197.08c0,.19-7.51.35-16.77.35s-16.76-.16-16.76-.35,7.5-.36,16.76-.36S380.93,196.88,380.93,197.08Z" style="fill: rgb(224, 224, 224); transform-origin: 364.165px 197.075px;" id="elivcaxq3nbwb" class="animable"></path><path d="M380.93,202.38c0,.2-7.51.36-16.77.36s-16.76-.16-16.76-.36,7.5-.35,16.76-.35S380.93,202.19,380.93,202.38Z" style="fill: rgb(224, 224, 224); transform-origin: 364.165px 202.385px;" id="elrvv1zcbkh3" class="animable"></path><path d="M380.93,207.69c0,.2-7.51.36-16.77.36s-16.76-.16-16.76-.36,7.5-.36,16.76-.36S380.93,207.49,380.93,207.69Z" style="fill: rgb(224, 224, 224); transform-origin: 364.165px 207.69px;" id="el01k0ivtljazp" class="animable"></path><path d="M380.93,213c0,.19-7.51.35-16.77.35s-16.76-.16-16.76-.35,7.5-.36,16.76-.36S380.93,212.8,380.93,213Z" style="fill: rgb(224, 224, 224); transform-origin: 364.165px 212.995px;" id="el635ixf22dby" class="animable"></path><path d="M380.93,218.3c0,.2-7.51.36-16.77.36s-16.76-.16-16.76-.36,7.5-.35,16.76-.35S380.93,218.11,380.93,218.3Z" style="fill: rgb(224, 224, 224); transform-origin: 364.165px 218.305px;" id="elwf6cut12x3j" class="animable"></path><path d="M433,180.78c0,.19-7.39,1.4-16.55,2.69s-16.63,2.19-16.65,2,7.38-1.4,16.55-2.69S432.93,180.58,433,180.78Z" style="fill: rgb(224, 224, 224); transform-origin: 416.4px 183.124px;" id="elrfg2l8pw458" class="animable"></path><path d="M433.62,184.1c0,.19-7.38,1.4-16.55,2.69s-16.62,2.19-16.65,2,7.38-1.4,16.55-2.69S433.59,183.9,433.62,184.1Z" style="fill: rgb(224, 224, 224); transform-origin: 417.02px 186.444px;" id="el871ni2co4x7" class="animable"></path><path d="M434.23,187.16c0,.2-7.38,1.4-16.55,2.7s-16.62,2.18-16.65,2,7.38-1.4,16.55-2.7S434.2,187,434.23,187.16Z" style="fill: rgb(224, 224, 224); transform-origin: 417.63px 189.512px;" id="elrfbo1mma6ot" class="animable"></path><path d="M431.27,90.25c0,.19-8.48.35-18.93.35s-18.94-.16-18.94-.35,8.47-.36,18.94-.36S431.27,90.05,431.27,90.25Z" style="fill: rgb(224, 224, 224); transform-origin: 412.335px 90.245px;" id="elnlg44vq6u8n" class="animable"></path><path d="M431.27,93.4c0,.2-8.48.36-18.93.36s-18.94-.16-18.94-.36,8.47-.35,18.94-.35S431.27,93.2,431.27,93.4Z" style="fill: rgb(224, 224, 224); transform-origin: 412.335px 93.405px;" id="el6n1s31rzra4" class="animable"></path><path d="M431.27,96.56c0,.19-8.48.35-18.93.35s-18.94-.16-18.94-.35,8.47-.36,18.94-.36S431.27,96.36,431.27,96.56Z" style="fill: rgb(224, 224, 224); transform-origin: 412.335px 96.555px;" id="el8awluy37n6u" class="animable"></path><path d="M431.27,99.71c0,.2-8.48.36-18.93.36s-18.94-.16-18.94-.36,8.47-.35,18.94-.35S431.27,99.52,431.27,99.71Z" style="fill: rgb(224, 224, 224); transform-origin: 412.335px 99.715px;" id="el20gfbydvnxb" class="animable"></path><path d="M431.27,102.87c0,.19-8.48.35-18.93.35s-18.94-.16-18.94-.35,8.47-.36,18.94-.36S431.27,102.67,431.27,102.87Z" style="fill: rgb(224, 224, 224); transform-origin: 412.335px 102.865px;" id="elikkzmigq21s" class="animable"></path><path d="M431.27,106c0,.2-8.48.36-18.93.36s-18.94-.16-18.94-.36,8.47-.35,18.94-.35S431.27,105.83,431.27,106Z" style="fill: rgb(224, 224, 224); transform-origin: 412.335px 106.005px;" id="elfbxejs1op09" class="animable"></path><path d="M431.27,109.18c0,.19-8.48.35-18.93.35s-18.94-.16-18.94-.35,8.47-.36,18.94-.36S431.27,109,431.27,109.18Z" style="fill: rgb(224, 224, 224); transform-origin: 412.335px 109.175px;" id="elkxuithqpxx" class="animable"></path><path d="M431.27,118.54c0,.2-8.48.36-18.93.36s-18.94-.16-18.94-.36,8.47-.35,18.94-.35S431.27,118.35,431.27,118.54Z" style="fill: rgb(224, 224, 224); transform-origin: 412.335px 118.545px;" id="el1pz6fvmnzph" class="animable"></path><path d="M431.54,121.87c0,.2-8.48.36-18.94.36s-18.94-.16-18.94-.36,8.48-.35,18.94-.35S431.54,121.68,431.54,121.87Z" style="fill: rgb(224, 224, 224); transform-origin: 412.6px 121.875px;" id="eliesao4ekipg" class="animable"></path><path d="M431.81,125.21c0,.19-8.48.35-18.94.35s-18.94-.16-18.94-.35,8.48-.36,18.94-.36S431.81,125,431.81,125.21Z" style="fill: rgb(224, 224, 224); transform-origin: 412.87px 125.205px;" id="ell5pbtmkkcs" class="animable"></path><path d="M432.07,128.54c0,.2-8.48.36-18.93.36s-18.94-.16-18.94-.36,8.47-.36,18.94-.36S432.07,128.34,432.07,128.54Z" style="fill: rgb(224, 224, 224); transform-origin: 413.135px 128.54px;" id="elnm7bb0yg5l" class="animable"></path><path d="M432.34,131.87c0,.2-8.48.36-18.94.36s-18.94-.16-18.94-.36,8.48-.35,18.94-.35S432.34,131.68,432.34,131.87Z" style="fill: rgb(224, 224, 224); transform-origin: 413.4px 131.875px;" id="elpy43bsgwh8" class="animable"></path><path d="M432.61,135.21c0,.19-8.48.35-18.94.35s-18.94-.16-18.94-.35,8.48-.36,18.94-.36S432.61,135,432.61,135.21Z" style="fill: rgb(224, 224, 224); transform-origin: 413.67px 135.205px;" id="elsw7iv7tbh6e" class="animable"></path><rect x="223.86" y="54.29" width="17.56" height="422.77" style="fill: rgb(224, 224, 224); transform-origin: 232.64px 265.675px;" id="elqi7mk0jsu0m" class="animable"></rect><rect x="49.06" y="72.12" width="174.8" height="404.93" style="fill: rgb(235, 235, 235); transform-origin: 136.46px 274.585px;" id="ele7zs7mmcatl" class="animable"></rect><rect x="37.78" y="54.29" width="16.18" height="422.77" style="fill: rgb(224, 224, 224); transform-origin: 45.87px 265.675px;" id="el7oo0766ydmv" class="animable"></rect><rect x="37.78" y="54.29" width="203.63" height="17.84" style="fill: rgb(224, 224, 224); transform-origin: 139.595px 63.21px;" id="el4t5z7kw1osv" class="animable"></rect><path d="M241.41,54.29s-.21.27-.65.71l-1.9,1.79-6.29,5.9c-2.44,2.31-4.62,4.44-6.11,6.06a20.59,20.59,0,0,0-1.67,2,4.22,4.22,0,0,0-.36.6.55.55,0,0,1-.1.24.92.92,0,0,1,0-.27,4,4,0,0,1,.29-.68,16.17,16.17,0,0,1,1.58-2.13c1.44-1.7,3.59-3.88,6-6.2s4.73-4.34,6.4-5.78c.84-.72,1.52-1.29,2-1.68A3.36,3.36,0,0,1,241.41,54.29Z" style="fill: rgb(235, 235, 235); transform-origin: 232.865px 62.94px;" id="elb3urckl1fsi" class="animable"></path><path d="M54,72.49c-.11.1-3.81-3.9-8.28-8.93s-8-9.18-7.9-9.27,3.81,3.89,8.27,8.92S54.06,72.39,54,72.49Z" style="fill: rgb(235, 235, 235); transform-origin: 45.9093px 63.3902px;" id="elalrnh020898" class="animable"></path><path d="M64.43,310.45h0a5.89,5.89,0,0,1-5.89-5.88V262.25a5.89,5.89,0,0,1,5.89-5.88h0a5.89,5.89,0,0,1,5.88,5.88v42.32A5.88,5.88,0,0,1,64.43,310.45Z" style="fill: rgb(224, 224, 224); transform-origin: 64.425px 283.41px;" id="eln6814t7buf" class="animable"></path><path d="M66.81,297.17a2,2,0,1,0-4,0A2.07,2.07,0,0,0,63.94,299v2.38a.91.91,0,0,0,.89.92h0a.91.91,0,0,0,.89-.92V299A2.05,2.05,0,0,0,66.81,297.17Z" style="fill: rgb(235, 235, 235); transform-origin: 64.81px 298.735px;" id="el0r9ifpg1cw5j" class="animable"></path><rect x="64.27" y="274.59" width="32.38" height="6.47" rx="3.17" style="fill: rgb(224, 224, 224); transform-origin: 80.46px 277.825px;" id="eltemk420d6b" class="animable"></rect><path d="M76,281.24a3.71,3.71,0,0,1-1,.09l-2.68.12a23.49,23.49,0,0,1-4-.14A8.81,8.81,0,0,1,66,280.7a4.18,4.18,0,0,1-2-1.78,3.2,3.2,0,0,1-.13-2.75,2.25,2.25,0,0,1,.9-1,5.89,5.89,0,0,1,1.1-.49,12.21,12.21,0,0,1,4-.49c1.14,0,2,.06,2.69.1a3.79,3.79,0,0,1,1,.12,31.48,31.48,0,0,1-3.66.15,12.76,12.76,0,0,0-3.86.57,2.61,2.61,0,0,0-1.7,1.26,2.66,2.66,0,0,0,.12,2.28,3.75,3.75,0,0,0,1.76,1.56,8.48,8.48,0,0,0,2.2.6,26.08,26.08,0,0,0,3.94.25A18.64,18.64,0,0,1,76,281.24Z" style="fill: rgb(235, 235, 235); transform-origin: 69.8103px 277.829px;" id="el2uboiqyzuub" class="animable"></path><rect x="76.88" y="96.25" width="125.44" height="129.84" style="fill: rgb(250, 250, 250); transform-origin: 139.6px 161.17px;" id="elda5dg1nnwti" class="animable"></rect></g><g id="freepik--Floor--inject-400" class="animable animator-active" style="transform-origin: 252.39px 476.205px;"><path d="M464.08,476.2c0,.15-94.78.27-211.68.27s-211.7-.12-211.7-.27,94.76-.26,211.7-.26S464.08,476.06,464.08,476.2Z" style="fill: rgb(38, 50, 56); transform-origin: 252.39px 476.205px;" id="elrlnkkbcsibs" class="animable"></path></g><g id="freepik--character-3--inject-400" class="animable" style="transform-origin: 384.465px 202.016px;"><path d="M304.37,87.63s8.88,40.78,15.15,51.37c3.23,5.44,30.53,35.18,30.53,35.18l12-20.37-28.2-26.06L315.61,86Z" style="fill: rgb(255, 191, 157); transform-origin: 333.21px 130.09px;" id="ellblyg4d9kv" class="animable"></path><path d="M303.85,76.36c-.07-.29-1.06-3.59-.41-4.59a2.39,2.39,0,0,1,2-.9A3.92,3.92,0,0,1,307,68.82a4.19,4.19,0,0,1,2.57-.22l.9-.72a2.27,2.27,0,0,1,2.29-.59,4.18,4.18,0,0,0,2.43.68c1.24-.14,3.11,3.18,4.12,4.75s2.4,3.65,1,6.24a73,73,0,0,1-5,7.57l-10.19,1.93s-1.5-1.13-2-4.79A18.12,18.12,0,0,1,303.85,76.36Z" style="fill: rgb(255, 191, 157); transform-origin: 311.962px 77.8257px;" id="el2vbup0yobaj" class="animable"></path><path d="M305.47,70.87a9.45,9.45,0,0,1,.84,1.86c.47,1.17,1.08,2.79,1.74,4.59l.24.67a1.29,1.29,0,0,1,.06.2.5.5,0,0,1,0,.28.77.77,0,0,1-.28.35,2.91,2.91,0,0,1-1.31.44,1.7,1.7,0,0,1-1.25-.28,2.76,2.76,0,0,1-.77-.75,5.64,5.64,0,0,1-.72-1.34c-.12-.33-.16-.53-.13-.53s.32.72,1.08,1.68a1.9,1.9,0,0,0,1.72.84,2.81,2.81,0,0,0,1.13-.39.44.44,0,0,0,.14-.18c0-.07,0,0,0-.18l-.25-.67c-.65-1.8-1.22-3.44-1.61-4.63A9.85,9.85,0,0,1,305.47,70.87Z" style="fill: rgb(255, 154, 108); transform-origin: 306.125px 75.0767px;" id="elegdsu64avyg" class="animable"></path><path d="M309.56,68.6a7.92,7.92,0,0,1,.48,1.64c.25,1,.57,2.45.89,4v0l.06.18a4.69,4.69,0,0,1,.24,2.41,2,2,0,0,1-1.3,1.51,2.47,2.47,0,0,1-1.34,0c-.3-.07-.45-.16-.44-.19s.17,0,.47,0a2.79,2.79,0,0,0,1.2-.16,1.77,1.77,0,0,0,1-1.31,4.6,4.6,0,0,0-.26-2.19l-.06-.15v0h0c-.32-1.59-.59-3-.76-4.07A6.77,6.77,0,0,1,309.56,68.6Z" style="fill: rgb(255, 154, 108); transform-origin: 309.72px 73.5163px;" id="elpu0d6cew2y" class="animable"></path><path d="M312.75,67.29a14.18,14.18,0,0,1,0,2.56v-.06c.52,1.26,1.21,3,1.94,4.86.16.42.31.83.47,1.22l0,.09,0,.08a3.67,3.67,0,0,1-.84,1.13,2,2,0,0,1-1.21.56,1.43,1.43,0,0,1-1.12-.44,3.05,3.05,0,0,1-.57-.82,6.26,6.26,0,0,1-.47-1.31c-.07-.32-.08-.5-.05-.5s.21.68.76,1.67c.27.46.72,1.11,1.43,1a2.44,2.44,0,0,0,1.69-1.5V76l-.47-1.21c-.73-1.89-1.38-3.62-1.84-4.91v-.07A15,15,0,0,1,312.75,67.29Z" style="fill: rgb(255, 154, 108); transform-origin: 313.022px 72.5113px;" id="elvz00hlw11pd" class="animable"></path><path d="M293.73,92.13l-3.65-.81A33.86,33.86,0,0,1,285,78.45a112.34,112.34,0,0,1-1.15-16.07l38-20.48,3.23,18.46Z" style="fill: rgb(69, 90, 100); transform-origin: 304.465px 67.015px;" id="elzrordslke8j" class="animable"></path><path d="M327.12,69.13l.14-24.85-3-1.34-39.1,21.31s-1.26,16.1,5.64,26.25l2.45.57Z" style="fill: rgb(255, 255, 255); transform-origin: 306.165px 67.005px;" id="ellfejhjftn1a" class="animable"></path><path d="M293.73,92.13l34.76-22.34s-.6-21.85,2.37-25.78L289.23,68S285.33,74.66,293.73,92.13Z" style="fill: rgb(69, 90, 100); transform-origin: 309.593px 68.07px;" id="el3acn336nbgr" class="animable"></path><path d="M325.09,43.62a11.14,11.14,0,0,1-1.46.92l-4.08,2.34c-3.45,1.95-8.23,4.62-13.53,7.54S295.9,60,292.4,61.83L288.25,64a10.6,10.6,0,0,1-1.56.74,10.3,10.3,0,0,1,1.46-.92l4.07-2.34c3.46-2,8.24-4.62,13.54-7.54s10.12-5.53,13.62-7.4l4.15-2.2A12.14,12.14,0,0,1,325.09,43.62Z" style="fill: rgb(38, 50, 56); transform-origin: 305.89px 54.18px;" id="elt4c7u5ek3q" class="animable"></path><path d="M326.79,44.4a12.13,12.13,0,0,1-1.46.92l-4.08,2.34c-3.45,2-8.23,4.62-13.54,7.54s-10.11,5.53-13.61,7.4L290,64.8a12.14,12.14,0,0,1-1.56.74,10.3,10.3,0,0,1,1.46-.92l4.07-2.34c3.45-2,8.24-4.62,13.54-7.54s10.12-5.53,13.61-7.41l4.16-2.19A10.6,10.6,0,0,1,326.79,44.4Z" style="fill: rgb(38, 50, 56); transform-origin: 307.615px 54.97px;" id="el2vv9dy41p9j" class="animable"></path><path d="M315.25,86.53s5-7.31,5-7.57-1.95-8-3.35-9.35-3.28-3-3.28-3-2,.51-1,3.48,2.31,6,2.31,6l-1.69,2.52s-6.51,1.84-6.06,8.07" style="fill: rgb(255, 191, 157); transform-origin: 313.704px 76.645px;" id="elvejvyprg5gc" class="animable"></path><path d="M307.25,86.65a4,4,0,0,1-.06-.78,4.68,4.68,0,0,1,.06-.94,6.23,6.23,0,0,1,.27-1.26,7.42,7.42,0,0,1,1.85-2.94,10.36,10.36,0,0,1,3.89-2.32l-.1.07L314.83,76v.18c-.6-1.39-1.2-2.88-1.78-4.46a17.43,17.43,0,0,1-.8-2.47,3.17,3.17,0,0,1,.05-1.4,2,2,0,0,1,.85-1.18,1.62,1.62,0,0,1,.46-.21l.1,0,.09.08,1.78,1.64.88.8a6.06,6.06,0,0,1,.84.84,9.27,9.27,0,0,1,1,2.06c.28.69.51,1.38.74,2,.43,1.34.8,2.63,1.11,3.85q.1.47.21.9l.05.24s0,.09,0,.14l-.06.16-.24.4-.92,1.39c-1.2,1.76-2.19,3.17-2.87,4.14l-.81,1.1a2.39,2.39,0,0,1-.3.37,2.42,2.42,0,0,1,.23-.42c.2-.3.44-.68.74-1.15l2.76-4.2.89-1.41.21-.36,0,0h.1c-.11,0-.08,0-.09,0v-.06l0-.2-.23-.89c-.32-1.21-.69-2.49-1.14-3.82-.22-.66-.46-1.34-.73-2a9.78,9.78,0,0,0-1-2,6.66,6.66,0,0,0-.8-.79l-.87-.79-1.78-1.62.19,0a1.42,1.42,0,0,0-.33.16,2,2,0,0,0-.71,2.15,16.33,16.33,0,0,0,.77,2.4c.57,1.57,1.16,3.06,1.74,4.45l.05.1-.06.08q-.89,1.32-1.71,2.52l0,.06-.07,0a10.23,10.23,0,0,0-3.78,2.18,7.43,7.43,0,0,0-1.86,2.79A11.81,11.81,0,0,0,307.25,86.65Z" style="fill: rgb(255, 154, 108); transform-origin: 313.798px 76.555px;" id="elgnkfr4dhs4r" class="animable"></path><path d="M320.17,96.42c5.59,8.27,7.58,19,13.83,26.83,2.95,3.7-.15,3.09,3.11,5.93,6.33,5.53,17.65,15,23.12,20.5,1.67,1.68,7.41-1.75,10.29,2.81,1.08,1.71-6.86,5.51-7.6,7.4-3.39,8.66-1.3,19.44-4.69,28.1-9.1-8-21.67-19.8-29.57-28.84s-13.4-17.51-17-28.77a207.92,207.92,0,0,1-6.53-25.72l1.25-2.66-.82-3.85,13-5.3Z" style="fill: rgb(217, 104, 87); transform-origin: 337.875px 140.42px;" id="elooannhk1o7" class="animable"></path><path d="M455,166.37c-1.78-3.06-9.29-8.75-14.52-10.72-4.26-1.61-27-4.29-29.69,2.54l-1,53.71c-1.53,5.7-3.07,11.44-3.28,17.26s1,11.81,4.57,16.54a21.19,21.19,0,0,0,29.38,4.09c5.7-4.4,8-11.37,9.53-18,2.91-12.58,4.09-25.38,5.27-38.14.58-6.37,1.17-12.74,1.23-19.12C456.51,171.75,456.41,168.82,455,166.37Z" style="fill: rgb(69, 90, 100); transform-origin: 431.49px 203.85px;" id="el2642y4qw72n" class="animable"></path><path d="M448,338.69l22-3.53s11,21.13,15.08,20.87l-5.32-42.82-34.43,4.1Z" style="fill: rgb(69, 90, 100); transform-origin: 465.205px 334.621px;" id="el5qkyh26ryfr" class="animable"></path><path d="M466.49,322.15a1.75,1.75,0,0,1,1.84-1.46,1.7,1.7,0,0,1,1.46,1.82,1.85,1.85,0,0,1-2,1.53,1.75,1.75,0,0,1-1.31-2.06" style="fill: rgb(224, 224, 224); transform-origin: 468.119px 322.367px;" id="elswlpnu2yk5" class="animable"></path><path d="M479.75,313.21l-3.45.55,6.39,40.85s1.07,1.8,2.38,1.42Z" style="fill: rgb(38, 50, 56); transform-origin: 480.685px 334.646px;" id="elyt89an7exza" class="animable"></path><path d="M469.86,335.88c.2,0,.17-1.09.71-2.21s1.36-1.76,1.25-1.95-1.27.28-1.91,1.64S469.67,336,469.86,335.88Z" style="fill: rgb(255, 255, 255); transform-origin: 470.696px 333.784px;" id="elchs34ta7jmb" class="animable"></path><path d="M472.27,340.14c.21,0,.45-.93,1.25-1.75s1.71-1.14,1.67-1.35-1.23-.19-2.2.85S472.07,340.16,472.27,340.14Z" style="fill: rgb(255, 255, 255); transform-origin: 473.672px 338.537px;" id="elmxi22h4t4b" class="animable"></path><path d="M478,342c0-.2-1.06-.36-2.13.32s-1.42,1.72-1.23,1.78.72-.61,1.61-1.16S478,342.23,478,342Z" style="fill: rgb(255, 255, 255); transform-origin: 476.295px 342.965px;" id="el7juych1lt95" class="animable"></path><path d="M464.76,336.13c.18-.11-.22-1-.29-2.23s.19-2.16,0-2.25-.83.9-.73,2.3S464.61,336.25,464.76,336.13Z" style="fill: rgb(255, 255, 255); transform-origin: 464.268px 333.893px;" id="elwsg2sie8pkh" class="animable"></path><path d="M413.91,344.74l22-3.53s11,21.13,15.08,20.87l-5.32-42.82-34.43,4.1Z" style="fill: rgb(69, 90, 100); transform-origin: 431.115px 340.671px;" id="eliesl3jw81s" class="animable"></path><path d="M432.37,328.2a1.75,1.75,0,0,1,1.84-1.46,1.7,1.7,0,0,1,1.46,1.82,1.86,1.86,0,0,1-2,1.53A1.75,1.75,0,0,1,432.4,328" style="fill: rgb(224, 224, 224); transform-origin: 434.015px 328.417px;" id="elngsptp99pfr" class="animable"></path><path d="M445.63,319.26l-3.45.55,6.39,40.85s1.07,1.8,2.38,1.42Z" style="fill: rgb(38, 50, 56); transform-origin: 446.565px 340.696px;" id="elyvqqbr9gsqs" class="animable"></path><path d="M435.73,341.93c.21,0,.18-1.09.72-2.2s1.36-1.77,1.25-2-1.28.28-1.91,1.64S435.55,342,435.73,341.93Z" style="fill: rgb(255, 255, 255); transform-origin: 436.577px 339.805px;" id="el6u7d6515uyn" class="animable"></path><path d="M438.15,346.19c.21,0,.45-.93,1.25-1.75s1.7-1.14,1.67-1.35-1.24-.19-2.21.85S438,346.21,438.15,346.19Z" style="fill: rgb(255, 255, 255); transform-origin: 439.561px 344.587px;" id="elxdkgzvq7hpb" class="animable"></path><path d="M443.84,348.07c0-.2-1.06-.36-2.14.32s-1.41,1.72-1.22,1.78.72-.61,1.61-1.16S443.85,348.28,443.84,348.07Z" style="fill: rgb(255, 255, 255); transform-origin: 442.135px 349.035px;" id="eldaniypjb8d5" class="animable"></path><path d="M430.64,342.18c.18-.11-.23-1-.29-2.23s.19-2.16,0-2.24-.83.89-.74,2.29S430.49,342.3,430.64,342.18Z" style="fill: rgb(255, 255, 255); transform-origin: 430.143px 339.948px;" id="elzv0vdx94dun" class="animable"></path><path d="M356.79,251.17S343,290.64,340.85,298.56s-8,28.71-1.85,38,19.26,8.25,25.07,6.19S413.7,315,413.7,315L413,300.52l-38.71,5.39,8.31-37.66,1.26-21.77Z" style="fill: rgb(38, 50, 56); transform-origin: 374.984px 295.313px;" id="el4fr0nrrkuv3" class="animable"></path><path d="M375.38,273.72l3.13,3.65s-9.05,39.7-8.65,48.17c.33,7-.1,17.64,11.92,22.34A25.84,25.84,0,0,0,396.25,349l16.94-2.22,48.27-7.54-2.56-25.44-51.57,1.08,9.24-26.1s5.22-12.35,6.62-21.12,4-17.36,3.37-17.58c-2.38-.79-7-9.2-7-9.2l-42.33-.69-3.67,23.61Z" style="fill: rgb(38, 50, 56); transform-origin: 415.654px 294.872px;" id="el7qz4yehdsza" class="animable"></path><path d="M416.57,288.75a12,12,0,0,1-.43,1.57l-1.36,4.21c-1.16,3.54-2.8,8.43-4.64,13.82-.93,2.69-1.81,5.26-2.61,7.6s-1.67,4.4-2.44,6.1-1.48,3.05-2,4a8.05,8.05,0,0,1-.84,1.39,9.26,9.26,0,0,1,.66-1.48c.45-.94,1.1-2.3,1.83-4s1.55-3.77,2.33-6.1,1.65-4.92,2.56-7.61c1.84-5.39,3.54-10.26,4.8-13.78.61-1.69,1.12-3.09,1.5-4.16A8.61,8.61,0,0,1,416.57,288.75Z" style="fill: rgb(69, 90, 100); transform-origin: 409.41px 308.095px;" id="elcyp72v7gayp" class="animable"></path><path d="M370,327.78a8.72,8.72,0,0,1-1.26,1.93,47,47,0,0,1-3.64,4.2,43.19,43.19,0,0,1-4.11,3.72,8.13,8.13,0,0,1-1.89,1.31c-.1-.12,2.63-2.31,5.63-5.4S369.87,327.69,370,327.78Z" style="fill: rgb(69, 90, 100); transform-origin: 364.549px 333.359px;" id="el4ptd2z4jyng" class="animable"></path><path d="M374.8,343.28a2.93,2.93,0,0,1-.56-.44,9.5,9.5,0,0,1-1.31-1.55,19,19,0,0,1-2.56-7c-.15-.78-.23-1.6-.35-2.45s-.24-1.74-.27-2.67-.14-1.88-.12-2.87,0-2,.05-3.05a98.74,98.74,0,0,1,1.63-13.44c1.75-9.45,3.87-17.87,5.24-24,.68-3,1.24-5.49,1.64-7.26.19-.82.34-1.47.46-2a4.55,4.55,0,0,1,.19-.68,3.09,3.09,0,0,1-.09.7l-.36,2c-.32,1.73-.83,4.22-1.48,7.29-1.28,6.16-3.34,14.6-5.09,24a103.45,103.45,0,0,0-1.66,13.37c-.08,1-.06,2-.07,3s0,1.93.09,2.85.14,1.8.24,2.65.18,1.67.31,2.44a19.65,19.65,0,0,0,2.37,6.95A13.61,13.61,0,0,0,374.8,343.28Z" style="fill: rgb(69, 90, 100); transform-origin: 374.234px 309.575px;" id="eljmxsced4b6" class="animable"></path><path d="M458.9,313.77a3.08,3.08,0,0,1-.52.05l-1.49.06-5.47.14-18,.54c-7.05.22-13.43.36-18.05.38-2.31,0-4.18,0-5.48,0l-1.48,0a2.15,2.15,0,0,1-.52-.05,1.65,1.65,0,0,1,.52-.05l1.48-.06,5.47-.14,18.05-.54c7-.22,13.43-.37,18.05-.39,2.31,0,4.18,0,5.47,0l1.49.05A1.65,1.65,0,0,1,458.9,313.77Z" style="fill: rgb(69, 90, 100); transform-origin: 433.395px 314.325px;" id="elur1b9vtmdbb" class="animable"></path><path d="M377,260.45c.16,0,.23,3.15.75,7s1.28,6.91,1.13,6.95a7.43,7.43,0,0,1-.67-2,38.84,38.84,0,0,1-1-4.92,41.38,41.38,0,0,1-.37-5A7.57,7.57,0,0,1,377,260.45Z" style="fill: rgb(69, 90, 100); transform-origin: 377.864px 267.425px;" id="elnxehqdr9ro" class="animable"></path><path d="M424.38,129.52c-2.5-3.47-6.77-5.36-11-5.76a32.19,32.19,0,0,0-12.61,1.84A75.4,75.4,0,0,0,371,143.54c-1.53,1.5-3.07,3.19-3.51,5.29s.71,4.68,2.83,5l26.64,9.3a70,70,0,0,0,14.12-2.45c4.56-1.45,8.92-3.92,11.83-7.72a22.24,22.24,0,0,0,4.19-13.21A17.09,17.09,0,0,0,424.38,129.52Z" style="fill: rgb(217, 104, 87); transform-origin: 397.261px 143.421px;" id="eln862m9gi9c8" class="animable"></path><path d="M376,149.36c-.76.27-17.39,4.68-19.05,7.56s-4.89,57-4.48,60.45c.21,1.74,1.1,5.67,1.94,9.17.95,4-.09,6.14-2.2,9.79-2.36,4.08-4.06,5.71-3.59,10.55.18,1.94,2.6,6.69,3.16,8.76l-1.69,5.5s16.39.26,42.89,1.11,32.27,1.84,32.27,1.84l.07-6A68,68,0,0,0,430,241c.88-6.44-8.76-26.81-8.76-26.81l8.5-48.34.82-7.48A27.46,27.46,0,0,0,417.89,150C409.56,147.34,376,149.36,376,149.36Z" style="fill: rgb(217, 104, 87); transform-origin: 389.551px 206.358px;" id="elai9tl481tzj" class="animable"></path><g id="elanin4kzfbcp"><g style="opacity: 0.3; transform-origin: 417.785px 210.23px;" class="animable"><path d="M388.63,200.22c1.85,4.05,4.16,8.51,8.42,9.8,2,.6,4.14.39,6.22.61,3.59.39,6.88,2.08,10.18,3.52a84.13,84.13,0,0,0,16.61,5.31c3.22.67,6.58,1.15,9.78.4s6.24-3,7.1-6.17Z" id="elhnuij873rwb" class="animable" style="transform-origin: 417.785px 210.23px;"></path></g></g><path d="M431.85,160.14a38.38,38.38,0,0,0-5.77-5.73,39.05,39.05,0,0,0-7.1-4,8.3,8.3,0,0,1,2.32.68,21.66,21.66,0,0,1,5.09,2.86,21.94,21.94,0,0,1,4.17,4.1A7.77,7.77,0,0,1,431.85,160.14Z" style="fill: rgb(38, 50, 56); transform-origin: 425.415px 155.275px;" id="eliwky5w01a9d" class="animable"></path><path d="M395.58,190.4l17.21-29.56,7.47-10.08c-4-2.23-7.54-3.35-12-2.29-.32.74-3.28,3.68-6.66,9.78-7.85,14.17-14.44,29.31-14.44,29.31l.9,11.53,41.85,48.14,3.11-12-16.06-12S398.09,204,398.32,203.23,395.58,190.4,395.58,190.4Z" style="fill: rgb(69, 90, 100); transform-origin: 410.09px 197.648px;" id="el3e8wgxii1a6" class="animable"></path><path d="M356,166.31c.14,0-.38,6.87-1.17,15.3s-1.55,15.27-1.69,15.26.38-6.87,1.17-15.31S355.85,166.3,356,166.31Z" style="fill: rgb(38, 50, 56); transform-origin: 354.57px 181.59px;" id="elf19c5y9l4te" class="animable"></path><path d="M376.59,165a9.23,9.23,0,0,1-1.7-1.6,40.08,40.08,0,0,1-6.31-9.29,8.77,8.77,0,0,1-.86-2.17c.14-.06,1.66,3.15,4.12,6.75S376.7,164.85,376.59,165Z" style="fill: rgb(38, 50, 56); transform-origin: 372.157px 158.47px;" id="elr12dhxe171h" class="animable"></path><path d="M408.75,147.48a6.7,6.7,0,0,1-.78,1,30.06,30.06,0,0,1-2.4,2.56,69.65,69.65,0,0,1-9,7.28,67.86,67.86,0,0,1-10.06,5.74,30,30,0,0,1-3.26,1.31,6.33,6.33,0,0,1-1.24.35,5,5,0,0,1,1.17-.54c.76-.32,1.86-.79,3.17-1.45a81.93,81.93,0,0,0,9.93-5.84,83.32,83.32,0,0,0,9.05-7.11c1.1-1,1.94-1.84,2.51-2.43A6.2,6.2,0,0,1,408.75,147.48Z" style="fill: rgb(38, 50, 56); transform-origin: 395.38px 156.6px;" id="elfxmyvhdgopk" class="animable"></path><path d="M367.06,220.55a3,3,0,0,1,0,.86,18.36,18.36,0,0,1-.35,2.3,25,25,0,0,1-7.57,13.16,19.79,19.79,0,0,1-1.82,1.46,2.72,2.72,0,0,1-.73.44c-.06-.08.91-.81,2.29-2.17a28,28,0,0,0,7.47-13C366.82,221.75,367,220.54,367.06,220.55Z" style="fill: rgb(38, 50, 56); transform-origin: 361.839px 229.66px;" id="elf47hgd0kac6" class="animable"></path><path d="M407.42,239.15a12.46,12.46,0,0,1-1.91-1.87,23,23,0,0,1-3.76-5.27,11.79,11.79,0,0,1-1.25-6.34,7.13,7.13,0,0,1,.45-1.93c.17-.43.3-.65.33-.64a24.19,24.19,0,0,0-.42,2.6,12.65,12.65,0,0,0,1.36,6.08,28.65,28.65,0,0,0,3.56,5.26A15.7,15.7,0,0,1,407.42,239.15Z" style="fill: rgb(38, 50, 56); transform-origin: 403.94px 231.125px;" id="el9iifj27sti" class="animable"></path><path d="M419.67,256.92a2.55,2.55,0,0,1-.66,0l-1.89-.16-6.92-.6c-5.85-.49-13.94-1-22.89-1.34s-17.06-.26-22.93-.16l-6.95.15-1.89,0a2.82,2.82,0,0,1-.66,0,3.33,3.33,0,0,1,.65-.08l1.89-.13c1.64-.11,4-.22,6.95-.32,5.87-.2,14-.28,23,0s17.05.91,22.9,1.49c2.92.29,5.29.55,6.91.77l1.88.25A3.84,3.84,0,0,1,419.67,256.92Z" style="fill: rgb(38, 50, 56); transform-origin: 387.275px 255.52px;" id="elk0ykcnj7cv" class="animable"></path><path d="M395.82,219c0,.08-1.49-.34-3.88-.85a65.78,65.78,0,0,0-9.44-1.36,67.12,67.12,0,0,0-9.54.06c-2.44.18-3.94.4-4,.31a5,5,0,0,1,1-.25c.68-.14,1.66-.29,2.89-.43a52.81,52.81,0,0,1,9.6-.2,53.61,53.61,0,0,1,9.5,1.51c1.19.3,2.14.59,2.79.81A5,5,0,0,1,395.82,219Z" style="fill: rgb(38, 50, 56); transform-origin: 382.39px 217.58px;" id="ele58o1lswptq" class="animable"></path><path d="M430.58,158.32s17.3,21.19,19.92,26,7.66,16.26,6.3,21.29-4.88,9.66-10,11.14-22-2.69-22-2.69,1.61-16.7,2.17-16,4.46-1.2,4.46-1.2L422,187.83l-.72-15.26Z" style="fill: rgb(217, 104, 87); transform-origin: 439.154px 187.694px;" id="elyselwepji3" class="animable"></path><path d="M447.19,197.07a38.09,38.09,0,0,0-8.27-1,38.81,38.81,0,0,0-8.24,1.32,8.64,8.64,0,0,1,2.3-.93,22.6,22.6,0,0,1,11.88-.23A8.75,8.75,0,0,1,447.19,197.07Z" style="fill: rgb(38, 50, 56); transform-origin: 438.935px 196.468px;" id="el2iwidkss23l" class="animable"></path><path d="M429.38,169.52a4,4,0,0,1-.07,1c-.07.64-.19,1.56-.36,2.69-.34,2.27-.87,5.4-1.54,8.83s-1.34,6.54-1.88,8.77c-.26,1.11-.49,2-.66,2.63a3.34,3.34,0,0,1-.32.95,4,4,0,0,1,.12-1c.14-.75.31-1.64.5-2.67.47-2.38,1.07-5.42,1.73-8.79s1.23-6.4,1.68-8.79c.21-1,.39-1.92.53-2.66A3.64,3.64,0,0,1,429.38,169.52Z" style="fill: rgb(38, 50, 56); transform-origin: 426.968px 181.955px;" id="elw1qg91g5zor" class="animable"></path><g id="el0xsbz8byov7e"><g style="opacity: 0.3; transform-origin: 401.072px 154.186px;" class="animable"><path d="M413.56,145.62a2,2,0,0,0-2-.26,5.17,5.17,0,0,0-1.77,1.19c-6.63,6.44-11.71,11.77-21.79,16.62h0c7.4-2.2,18.36-6.85,24.7-13.54a5.41,5.41,0,0,0,1.31-1.88A2,2,0,0,0,413.56,145.62Z" id="eluez80b9fb3a" class="animable" style="transform-origin: 401.072px 154.186px;"></path></g></g><path d="M404,193.86s-1.45-7.27-2.06-8.27-11.37-2.78-11.37-2.78-5.82.18-5.71,2.61,1.28,2.86,1.28,2.86-1.92,1.26-1.64,2.7.81,1.72.81,1.72a1.85,1.85,0,0,0-1.05,2.09,5.87,5.87,0,0,0,1.68,2.55,1.81,1.81,0,0,0,.42,2.22,7.12,7.12,0,0,0,3.23,1.5s4.7,5.62,6.69,5.81,8.33,0,8.33,0l20.24,6.55,1.73-14.28Z" style="fill: rgb(255, 191, 157); transform-origin: 405.398px 198.115px;" id="el5oazfj1cbin" class="animable"></path><path d="M391.57,188.11a8.2,8.2,0,0,1-2.82.36,8,8,0,0,1-2.83-.17,15.77,15.77,0,0,1,5.65-.19Z" style="fill: rgb(255, 154, 108); transform-origin: 388.745px 188.233px;" id="elyisnu1r48x" class="animable"></path><path d="M390.23,192.77a5.5,5.5,0,0,1-2.33.32,5.57,5.57,0,0,1-2.34-.2,5.33,5.33,0,0,1,2.33-.32A5.61,5.61,0,0,1,390.23,192.77Z" style="fill: rgb(255, 154, 108); transform-origin: 387.895px 192.83px;" id="elmguldctv9td" class="animable"></path><path d="M390.49,196.69c0,.15-.95.37-2.17.51a4.94,4.94,0,0,1-2.23,0,5,5,0,0,1,2.17-.51A4.92,4.92,0,0,1,390.49,196.69Z" style="fill: rgb(255, 154, 108); transform-origin: 388.29px 196.945px;" id="elal6ht44zkm4" class="animable"></path><path d="M391.28,195.36c-.06,0-.2-.12-.26-.42a1.54,1.54,0,0,1,.26-1.14,1.7,1.7,0,0,1,.94-.7c.29-.07.48,0,.49.05s-.6.32-1,.93S391.41,195.3,391.28,195.36Z" style="fill: rgb(255, 154, 108); transform-origin: 391.855px 194.215px;" id="el7p0ywxocfr" class="animable"></path><path d="M393.93,191.62c-.06,0-.18-.1-.24-.35a1.35,1.35,0,0,1,.2-1,1.42,1.42,0,0,1,.77-.61c.25-.07.41,0,.42,0s-.45.35-.75.85S394.07,191.56,393.93,191.62Z" style="fill: rgb(255, 154, 108); transform-origin: 394.373px 190.624px;" id="elg1gtigdn2vj" class="animable"></path><path d="M396,186.62c-.14,0-.32-.52.05-1.06s.92-.58.95-.45-.28.37-.52.75S396.15,186.6,396,186.62Z" style="fill: rgb(255, 154, 108); transform-origin: 396.416px 185.834px;" id="el1764k94y92k" class="animable"></path><path d="M403.74,198.35a5,5,0,0,1-.18-2.19,5.1,5.1,0,0,1,.34-2.18,4.61,4.61,0,0,1,.18,2.2C404,197.39,403.89,198.37,403.74,198.35Z" style="fill: rgb(255, 154, 108); transform-origin: 403.825px 196.165px;" id="el3d3y44z97qt" class="animable"></path><g id="ellr1opfds34b"><g style="opacity: 0.3; transform-origin: 404.236px 138.298px;" class="animable"><path d="M408.63,129.52a3.28,3.28,0,0,0-2-.14,23.06,23.06,0,0,0-5.34,1.5,4.06,4.06,0,0,0-2.25,1.75,4.42,4.42,0,0,0-.27,2q.12,6.34.25,12.68l1.21-1.37a52.14,52.14,0,0,0,8.56-11.62,6.25,6.25,0,0,0,.91-2.5A2.34,2.34,0,0,0,408.63,129.52Z" id="elnyxttb08huc" class="animable" style="transform-origin: 404.236px 138.298px;"></path></g></g><path d="M398.7,132.47s.13-.15.42-.4a13.68,13.68,0,0,1,7.16-2.91,6.16,6.16,0,0,1,2.07-.07,2.1,2.1,0,0,1,1.71,1.53c.33,1.69-.7,3.22-1.56,4.63a82.43,82.43,0,0,1-20.85,23.07c-2.06,1.55-3.8,2.71-5,3.48l-1.42.85a2.35,2.35,0,0,1-.51.27s.14-.14.45-.36l1.37-.93c1.18-.82,2.89-2,4.91-3.6a88.75,88.75,0,0,0,14.29-14,86.5,86.5,0,0,0,6.37-9,16,16,0,0,0,1.21-2.13,3.66,3.66,0,0,0,.34-2.14,1.69,1.69,0,0,0-1.37-1.25,5.74,5.74,0,0,0-1.94.05,15.51,15.51,0,0,0-5.74,1.76C399.34,132,398.73,132.51,398.7,132.47Z" style="fill: rgb(38, 50, 56); transform-origin: 395.422px 145.977px;" id="elx38znl1322q" class="animable"></path><path d="M381.5,94.77l-1,.08a19.28,19.28,0,0,0-17.58,19.35c.07,9.35.08,17.81.58,22.78,1,10.3,11.6,11.38,11.6,11.38s.25,4.18.39,7.22l4,8.41c7.1-5.16,15-11.67,19.53-16.7l-.43-33.09C398.57,103.42,392.28,94.44,381.5,94.77Z" style="fill: rgb(255, 191, 157); transform-origin: 380.97px 129.376px;" id="el1q0jic3guzg" class="animable"></path><path d="M375.12,148.34a25.05,25.05,0,0,0,13.07-5.16s-2.55,8-12.91,8Z" style="fill: rgb(255, 154, 108); transform-origin: 381.655px 147.18px;" id="elb6p662v4t0l" class="animable"></path><path d="M368.09,122.6a1.49,1.49,0,0,0,1.56,1.36A1.4,1.4,0,0,0,371,122.5a1.47,1.47,0,0,0-1.54-1.36A1.42,1.42,0,0,0,368.09,122.6Z" style="fill: rgb(38, 50, 56); transform-origin: 369.545px 122.55px;" id="elg23iuzkq4kd" class="animable"></path><path d="M365.52,118.56c.2.17,1.24-.75,2.83-.89s2.81.56,3,.35-.14-.43-.68-.75a4.09,4.09,0,0,0-2.4-.51,3.91,3.91,0,0,0-2.23.94C365.56,118.12,365.42,118.48,365.52,118.56Z" style="fill: rgb(38, 50, 56); transform-origin: 368.447px 117.661px;" id="elcd0lkr8cnf" class="animable"></path><path d="M382.34,121.93a1.47,1.47,0,0,0,1.55,1.36,1.42,1.42,0,0,0,1.4-1.46,1.48,1.48,0,0,0-1.55-1.36A1.41,1.41,0,0,0,382.34,121.93Z" style="fill: rgb(38, 50, 56); transform-origin: 383.815px 121.88px;" id="elf9iboukhdeo" class="animable"></path><path d="M381.08,117.55c.2.18,1.24-.75,2.82-.88s2.82.55,3,.34-.13-.42-.68-.74a4,4,0,0,0-2.39-.52,3.82,3.82,0,0,0-2.23,1C381.12,117.11,381,117.47,381.08,117.55Z" style="fill: rgb(38, 50, 56); transform-origin: 384.004px 116.652px;" id="el42gkps8m4zp" class="animable"></path><path d="M376.47,130.22a10.61,10.61,0,0,0-2.61-.23c-.41,0-.8-.06-.89-.33a2.1,2.1,0,0,1,.16-1.22c.3-1,.6-2.07.93-3.18,1.27-4.53,2.15-8.25,2-8.3s-1.36,3.59-2.64,8.12c-.3,1.12-.59,2.18-.87,3.2a2.35,2.35,0,0,0-.07,1.6,1,1,0,0,0,.72.54,2.85,2.85,0,0,0,.7,0A9.91,9.91,0,0,0,376.47,130.22Z" style="fill: rgb(38, 50, 56); transform-origin: 374.421px 123.701px;" id="ell9bs2x9pd2" class="animable"></path><path d="M380.13,112.64c.25.39,1.75-.17,3.61-.38s3.46-.05,3.61-.49c.07-.2-.28-.54-1-.81a6.1,6.1,0,0,0-2.83-.3,6,6,0,0,0-2.67,1C380.27,112.05,380,112.46,380.13,112.64Z" style="fill: rgb(38, 50, 56); transform-origin: 383.728px 111.692px;" id="ellcjcexknyg" class="animable"></path><path d="M365,113.91c.35.33,1.62-.14,3.17-.27s2.88,0,3.16-.36c.12-.2-.12-.54-.72-.84A4.93,4.93,0,0,0,368,112a5,5,0,0,0-2.48.91C365,113.36,364.88,113.74,365,113.91Z" style="fill: rgb(38, 50, 56); transform-origin: 368.159px 112.999px;" id="el1gzeutenqvp" class="animable"></path><path d="M398.43,121.9c.17-.09,6.9-2.72,7.3,4.35s-6.78,6-6.81,5.81S398.43,121.9,398.43,121.9Z" style="fill: rgb(255, 191, 157); transform-origin: 402.088px 126.788px;" id="el29z24tswxbg" class="animable"></path><path d="M400.93,129.26s.13.08.34.16a1.23,1.23,0,0,0,.92,0,3,3,0,0,0,1.26-2.81,4.22,4.22,0,0,0-.44-1.75,1.45,1.45,0,0,0-1-.89.62.62,0,0,0-.71.38c-.08.2,0,.34-.07.35s-.16-.11-.12-.4a.87.87,0,0,1,.26-.46.92.92,0,0,1,.67-.22,1.73,1.73,0,0,1,1.34,1,4.07,4.07,0,0,1,.54,1.94c0,1.43-.62,2.8-1.62,3.15a1.34,1.34,0,0,1-1.14-.12C401,129.43,400.91,129.27,400.93,129.26Z" style="fill: rgb(255, 154, 108); transform-origin: 402.424px 126.701px;" id="elxxpxlupb13m" class="animable"></path><path d="M348.22,105.57a1.68,1.68,0,0,1,.73-1,5.15,5.15,0,0,1,2.62-.59,14.83,14.83,0,0,0,6.37-2,7.35,7.35,0,0,1-2-1.22,4.43,4.43,0,0,1-1.53-4.34,1,1,0,0,1,.51-.7c.45-.17.88.26,1.22.59a3.81,3.81,0,0,0,3.68,1.32,6.37,6.37,0,0,0,2.64-1l.09-.11c.34-.4.68-.78,1-1.15h0c2.51-2.8,4.69-4.76,7-5.84a24.11,24.11,0,0,1,12.76-1.76c3.65.74,7.05,3.47,7.77,7.12,1.91-1.82,4.94-2,7.46-1.14l.06,0c2.79.82,4.51,3.62,5.48,6.36.06.15.1.3.15.45a10.86,10.86,0,0,0,3.9,3.38c.27.14.58.31.63.62s-.19.56-.42.75a5.51,5.51,0,0,1-2.16,1,11.31,11.31,0,0,0,1,1.87c.33.5.74,1.11.5,1.67a1.16,1.16,0,0,1-1.18.6,3.47,3.47,0,0,1-1.3-.51c.34.72.69,1.43,1,2.14a6.57,6.57,0,0,1-3,0c-.43,2.64-.58,7.5-1.15,9.3-1.87.15-2.34,0-3.27.34-1.2.48-.61,2.61-2.23,2.09-.83-.26-2.26-3.26-2.58-4.07a40.37,40.37,0,0,1-2.74-17,12.87,12.87,0,0,0-4.17-2.65l.13.1c-2.95-.83-6.28-1.63-8.94-.11-2.06,1.17-3.18,3.45-4.67,5.3a14.77,14.77,0,0,1-10.6,5.95c-.23,3.14-.05,8.25,0,11.17l-2.83-5.68v0a11.25,11.25,0,0,1-.58-1l-.07-.1h0a17.32,17.32,0,0,0-.91-1.61l0,0a1.82,1.82,0,0,1-2.8-2.28,4.1,4.1,0,0,1,.83-.93,2.89,2.89,0,0,1-2.7.87,2.26,2.26,0,0,1-1.72-2.14,1.91,1.91,0,0,1,1-1.61,6.47,6.47,0,0,1-3.73-.6C348.78,107.14,348,106.5,348.22,105.57Z" style="fill: rgb(38, 50, 56); transform-origin: 378.474px 105.724px;" id="elkrzxuyjdnui" class="animable"></path><path d="M387.9,96.3a9.75,9.75,0,0,1,1.1.89,7.47,7.47,0,0,1,1.78,3.34,12.61,12.61,0,0,1,.42,2.61c.06,1,0,2,0,3.06a30.44,30.44,0,0,0,.12,3.39,12.67,12.67,0,0,0,.34,1.78,3.83,3.83,0,0,0,.83,1.69,1.56,1.56,0,0,0,1.49.4,2.35,2.35,0,0,0,1.27-.81,5.34,5.34,0,0,0,.84-2.69l-.21,0a8.72,8.72,0,0,0,1.38,2.09,3.13,3.13,0,0,0,2.08,1,2,2,0,0,0,1.05-.25,1.66,1.66,0,0,0,.68-.76,1.79,1.79,0,0,0,.17-.93,1.29,1.29,0,0,0-.38-.78l-.1.1a6.76,6.76,0,0,0,2.32,1.54,5.46,5.46,0,0,0,.7.23.68.68,0,0,0,.25,0l-.24-.08-.68-.26a6.88,6.88,0,0,1-2.25-1.57l-.1.11A1.32,1.32,0,0,1,401,112a1.6,1.6,0,0,1-.62.67,1.83,1.83,0,0,1-1,.21,2.92,2.92,0,0,1-1.93-.93,8.83,8.83,0,0,1-1.33-2l-.17-.32-.05.36a5.11,5.11,0,0,1-.8,2.57,2.15,2.15,0,0,1-1.13.73,1.35,1.35,0,0,1-1.27-.34,3.64,3.64,0,0,1-.77-1.59,11.84,11.84,0,0,1-.33-1.74,25.69,25.69,0,0,1-.13-3.36c0-1.08,0-2.11-.06-3.07a12.83,12.83,0,0,0-.45-2.65,7.37,7.37,0,0,0-1.89-3.36A4.09,4.09,0,0,0,387.9,96.3Z" style="fill: rgb(69, 90, 100); transform-origin: 395.965px 104.905px;" id="elen3fvmyljya" class="animable"></path><path d="M356.5,108.23l.09.06.27.18c.12.07.27.16.45.25a6.78,6.78,0,0,0,.65.3,9.17,9.17,0,0,0,4.47.53,11.69,11.69,0,0,0,6.11-2.66,20.36,20.36,0,0,0,5-6.5c.68-1.29,1.22-2.61,1.82-3.84a14,14,0,0,1,2.13-3.28,7.15,7.15,0,0,1,2.87-2,4.85,4.85,0,0,1,1.57-.27,5.24,5.24,0,0,1,1.45.19,6,6,0,0,1,2.23,1.17,5.94,5.94,0,0,1,1.26,1.45,7.85,7.85,0,0,1,.62,1.51.82.82,0,0,0,0-.1l-.07-.32a5.36,5.36,0,0,0-.46-1.14,5.8,5.8,0,0,0-1.25-1.5A6.08,6.08,0,0,0,383.43,91a5.68,5.68,0,0,0-1.51-.21,5.19,5.19,0,0,0-1.62.27,7.17,7.17,0,0,0-3,2,13.79,13.79,0,0,0-2.18,3.33c-.61,1.23-1.15,2.55-1.82,3.83a20.43,20.43,0,0,1-4.93,6.43,11.57,11.57,0,0,1-6,2.67,9.2,9.2,0,0,1-4.41-.45A16.38,16.38,0,0,1,356.5,108.23Z" style="fill: rgb(69, 90, 100); transform-origin: 371.996px 100.209px;" id="elabo1f0cdq7b" class="animable"></path><path d="M355.3,103.74a1.79,1.79,0,0,0,.38.24,9.06,9.06,0,0,0,1.13.49,11.48,11.48,0,0,0,1.77.47,12.35,12.35,0,0,0,2.25.16,11.6,11.6,0,0,0,2.22-.28,10.33,10.33,0,0,0,1.75-.56,7.9,7.9,0,0,0,1.1-.55,2.17,2.17,0,0,0,.38-.26s-.58.29-1.54.65a12.29,12.29,0,0,1-3.92.76,12.79,12.79,0,0,1-2.2-.14,12,12,0,0,1-1.75-.41C355.89,104,355.32,103.7,355.3,103.74Z" style="fill: rgb(69, 90, 100); transform-origin: 360.79px 104.276px;" id="eljovrbu1wd8" class="animable"></path><path d="M383.39,131.09a.67.67,0,0,0-.32-.34.69.69,0,0,0-.56.14l-3.8,2.22-.6.32a3.67,3.67,0,0,0,2.75,2.56,2.83,2.83,0,0,0,3.13-1.81A4.13,4.13,0,0,0,383.39,131.09Z" style="fill: rgb(255, 154, 108); transform-origin: 381.091px 133.384px;" id="elb395b603irb" class="animable"></path><path d="M381.31,136.15a5.78,5.78,0,0,0,1.56-.9,2.94,2.94,0,0,0,.91-1.62,3,3,0,0,0-.45-2.19,3.37,3.37,0,0,0-.4-.5l.29,0a33.47,33.47,0,0,1-5.15,2.42,33.3,33.3,0,0,1,4.91-2.87l.17-.09.13.13a3.07,3.07,0,0,1,.49.58,3.44,3.44,0,0,1,.48,2.57,3.25,3.25,0,0,1-1.14,1.81A2.3,2.3,0,0,1,381.31,136.15Z" style="fill: rgb(38, 50, 56); transform-origin: 381.196px 133.279px;" id="elnn85y2064c" class="animable"></path><g id="el0euoad3xf80o"><g style="opacity: 0.3; transform-origin: 388.585px 264.03px;" class="animable"><path d="M353.27,261.2A23,23,0,0,0,365,265.47a95.49,95.49,0,0,0,12.65-.32c15.13-.86,30.54.48,45.65,1.71l.6-2.92L395,262.32Z" id="el9jv6md18a3" class="animable" style="transform-origin: 388.585px 264.03px;"></path></g></g><g id="elex9odhpey8"><g style="opacity: 0.3; transform-origin: 381.99px 248.591px;" class="animable"><path d="M362.5,246.94l.28.31c4.41,2.67,9.77,3.12,14.91,3.5a62.42,62.42,0,0,0,12.45.08,20.8,20.8,0,0,0,11.34-4.75A91.67,91.67,0,0,1,362.5,246.94Z" id="eluwjdm8t7588" class="animable" style="transform-origin: 381.99px 248.591px;"></path></g></g></g><g id="freepik--character-2--inject-400" class="animable" style="transform-origin: 256.707px 286.205px;"><path d="M281.05,213.25c.13,1.32,6.46,12.27,10.59,24.84l6.16-31.53h12.14s-1.89,31.8-4,41.6c-2.55,11.93-10.7,15.43-17.45,12.76s-13.34-16.43-13.34-16.43l-5.82-14Z" style="fill: rgb(174, 116, 97); transform-origin: 289.635px 234.162px;" id="el0v2icxbytug" class="animable"></path><path d="M296,174.08s-3.17-1.45-2.43,1.91,3.54,13.36,3.54,13.36l.94,23,11.12-4.23a3.23,3.23,0,0,0,2.08-2.86l.36-6.92s3.29-5.93,2.62-6.95-1.33-.8-1.33-.8a8.53,8.53,0,0,0-.7-3.51c-.76-1.61-2.23-1.1-3.09-.5a7.65,7.65,0,0,0-1.66,2.74l-1.14-1.42s2.71-14.41,2.49-14.69-1.77-2.12-2.83.48-2.75,12.71-3.49,13.16-2.12.34-2.25-.84S296,174.08,296,174.08Z" style="fill: rgb(174, 116, 97); transform-origin: 303.889px 192.334px;" id="elwpxhnlwmnlq" class="animable"></path><path d="M312.64,190.56a6.43,6.43,0,0,1-.14,2.48,12.71,12.71,0,0,1-.8,2.59,2.41,2.41,0,0,1-1.13,1.29,1.31,1.31,0,0,1-1,0,1.7,1.7,0,0,1-.76-.64,3,3,0,0,1-.41-1.77c0-.55.05-1.07.07-1.59.05-1,.1-1.84.15-2.66a11.58,11.58,0,0,1,.27-2.45,12.11,12.11,0,0,1,.1,2.46c0,.82,0,1.72,0,2.67,0,.51,0,1,0,1.57a2.63,2.63,0,0,0,.33,1.48,1,1,0,0,0,1.14.45,2,2,0,0,0,.9-1,15.1,15.1,0,0,0,.87-2.47C312.51,191.5,312.56,190.56,312.64,190.56Z" style="fill: rgb(111, 68, 57); transform-origin: 310.546px 192.415px;" id="elpgwc4lk6bb" class="animable"></path><path d="M311.66,197.93c0,.16-.58.16-.89-.39s0-1,.13-1,.14.39.33.71S311.68,197.79,311.66,197.93Z" style="fill: rgb(111, 68, 57); transform-origin: 311.149px 197.281px;" id="elva87xy0kh1a" class="animable"></path><path d="M298.31,201.85a17.53,17.53,0,0,1,5.52-7.34c2.35-2,4.95-3.72,7.26-5.78a2.59,2.59,0,0,1,.59,2.2,6.36,6.36,0,0,1-.89,2.18,30.52,30.52,0,0,1-3.9,5.28,9.57,9.57,0,0,1,1.38,8.92" style="fill: rgb(174, 116, 97); transform-origin: 305.019px 198.02px;" id="elv8sfa0w02cb" class="animable"></path><path d="M308.27,207.31a17.51,17.51,0,0,0,.39-2.53,9.63,9.63,0,0,0-2-6.25l-.11-.15.13-.14a32.43,32.43,0,0,0,2.92-3.77,26.11,26.11,0,0,0,1.33-2.25,3.55,3.55,0,0,0,.38-2.5,1.91,1.91,0,0,0-.46-.81l.36,0c-1.95,1.73-4,3.13-5.73,4.5a30.19,30.19,0,0,0-4.33,3.92,16.12,16.12,0,0,0-2.24,3.21c-.43.82-.61,1.3-.65,1.29s0-.13.08-.37a8.78,8.78,0,0,1,.39-1,14.45,14.45,0,0,1,2.15-3.35,28.11,28.11,0,0,1,4.31-4.06c1.74-1.4,3.75-2.81,5.68-4.52l.18-.17.18.18a2.39,2.39,0,0,1,.58,1,4,4,0,0,1-.42,2.86,22.33,22.33,0,0,1-1.37,2.31,30.44,30.44,0,0,1-3,3.79l0-.28a9.65,9.65,0,0,1,1.85,6.54,8.69,8.69,0,0,1-.38,1.89A2.21,2.21,0,0,1,308.27,207.31Z" style="fill: rgb(111, 68, 57); transform-origin: 305.077px 197.835px;" id="el7cm3fmocqfl" class="animable"></path><path d="M316.44,412.46,308,433s18,15.49,16.82,19.44l-40.37-15,11.88-32.51Z" style="fill: rgb(69, 90, 100); transform-origin: 304.663px 428.685px;" id="elfd6bwce9k9" class="animable"></path><path d="M296.14,426.59a1.76,1.76,0,0,0-1.84,1.46,1.68,1.68,0,0,0,1.43,1.83,1.85,1.85,0,0,0,1.94-1.55c0-.86-.84-1.86-1.7-1.74" style="fill: rgb(224, 224, 224); transform-origin: 295.981px 428.232px;" id="elivtow63yfj" class="animable"></path><path d="M284.42,437.43l1.33-3.23L324,449.77s1.5,1.45.83,2.64Z" style="fill: rgb(38, 50, 56); transform-origin: 304.711px 443.305px;" id="eluazszgngsr" class="animable"></path><path d="M308.71,433c-.08.19-1.1-.08-2.31.19s-2,.91-2.18.77.56-1.18,2-1.48S308.81,432.84,308.71,433Z" style="fill: rgb(255, 255, 255); transform-origin: 306.455px 433.191px;" id="ele2ipmwptiva" class="animable"></path><path d="M312.29,436.33c0,.21-1,.23-2,.81s-1.5,1.4-1.7,1.32.1-1.25,1.33-1.95S312.35,436.14,312.29,436.33Z" style="fill: rgb(255, 255, 255); transform-origin: 310.413px 437.275px;" id="elmza79yrkme8" class="animable"></path><path d="M312.81,442.29c-.19,0-.1-1.11.81-2s2-1,2-.79-.77.56-1.5,1.31S313,442.34,312.81,442.29Z" style="fill: rgb(255, 255, 255); transform-origin: 314.174px 440.851px;" id="elpgdckop8lx" class="animable"></path><path d="M310.12,428.12c-.15.15-1-.46-2.1-.8s-2.14-.31-2.18-.51,1.06-.6,2.39-.19S310.27,428,310.12,428.12Z" style="fill: rgb(255, 255, 255); transform-origin: 307.989px 427.293px;" id="el0blh60544sgm" class="animable"></path><path d="M214.48,403.35l-22.59,2s-5.58,23.63-9.72,24.4l-5.41-43.68,35.08-4.52Z" style="fill: rgb(69, 90, 100); transform-origin: 195.62px 405.65px;" id="elt1w7ibtobk" class="animable"></path><path d="M192.1,391.59a1.77,1.77,0,0,0-2.18-1,1.73,1.73,0,0,0-1,2.16,1.9,1.9,0,0,0,2.33,1,1.79,1.79,0,0,0,.78-2.36" style="fill: rgb(224, 224, 224); transform-origin: 190.518px 392.176px;" id="elpr4dhvpdbh" class="animable"></path><path d="M176.76,386.05l3.55-.31,3.86,42s-.61,2-2,2Z" style="fill: rgb(38, 50, 56); transform-origin: 180.465px 407.74px;" id="el1hn0p2aw5tp" class="animable"></path><path d="M192.2,406c-.22,0-.45-1-1.26-2s-1.79-1.41-1.72-1.62,1.33,0,2.29,1.14S192.4,406,192.2,406Z" style="fill: rgb(255, 255, 255); transform-origin: 190.77px 404.154px;" id="elssxrlyx61ll" class="animable"></path><path d="M190.87,410.82c-.2.08-.68-.8-1.67-1.41s-2-.71-2-.92,1.17-.5,2.39.29S191.07,410.79,190.87,410.82Z" style="fill: rgb(255, 255, 255); transform-origin: 189.065px 409.543px;" id="elgo6on9xxpu5" class="animable"></path><path d="M185.71,414.11c-.07-.19,1-.62,2.19-.22s1.83,1.34,1.66,1.46-.87-.43-1.89-.75S185.75,414.31,185.71,414.11Z" style="fill: rgb(255, 255, 255); transform-origin: 187.647px 414.546px;" id="elvd4kyfpt6o" class="animable"></path><path d="M197.3,405c-.21-.07,0-1.08-.27-2.28s-.73-2.09-.56-2.22,1.05.67,1.3,2.09S197.48,405.07,197.3,405Z" style="fill: rgb(255, 255, 255); transform-origin: 197.134px 402.745px;" id="elfbf6zemo2x7" class="animable"></path><path d="M211.91,289.6c0,1-4.23,18.86.34,31.81,2.26,6.4,21.12,53.45,21.12,53.45l-4.34.73-37.4,6.64,3.57,23.29s52.91-3.52,59.94-5.65,13.23-7.8,13.23-16.53-8-55-8-55l-6.75-34.51Z" style="fill: rgb(38, 50, 56); transform-origin: 230px 347.56px;" id="ellgsau52grl" class="animable"></path><path d="M275.75,290.7c.54.6,55.3,54.17,58.62,60.21s2.68,14.28.26,21.23-20.89,56-20.89,56l-25.37-8.75,14.21-40.75a5.52,5.52,0,0,1,2.48-3.66l.24-5.1h0l-21.5-19.49-24.5-23.88-5.71-32.7Z" style="fill: rgb(38, 50, 56); transform-origin: 295.122px 359.42px;" id="el5ax3mwuyb5k" class="animable"></path><path d="M317.61,366c0,.15-2.88.83-6.34,2.08s-6.14,2.56-6.21,2.42a6.68,6.68,0,0,1,1.68-1,37,37,0,0,1,4.36-1.88,35.56,35.56,0,0,1,4.56-1.32A6.59,6.59,0,0,1,317.61,366Z" style="fill: rgb(69, 90, 100); transform-origin: 311.335px 368.255px;" id="elmh4x5y62w8o" class="animable"></path><path d="M240,387.14a8.67,8.67,0,0,1-1.88-1.94,26.6,26.6,0,0,1-3.28-5.64c-1-2.33-1.77-4.51-2.29-6.09a14.13,14.13,0,0,1-.75-2.59,13.75,13.75,0,0,1,1.09,2.47c.62,1.54,1.41,3.69,2.43,6a34,34,0,0,0,3.09,5.63C239.34,386.33,240.05,387.08,240,387.14Z" style="fill: rgb(69, 90, 100); transform-origin: 235.901px 379.01px;" id="elymxuy4hzvt" class="animable"></path><g id="elrukqtxfdp1h"><g style="opacity: 0.3; transform-origin: 246.555px 304.729px;" class="animable"><path d="M209.9,303.44c5.63,6.16,13.1,9.28,21.22,11.19s16.88,2.71,25.1,1.31a47.06,47.06,0,0,0,15.54-5.15,28.22,28.22,0,0,0,11.45-12.72l-5.33-5.26-66.06,8.4Z" id="el5q3ip7i95aq" class="animable" style="transform-origin: 246.555px 304.729px;"></path></g></g><path d="M197.08,238s-4,31.64-1.84,39.84,5.69,16.4,16.57,14.73l9.21-2.51s4.69-33,5-33.65-3.35-30.29-3.35-30.29l-12.36-4.56Z" style="fill: rgb(38, 50, 56); transform-origin: 210.319px 257.174px;" id="elmth1qcpyfk9" class="animable"></path><path d="M205.7,236.72l2.92,2.5,6,23.87-6.23,38.11s7.12,6.94,15.15,8.48,24.68,7,37.6,1c15.73-7.26,17.57-15.23,21.14-17.87l-5.21-5.88s-2.22-51.9-2.44-62.51S260,192.3,260,192.3L234,191l-20,6.9Z" style="fill: rgb(217, 104, 87); transform-origin: 243.99px 252.215px;" id="elrb7p1qnknmj" class="animable"></path><polygon points="269.39 269.25 253.59 273.46 250.89 223.99 266.97 222.14 269.39 269.25" style="fill: rgb(224, 224, 224); transform-origin: 260.14px 247.8px;" id="el283v6kh2ycb" class="animable"></polygon><path d="M214,197.85s-9.16,3.5-11.66,8.25-19.77,27.78-19.77,27.78l24,14c-.19-.29,11.86-13,14-21.52,2.2-8.71-1.75-22.52-2.75-24.77S214,197.85,214,197.85Z" style="fill: rgb(217, 104, 87); transform-origin: 201.898px 222.865px;" id="elbuiekanxker" class="animable"></path><path d="M220.85,195.48s11.74,9.63,14.08,16.49,13.67,39.92,13.67,39.92-13.55,19.7-21.26,22-18.7,5.18-18.7,5.18l1.66,8.27s29-9.77,36.27-19,7-16,7-16-9.44-39.27-12.78-47S230,192.3,230,192.3C226.45,192.28,223.33,193,220.85,195.48Z" style="fill: rgb(38, 50, 56); transform-origin: 231.106px 239.82px;" id="elx20375df11e" class="animable"></path><path d="M220.85,229.17a19.54,19.54,0,0,1-1.91,2.87c-1.25,1.73-3,4.08-5,6.65l-5.14,6.54a26.35,26.35,0,0,1-2.2,2.66,19.88,19.88,0,0,1,1.91-2.88c1.25-1.73,3-4.07,5-6.64l5.14-6.55A24.07,24.07,0,0,1,220.85,229.17Z" style="fill: rgb(38, 50, 56); transform-origin: 213.725px 238.53px;" id="elxwljuetk1t" class="animable"></path><path d="M261.06,193.68s11,1.57,16.42,9.85c5,7.68,12.66,28.23,12.66,28.23l-15.44,8.61L264.43,208.5Z" style="fill: rgb(217, 104, 87); transform-origin: 275.6px 217.025px;" id="elrbeon6ytdd" class="animable"></path><path d="M259.1,192s5.32-2.84,10.19,11.19c2.48,7.12,9.44,21.43,9.42,32.07,0,5.49-2.65,27.62-2.65,27.62l-1-23.06C274.68,233,267.51,207.46,259.1,192Z" style="fill: rgb(38, 50, 56); transform-origin: 268.905px 227.322px;" id="elo1pqyjme5ha" class="animable"></path><path d="M222.15,210.36c-.08,0-.4-.83-1.13-2.08A16.62,16.62,0,0,0,217.4,204a17,17,0,0,0-4.86-2.84c-1.36-.5-2.25-.67-2.24-.76a6.78,6.78,0,0,1,2.36.42,14.56,14.56,0,0,1,5.08,2.78,14.88,14.88,0,0,1,3.61,4.53A6.64,6.64,0,0,1,222.15,210.36Z" style="fill: rgb(38, 50, 56); transform-origin: 216.225px 205.38px;" id="el4o1u3nkf22e" class="animable"></path><path d="M274.05,215.37a6.88,6.88,0,0,1,.25,1.24c.13.8.28,2,.41,3.41.28,2.88.5,6.88.6,11.3s.11,8.42.07,11.31c0,1.45,0,2.62-.07,3.43a6.42,6.42,0,0,1-.1,1.26,5.86,5.86,0,0,1-.11-1.26l-.09-3.43c-.05-3-.13-6.94-.22-11.3s-.26-8.4-.44-11.28c-.1-1.36-.18-2.51-.25-3.42A5.26,5.26,0,0,1,274.05,215.37Z" style="fill: rgb(38, 50, 56); transform-origin: 274.717px 231.345px;" id="ellejdj51l6wi" class="animable"></path><path d="M244.86,302.43a11.44,11.44,0,0,1,1.5.14,32.69,32.69,0,0,0,4.08.2,31,31,0,0,0,13-3,39.92,39.92,0,0,0,6.35-3.79,27.19,27.19,0,0,0,4.43-4.09,38.45,38.45,0,0,0,3.2-4.56s0,.13-.13.37-.25.58-.49,1a21.37,21.37,0,0,1-2.3,3.43,26.22,26.22,0,0,1-4.42,4.24,38.58,38.58,0,0,1-6.42,3.87,29.65,29.65,0,0,1-13.21,2.91,27.9,27.9,0,0,1-4.1-.36A8,8,0,0,1,244.86,302.43Z" style="fill: rgb(38, 50, 56); transform-origin: 261.14px 295.241px;" id="elq8jegmzt2u" class="animable"></path><g id="elmm5qdqkavv"><g style="opacity: 0.3; transform-origin: 229.8px 271.752px;" class="animable"><path d="M214.31,264.54l-2.06,12.4c4.45,1.21,9.8,1.59,14.39,1.91A23.56,23.56,0,0,0,240,276.22c4-2.29,7.07-6.43,7.35-11C236.22,272.58,225,272.53,214.31,264.54Z" id="elejs2bkeaio" class="animable" style="transform-origin: 229.8px 271.752px;"></path></g></g><path d="M251.34,247.47c-.26,0-8.41,1-9.76,1.7s-2,2.46-2.38,3.14-4.07,8.14-4.07,8.14l-2.36,1.26-.77,11s6.27,1.6,8.64,0,4.87-5.42,4.87-5.42,4.81-.51,5.4-1.45a4.47,4.47,0,0,0,.43-2.46s2.37-.25,2.63-1.19a4.85,4.85,0,0,0-.43-2.46A3.26,3.26,0,0,0,255,257.4a6,6,0,0,0-.76-3s-.59-4.67-1.19-5.86A1.82,1.82,0,0,0,251.34,247.47Z" style="fill: rgb(174, 116, 97); transform-origin: 243.5px 260.445px;" id="elscobk7u1gx" class="animable"></path><path d="M245.73,253.15a10.37,10.37,0,0,1,4.23.23,10.49,10.49,0,0,1,4,1.47c-.06.14-1.83-.5-4.08-1S245.73,253.3,245.73,253.15Z" style="fill: rgb(111, 68, 57); transform-origin: 249.845px 253.95px;" id="elwwa8ra4szkp" class="animable"></path><path d="M247.55,257.16a6.1,6.1,0,0,1,3.39.56,6,6,0,0,1,2.84,1.93c-.09.12-1.32-.77-3-1.44S247.53,257.31,247.55,257.16Z" style="fill: rgb(111, 68, 57); transform-origin: 250.665px 258.388px;" id="elcdl4tkhkkm8" class="animable"></path><path d="M246.51,261.88a6.88,6.88,0,0,1,4.93,2,16.12,16.12,0,0,1-2.46-1A15.86,15.86,0,0,1,246.51,261.88Z" style="fill: rgb(111, 68, 57); transform-origin: 248.975px 262.88px;" id="elimvk2x51nu" class="animable"></path><path d="M235.2,267.61a23.4,23.4,0,0,1-.27-7,24.3,24.3,0,0,1,.27,7Z" style="fill: rgb(111, 68, 57); transform-origin: 235.06px 264.11px;" id="elmz0mkouuoxc" class="animable"></path><path d="M251.62,251.59c.09.11-.57.74-1.55,1.25s-1.87.69-1.92.56.74-.53,1.68-1S251.54,251.47,251.62,251.59Z" style="fill: rgb(111, 68, 57); transform-origin: 249.888px 252.506px;" id="elanm1tl0rkrt" class="animable"></path><path d="M251.19,253.84c-.11.1-.44-.12-.62-.55s-.13-.81,0-.83.31.27.46.62S251.3,253.75,251.19,253.84Z" style="fill: rgb(111, 68, 57); transform-origin: 250.843px 253.161px;" id="elq2y0cgkkqle" class="animable"></path><path d="M199.67,246.81l1.37-2.17L185,235.26s-8.67,9.16-7.37,17.16c.63,3.9,17,19.55,54.4,20.33l.77-11S200.25,247.39,199.67,246.81Z" style="fill: rgb(174, 116, 97); transform-origin: 205.149px 254.005px;" id="elwirlykriwx" class="animable"></path><path d="M188.44,250.69a4.89,4.89,0,0,1,1.33-1.31,13.37,13.37,0,0,1,8.44-2.76,4.87,4.87,0,0,1,1.84.27,18.11,18.11,0,0,0-11.61,3.8Z" style="fill: rgb(111, 68, 57); transform-origin: 194.245px 248.652px;" id="elcyn2wjvbmzp" class="animable"></path><path d="M274.45,142a2.66,2.66,0,0,0,0-3.64,5,5,0,0,0-5.76-3,4.7,4.7,0,0,0-4.37-2.14l1.46-.27c-.05-.49-.1-1-.16-1.46a1.92,1.92,0,0,0,2.12-2.28,1.88,1.88,0,0,0,1.17-2.35,4,4,0,0,0-4.12-.41,11,11,0,0,0-5.49,1.85l-.75-1.27a8.74,8.74,0,0,0,0-5.26A2.53,2.53,0,0,0,257,120c-.8-.21-1.77.71-1.31,1.39a2,2,0,0,0-2.68,1,1.71,1.71,0,0,0-1.46,2.63c-.88-.46-2,.42-2.12,1.41a3.44,3.44,0,0,0,.34,1.85,1.32,1.32,0,0,0-1.52-.19,1.7,1.7,0,0,0-2.55-1.39,7.53,7.53,0,0,0-4.76-3.14.88.88,0,0,0-.19-1.45,1.43,1.43,0,0,0-1.6.46,4.23,4.23,0,0,0-.74,1.61,7.94,7.94,0,0,0-.48,3.56,2.7,2.7,0,0,0,2.37,2.35,3.08,3.08,0,0,0,2.33,4.56L263,146.74q2,1.6,4.1,3.19a8.42,8.42,0,0,0,3.86,2c1.45.2,3.17-.66,3.35-2.12a4,4,0,0,0-1.26-2.88,23.77,23.77,0,0,0-6.19-5.06,13,13,0,0,0,3.83,1.3A4.34,4.34,0,0,0,274.45,142Z" style="fill: rgb(38, 50, 56); transform-origin: 256.532px 135.964px;" id="elrmz9w1q4mg" class="animable"></path><path d="M274.42,150.41a.91.91,0,0,0-.06-1.75,2.14,2.14,0,0,1-.9-2.32.84.84,0,0,0-1.06-.12,1.25,1.25,0,0,0-2.11-1.06,2,2,0,0,0-3.38-1.7L265,151a7.63,7.63,0,0,0,4,1.8l2.48.55a1.93,1.93,0,0,0,.86.05.6.6,0,0,0,.47-.64c-.07.47.73.65,1,.27a1.35,1.35,0,0,0,0-1.36.69.69,0,0,0,.61-1.23Z" style="fill: rgb(38, 50, 56); transform-origin: 270.026px 148.158px;" id="el880tfjxci3u" class="animable"></path><path d="M268.48,172.9c-.28-5.26-1.09-13.87-2.52-23.61A20.25,20.25,0,0,0,244.65,132l-1.05.07c-11.2,1.41-14.06,12.06-12.35,23.29L234.06,191l25.68,8.62-.63-13S269.07,183.78,268.48,172.9Z" style="fill: rgb(174, 116, 97); transform-origin: 249.649px 165.79px;" id="elkr1ngovk7se" class="animable"></path><path d="M259.11,186.56a27.37,27.37,0,0,1-14.45-3.41s3.88,8.27,14.6,6.58Z" style="fill: rgb(111, 68, 57); transform-origin: 251.96px 186.554px;" id="elo4xpjttapsm" class="animable"></path><path d="M262.64,159.56a1.56,1.56,0,0,1-1.39,1.66,1.47,1.47,0,0,1-1.68-1.29,1.54,1.54,0,0,1,1.38-1.67A1.49,1.49,0,0,1,262.64,159.56Z" style="fill: rgb(38, 50, 56); transform-origin: 261.104px 159.741px;" id="ellpdp3cf4x4c" class="animable"></path><path d="M264.14,155.31c-.17.21-1.4-.58-3.06-.47s-2.82,1-3,.84.08-.46.58-.89a4.31,4.31,0,0,1,2.4-.92,4.08,4.08,0,0,1,2.46.63C264,154.86,264.23,155.21,264.14,155.31Z" style="fill: rgb(38, 50, 56); transform-origin: 261.091px 154.78px;" id="elsivgluo2ib" class="animable"></path><path d="M247.6,160.36a1.55,1.55,0,0,1-1.39,1.66,1.48,1.48,0,0,1-1.68-1.29,1.55,1.55,0,0,1,1.38-1.67A1.49,1.49,0,0,1,247.6,160.36Z" style="fill: rgb(38, 50, 56); transform-origin: 246.065px 160.54px;" id="eljg8dbjnos3" class="animable"></path><path d="M248.23,156.13c-.17.21-1.4-.58-3.06-.47s-2.83,1-3,.84.07-.46.58-.89a4.31,4.31,0,0,1,2.4-.92,4.08,4.08,0,0,1,2.46.63C248.12,155.68,248.32,156,248.23,156.13Z" style="fill: rgb(38, 50, 56); transform-origin: 245.183px 155.6px;" id="el2a9nilrirzp" class="animable"></path><path d="M254.53,168.15a11.17,11.17,0,0,1,2.66-.67c.42-.07.82-.18.87-.48a2.17,2.17,0,0,0-.37-1.24c-.46-1-.95-2.06-1.46-3.17-2.05-4.51-3.57-8.23-3.38-8.31s2,3.51,4,8c.5,1.11,1,2.17,1.42,3.19a2.46,2.46,0,0,1,.33,1.66,1.07,1.07,0,0,1-.66.67,3,3,0,0,1-.71.15A10.41,10.41,0,0,1,254.53,168.15Z" style="fill: rgb(38, 50, 56); transform-origin: 255.732px 161.223px;" id="elg5wgkb416jj" class="animable"></path><path d="M247.94,151.35c-.17.45-1.63.15-3.36.3s-3.16.6-3.37.18c-.09-.2.17-.61.76-1a5.21,5.21,0,0,1,2.53-.86,5.1,5.1,0,0,1,2.6.49C247.71,150.77,248,151.14,247.94,151.35Z" style="fill: rgb(38, 50, 56); transform-origin: 244.57px 150.98px;" id="elwjy8ktz2ygp" class="animable"></path><path d="M263.47,150.75c-.24.42-1.43.2-2.8.38s-2.48.63-2.8.28c-.15-.17,0-.58.43-1a3.84,3.84,0,0,1,2.17-1,3.77,3.77,0,0,1,2.34.42C263.35,150.18,263.57,150.55,263.47,150.75Z" style="fill: rgb(38, 50, 56); transform-origin: 260.653px 150.456px;" id="eltizlnkcrki" class="animable"></path><path d="M264.59,144.37s-3.3-6.62-6.67-8c-4.08-1.67-5.49,2.81-9.33,2s-7.73-2.41-11.39.78c-4,3.48-1.88,5.6-1.82,10.44.24,19.64-2.95,25.4-4.57,16.26-.17-1-3-1.63-3.71-5.86-.9-5.5-1.55-12.2-.59-16.21.82-3.37,2.54-5.78,5.74-8.53,5.05-4.33,12.33-4.89,17.32-4.72S264.48,135.81,264.59,144.37Z" style="fill: rgb(38, 50, 56); transform-origin: 245.313px 150.294px;" id="elxf9beprun6" class="animable"></path><path d="M232.85,165.42a2.94,2.94,0,0,0-3.35-2.63c-2,.33-4.17,1.63-3.76,5.81.72,7.42,8,5.16,8,4.94S233.19,168.53,232.85,165.42Z" style="fill: rgb(174, 116, 97); transform-origin: 229.715px 168.396px;" id="else4ya25l33" class="animable"></path><path d="M231.83,170.91s-.12.1-.33.23a1.29,1.29,0,0,1-.95.11,3.22,3.22,0,0,1-1.76-2.73,4.46,4.46,0,0,1,.18-1.88,1.5,1.5,0,0,1,.87-1.09.65.65,0,0,1,.79.28c.12.2.09.35.13.36s.15-.14.06-.44a.89.89,0,0,0-.34-.44,1,1,0,0,0-.73-.11,1.82,1.82,0,0,0-1.23,1.28,4.54,4.54,0,0,0-.24,2.11c.19,1.49,1.09,2.81,2.19,3a1.44,1.44,0,0,0,1.16-.31C231.84,171.09,231.86,170.92,231.83,170.91Z" style="fill: rgb(111, 68, 57); transform-origin: 230.043px 168.392px;" id="el59modze00f8" class="animable"></path><path d="M258.34,131.74a2.46,2.46,0,0,0-2.85-.65l-15.18.87a3.23,3.23,0,0,0-5.9-.84,2.73,2.73,0,0,0-4.89,1.22,4.06,4.06,0,0,0-6.39,2.91c-1.49-.25-3.16-.47-4.43.36s-1.49,3.17,0,3.67a1.5,1.5,0,0,0,2.3,1.88,1.59,1.59,0,0,0,1.74,2.14,6.31,6.31,0,0,0-2.78,3.4,3.27,3.27,0,0,0,.4,3.24c.78.83,2.49.67,2.78-.43a1.94,1.94,0,0,0,3.75-.73,2.29,2.29,0,0,0,3.71-.88,2.49,2.49,0,0,0,3.42-1.07,2.82,2.82,0,0,0,3.79,3.31,4.23,4.23,0,0,0,2.53,3.2,5.38,5.38,0,0,0,2.58-2c.53-1,.19-2.46-.89-2.69a3,3,0,0,0-.15-3.72,1.62,1.62,0,0,0,1.91-2.16,3.68,3.68,0,0,0,4.53,2.38,2.92,2.92,0,1,0,3.9-4.34,2.14,2.14,0,0,0-1.68-2.85,1.65,1.65,0,0,0,2.12-1.34c2.25.16,5,0,6-2A2.75,2.75,0,0,0,258.34,131.74Z" style="fill: rgb(38, 50, 56); transform-origin: 238.295px 141.442px;" id="elc8zac8df5nd" class="animable"></path><path d="M276.64,139.74a.72.72,0,0,0-.74-.38.3.3,0,0,0,0-.26c-.07-.2-.31-.3-.52-.37a7.12,7.12,0,0,0-1.83-.34,2.74,2.74,0,0,0-1.29-1l.31-.28a1.08,1.08,0,0,0-.88-.76l-6,4.55a2.76,2.76,0,0,0,1.15,1.53,1,1,0,0,0,1.38-.49,1.21,1.21,0,0,0,2.26.73.84.84,0,1,0,1.62.23.78.78,0,0,0,.86.62.77.77,0,0,0,.61-.86.82.82,0,0,0,1.07.16.81.81,0,0,0,.22-1.06,1,1,0,0,0,1.21-1A.72.72,0,0,0,276.64,139.74Z" style="fill: rgb(38, 50, 56); transform-origin: 271.199px 140.082px;" id="elyra24uoeea" class="animable"></path><path d="M258.47,138.44a1.37,1.37,0,0,0,1.08-1.7,2.16,2.16,0,0,0-.72-3.6l-7.32,2.78a1.68,1.68,0,0,0,2.22,2,1.62,1.62,0,0,0,2.18,1.73,1.94,1.94,0,1,0,2.56-1.18Z" style="fill: rgb(38, 50, 56); transform-origin: 255.844px 137.675px;" id="elf8x9xrkoxfe" class="animable"></path><path d="M255.15,133.3s-.07-.22-.35-.51a1.37,1.37,0,0,0-1.49-.32l-.19.08,0-.2a2.5,2.5,0,0,0-1.63-1.95,2.39,2.39,0,0,0-2.83,1.23l-.14.32-.25-.25a2.15,2.15,0,0,0-1.77-.56,2,2,0,0,0-1.54,1.19,1.68,1.68,0,0,0-.16.54l0,.18-.18,0a2.52,2.52,0,0,0-1.84,1.69,2.59,2.59,0,0,0,.41,2.29l.14.17-.17.15a1.78,1.78,0,0,0-.48,1.92,1.83,1.83,0,0,0,1.3,1.11l.28.06-.2.21a1.89,1.89,0,0,0-.37,1.87,5.32,5.32,0,0,0,.33.66s-.27-.12-.5-.6a2,2,0,0,1,.31-2.15l.09.27a2.14,2.14,0,0,1-1.06-3.7l0,.32a3,3,0,0,1,1.68-4.78l-.2.21a2.41,2.41,0,0,1,.2-.68,2.59,2.59,0,0,1,1.95-1.48,2.62,2.62,0,0,1,2.18.72l-.39.07a2.73,2.73,0,0,1,5.19.89l-.21-.11a1.52,1.52,0,0,1,1.74.49A.82.82,0,0,1,255.15,133.3Z" style="fill: rgb(69, 90, 100); transform-origin: 248.657px 136.493px;" id="el6jr85j89wlt" class="animable"></path><path d="M264.52,133c-.07,0-.27-.35-.83-.65a1.89,1.89,0,0,0-1-.2,1.8,1.8,0,0,0-1.12.56.9.9,0,0,0-.15.19l-.13.16-.18-.07a1.86,1.86,0,0,0-2,.48c-.4.43-.48.82-.56.8s-.11-.44.28-1a2.11,2.11,0,0,1,2.47-.74l-.3.09a1.43,1.43,0,0,1,.19-.24,2.2,2.2,0,0,1,1.47-.69,2,2,0,0,1,1.26.37C264.5,132.53,264.58,133,264.52,133Z" style="fill: rgb(69, 90, 100); transform-origin: 261.518px 132.979px;" id="elnl0jlwt87p" class="animable"></path><path d="M259.6,128.4c0,.08-.42,0-1,.16a1.9,1.9,0,0,0-1.34,1.62,1.74,1.74,0,0,0,0,.65l.08.29-.29,0a1.29,1.29,0,0,0-1.13,1.11c-.06.45.08.74,0,.77s-.31-.21-.34-.78a1.59,1.59,0,0,1,1.4-1.6l-.22.32a2.36,2.36,0,0,1-.07-.84,2.24,2.24,0,0,1,.67-1.38,2.15,2.15,0,0,1,1.11-.55C259.24,128.09,259.63,128.35,259.6,128.4Z" style="fill: rgb(69, 90, 100); transform-origin: 257.591px 130.579px;" id="elc2r4nwqysnk" class="animable"></path><path d="M223,141.27s-.07-.08,0-.24a.47.47,0,0,1,.67-.24l-.15.06a3.11,3.11,0,0,1,1.34-2,3.23,3.23,0,0,1,3.62.09l-.38.21a2.76,2.76,0,0,1,3.82-2.79l.05,0-.36.23a2.89,2.89,0,0,1,5.11-1.81l-.38.14a2.59,2.59,0,0,1,1.21-2.05,2.38,2.38,0,0,1,1.8-.29,2.18,2.18,0,0,1,1,.52c.2.18.27.31.26.32a3.43,3.43,0,0,0-1.34-.59,2.16,2.16,0,0,0-1.56.34,2.22,2.22,0,0,0-1,1.76l0,.57-.37-.43a2.55,2.55,0,0,0-2.5-.75,2.49,2.49,0,0,0-1.76,2.28V137l-.36-.15-.05,0a2.32,2.32,0,0,0-2.28.31,2.36,2.36,0,0,0-.86,2l0,.52-.41-.31a2.87,2.87,0,0,0-3.15-.17,3,3,0,0,0-1.34,1.76l0,.14-.12-.08c-.17-.13-.4,0-.46.12S223.05,141.27,223,141.27Z" style="fill: rgb(69, 90, 100); transform-origin: 231.79px 136.893px;" id="el2vfv6k0qmlh" class="animable"></path><path d="M236.43,149.93s-.64.19-1.45-.44a2.26,2.26,0,0,1-.83-1.55,2.48,2.48,0,0,1,.88-2.07l.18.45a1.4,1.4,0,0,1-1.14-.45,2.19,2.19,0,0,1-.56-1.1,3,3,0,0,1,1.7-3.23V142a1.69,1.69,0,0,1-.94-1.41,1.57,1.57,0,0,1,.46-1.21c.55-.51,1-.42,1-.39s-.41.09-.81.57a1.31,1.31,0,0,0-.29,1,1.34,1.34,0,0,0,.76,1l.46.2-.46.21a2.64,2.64,0,0,0-1.38,2.72c.12.64.63,1.22,1.14,1.15l.9-.11-.72.56a2,2,0,0,0-.76,1.64,2,2,0,0,0,.61,1.35A3.26,3.26,0,0,0,236.43,149.93Z" style="fill: rgb(69, 90, 100); transform-origin: 234.949px 144.461px;" id="el1s2mimo90ar" class="animable"></path><ellipse cx="239.73" cy="131.2" rx="0.03" ry="0.26" style="fill: rgb(69, 90, 100); transform-origin: 239.73px 131.2px;" id="elkn0jldz4vep" class="animable"></ellipse><path d="M244.19,132.67c-.07,0-.09-.26-.32-.54a.9.9,0,0,0-1.19-.16l-.39.27v-.49a.65.65,0,0,0-.13-.39,1.44,1.44,0,0,0-1.61-.34c-.49.14-.81.25-.84.18s.21-.28.71-.53a2.27,2.27,0,0,1,1-.22,1.57,1.57,0,0,1,1.17.6,1.16,1.16,0,0,1,.22.72l-.4-.22a1.23,1.23,0,0,1,1.75.4C244.37,132.39,244.24,132.68,244.19,132.67Z" style="fill: rgb(69, 90, 100); transform-origin: 241.992px 131.56px;" id="el7ov6fno0fs2" class="animable"></path><path d="M250.88,129.86c-.15,0-.26-.48-.64-.89s-.82-.58-.81-.73.68-.19,1.19.39S251,129.89,250.88,129.86Z" style="fill: rgb(69, 90, 100); transform-origin: 250.209px 129.003px;" id="elqb83ere172f" class="animable"></path><path d="M234.2,148.56a1.91,1.91,0,0,1,.22,1,1.65,1.65,0,0,1-.36,1.17,1.36,1.36,0,0,1-.7.4,1,1,0,0,1-.92-.27l.36-.2a2.25,2.25,0,0,1-.55,2.41,1.81,1.81,0,0,1-1.42.46,1.57,1.57,0,0,1-1.23-1,1.31,1.31,0,0,1,0-.76l.44.24a1.29,1.29,0,0,1-1.44.19,1.7,1.7,0,0,1-.92-1,4,4,0,0,1,0-2.18l.39.13a3.43,3.43,0,0,1-2.15,1.58c-.63.15-1,.06-1,0s.36,0,.93-.25a3.37,3.37,0,0,0,1.84-1.55l.53-1-.14,1.11a3.87,3.87,0,0,0,.07,1.94c.19.58,1.1,1,1.54.58l.61-.6-.17.85a.81.81,0,0,0,0,.46,1,1,0,0,0,.81.68,1.37,1.37,0,0,0,1-.32,1.88,1.88,0,0,0,.47-1.92l-.3-1,.66.85c.25.3.8.16,1.05-.1a1.4,1.4,0,0,0,.37-.93A5.92,5.92,0,0,1,234.2,148.56Z" style="fill: rgb(69, 90, 100); transform-origin: 229.673px 150.736px;" id="elt21nor4pohm" class="animable"></path><path d="M269.79,142s-.2.58-1.08.91a2.27,2.27,0,0,1-1.6,0,2.44,2.44,0,0,1-1.38-1.43l.36.14-.24.11a3.16,3.16,0,0,1-2.05.08,2.88,2.88,0,0,1-1.39-.92c-.61-.75-.62-1.38-.56-1.38s.22.53.83,1.13a2.76,2.76,0,0,0,1.25.71,2.88,2.88,0,0,0,1.73-.1l.2-.09.27-.12.09.26a2,2,0,0,0,1.08,1.17,2,2,0,0,0,1.31.13C269.39,142.37,269.73,141.92,269.79,142Z" style="fill: rgb(69, 90, 100); transform-origin: 265.808px 141.283px;" id="eli5omas10m5j" class="animable"></path><path d="M256.41,140.57s-.22.17-.65,0a1.18,1.18,0,0,1-.67-1.59l.22.28a2.11,2.11,0,0,1-2-.61,2.05,2.05,0,0,1-.24-2.46.5.5,0,0,1,.61-.16.42.42,0,0,1,.23.34.62.62,0,0,1-.08.31.54.54,0,0,1-.53.26.87.87,0,0,1-.41-.19,2.29,2.29,0,0,1-.14-3.28,2.17,2.17,0,0,1,1.33-.61c.34,0,.53.05.52.08a2.8,2.8,0,0,0-1.58.79,1.85,1.85,0,0,0-.37,1.73,1.79,1.79,0,0,0,.56.89.44.44,0,0,0,.15.08h0s0-.06,0,0h0s0,0,0-.05,0,0,.06,0,.07,0,0,0,0,0,0,.08,0,0,0,0a1.48,1.48,0,0,0-.17.93,1.6,1.6,0,0,0,.37.86,1.71,1.71,0,0,0,1.52.55l.39-.07-.17.35a.92.92,0,0,0,.4,1.22C256.17,140.57,256.41,140.52,256.41,140.57Z" style="fill: rgb(69, 90, 100); transform-origin: 254.268px 136.753px;" id="elzpmfdcomcl" class="animable"></path><path d="M253.47,170.21a10.77,10.77,0,0,0-2.61-.91,1.63,1.63,0,0,0-1.21,0c-.52.3-.55,1-.48,1.62a4.23,4.23,0,0,0,1.7,3.26,3,3,0,0,0,3.32-.36,4.75,4.75,0,0,0,1.61-3.06Z" style="fill: rgb(111, 68, 57); transform-origin: 252.471px 171.853px;" id="elq5llpty4s9f" class="animable"></path><path d="M254.22,173.83a2.51,2.51,0,0,1-2,.63,3.6,3.6,0,0,1-2.15-.8,3.7,3.7,0,0,1-1.29-2.49,3.33,3.33,0,0,1,.19-1.5,1.1,1.1,0,0,1,.6-.6,1.3,1.3,0,0,1,.76.06l2.11.61a7.68,7.68,0,0,1,1.91.69,7.76,7.76,0,0,1-2-.33l-2.14-.51c-.43-.12-.6-.08-.77.29a2.64,2.64,0,0,0-.14,1.24,3.39,3.39,0,0,0,1.09,2.18,3.29,3.29,0,0,0,1.86.79A5.81,5.81,0,0,0,254.22,173.83Z" style="fill: rgb(38, 50, 56); transform-origin: 251.556px 171.759px;" id="elej8juwzj1bi" class="animable"></path></g><g id="freepik--character-1--inject-400" class="animable" style="transform-origin: 106.846px 247.21px;"><path d="M183.48,86.34s-5.43,40.66-10.73,51.53c-2.72,5.59-27.09,36.91-27.09,36.91l-13.35-19L157.84,128l14.49-42.38Z" style="fill: rgb(255, 191, 157); transform-origin: 157.895px 130.2px;" id="elwpiugmn6pgf" class="animable"></path><path d="M183.08,75.26c0-.29.75-3.6,0-4.53a2.39,2.39,0,0,0-2.07-.72,3.84,3.84,0,0,0-1.65-1.89,4.1,4.1,0,0,0-2.53,0l-.94-.63a2.22,2.22,0,0,0-2.29-.4,4.1,4.1,0,0,1-2.33.86c-1.23,0-2.79,3.37-3.65,5s-2.06,3.76-.47,6.18a73.26,73.26,0,0,0,5.54,7l10.14,1.07s1.37-1.23,1.56-4.85A17.84,17.84,0,0,0,183.08,75.26Z" style="fill: rgb(255, 191, 157); transform-origin: 175.383px 77.0666px;" id="el4jlm2r3u0er" class="animable"></path><path d="M181.05,70a11,11,0,0,0-.67,1.89c-.36,1.18-.83,2.82-1.33,4.64l-.18.67a.91.91,0,0,0-.05.21.53.53,0,0,0,.06.26.72.72,0,0,0,.3.32,3,3,0,0,0,1.33.34,1.75,1.75,0,0,0,1.2-.38,3,3,0,0,0,.7-.8,5.53,5.53,0,0,0,.59-1.37c.09-.33.11-.53.08-.53s-.25.74-.92,1.74a1.86,1.86,0,0,1-1.62,1,2.78,2.78,0,0,1-1.13-.29.48.48,0,0,1-.16-.16c0-.07,0,0,0-.19s.12-.44.19-.67c.49-1.81.92-3.46,1.21-4.66A8.86,8.86,0,0,0,181.05,70Z" style="fill: rgb(255, 154, 108); transform-origin: 180.956px 74.1666px;" id="elhycgq4srrxs" class="animable"></path><path d="M176.87,68.12a7.29,7.29,0,0,0-.34,1.64c-.16,1-.36,2.45-.55,4v0a1.54,1.54,0,0,1-.05.17,4.59,4.59,0,0,0,0,2.38,2,2,0,0,0,1.4,1.37,2.36,2.36,0,0,0,1.31-.06c.29-.1.43-.2.42-.22s-.17,0-.46.06a2.62,2.62,0,0,1-1.19-.06,1.71,1.71,0,0,1-1.11-1.2,4.48,4.48,0,0,1,.08-2.17l0-.15v0c.19-1.58.33-3,.42-4A6.8,6.8,0,0,0,176.87,68.12Z" style="fill: rgb(255, 154, 108); transform-origin: 177.417px 72.9326px;" id="el12875bdhmdn" class="animable"></path><path d="M173.64,67.09a13.48,13.48,0,0,0,.19,2.51v-.06c-.41,1.28-1,3-1.51,4.92q-.18.63-.36,1.23l0,.09,0,.07a3.71,3.71,0,0,0,.91,1.05,2,2,0,0,0,1.23.44,1.39,1.39,0,0,0,1.07-.52,3,3,0,0,0,.49-.85,5.67,5.67,0,0,0,.35-1.32c0-.31,0-.49,0-.49s-.15.69-.61,1.7c-.23.47-.62,1.14-1.31,1.12a2.39,2.39,0,0,1-1.78-1.33l0,.16.36-1.23c.57-1.91,1.06-3.66,1.41-5v-.06A13.83,13.83,0,0,0,173.64,67.09Z" style="fill: rgb(255, 154, 108); transform-origin: 173.985px 72.215px;" id="elbmcsr6xsvy" class="animable"></path><path d="M172.73,86.14s-5.5-6.76-5.54-7,1.28-8,2.54-9.42,3-3.2,3-3.2,2,.34,1.21,3.33-1.78,6-1.78,6L174,78.2s6.52,1.27,6.57,7.41" style="fill: rgb(255, 191, 157); transform-origin: 173.88px 76.33px;" id="el2f82juftexk" class="animable"></path><path d="M180.57,85.61a3.73,3.73,0,0,0,0-.77,3.88,3.88,0,0,0-.13-.92,6.64,6.64,0,0,0-.36-1.21A7.33,7.33,0,0,0,178,80a10.14,10.14,0,0,0-4-2l.11.07-1.85-2.35,0,.18c.47-1.42.94-2.92,1.39-4.51a16.8,16.8,0,0,0,.58-2.49,3.17,3.17,0,0,0-.16-1.36,2,2,0,0,0-.92-1.09,1.91,1.91,0,0,0-.47-.18l-.11,0-.07.08-1.62,1.75-.8.85a6.64,6.64,0,0,0-.75.89,9.79,9.79,0,0,0-.86,2.1c-.22.7-.39,1.39-.55,2.07-.32,1.35-.58,2.64-.78,3.86,0,.31-.09.61-.14.9l0,.24v.14a1.09,1.09,0,0,0,.08.15c.09.14.17.25.26.37l1,1.29c1.31,1.63,2.39,2.93,3.14,3.82l.88,1a2.91,2.91,0,0,0,.32.34s-.08-.15-.26-.39l-.81-1.07-3-3.9-1-1.3-.24-.34v0h-.1c.1,0,.07,0,.08,0v0l0-.21.15-.89c.22-1.21.49-2.49.81-3.83.17-.67.34-1.35.56-2a9.45,9.45,0,0,1,.82-2,6.72,6.72,0,0,1,.73-.84l.78-.84,1.61-1.73-.18.06a1.46,1.46,0,0,1,.34.13,2,2,0,0,1,.86,2,17.11,17.11,0,0,1-.55,2.41c-.44,1.58-.9,3.09-1.36,4.5l0,.09L172,76l1.87,2.34,0,0H174a10.14,10.14,0,0,1,3.88,1.84,7.27,7.27,0,0,1,2,2.58A11.21,11.21,0,0,1,180.57,85.61Z" style="fill: rgb(255, 154, 108); transform-origin: 173.795px 76.195px;" id="el64lic20dgog" class="animable"></path><polygon points="104.86 359.96 71.42 393.03 83.08 405.04 117.71 379.37 104.86 359.96" style="fill: rgb(255, 191, 157); transform-origin: 94.565px 382.5px;" id="elia6imjjcd7" class="animable"></polygon><path d="M84.85,404.85l1.68-1.27a31,31,0,0,1-9.91-17.11l-11.88,6.24,20,35.44C88,426.16,84.85,404.85,84.85,404.85Z" style="fill: rgb(69, 90, 100); transform-origin: 75.635px 407.31px;" id="elmp8t7361xlq" class="animable"></path><path d="M64.74,392.71l2.9-1.52,18.1,34.61s.19,1.94-1,2.35Z" style="fill: rgb(224, 224, 224); transform-origin: 75.2456px 409.67px;" id="elqma4o56eub" class="animable"></path><path d="M84.6,404.37c-.18.08-.75-.74-1.79-1.3s-2-.63-2.06-.83,1.14-.46,2.39.24S84.78,404.32,84.6,404.37Z" style="fill: rgb(38, 50, 56); transform-origin: 82.6947px 403.199px;" id="elptya2kt1ro9" class="animable"></path><path d="M73.68,394.67a1.11,1.11,0,0,1-1.46-.47,1,1,0,0,1,.45-1.41,1.1,1.1,0,0,1,1.45.47A1,1,0,0,1,73.68,394.67Z" style="fill: rgb(224, 224, 224); transform-origin: 73.1711px 393.73px;" id="el4ydet2q08ia" class="animable"></path><path d="M84.57,404s-.25-.2-.59-.63a4.48,4.48,0,0,1-1-2.14,3.06,3.06,0,0,1,0-.8,1.87,1.87,0,0,1,.27-.86.92.92,0,0,1,1-.38,1.38,1.38,0,0,1,.88.71,4,4,0,0,1-.36,4.26l-.39-.39a4.45,4.45,0,0,1,.81-.44,4.7,4.7,0,0,1,4.65.6,1.45,1.45,0,0,1,.43.48.76.76,0,0,1,0,.69,1.44,1.44,0,0,1-.88.69,3.35,3.35,0,0,1-1.85.05,5.89,5.89,0,0,1-2.3-1.22c-.47-.38-.72-.59-.7-.62a2.88,2.88,0,0,1,.83.44,6.26,6.26,0,0,0,2.24,1,3.07,3.07,0,0,0,1.61-.1,1,1,0,0,0,.59-.47c.09-.19,0-.35-.29-.56a4.21,4.21,0,0,0-4.11-.49,3.68,3.68,0,0,0-.71.38.28.28,0,0,1-.39-.06.27.27,0,0,1,0-.33,3.64,3.64,0,0,0,.37-3.7c-.24-.51-.86-.68-1.09-.31a2.47,2.47,0,0,0-.27,1.39,4.74,4.74,0,0,0,.8,2.05A3.07,3.07,0,0,1,84.57,404Z" style="fill: rgb(38, 50, 56); transform-origin: 86.6533px 402.553px;" id="elthv7ujf4cd" class="animable"></path><path d="M85.32,408.13a13.75,13.75,0,0,0-2.09-1.34,12.93,12.93,0,0,0-2.44-.55,3.22,3.22,0,0,1,2.61.16A3.14,3.14,0,0,1,85.32,408.13Z" style="fill: rgb(38, 50, 56); transform-origin: 83.055px 407.084px;" id="elab224qe87p" class="animable"></path><path d="M85.56,411.25c-.09.09-.88-.54-2-.95s-2.17-.47-2.17-.6a3.39,3.39,0,0,1,2.33.2A3.31,3.31,0,0,1,85.56,411.25Z" style="fill: rgb(38, 50, 56); transform-origin: 83.475px 410.419px;" id="elq5jm3x729vf" class="animable"></path><polygon points="95.89 339.59 49.52 342.99 50.27 359.25 92.68 362.08 95.89 339.59" style="fill: rgb(255, 191, 157); transform-origin: 72.705px 350.835px;" id="elrshxwc9a2j" class="animable"></polygon><path d="M51.7,360.22l2.07.12a30.17,30.17,0,0,1,3.88-18.93l-12.87-2.88-8.44,38.86C40.09,378,51.7,360.22,51.7,360.22Z" style="fill: rgb(69, 90, 100); transform-origin: 46.995px 357.968px;" id="el2jbrdprgsjw" class="animable"></path><path d="M44.78,338.53l3.15.7L38.64,376.3s-1.13,1.56-2.3,1.09Z" style="fill: rgb(224, 224, 224); transform-origin: 42.135px 358.004px;" id="eld564ydz1s8w" class="animable"></path><path d="M51.83,359.7c-.19-.05-.07-1-.47-2.09s-1.09-1.75-1-1.91,1.14.38,1.61,1.68S52,359.78,51.83,359.7Z" style="fill: rgb(38, 50, 56); transform-origin: 51.2662px 357.688px;" id="elz2otg8qwtad" class="animable"></path><path d="M50.11,345.62a1,1,0,0,1-.77-1.26,1,1,0,0,1,1.25-.77,1.05,1.05,0,0,1,.77,1.27A1,1,0,0,1,50.11,345.62Z" style="fill: rgb(224, 224, 224); transform-origin: 50.3454px 344.605px;" id="elvbmns7teu29" class="animable"></path><path d="M52,359.44a2.54,2.54,0,0,1,0-.84,4.5,4.5,0,0,1,.65-2.22,2.92,2.92,0,0,1,.53-.59,1.94,1.94,0,0,1,.77-.47.92.92,0,0,1,1,.37,1.34,1.34,0,0,1,.18,1.08,4.08,4.08,0,0,1-3.06,2.93l0-.53a3.45,3.45,0,0,1,.88.18,4.46,4.46,0,0,1,3,3.38,1.29,1.29,0,0,1,0,.62.79.79,0,0,1-.45.52,1.48,1.48,0,0,1-1.1,0A3.26,3.26,0,0,1,53,362.7a5.49,5.49,0,0,1-.9-2.36,3.31,3.31,0,0,1-.12-.9,2.54,2.54,0,0,1,.33.85,6,6,0,0,0,1,2.18,2.86,2.86,0,0,0,1.26.93,1,1,0,0,0,.74,0c.19-.09.22-.27.15-.6a4,4,0,0,0-2.71-3,4.51,4.51,0,0,0-.78-.16.27.27,0,0,1,0-.54,3.67,3.67,0,0,0,2.7-2.51c.16-.53-.19-1.05-.6-.92a2.53,2.53,0,0,0-1.1.86,4.67,4.67,0,0,0-.76,2A2.82,2.82,0,0,1,52,359.44Z" style="fill: rgb(38, 50, 56); transform-origin: 53.8439px 359.632px;" id="elt03yl620eud" class="animable"></path><path d="M49.91,363a13.62,13.62,0,0,0-.68-2.31,13.92,13.92,0,0,0-1.43-1.95c0-.11,1.17.44,1.82,1.76A3.09,3.09,0,0,1,49.91,363Z" style="fill: rgb(38, 50, 56); transform-origin: 48.9258px 360.863px;" id="eljk7eog5nysh" class="animable"></path><path d="M48,365.41c-.13,0-.31-1-.89-2s-1.29-1.72-1.21-1.81,1,.48,1.59,1.61A3.16,3.16,0,0,1,48,365.41Z" style="fill: rgb(38, 50, 56); transform-origin: 46.9618px 363.5px;" id="el9ln8ua8kyy" class="animable"></path><path d="M135,239.22c-.39.66-2.23,21.41-2.23,21.41s10.93,33.79,16.32,49.85c5,15,8.45,33.51,4,42s-47,36.85-47,36.85L89,374.21l32.6-34.08-13.83-64.47,6.38-41.31Z" style="fill: rgb(38, 50, 56); transform-origin: 122.072px 311.84px;" id="eli0nwfklo1x" class="animable"></path><path d="M83.87,227.5s-14.12,22.3-15,33.94c-1,13.34,7.79,28.37,12.12,37.68,4,8.55,18.79,38.16,18.79,38.16l-34.2,3.27s-2,14.66,2.18,23.41c0,0,43.4-.94,50.37-1.37s16.91-4.26,16.68-16.94-14.12-57.19-14.12-57.19l0-7.57,2.14-9.35,5.48-33.9-25.29-10Z" style="fill: rgb(38, 50, 56); transform-origin: 99.9578px 295.73px;" id="elhe6zh481qyf" class="animable"></path><g id="elz0md35tmy5"><path d="M133.68,252l.6-6.95-29.17-16.64-23.55-.07L74.7,245.67s19.66-7.49,25.43-7,33,18.34,33,18.34Z" style="opacity: 0.3; transform-origin: 104.49px 242.675px;" class="animable"></path></g><path d="M124.8,270.63s-.11.14-.34.39l-1,1.13-4.07,4.29,0-.09c.49,2.74,1.11,6.18,1.83,10.21h0c1.78,6.8,4,15.39,6.61,25.19,1.28,4.91,2.64,10.11,4.05,15.55q1.08,4.08,2.19,8.33a35.79,35.79,0,0,1,1.06,8.87,24.24,24.24,0,0,1-1.26,7.92,13.07,13.07,0,0,1-1.86,3.5,15.62,15.62,0,0,1-2.74,2.77,19.86,19.86,0,0,1-6.71,3.42,15,15,0,0,1-3.62.61l-3.54.09-24.78.67-16.7.41-4.54.09H68.18a3.15,3.15,0,0,1-.4,0l.4,0,1.18-.06,4.54-.18,16.7-.58,24.78-.78,3.53-.1a14.67,14.67,0,0,0,3.51-.6,19.15,19.15,0,0,0,6.52-3.34,15.28,15.28,0,0,0,2.65-2.68,12.9,12.9,0,0,0,1.79-3.36,24.2,24.2,0,0,0,1.22-7.76,35.75,35.75,0,0,0-1-8.74c-.74-2.82-1.47-5.6-2.17-8.31l-4-15.57-6.48-25.23h0c-.68-4-1.26-7.49-1.73-10.23v-.06l0,0,4.15-4.22,1.09-1.09Z" style="fill: rgb(69, 90, 100); transform-origin: 101.455px 317.308px;" id="elah6iw5903x" class="animable"></path><path d="M100,337.06a43.84,43.84,0,0,1,2.91,4.88,44.35,44.35,0,0,1,2.73,5,23.82,23.82,0,0,1-3.18-4.73A24.25,24.25,0,0,1,100,337.06Z" style="fill: rgb(69, 90, 100); transform-origin: 102.82px 342px;" id="elpcxhgmsnxco" class="animable"></path><path d="M87.56,247.85a25.39,25.39,0,0,1,2.82.42,41,41,0,0,0,6.83.43,39.71,39.71,0,0,0,6.8-.8,26.12,26.12,0,0,1,2.8-.57,11,11,0,0,1-2.71.93,31.22,31.22,0,0,1-13.78.38A11.07,11.07,0,0,1,87.56,247.85Z" style="fill: rgb(69, 90, 100); transform-origin: 97.185px 248.281px;" id="el395tfvt9w3b" class="animable"></path><path d="M104.72,260.19a17.5,17.5,0,0,1,2.49,2.09,76.28,76.28,0,0,1,5.42,5.62,74.17,74.17,0,0,1,4.81,6.17,16.68,16.68,0,0,1,1.71,2.75,23.5,23.5,0,0,1-2-2.54c-1.21-1.58-2.91-3.74-4.9-6s-3.89-4.29-5.29-5.71A23.9,23.9,0,0,1,104.72,260.19Z" style="fill: rgb(69, 90, 100); transform-origin: 111.935px 268.505px;" id="elv0zpu7dessb" class="animable"></path><path d="M118.1,273a4.56,4.56,0,0,1,.27-1.15c.24-.83.53-1.86.88-3.07.75-2.6,1.73-6.2,2.64-10.22s1.6-7.69,2-10.36c.21-1.25.39-2.3.54-3.16a5.2,5.2,0,0,1,.25-1.15,6.19,6.19,0,0,1,0,1.18c-.07.76-.19,1.85-.37,3.19-.37,2.68-1,6.38-1.91,10.41s-2,7.64-2.79,10.21c-.42,1.29-.78,2.33-1,3A5.76,5.76,0,0,1,118.1,273Z" style="fill: rgb(69, 90, 100); transform-origin: 121.404px 258.445px;" id="eldhoc1iss849" class="animable"></path><path d="M46.51,218.69s-1.2-39.25.11-47.39c1.66-10.29,15.84-15.51,23.5-17.19s20.85,1,20.85,1-1.79,67.49-2.25,68-10.17,16.31-10.17,16.31-28-1.45-30.61-6.08S46.51,218.69,46.51,218.69Z" style="fill: rgb(69, 90, 100); transform-origin: 68.4889px 196.488px;" id="el0y7opqwo0m8i" class="animable"></path><path d="M133.24,108.07c1.45,7.21.31,11.4,3.71,15.6a16.25,16.25,0,0,0,14.42,5.77,6.41,6.41,0,0,1-10.87,4.47,37.88,37.88,0,0,0,4.93,6.15c-.34,2.43-2.89,4.14-5.34,4.06a8.49,8.49,0,0,1-6.16-3.54,9,9,0,0,0,3.84,5.95,14.53,14.53,0,0,1-19.9-.2Z" style="fill: rgb(38, 50, 56); transform-origin: 134.62px 129.221px;" id="elemlhkvqmqfr" class="animable"></path><path d="M81.79,116.7c3.21-5,5.44-10.53,9.07-15.22s14-9.57,20-9l-9.65,43.61c-1.58,5.49,2.85,11.94-2.8,13.53-2.3.08-15.32-.85-17.73-5.13l2.14-2.91a4.78,4.78,0,0,1-4.67.44c-2-.89-3.28-2.75-4.48-4.52a13.83,13.83,0,0,0,6-6.24,8.45,8.45,0,0,1-7.39,1.63,5.93,5.93,0,0,1-4.38-5.65C73.89,126.29,78.57,121.67,81.79,116.7Z" style="fill: rgb(38, 50, 56); transform-origin: 89.38px 121.03px;" id="eludu1mqz2az" class="animable"></path><path d="M97.32,110.2c.68-2,.31-4.16.54-6.25.49-4.59,4-8.39,8.25-10.32,3.9-1.79,8.76-1.6,13.59-.22a18.25,18.25,0,0,1,8.73,5.26,14.35,14.35,0,0,1,3.08,12.81L108,108.89a26.55,26.55,0,0,1-6.93,4.91,4.9,4.9,0,0,1-2.43.47,2.19,2.19,0,0,1-1.87-1.44A4.61,4.61,0,0,1,97.32,110.2Z" style="fill: rgb(38, 50, 56); transform-origin: 114.338px 103.306px;" id="el6u05ahut61o" class="animable"></path><path d="M120.42,99.85l-20.27,5a3.8,3.8,0,0,0-3.43,3.85l1.77,44.2a13.79,13.79,0,0,0,3.17,8.23l2,2.45a10.09,10.09,0,0,0,16.79-1.84,4.88,4.88,0,0,0,.43-1.17,8.54,8.54,0,0,0,.15-1l.24-4.32c.07-3.94,0-7.94,0-7.91s8.32-1.34,10.09-12.19c.88-5.39.64-14.24.22-21.47C131.19,107.2,126.91,99.19,120.42,99.85Z" style="fill: rgb(255, 191, 157); transform-origin: 114.338px 133.537px;" id="elnn45jssyc8h" class="animable"></path><path d="M127.3,122.62A1.39,1.39,0,0,1,126,124a1.34,1.34,0,0,1-1.43-1.26,1.39,1.39,0,0,1,1.35-1.4A1.33,1.33,0,0,1,127.3,122.62Z" style="fill: rgb(38, 50, 56); transform-origin: 125.935px 122.671px;" id="el0chjrvmaleia" class="animable"></path><path d="M129.64,118.3c-.18.18-1.23-.6-2.73-.6s-2.59.74-2.75.55.09-.4.57-.75a3.79,3.79,0,0,1,2.21-.67,3.63,3.63,0,0,1,2.17.71C129.57,117.89,129.72,118.22,129.64,118.3Z" style="fill: rgb(38, 50, 56); transform-origin: 126.886px 117.578px;" id="elo80z9s6yuuo" class="animable"></path><path d="M114.12,122.53a1.4,1.4,0,0,1-1.35,1.4,1.34,1.34,0,0,1-1.43-1.26,1.39,1.39,0,0,1,1.35-1.4A1.33,1.33,0,0,1,114.12,122.53Z" style="fill: rgb(38, 50, 56); transform-origin: 112.73px 122.6px;" id="elsuyjjy12uy" class="animable"></path><path d="M115.42,118.43c-.17.18-1.22-.6-2.72-.61s-2.6.75-2.76.56.1-.41.58-.75a3.77,3.77,0,0,1,2.21-.67,3.62,3.62,0,0,1,2.16.71C115.35,118,115.51,118.35,115.42,118.43Z" style="fill: rgb(38, 50, 56); transform-origin: 112.668px 117.708px;" id="elw4ia05bi7l8" class="animable"></path><path d="M120.3,129.65a10,10,0,0,1,2.44-.43c.38,0,.74-.11.81-.37a2,2,0,0,0-.25-1.14c-.36-.92-.73-1.9-1.12-2.91-1.55-4.16-2.68-7.57-2.51-7.63s1.56,3.25,3.12,7.41l1.07,2.93a2.22,2.22,0,0,1,.19,1.5,1,1,0,0,1-.63.56,2.8,2.8,0,0,1-.65.09A10.34,10.34,0,0,1,120.3,129.65Z" style="fill: rgb(38, 50, 56); transform-origin: 121.879px 123.449px;" id="eltdbyxele0c" class="animable"></path><path d="M121.27,147.37a27.64,27.64,0,0,1-14.52-3.93s3.7,7.67,14.57,6.7Z" style="fill: rgb(255, 154, 108); transform-origin: 114.035px 146.832px;" id="elvxshg8jlxir" class="animable"></path><path d="M115.91,112.65c-.15.4-1.64.21-3.4.41s-3.18.68-3.41.31c-.11-.17.14-.56.72-1a5.65,5.65,0,0,1,2.53-.87,5.77,5.77,0,0,1,2.66.32C115.65,112.13,116,112.45,115.91,112.65Z" style="fill: rgb(38, 50, 56); transform-origin: 112.499px 112.484px;" id="elj9whucrc33i" class="animable"></path><path d="M129.23,111.75c-.27.34-1.3,0-2.54,0s-2.29.22-2.53-.14c-.1-.17.06-.51.52-.83a3.68,3.68,0,0,1,4.09.14C129.2,111.24,129.35,111.59,129.23,111.75Z" style="fill: rgb(38, 50, 56); transform-origin: 126.701px 111.064px;" id="elnncz7ji11dc" class="animable"></path><path d="M93.47,107.18c1.9-6.3,10.85-15.09,17.41-14.73l10.57,6.13a10.12,10.12,0,0,1-6.74,7.83c-1.85.59-4.07.78-5.15,2.39s-.41,4-1.43,5.69c-1.42,2.34-5.38,2.29-6.43,4.82-.46,1.11-.2,2.42-.68,3.51-.63,1.47-4.28,3.36-5.81,2.9s-.85.82-1.53-.46c-1.61-3.08-2.15-8.15-1.83-11.15A28.63,28.63,0,0,1,93.47,107.18Z" style="fill: rgb(38, 50, 56); transform-origin: 106.606px 109.144px;" id="elns832o2xmrd" class="animable"></path><path d="M99.72,126.94c0-.81-.93-2.72-1.73-2.85-2.13-.34-6-.18-6,5.23-.08,7.4,7.37,6,7.38,5.74S99.71,129.73,99.72,126.94Z" style="fill: rgb(255, 191, 157); transform-origin: 95.8547px 129.659px;" id="elbjglr8b044" class="animable"></path><path d="M97.11,132.23s-.13.09-.34.19a1.38,1.38,0,0,1-1,0,3.2,3.2,0,0,1-1.44-2.88,4,4,0,0,1,.38-1.84,1.46,1.46,0,0,1,1-1,.64.64,0,0,1,.75.36c.1.21,0,.35.09.37s.16-.12.1-.43a.79.79,0,0,0-.28-.47,1,1,0,0,0-.71-.19,1.81,1.81,0,0,0-1.36,1.13,4.41,4.41,0,0,0-.47,2.06c0,1.49.78,2.89,1.85,3.21a1.39,1.39,0,0,0,1.18-.18C97.1,132.41,97.14,132.24,97.11,132.23Z" style="fill: rgb(255, 154, 108); transform-origin: 95.474px 129.566px;" id="elcisguz4m2ge" class="animable"></path><path d="M119.22,96.42c.79,3,5.49,6.68,7.58,9,4,4.34,4.79,5.79,5.1,15.78a20,20,0,0,0,1.74-10.73A20.38,20.38,0,0,0,128,98.82c-2.8-2.71-4.95-3.1-8.79-2.4" style="fill: rgb(38, 50, 56); transform-origin: 126.49px 108.658px;" id="elcqsaa7sld2q" class="animable"></path><path d="M64.56,122.38s.49.19,1.39.44a10.73,10.73,0,0,0,3.91.28,14.1,14.1,0,0,0,5.49-1.87,21.13,21.13,0,0,0,5.35-4.73,61.72,61.72,0,0,0,4.23-5.86l3.22-5,2.21-3.33a8.17,8.17,0,0,1,.87-1.19,7.76,7.76,0,0,1-.7,1.29l-2.07,3.42-3.13,5a56.92,56.92,0,0,1-4.23,5.93,21.26,21.26,0,0,1-5.51,4.81,13.89,13.89,0,0,1-5.69,1.81,10,10,0,0,1-4-.45,6.29,6.29,0,0,1-1-.43C64.66,122.47,64.55,122.4,64.56,122.38Z" style="fill: rgb(38, 50, 56); transform-origin: 77.8947px 112.27px;" id="elyyunw8rwbrf" class="animable"></path><path d="M149.51,123.32s-.1.09-.31.21a6,6,0,0,1-1,.48,10.13,10.13,0,0,1-3.93.68,11,11,0,0,1-5.66-1.72,10.16,10.16,0,0,1-2.58-2.42,13.69,13.69,0,0,1-1.76-3.35,36.52,36.52,0,0,1-1.59-7,35.47,35.47,0,0,0-1.27-5.69,15.46,15.46,0,0,0-2.54-4.7s.11.07.29.25a6.67,6.67,0,0,1,.72.81,12.65,12.65,0,0,1,1.88,3.52,32.54,32.54,0,0,1,1.39,5.73,39.29,39.29,0,0,0,1.61,7,13.11,13.11,0,0,0,1.68,3.22,9.73,9.73,0,0,0,2.43,2.33,10.91,10.91,0,0,0,5.41,1.75,10.63,10.63,0,0,0,3.85-.5C149,123.54,149.48,123.27,149.51,123.32Z" style="fill: rgb(38, 50, 56); transform-origin: 139.19px 112.252px;" id="elsguwqvb5rfg" class="animable"></path><path d="M87.34,98.65c.06-.1,1.66,1.2,4.61,2.63a32.41,32.41,0,0,0,12.29,3.16,31.39,31.39,0,0,0,7-.45,19.58,19.58,0,0,0,5.45-1.68,11,11,0,0,0,4-3.35s0,.13-.16.34a5.3,5.3,0,0,1-.6.88,9.81,9.81,0,0,1-3.08,2.45,18.69,18.69,0,0,1-5.53,1.83,30,30,0,0,1-7.11.5,30.75,30.75,0,0,1-12.43-3.35,27.82,27.82,0,0,1-3.34-2A7.34,7.34,0,0,1,87.34,98.65Z" style="fill: rgb(69, 90, 100); transform-origin: 104.015px 101.82px;" id="eli676loxm5l8" class="animable"></path><path d="M86.71,105.91c0-.08,1.22.64,3.25,1.49a28.55,28.55,0,0,0,16.87,1.6c2.15-.45,3.44-.94,3.47-.85s-.29.18-.87.41a17.32,17.32,0,0,1-2.52.8,26,26,0,0,1-17.1-1.62,17.77,17.77,0,0,1-2.32-1.26C87,106.15,86.69,106,86.71,105.91Z" style="fill: rgb(69, 90, 100); transform-origin: 98.5055px 108.011px;" id="el09324yu0tcd" class="animable"></path><path d="M78.6,123.71c0-.11,1.71,0,4.39-.44a33.76,33.76,0,0,0,9.91-3.67c3.66-2,6.78-4.13,9.12-5.55,1.16-.73,2.12-1.29,2.79-1.66a5.58,5.58,0,0,1,1.07-.53,4.83,4.83,0,0,1-1,.7l-2.7,1.8c-2.28,1.5-5.38,3.69-9.07,5.7a31.1,31.1,0,0,1-10.1,3.57,19.1,19.1,0,0,1-3.26.2A4.77,4.77,0,0,1,78.6,123.71Z" style="fill: rgb(69, 90, 100); transform-origin: 92.24px 117.848px;" id="eldxr000do99t" class="animable"></path><path d="M75.51,127.29a74.94,74.94,0,0,0,7.49-.57,72.94,72.94,0,0,0,7.28-1.84,7.4,7.4,0,0,1-2,1,27.2,27.2,0,0,1-5.19,1.38,26.92,26.92,0,0,1-5.36.34A7.16,7.16,0,0,1,75.51,127.29Z" style="fill: rgb(69, 90, 100); transform-origin: 82.895px 126.249px;" id="el5z483lhx02k" class="animable"></path><path d="M115.09,134a6.89,6.89,0,0,1,.59-1.92c.06-.15.15-.31.3-.33a.4.4,0,0,1,.24,0l4.1,1.62a4.59,4.59,0,0,1-.8,1.63,3.35,3.35,0,0,1-1.76,1.33,2.23,2.23,0,0,1-2.1-.49A2.32,2.32,0,0,1,115.09,134Z" style="fill: rgb(255, 154, 108); transform-origin: 117.696px 134.073px;" id="elxnf8i1zz6aa" class="animable"></path><path d="M118.57,136.22s-.11.15-.39.25a2.08,2.08,0,0,1-1.27,0,3,3,0,0,1-1.56-1.08,2.64,2.64,0,0,1-.18-2.33,3.56,3.56,0,0,1,.58-1.07.84.84,0,0,1,.27-.26.55.55,0,0,1,.45,0l.5.19,1.65.68a6,6,0,0,1,1.49.74,5.17,5.17,0,0,1-1.61-.4l-1.7-.57-.47-.17c-.07,0-.08,0-.07,0a.31.31,0,0,0-.11.12,3.68,3.68,0,0,0-.49.92,2.29,2.29,0,0,0,.09,1.9,2.8,2.8,0,0,0,1.28,1A3.09,3.09,0,0,0,118.57,136.22Z" style="fill: rgb(38, 50, 56); transform-origin: 117.545px 134.126px;" id="elww62kg43cb" class="animable"></path><path d="M125.12,157.3c.7.65,20.35,26.1,18.86,35.14s-2.44,12-3.28,18.51c-2,15.7.53,24.16-.18,31.16s-4.25,9.69-4.94,9.27S114.83,237.16,104.1,232c-19.41-9.32-23.49,9.81-28,9.29s-5.26-2.52-5.26-2.52,6.5-.67,7.28-4.07S88,199.44,88,199.44l-4.72-42.26,12.91-4.72L119,155Z" style="fill: rgb(217, 104, 87); transform-origin: 107.45px 201.941px;" id="elxuw4vrqb3a" class="animable"></path><path d="M117.74,156.73a5.18,5.18,0,0,1,3.58-1.29c2.33,0,9.41-1.74,9.41-1.74l7.81-6.26C145,149.11,160,164,156,168.51l-10.27,10.4-2.19,10.16L127,169Z" style="fill: rgb(217, 104, 87); transform-origin: 137.204px 168.255px;" id="elcdr4tkznwqb" class="animable"></path><path d="M121.3,155s9.66,10.14,8.09,14.89-5.91,2.77-9.88,1.47c-10.05-3.29-21-18.67-21-18.67h0Z" style="fill: rgb(255, 191, 157); transform-origin: 114.036px 162.794px;" id="elznfjamau6a" class="animable"></path><path d="M143.72,190.46s5.27-11.41,1.3-21.65-12-19.74-23.75-21.44l0,2.41s18.28,14.08,20.09,23.07,1.44,9.18,1.44,9.18Z" style="fill: rgb(69, 90, 100); transform-origin: 133.885px 168.915px;" id="elo2ml6oakl6" class="animable"></path><path d="M138.65,169.61a4.07,4.07,0,0,1,.58,1c.35.64.8,1.6,1.3,2.8a46.18,46.18,0,0,1,2.78,9.79,45.21,45.21,0,0,1,.53,10.17c-.08,1.3-.2,2.35-.32,3.07a4.3,4.3,0,0,1-.23,1.11c-.09,0,.11-1.61.18-4.2a53.24,53.24,0,0,0-.67-10.06,52.36,52.36,0,0,0-2.62-9.74C139.27,171.09,138.57,169.65,138.65,169.61Z" style="fill: rgb(38, 50, 56); transform-origin: 141.284px 183.58px;" id="elki2m7tzpq" class="animable"></path><path d="M93.57,217.71a1.69,1.69,0,0,1,.47-.1,8.61,8.61,0,0,1,1.35-.09,13.45,13.45,0,0,1,4.88,1,23.32,23.32,0,0,1,6.23,4c2.14,1.8,4.29,4,6.69,6.05a65.61,65.61,0,0,0,13.21,9.49,45.15,45.15,0,0,0,4.51,2,15.62,15.62,0,0,1,1.7.64,1.36,1.36,0,0,1-.46-.09c-.3-.07-.74-.19-1.31-.36a37.05,37.05,0,0,1-4.61-1.86A61.19,61.19,0,0,1,112.84,229c-2.41-2.11-4.56-4.28-6.65-6.07a23.55,23.55,0,0,0-6.07-4,14,14,0,0,0-4.74-1.17C94.22,217.66,93.58,217.76,93.57,217.71Z" style="fill: rgb(38, 50, 56); transform-origin: 113.09px 229.11px;" id="el6lxfswseq2g" class="animable"></path><path d="M55.15,169.26a21.16,21.16,0,0,0,2.73,8.7c1.69,3,13.24,15.11,15,14.18S65,170.79,65,170.79Z" style="fill: rgb(38, 50, 56); transform-origin: 64.1223px 180.725px;" id="el1hh5b5gdllc" class="animable"></path><path d="M64.76,173.79c-.66.47-34.62,22.54-35.41,29.33-.5,4.31,2.73,9.23,7.33,12.36,6.38,4.33,21.78,14.13,21.78,14.13l8.5-8s-15.85-13.3-17.75-16.38l28-16.58Z" style="fill: rgb(255, 191, 157); transform-origin: 53.2545px 201.7px;" id="elftjizdkdi9v" class="animable"></path><path d="M42.36,201.26a2.43,2.43,0,0,1,1.29-.09,7.08,7.08,0,0,1,3,1,7.26,7.26,0,0,1,2.27,2.14c.44.67.58,1.15.52,1.17a13.6,13.6,0,0,0-3.06-2.86A13.57,13.57,0,0,0,42.36,201.26Z" style="fill: rgb(255, 154, 108); transform-origin: 45.9066px 203.301px;" id="elip1f77b8nof" class="animable"></path><path d="M89.3,155s-7.43,1.42-12,3.65-22.17,10.63-22.17,10.63A27.83,27.83,0,0,1,65.25,177c4.13,5.28,7.59,15.13,7.59,15.13l14-7.56Z" style="fill: rgb(217, 104, 87); transform-origin: 72.215px 173.565px;" id="elqtlviiveus" class="animable"></path><path d="M89.9,148.61s7.42-1.15,8.56,6.1S98.1,175,96.54,181.24,86.3,196.56,86.3,196.56l-.36-9.48A43.82,43.82,0,0,0,90.33,166c-.58-12-1-14.53-3-15.35s-6.42,6.44-6.42,6.44l-2.21.79S81.36,148.2,89.9,148.61Z" style="fill: rgb(69, 90, 100); transform-origin: 88.7802px 172.552px;" id="elexj9e5c2ufq" class="animable"></path><polygon points="79.45 233.25 92.28 201.16 72.49 184 67.78 184.17 51.22 219.13 74.01 237.33 77.96 237.09 79.45 233.25" style="fill: rgb(38, 50, 56); transform-origin: 71.75px 210.665px;" id="elxxbaghvqxy" class="animable"></polygon><path d="M72.82,235.66a6.72,6.72,0,0,1,.51-1.31l1.56-3.5c1.32-3,3.13-7,5.06-11.59s3.6-8.69,4.8-11.69c.58-1.43,1.06-2.63,1.43-3.56a6.88,6.88,0,0,1,.59-1.28,7.78,7.78,0,0,1-.4,1.35c-.28.86-.72,2.1-1.28,3.62-1.11,3-2.74,7.21-4.67,11.76s-3.79,8.62-5.2,11.54c-.7,1.46-1.29,2.63-1.71,3.44A6.92,6.92,0,0,1,72.82,235.66Z" style="fill: rgb(69, 90, 100); transform-origin: 79.795px 219.195px;" id="elxa896gfs518" class="animable"></path><path d="M67,221.61s5.32-3.27,6.11-3.94,5.7-.43,6.6-1.37,2.91-.34,2.26,1.95-4,4.36-6.51,4.12c0,0,7.69,4,7.73,5.17a2.33,2.33,0,0,1-1.7,2.49s2.59,2.27-.83,4.17c0,0,1.12,1.91-2.16,3.16,0,0,.78,1.36-1.67,2.13s-4.84,1.92-6.53.23-10.79-9.37-10.79-9.37L49.5,223l4-13.3Z" style="fill: rgb(255, 191, 157); transform-origin: 66.3514px 225.147px;" id="el3ykx0kutg9f" class="animable"></path><path d="M76.4,228.66a11.43,11.43,0,0,1,2.58.73,11.8,11.8,0,0,1,2.53.86,5.25,5.25,0,0,1-2.69-.36A5.4,5.4,0,0,1,76.4,228.66Z" style="fill: rgb(255, 154, 108); transform-origin: 78.955px 229.477px;" id="el23x569r8rql" class="animable"></path><path d="M74.57,233.89a8.68,8.68,0,0,1,2.94-.09,8.26,8.26,0,0,1,2.9.42,8.48,8.48,0,0,1-2.93.1A8.15,8.15,0,0,1,74.57,233.89Z" style="fill: rgb(255, 154, 108); transform-origin: 77.49px 234.059px;" id="elbr1m0zpglh" class="animable"></path><path d="M73.91,237.42a5.31,5.31,0,0,1,2.27-.45,5.34,5.34,0,0,1,2.31.08,5.34,5.34,0,0,1-2.27.44A5.26,5.26,0,0,1,73.91,237.42Z" style="fill: rgb(255, 154, 108); transform-origin: 76.2px 237.233px;" id="elhwt5ypdts2q" class="animable"></path><path d="M74,227.27c-.07-.13.42-.52.57-1.23s-.1-1.28,0-1.36.22.06.37.33a1.72,1.72,0,0,1,.13,1.14,1.75,1.75,0,0,1-.61,1C74.23,227.31,74,227.33,74,227.27Z" style="fill: rgb(255, 154, 108); transform-origin: 74.5536px 225.979px;" id="elcu63uydvs26" class="animable"></path><path d="M72.46,231.24c-.09-.11.3-.57.42-1.26s-.06-1.26.07-1.33.62.53.45,1.43S72.53,231.37,72.46,231.24Z" style="fill: rgb(255, 154, 108); transform-origin: 72.941px 229.954px;" id="ela07qew7dkj" class="animable"></path><path d="M71.07,236.11c-.07-.13.42-.49.62-1.17s0-1.24.17-1.31.21.08.32.36a1.8,1.8,0,0,1,0,1.11,1.71,1.71,0,0,1-.66.9C71.29,236.16,71.1,236.17,71.07,236.11Z" style="fill: rgb(255, 154, 108); transform-origin: 71.6655px 234.878px;" id="elsx9pxdge32m" class="animable"></path><path d="M78.69,158.09a7.49,7.49,0,0,1,.84-2.58,14.48,14.48,0,0,1,4-5.2,3.72,3.72,0,0,1,1.83-.71,3,3,0,0,1,1.8.47A4.47,4.47,0,0,1,89,152.48a9,9,0,0,1,.41,2c0,.46.06.72,0,.73s-.21-1-.78-2.56a4.21,4.21,0,0,0-1.71-2.13,2.54,2.54,0,0,0-1.51-.37,3.24,3.24,0,0,0-1.58.63,12.42,12.42,0,0,0-2.42,2.51,17.66,17.66,0,0,0-1.56,2.43C79.08,157.13,78.77,158.12,78.69,158.09Z" style="fill: rgb(38, 50, 56); transform-origin: 84.0633px 153.843px;" id="elijnprqtkh6" class="animable"></path><path d="M86.35,150.62c.09.12-1.34,1.19-2.59,2.95S82,157,81.8,157a8.9,8.9,0,0,1,4.55-6.35Z" style="fill: rgb(38, 50, 56); transform-origin: 84.077px 153.81px;" id="elesgvjzybg9" class="animable"></path><path d="M81.94,192.69c-.12-.11,1.6-2.08,3.21-4.84s2.51-5.22,2.66-5.17a20.45,20.45,0,0,1-5.87,10Z" style="fill: rgb(38, 50, 56); transform-origin: 84.872px 187.685px;" id="el09q8055pd4c" class="animable"></path><polygon points="90.9 200.94 71.83 184.03 68.59 184.14 87.55 201.06 90.9 200.94" style="fill: rgb(255, 255, 255); transform-origin: 79.745px 192.545px;" id="elhi7k0fe7uv" class="animable"></polygon></g><defs>     <filter id="active" height="200%">         <feMorphology in="SourceAlpha" result="DILATED" operator="dilate" radius="2"></feMorphology>                <feFlood flood-color="#32DFEC" flood-opacity="1" result="PINK"></feFlood>        <feComposite in="PINK" in2="DILATED" operator="in" result="OUTLINE"></feComposite>        <feMerge>            <feMergeNode in="OUTLINE"></feMergeNode>            <feMergeNode in="SourceGraphic"></feMergeNode>        </feMerge>    </filter>    <filter id="hover" height="200%">        <feMorphology in="SourceAlpha" result="DILATED" operator="dilate" radius="2"></feMorphology>                <feFlood flood-color="#ff0000" flood-opacity="0.5" result="PINK"></feFlood>        <feComposite in="PINK" in2="DILATED" operator="in" result="OUTLINE"></feComposite>        <feMerge>            <feMergeNode in="OUTLINE"></feMergeNode>            <feMergeNode in="SourceGraphic"></feMergeNode>        </feMerge>            <feColorMatrix type="matrix" values="0   0   0   0   0                0   1   0   0   0                0   0   0   0   0                0   0   0   1   0 "></feColorMatrix>    </filter></defs></svg>