<?xml version="1.0" encoding="utf-8"?>
<svg viewBox="2.237 10.07 188.951 52.448" xmlns="http://www.w3.org/2000/svg">
  <g transform="matrix(1, 0, 0, 1, -101.180955, -117.075533)">
    <title>Layer 1</title>
    <text transform="rotate(-5 224.416 143.6)" font-weight="bold" font-style="italic" text-anchor="start" font-family="'Fraunces'" font-size="24" id="svg_2" y="152" x="141.6" stroke-width="0" stroke="#000" fill="#D3BEE7" style="white-space: pre;">Ankit's Project</text>
    <path id="svg_4" d="m130.87973,156.84031c-1.33837,-1.62979 -2.97578,-2.94927 -4.61821,-3.8723c-1.91646,0.94611 -4.2506,1.52222 -6.79528,1.52222c-2.54967,0 -4.88717,-0.57723 -6.80025,-1.52222c-1.64243,0.92303 -3.2815,2.24251 -4.62316,3.8723c-3.11446,3.7839 -3.45697,7.66522 -0.76695,8.67159c1.2047,0.45334 2.46782,0.11545 3.77276,-0.73212c-0.2289,0.85938 -0.36258,1.79084 -0.36258,2.76513c0,4.32848 2.49457,7.83474 5.56886,7.83474c1.85298,0 2.77025,-1.27671 3.21133,-3.23144c0.43945,1.95473 1.35672,3.23144 3.20298,3.23144c3.07934,0 5.57393,-3.50625 5.57393,-7.83474c0,-0.97428 -0.13372,-1.90574 -0.3676,-2.76513c1.30825,0.84757 2.5697,1.18546 3.77775,0.73212c2.68836,-1.00637 2.34079,-4.88769 -0.77358,-8.67159l0,0zm-11.41677,-3.82669c5.17285,0 9.3683,-2.8282 9.3683,-6.31699s-4.19545,-6.317 -9.3683,-6.317c-5.17461,0 -9.37338,2.82876 -9.37338,6.317s4.19877,6.31699 9.37338,6.31699z" stroke="#000" fill="#D3BEE7"/>
  </g>
</svg>