<?xml version="1.0" encoding="UTF-8"?>
<svg xmlns="http://www.w3.org/2000/svg" width="40" height="40" viewBox="0 0 651 433">
	<title>
		MediaWiki
	</title>
	<g fill="none" fill-rule="evenodd">
		<path fill="#006697" d="M.29 379.65V77.15h68.57v12.57c-37.44 3.15-38.92 5.6-38.92 32.84v212.37c0 26.9.74 29 38.92 32.14v12.57H.29zm108.94 0V77.15h68.57v12.57c-37.44 3.15-38.92 5.6-38.92 32.84v212.37c0 26.9.74 29 38.92 32.14v12.57h-68.58zm362.67 0v-12.58c37.07-3.14 38.92-5.24 38.92-32.48V122.2c0-27.25-1.85-29.34-38.92-32.49V77.15h68.58v302.5H471.9zm109.58 0v-12.58c37.06-3.14 38.92-5.24 38.92-32.48V122.2c0-27.25-1.85-29.34-38.92-32.49V77.15h68.57v302.5h-68.57z"/>
		<path fill="#ffc200" d="M126.15 263.4c-4.66 15.82 11.19 28.89 24.93 30.46-5.14 5.35-12.87 5.04-18.95 8.61 10.12 23.79 40.17 29.04 62.26 22.09-18.86 17-34.88 38.83-39 64.1 1.05 1.41 4.7.84 6.77 1.23 22.8.21 44.3-10.73 61.55-25.24 6.97 17.2-12.72 25.24-26.28 27.27 15.18 21.4 43.55 7.62 53.68-11.57-1.88 13.87-3.7 27.8-6.85 41.45 24.15.08 45.25-16.11 53.02-38.9v-.09c3.54 13.39 1.5 28.13-4.42 40.32 8.39 5.96 26.77 1.87 33.04-5.54 6.81-8.05 12.1-19.42 15.7-29.24 6.84 13.9 14.78 28.2 15.88 43.83 26-4.8 33.47-35.33 31.88-57.3 13.82 20.67 33.22 40.23 57.6 46.83 7.86-25.91-3.08-54.48-18.63-75.63 8.57.5 19.67-.15 26.17 6.87 5.68 6.14 5.79 16.05 6.96 23.84 25.37-13.21 10.78-45.19-7.52-57.69 13.84 4.48 28.1 8.3 41.67 13.3 2.4-19.22-6.7-40.45-22.6-51.98 10.75 1.3 23.1 8.14 30.71 15.88 9.96-8.3 1.47-32.62-2.2-37.98-4.08-5.93-11.36-13.45-18.65-19.24 15.58-2.63 30.42-7.56 46.48-4-.57-21.19-12.43-31.08-26.47-38.79-7.42-1.88-13.88-5.13-21.55-6.15 22.8-9.07 49.36-21.1 60.94-44.32-23.93-11.64-52.8-11.43-77.65-1.4 3.25-26.18 19.87-22.72 37.1-21.25-7.81-23.4-36.63-21.44-52.7-10.29 7.4-10.12 12.62-26.15 21.54-34.47-22.69-7.84-50.05-1.22-66.06 18.38 2.81-14.7 9.24-30.85 21.36-40.54-18.05-19.05-45.36-1.16-58.72 14.77-.28-15.73-3.4-32.04 1.67-47.21-27.77-3.55-43.81 19.17-49.7 42.3C313.94 42.1 301.64 16.28 282.2.24c-15.12 20.46-18.07 47.27-12.92 71.4-19.31-2.72-15.18-23.62-11.27-36.7-26.28 3.46-27.3 34.34-16.44 52.71-10.76-8.68-21.8-17.58-32.48-26.28-4.93 10.35-8.24 21.44-7.53 33.06-4.16-2.68-4.64-9.16-8-12.18-22.98 12.43-14.53 42.58-3.08 60.19-15.28-3.83-31.48-6.6-44.8-15.82-11.44 22.14 6.2 49.71 26 61.21-26.9-3-50.58 1.75-74.45 14.01 7.61 12.29 24.85 24.94 38.61 31.08-4.6 2.09-20.06-4.5-24.83-2.83.66 1.25 23.45 35.67 52.4 33-8 14.28-28.73 9.76-37.25.31"/>
		<g stroke-width="3">
			<path stroke="#fff" d="M267.17 68.17c6.13 24.38 20.52 57 37.5 76.08m12.66-2.67c-2.42-20.66-3.4-57.7 2-79.92m-151 125.25c18.74 10.3 51.36 19.41 71.67 24.67m-1.33 12c-36.5 18.17-89.17 12.84-99.34 10.5m14.5 30.58c24.53.6 62.31-10.05 86.17-13.41m-99.25 42.83c31.3 3.42 76.97-15.96 106.25-23.83m-25.58 98.58c17.42-17.62 37.21-49.51 45.91-72.91m-18.75 91.16c4.62-23.65 20.07-60.25 37.75-78.16m10.42 79.16c6.35-20.05 14.87-49.2 18.58-69.83m26.17 74c6.8-21.58 8.42-53.78 5.17-76.33m45 65c-3.23-20.68-17.27-53-26-72M432 348.25c-12.47-16.45-35.23-36.49-53-47m80.83 21c-19.36-7.18-48.6-23.02-62.5-39.34m81 0c-19.1-12.3-46.19-23.34-67-32.33m2.6-36.74c24.32 3.14 51.05 13.22 72.07 25.95m-75.77-43.19c23.21-4.95 53.29-9.18 77.14-6.8m-82.68-4.28c16.21-18.96 37.94-33.7 60.94-42.86m-13.25-32.25c-14.35 22.68-40.25 46.9-66.05 56.5m19.98-74.43c-15.1 16.35-30.48 36.65-44.1 54.26M238.06 83.3c18.46 15.43 41.63 43.1 47.94 66.96M200.06 90.6c8.99 10.88 24.23 20.9 34.84 29.74 12.45 10.37 19.66 35.5 24.77 50.24M187 139.54c12.5 18.93 38.84 43.54 58.33 54.7M368.93 67.1c-15.58 19.43-27.23 51.38-33.93 75.15m-149.33 186c20.73-8.07 55.64-26.37 73.33-40.34"/>
			<path stroke="#006697" d="M139.33 234.08c-5.16 0-7.16-2.17-10-2.67"/>
		</g>
		<circle fill="#8e7650" stroke="#fff" stroke-width="3" cx="325.5" cy="229.58" r="88.33"/>
	</g>
</svg>
