<?xml version="1.0" encoding="UTF-8"?>
<svg xmlns="http://www.w3.org/2000/svg" width="35" height="35" viewBox="0 0 900 900">
	<title>
		Wikimedia Meta-Wiki
	</title>
	<path fill="#396" d="M316.6 181.29a298.24 298.24 0 0 0-84.9 62.92c11.84.23 23.75-.3 35.67-1.64a323.85 323.85 0 0 1 49.24-61.28zm28.16-12.21c25.37-1.2 50.57.53 75.13 5.15a272.66 272.66 0 0 0 23.77-24.2 298.19 298.19 0 0 0-98.9 19.05zm-15.58 27.53a303.35 303.35 0 0 0-35.33 41.7 275.41 275.41 0 0 0 47.07-14.63l-11.74-27.07zm18.37-7.9l11.62 26.78a274.21 274.21 0 0 0 40.07-24.47 303.55 303.55 0 0 0-51.69-2.31zm121.5-38.12a293.5 293.5 0 0 1-25.66 28.98 323.06 323.06 0 0 1 123.72 63.92 428.64 428.64 0 0 0 36.36-51.27 301.65 301.65 0 0 0-134.42-41.63zM215.02 263.43a301.51 301.51 0 0 0-59.17 127.59 428.48 428.48 0 0 0 63.1 7.44 322.99 322.99 0 0 1 36.4-134.74c-13.5.84-26.99.72-40.33-.29zm210.67-67.8a292.48 292.48 0 0 1-58.6 38.15l53.6 123.56a426.74 426.74 0 0 0 133.39-98.8 302.91 302.91 0 0 0-128.4-62.92zM279.2 261.2a302.59 302.59 0 0 0-40.38 137.63 427.1 427.1 0 0 0 163.6-33.37l-53.54-123.45a293.53 293.53 0 0 1-69.68 19.2zm341.09-58.16a449.08 449.08 0 0 1-38.22 53.7 316.67 316.67 0 0 1 72.95 104.27c3.64 8.38 6.9 16.83 9.76 25.33a594.5 594.5 0 0 0 55.62-66.22 298.09 298.09 0 0 0-100.11-117.08zM152.54 410.7a298.22 298.22 0 0 0 19.74 152.77 594.92 594.92 0 0 0 86.35 3.21 320.18 320.18 0 0 1-13.7-27.78 316.71 316.71 0 0 1-26.21-120.45 449 449 0 0 1-66.18-7.75zm416.42-138.93a446.17 446.17 0 0 1-140.3 103.9l59 136.01a594.5 594.5 0 0 0 161.17-109.5 301.16 301.16 0 0 0-12.16-33.2 297.63 297.63 0 0 0-67.71-97.22zm-330.42 147c.83 37.6 8.83 75.62 24.69 112.2a300.99 300.99 0 0 0 17.69 34.49 595.37 595.37 0 0 0 188.46-45.64l-59-136.01a446.54 446.54 0 0 1-171.84 34.96zm490.98-77.6a614.4 614.4 0 0 1-58.28 66.97 317.6 317.6 0 0 1-.26 159.46 736.59 736.59 0 0 0 73.57-60.8 298.32 298.32 0 0 0-15.03-165.64zM181.8 584.47A298.36 298.36 0 0 0 294.65 706.6a736.2 736.2 0 0 0 92.83-13.43 317.8 317.8 0 0 1-117.15-107.03 614.17 614.17 0 0 1-88.53-1.66zm472.75-160.3A614.14 614.14 0 0 1 495.64 530.1l48.33 111.4a745.12 745.12 0 0 0 100.95-55.77c0-.03.02-.06.03-.08a298.92 298.92 0 0 0 9.6-161.47zM293.27 584.5a299.18 299.18 0 0 0 124.77 101.55 746.6 746.6 0 0 0 107.63-36.47l-48.33-111.4a615.16 615.16 0 0 1-184.07 46.32zm442.24-42.63a756.35 756.35 0 0 1-74.23 56.92 324.85 324.85 0 0 1-78.13 120.01c75.09-37.13 128.26-102.14 152.36-176.93zm-408.99 181.5c70.12 31.63 152.1 36.35 228.88 7.47a324.65 324.65 0 0 1-138.66-23.92 756.8 756.8 0 0 1-90.22 16.44zm305.27-105.72a766.28 766.28 0 0 1-79.84 42.26l18.8 43.35a303.92 303.92 0 0 0 61.04-85.6zm-181.73 80.33a303.93 303.93 0 0 0 102.37 13.3l-18.8-43.35a767.77 767.77 0 0 1-83.57 30.05z"/>
	<path fill="#900" d="M450 0C296.44 0 160.78 77.05 79.56 194.56l87 50.25C230.2 157.11 333.44 100 450 100s219.81 57.1 283.44 144.81l87-50.25C739.22 77.05 603.56 0 450 0z"/>
	<path fill="#069" d="M32.19 282.75A448.33 448.33 0 0 0 0 450c0 231.5 175.1 422.36 400 447.25V796.37C230.47 772.08 100 626.23 100 450a349 349 0 0 1 19.94-116.63l-87.75-50.62zm835.62 0l-87.75 50.63A349.08 349.08 0 0 1 800 450c0 176.22-130.47 322.08-300 346.38v100.87C724.9 872.35 900 681.5 900 450c0-59.1-11.45-115.53-32.19-167.25z"/>
</svg>
