<?xml version="1.0" encoding="UTF-8"?>
<svg xmlns="http://www.w3.org/2000/svg" width="35" height="35" viewBox="0 0 300 300">
	<title>
		Wikibooks
	</title>
	<path fill="#fdfcf8" fill-rule="evenodd" d="M141.66 103.54c5.27 66.02 16.8 129.94 51.2 191.49l13 .1 82.3-73.42-78.44-198.2-56.54 54-11.52 26.03z"/>
	<path fill="#f4eed7" fill-rule="evenodd" d="M75.84 103.6c5.28 66.03 18.78 130.8 53.18 192.34l20.34.18 61.96-77.72-67.41-194.83-56.54 54.01-11.53 26.03z"/>
	<path fill="#e9ddaf" fill-rule="evenodd" d="M.22 102.2c5.38 69.28 27.01 131.33 52.46 191.7l26.8-.33 70.4-80.04-81.6-191.37-56.54 54.01L.22 102.19z"/>
	<path fill="#5f96d3" d="M213.33 4.06c-27.19 26.3-54.07 52.38-54.07 52.38l9.66 19.65c13.1-12.98 26.26-24.4 38.81-37.09 26.44 58.04 44.45 104.81 66.6 166.65 7.26 20.08 5.78 20.98-11.56 31.84-27.86 13.85-36.67 22.94-69.87 58.26h22.72c27.75-25.1 38.05-33.95 72.8-52.26 12.3-7.1 13.99-16.06 8.94-30-16.26-45.2-51.49-142.6-84.03-209.43z"/>
	<path fill="#2a62a1" fill-rule="evenodd" d="M142.45 4.69C122.57 18.1 107.22 37.43 89.92 54l7.1 22.63c13.54-10.67 25.32-23.54 37.5-35.72l65.65 164.69c3.79 11.15-2.17 21.07-14.15 31.87-14.35 11.53-43.9 38.42-57.29 58.9h20.38c21.38-21.96 25.24-24.94 49.6-46.03 16.34-16.68 31.1-25.22 23.4-46.6L142.45 4.7z"/>
	<path fill="#15304f" fill-rule="evenodd" d="M75.33 3.63c-5.3 1.78-9.71 5.2-13.85 8.8C5.4 66.42 3.14 68.7 3.14 68.7.19 71.43-.06 75.44-.02 79.47l.24 22.72s25.9-25.18 64.57-62.4C85.61 94.01 107.34 147.96 128.73 202c2.93 8.16-4.08 14.85-12.96 23.78-12.28 11.97-37.95 36.62-64.22 69.53h26.34l63.31-69.43c6.02-8.28 13.5-16.37 10.35-23.88L75.33 3.62z"/>
</svg>
