<?xml version="1.0" encoding="UTF-8"?>
<svg xmlns="http://www.w3.org/2000/svg" width="40" height="40" viewBox="0 0 84 84">
	<title>
		Wikipedia app tile
	</title>
	<path fill="none" opacity=".2" d="M0 0h84v84H0z"/>
	<path opacity=".2" d="M2 12a8 8 0 0 1 8-8h64a8 8 0 0 1 8 8v64a8 8 0 0 1-8 8H10a8 8 0 0 1-8-8z"/>
	<rect x="2.83" y="2.83" width="78.33" height="78.33" rx="7.17" ry="7.17" fill="#fff"/>
	<path fill="#eaecf0" d="M74 3.67A6.34 6.34 0 0 1 80.33 10v64A6.34 6.34 0 0 1 74 80.33H10A6.34 6.34 0 0 1 3.67 74V10A6.34 6.34 0 0 1 10 3.67h64M74 2H10a8 8 0 0 0-8 8v64a8 8 0 0 0 8 8h64a8 8 0 0 0 8-8V10a8 8 0 0 0-8-8z"/>
	<path fill="#000222" fill-rule="evenodd" d="M69.73 26.61a5.25 5.25 0 0 0-3.05 1.22 11.53 11.53 0 0 0-2.45 4L51.37 61.42q-.13.41-.71.41a.79.79 0 0 1-.71-.41L42.74 46l-8.3 15.41a.79.79 0 0 1-.71.41.71.71 0 0 1-.73-.41l-12.63-29.6A10.35 10.35 0 0 0 17.88 28a6.74 6.74 0 0 0-3.66-1.35.49.49 0 0 1-.38-.22.78.78 0 0 1-.18-.5q0-.72.4-.72 1.69 0 3.53.15t3.23.15q1.54 0 3.63-.15t3.88-.15q.4 0 .4.72t-.25.72a4.9 4.9 0 0 0-2.66.88 2.35 2.35 0 0 0-1 2 4.06 4.06 0 0 0 .4 1.55l10.49 24 5.93-11.44-5.53-11.83a15.33 15.33 0 0 0-2.45-4.08 4.84 4.84 0 0 0-2.9-1.12.45.45 0 0 1-.34-.22.82.82 0 0 1-.16-.5q0-.72.35-.72a28.63 28.63 0 0 1 3.1.15 25.75 25.75 0 0 0 2.9.15q1.51 0 3.2-.15t3.43-.15q.4 0 .4.72t-.25.72q-3.38.23-3.38 2A6.4 6.4 0 0 0 40.8 31l3.66 7.58 3.63-6.93a5.67 5.67 0 0 0 .76-2.47q0-2.37-3.38-2.53-.3 0-.3-.72a.88.88 0 0 1 .15-.49q.15-.23.3-.23 1.21 0 3 .15t2.77.15q.78 0 2.29-.13 1.92-.18 3.2-.18.3 0 .3.62 0 .82-.55.82a6.25 6.25 0 0 0-3.16 1.11 14.16 14.16 0 0 0-3 4.1L45.62 41l6.56 13.66 9.68-23a6.3 6.3 0 0 0 .5-2.32q0-2.53-3.38-2.68-.3 0-.3-.72t.45-.72q1.24 0 2.93.15t2.62.15a24.83 24.83 0 0 0 2.57-.15 27 27 0 0 1 2.75-.2q.35 0 .35.62a.94.94 0 0 1-.19.57.53.53 0 0 1-.43.25z"/>
</svg>
