<?xml version="1.0" encoding="UTF-8"?>
<svg xmlns="http://www.w3.org/2000/svg" width="37" height="37" viewBox="0 0 410 430">
	<title>
		Wikisource
	</title>
	<g fill-rule="evenodd">
		<path fill="#608ab4" d="M203.7 0C135.42.46 75 35.98 38.06 90.23h333.88C334.76 35.63 273.84 0 205.02 0h-1.32z"/>
		<path fill="#375493" d="M26.2 109.84A221.99 221.99 0 0 0 0 214.99C0 333.67 91.86 430 205.02 430S410 333.67 410 214.99c0-38.2-9.5-74.05-26.18-105.15H26.21z"/>
		<path fill="#d6dde3" d="M38.06 90.23a216.89 216.89 0 0 0-11.85 19.6h357.61a217.18 217.18 0 0 0-11.88-19.6H38.06z"/>
		<path fill="#7bbce5" d="M292.56 24.1c-.85.02-1.76.21-2.73.5-9.13 14.58-9.1 62.88-8.98 73.33h.06c13.52 3 31.42-.45 32.02-13.39 1.03-17.05 2.06-33.58-6.98-44.2-8.26 3.76-6.7-11.5-10.05-14.92-.84-.96-2-1.34-3.33-1.31z"/>
		<path fill="#fff" d="M289.83 24.6c-4.81 1.48-10.68 5.85-13.57 7.26-2.52.27-7.2.08-10.69.97-7.5 1.93-14.32 6.5-18.26 13.7-5.08-14.77-16 3.39-28.94 13.85-7.17-5.4-21.6-16.17-34.85-23.1-10.65 5.39-21.8 23.62-28.44 25.16-6.89 1.29-16.6.53-20.64 5.4-6.72 6.95-8.8 14.9-10.09 22.36 15.76 5.57 32.29 5.74 48.05 3.6 8.95-2.14 15.33.87 24.54.53 27.97 1.2 58.26-2.21 83.9 3.6-.11-10.45-.14-58.75 9-73.32z"/>
		<path fill="#7bbce5" d="M196.43 53.7c3.36 10.12 6.28 20.23 5.16 30.34-1.2 6.25 1.47 5.82 6.46 3.34 4.91-2.66 7.5-5.57 14.73-7.97 5.6-1.54 1.63-5.65-1.04-8.48-7.98-7.56-16.66-12.33-25.31-17.22z"/>
		<path fill="#294584" d="M225.13 109.84c5.88 77.83 58.43 87.4 91.5 71.66-16.53-16.27-10.53-49.44 7.1-49.8 32.64-.8 23.35 59.85 23.36 89.29 17.84-3.61 16.67-70.78 12.88-111.15H225.13z"/>
		<path fill="#e0e9ea" d="M56.13 109.84l1.91 20.1c4.32 7.87 7.53 15.71 6.63 23.58 8.53-2.1 13.61-3.19 18.2 5.5 20.06 12.43 39.12 13.9 57.88 12.07 3.82 45.16 2.7 81.49 1.1 135.47 11.4 18.84 22.8 36.7 34.2 55.53 6.53 11.45 18.01 15.07 27.02 1.53l23.13-10.4v11.5c11.85 2.97 23.57 7.48 18.2 19.76-4.1 7.93-1.8 11.46 9.86 6.16 10.3-5 16.65 2.75 22.03 4.12-7.66-8.12-1.07-24.1-.83-40.6 11-1 23.55-10.92 34.55-11.92 22.6-21.83 26.5-29.96 26.46-58.16 2.27-7.31 5.53-9.24 3.86-21.94 1.3-7.87 3.09-18.15 4.37-26.02l2.58-15.16-.2.03c0-29.44 9.3-90.08-23.34-89.3-17.64.37-23.64 33.54-7.1 49.81a66.45 66.45 0 0 1-12.2 4.41c1.35 7.68-4.23 15.55-11.53 15.88-7.28-.64-18 6.55-24.79 23.05-10.86 22.78-20.74 2.96-24.7-3.16-5.09-6.72 1.16-12.97-12.79-8.91-9.2 2.83-20.87 4.7-23.66-9.13-11.76-11.89-23.03-22.32-34.79-34.2-4.7-5.57-.79-10.14-.75-12.1v-.2l-.04-.09a1.01 1.01 0 0 0-.09-.22l-.03-.06-.03-.03a2.76 2.76 0 0 0-.1-.1l-.12-.09-.07-.03c-.05-.03-.12-.04-.18-.06-4.59-2.88-10.15.59-16.22 3.1-15.83 2.89-22.01.1-23.72-8.23.09-13.76-7.69-12.32-20.4-10.41-36.63 5.2-42.55-7.7-53.23-31.08h-1.07z"/>
		<path fill="#4d8ac0" d="M57.2 109.84c10.67 23.37 16.6 36.27 53.23 31.08 12.7-1.92 20.48-3.35 20.4 10.4 1.7 8.34 7.89 11.12 23.72 8.23 6.06-2.5 11.62-5.97 16.21-3.1l.2.07.05.03.13.1.1.09.02.03.04.06a1.01 1.01 0 0 1 .1.22l.02.1v.18c-.03 1.96-3.94 6.54.76 12.1 11.76 11.89 23.02 22.32 34.79 34.2 2.8 13.84 14.46 11.97 23.66 9.14 13.95-4.06 7.7 2.19 12.79 8.9 3.96 6.13 13.84 25.95 24.7 3.17 6.8-16.5 17.5-23.7 24.8-23.05 7.3-.33 12.87-8.2 11.53-15.88-32.45 8.21-74.12-7.26-79.32-76.07H57.2z"/>
		<path fill="#d6dde3" d="M166.93 199.26c-10.56.68-5.05 35.8-3.9 52.43 1.57 16.37 5.23 12.52 16.72 5.38 5.28 10.66 2.07 16.61-5.4 23.51-5.57 5.23-8.76 13.05-3.93 22.04 1.47 2.45 2.71 3.5 4.43 7.35 1.15 2.29 2.27 4.6 3.42 6.88 1.33 5.06-.17 8.2-2.39 10.91-2.05 2.93-2.45 5.88.22 13.98 1.46 4.7-2.53 10.32 3.65 15.26a37.25 37.25 0 0 0 8.17 4.87c-2.38-6.9-2.45-16.86-1.29-25.42.79-8.07 1.34-13.08 8.74-18.57 6.46-3.29 4.66-20.67 5.21-31.01l.22.15v-.15c13.82-2.9 6.13-13.9 1.89-24.45l-33.78-62.9a6.14 6.14 0 0 0-1.86-.26h-.12z"/>
		<path fill="#608ab4" d="M168.91 199.5l33.78 62.92c4.24 10.55 11.93 21.54-1.89 24.45 1.23 7.36 10.4 13.77 20.56 12.9 10.57-.67 18.26 7.2 21.74 15.14.46-8.76 1.54-17.45 3.68-26.04 1.36-4.25 9.1-8.01 2.67-13.67-26.04-28.53-51.15-50.95-79.32-75.25a9.41 9.41 0 0 0-1.22-.44z"/>
		<path fill="#236798" d="M200.59 286.87c-.55 10.34 1.24 27.72-5.22 31.01-7.4 5.49-7.95 10.5-8.74 18.57-1.16 8.57-1.1 18.55 1.3 25.45a33.26 33.26 0 0 0 7.6 2.2c4.47.4 7.28 1.5 16.71-.23 8.26-.94 13.22-4.96 22.66-6.37 5.15-1.01 8.64-2.97 8.36-10.8-.4-10.68-.7-21.28-.16-31.79-3.48-7.94-11.17-15.8-21.74-15.13-10.05.85-19.12-5.4-20.52-12.66v-.06c-.08-.07-.18-.12-.25-.2z"/>
		<path fill="#608ab4" d="M339.42 276.45c-.87 2.4-2 4.53-2.95 7.63.04 28.2-3.86 36.33-26.46 58.16-.2.05-6.67 15.13-12.16 19.07-9.27 6.81-8.7 13-12.13 20.45-2.5 3.76-5.94 4.37-8.43 3.69-1.55-1.23-3.12-1.8-4.68-3.66-.1 3.04.12 5.82.91 8.25l.1.22v.03c.43.88.84 1.78 1.25 2.66l.07.1v.02c.37.58.8 1.14 1.28 1.66l-.44-.12c9.5 15.1 22.9 19.82 40.1 13.88a90.72 90.72 0 0 0 20.43-12.04c5-4.72 10.95-13.58 1.57-14.16-1.34-.35-2.08-.7-2.45-1.07l-.06-.06c-.04-.04-.07-.11-.1-.16a1.08 1.08 0 0 1-.1-.21l-.02-.07v-.18c.02-1.35 2.59-3.27.62-7.16-1.34-5.96 4.37-11.6 8.46-13.1l-8.46-18.36c.2-4.01 8.14-6.13 6.85-13.63 2.3-18.85 5.4-46.84-3.2-51.84z"/>
		<path fill="#236798" d="M288.7 202.2c-6.8 1.82-15.01 9.1-20.58 22.63-2.55 5.34-5.05 8.34-7.42 9.73.24 23.26 5.8 39.82 17.28 48.9-3.4 13.45-6.8 32-.62 43.24-10.44-3.29-6.19 17.6-9.27 26.39-5.22 14.62-9.81 13.98-14.71 15.25 4.47 5.09 10.23 10.49 18.85 13.67v.06a1 1 0 0 0 .13.25c.64.97 3.53 2.03 4.93 3.13 2.5.68 5.93.07 8.42-3.7 3.45-7.44 2.87-13.62 12.13-20.44 5.37-3.85 11.68-18.35 12.16-19.07-18.33-10.26-27-29.8-24.04-48.62.86-5.2 4.27-11.02-.3-19.39-5.49-23-2-49.77 3.04-72.04z"/>
	</g>
</svg>
