<svg xmlns="http://www.w3.org/2000/svg" width="100.346" height="65.126" viewBox="0 0 100.346 65.126">
    <defs>
        <style>
            .cls-2,.cls-3,.cls-4{fill-rule:evenodd}.cls-2{fill:#231f20}.cls-3{fill:#fcee1f}.cls-4{fill:#eb2227}
        </style>
    </defs>
    <g id="HEADER_LOGO_AS_IMAGE" transform="translate(-0.002 0)">
        <g id="HEADER_LOGO_AS_IMAGE-2" transform="translate(0.002 0)">
            <path id="Path_3709" fill="#373435" fill-rule="evenodd" d="M481.734 3414.547c-.042-.123-.018-.182.088-.22l-.026-.079-.95.347.027.077c.127-.047.15-.006.191.117l.839 2.571-3.147-1.744c-.05-.027-.083-.046-.087-.063-.016-.052.017-.086.122-.128l-.028-.076-1.13.415.022.077c.117-.045.142 0 .183.119l1.171 3.587c.039.122.045.17-.072.213l.025.077.939-.337-.024-.079c-.117.041-.16.008-.2-.117l-.892-2.734 3.273 1.837c.095.055.134.067.152.116.01.033-.037.063-.092.08l.027.081.98-.356-.025-.083c-.106.039-.158.01-.2-.112l-1.171-3.587zm-7.494 2.922a1.4 1.4 0 0 1 1.88 1.007 1.488 1.488 0 0 1-1.088 1.909 1.394 1.394 0 0 1-1.879-1.009 1.488 1.488 0 0 1 1.087-1.907zm-.181-.672a2.231 2.231 0 0 0-1.674 2.812 2.086 2.086 0 0 0 2.831 1.449 2.232 2.232 0 0 0 1.674-2.815 2.088 2.088 0 0 0-2.83-1.443zm-3.98 1.434c-.03-.127-.014-.183.16-.226l-.018-.083-1.172.309.016.081c.175-.048.208-.006.239.119l.87 3.679c.028.125.016.179-.156.223l.018.084 1.172-.31-.018-.081c-.174.047-.211.009-.242-.116l-.869-3.68zm-3.851 1.334l1.325-.3c.131-.029.2.005.214.1l.078-.015-.194-.967-.079.016c.02.095-.027.153-.16.182l-3.426.769c-.132.029-.2 0-.216-.1l-.078.019.2.964.077-.015c-.022-.1.024-.158.156-.187l1.327-.3.659 3.278c.026.129.015.182-.13.212l.018.08 1.115-.247-.016-.081c-.144.031-.181-.01-.206-.138l-.66-3.28zm-4.035.328c-.019-.13 0-.181.178-.209l-.012-.082-1.194.2.013.08c.176-.029.205.014.227.141l.559 3.75c.025.127.005.175-.17.205l.012.083 1.192-.2-.013-.08c-.179.03-.214-.012-.232-.14l-.562-3.747zm-6.209.984l1.442-.241c.734-.125 1.334.088 1.5 1.223.16 1.067-.195 1.512-.884 1.624l-1.629.271-.434-2.877zm-.288 3.444c.017.131 0 .176-.129.2l.013.084 2.572-.431a1.894 1.894 0 0 0 1.569-2.446 1.847 1.847 0 0 0-2.33-1.794l-2.453.408.013.083c.134-.022.161.022.18.149l.565 3.745zm-5.211 1.018l-.013-.085a.081.081 0 0 1-.093-.075 8.09 8.09 0 0 1 .276-1.016l1.909-.283a7.008 7.008 0 0 1 .555.922c0 .028-.019.063-.092.074l.009.081 1.107-.164-.01-.083c-.117.018-.144-.02-.246-.19l-2.1-3.4a.363.363 0 0 1-.072-.147c-.005-.04.022-.077.106-.1l-.011-.083-1.212.18.01.085c.075 0 .123.021.13.084a.484.484 0 0 1-.037.184l-1.04 3.83c-.051.2-.081.232-.178.254l.009.081.992-.145zm.344-1.885l.451-1.636.873 1.44zm-6.192-1.2l1.694-.157c.4-.038.741.1.773.473s-.281.564-.683.6l-1.7.157-.089-1.073zm.128 1.773l1.153-.107 1.153 1.448c.064.075.081.1.086.149 0 .024-.006.051-.072.055l.005.083 1.242-.119-.006-.077c-.118.009-.17-.048-.257-.155l-1.162-1.454a1.209 1.209 0 0 0 .992-1.357c-.058-.689-.618-1.185-1.592-1.1l-2.7.249.006.081c.136-.012.161.036.173.164l.312 3.777c.01.131-.008.182-.144.193l.01.079 1.106-.1-.006-.083c-.134.015-.163-.031-.173-.163l-.13-1.569zm-4.084-1.5l1.351-.075c.133-.006.19.036.2.138h.076l-.049-.988h-.077c0 .1-.049.144-.186.153l-3.5.194c-.134.008-.194-.036-.2-.131h-.079l.048.988h.078c0-.1.051-.153.185-.158l1.351-.075.166 3.347c.01.131-.012.18-.158.189v.081l1.137-.063v-.08c-.148.008-.175-.041-.184-.167l-.163-3.35zm-10.168-.791c.134.01.153.059.144.188l-.251 3.783c-.008.129-.033.175-.167.166l-.006.082 1.1.083.009-.084c-.124-.008-.142-.058-.137-.187l.108-1.594 1.647.118c.134.012.187.061.181.156l.078.007.067-.993h-.078c-.011.108-.067.152-.2.138l-1.647-.12.068-1.054 2.56.193c.131.009.185.059.177.164l.079.007.066-.982-.08-.006c-.007.083-.066.126-.2.117l-3.51-.259v.083zm-3.873.235a1.46 1.46 0 0 1 1.387 1.678 1.426 1.426 0 0 1-1.686 1.34 1.463 1.463 0 0 1-1.388-1.68 1.421 1.421 0 0 1 1.686-1.343zm.069-.7a2.125 2.125 0 0 0-2.548 1.945 2.183 2.183 0 0 0 2.111 2.462 2.128 2.128 0 0 0 2.549-1.944 2.186 2.186 0 0 0-2.112-2.463zM415.4 3424.1l3.641.675c.132.026.18.083.165.165l.078.016.161-.959-.078-.013c-.016.093-.079.129-.212.1l-2.709-.5.189-1.143 1.737.324c.134.023.18.078.165.175l.078.011.164-.979-.078-.014c-.016.1-.08.142-.212.118l-1.739-.324.173-1.04 2.662.5c.133.024.178.081.164.186l.076.015.161-.968-.077-.015c-.011.082-.076.119-.21.094l-3.593-.668-.011.081c.123.024.136.073.114.2l-.625 3.735c-.02.128-.049.171-.172.148l-.013.081zm-2.329-4.056l1.323.3c.131.031.176.086.157.188l.079.015.192-.965-.075-.02c-.019.1-.084.125-.216.1l-3.428-.771c-.131-.029-.177-.088-.158-.18l-.079-.015-.195.967.078.015c.02-.1.085-.135.215-.1l1.325.3-.662 3.281c-.026.125-.057.167-.2.135l-.02.083 1.118.248.016-.081c-.143-.03-.161-.084-.136-.209l.662-3.283zm-3.58-1.1l-.081-.053a.105.105 0 0 1-.107.017 4.146 4.146 0 0 0-1.574-.88c-1.059-.276-2.119-.13-2.347.835-.451 1.91 3.046 1.349 2.779 2.473-.074.316-.483.524-1.476.265-.7-.181-1.342-.608-1.263-.949.013-.045.028-.069.033-.088l-.077-.07-.682.859.067.034c.03-.009.053-.032.087-.025a3.5 3.5 0 0 0 1.73.934c1.4.365 2.231-.038 2.411-.8.491-2.078-3.042-1.541-2.822-2.489.085-.355.514-.533 1.367-.312a1.9 1.9 0 0 1 1.286.844.355.355 0 0 1-.028.081l.074.073.624-.751zm-9.655 1.406l-.956-.309.023-.078c.1.024.14.006.268-.151l2.474-3.008a.422.422 0 0 0 .109-.146c.018-.064-.016-.106-.081-.139l.021-.083 1.173.38-.025.078c-.083-.015-.127.011-.138.05a.4.4 0 0 0 .005.16l.538 4.023c.027.2.035.249.146.283l-.021.078-1.071-.343.024-.079c.07.023.106 0 .113-.025a6.918 6.918 0 0 0-.134-1.084l-1.841-.593a8.261 8.261 0 0 0-.659.794.088.088 0 0 0 .055.113l-.023.079zm1.068-1.552l1.064-1.28.216 1.693zm-3.544-3.1l1.271.49c.127.048.167.114.133.208l.075.029.32-.93-.076-.03c-.027.09-.1.114-.224.066l-3.294-1.265c-.126-.049-.163-.112-.133-.2l-.073-.026-.32.927.071.03c.035-.095.1-.118.23-.071l1.272.488-1.089 3.151c-.041.123-.079.16-.217.107l-.026.075 1.073.415.028-.077c-.137-.055-.151-.11-.107-.234l1.087-3.151z" transform="translate(-388.91 -3361.057)"/>
            <path id="Path_3710" d="M102.322 16.531a30.511 30.511 0 0 1 2.363 5 44.363 44.363 0 0 1 1.73 6.09 42.648 42.648 0 0 1 .6 12.236 44.093 44.093 0 0 1-4.132 14.34c-1.658.829-3.307 1.612-5.009 2.344a91.93 91.93 0 0 1-12.746 4.075 124.7 124.7 0 0 1-24.455 3.062 141.883 141.883 0 0 1-17.823-.766A105.937 105.937 0 0 1 21.887 58.4c-1.566-.522-10.442-4.1-10.6-4.79h-.01c-.358-.756-.6-1.509-.939-2.272-.22-.522-.434-1.049-.639-1.579q-.5-1.334-.93-2.69c-.219-.735-.42-1.466-.608-2.2s-.343-1.495-.488-2.246-.258-1.52-.361-2.284-.174-1.544-.234-2.319-.085-1.564-.1-2.349.006-1.573.033-2.362.1-1.553.169-2.333.182-1.536.3-2.3.267-1.515.425-2.265.35-1.489.549-2.228.431-1.456.67-2.181.51-1.43.784-2.136.584-1.4.9-2.088l.58-1.235 1.693-.786 1.083-.512 1.115-.5 1.137-.484 1.166-.472 1.188-.457 2.453-.867 2.551-.811 2.637-.75 2.725-.689 2.807-.624 2.885-.558 2.957-.49 3.027-.418 3.088-.362 3.148-.277 3.2-.2 3.252-.117 3.3-.039 3.3.039 3.253.121 3.2.2 3.148.277 3.088.348 3.027.418 2.957.49 2.884.558 2.807.624 2.725.689 2.64.75 2.549.811 2.453.867 1.189.457 1.163.472 1.139.484 1.113.5 1.084.512 1.8.786z" class="cls-2" transform="translate(-6.866 -7.019)"/>
            <path id="Path_3711" d="M49.932 0l3.3.041 3.251.122 3.2.2 3.149.278 3.09.348 3.027.418 2.957.489 2.884.56 2.807.621 2.724.689 2.639.748 2.549.813 2.453.869 1.189.457 1.166.469 1.137.487 1.112.5 1.086.514 1.8.894c.353.756.708 1.508 1.042 2.273.222.524.434 1.051.641 1.58.337.889.643 1.783.93 2.69.163.55.319 1.1.469 1.65.235.932.444 1.861.627 2.8.138.76.259 1.518.363 2.284s.172 1.542.233 2.319.084 1.564.1 2.35-.006 1.571-.034 2.359-.1 1.559-.168 2.337-.185 1.533-.3 2.3-.268 1.514-.425 2.265-.353 1.486-.551 2.228-.429 1.457-.67 2.182-.508 1.428-.785 2.135-.585 1.4-.9 2.088l-.579 1.233-1.8.9-1.086.512-1.112.5-1.137.486-1.163.47-1.191.458-2.453.87-2.549.808-2.639.75-2.724.687-2.807.626-2.884.558-2.957.49-3.026.422-3.092.346-3.149.274-3.2.2-3.251.122-3.3.04-3.3-.04-3.252-.122-3.2-.2-3.148-.274-3.09-.346-3.026-.422-2.957-.49-2.884-.558-2.808-.626-2.724-.687-2.638-.75-2.551-.808L11.9 49.9l-1.188-.458-1.164-.47-1.139-.486-1.114-.5-1.084-.512-1.8-.9c-.357-.756-.709-1.509-1.044-2.272-.222-.523-.434-1.05-.643-1.58q-.5-1.333-.927-2.69c-.22-.735-.422-1.465-.609-2.2S.848 36.341.7 35.59s-.258-1.519-.361-2.285S.166 31.762.1 30.987s-.081-1.565-.1-2.349.006-1.574.035-2.362.097-1.554.165-2.333.184-1.536.3-2.3.267-1.516.423-2.266.353-1.489.551-2.227.429-1.457.669-2.181.508-1.43.784-2.136.584-1.4.9-2.088l.582-1.235 1.8-.894L7.3 8.1l1.11-.5 1.139-.487 1.164-.469 1.187-.452 2.453-.869L16.9 4.51l2.638-.748 2.724-.689 2.808-.621 2.884-.56 2.961-.492 3.027-.415 3.089-.347L40.178.36l3.2-.2 3.257-.119L49.932 0z" class="cls-3" transform="translate(-0.002 0)"/>
            <path id="Path_3712" d="M94.527 45.74l1.649.009 1.633.032 1.625.051 1.611.068 1.6.09 1.588.109 1.572.127 1.558.146 1.546.163 1.528.184 1.51.2 1.5.218 1.478.237 1.461.25 1.443.268 1.421.287 1.405.3 1.385.316 1.364.333 1.341.35 1.319.362 1.3.382 1.274.4 1.25.409 1.228.424 1.2.439 1.179.45 1.153.467 1.124.481 1.1.493 1.071.507 1.576.781.474 1.006.231.508.224.514.217.513.211.518.2.521.2.524.19.524.181.533.18.53.165.536.161.537.153.54.146.542.138.545.133.549.122.55.118.555.107.552.1.56.093.558.087.56.075.566.071.567.059.567.055.572.048.57.037.575.031.576.02.578.013.58v1.165l-.013.58-.02.578-.031.576-.037.574-.048.57-.055.572-.059.569-.071.567-.075.56-.087.566-.093.558-.1.558-.107.556-.118.552-.122.549-.133.551-.138.543-.144.545-.155.539-.161.538-.165.536-.18.529-.181.531-.19.527-.2.523-.2.52-.211.519-.217.514-.224.512-.231.507-.474 1.008-1.574.781-1.073.509-1.1.493-1.124.478-1.153.466-1.179.454-1.2.433-1.228.427-1.25.411-1.274.393-1.3.381-1.319.364-1.341.351-1.364.331-1.385.319-1.405.3-1.421.284-1.443.271-1.461.25-1.478.238-1.5.214-1.51.2-1.528.183-1.546.166-1.558.144-1.572.131-1.588.107-1.6.087-1.611.069-1.625.05-1.633.03-1.649.01-1.644-.01-1.635-.03-1.622-.05-1.613-.069-1.6-.087-1.587-.107-1.572-.131-1.56-.144-1.542-.166-1.529-.183-1.512-.2-1.495-.214-1.48-.238-1.46-.25-1.441-.271-1.425-.284-1.4-.3-1.384-.319-1.364-.331-1.342-.351-1.32-.37-1.3-.381-1.276-.393-1.251-.411-1.228-.426-1.2-.433-1.179-.454-1.153-.466-1.125-.478-1.1-.493-1.072-.509-1.576-.781-.475-1.008-.228-.507-.226-.512-.217-.514-.211-.519-.2-.52-.2-.521-.19-.528-.181-.531-.177-.529-.166-.536-.162-.538-.153-.539-.147-.547-.139-.542-.129-.551-.124-.549-.117-.552-.108-.556-.1-.558-.093-.558-.087-.566-.074-.56-.07-.567-.061-.569-.052-.572-.047-.57-.037-.574-.028-.576-.02-.578-.014-.58v-1.165l.014-.58.02-.578.028-.576.037-.575.047-.57.052-.572.061-.57.07-.564.074-.566.087-.56.093-.558.1-.56.108-.552.117-.555.124-.55.129-.549.139-.545.147-.542.153-.54.162-.539.166-.534.177-.53.181-.533.19-.527.2-.521.2-.521.211-.518.217-.513.226-.514.228-.508.475-1.006 1.576-.781 1.072-.507 1.1-.493 1.125-.481 1.153-.467 1.179-.45 1.2-.439 1.228-.424 1.251-.409 1.276-.4 1.3-.377 1.319-.362 1.342-.35 1.364-.333 1.386-.316 1.4-.3 1.423-.287 1.443-.268 1.46-.25 1.48-.237 1.495-.218 1.512-.2 1.529-.184 1.542-.163 1.56-.146 1.572-.127 1.587-.109 1.6-.09 1.613-.068 1.623-.051 1.635-.032z" class="cls-4" transform="translate(-44.597 -45.03)"/>
            <path id="Path_3713" d="M196.539 150.03l3.245.041 3.194.121 3.149.191 3.09.27 3.032.344 2.966.409 2.9.481 2.823.545 2.742.609 2.66.672 2.571.731 2.48.789 2.38.841 1.15.442 1.127.456 1.1.467 1.071.482 1.044.491 1.058.528q.458.973.877 1.961c.268.666.525 1.33.766 2.007.175.511.343 1.019.506 1.532.257.863.491 1.728.7 2.6.158.707.3 1.414.428 2.126s.225 1.438.313 2.162.142 1.458.189 2.193.059 1.48.063 2.223-.025 1.479-.063 2.221-.109 1.46-.189 2.191-.191 1.442-.313 2.16q-.141.8-.31 1.6c-.2.882-.417 1.75-.665 2.617-.208.689-.426 1.368-.661 2.049s-.5 1.342-.766 2.006-.572 1.313-.877 1.962l-1.058.527-1.044.493-1.071.479-1.1.47-2.277.9-2.38.844-2.48.788-2.574.728-2.658.672-2.742.612-2.823.543-2.9.479-2.966.413-3.032.342-3.09.27-3.149.2-3.194.115-3.245.039-3.24-.039-3.194-.115-3.147-.2-3.093-.27-3.03-.342-2.966-.413-2.9-.479-2.824-.543-2.745-.612-2.658-.672-2.574-.728-2.478-.788-2.379-.844-1.155-.443-1.124-.453-1.1-.47-1.071-.479-1.043-.493-1.059-.527c-.307-.649-.6-1.3-.877-1.964s-.526-1.329-.767-2.005-.454-1.36-.661-2.049-.38-1.385-.546-2.088-.3-1.411-.431-2.127-.221-1.434-.31-2.16-.144-1.461-.191-2.193-.057-1.478-.064-2.22.027-1.482.064-2.223c.037-.549.081-1.1.129-1.647.1-.909.222-1.805.372-2.708.129-.712.271-1.418.431-2.126s.349-1.395.546-2.087.425-1.369.661-2.049.5-1.342.767-2.007.57-1.313.877-1.961l1.059-.528 1.042-.491 1.071-.482 1.1-.467 1.124-.456 2.333-.869 2.431-.817 2.524-.759 2.618-.7 2.7-.641 2.786-.579 2.86-.514 2.933-.446 3-.377 3.06-.3 3.123-.234 3.168-.155 3.219-.08 1.625-.012z" class="cls-3" transform="translate(-146.608 -147.702)"/>
            <path id="Path_3714" d="M196.559 150.029l3.245.041 3.194.121 1.9.114 1.244.077 3.09.27 3.032.344 2.966.409 2.9.481 2.823.545 2.742.609 2.66.672 2.571.731 2.48.789 2.38.841 1.15.442 1.127.456 1.1.467 1.071.482 1.044.491 1.058.528q.193.407.377.816c-.009-.022-.022-.039-.028-.059l-1.38-.659-1.039-.487-1.063-.473-1.093-.46-1.118-.448-1.148-.436-2.365-.832-2.466-.777-2.56-.718-2.643-.663-2.729-.6-2.807-.537-2.881-.473-2.951-.406-3.016-.335-3.072-.266-3.129-.191-3.178-.12-3.225-.037-1.617.01-3.2.08-3.154.153-3.1.228-3.046.3-2.983.372-2.914.439-2.844.507-2.769.569-2.687.63-2.6.69-2.512.751-2.417.806-2.317.856-1.119.448-1.092.46-1.065.473-1.037.487-1.054.517c-.3.642-.591 1.283-.871 1.938s-.522 1.31-.764 1.973-.45 1.341-.654 2.019-.378 1.368-.544 2.06-.3 1.392-.428 2.094c-.148.889-.272 1.773-.368 2.667q-.077.812-.129 1.623c-.038.731-.058 1.461-.063 2.192s.025 1.456.063 2.189.108 1.44.187 2.16.193 1.422.31 2.129a40.5 40.5 0 0 0 2.391 8.149c.277.645.637 1.453.939 2.089l-.57-.283c-.307-.649-.6-1.3-.877-1.964s-.526-1.329-.767-2-.454-1.36-.661-2.049-.38-1.385-.546-2.089-.3-1.411-.431-2.127-.221-1.434-.31-2.16-.144-1.461-.191-2.193-.057-1.478-.064-2.22.027-1.482.064-2.223c.037-.549.081-1.1.129-1.647.1-.909.222-1.805.372-2.708.129-.712.271-1.418.431-2.126s.349-1.395.546-2.087.425-1.369.661-2.049.5-1.342.767-2.007.57-1.313.877-1.961l1.059-.528 1.042-.491 1.071-.482 1.1-.467 1.124-.456 2.333-.869 2.431-.817 2.524-.759 2.618-.7 2.7-.641 2.786-.579 2.86-.514 2.933-.446 3-.377 3.06-.3 3.123-.234 3.168-.155 3.219-.08 1.625-.012z" class="cls-2" transform="translate(-146.629 -147.701)"/>
            <path id="Path_3715" fill="#fff" fill-rule="evenodd" d="M484.3 724.311c.306.648.6 1.3.878 1.961s.524 1.331.766 2.008c.176.51.344 1.02.505 1.532.259.863.491 1.728.7 2.6.158.706.3 1.413.429 2.126s.223 1.437.311 2.162.141 1.457.189 2.193.061 1.479.063 2.223-.025 1.479-.063 2.222-.11 1.46-.189 2.191-.19 1.442-.311 2.161c-.094.534-.2 1.068-.31 1.6-.2.882-.419 1.75-.667 2.617-.205.688-.423 1.368-.66 2.049s-.5 1.341-.766 2.006-.572 1.313-.878 1.963l-1.058.527-1.042.493-1.073.479-1.1.47-2.277.9-2.381.844-2.477.787-2.575.73-2.659.672-2.742.612-2.822.543-2.9.479-2.966.413-3.031.342-3.091.27-3.148.2-3.195.115-3.244.039-3.24-.039-3.193-.115-3.149-.2-3.091-.27-3.03-.342-2.966-.413-2.9-.479-2.825-.543-2.744-.612-2.658-.672-2.572-.73-2.48-.787-2.379-.844-1.154-.443-1.124-.453-1.1-.47-1.069-.479-1.044-.493-1.059-.527.212-.488.821.389 1.035.487 1.067.473 1.092.46 1.121.448 1.146.439 2.367.829 2.462.777 2.56.719 2.645.662 2.73.6 2.807.536 2.88.473 2.953.406 3.013.338 3.072.266 3.13.191 3.178.116 3.225.039 1.617-.009 3.2-.078 3.156-.156 3.1-.228 3.044-.3 2.983-.374 2.914-.439 2.848-.507 2.767-.567 2.688-.63 2.6-.692 2.511-.75 2.418-.8 2.316-.859 1.119-.448 1.094-.46 1.064-.473 1.037-.487 1.052-.514q.454-.961.873-1.939c.269-.654.523-1.308.766-1.974s.446-1.34.654-2.02.376-1.366.542-2.058.3-1.394.429-2.1c.149-.888.271-1.772.367-2.668.053-.541.093-1.081.13-1.623.039-.729.059-1.457.065-2.191s-.026-1.456-.065-2.187-.108-1.441-.187-2.161-.191-1.421-.309-2.129-.27-1.4-.429-2.1-.346-1.372-.542-2.058-.423-1.349-.654-2.018-.5-1.323-.766-1.978c-.172-.4-.377-.866-.579-1.316l.211-.488z" transform="translate(-390.592 -713.071)"/>
            <path id="Path_3716" d="M1750.3 2983.95h.64a3.98 3.98 0 0 0 .781-.042.452.452 0 0 0 .243-.144.385.385 0 0 0 .089-.259.358.358 0 0 0-.116-.278.576.576 0 0 0-.328-.137c-.07-.008-.281-.012-.634-.012h-.676zm-.868 1.988v-3.438h1.826a3.787 3.787 0 0 1 1 .093.975.975 0 0 1 .5.331.842.842 0 0 1 .187.542.822.822 0 0 1-.284.64 1.539 1.539 0 0 1-.851.316 2.014 2.014 0 0 1 .466.292 3.964 3.964 0 0 1 .5.556l.526.673h-1.041l-.627-.751a4.935 4.935 0 0 0-.456-.5.7.7 0 0 0-.262-.146 1.837 1.837 0 0 0-.437-.039h-.175v1.439zm-8.618-3.441h.867v1.864a3.367 3.367 0 0 0 .031.575.563.563 0 0 0 .266.337 1.079 1.079 0 0 0 .575.13 1.007 1.007 0 0 0 .556-.123.464.464 0 0 0 .226-.295 3.064 3.064 0 0 0 .039-.585v-1.9h.868v1.8a3.6 3.6 0 0 1-.073.876.889.889 0 0 1-.259.433 1.44 1.44 0 0 1-.5.282 2.813 2.813 0 0 1-.829.1 2.913 2.913 0 0 1-.933-.113 1.362 1.362 0 0 1-.5-.3.939.939 0 0 1-.244-.38 3.343 3.343 0 0 1-.084-.873v-1.825zm-7.407.582v.976h.478a2.806 2.806 0 0 0 .686-.055.544.544 0 0 0 .269-.168.411.411 0 0 0-.039-.576.62.62 0 0 0-.347-.153 5.065 5.065 0 0 0-.626-.024zm-.865 2.859v-3.438h1.392a5.994 5.994 0 0 1 1.032.054 1.158 1.158 0 0 1 .619.335.916.916 0 0 1 .249.668.936.936 0 0 1-.143.533 1.051 1.051 0 0 1-.366.342 1.393 1.393 0 0 1-.45.16 5.819 5.819 0 0 1-.9.051h-.568v1.3zm-6.945-1.268v-.578h1.869v1.37a2.569 2.569 0 0 1-.791.371 3.548 3.548 0 0 1-1.048.161 2.851 2.851 0 0 1-1.175-.226 1.6 1.6 0 0 1-.752-.649 1.742 1.742 0 0 1-.252-.914 1.669 1.669 0 0 1 .281-.955 1.77 1.77 0 0 1 .825-.641 2.647 2.647 0 0 1 1.028-.171 2.44 2.44 0 0 1 1.249.265 1.218 1.218 0 0 1 .582.745l-.862.129a.759.759 0 0 0-.343-.4 1.219 1.219 0 0 0-.626-.147 1.35 1.35 0 0 0-.906.29 1.073 1.073 0 0 0-.334.859 1.162 1.162 0 0 0 .341.916 1.28 1.28 0 0 0 .888.307 1.749 1.749 0 0 0 .549-.089 1.872 1.872 0 0 0 .47-.205v-.438zm-8.333-.094l-.592-1.275-.58 1.275zm1.6 1.362h-.948l-.372-.784h-1.718l-.354.784h-.922l1.672-3.441h.919zm-12.478 0v-3.438h.845l1.759 2.3v-2.3h.806v3.441h-.874l-1.729-2.246v2.246z" class="cls-2" transform="translate(-1679.913 -2936.164)"/>
            <path id="Path_3717" d="M2569.538 373.587a3.956 3.956 0 0 1-1.475.911c-.117.538-.708 3.408-.824 3.831 0 0-.481 1.292-2.787 1.406.675 0 1.279-1.243 1.493-2.317l.566-2.638a1.923 1.923 0 0 1-2.147-2.631 1.88 1.88 0 0 1 2.866-.666l.551-2.513c.208-.955.286-1.3-.382-1.3l2.3-.656-1.14 5.2a7.93 7.93 0 0 0 .98.521 5.574 5.574 0 0 0 .537-.542c.034.018.238.089.31.118a3.77 3.77 0 0 1-.409.656 1.2 1.2 0 0 0 .922.042l.876-4.036c.214-.949.293-1.3-.373-1.3l2.292-.656-2.463 11.358a1.246 1.246 0 0 0 .236 1.119c-1.956-.7-1.537-1.993-1.537-1.993l.78-3.615a2.261 2.261 0 0 1-1.176-.291zm-5.177 8.05c-.035.041-.618.8-.6.821.188.169.347.317.542.486a11.455 11.455 0 0 1 .683-.991 4.07 4.07 0 0 1 1.756-1.333c2.538-.781 2.92 1.26 4.89.871-.025.117.007.012-.016.083-.269.283-.515.53-.729.765-1.549-.641-3.137-1.778-4.638-.745a2.524 2.524 0 0 0-.905 2.5 2.055 2.055 0 0 0 1.18 1.675c1.938.745 3.3-1.27 4.508-2.521a12.626 12.626 0 0 0 2.884 1.023c.5.083 1.845.034 2.245-.432.2-.213.062-.617-.307-.467-1.2.588-2.606.077-4.258-.7a21.366 21.366 0 0 1 3.853-3.244 3.957 3.957 0 0 0 2.335 1.924c2.232.372 3.407-2.212 2.156-3.352a2.209 2.209 0 0 0-1.857-.445 6.545 6.545 0 0 0-2.374.927l-.98-1.658c2.5-.443 3.646-1.9 3.927-3.326.277-1.548-.165-2.813-1.328-3.258-1.328-.424-2.8.3-4.148.561.75.108.584.879.417 1.653-.113.515-1.216 5.607-1.779 8.2-1.556.368-1.9-.915-3.9-.93a4.3 4.3 0 0 0-3.553 1.913zm9.065-1.562l.609-2.819 1.034 1.593a13.284 13.284 0 0 0-1.643 1.226zm.877-4.055l1.133-5.208c.563-.5 1.408-.041 1.543 1.079a6.473 6.473 0 0 1-.355 2.4c-.349 1.08-1.043 1.831-2.1 1.748zm-5.372-2.748a1.706 1.706 0 0 1-.682.377l.144-.662c.157.093.426.22.538.285zm-1.873-1l-.383 1.759c-2.369.43-2.017-3.239.384-1.757zm3.231 10.672c-.649.728-2.292 2.969-3.665 2.021a1.943 1.943 0 0 1-.067-2.6c1.027-.988 2.742.131 3.732.578zm10.011-6.731a7.155 7.155 0 0 0-4.9 1.044l.32.509c1.04-.805 4.6-1.536 5.576-.3.011-.039.089-.363.089-.363a10.841 10.841 0 0 0 .241-2.257 10.541 10.541 0 1 0-18.6 6.831l.1.109a5.817 5.817 0 0 0 .728-1.021c-.007-.007 0 0 0-.007a9.333 9.333 0 1 1 16.451-4.543zm-4.26 2.818a6.036 6.036 0 0 1 1.938-.774c.6-.1 1.392-.087 1.684.578a1.173 1.173 0 0 1-.015.889c-.359 1.04-1.981 1.768-3.605-.691z" class="cls-2" transform="translate(-2520.81 -358.589)"/>
            <path id="Path_3718" d="M687.856 1495.706c.08-.371.163-.75.213-1.12a2.4 2.4 0 0 0-.6-2.237 3.137 3.137 0 0 0-1.8-.566 3.988 3.988 0 0 0-4.157 2.916c-.067.657.164 1.4.673 1.4.6 0 1.3-1 1.534-1.753.254-.744.767-1.844 1.555-1.844 1.049 0 .674 1.735.473 2.65-.411 1.894-5.392 1.371-6.186 5.852-.343 1.942.349 3.081 1.6 3.081a4.35 4.35 0 0 0 2.975-1.469c.043.879.556 1.469 1.183 1.469a2.847 2.847 0 0 0 2-1.469v-.443a1.228 1.228 0 0 1-.408.139c-.56 0-.329-.718-.187-1.372l1.14-5.238zm18.663-3.277a3.506 3.506 0 0 1 3.094-.7 1.835 1.835 0 0 1 1.309.66c.211.349.216.352.192 2.012h-.626a2.173 2.173 0 0 0-3.109-1.469 1.882 1.882 0 0 0-.842 1.265 2.461 2.461 0 0 0 .623 2.042 1.057 1.057 0 0 0 .644.332 3.158 3.158 0 0 1 2.678 3.271 4.46 4.46 0 0 1-.961 2.489 4.042 4.042 0 0 1-1.557 1.443 4.142 4.142 0 0 1-2.138.318 6.294 6.294 0 0 1-2.288-.6c-.092-.071 0 .047.07-2.242l.6-.09c.431 1.542 1.2 2.109 2.6 2.046a1.965 1.965 0 0 0 1.582-1.467 2.664 2.664 0 0 0-.306-2.393 1.712 1.712 0 0 0-.756-.308c-1.246-.375-3.064-1.021-2.682-3.371a5.483 5.483 0 0 1 1.868-3.23zm-1.611-2.821a26.587 26.587 0 0 1-1.464 3.061c.071-.022.092.048.162 0a11.369 11.369 0 0 0 2.786-4.029 1.361 1.361 0 0 0-.8-1.7 1.377 1.377 0 1 0-.685 2.666zm-12.452 5.4a2.867 2.867 0 0 1 1.769-1.166c.836 0 .676 1.407.494 2.247l-1.068 4.918c-.355 1.642-.933 2.223-1.48 2.223l-.12.561h4.209l.124-.561c-.469 0-.909-.339-.5-2.223l1.305-6c.443-.51 1.147-1.166 1.659-1.166.559 0 .939.9.645 2.247l-1.069 4.918c-.355 1.642-.931 2.223-1.476 2.223l-.12.561h4.208l.12-.561c-.462 0-.98-.339-.5-2.223l1.068-4.918c.544-2.5.05-4.3-1.3-4.3-1.018 0-2.424 1.237-3.16 2.057-.163-1.171-.685-2.057-1.613-2.057-1.02 0-2.25 1.237-2.942 2.054l.546-2.521c-1.322.886-2.185 1.7-3.7 1.7.706.6.907.814.42 3.083l-1.055 4.9c-.356 1.644-.932 2.223-1.48 2.223l-.12.561h4.21l.122-.561c-.465 0-.912-.339-.5-2.223l1.3-6zm-15.194 1.081l-1.065 4.918c-.412 1.884.039 2.223.5 2.223l-.12.561h-4.212l.121-.561c.547 0 1.122-.581 1.479-2.223l1.071-4.918c.488-2.25.273-2.469-.441-3.067 1.518 0 2.569-.859 3.71-1.7l-.662 3.032c.768-1.026 2.027-2.87 3-2.87.406 0 .706.5.847 1.069a1.964 1.964 0 0 1-.222 1.654c-.313.5-.8.942-1.159.942-.441 0-1.021-.722-1.347-.722-.373 0-1.195 1.151-1.5 1.665zm-6.088-6.384c.129-.8.705-1.7 1.436-1.728.647.041.9.947.741 1.728-.2 1.033-.886 1.779-1.438 1.718-.588-.014-.9-.914-.74-1.718zm.612 14.086l.122-.561c-.464 0-.9-.339-.489-2.223l2.105-9.688a5.718 5.718 0 0 1-3.7 1.7c.7.6.92.817.433 3.067l-1.068 4.918c-.357 1.642-.949 2.223-1.487 2.223l-.123.561zm-5.646-10.769l.371-1.7c.484-2.221.351-2.623-.5-3a6.029 6.029 0 0 0 3.709-1.459l-3.082 14.153-.289 1.323c-.122.561-.117.9.948.9l-.121.561c-1.07.481-3.513.632-3.128-1.142a3.225 3.225 0 0 1-2.453 1.442c-2.185 0-2.779-2.8-2.195-5.954.831-4.484 3.39-6.351 4.831-6.351a2.179 2.179 0 0 1 1.911 1.236zm-1.736 7.985c-.582.817-1.1 1.615-1.8 1.615-1.371 0-1.069-3.317-.789-4.9.606-3.483 2.112-4.555 2.669-4.555.511 0 1.112.68 1.367 1.193zm-7.361-12.693c.812.382.94.8.458 3l-2.105 9.688c-.356 1.638-.939 2.223-1.478 2.223l-.122.561h4.209l.123-.561c-.466 0-.911-.339-.5-2.223l3.076-14.153a5.932 5.932 0 0 1-3.662 1.46zm-3.005 7.394l-1.14 5.238c-.141.654-.369 1.372.185 1.372a1.225 1.225 0 0 0 .41-.139v.443a2.852 2.852 0 0 1-2 1.469c-.627 0-1.14-.59-1.185-1.469a4.341 4.341 0 0 1-2.972 1.469c-1.252 0-1.946-1.139-1.6-3.081.8-4.485 5.775-3.958 6.187-5.852.2-.915.576-2.652-.475-2.65-.788 0-1.312 1.093-1.554 1.844s-.929 1.753-1.533 1.753c-.511 0-.742-.746-.673-1.4a3.985 3.985 0 0 1 4.156-2.916 3.126 3.126 0 0 1 1.8.566 2.4 2.4 0 0 1 .6 2.235c-.05.371-.133.75-.213 1.122zm-3.448 5.591c-.509.653-1.2 1.324-1.763 1.324-.744 0-.838-1.056-.7-1.986a3.862 3.862 0 0 1 3.321-3.295l-.86 3.957zm-16.178-6.692c-.8.235-2.871-.018-3.362-1.335a1.605 1.605 0 0 1 .856-1.954 3.7 3.7 0 0 1 3.272-.207l-.766 3.5zm-.414 2.1l-.915 3.991c-.354 1.616-.977 2.528-2.033 2.528l-.123.561h5.527l.119-.561c-1.322 0-1.359-.66-.953-2.522l1.885-8.682c1.76.835 3.02 2.9 4.795 3.4l-1.153 5.28c-.355 1.615-.954 2.528-2.018 2.528l-.121.561h5.527l.123-.561c-1.117 0-1.333-.669-.964-2.528l1.019-4.684c1.2.3 3.42-2.208 2.406-2.176.047.466-1.495 1.382-2.118.847.134-.614 2.574-11.76 2.553-11.738l-4.22.609-.116.514c1.1 0 1.492.3 1.18 1.729-.588 2.7-1.194 5.515-1.8 8.249-1.824-.493-2.968-2.434-4.839-3.153l1.733-7.948-4.239.609-.114.514c1.1 0 1.506.3 1.2 1.723l-.9 4.119a3.926 3.926 0 0 0-3.185.274 3.587 3.587 0 0 0-1.859 3.534 3.277 3.277 0 0 0 3.607 2.985zm50.409 4.588c-.514.653-1.207 1.324-1.766 1.324-.744 0-.812-1.051-.7-1.984a3.893 3.893 0 0 1 3.321-3.3l-.859 3.957z" class="cls-2" transform="translate(-620.604 -1459.94)"/>
            <path id="Path_3719" d="M2555.472 352.547a3.994 3.994 0 0 1-1.474.912c-.119.539-.708 3.408-.825 3.83 0 0-.481 1.29-2.787 1.408.673 0 1.277-1.244 1.493-2.321l.567-2.637a1.923 1.923 0 0 1-2.149-2.631 1.881 1.881 0 0 1 2.866-.668l.551-2.509c.209-.959.284-1.308-.382-1.308l2.3-.654-1.136 5.2a7.765 7.765 0 0 0 .979.522 5.558 5.558 0 0 0 .537-.542c.036.018.24.091.311.115a3.833 3.833 0 0 1-.411.659 1.174 1.174 0 0 0 .922.041l.878-4.032c.211-.95.29-1.308-.374-1.308l2.292-.654-2.463 11.354a1.256 1.256 0 0 0 .235 1.123c-1.956-.7-1.536-2-1.536-2l.777-3.615a2.181 2.181 0 0 1-1.172-.289zm-5.178 8.047c-.036.047-.616.806-.6.821.188.172.347.32.542.489a11.556 11.556 0 0 1 .681-.991 4.107 4.107 0 0 1 1.759-1.334c2.536-.783 2.916 1.261 4.888.874-.022.114.007.012-.014.083-.266.285-.517.527-.728.765-1.549-.642-3.137-1.778-4.64-.748a2.533 2.533 0 0 0-.9 2.507 2.046 2.046 0 0 0 1.182 1.671c1.937.75 3.3-1.268 4.507-2.516a12.669 12.669 0 0 0 2.882 1.024c.5.083 1.847.031 2.247-.433.2-.217.061-.617-.307-.469-1.205.59-2.607.078-4.258-.7a21.158 21.158 0 0 1 3.853-3.244 3.943 3.943 0 0 0 2.334 1.922c2.232.376 3.407-2.211 2.156-3.352a2.2 2.2 0 0 0-1.856-.443 6.445 6.445 0 0 0-2.375.925l-.979-1.66c2.5-.442 3.644-1.892 3.925-3.325.278-1.545-.164-2.813-1.328-3.258-1.327-.421-2.8.306-4.148.563.752.105.584.879.417 1.653-.114.513-1.217 5.608-1.779 8.2-1.557.366-1.9-.913-3.9-.931a4.314 4.314 0 0 0-3.555 1.911zm9.066-1.558l.608-2.82 1.033 1.593a12.913 12.913 0 0 0-1.641 1.227zm.875-4.055l1.134-5.209c.563-.494 1.41-.042 1.542 1.08a6.5 6.5 0 0 1-.353 2.4c-.35 1.078-1.043 1.831-2.1 1.748l-.224-.015zm-5.37-2.749a1.723 1.723 0 0 1-.684.374l.146-.659c.154.093.422.222.538.285zm-1.875-1l-.382 1.756c-2.373.435-2.017-3.236.382-1.753zm3.234 10.669c-.651.731-2.291 2.97-3.667 2.023a1.949 1.949 0 0 1-.068-2.6c1.028-.988 2.743.13 3.736.576zm10.012-6.728a7.178 7.178 0 0 0-4.91 1.041l.324.513c1.039-.808 4.6-1.539 5.575-.3.013-.039.086-.363.09-.374a10.54 10.54 0 1 0-18.354 4.585l.1.106a5.723 5.723 0 0 0 .728-1.016c-.008-.01 0 0 0-.007a9.345 9.345 0 1 1 16.554-5.912 9.475 9.475 0 0 1-.1 1.369zm-4.261 2.815a6.074 6.074 0 0 1 1.938-.774c.6-.1 1.392-.086 1.685.576a1.186 1.186 0 0 1-.019.894c-.357 1.038-1.979 1.767-3.605-.693z" class="cls-4" transform="translate(-2506.959 -337.875)"/>
            <path id="Path_3720" d="M673.893 1474.846c.08-.367.164-.746.213-1.116a2.4 2.4 0 0 0-.6-2.238 3.153 3.153 0 0 0-1.8-.566 3.99 3.99 0 0 0-4.157 2.919c-.068.653.162 1.4.673 1.4.606 0 1.3-1 1.533-1.751.257-.749.769-1.846 1.554-1.846 1.054 0 .677 1.736.477 2.651-.413 1.893-5.393 1.366-6.186 5.852-.343 1.939.349 3.078 1.6 3.078a4.365 4.365 0 0 0 2.975-1.467c.042.877.555 1.467 1.183 1.467a2.853 2.853 0 0 0 2-1.467v-.443a1.288 1.288 0 0 1-.409.141c-.559 0-.328-.72-.184-1.374l1.138-5.244zm18.666-3.274a3.5 3.5 0 0 1 3.094-.7 1.828 1.828 0 0 1 1.306.657c.213.349.217.355.192 2.013h-.626a2.174 2.174 0 0 0-3.11-1.468 1.893 1.893 0 0 0-.842 1.264 2.459 2.459 0 0 0 .623 2.04 1.04 1.04 0 0 0 .646.334 3.163 3.163 0 0 1 2.676 3.272 4.451 4.451 0 0 1-.962 2.488 3.986 3.986 0 0 1-1.555 1.443 4.138 4.138 0 0 1-2.139.318 6.347 6.347 0 0 1-2.286-.6c-.094-.072 0 .047.069-2.245l.6-.092c.429 1.544 1.2 2.114 2.6 2.046a1.958 1.958 0 0 0 1.582-1.461 2.671 2.671 0 0 0-.306-2.4 1.739 1.739 0 0 0-.756-.308c-1.247-.373-3.064-1.021-2.681-3.37a5.487 5.487 0 0 1 1.869-3.231zm-1.614-2.818a26.165 26.165 0 0 1-1.461 3.06c.069-.023.094.047.163 0a11.386 11.386 0 0 0 2.786-4.031 1.363 1.363 0 0 0-.8-1.7 1.378 1.378 0 1 0-.688 2.672zm-12.449 5.4a2.868 2.868 0 0 1 1.768-1.17c.837 0 .679 1.41.5 2.251l-1.068 4.915c-.359 1.642-.935 2.224-1.481 2.224l-.12.56h4.21l.119-.56c-.466 0-.908-.339-.5-2.224l1.3-6c.442-.515 1.148-1.17 1.659-1.17.558 0 .939.9.645 2.251l-1.068 4.915c-.356 1.642-.931 2.224-1.476 2.224l-.122.56h4.208l.122-.56c-.465 0-.981-.339-.5-2.224l1.07-4.915c.545-2.5.05-4.306-1.3-4.306-1.019 0-2.425 1.239-3.16 2.055-.161-1.168-.683-2.055-1.612-2.055-1.021 0-2.251 1.239-2.943 2.053l.547-2.522c-1.323.888-2.187 1.708-3.7 1.708.705.6.908.813.418 3.081l-1.056 4.9c-.353 1.645-.929 2.224-1.477 2.224l-.123.56h4.211l.122-.56c-.465 0-.91-.339-.5-2.224l1.3-6zm-15.194 1.081l-1.064 4.915c-.413 1.885.036 2.224.5 2.224l-.122.559H658.4l.121-.559c.546 0 1.123-.582 1.479-2.224l1.069-4.915c.491-2.253.273-2.471-.439-3.067 1.517 0 2.566-.859 3.711-1.708l-.662 3.039c.767-1.031 2.025-2.876 3-2.876.4 0 .7.5.845 1.07a1.951 1.951 0 0 1-.224 1.654c-.311.508-.794.944-1.157.944-.441 0-1.022-.723-1.347-.723-.371 0-1.193 1.155-1.5 1.667zm-6.087-6.387c.129-.793.7-1.7 1.433-1.728.65.041.9.949.744 1.728-.2 1.033-.886 1.779-1.439 1.72-.587-.016-.898-.916-.737-1.721zm.611 14.086l.121-.559c-.464 0-.9-.339-.489-2.224l2.109-9.69a5.729 5.729 0 0 1-3.7 1.708c.709.6.922.814.431 3.067l-1.067 4.915c-.356 1.642-.944 2.224-1.486 2.224l-.122.559zm-5.645-10.766l.369-1.708c.484-2.218.354-2.619-.5-3a6.042 6.042 0 0 0 3.711-1.457l-3.082 14.149-.29 1.324c-.122.561-.119.9.949.9l-.122.559c-1.07.481-3.513.637-3.128-1.142a3.227 3.227 0 0 1-2.455 1.443c-2.183 0-2.778-2.8-2.194-5.954.831-4.483 3.391-6.353 4.828-6.353a2.18 2.18 0 0 1 1.916 1.239zm-1.737 7.982c-.58.816-1.105 1.618-1.8 1.618-1.37 0-1.069-3.319-.791-4.909.6-3.479 2.115-4.554 2.67-4.554.512 0 1.112.681 1.367 1.2zm-7.359-12.693c.809.384.938.8.457 3l-2.1 9.69c-.355 1.637-.938 2.224-1.478 2.224l-.123.56h4.21l.123-.56c-.466 0-.909-.339-.5-2.224l3.08-14.149a5.956 5.956 0 0 1-3.669 1.458zm-3.007 7.39l-1.139 5.244c-.142.654-.371 1.374.186 1.374a1.263 1.263 0 0 0 .408-.141v.443a2.852 2.852 0 0 1-1.994 1.467c-.629 0-1.14-.59-1.185-1.467a4.358 4.358 0 0 1-2.973 1.467c-1.252 0-1.946-1.139-1.6-3.08.793-4.485 5.774-3.958 6.185-5.851.2-.915.577-2.655-.475-2.651-.788 0-1.311 1.091-1.555 1.846s-.929 1.749-1.532 1.749c-.511 0-.741-.748-.673-1.4a3.985 3.985 0 0 1 4.156-2.919 3.162 3.162 0 0 1 1.8.566 2.409 2.409 0 0 1 .6 2.238c-.05.37-.134.749-.214 1.116zm-3.447 5.594c-.511.654-1.205 1.327-1.764 1.327-.743 0-.838-1.057-.7-1.988a3.856 3.856 0 0 1 3.319-3.291l-.859 3.953zm-16.179-6.691c-.8.237-2.871-.016-3.363-1.332a1.611 1.611 0 0 1 .856-1.958 3.706 3.706 0 0 1 3.274-.2zm-.414 2.106l-.916 3.991c-.352 1.618-.977 2.527-2.032 2.527l-.122.56h5.527l.121-.56c-1.322 0-1.361-.662-.954-2.524l1.885-8.68c1.758.835 3.018 2.906 4.791 3.395l-1.15 5.282c-.356 1.615-.957 2.527-2.018 2.527l-.122.559h5.525l.125-.559c-1.118 0-1.337-.668-.965-2.527l1.018-4.688c1.2.3 3.422-2.207 2.406-2.175.045.467-1.495 1.384-2.117.852.132-.615 2.574-11.76 2.551-11.736l-4.219.606-.117.512c1.1 0 1.493.3 1.18 1.728-.588 2.7-1.193 5.514-1.8 8.249-1.824-.493-2.966-2.435-4.84-3.153l1.734-7.943-4.239.606-.117.512c1.1 0 1.508.3 1.2 1.723l-.9 4.118a3.936 3.936 0 0 0-3.188.279 3.584 3.584 0 0 0-1.858 3.533 3.279 3.279 0 0 0 3.607 2.986zm50.408 4.585c-.511.654-1.206 1.327-1.763 1.327-.745 0-.814-1.052-.7-1.988a3.889 3.889 0 0 1 3.319-3.292l-.857 3.953z" class="cls-4" transform="translate(-606.859 -1439.411)"/>
        </g>
    </g>
</svg>
